<?xml version="1.0" encoding="UTF-8"?>
<!DOCTYPE svg PUBLIC "-//W3C//DTD SVG 1.1//EN" "http://www.w3.org/Graphics/SVG/1.1/DTD/svg11.dtd">
<!-- Creator: CorelDRAW (Deneme Sürümü) -->
<svg xmlns="http://www.w3.org/2000/svg" xml:space="preserve" width="1000mm" height="1414.29mm" version="1.1" style="shape-rendering:geometricPrecision; text-rendering:geometricPrecision; image-rendering:optimizeQuality; fill-rule:evenodd; clip-rule:evenodd"
viewBox="0 0 100000 141428.57"
 xmlns:xlink="http://www.w3.org/1999/xlink"
 xmlns:xodm="http://www.corel.com/coreldraw/odm/2003">
 <defs>
  <style type="text/css">
   <![CDATA[
    .fil0 {fill:#2B2A29;fill-rule:nonzero}
   ]]>
  </style>
 </defs>
 <g id="Katman_x0020_1">
  <metadata id="CorelCorpID_0Corel-Layer"/>
  <path class="fil0" d="M3758.62 1938.29c-13.43,56.48 -45,104.19 -94.76,143.14 -20.71,16.24 -41.95,29.1 -63.86,38.57 67.67,31 122.29,72.24 163.9,123.71 73.9,91.43 116.95,198.24 129.05,320.52 12.1,122.33 -0.71,252 -38.33,389.1 -14.14,51.48 -30.33,101.67 -48.67,150.48 3.81,2.29 7.57,4.81 11.19,7.52 32.24,24.19 49.71,59.81 52.43,106.86 2.67,47 -22.86,97.43 -76.62,151.19 -21.52,21.48 -33.62,40.29 -36.29,56.43 -2.67,16.14 0.67,29.57 10.1,40.33 9.38,10.71 22.14,20.14 38.29,28.19 16.14,8.1 30.9,14.81 44.33,20.19 56.48,26.86 95.43,65.14 116.95,114.9 21.48,49.71 20.14,98.76 -4.05,147.14l-209.67 459.62c-45.67,94.1 -73.9,164.62 -84.67,211.67 -10.71,47.05 1.38,70.57 36.29,70.57 53.76,0 111.57,-43.71 173.38,-131.05 55.38,-78.29 114.05,-181.9 175.9,-310.95 9.05,-21.76 18.95,-43.76 29.71,-66 77.95,-158.62 161.95,-288.95 252,-391.1 90.05,-102.14 178.05,-180.1 264.1,-233.86 86,-53.76 166.62,-86 241.9,-96.76 75.24,-10.76 137.05,-4 185.43,20.19 40.33,21.48 71.9,53.05 94.76,94.71 22.86,41.67 35.62,89.38 38.29,143.14 2.71,53.76 -4.67,112.19 -22.14,175.38 -17.48,63.14 -47.71,125.67 -90.71,187.48 -59.14,86 -124.33,155.24 -195.57,207.62 -71.19,52.43 -140.43,87.38 -207.62,104.86 -67.19,17.48 -127,18.81 -179.43,4 -52.38,-14.76 -90.71,-46.33 -114.9,-94.71 -24.19,88.67 -32.9,167.29 -26.19,235.86 6.71,68.52 36.95,114.9 90.71,139.1 43,21.48 99.43,24.86 169.33,10.05 69.9,-14.76 141.1,-44.33 213.67,-88.67 72.57,-44.38 143.14,-100.81 211.67,-169.33 63.29,-63.29 116.76,-132.76 160.57,-208.62l333.33 -704.57 330.62 0 -96.76 201.57c69.9,-72.57 137.1,-124.33 201.57,-155.24 64.52,-30.9 133.05,-46.33 205.62,-46.33 48.38,0 86.05,18.14 112.9,54.43 26.9,36.29 37.62,83.95 32.24,143.1 145.14,-131.71 271.48,-197.52 379,-197.52 34.95,0 65.19,9.38 90.71,28.19 25.52,18.81 43.67,45.05 54.43,78.62 10.76,33.62 12.76,73.24 6.05,118.95 -6.71,45.67 -24.86,94.05 -54.43,145.14 -96.76,172 -174.71,311.1 -233.86,417.29 -59.1,106.19 -102.81,188.81 -131,247.95 -28.24,59.14 -43,98.76 -44.38,118.95 -1.33,20.14 6.05,30.24 22.19,30.24 53.76,0 116.24,-45.71 187.48,-137.1 71.24,-91.38 141.81,-212.33 211.67,-362.86l92.71 96.76c-94.05,206.95 -192.81,367.57 -296.33,481.81 -103.48,114.24 -215.67,171.33 -336.62,171.33 -61.81,0 -110.9,-14.76 -147.19,-44.33 -36.29,-29.57 -53.71,-79.29 -52.38,-149.19 1.33,-69.9 26.86,-161.95 76.57,-276.19 49.76,-114.24 129.71,-254.67 239.9,-421.29 59.14,-86.05 100.81,-157.95 125,-215.71 24.19,-57.81 21.48,-86.67 -8.1,-86.67 -16.1,0 -38.95,11.38 -68.52,34.24 -29.57,22.86 -62.48,53.1 -98.76,90.71 -36.29,37.62 -73.24,82 -110.9,133.05 -37.62,51.1 -72.57,106.19 -104.81,165.33 -32.24,59.1 -69.19,131 -110.86,215.67 -41.67,84.67 -81.33,167.33 -118.95,247.95 -43,94.1 -86,192.19 -129,294.33l-330.62 0c61.81,-129 119.62,-249.95 173.38,-362.86 24.19,-48.38 47.71,-97.43 70.52,-147.14 22.86,-49.76 45.71,-98.14 68.57,-145.14 22.81,-47.05 43.67,-90.05 62.48,-129.05 18.81,-38.95 34.95,-70.52 48.38,-94.71 99.48,-193.52 120.95,-290.29 64.52,-290.29 -26.9,0 -64.52,29.52 -112.9,88.67 -48.38,59.14 -102.81,138.43 -163.29,237.9 -60.48,99.43 -125,213 -193.52,340.67 -68.52,127.67 -136.43,260.05 -203.62,397.14l0 -4.05 -52.38 108.86 -330.62 0 107.14 -226.48c-71.24,62.71 -144.62,115.38 -220.05,157.95 -104.81,59.1 -208.29,94.71 -310.43,106.81 -102.14,12.1 -193.52,-7.38 -274.19,-58.43 -43,-26.9 -77.24,-64.52 -102.81,-112.9 -25.52,-48.38 -40.95,-105.48 -46.33,-171.33l-0.1 -1.52c-37.24,55.29 -74.86,104.19 -112.81,146.67 -102.14,114.24 -213.71,171.33 -334.67,171.33 -112.86,0 -180.76,-47.05 -203.57,-141.1 -22.86,-94.1 6.05,-228.48 86.67,-403.19 26.86,-59.14 51.05,-110.19 72.57,-153.19 21.52,-43.05 41.67,-81.33 60.48,-114.9 18.81,-33.62 36.95,-65.86 54.43,-96.76 17.48,-30.95 36.95,-65.19 58.48,-102.81 16.1,-29.57 23.52,-58.48 22.14,-86.71 -1.33,-28.19 -14.1,-53.1 -38.29,-74.57l-266.1 564.43 -96.76 -96.76 168.71 -352.33c-25.1,35.62 -50.71,70.86 -76.81,105.67 -116.9,155.86 -235.86,309.1 -356.81,459.62 -48.38,56.43 -102.81,117.57 -163.29,183.43 -60.48,65.86 -118.95,135.05 -175.38,207.62 -56.43,72.57 -104.14,147.19 -143.14,223.76 -38.95,76.62 -59.76,153.9 -62.48,231.86 -77.95,24.19 -131.05,4.67 -159.24,-58.48 -28.24,-63.14 -27.57,-151.19 2,-264.1 21.52,-83.29 51.76,-164.62 90.71,-243.9 39,-79.29 82.67,-156.57 131.05,-231.81 48.38,-75.29 99.43,-148.52 153.19,-219.76 53.76,-71.24 106.19,-140.43 157.24,-207.62 43,-56.43 96.76,-121.62 161.29,-195.52 64.48,-73.95 131,-153.24 199.57,-237.9 68.52,-84.67 133.05,-172 193.52,-262.05 60.48,-90.05 110.19,-181.43 149.14,-274.14 39,-92.76 61.86,-184.14 68.57,-274.19 6.71,-90.05 -10.1,-175.38 -50.43,-256l0 -4.05c-2.67,2.71 -2.67,5.38 0,8.05 -43,-75.24 -108.86,-124.95 -197.52,-149.14 -94.1,-29.57 -192.86,-40.33 -296.33,-32.29 -103.48,8.1 -206.95,28.9 -310.48,62.52 -103.48,33.57 -201.57,76.57 -294.29,129 -92.76,52.43 -172.71,109.52 -239.9,171.33 -75.24,64.52 -139.1,137.1 -191.52,217.76 -52.38,80.62 -85.33,163.95 -98.76,249.95 -13.43,88.71 2.67,159.24 48.38,211.67 45.71,52.43 110.19,81.29 193.52,86.67 86,2.71 170,-12.76 252,-46.33 81.95,-33.62 155.9,-78.62 221.71,-135.1 65.86,-56.43 120.95,-122.95 165.33,-199.57 44.33,-76.57 73.24,-156.57 86.67,-239.9 53.76,0 97.43,8.76 131.05,26.24 33.57,17.48 59.14,39.62 76.57,66.52 17.48,26.86 28.24,57.1 32.29,90.71 4,33.57 2,66.52 -6.05,98.76 -8.1,45.71 -26.9,91.38 -56.48,137.1 -29.52,45.67 -63.81,89.38 -102.81,131.05 -38.95,41.62 -80.62,79.29 -124.95,112.86 -44.38,33.62 -84,59.81 -118.95,78.62 -75.24,45.71 -159.24,81.33 -252,106.86 -92.71,25.52 -198.19,32.9 -316.48,22.19 -75.24,-5.38 -142.48,-24.19 -201.57,-56.48 -59.14,-32.24 -107.52,-74.57 -145.14,-127 -37.67,-52.38 -63.19,-111.52 -76.62,-177.38 -13.43,-65.86 -12.1,-136.43 4.05,-211.67 34.9,-161.29 112.86,-307.1 233.81,-437.48 120.95,-130.33 262.1,-239.86 423.33,-328.57 161.29,-88.71 331.29,-151.86 510.05,-189.48 159,-33.48 307.9,-41.43 446.71,-23.86 -16.62,-34.33 -19.43,-74.43 -8.52,-120.33 13.43,-53.71 45.05,-100.76 94.76,-141.1 49.71,-40.33 102.81,-60.48 159.24,-60.48 53.76,0 94.76,20.14 123,60.48 28.19,40.33 35.57,87.38 22.14,141.1zm1070.52 1846.33c69.86,-75.24 115.57,-145.81 137.05,-211.67 21.52,-65.86 21.52,-105.48 0,-118.9 -32.24,-21.52 -72.57,-21.52 -120.95,0 -48.38,21.48 -98.1,56.43 -149.14,104.81 -51.1,48.38 -100.81,106.14 -149.19,173.38 -48.38,67.19 -88.71,135.71 -120.95,205.62 -13.43,37.62 -9.43,61.14 12.1,70.52 21.52,9.43 52.43,6.71 92.71,-8.05 40.33,-14.81 86.71,-40.33 139.1,-76.62 52.43,-36.29 105.52,-82.62 159.29,-139.1z"/>
 </g>
</svg>
