<?xml version="1.0" encoding="UTF-8"?>
<!DOCTYPE svg PUBLIC "-//W3C//DTD SVG 1.1//EN" "http://www.w3.org/Graphics/SVG/1.1/DTD/svg11.dtd">
<!-- Creator: CorelDRAW (Deneme Sürümü) -->
<svg xmlns="http://www.w3.org/2000/svg" xml:space="preserve" width="1000mm" height="1414.29mm" version="1.1" style="shape-rendering:geometricPrecision; text-rendering:geometricPrecision; image-rendering:optimizeQuality; fill-rule:evenodd; clip-rule:evenodd"
viewBox="0 0 100000 141428.57"
 xmlns:xlink="http://www.w3.org/1999/xlink"
 xmlns:xodm="http://www.corel.com/coreldraw/odm/2003">
 <defs>
  <style type="text/css">
   <![CDATA[
    .fil0 {fill:#2B2A29;fill-rule:nonzero}
   ]]>
  </style>
 </defs>
 <g id="Katman_x0020_1">
  <metadata id="CorelCorpID_0Corel-Layer"/>
  <path class="fil0" d="M6510.14 -278.95c-3.95,16.48 -9.48,32.19 -16.57,47.19 53.67,-19.38 108.43,-34.9 164.19,-46.62l48.38 129c-134.38,61.81 -258.71,147.14 -372.9,256 -114.24,108.86 -219.76,229.14 -316.52,360.86 -96.76,131.71 -184.76,268.14 -264.05,409.24 -79.33,141.1 -151.19,273.48 -215.71,397.14 -24.19,45.67 -58.48,111.52 -102.81,197.52 -44.33,86 -89.38,180.76 -135.05,284.24 -29.71,67.24 -57.38,135.95 -83.14,206.05l281.76 -595.62 330.62 0 -96.76 201.57c69.9,-72.57 137.1,-124.33 201.57,-155.24 64.52,-30.9 133.05,-46.33 205.62,-46.33 48.38,0 86.05,18.14 112.9,54.43 26.9,36.29 37.62,83.95 32.24,143.1 145.14,-131.71 271.48,-197.52 379,-197.52 34.95,0 65.19,9.38 90.71,28.19 25.52,18.81 43.67,45.05 54.43,78.62 10.76,33.62 12.76,73.24 6.05,118.95 -6.71,45.67 -24.86,94.05 -54.43,145.14 -96.76,172 -174.71,311.1 -233.86,417.29 -59.1,106.19 -102.81,188.81 -131,247.95 -28.24,59.14 -43,98.76 -44.38,118.95 -1.33,20.14 6.05,30.24 22.19,30.24 53.76,0 116.24,-45.71 187.48,-137.1 71.24,-91.38 141.81,-212.33 211.67,-362.86l0.52 0.52 322 -685.9 44.24 0c-4.33,-4.52 -8.43,-9.38 -12.33,-14.62 -29.57,-39 -36.29,-86 -20.14,-140.43 13.43,-54.43 45,-102.14 94.76,-142.48 49.71,-41 102.81,-61.14 159.24,-61.14 53.76,0 94.76,20.14 122.95,61.14 28.24,40.33 35.62,88.05 22.19,142.48 -13.43,54.43 -45,101.43 -94.76,140.43 -6.57,5.24 -13.19,10.1 -19.86,14.62l34.33 0 -415.29 891c-45.67,94.1 -74.57,164.62 -86.67,211.67 -12.1,47.05 0.67,70.57 38.29,70.57 53.76,0 111.57,-43.71 173.38,-131.05 56,-79.14 115.33,-184.24 178,-315.29l3.24 -6.81 13.05 -27.67 3.29 -7.05 258.05 -548.33 -177.43 0 64.52 -141.1 177.38 0 318.52 -674 370.9 -92.05 -358.81 766.05 282.24 0 -56.48 141.1 -290.29 0 -350.76 753.95c-45.67,94.1 -63.14,164.62 -52.38,211.67 10.71,47.05 34.9,70.57 72.57,70.57 26.86,0 62.48,-11.43 106.81,-34.29 44.38,-22.86 91.38,-55.1 141.14,-96.76 49.71,-41.67 98.76,-92.71 147.14,-153.19 48.38,-60.48 90.05,-128.38 125,-203.62l92.71 96.76c-48.38,102.14 -104.81,193.52 -169.33,274.14 -64.52,80.67 -132.38,149.19 -203.62,205.62 -71.19,56.48 -142.43,99.48 -213.67,129.05 -71.24,29.57 -137.76,44.33 -199.57,44.33 -53.76,0 -101.48,-12.1 -143.14,-36.29 -41.67,-24.19 -71.9,-59.14 -90.71,-104.81 -9.19,-22.29 -15.29,-47.33 -18.38,-75.05 -12.62,15.67 -25.33,30.57 -38.05,44.81 -102.14,114.24 -213.71,171.33 -334.67,171.33 -112.86,0 -181.43,-47.05 -205.62,-141.1 -3.43,-13.43 -5.81,-27.62 -7.05,-42.67l-11.1 12.43c-103.48,114.24 -215.67,171.33 -336.62,171.33 -61.81,0 -110.9,-14.76 -147.19,-44.33 -36.29,-29.57 -53.71,-79.29 -52.38,-149.19 1.33,-69.9 26.86,-161.95 76.57,-276.19 49.76,-114.24 129.71,-254.67 239.9,-421.29 59.14,-86.05 100.81,-157.95 125,-215.71 24.19,-57.81 21.48,-86.67 -8.1,-86.67 -16.1,0 -38.95,11.38 -68.52,34.24 -29.57,22.86 -62.48,53.1 -98.76,90.71 -36.29,37.62 -73.24,82 -110.9,133.05 -37.62,51.1 -72.57,106.19 -104.81,165.33 -32.24,59.1 -69.19,131 -110.86,215.67 -41.67,84.67 -81.33,167.33 -118.95,247.95 -43,94.1 -86,192.19 -129,294.33l-330.62 0c61.81,-129 119.62,-249.95 173.38,-362.86 24.19,-48.38 47.71,-97.43 70.52,-147.14 22.86,-49.76 45.71,-98.14 68.57,-145.14 22.81,-47.05 43.67,-90.05 62.48,-129.05 18.81,-38.95 34.95,-70.52 48.38,-94.71 99.48,-193.52 120.95,-290.29 64.52,-290.29 -26.9,0 -64.52,29.52 -112.9,88.67 -48.38,59.14 -102.81,138.43 -163.29,237.9 -60.48,99.43 -125,213 -193.52,340.67 -68.52,127.67 -136.43,260.05 -203.62,397.14l0 -4.05 -8.1 16.86c34.62,31.14 81.33,52.57 140.05,64.33 -5.38,45.67 -27.52,85.33 -66.52,118.9 -38.95,33.62 -85.33,55.81 -139.1,66.52 -53.76,10.76 -109.52,8.76 -167.33,-6.05 -57.76,-14.76 -106.81,-46.33 -147.14,-94.71 -56.43,-67.19 -81.29,-154.57 -74.57,-262.1 6.71,-107.48 28.19,-217.71 64.48,-330.57 36.29,-112.9 77.95,-219.76 125,-320.52 47.05,-100.81 81.33,-180.76 102.81,-239.9 -77.95,137.1 -158.57,275.52 -241.9,415.29 -83.33,139.76 -171.33,268.1 -264.1,385 -92.71,116.95 -188.14,215.05 -286.24,294.33 -98.1,79.29 -199.57,127 -304.38,143.14 -29.57,5.38 -67.86,6.71 -114.9,4 -47.05,-2.67 -92.1,-17.48 -135.1,-44.33 -96.76,-59.14 -157.24,-141.1 -181.43,-245.95 -24.19,-104.81 -24.19,-219.71 0,-344.71 24.19,-124.95 65.86,-255.33 125,-391.05 59.14,-135.76 124.33,-265.43 195.52,-389.1 71.24,-123.62 140.48,-235.19 207.67,-334.62 67.19,-99.48 120.95,-177.38 161.24,-233.86 51.1,-69.86 111.57,-147.81 181.43,-233.81 69.9,-86.05 144.48,-171.38 223.76,-256.05 79.33,-84.67 161.29,-166.62 245.95,-245.95 84.67,-79.29 168.67,-148.48 252,-207.62l-685.43 225.76c-34.9,-53.71 -75.24,-100.76 -120.95,-141.1 -45.67,-40.33 -98.1,-72.57 -157.24,-96.76 -53.71,-21.48 -114.19,-36.29 -181.43,-44.33 -67.19,-8.1 -137.05,-1.33 -209.62,20.14 -69.9,18.81 -141.81,53.1 -215.71,102.81 -73.9,49.71 -129.67,110.86 -167.33,183.43 -26.86,51.1 -46.33,106.86 -58.43,167.33 -12.1,60.48 -14.81,118.95 -8.1,175.38 6.71,56.48 24.19,108.86 52.43,157.24 28.24,48.38 69.19,84.67 122.95,108.86 53.76,21.52 108.19,26.24 163.29,14.14 55.1,-12.1 101.48,-38.33 139.1,-78.62 21.52,-29.57 37.67,-62.52 48.38,-98.81 10.76,-36.29 12.1,-73.24 4.05,-110.86 61.81,-21.52 116.9,-18.14 165.29,10.1 48.38,28.19 71.24,77.24 68.57,147.14 -2.71,88.71 -28.24,161.29 -76.62,217.71 -48.38,56.43 -106.86,96.76 -175.38,120.95 -68.52,24.19 -141.1,32.9 -217.71,26.19 -76.62,-6.71 -144.48,-28.9 -203.62,-66.52 -72.57,-45.67 -127.67,-101.48 -165.29,-167.29 -37.62,-65.86 -60.48,-137.1 -68.52,-213.71 -8.1,-76.57 -3.38,-155.19 14.1,-235.86 17.48,-80.62 44.33,-157.9 80.62,-231.81 36.29,-73.9 80,-141.81 131.05,-203.62 51.05,-61.81 106.19,-111.52 165.29,-149.19 94.1,-59.1 192.19,-98.1 294.33,-116.9 102.14,-18.81 203.62,-20.81 304.38,-6.05 100.81,14.81 198.9,45.71 294.33,92.71 95.43,47.05 182.1,105.52 260.05,175.38l968.67 -246.62c1.05,-7.81 2.57,-15.86 4.52,-24.05 13.43,-53.71 45,-100.76 94.76,-141.1 49.71,-40.33 102.81,-60.48 159.24,-60.48 53.76,0 94.76,20.14 122.95,60.48 28.24,40.33 35.62,87.38 22.19,141.1 -13.43,56.48 -45.05,104.19 -94.76,143.14 -49.71,39 -102.81,58.48 -159.24,58.48 -42.38,0 -76.81,-12.1 -103.29,-36.29 -91.52,35.43 -179.19,83.95 -263.1,145.67 -116.95,86 -226.48,183.43 -328.62,292.29 -102.14,108.86 -197.57,223.1 -286.24,342.71 -88.71,119.62 -170.67,231.86 -245.95,336.67 -75.24,104.81 -158.57,221.05 -249.95,348.76 -91.38,127.67 -177.43,262.05 -258.05,403.14 -80.62,141.14 -148.48,284.9 -203.62,431.43 -55.1,146.48 -83.95,289.62 -86.67,429.38 -2.67,59.1 16.14,103.48 56.43,133.05 40.33,29.57 90.05,36.29 149.19,20.14 64.52,-18.81 131.05,-57.81 199.57,-116.9 68.52,-59.14 137.76,-131.71 207.62,-217.71 69.9,-86.05 139.81,-181.43 209.67,-286.29 69.9,-104.81 137.1,-211.67 201.57,-320.52 64.52,-108.86 125,-216.38 181.43,-322.52 56.48,-106.19 108.86,-202.29 157.29,-288.29 80.62,-147.81 172.67,-303.05 276.14,-465.67 103.48,-162.62 218.38,-314.48 344.71,-455.57 126.33,-141.14 263.43,-263.43 411.24,-366.9l18.81 -12.95c-31.57,-8.62 -56.81,-25.95 -75.71,-52.1 -28.24,-38.95 -34.29,-86.67 -18.14,-143.14 13.43,-53.71 45,-100.76 94.71,-141.1 49.71,-40.33 102.81,-60.48 159.29,-60.48 53.76,0 94.71,20.14 122.95,60.48 28.24,40.33 35.62,87.38 22.19,141.1z"/>
 </g>
</svg>
