<svg xmlns="http://www.w3.org/2000/svg" width="800mm" height="600mm" viewBox="0 0 800 600" data-corel-reference="true">
<title>Corel reference object: 30 mart gold 01.ai / 7</title>
<rect x="0" y="0" width="800" height="600" fill="#ffffff"/>
<g id="corel-reference-paths" fill="none" stroke="#020617" stroke-width="0.22" stroke-linejoin="round" stroke-linecap="round" vector-effect="non-scaling-stroke">
<path id="corel-ref-path-1" d="M 593.812 391.819 C 595.290 389.340 596.758 386.858 598.213 384.371 C 599.376 382.384 600.441 380.312 601.173 378.214 C 601.650 376.845 602.086 375.251 602.002 373.831 C 601.950 372.956 601.538 372.269 600.481 371.835 L 600.458 371.826 L 600.436 371.816 C 599.389 371.333 597.775 372.071 596.935 372.507 C 594.700 373.668 592.663 375.224 590.884 376.747 C 588.427 378.852 586.224 381.147 584.196 383.486 C 581.969 386.054 579.994 388.734 578.239 391.493 C 576.752 393.831 575.364 396.211 574.191 398.646 C 573.171 400.763 572.275 402.935 571.648 405.135 C 571.201 406.700 570.832 408.427 570.916 410.030 C 570.950 410.686 571.118 411.628 572.085 411.895 L 572.162 411.917 L 572.232 411.946 C 573.086 412.306 574.792 411.402 575.410 411.051 C 577.579 409.820 579.543 408.215 581.261 406.650 C 583.646 404.481 585.821 402.167 587.861 399.816 C 590.085 397.252 592.083 394.583 593.812 391.819 L 593.812 391.819 Z"/>
<path id="corel-ref-path-2" d="M 250.363 352.422 C 252.348 350.316 254.266 348.142 255.942 345.894 C 257.138 344.290 258.287 342.561 259.036 340.812 C 259.474 339.787 259.966 338.506 260.010 337.426 C 260.019 337.198 260.010 336.555 259.713 336.376 C 258.888 336.119 257.676 336.841 257.128 337.197 C 256.278 337.749 255.507 338.415 254.810 339.071 C 253.818 340.004 252.907 340.995 252.045 341.996 C 249.702 344.713 247.586 347.566 245.585 350.427 C 242.955 354.191 240.501 358.030 238.140 361.890 C 237.746 362.568 237.335 363.240 236.914 363.909 C 241.791 360.345 246.262 356.483 250.363 352.422 L 250.363 352.422 Z"/>
<path id="corel-ref-path-3" d="M 197.510 323.803 C 197.182 323.938 196.755 324.179 196.591 324.275 C 195.667 324.820 194.786 325.465 193.962 326.089 C 192.407 327.269 190.942 328.534 189.532 329.809 C 187.642 331.519 185.827 333.279 184.053 335.056 C 179.252 339.864 174.812 344.927 170.551 350.002 C 165.030 356.579 160.018 363.413 155.330 370.331 L 154.500 371.583 C 159.219 367.238 163.832 362.832 168.335 358.364 C 173.936 352.805 179.423 347.169 184.649 341.414 C 186.748 339.103 188.800 336.763 190.753 334.382 C 192.290 332.506 193.778 330.594 195.124 328.638 C 195.904 327.504 196.741 326.225 197.228 325.002 C 197.304 324.811 197.532 324.160 197.510 323.803 L 197.510 323.803 Z"/>
<path id="corel-ref-path-4" d="M 709.897 220.437 C 710.995 218.367 712.086 216.294 713.167 214.218 C 714.030 212.558 714.821 210.828 715.364 209.075 C 715.719 207.932 716.042 206.601 715.980 205.415 C 715.941 204.684 715.636 204.111 714.850 203.749 L 714.833 203.741 L 714.817 203.733 C 714.039 203.329 712.840 203.946 712.217 204.310 C 710.557 205.280 709.044 206.578 707.723 207.851 C 705.899 209.609 704.263 211.526 702.756 213.478 C 701.102 215.623 699.636 217.860 698.332 220.165 C 697.228 222.118 696.197 224.106 695.326 226.139 C 694.568 227.907 693.903 229.720 693.437 231.557 C 693.105 232.864 692.831 234.306 692.894 235.645 C 692.919 236.193 693.044 236.980 693.762 237.203 L 693.819 237.221 L 693.871 237.246 C 694.505 237.547 695.773 236.791 696.231 236.498 C 697.842 235.470 699.301 234.129 700.577 232.823 C 702.347 231.011 703.963 229.079 705.478 227.115 C 707.129 224.974 708.613 222.745 709.897 220.437 L 709.897 220.437 Z"/>
<path id="corel-ref-path-5" d="M 612.589 219.340 C 612.448 219.673 612.281 220.158 612.353 220.506 C 612.389 220.680 612.474 220.778 612.670 220.850 C 613.546 221.167 614.942 220.826 615.782 220.570 C 617.648 220.002 619.493 219.061 621.122 218.125 C 623.375 216.831 625.435 215.296 627.309 213.640 C 629.453 211.745 631.589 209.415 632.572 206.917 C 632.855 206.197 633.174 205.273 633.174 204.510 C 633.174 204.295 633.145 203.865 632.890 203.733 L 632.880 203.727 L 632.871 203.722 C 631.607 203.023 630.108 203.293 628.805 203.773 C 626.697 204.551 624.774 205.792 623.108 207.102 C 620.950 208.798 619.028 210.712 617.292 212.711 C 615.483 214.796 613.889 217.008 612.589 219.340 L 612.589 219.340 Z"/>
<path id="corel-ref-path-6" d="M 428.959 177.809 C 428.715 177.921 428.398 178.123 428.277 178.204 C 427.590 178.658 426.937 179.197 426.324 179.718 C 425.168 180.703 424.082 181.760 423.035 182.825 C 421.631 184.253 420.282 185.723 418.965 187.206 C 415.399 191.222 412.102 195.449 408.938 199.688 C 404.837 205.181 401.115 210.888 397.634 216.665 L 397.018 217.711 C 400.522 214.082 403.948 210.402 407.292 206.671 C 411.451 202.029 415.526 197.323 419.407 192.516 C 420.966 190.586 422.491 188.632 423.940 186.644 C 425.083 185.077 426.188 183.481 427.187 181.847 C 427.767 180.900 428.388 179.832 428.750 178.810 C 428.806 178.651 428.975 178.108 428.959 177.809 L 428.959 177.809 Z"/>
<path id="corel-ref-path-7" d="M 285.482 266.339 C 282.186 267.762 278.936 269.292 275.837 270.979 C 273.425 272.293 270.733 274.159 269.748 276.494 C 269.376 277.376 269.143 278.454 270.142 279.108 C 270.984 279.660 271.956 279.439 272.830 279.048 C 274.398 278.348 275.833 277.219 277.021 276.131 C 278.775 274.526 280.358 272.754 281.827 270.965 C 283.077 269.441 284.295 267.898 285.482 266.339 L 285.482 266.339 Z"/>
<path id="corel-ref-path-8" d="M 306.203 232.023 C 307.363 229.977 308.509 227.918 309.541 225.824 C 310.372 224.137 311.145 222.408 311.749 220.655 C 312.138 219.528 312.501 218.190 312.440 217.011 C 312.402 216.280 312.095 215.707 311.310 215.345 L 311.293 215.336 L 311.276 215.328 C 310.499 214.925 309.300 215.542 308.677 215.906 C 307.017 216.875 305.504 218.174 304.183 219.446 C 302.358 221.205 300.722 223.121 299.216 225.074 C 297.562 227.218 296.096 229.456 294.792 231.760 C 293.687 233.714 292.657 235.701 291.785 237.734 C 291.023 239.514 290.337 241.329 289.812 243.168 C 289.448 244.445 289.150 245.900 289.272 247.217 C 289.317 247.701 289.463 248.585 290.094 248.809 L 290.134 248.824 L 290.171 248.841 C 290.812 249.145 292.149 248.377 292.622 248.087 C 294.269 247.074 295.749 245.735 297.036 244.419 C 298.795 242.619 300.382 240.687 301.852 238.718 C 303.464 236.561 304.901 234.319 306.203 232.023 L 306.203 232.023 Z"/>
<path id="corel-ref-path-9" d="M 251.209 230.936 C 251.069 231.268 250.903 231.754 250.975 232.102 C 251.011 232.276 251.096 232.374 251.292 232.445 C 252.167 232.763 253.564 232.421 254.403 232.166 C 256.270 231.598 258.114 230.657 259.743 229.721 C 261.996 228.427 264.056 226.891 265.930 225.235 C 268.074 223.341 270.210 221.010 271.193 218.512 C 271.476 217.793 271.794 216.869 271.794 216.106 C 271.794 215.890 271.767 215.461 271.510 215.328 L 271.501 215.323 L 271.492 215.318 C 270.227 214.619 268.729 214.888 267.425 215.369 C 265.318 216.147 263.395 217.388 261.729 218.697 C 259.572 220.393 257.648 222.307 255.914 224.307 C 254.105 226.391 252.510 228.603 251.209 230.936 L 251.209 230.936 Z"/>
<path id="corel-ref-path-10" d="M 140.718 276.470 C 140.477 277.238 140.183 278.542 141.159 279.051 C 142.125 279.440 143.120 279.206 144.019 278.788 C 145.504 278.099 146.847 277.044 147.979 276.001 C 149.600 274.506 151.050 272.848 152.382 271.171 C 153.552 269.698 154.677 268.201 155.767 266.685 C 152.620 268.043 149.517 269.502 146.558 271.112 C 144.190 272.401 141.687 274.186 140.718 276.470 L 140.718 276.470 Z"/>
<path id="corel-ref-path-11" d="M 151.902 177.811 C 149.394 179.596 147.121 181.606 145.061 183.777 C 136.800 192.484 119.836 214.434 113.986 223.568 C 114.658 223.754 122.434 225.140 123.092 225.357 C 133.347 209.774 140.267 188.945 151.902 177.811 L 151.902 177.811 Z"/>
<path id="corel-ref-path-12" d="M 96.379 228.495 C 94.881 228.457 93.380 228.478 91.884 228.542 C 89.858 228.628 87.857 228.911 85.907 229.379 C 83.944 229.851 82.083 230.540 80.345 231.431 C 78.620 232.315 77.211 233.471 76.110 234.883 L 75.662 235.456 L 75.014 235.037 C 73.261 233.906 71.321 233.022 69.191 232.492 C 67.064 231.962 64.859 231.982 62.700 232.372 L 62.688 232.374 L 62.675 232.376 C 60.403 232.719 58.276 233.409 56.308 234.414 C 54.274 235.452 52.430 236.709 50.793 238.152 C 49.130 239.618 47.667 241.223 46.419 242.949 C 45.220 244.606 44.263 246.372 43.623 248.232 L 43.619 248.241 L 43.616 248.250 C 42.917 250.071 42.588 251.951 42.692 253.862 C 42.791 255.656 43.370 257.333 44.499 258.865 C 45.618 260.384 47.134 261.559 49.011 262.420 C 50.860 263.269 52.843 263.827 54.950 264.002 L 54.964 264.003 L 54.978 264.005 C 57.907 264.340 60.742 263.979 63.416 262.932 C 66.363 261.779 69.041 260.200 71.459 258.395 C 74.214 256.337 76.701 254.035 78.949 251.589 C 81.350 248.978 83.599 246.272 85.696 243.487 C 87.779 240.722 89.800 237.925 91.750 235.093 C 93.272 232.884 94.810 230.682 96.379 228.495 L 96.379 228.495 Z"/>
<path id="corel-ref-path-13" d="M 404.646 399.184 C 405.523 397.764 406.445 396.359 407.389 394.966 C 410.301 390.668 413.234 386.335 416.446 382.156 C 418.736 379.176 421.103 376.227 423.565 373.322 C 425.495 371.043 427.400 368.745 429.379 366.488 L 429.679 366.146 L 449.496 366.146 L 448.508 367.297 C 445.779 370.477 443.134 373.697 440.562 376.965 C 438.079 379.942 435.738 382.983 433.491 386.056 C 431.188 389.206 428.908 392.377 426.851 395.619 C 425.238 398.161 423.675 400.735 422.271 403.346 C 421.321 405.115 420.389 406.966 419.746 408.811 C 419.454 409.648 419.044 410.979 419.227 411.845 C 419.252 411.964 419.315 412.181 419.435 412.272 C 419.498 412.319 419.611 412.324 419.695 412.324 C 420.109 412.324 421.228 411.633 421.521 411.441 C 422.936 410.517 424.265 409.379 425.473 408.309 C 429.248 404.967 432.779 401.439 436.175 397.883 C 440.291 393.577 444.249 389.188 448.083 384.742 C 451.573 380.696 454.986 376.593 458.157 372.406 L 462.742 366.146 L 480.210 366.146 L 457.383 402.290 C 456.342 403.871 455.337 405.475 454.453 407.104 C 453.870 408.180 453.291 409.332 452.941 410.463 C 452.815 410.871 452.633 411.641 452.908 412.036 C 453.088 412.295 453.535 412.324 453.886 412.324 C 457.273 412.324 460.554 409.308 462.304 407.483 C 465.010 404.661 467.355 401.571 469.490 398.497 L 490.230 366.146 L 510.121 366.146 L 506.637 371.503 C 508.805 370.144 511.157 368.929 513.659 368.044 C 517.257 366.772 521.074 366.146 525.065 366.146 C 527.869 366.146 530.223 366.918 531.903 368.591 C 533.203 369.888 533.766 371.411 533.874 372.977 C 539.144 369.644 546.144 366.146 553.020 366.146 C 555.006 366.146 556.857 366.531 558.461 367.403 C 560.069 368.277 561.123 369.474 561.729 370.872 C 562.428 372.484 562.420 374.231 562.090 375.891 C 561.670 377.996 560.476 380.024 559.065 381.864 C 554.875 387.324 550.733 392.802 546.596 398.284 C 545.205 400.127 543.830 401.978 542.494 403.843 C 541.511 405.216 540.543 406.600 539.636 408.001 C 539.034 408.933 538.440 409.889 537.951 410.856 C 537.732 411.290 537.410 411.945 537.368 412.409 C 537.361 412.485 537.354 412.702 537.404 412.792 C 537.445 412.799 537.507 412.800 537.537 412.800 C 540.997 412.800 544.822 409.504 546.735 407.693 C 550.116 404.493 552.965 400.875 555.460 397.266 C 556.162 396.062 556.912 394.873 557.700 393.698 C 561.321 388.310 565.478 382.851 570.497 378.098 C 574.158 374.632 578.381 371.163 583.161 368.517 C 586.636 366.594 590.668 364.891 594.969 364.256 C 598.262 363.770 601.710 363.760 604.858 364.793 C 606.280 365.318 607.517 366.005 608.435 366.903 L 608.948 366.146 L 628.587 366.146 L 606.190 401.657 L 605.756 402.297 C 604.718 403.874 603.713 405.476 602.831 407.104 C 602.248 408.180 601.669 409.332 601.319 410.463 C 601.193 410.871 601.010 411.641 601.286 412.036 C 601.466 412.295 601.913 412.324 602.264 412.324 C 605.651 412.324 608.932 409.308 610.682 407.483 C 612.847 405.225 614.767 402.803 616.540 400.367 L 638.610 366.146 L 658.281 366.146 L 651.303 376.923 C 654.698 374.336 658.386 371.897 662.336 369.924 C 666.292 367.950 671.138 366.146 676.023 366.146 C 678.009 366.146 679.860 366.531 681.464 367.403 C 683.072 368.277 684.126 369.474 684.732 370.872 C 685.431 372.484 685.423 374.231 685.093 375.891 C 684.673 377.996 683.480 380.024 682.068 381.864 C 677.879 387.324 673.737 392.802 669.599 398.284 C 668.208 400.127 666.833 401.978 665.497 403.843 C 664.515 405.216 663.546 406.600 662.640 408.001 C 662.037 408.933 661.443 409.889 660.955 410.856 C 660.735 411.290 660.413 411.945 660.371 412.409 C 660.364 412.485 660.358 412.702 660.408 412.792 C 660.449 412.799 660.510 412.800 660.540 412.800 C 664.008 412.800 667.908 409.494 669.852 407.688 C 671.947 405.741 673.816 403.647 675.524 401.506 C 677.577 398.934 679.420 396.264 681.123 393.557 L 681.749 392.562 L 688.206 397.533 L 687.911 397.998 C 685.544 401.734 682.948 405.418 680.005 408.926 C 677.588 411.806 674.898 414.616 671.835 417.144 C 666.862 421.247 660.673 424.138 653.014 424.138 C 649.980 424.138 646.924 423.667 644.523 422.224 C 641.922 420.660 641.292 418.107 641.354 415.757 C 641.448 412.125 643.580 407.897 645.523 404.602 C 647.056 402.004 648.861 399.474 650.760 397.012 C 653.153 393.911 655.735 390.881 658.410 387.897 C 659.816 386.387 661.177 384.852 662.433 383.276 C 663.400 382.065 664.324 380.812 665.095 379.526 C 665.416 378.989 665.757 378.363 665.900 377.783 C 665.928 377.672 665.995 377.308 665.919 377.185 C 665.862 377.170 665.748 377.167 665.701 377.167 C 664.262 377.167 661.033 379.370 660.058 380.054 C 656.520 382.538 653.276 385.394 650.265 388.226 C 646.193 392.056 642.411 396.075 638.812 400.153 C 634.800 404.700 631.090 409.391 627.689 414.201 L 621.616 423.662 L 601.516 423.662 L 602.172 422.644 C 599.308 423.619 596.255 424.138 593.018 424.138 C 586.510 424.138 582.429 421.949 581.137 417.598 C 577.605 419.961 573.623 422.033 569.210 423.368 C 564.740 424.720 560.291 424.641 556.126 422.749 C 552.674 421.084 551.202 418.324 550.693 415.454 C 550.054 416.030 549.397 416.596 548.719 417.148 C 543.762 421.186 537.590 424.138 530.011 424.138 C 526.978 424.138 523.921 423.667 521.520 422.224 C 518.919 420.660 518.289 418.107 518.351 415.757 C 518.445 412.125 520.577 407.897 522.520 404.602 C 524.053 402.004 525.858 399.474 527.757 397.012 C 530.150 393.911 532.732 390.881 535.407 387.897 C 536.808 386.392 538.162 384.858 539.400 383.281 C 540.346 382.076 541.246 380.825 541.976 379.539 C 542.283 378.998 542.611 378.359 542.730 377.776 C 542.753 377.668 542.805 377.298 542.717 377.189 C 542.663 377.170 542.532 377.167 542.483 377.167 C 541.628 377.167 540.091 377.993 539.449 378.359 C 537.614 379.405 535.898 380.626 534.290 381.857 C 532.187 383.467 530.260 385.218 528.463 387.018 C 526.424 389.060 524.592 391.211 522.946 393.438 C 520.890 396.220 518.948 399.056 517.052 401.900 C 514.897 405.131 512.765 408.372 510.719 411.642 C 508.330 415.463 506.064 419.325 503.852 423.203 L 503.590 423.662 L 483.669 423.662 L 484.366 422.589 C 487.455 417.831 490.538 413.071 493.618 408.299 C 494.913 406.387 496.162 404.463 497.369 402.525 C 498.564 400.607 499.784 398.697 501.034 396.798 C 502.147 395.107 503.259 393.415 504.366 391.722 C 505.193 390.459 506.043 389.191 506.965 387.965 C 508.089 386.351 509.177 384.706 510.123 383.031 C 510.740 381.937 511.359 380.746 511.708 379.587 C 511.843 379.137 512.045 378.310 511.825 377.861 C 511.729 377.667 511.577 377.643 511.302 377.643 C 509.736 377.643 506.951 380.061 506.067 380.859 C 504.631 382.154 503.289 383.515 502.006 384.895 C 500.413 386.606 498.901 388.362 497.440 390.136 C 493.831 394.515 490.430 398.995 487.145 403.510 C 483.398 408.661 479.790 413.867 476.303 419.116 L 474.374 422.019 L 474.374 421.913 L 473.233 423.662 L 453.357 423.662 L 454.046 422.586 C 451.179 423.589 448.113 424.138 444.855 424.138 C 440.256 424.138 436.000 423.104 433.839 419.915 C 432.230 417.540 432.321 414.612 433.016 411.879 C 429.872 414.722 426.456 417.443 422.725 419.829 C 419.504 421.890 415.109 424.138 410.663 424.138 C 407.830 424.138 405.016 423.692 402.732 422.396 C 402.128 422.052 401.610 421.662 401.166 421.236"/>
<path id="corel-ref-path-14" d="M 401.166 421.236 C 398.632 420.022 396.391 418.521 394.475 416.718 C 391.443 413.865 389.058 410.693 387.235 407.330 C 385.283 403.728 383.931 399.970 383.090 396.143 C 382.235 392.254 381.650 388.334 381.358 384.400 C 381.080 380.651 381.026 376.891 381.250 373.139 C 381.437 370.010 381.614 366.858 382.006 363.740 C 392.382 321.481 390.818 340.007 361.257 379.510 C 358.034 384.794 354.507 389.978 350.681 395.039 C 346.848 400.109 342.322 404.859 337.115 409.214 C 331.736 413.713 325.382 417.389 317.957 419.874 C 311.304 422.101 304.257 423.521 296.936 423.749 C 290.197 423.958 283.617 423.201 277.370 421.313 C 271.496 419.537 266.559 416.815 262.942 412.953 C 259.127 408.879 257.667 404.100 257.600 399.204 C 257.515 392.835 260.792 386.346 264.703 380.762 C 266.660 377.968 269.215 375.451 272.190 373.204 C 275.248 370.892 278.707 368.933 282.529 367.360 C 286.294 365.810 290.318 364.707 294.551 364.105 C 298.818 363.497 303.110 363.596 307.336 364.348 C 310.899 364.921 313.958 366.217 316.536 368.119 C 319.172 370.065 320.830 372.397 321.446 375.127 C 321.661 376.275 321.841 377.761 321.420 378.886 C 321.052 379.871 320.170 380.586 318.720 380.586 C 316.179 380.586 312.759 379.428 310.525 378.603 C 307.567 377.511 304.298 377.162 301.018 377.253 C 297.531 377.351 294.155 377.888 290.963 378.935 C 287.802 379.971 284.885 381.314 282.302 383.014 C 279.735 384.704 277.441 386.598 275.469 388.677 C 273.512 390.741 271.935 392.967 270.752 395.331 C 269.638 397.554 268.916 399.874 268.770 402.260 C 268.503 405.012 269.145 407.664 270.815 410.128 C 272.480 412.586 275.137 414.225 278.636 415.153 C 283.443 416.428 288.443 416.854 293.480 416.154 C 298.473 415.459 303.129 414.033 307.430 412.049 C 312.132 409.880 316.398 407.249 320.247 404.309 C 324.303 401.212 328.081 397.923 331.560 394.465 C 334.909 391.135 338.105 387.717 341.083 384.200 C 343.619 381.206 346.133 378.200 348.595 375.173 C 352.968 369.550 357.159 363.850 361.146 358.073 C 365.094 352.353 368.999 346.616 372.861 340.864 C 376.728 335.101 380.712 329.381 384.809 323.705 C 388.376 318.764 392.187 313.919 396.213 309.173 L 376.009 317.190 L 375.500 316.612 C 373.820 314.706 371.804 312.965 369.379 311.555 C 366.944 310.140 364.208 309.033 361.323 308.163 C 357.707 306.977 353.871 306.348 349.919 306.400 C 346.078 306.450 342.343 306.980 338.768 308.015 C 335.235 309.037 332.026 310.476 329.175 312.323 C 326.411 314.114 324.126 316.210 322.416 318.614 C 321.037 320.552 320.074 322.664 319.386 324.788 C 318.642 327.083 318.339 329.427 318.551 331.784 C 318.748 333.967 319.493 336.056 320.905 337.983 C 322.285 339.869 324.400 341.165 327.058 342.009 C 329.732 342.758 332.453 342.911 335.201 342.303 C 337.845 341.718 340.041 340.650 341.784 339.073 C 342.895 337.941 343.632 336.664 344.075 335.308 C 344.532 333.912 344.655 332.489 344.380 331.067 L 344.260 330.448 L 345.064 330.250 C 348.287 329.456 351.668 329.350 354.562 330.819 C 357.484 332.302 358.608 334.735 358.871 337.263 C 359.018 339.209 358.633 341.118 357.612 342.915 C 356.620 344.660 355.207 346.221 353.430 347.587 C 351.625 348.974 349.556 350.133 347.272 351.057 C 345.126 351.926 342.852 352.659 340.477 353.110 C 337.372 353.699 334.156 353.702 331.011 353.280 C 327.731 352.840 324.666 351.956 321.846 350.643 C 318.594 349.223 315.978 347.317 314.079 344.906 C 312.230 342.559 310.900 340.041 310.095 337.393 C 309.277 334.704 308.960 331.939 309.103 329.187 C 309.242 326.531 309.651 323.878 310.420 321.270 C 311.847 316.846 314.374 312.764 318.130 309.161 C 321.760 305.678 326.166 302.815 331.334 300.636 C 336.521 298.448 342.121 296.978 347.998 296.185 C 354.016 295.373 360.043 295.459 366.020 296.426 C 370.668 297.091 375.109 298.285 379.296 299.908 C 383.195 301.420 386.893 303.206 390.253 305.306 L 415.050 295.759 L 420.776 300.177 L 420.505 300.634 C 416.195 307.919 412.717 315.461 410.242 323.199 C 407.820 330.766 405.921 338.423 404.561 346.133 C 403.189 353.915 402.194 361.733 401.557 369.567 C 401.078 375.461 400.623 381.355 400.192 387.251 C 403.458 379.448 407.319 371.785 411.763 364.302 C 417.262 355.040 423.446 346.004 430.307 337.250 C 432.433 334.537 434.581 331.835 436.767 329.147 C 439.522 325.758 442.504 322.466 445.629 319.257 C 449.014 315.781 452.632 312.431 456.440 309.204 C 460.147 306.064 464.193 303.130 468.617 300.540 C 472.606 298.206 477.005 296.284 481.812 295.026 C 486.357 293.836 491.002 293.582 495.724 294.369 C 498.443 294.870 500.966 295.814 502.647 297.512 C 503.912 298.788 504.917 300.262 505.098 301.859 L 505.166 302.457 L 504.388 302.637 C 497.474 304.231 491.072 306.678 485.223 309.826 C 479.143 313.099 473.476 316.765 468.261 320.769 C 463.000 324.809 458.069 329.078 453.502 333.554 C 449.139 337.830 444.903 342.178 440.835 346.625 C 437.843 349.743 434.972 352.930 432.145 356.126 C 428.605 360.128 425.262 364.226 422.071 368.384 C 418.648 372.846 415.477 377.412 412.538 382.058 C 409.769 386.437 407.397 390.986 405.719 395.659 C 405.302 396.820 404.939 397.997 404.646 399.184"/>
<path id="corel-ref-path-15" d="M 187.185 363.060 C 186.961 362.884 186.745 362.696 186.539 362.496 C 184.657 360.665 184.418 358.537 185.294 356.370 C 186.121 353.945 188.076 351.994 190.687 350.432 C 193.341 348.843 196.381 347.884 199.821 347.884 C 202.871 347.884 205.439 348.715 207.213 350.584 C 208.982 352.449 209.290 354.562 208.548 356.750 C 207.727 359.175 205.776 361.106 203.136 362.633 C 202.879 362.781 202.620 362.924 202.357 363.060"/>
<path id="corel-ref-path-16" d="M 126.244 387.325 C 127.522 384.304 129.032 381.323 130.647 378.400 C 133.145 373.878 135.941 369.435 138.887 365.063 C 144.756 356.353 151.094 347.784 158.073 339.531 C 161.013 336.055 164.071 332.628 167.302 329.295 C 170.052 326.459 172.936 323.680 176.012 321.032 C 178.552 318.846 181.255 316.724 184.173 314.810 C 186.506 313.279 189.042 311.838 191.770 310.710 C 195.854 309.020 200.588 308.100 204.850 310.015 C 209.208 312.062 209.477 316.144 208.864 319.555 C 208.395 322.165 207.303 324.786 206.038 327.241 C 204.364 330.489 202.274 333.655 200.043 336.713 C 197.231 340.566 194.100 344.308 190.829 347.958 C 186.867 352.380 182.668 356.694 178.348 360.928 C 173.288 365.887 167.961 370.702 162.474 375.407 C 156.263 380.733 149.838 385.926 143.277 391.018 C 142.150 393.691 141.101 396.526 140.588 399.298 C 140.252 401.122 139.993 403.098 140.165 404.938 C 140.258 405.931 140.480 407.236 141.123 408.127 C 141.375 408.476 141.900 409.132 142.439 409.332 C 143.366 409.723 145.181 409.030 145.959 408.702 C 148.271 407.728 150.428 406.319 152.304 404.935 C 154.938 402.991 157.319 400.816 159.512 398.596 C 162.026 396.053 164.174 393.326 165.971 390.471 L 166.612 389.488 L 183.450 363.060 L 187.185 363.060"/>
<path id="corel-ref-path-17" d="M 202.357 363.060 L 203.323 363.060 L 180.495 399.205 C 179.451 400.790 178.440 402.395 177.536 404.024 C 176.933 405.111 176.337 406.259 175.940 407.398 C 175.803 407.790 175.594 408.553 175.875 408.936 C 176.076 409.209 176.631 409.239 176.999 409.239 C 180.385 409.239 183.667 406.222 185.416 404.397 C 187.241 402.495 188.884 400.479 190.416 398.442 C 192.292 395.946 194.019 393.383 195.655 390.797 C 195.651 390.652 195.653 390.507 195.660 390.362 C 195.738 388.797 196.261 387.292 197.150 385.871 C 198.061 384.415 199.279 383.100 200.777 381.938 C 202.158 380.869 203.810 379.983 205.762 379.590 L 207.045 379.331 L 207.045 380.313 C 207.045 381.166 207.294 381.979 207.717 382.750 L 227.477 352.220 C 230.088 348.185 233.124 344.281 236.714 340.674 C 239.681 337.692 243.043 334.771 246.875 332.373 C 249.778 330.557 253.136 328.921 256.807 328.102 C 259.873 327.418 262.944 327.466 265.717 328.745 C 270.660 331.130 271.021 335.499 270.146 339.415 C 268.799 345.444 263.941 351.468 259.102 356.320 C 254.304 361.132 248.988 365.652 243.188 369.822 C 238.437 373.236 233.354 376.564 227.918 379.380 L 223.831 386.198 C 227.536 385.715 231.259 384.741 234.661 383.670 C 240.268 381.905 245.595 379.195 250.338 376.395 L 251.334 375.807 L 255.016 381.450 L 254.442 381.826 C 248.582 385.660 242.172 389.112 235.203 391.770 C 229.704 393.868 223.788 395.684 217.722 396.674 C 214.207 402.693 210.692 408.710 207.177 414.728 C 203.910 420.321 200.744 425.945 197.502 431.546 C 194.261 437.145 190.971 442.730 187.831 448.358 L 187.607 448.759 L 164.103 451.060 L 164.898 449.816 C 168.645 443.953 172.386 438.089 176.077 432.207 C 179.757 426.341 183.478 420.491 187.265 414.662 C 187.874 413.725 188.481 412.788 189.087 411.849 C 188.276 412.606 187.439 413.343 186.573 414.058 C 181.659 418.113 175.529 421.052 167.967 421.052 C 162.100 421.052 157.552 419.342 156.016 414.935 C 155.880 414.543 155.776 414.146 155.703 413.745 C 154.569 414.543 153.378 415.297 152.122 415.985 C 149.071 417.656 145.607 419.160 141.923 419.914 C 138.836 420.546 135.697 420.623 132.626 419.910 C 129.480 419.262 127.026 417.651 125.111 415.751 C 122.712 413.370 121.923 410.047 121.732 407.054"/>
<path id="corel-ref-path-18" d="M 121.732 407.054 C 120.517 408.662 119.128 410.209 117.587 411.696 C 112.629 416.481 106.516 420.468 99.705 423.769 C 92.672 427.176 85.008 429.624 76.783 430.936 C 68.651 432.234 60.491 432.194 52.369 430.856 C 43.717 429.431 36.458 426.045 30.354 421.361 C 25.968 417.994 22.869 414.067 21.493 409.499 C 20.170 405.104 20.000 400.657 20.944 396.207 C 21.909 391.661 23.814 387.290 26.515 383.145 C 29.139 379.120 32.390 375.343 36.337 371.953 C 42.044 367.050 48.728 362.917 56.535 359.952 C 63.383 357.352 70.655 355.647 78.235 354.799 C 76.590 353.729 75.183 352.482 73.992 351.104 C 72.198 349.034 71.083 346.739 70.513 344.323 C 69.870 341.593 70.015 338.787 70.619 336.060 C 71.338 332.820 73.011 329.726 75.139 326.855 C 77.273 323.977 80.132 321.383 83.269 319.068 C 86.844 316.429 90.807 314.100 95.045 312.067 C 99.434 309.962 104.110 308.217 108.999 306.838 C 113.720 305.505 118.645 304.613 123.692 304.331 C 128.512 304.061 133.224 304.512 137.769 305.722 C 142.527 306.989 146.375 309.247 149.508 312.149 C 153.759 316.085 156.132 320.557 156.502 325.588 C 156.865 330.511 155.818 335.304 153.311 339.874 C 150.784 344.482 146.956 348.458 141.980 351.810 C 136.955 355.196 131.080 357.279 124.335 357.950 C 119.302 358.451 113.468 358.312 109.531 355.615 C 107.897 354.495 106.781 353.135 106.227 351.542 C 105.627 349.818 105.746 348.002 106.215 346.269 L 106.395 345.603 L 107.312 345.671 C 110.415 345.899 113.629 345.518 116.614 344.901 C 120.187 344.163 123.596 343.083 126.811 341.720 C 130.159 340.301 133.258 338.599 136.088 336.663 C 138.735 334.853 141.058 332.786 142.765 330.432 C 144.326 328.278 145.078 325.945 145.010 323.502 C 144.936 320.819 143.534 318.385 141.437 316.227 C 139.107 313.829 136.002 311.844 131.866 311.618 C 127.799 311.396 123.917 312.313 120.389 313.749 C 115.951 315.556 111.990 317.989 108.480 320.675 C 104.638 323.612 101.141 326.783 98.055 330.172 C 95.213 333.293 92.726 336.610 90.845 340.108 C 89.598 342.426 88.273 345.431 88.442 347.958 C 88.577 349.339 89.117 350.634 90.034 351.842 C 90.870 352.944 92.084 353.624 93.732 353.911 C 96.581 353.727 99.507 353.731 102.330 354.088 C 105.588 354.500 106.817 356.229 106.495 358.588 C 106.295 359.476 105.645 360.242 104.842 360.888 C 103.541 361.935 101.309 361.934 99.549 361.759 C 94.153 361.223 88.821 361.697 83.651 362.920 C 78.035 364.248 72.815 366.239 68.019 368.767 C 62.924 371.453 58.368 374.630 54.335 378.161 C 50.276 381.715 46.829 385.607 44.157 389.818 C 41.633 393.794 39.950 397.988 39.300 402.356 C 38.691 406.456 39.265 410.524 41.281 414.383 C 42.886 417.451 45.549 419.854 49.666 421.186 C 53.729 422.501 58.027 423.047 62.452 422.948 C 67.204 422.842 71.855 422.160 76.341 421.006 C 80.334 419.979 84.436 418.674 87.924 416.892 C 94.012 413.782 98.872 409.807 102.568 405.074 C 106.139 400.499 107.842 395.560 107.275 390.291 C 106.976 388.555 105.872 386.972 104.463 385.586 C 103.108 384.253 101.425 382.944 99.418 382.147 L 98.421 381.751 L 99.063 381.062 C 100.603 379.408 102.570 378.033 105.087 377.228 C 107.266 376.531 109.566 376.196 111.939 376.377 C 114.214 376.550 116.333 377.107 118.280 377.991 C 120.340 378.927 121.969 380.196 123.151 381.755 C 124.520 383.562 125.559 385.421 126.244 387.325"/>
<path id="corel-ref-path-19" d="M 502.210 224.427 L 516.708 198.997 L 531.480 198.997 L 528.893 203.471 C 530.503 202.337 532.250 201.321 534.107 200.583 C 536.779 199.520 539.614 198.997 542.578 198.997 C 544.661 198.997 546.409 199.642 547.656 201.040 C 548.622 202.122 549.040 203.395 549.120 204.702 C 553.034 201.918 558.233 198.997 563.340 198.997 C 564.814 198.997 566.189 199.319 567.381 200.047 C 568.574 200.777 569.357 201.776 569.808 202.944 C 570.327 204.290 570.320 205.749 570.075 207.136 C 569.764 208.893 568.878 210.587 567.829 212.124 C 564.717 216.683 561.641 221.258 558.569 225.836 C 557.536 227.375 556.515 228.921 555.522 230.479 C 554.793 231.625 554.073 232.780 553.400 233.951 C 552.953 234.729 552.512 235.527 552.149 236.335 C 551.986 236.697 551.747 237.244 551.715 237.632 C 551.711 237.696 551.705 237.877 551.742 237.952 C 551.773 237.957 551.819 237.959 551.841 237.959 C 554.410 237.959 557.251 235.207 558.672 233.694 C 561.493 230.691 563.840 227.229 565.864 223.807 L 565.782 223.739 L 576.720 204.785 C 575.899 203.239 575.492 201.597 575.441 199.904 C 575.381 197.881 576.146 195.992 577.384 194.267 C 578.624 192.538 580.365 190.993 582.839 190.594 C 584.752 190.285 586.638 190.448 588.227 191.436 C 589.791 192.410 590.493 193.816 590.603 195.413 C 590.669 196.369 590.362 197.287 589.845 198.134 C 589.226 199.147 588.313 200.062 587.349 200.861 C 586.917 201.220 586.228 201.855 586.123 202.377 C 586.062 202.678 586.098 202.952 586.345 203.187 C 586.695 203.518 587.161 203.771 587.632 203.967 C 588.188 204.198 588.755 204.416 589.365 204.620 C 591.604 205.504 593.387 206.821 594.375 208.718 C 595.312 210.514 595.255 212.322 594.205 214.073 L 585.899 229.181 C 585.126 230.502 584.379 231.841 583.724 233.201 C 583.290 234.100 582.861 235.063 582.600 236.007 C 582.507 236.348 582.372 236.991 582.576 237.321 C 582.710 237.537 583.041 237.561 583.302 237.561 C 585.817 237.561 588.254 235.042 589.554 233.518 C 590.756 232.108 591.850 230.625 592.876 229.123 C 594.132 227.284 595.293 225.398 596.397 223.494 C 596.780 222.723 597.195 221.963 597.636 221.214 C 600.347 216.614 603.638 212.072 607.730 208.221 C 610.824 205.309 614.375 202.483 618.357 200.418 C 621.344 198.868 624.717 197.565 628.232 197.149 C 630.823 196.841 633.634 196.880 636.035 197.876 C 637.797 198.656 639.142 199.796 640.099 201.244 C 641.116 202.782 641.604 204.473 641.708 206.218 C 641.829 208.226 641.448 210.249 640.804 212.181 C 640.042 214.466 638.723 216.587 637.104 218.532 C 634.910 221.168 632.305 223.600 629.185 225.505 C 626.638 227.060 623.780 228.389 620.703 229.053 C 618.263 229.579 615.654 229.756 613.202 229.182 C 611.537 228.792 610.184 228.071 609.165 227.024 C 608.624 229.029 608.329 231.133 608.567 233.156 C 608.782 234.975 609.655 236.448 611.741 237.226 C 613.618 238.005 615.979 237.856 617.961 237.508 C 620.884 236.995 623.648 235.959 626.189 234.671 C 629.199 233.144 631.940 231.264 634.432 229.197 C 636.901 227.148 639.030 224.855 640.762 222.340 C 640.966 221.963 641.177 221.589 641.399 221.208 C 644.184 216.663 647.500 212.123 651.568 208.288 C 654.639 205.391 658.158 202.602 662.115 200.550 C 665.103 199.001 668.475 197.697 671.990 197.281 C 674.609 196.971 677.423 196.990 679.910 197.859 C 681.313 198.388 682.361 199.275 683.129 200.368 C 683.969 201.562 684.451 202.880 684.663 204.248 C 684.897 205.749 684.871 207.271 684.664 208.772 C 684.435 210.441 683.914 212.069 683.166 213.662 C 682.388 215.033 681.476 216.381 680.357 217.568 C 679.485 218.493 678.481 219.385 677.330 220.075 C 676.412 220.625 675.396 221.095 674.306 221.361 C 673.570 221.541 672.708 221.718 671.937 221.718 C 669.899 221.718 668.152 221.120 666.936 219.738 C 665.711 218.348 665.566 216.733 666.099 215.098 C 666.695 213.264 667.912 211.763 669.716 210.593 C 671.493 209.441 673.511 208.804 675.770 208.804 C 676.259 208.804 676.809 208.884 677.323 208.979 C 677.940 208.041 678.198 207.040 677.980 205.955 C 677.828 205.197 677.490 204.169 676.634 203.725 C 675.380 203.032 673.937 203.283 672.650 203.771 C 670.578 204.557 668.672 205.808 667.027 207.102 C 664.854 208.809 662.903 210.725 661.125 212.718 C 659.267 214.801 657.658 217.024 656.331 219.370 C 655.245 221.289 654.287 223.269 653.578 225.308 C 652.972 227.045 652.523 228.857 652.408 230.666 C 652.319 232.074 652.450 233.528 653.007 234.868 C 653.452 235.940 654.238 236.744 655.501 237.227 C 657.268 237.960 659.268 237.860 661.123 237.450 C 663.700 236.879 666.127 235.806 668.316 234.557 C 671.084 232.977 673.620 231.081 675.944 229.073 C 678.484 226.880 680.841 224.544 683.023 222.100 C 683.042 222.069 683.061 222.038 683.080 222.006 C 685.768 217.507 688.856 212.948 692.582 208.979 C 695.301 206.084 698.438 203.187 701.987 200.978 C 704.568 199.372 707.563 197.949 710.757 197.419 C 713.202 197.013 715.764 197.005 718.102 197.868 C 719.157 198.306 720.075 198.880 720.757 199.629 L 721.138 198.997 L 735.724 198.997 L 719.090 228.653 L 718.768 229.187 C 717.998 230.504 717.252 231.842 716.596 233.201 C 716.162 234.100 715.734 235.063 715.473 236.007 C 715.380 236.348 715.244 236.991 715.448 237.321 C 715.582 237.537 715.913 237.561 716.175 237.561 C 718.690 237.561 721.127 235.042 722.426 233.518 C 724.035 231.632 725.460 229.610 726.776 227.575 L 743.167 198.997 L 757.776 198.997 L 752.595 207.997 C 755.115 205.837 757.854 203.800 760.788 202.153 C 763.725 200.504 767.325 198.997 770.953 198.997 C 772.427 198.997 773.803 199.319 774.993 200.047 C 776.188 200.777 776.970 201.776 777.421 202.944 C 777.940 204.290 777.934 205.749 777.688 207.136 C 777.376 208.893 776.491 210.587 775.442 212.124 C 772.331 216.683 769.255 221.258 766.182 225.836 C 765.149 227.375 764.127 228.921 763.135 230.479 C 762.406 231.625 761.687 232.780 761.014 233.951 C 760.566 234.729 760.125 235.527 759.762 236.335 C 759.599 236.697 759.360 237.244 759.329 237.632 C 759.324 237.696 759.318 237.877 759.356 237.952 C 759.386 237.957 759.432 237.959 759.454 237.959 C 762.030 237.959 764.926 235.198 766.369 233.690 C 767.925 232.064 769.313 230.315 770.582 228.527 C 772.106 226.378 773.475 224.148 774.740 221.888 L 775.205 221.057 L 780.000 225.209 L 779.781 225.598 C 778.024 228.717 776.096 231.794 773.910 234.723 C 772.115 237.129 770.117 239.475 767.842 241.586 C 764.149 245.013 759.552 247.427 753.865 247.427 C 751.612 247.427 749.342 247.034 747.559 245.828 C 745.627 244.522 745.160 242.390 745.205 240.428 C 745.275 237.395 746.858 233.864 748.302 231.112 C 749.440 228.943 750.780 226.829 752.191 224.774 C 753.968 222.184 755.886 219.654 757.872 217.162 C 758.916 215.901 759.927 214.619 760.860 213.303 C 761.578 212.291 762.264 211.245 762.836 210.171 C 763.075 209.722 763.329 209.200 763.435 208.716 C 763.455 208.622 763.506 208.319 763.449 208.216 C 763.406 208.204 763.322 208.201 763.287 208.201 C 762.218 208.201 759.820 210.041 759.096 210.613 C 756.469 212.686 754.059 215.072 751.823 217.436 C 748.799 220.635 745.990 223.991 743.318 227.397 C 740.338 231.194 737.583 235.111 735.056 239.129 L 730.546 247.029 L 715.619 247.029 L 716.106 246.179 C 713.979 246.994 711.712 247.427 709.308 247.427 C 704.474 247.427 701.444 245.599 700.485 241.965 C 697.862 243.938 694.904 245.669 691.627 246.784 C 688.307 247.913 685.003 247.847 681.909 246.267 C 678.213 244.261 677.565 240.337 677.731 236.969 C 677.735 236.879 677.741 236.790 677.746 236.701 C 677.721 236.722 677.697 236.744 677.672 236.765 C 674.217 239.754 670.369 242.521 666.103 244.685 C 662.538 246.492 658.630 247.839 654.466 248.283 C 650.554 248.701 646.922 248.015 643.587 246.270 C 641.713 245.290 640.283 243.947 639.250 242.323 C 638.095 240.507 637.529 238.485 637.328 236.449 C 637.302 236.183 637.283 235.917 637.269 235.651 C 636.821 236.052 636.366 236.448 635.902 236.838 C 632.287 239.879 628.250 242.593 623.758 244.695 C 619.862 246.520 615.640 247.846 611.179 248.284 C 607.119 248.683 603.294 248.083 599.829 246.270 C 597.954 245.290 596.524 243.947 595.491 242.323 C 594.641 240.986 594.110 239.537 593.809 238.054 C 592.749 239.278 591.621 240.464 590.413 241.586 C 586.764 244.972 582.211 247.427 576.595 247.427 C 572.247 247.427 568.878 246.004 567.797 242.310 C 570.723 231.727 584.092 215.680 581.830 210.719 C 581.556 205.949 571.518 226.514 570.751 227.862 C 570.746 227.858 566.347 234.584 565.809 235.293 C 564.130 237.504 562.262 239.650 560.146 241.589 C 556.465 244.961 551.880 247.427 546.251 247.427 C 543.999 247.427 541.729 247.034 539.946 245.828 C 538.014 244.522 537.546 242.390 537.592 240.428 C 537.662 237.395 539.245 233.864 540.689 231.112 C 541.827 228.943 543.167 226.829 544.578 224.774 C 546.355 222.184 548.272 219.654 550.259 217.162 C 551.300 215.905 552.305 214.624 553.224 213.307 C 553.927 212.301 554.596 211.256 555.138 210.182 C 555.366 209.730 555.609 209.197 555.698 208.710 C 555.715 208.620 555.754 208.311 555.688 208.220 C 555.648 208.204 555.551 208.201 555.514 208.201 C 554.879 208.201 553.737 208.891 553.260 209.196 C 551.898 210.070 550.624 211.090 549.430 212.117 C 547.867 213.462 546.437 214.925 545.102 216.427 C 543.587 218.133 542.227 219.930 541.005 221.789 C 539.478 224.112 538.036 226.481 536.628 228.855 C 535.027 231.554 533.443 234.261 531.925 236.992 C 530.150 240.182 528.467 243.408 526.824 246.646 L 526.630 247.029 L 511.835 247.029 L 512.353 246.133 C 514.647 242.160 516.937 238.185 519.224 234.199 C 520.186 232.603 521.114 230.997 522.010 229.378 C 522.897 227.776 523.803 226.181 524.731 224.595 C 525.558 223.183 526.383 221.770 527.206 220.355 C 527.820 219.301 528.451 218.243 529.137 217.218 C 529.971 215.871 530.779 214.498 531.481 213.099 C 531.940 212.185 532.400 211.190 532.659 210.222 C 532.759 209.847 532.909 209.156 532.746 208.781 C 532.675 208.618 532.562 208.598 532.357 208.598 C 531.194 208.598 529.127 210.618 528.469 211.284 C 527.403 212.366 526.407 213.502 525.454 214.654 C 524.271 216.084 523.148 217.550 522.062 219.032 C 519.383 222.689 516.856 226.430 514.417 230.201 C 511.634 234.502 508.954 238.850 506.364 243.233 L 504.933 245.657 L 504.933 245.569 L 504.085 247.029 L 489.324 247.029 L 492.550 241.371"/>
<path id="corel-ref-path-20" d="M 492.550 241.371 C 489.397 244.261 485.768 246.759 481.824 248.908 C 476.601 251.753 470.908 253.798 464.800 254.894 C 458.761 255.978 452.701 255.944 446.669 254.827 C 440.244 253.636 434.853 250.809 430.320 246.897 C 427.062 244.086 424.761 240.806 423.739 236.991 C 422.756 233.321 422.630 229.607 423.331 225.892 C 424.047 222.095 425.462 218.445 427.468 214.984 C 429.417 211.622 431.832 208.468 434.763 205.637 C 439.001 201.543 443.965 198.091 449.762 195.615 C 454.848 193.443 460.249 192.020 465.879 191.311 C 464.657 190.418 463.612 189.376 462.727 188.226 C 461.396 186.497 460.567 184.580 460.144 182.563 C 459.667 180.283 459.774 177.940 460.223 175.662 C 460.756 172.956 461.999 170.373 463.580 167.975 C 465.164 165.572 467.288 163.405 469.617 161.472 C 472.273 159.269 475.215 157.323 478.363 155.625 C 481.622 153.868 485.095 152.411 488.726 151.259 C 492.233 150.146 495.890 149.401 499.638 149.165 C 503.217 148.940 506.717 149.317 510.092 150.327 C 513.626 151.385 516.484 153.271 518.811 155.694 C 521.968 158.981 523.730 162.715 524.005 166.917 C 524.274 171.029 523.497 175.031 521.635 178.848 C 519.758 182.695 516.915 186.016 513.219 188.816 C 509.487 191.643 505.124 193.383 500.116 193.943 C 496.377 194.361 492.044 194.245 489.120 191.992 C 487.908 191.058 487.080 189.922 486.667 188.592 C 486.222 187.152 486.310 185.635 486.658 184.188 L 486.793 183.632 L 487.473 183.688 C 489.778 183.879 492.165 183.561 494.381 183.046 C 497.034 182.429 499.567 181.527 501.955 180.389 C 504.441 179.204 506.742 177.783 508.845 176.166 C 510.809 174.654 512.536 172.928 513.803 170.963 C 514.963 169.163 515.520 167.215 515.470 165.175 C 515.415 162.934 514.374 160.902 512.816 159.100 C 511.086 157.097 508.780 155.440 505.708 155.251 C 502.689 155.065 499.805 155.831 497.185 157.030 C 493.889 158.539 490.948 160.572 488.341 162.814 C 485.488 165.267 482.890 167.915 480.598 170.745 C 478.488 173.352 476.640 176.122 475.243 179.043 C 474.318 180.979 473.334 183.488 473.459 185.598 C 473.559 186.752 473.960 187.833 474.642 188.842 C 475.262 189.762 476.164 190.330 477.387 190.570 C 479.503 190.416 481.676 190.419 483.772 190.718 C 486.192 191.062 487.105 192.505 486.867 194.476 C 486.718 195.218 486.235 195.857 485.639 196.396 C 484.673 197.270 483.015 197.270 481.708 197.123 C 477.700 196.676 473.741 197.072 469.901 198.093 C 465.730 199.202 461.853 200.865 458.292 202.976 C 454.507 205.219 451.125 207.872 448.130 210.821 C 445.115 213.789 442.555 217.039 440.570 220.556 C 438.696 223.876 437.446 227.379 436.963 231.027 C 436.510 234.450 436.937 237.847 438.435 241.070 C 439.626 243.633 441.605 245.639 444.661 246.752 C 447.679 247.850 450.871 248.305 454.157 248.223 C 457.687 248.135 461.141 247.564 464.472 246.601 C 467.437 245.744 470.484 244.654 473.074 243.166 C 477.596 240.568 481.206 237.249 483.950 233.296 C 486.601 229.476 487.866 225.351 487.446 220.951 C 487.224 219.501 486.404 218.179 485.357 217.022 C 484.351 215.909 483.101 214.815 481.610 214.150 L 480.870 213.819 L 481.347 213.243 C 482.491 211.863 483.952 210.714 485.821 210.042 C 487.439 209.460 489.148 209.180 490.909 209.331 C 492.598 209.476 494.173 209.941 495.619 210.679 C 497.149 211.461 498.358 212.520 499.236 213.823 C 501.487 217.163 502.533 220.718 502.210 224.427"/>
<path id="corel-ref-path-21" d="M 344.742 210.593 C 344.462 210.371 344.199 210.122 343.956 209.844 C 342.595 208.284 342.415 206.465 342.956 204.624 C 343.554 202.589 345.025 200.955 346.967 199.648 C 348.938 198.321 351.196 197.520 353.751 197.520 C 356.016 197.520 357.923 198.214 359.239 199.775 C 360.553 201.332 360.769 203.094 360.233 204.921 C 359.624 206.990 358.229 208.658 356.212 209.969 C 355.868 210.193 355.514 210.402 355.154 210.593"/>
<path id="corel-ref-path-22" d="M 367.144 211.540 C 365.987 210.031 365.939 208.299 366.529 206.576 C 367.142 204.551 368.595 202.920 370.536 201.614 C 372.507 200.288 374.764 199.487 377.319 199.487 C 379.584 199.487 381.492 200.180 382.808 201.742 C 384.122 203.298 384.338 205.061 383.801 206.887 C 383.234 208.819 381.958 210.389 380.145 211.642"/>
<path id="corel-ref-path-23" d="M 355.154 210.593 L 357.923 210.593 L 357.190 211.554 C 355.163 214.210 353.199 216.898 351.289 219.627 C 349.444 222.114 347.706 224.654 346.038 227.220 C 344.327 229.850 342.633 232.498 341.106 235.206 C 339.908 237.329 338.747 239.479 337.705 241.659 C 336.998 243.136 336.306 244.682 335.829 246.222 C 335.612 246.922 335.308 248.033 335.444 248.757 C 335.463 248.856 335.509 249.037 335.599 249.113 C 335.646 249.153 335.729 249.156 335.791 249.156 C 336.099 249.156 336.930 248.579 337.148 248.419 C 338.198 247.648 339.186 246.697 340.083 245.804 C 342.886 243.012 345.508 240.066 348.031 237.098 C 351.087 233.500 354.027 229.836 356.874 226.123 C 359.465 222.744 362.001 219.317 364.356 215.821 L 367.144 211.540"/>
<path id="corel-ref-path-24" d="M 380.145 211.642 L 363.780 240.777 C 363.008 242.097 362.261 243.436 361.605 244.797 C 361.172 245.696 360.742 246.658 360.482 247.603 C 360.388 247.943 360.253 248.586 360.457 248.917 C 360.591 249.132 360.923 249.156 361.184 249.156 C 363.699 249.156 366.136 246.637 367.435 245.114 C 368.774 243.544 369.981 241.883 371.107 240.203 C 372.501 238.121 373.784 235.984 374.999 233.827 C 375.127 233.434 375.256 233.041 375.390 232.650 C 376.457 229.512 377.819 226.421 379.302 223.403 C 381.158 219.627 383.234 215.917 385.422 212.265 C 389.780 204.992 394.487 197.835 399.671 190.943 C 401.854 188.041 404.126 185.179 406.525 182.396 C 408.567 180.027 410.709 177.706 412.994 175.495 C 414.879 173.669 416.887 171.898 419.054 170.299 C 420.787 169.021 422.670 167.817 424.696 166.875 C 427.729 165.464 431.245 164.696 434.410 166.295 C 437.647 168.004 437.847 171.413 437.391 174.262 C 437.044 176.441 436.232 178.630 435.292 180.680 C 434.050 183.393 432.497 186.036 430.840 188.590 C 428.752 191.808 426.426 194.933 423.998 197.981 C 421.055 201.674 417.937 205.276 414.728 208.812 C 410.971 212.954 407.014 216.975 402.939 220.904 C 398.327 225.351 393.555 229.688 388.682 233.941 C 387.846 236.173 387.066 238.541 386.685 240.856 C 386.435 242.378 386.243 244.029 386.371 245.565 C 386.440 246.395 386.605 247.485 387.083 248.229 C 387.270 248.520 387.660 249.068 388.060 249.235 C 388.748 249.561 390.097 248.983 390.674 248.709 C 392.390 247.895 393.993 246.719 395.386 245.563 C 397.343 243.939 399.111 242.123 400.740 240.270 C 402.607 238.145 404.202 235.868 405.535 233.484 L 406.001 232.653 L 410.801 236.809 L 410.572 237.201 C 408.412 240.903 405.962 244.590 403.059 247.929 C 400.864 250.454 398.277 252.927 395.251 254.791 C 392.985 256.187 390.412 257.442 387.677 258.072 C 385.384 258.600 383.053 258.664 380.772 258.069 C 378.436 257.527 376.613 256.182 375.191 254.596 C 373.676 252.905 373.028 250.648 372.780 248.483 C 371.435 250.127 369.975 251.715 368.371 253.185 C 364.689 256.557 360.105 259.023 354.477 259.023 C 351.062 259.023 347.900 258.159 346.296 255.496 C 345.101 253.513 345.168 251.067 345.684 248.785 C 343.349 251.159 340.813 253.432 338.042 255.424 C 335.650 257.145 332.385 259.023 329.084 259.023 C 326.980 259.023 324.890 258.650 323.194 257.567 C 321.426 256.439 320.644 254.697 320.351 252.915 C 320.185 251.902 320.193 250.856 320.307 249.825 C 315.417 252.963 310.212 255.745 304.769 258.178 L 304.538 258.655 C 301.991 263.134 299.072 267.469 295.688 271.540 C 292.829 274.980 289.576 278.318 285.831 281.125 C 282.917 283.309 279.517 285.234 275.717 286.164 C 272.310 286.998 269.046 286.643 266.052 285.019 C 263.933 283.787 262.354 282.179 261.679 280.093 C 260.965 277.883 261.601 275.651 262.765 273.631 C 263.893 271.674 265.462 269.972 267.416 268.530 C 269.517 266.981 271.832 265.625 274.235 264.420 C 276.933 263.068 279.745 261.872 282.622 260.806 C 285.645 259.686 288.657 258.544 291.658 257.382 L 292.183 256.628 C 290.410 257.558 288.510 258.316 286.493 258.799 C 283.583 259.496 280.763 259.231 278.209 257.862 C 274.579 255.917 273.933 252.101 274.099 248.788 C 270.592 251.686 266.696 254.271 262.379 256.291 C 258.482 258.115 254.262 259.441 249.800 259.880 C 245.741 260.278 241.916 259.679 238.449 257.866 C 236.576 256.886 235.145 255.542 234.112 253.918 C 232.958 252.102 232.391 250.081 232.191 248.045 C 232.174 247.872 232.160 247.700 232.148 247.528 C 230.377 248.992 228.469 250.337 226.436 251.550 C 223.422 253.349 220.200 254.890 216.795 256.121 C 213.657 257.255 210.372 258.067 206.980 258.455 L 202.572 262.769 C 203.770 262.565 204.992 262.486 206.234 262.542 C 208.152 262.628 210.016 263.023 211.637 263.902 C 213.245 264.775 214.221 266.048 214.672 267.592 C 215.222 269.476 214.511 271.435 213.495 273.121 C 212.654 274.517 211.487 275.761 210.160 276.862 C 208.685 278.086 207.015 279.129 205.218 280.007 C 203.262 280.961 201.153 281.673 198.974 282.189 C 196.564 282.761 194.045 282.974 191.544 282.875 C 189.692 282.802 187.859 282.521 186.122 281.974 C 184.648 281.510 183.234 280.876 182.054 280.000 C 181.041 279.248 180.176 278.373 179.566 277.362 C 179.041 276.491 178.688 275.544 178.688 274.564 L 178.688 274.160 L 185.225 271.695 L 185.445 272.424 C 185.893 273.913 186.831 275.087 188.492 275.796 C 189.972 276.429 191.511 276.634 193.151 276.210 C 194.792 275.890 196.151 275.220 197.232 274.160 C 198.179 273.231 199.036 272.160 199.485 270.994 C 199.798 270.183 199.866 269.333 199.377 268.561 C 198.924 267.847 197.910 267.878 197.071 268.010 L 190.518 270.299 L 187.403 266.681 L 197.211 258.417 C 195.421 258.121 193.683 257.650 192.041 256.969 L 191.400 256.703 L 194.160 251.468 L 194.742 251.551 C 197.810 251.990 200.512 251.205 202.931 249.622 C 205.744 247.782 207.896 245.449 209.513 242.807 C 211.220 240.016 212.293 237.054 212.709 233.943 C 213.074 231.225 212.718 228.510 211.033 226.085 C 210.847 225.777 210.659 225.480 210.461 225.189 L 203.751 236.744 L 203.810 236.795 L 203.612 237.176 C 201.116 241.977 197.198 245.954 192.291 249.211 C 187.167 252.613 181.665 255.596 175.889 258.178 L 175.658 258.655 C 173.112 263.134 170.192 267.469 166.808 271.540 C 163.936 274.996 160.656 278.333 156.867 281.128 C 153.922 283.300 150.489 285.231 146.677 286.164 C 143.317 286.987 140.075 286.678 137.173 285.018 C 135.041 283.800 133.474 282.181 132.799 280.093 C 132.085 277.884 132.716 275.655 133.882 273.638 C 134.918 271.728 136.431 270.078 138.289 268.669 C 140.308 267.137 142.539 265.799 144.874 264.620 C 147.473 263.307 150.175 262.135 152.934 261.075 C 155.833 259.962 158.739 258.864 161.653 257.779 C 162.997 255.717 164.311 253.641 165.595 251.552 C 165.877 251.093 166.158 250.634 166.437 250.174 C 164.539 251.963 162.523 253.668 160.375 255.224 C 157.957 256.975 154.533 259.023 151.175 259.023 C 149.071 259.023 146.982 258.650 145.285 257.567 C 143.517 256.439 142.735 254.697 142.443 252.915 C 142.041 250.470 142.646 247.735 143.420 245.377 C 143.969 243.709 144.704 242.067 145.504 240.471 C 146.373 238.735 147.335 237.026 148.338 235.338 C 146.908 235.546 145.462 235.668 144.008 235.699 C 139.931 235.785 135.866 235.490 131.861 234.862 C 130.784 237.352 129.854 239.885 129.069 242.449 C 128.261 245.089 127.610 247.764 127.169 250.463 C 126.775 252.872 126.657 255.319 126.933 257.741 C 127.173 259.854 127.804 261.920 129.005 263.802 C 129.829 265.093 132.101 265.863 133.678 266.281 L 134.095 266.392 L 134.186 266.747 C 134.500 267.963 134.429 269.220 133.489 270.240 C 132.667 271.132 131.559 271.666 130.230 271.867 C 128.834 272.077 127.396 271.984 126.018 271.730 C 124.455 271.441 123.049 270.863 121.807 270.023 C 118.424 267.960 116.164 265.214 114.921 261.896 C 113.642 258.480 113.050 254.946 113.050 251.373 C 113.050 247.704 113.485 244.050 114.342 240.451 C 115.032 237.551 115.827 234.633 116.849 231.796 L 112.869 230.896 C 109.991 234.695 106.937 238.409 103.799 242.062 C 100.197 246.255 96.280 250.257 92.082 254.049 C 87.986 257.749 83.569 261.204 78.819 264.321 C 74.615 267.079 69.911 269.379 64.752 270.658 C 60.070 271.820 55.379 271.843 50.729 270.587 C 45.385 269.145 41.183 265.643 37.967 261.936 C 35.993 259.570 34.694 256.963 34.089 254.133 C 33.504 251.396 33.402 248.625 33.843 245.868 C 34.501 240.154 36.977 235.013 41.187 230.444 C 43.436 228.112 46.083 226.092 49.006 224.359 C 52.248 222.438 55.947 221.282 59.846 220.675 C 62.711 220.229 65.553 220.327 68.347 221.022 C 70.691 221.606 72.787 222.554 74.571 223.906 C 75.546 222.114 76.920 220.493 78.867 219.325 C 80.966 218.068 83.353 217.336 85.908 217.027 C 88.767 216.681 91.693 216.815 94.531 217.228 C 97.585 217.673 100.608 218.269 103.589 218.974 C 107.223 214.588 110.931 210.245 114.713 205.947 C 118.627 201.497 122.635 197.101 126.791 192.804 C 129.492 190.013 132.267 187.267 135.024 184.513 C 137.205 182.336 139.462 180.205 141.808 178.147 L 125.005 184.042 L 124.664 183.589 C 122.040 180.106 118.406 177.597 113.834 176.016 C 111.138 175.084 108.272 174.630 105.354 174.673 C 102.509 174.715 99.727 175.134 97.060 175.959 C 94.445 176.767 92.062 177.923 89.940 179.426 C 87.877 180.888 86.188 182.616 84.928 184.608 C 83.895 186.242 83.184 188.035 82.679 189.827 C 82.132 191.767 81.898 193.749 82.058 195.739 C 82.205 197.561 82.757 199.306 83.806 200.916 C 84.834 202.495 86.409 203.578 88.390 204.282 C 90.387 204.993 92.416 205.139 94.492 204.593 C 96.434 204.082 98.084 203.202 99.305 201.835 C 100.136 200.903 100.647 199.832 100.928 198.702 C 101.224 197.517 101.338 196.303 101.234 195.096 L 101.193 194.611 L 101.748 194.458 C 104.200 193.780 106.720 193.729 108.945 194.923 C 111.227 196.149 112.004 198.175 112.004 200.352 C 112.004 203.071 111.145 205.597 109.132 207.759 C 107.247 209.782 104.876 211.311 102.046 212.324 C 99.197 213.344 96.199 213.790 93.097 213.700 C 89.984 213.610 87.105 212.879 84.490 211.480 C 82.143 210.225 80.172 208.631 78.741 206.636 C 77.340 204.684 76.365 202.571 75.778 200.354 C 75.182 198.108 74.933 195.802 75.042 193.503 C 75.145 191.307 75.454 189.116 76.019 186.958 C 77.079 183.264 78.956 179.855 81.746 176.846 C 84.432 173.948 87.674 171.533 91.460 169.665 C 95.269 167.788 99.409 166.561 103.776 165.942 C 108.292 165.303 112.837 165.416 117.328 166.215 C 120.836 166.899 124.240 167.909 127.417 169.321 C 130.441 170.665 133.246 172.319 135.834 174.185 C 138.630 173.265 141.459 172.412 144.302 171.600 C 147.486 170.690 150.689 169.824 153.910 169.009 C 156.858 168.263 159.820 167.548 162.797 166.883 C 165.075 166.374 167.405 165.886 169.729 165.545 L 170.447 165.440 L 171.832 170.859 L 171.343 171.083 C 167.092 173.033 163.634 175.861 160.811 179.117 C 157.605 182.815 154.847 186.766 152.496 190.881 C 150.087 195.096 147.931 199.409 146.058 203.808 C 144.399 207.701 142.692 211.587 140.857 215.426 C 139.906 217.416 138.940 219.402 137.982 221.390 C 136.940 223.552 135.924 225.722 134.925 227.898 C 138.292 228.674 141.762 229.257 145.244 229.479 C 147.733 229.638 150.330 229.430 152.555 228.435 C 153.499 226.933 154.462 225.438 155.470 223.963 C 157.171 221.475 158.929 219.012 160.757 216.586 C 162.190 214.682 163.605 212.763 165.075 210.879 L 165.298 210.593 L 180.015 210.593 L 179.282 211.554 C 177.254 214.210 175.290 216.898 173.380 219.627 C 171.536 222.114 169.798 224.654 168.129 227.220 C 166.431 229.831 164.825 232.488 163.357 235.205 C 162.143 237.335 160.964 239.487 159.900 241.668 C 159.179 243.147 158.471 244.692 157.973 246.234 C 157.748 246.930 157.427 248.043 157.552 248.767 C 157.568 248.862 157.612 249.042 157.698 249.116 C 157.741 249.154 157.826 249.156 157.882 249.156 C 158.087 249.148 158.605 248.829 158.761 248.726 C 159.444 248.277 160.092 247.710 160.678 247.175 C 162.599 245.421 164.373 243.507 166.057 241.595 C 168.285 239.064 170.390 236.452 172.418 233.809 C 174.604 230.958 176.759 228.091 178.878 225.205 C 180.828 222.551 182.721 219.867 184.531 217.145 C 185.893 215.097 187.249 213.032 188.510 210.939 L 188.718 210.593 L 203.126 210.593 L 202.649 211.476 C 200.237 215.933 197.700 220.346 195.134 224.744 C 192.638 229.020 190.191 233.315 187.708 237.597 C 185.438 241.513 183.184 245.434 180.948 249.364 C 184.129 247.560 187.135 245.554 189.946 243.363 C 192.940 241.029 195.400 238.308 197.388 235.332 L 207.583 217.589 C 207.395 214.857 207.986 212.186 209.249 209.654 C 210.665 206.814 212.872 204.327 215.491 202.154 C 217.264 200.757 219.515 199.438 222.021 199.264 C 223.905 199.134 225.707 199.497 226.788 200.872 C 227.923 202.317 227.606 204.209 227.038 205.768 C 226.130 208.258 223.677 210.650 221.492 212.463 C 220.077 213.596 216.961 216.145 216.331 217.712 C 215.933 218.703 216.073 219.610 216.794 220.469 C 217.794 221.663 219.137 222.770 220.433 223.742 C 222.466 225.265 223.926 227.460 225.011 229.522 C 226.327 232.026 226.713 234.622 226.098 237.310 C 225.505 239.906 224.389 242.357 222.727 244.610 C 221.582 246.161 220.236 247.581 218.682 248.842 C 220.579 247.903 222.377 246.827 224.077 245.657 C 226.581 243.932 228.864 242.003 230.921 239.911 C 232.597 238.208 234.109 236.385 235.350 234.441 C 235.637 233.892 235.941 233.348 236.257 232.810 C 238.968 228.209 242.259 223.668 246.351 219.817 C 249.445 216.904 252.995 214.078 256.977 212.013 C 259.966 210.464 263.338 209.161 266.853 208.744 C 269.444 208.437 272.256 208.476 274.657 209.472 C 276.418 210.252 277.764 211.391 278.721 212.840 C 279.737 214.378 280.224 216.069 280.330 217.814 C 280.451 219.822 280.069 221.844 279.425 223.776 C 278.663 226.061 277.344 228.183 275.725 230.128 C 273.530 232.763 270.925 235.196 267.806 237.101 C 265.259 238.656 262.401 239.984 259.324 240.648 C 256.884 241.175 254.276 241.352 251.823 240.777 C 250.158 240.388 248.806 239.666 247.786 238.620 C 247.245 240.625 246.949 242.729 247.189 244.752 C 247.403 246.571 248.276 248.043 250.361 248.822 C 252.240 249.601 254.600 249.452 256.582 249.104 C 259.506 248.591 262.269 247.555 264.809 246.266 C 267.820 244.740 270.562 242.860 273.054 240.792 C 275.400 238.845 277.443 236.675 279.126 234.302 C 279.263 234.068 279.400 233.835 279.539 233.602 C 282.228 229.102 285.315 224.543 289.042 220.575 C 291.761 217.680 294.897 214.783 298.447 212.574 C 300.998 210.985 303.977 209.550 307.133 209.016 C 309.620 208.594 312.159 208.623 314.576 209.469 C 315.563 209.916 316.391 210.501 317.096 211.187 L 317.414 210.593 L 332.188 210.593 L 331.683 211.485 C 329.173 215.923 326.588 220.332 324.014 224.744 C 321.518 229.020 319.071 233.315 316.588 237.597 C 314.318 241.513 312.064 245.434 309.828 249.364 C 313.009 247.560 316.015 245.554 318.825 243.363 C 321.710 241.114 324.104 238.503 326.061 235.652 C 326.256 235.321 326.453 234.990 326.652 234.660 C 328.814 231.072 330.993 227.454 333.378 223.963 C 335.079 221.475 336.837 219.012 338.665 216.586 C 340.099 214.682 341.514 212.763 342.983 210.879 L 343.206 210.593 L 344.742 210.593"/>
</g>
</svg>
