<svg xmlns="http://www.w3.org/2000/svg" width="800mm" height="600mm" viewBox="0 0 800 600" data-corel-reference="true">
<title>Corel reference object: 4. mayıs gümüş isimler.ai / 2</title>
<rect x="0" y="0" width="800" height="600" fill="#ffffff"/>
<g id="corel-reference-paths" fill="none" stroke="#020617" stroke-width="0.22" stroke-linejoin="round" stroke-linecap="round" vector-effect="non-scaling-stroke">
<path id="corel-ref-path-1" d="M 693.455 248.478 C 693.065 248.566 692.356 248.913 692.131 249.028 C 691.003 249.609 689.923 250.320 688.923 251.000 C 687.094 252.244 685.380 253.589 683.736 254.947 C 681.546 256.755 679.452 258.623 677.410 260.510 C 671.883 265.620 666.746 270.981 661.799 276.358 C 655.383 283.330 649.509 290.554 643.977 297.867 L 640.271 303.285 C 646.588 297.960 652.747 292.550 658.736 287.053 C 665.431 280.907 671.971 274.662 678.139 268.266 C 680.614 265.700 683.038 263.108 685.358 260.477 C 687.194 258.395 688.975 256.282 690.610 254.124 C 691.229 253.307 691.824 252.477 692.347 251.630 C 692.716 251.034 693.067 250.408 693.304 249.782 C 693.429 249.449 693.562 249.015 693.513 248.670 C 693.508 248.632 693.491 248.543 693.455 248.478 Z"/>
<path id="corel-ref-path-2" d="M 569.665 321.441 C 571.459 318.667 573.242 315.889 575.008 313.106 C 576.423 310.875 577.720 308.549 578.610 306.193 C 579.196 304.644 579.726 302.847 579.624 301.241 C 579.557 300.203 579.011 299.382 577.652 298.868 L 577.629 298.860 L 577.608 298.851 C 576.224 298.263 574.211 299.092 573.089 299.630 C 570.359 300.937 567.874 302.685 565.703 304.401 C 562.714 306.762 560.035 309.336 557.568 311.959 C 554.860 314.838 552.459 317.843 550.325 320.936 C 548.517 323.557 546.831 326.225 545.405 328.954 C 544.163 331.329 543.073 333.767 542.310 336.235 C 541.764 337.999 541.315 339.944 541.417 341.752 C 541.463 342.568 541.709 343.661 542.996 343.990 L 543.070 344.009 L 543.138 344.036 C 544.306 344.490 546.407 343.470 547.266 343.021 C 549.913 341.635 552.309 339.831 554.406 338.071 C 557.304 335.638 559.950 333.045 562.429 330.409 C 565.133 327.534 567.562 324.540 569.665 321.441 Z"/>
<path id="corel-ref-path-3" d="M 296.468 319.840 C 296.221 320.316 295.943 320.989 296.069 321.492 C 296.142 321.782 296.335 321.960 296.732 322.078 C 298.235 322.526 300.552 322.068 301.998 321.708 C 305.068 320.942 308.097 319.675 310.776 318.413 C 314.472 316.672 317.851 314.608 320.924 312.381 C 324.452 309.823 327.958 306.683 329.576 303.311 C 329.931 302.571 331.363 299.434 329.990 298.851 L 329.978 298.846 L 329.966 298.840 C 327.824 297.869 325.301 298.226 323.087 298.895 C 319.616 299.944 316.454 301.617 313.712 303.385 C 310.176 305.664 307.024 308.237 304.181 310.924 C 301.214 313.727 298.600 316.702 296.468 319.840 Z"/>
<path id="corel-ref-path-4" d="M 310.179 248.487 C 309.773 248.590 309.051 248.958 308.822 249.081 C 307.660 249.701 306.552 250.451 305.522 251.171 C 303.629 252.494 301.848 253.913 300.134 255.344 C 297.837 257.259 295.633 259.230 293.478 261.220 C 287.649 266.603 282.259 272.270 277.086 277.953 C 270.384 285.315 264.299 292.965 258.609 300.710 L 256.632 303.461 C 262.841 298.220 268.902 292.898 274.805 287.496 C 281.603 281.274 288.262 274.967 294.605 268.526 C 297.153 265.938 299.645 263.318 302.015 260.653 C 303.884 258.550 305.693 256.408 307.328 254.216 C 307.947 253.386 308.541 252.543 309.065 251.683 C 309.434 251.077 309.786 250.442 310.023 249.806 C 310.149 249.467 310.282 249.026 310.234 248.674 C 310.229 248.638 310.212 248.553 310.179 248.487 Z"/>
<path id="corel-ref-path-5" d="M 700.731 292.817 C 700.669 292.765 700.607 292.711 700.546 292.656 C 698.310 290.650 698.035 288.323 699.076 285.948 C 700.066 283.270 702.409 281.117 705.537 279.391 C 708.714 277.639 712.347 276.578 716.463 276.578 C 720.083 276.578 723.124 277.481 725.228 279.527 C 727.334 281.574 727.694 283.888 726.812 286.289 C 725.829 288.964 723.493 291.094 720.333 292.779 C 720.308 292.792 720.284 292.805 720.260 292.817"/>
<path id="corel-ref-path-6" d="M 517.195 346.577 C 517.086 345.547 517.081 344.517 517.141 343.526 C 517.553 336.651 521.404 329.653 525.852 323.549 C 528.231 320.283 530.766 317.061 533.535 313.940 C 535.927 311.245 538.505 308.609 541.350 306.125 C 545.777 302.259 550.886 298.388 556.667 295.437 C 560.852 293.301 565.713 291.405 570.893 290.700 C 574.836 290.164 578.972 290.148 582.705 291.278 L 582.726 291.284 L 582.746 291.291 C 584.547 291.903 586.110 292.726 587.220 293.820 L 587.956 292.817 L 611.244 292.817 L 584.236 332.305 L 583.711 333.020 C 582.449 334.788 581.228 336.585 580.154 338.410 C 579.442 339.622 578.737 340.919 578.309 342.193 C 578.139 342.700 577.920 343.578 578.290 344.067 C 578.558 344.422 579.160 344.480 579.696 344.480 C 583.910 344.480 587.927 341.092 590.109 338.993 C 593.505 335.728 596.440 332.139 599.103 328.577 C 599.987 327.319 600.873 326.062 601.761 324.805 C 604.321 320.971 606.930 317.153 609.590 313.350 C 611.932 310.004 614.279 306.659 616.635 303.318 C 618.328 300.919 620.021 298.521 621.724 296.126 C 622.186 295.476 622.647 294.824 623.090 294.169 C 623.236 293.952 623.467 293.641 623.583 293.404 L 623.583 293.327 L 623.691 293.183 C 630.806 283.715 638.381 274.357 646.692 265.348 C 650.176 261.571 653.808 257.849 657.653 254.237 C 660.928 251.161 664.370 248.150 668.048 245.290 C 671.080 242.931 674.297 240.642 677.759 238.571 C 680.513 236.923 683.497 235.365 686.699 234.140 C 691.513 232.297 697.074 231.342 702.051 233.444 C 705.890 235.066 707.119 237.896 707.156 240.835 C 707.180 242.765 706.711 244.741 706.065 246.614 C 705.225 249.050 704.036 251.453 702.712 253.786 C 701.069 256.678 699.107 259.499 696.991 262.244 C 694.467 265.516 691.698 268.708 688.799 271.833 C 685.411 275.482 681.830 279.053 678.135 282.562 C 674.430 286.080 670.605 289.541 666.698 292.957 C 667.604 292.865 668.520 292.817 669.441 292.817 C 671.797 292.817 673.994 293.237 675.896 294.191 C 677.806 295.148 679.053 296.458 679.773 297.989 C 680.609 299.767 680.596 301.697 680.201 303.528 C 679.696 305.861 678.258 308.113 676.561 310.152 C 671.490 316.246 666.488 322.366 661.568 328.517 C 659.916 330.583 658.280 332.656 656.685 334.742 C 655.506 336.284 654.343 337.835 653.243 339.404 C 652.504 340.458 651.776 341.532 651.152 342.620 C 650.847 343.154 650.442 343.871 650.330 344.441 C 650.310 344.547 650.274 344.838 650.384 344.931 C 650.467 345.002 650.805 345.012 650.918 345.012 C 655.221 345.012 659.889 341.315 662.272 339.235 C 664.782 337.044 667.024 334.695 669.079 332.297 C 671.554 329.410 673.784 326.418 675.852 323.387 L 676.460 322.496 L 676.497 322.522 L 696.991 292.817 L 700.731 292.817"/>
<path id="corel-ref-path-7" d="M 720.260 292.817 L 720.558 292.817 L 693.030 333.012 L 693.026 333.017 C 691.760 334.791 690.531 336.589 689.432 338.415 C 688.696 339.638 687.969 340.930 687.485 342.211 C 687.299 342.703 687.048 343.576 687.429 344.054 C 687.726 344.426 688.452 344.480 689.008 344.480 C 693.223 344.480 697.240 341.092 699.422 338.993 C 702.176 336.345 704.606 333.495 706.844 330.633 L 727.893 300.196 L 716.413 300.196 L 721.516 292.817 L 732.995 292.817 L 753.538 263.089 L 780.000 258.587 L 756.561 292.817 L 774.748 292.817 L 770.284 300.196 L 751.468 300.196 L 729.032 333.011 L 729.029 333.017 C 727.411 335.283 724.843 339.310 725.711 341.895 C 726.183 343.296 727.128 344.480 729.446 344.480 C 731.498 344.480 734.120 343.672 735.908 343.045 C 739.106 341.924 742.106 340.436 744.858 338.867 C 748.318 336.894 751.427 334.612 754.243 332.215 C 757.428 329.507 760.062 326.531 762.207 323.387 L 762.814 322.496 L 770.283 327.800 L 769.993 328.217 C 766.976 332.551 763.319 336.674 758.914 340.422 C 754.964 343.782 750.543 346.907 745.581 349.583 C 741.286 351.899 736.592 353.925 731.520 355.358 C 727.320 356.544 722.801 357.362 718.228 357.362 C 714.779 357.362 711.466 356.857 708.471 355.673 C 705.554 354.520 703.469 352.854 702.184 350.732 C 701.825 350.138 701.546 349.524 701.334 348.899 C 701.039 349.132 700.741 349.363 700.440 349.593 C 694.528 354.092 687.153 357.362 678.051 357.362 C 671.047 357.362 665.625 355.499 663.791 350.644 C 663.714 350.442 663.646 350.238 663.587 350.033 C 657.777 354.304 650.590 357.362 641.788 357.362 C 638.123 357.362 634.461 356.835 631.525 355.266 C 628.336 353.560 627.610 350.752 627.758 348.143 C 627.862 346.299 628.439 344.416 629.162 342.641 C 630.118 340.295 631.397 337.987 632.792 335.746 C 634.600 332.842 636.760 330.012 639.037 327.267 C 641.917 323.797 645.040 320.410 648.270 317.086 L 648.275 317.080 L 648.280 317.076 C 649.986 315.387 651.639 313.666 653.167 311.900 C 654.345 310.539 655.470 309.132 656.408 307.686 C 656.824 307.046 657.541 305.856 657.468 305.142 C 657.439 304.856 657.340 304.811 656.919 304.811 C 654.834 304.811 650.903 307.342 649.520 308.260 C 647.505 309.599 645.588 311.015 643.737 312.460 C 641.486 314.217 639.323 316.029 637.217 317.868 C 632.115 322.322 627.395 327.000 622.921 331.754 C 617.926 337.060 613.295 342.523 609.017 348.111 L 603.020 356.829 L 579.448 356.829 L 580.107 355.873 C 580.219 355.711 580.330 355.550 580.441 355.389 C 576.728 356.672 572.740 357.362 568.478 357.362 C 563.726 357.362 560.067 356.469 557.586 354.681"/>
<path id="corel-ref-path-8" d="M 557.586 354.681 C 557.442 356.108 556.904 357.484 555.947 358.785 C 554.716 360.460 553.037 361.938 551.051 363.231 C 549.016 364.556 546.694 365.619 544.108 366.380 C 539.763 367.659 535.133 368.210 530.412 368.210 C 525.468 368.210 520.552 367.846 515.722 367.129 C 510.864 366.408 506.104 365.415 501.481 364.168 C 497.308 363.043 493.179 361.783 489.239 360.316 C 483.438 358.156 477.791 355.806 472.329 353.270 C 466.914 350.754 461.405 348.331 455.806 346.009 C 450.299 343.726 444.625 341.631 438.806 339.739 C 433.006 337.854 426.911 336.455 420.629 335.529 C 417.301 335.038 413.740 334.700 410.328 334.833 C 407.173 334.955 404.056 335.399 401.046 336.045 L 399.942 336.283 L 398.328 328.810 L 399.291 328.707 C 402.517 328.360 405.762 328.087 409.016 327.902 C 412.141 327.725 415.282 327.692 418.413 327.807 C 425.111 326.837 431.418 325.055 437.290 322.668 C 443.450 320.165 449.349 317.373 454.914 314.291 C 464.214 309.140 472.813 303.438 480.616 297.243 C 488.465 291.011 496.213 284.719 503.818 278.349 C 507.932 274.904 511.893 271.366 515.794 267.808 C 520.360 263.644 525.079 259.558 529.909 255.535 C 535.011 251.284 540.290 247.132 545.728 243.079 C 550.676 239.392 556.020 235.955 561.765 232.849 C 560.399 232.524 559.042 232.181 557.700 231.816 C 556.093 231.379 554.500 230.907 552.952 230.381 C 547.278 228.691 541.663 226.911 536.107 225.049 C 530.682 223.231 525.030 221.739 519.195 220.656 C 513.603 219.618 507.809 219.174 502.018 219.347 C 495.732 219.536 489.835 221.061 484.481 223.247 C 481.800 224.342 479.457 225.767 477.413 227.372 C 475.272 229.053 473.515 230.921 472.226 232.967 C 470.966 234.968 470.207 237.064 469.955 239.235 C 469.705 241.394 470.157 243.488 471.325 245.505 C 472.254 247.111 473.626 248.530 475.505 249.693 C 477.302 250.804 479.355 251.619 481.666 252.125 C 484.004 252.636 486.413 252.827 488.865 252.715 C 491.352 252.602 493.787 252.263 496.136 251.695 C 497.481 251.300 498.778 250.747 499.971 250.174 C 501.381 249.497 502.685 248.726 503.862 247.868 C 505.002 247.037 505.897 246.094 506.545 245.047 C 507.118 244.121 507.335 243.155 507.013 242.168 L 506.776 241.443 L 507.860 241.356 C 510.512 241.144 513.345 241.272 515.668 242.251 C 517.684 243.100 519.192 244.275 520.213 245.728 C 521.278 247.243 521.745 248.870 521.745 250.544 C 521.745 252.274 521.290 253.956 520.380 255.570 C 519.185 257.867 516.958 259.741 514.209 261.272 C 511.132 262.985 507.620 264.213 503.839 265.032 L 503.830 265.033 L 503.820 265.035 C 499.245 265.958 494.512 266.251 489.799 265.674 C 485.401 265.135 481.256 264.079 477.454 262.477 C 473.649 260.874 470.345 258.844 467.550 256.467 C 464.717 254.057 462.578 251.372 461.125 248.452 C 459.033 244.249 457.965 239.807 458.731 235.375 C 459.423 231.374 461.199 227.583 464.209 224.106 C 467.196 220.657 471.022 217.642 475.510 215.058 C 480.111 212.408 485.218 210.267 490.759 208.651 C 496.312 207.031 502.118 205.946 508.107 205.407 C 513.949 204.881 519.848 204.917 525.642 205.680 C 530.650 206.339 535.522 207.403 540.107 208.932 C 544.530 210.406 548.823 212.057 552.984 213.849 C 557.349 215.729 561.700 217.624 566.037 219.534 C 570.621 221.552 575.499 223.275 580.492 224.776 C 583.475 223.848 586.606 223.078 589.720 222.389 C 593.475 221.557 597.318 220.922 601.219 220.500 C 604.843 220.107 608.553 219.993 612.199 220.320 C 615.314 220.599 618.249 221.398 620.168 223.160 C 622.087 224.923 623.105 226.949 622.701 229.146 C 622.287 231.405 620.391 233.148 617.745 234.484 C 614.340 236.203 609.703 237.060 605.582 237.536 C 599.464 238.242 592.684 237.878 586.558 237.232 C 582.700 239.651 579.105 242.256 575.788 245.021 C 572.562 247.710 569.368 250.417 566.133 253.100 C 558.051 259.803 550.116 266.589 542.416 273.497 C 534.702 280.416 526.699 287.184 518.375 293.768 C 513.588 297.554 508.629 301.243 503.607 304.885 C 498.280 308.748 492.684 312.436 486.842 315.937 C 480.994 319.441 474.763 322.637 468.199 325.496 C 462.590 327.939 456.688 330.046 450.526 331.756 C 458.390 333.320 466.145 335.134 473.768 337.178 C 482.335 339.475 491.016 341.573 499.794 343.465 C 505.517 344.699 511.323 345.740 517.195 346.577"/>
<path id="corel-ref-path-9" d="M 145.057 322.305 C 146.314 320.606 147.581 318.911 148.868 317.222 C 150.552 315.012 152.272 312.810 154.077 310.645 C 156.854 307.312 159.724 304.016 162.708 300.767 C 165.049 298.218 167.360 295.648 169.760 293.124 L 170.052 292.817 L 193.512 292.817 L 192.553 293.848 C 189.240 297.407 186.029 301.011 182.920 304.655 L 182.913 304.662 L 182.907 304.670 C 179.895 308.000 177.054 311.404 174.325 314.845 C 171.529 318.371 168.760 321.922 166.263 325.551 C 164.304 328.400 162.405 331.282 160.701 334.205 C 159.543 336.191 158.410 338.269 157.628 340.340 C 157.263 341.305 156.765 342.805 156.993 343.803 C 157.076 344.166 157.201 344.480 157.804 344.480 C 158.407 344.480 159.760 343.705 160.183 343.450 C 161.909 342.410 163.530 341.131 165.004 339.928 C 169.588 336.185 173.875 332.234 178.000 328.254 C 182.995 323.433 187.800 318.521 192.453 313.545 C 196.689 309.015 200.833 304.421 204.683 299.734 L 210.177 292.817 L 230.835 292.817 L 203.307 333.012 L 203.303 333.017 C 202.041 334.786 200.818 336.583 199.745 338.410 C 199.032 339.622 198.327 340.919 197.899 342.193 C 197.729 342.700 197.510 343.578 197.880 344.067 C 198.148 344.422 198.750 344.480 199.285 344.480 C 203.500 344.480 207.517 341.092 209.699 338.993 C 211.891 336.885 213.867 334.655 215.711 332.398 C 217.995 329.603 220.096 326.731 222.087 323.834 C 222.296 323.303 222.510 322.773 222.730 322.244 C 224.471 318.046 226.693 313.912 229.112 309.875 C 232.141 304.820 235.530 299.853 239.102 294.965 C 246.218 285.226 253.903 275.643 262.367 266.414 C 265.930 262.529 269.638 258.698 273.555 254.973 C 276.887 251.804 280.381 248.698 284.109 245.739 C 287.183 243.299 290.454 240.931 293.986 238.795 C 296.803 237.091 299.866 235.485 303.159 234.228 C 308.031 232.370 313.690 231.340 318.764 233.442 L 318.773 233.445 L 318.781 233.449 C 323.970 235.696 324.262 240.212 323.534 243.956 C 322.967 246.863 321.647 249.783 320.118 252.517 C 318.092 256.144 315.560 259.679 312.858 263.093 C 309.450 267.400 305.655 271.582 301.692 275.662 C 296.888 280.606 291.797 285.429 286.558 290.164 C 280.424 295.709 273.962 301.093 267.310 306.354 C 259.765 312.320 251.959 318.137 243.988 323.841 C 243.227 325.507 242.521 327.189 241.922 328.886 C 241.422 330.298 240.989 331.730 240.701 333.169 C 240.289 335.221 239.976 337.442 240.185 339.512 C 240.301 340.651 240.576 342.127 241.376 343.148 C 241.714 343.579 242.364 344.323 243.034 344.551 L 243.059 344.559 L 243.083 344.569 C 244.302 345.042 246.536 344.265 247.583 343.858 C 250.407 342.760 253.041 341.176 255.332 339.617 C 258.537 337.435 261.434 334.996 264.103 332.506 C 266.602 330.173 268.807 327.702 270.722 325.127 C 271.277 324.236 271.868 323.356 272.493 322.487 C 276.910 316.338 282.275 310.265 288.944 305.117 C 293.982 301.229 299.765 297.453 306.249 294.695 C 311.100 292.632 316.579 290.893 322.286 290.339 C 326.467 289.932 331.015 289.980 334.867 291.291 L 334.879 291.294 L 334.890 291.299 C 337.718 292.325 339.882 293.828 341.422 295.740 C 343.064 297.778 343.851 300.020 344.020 302.332 C 344.217 305.004 343.596 307.696 342.551 310.267 C 341.314 313.310 339.172 316.135 336.542 318.724 C 332.973 322.240 328.736 325.486 323.662 328.027 C 319.528 330.097 314.886 331.868 309.890 332.752 C 305.946 333.449 301.730 333.686 297.765 332.926 C 294.920 332.379 292.646 331.340 290.979 329.813 C 290.016 332.621 289.473 335.582 289.882 338.428 C 290.242 340.925 291.721 342.949 295.176 344.006 L 295.194 344.012 L 295.212 344.018 C 298.324 345.077 302.226 344.880 305.525 344.406 C 310.327 343.714 314.867 342.320 319.042 340.584 C 323.977 338.531 328.471 336.005 332.555 333.226 C 336.869 330.290 340.543 326.986 343.476 323.346 L 344.122 322.545 L 351.564 327.829 L 351.195 328.264 C 346.600 333.709 341.090 338.752 334.607 343.226 C 328.717 347.289 322.140 350.915 314.823 353.724 C 308.485 356.157 301.620 357.926 294.365 358.511 C 287.790 359.041 281.597 358.247 275.983 355.838 C 272.958 354.540 270.652 352.763 268.984 350.613 C 267.367 348.527 266.463 346.235 266.038 343.904 C 262.792 346.800 259.058 349.570 254.790 351.726 C 251.115 353.583 246.937 355.257 242.498 356.094 C 238.798 356.793 235.036 356.880 231.355 356.091 C 227.592 355.376 224.655 353.594 222.366 351.498 C 219.786 349.138 218.764 345.932 218.413 342.921 C 216.117 345.259 213.611 347.517 210.844 349.596 C 204.878 354.077 197.451 357.362 188.328 357.362 C 182.846 357.362 177.762 356.238 175.185 352.730 C 173.936 351.031 173.566 349.098 173.646 347.218 C 173.703 345.876 173.983 344.518 174.401 343.181 C 170.424 346.545 166.084 349.772 161.320 352.582 C 157.462 354.857 152.172 357.362 146.847 357.362 C 143.466 357.362 140.102 356.874 137.376 355.447 C 134.541 353.963 133.295 351.666 132.825 349.325 C 132.548 347.939 132.574 346.514 132.769 345.120"/>
<path id="corel-ref-path-10" d="M 132.769 345.120 C 132.141 345.742 131.495 346.356 130.833 346.962 C 126.986 350.482 122.506 353.629 117.323 356.243 C 112.276 358.789 106.787 360.853 100.910 362.368 C 95.071 363.873 88.996 364.803 82.773 365.161 C 76.648 365.513 70.506 365.342 64.439 364.684 L 59.844 368.506 C 62.035 368.146 64.281 367.999 66.568 368.083 C 69.657 368.196 72.662 368.717 75.272 369.878 C 77.848 371.024 79.404 372.694 80.126 374.720 C 81.011 377.203 79.855 379.793 78.223 382.013 C 76.861 383.867 74.970 385.519 72.821 386.981 C 70.425 388.611 67.715 390.000 64.797 391.168 C 61.621 392.439 58.194 393.387 54.654 394.076 C 50.743 394.836 46.655 395.119 42.596 394.988 C 39.596 394.891 36.627 394.517 33.814 393.791 C 31.435 393.177 29.150 392.338 27.245 391.179 C 25.614 390.185 24.220 389.031 23.238 387.694 C 22.398 386.551 21.829 385.308 21.829 384.021 L 21.829 383.589 L 32.094 380.414 L 32.382 381.195 C 33.131 383.237 34.710 384.848 37.485 385.821 C 39.961 386.689 42.541 386.968 45.219 386.399 L 45.253 386.391 L 45.287 386.386 C 47.999 385.952 50.265 385.036 52.065 383.588 C 53.633 382.326 55.047 380.874 55.792 379.289 C 56.324 378.158 56.429 376.975 55.598 375.901 C 54.795 374.863 53.035 374.885 51.542 375.080 L 40.995 378.101 L 36.149 373.485 L 51.872 362.268 C 42.931 359.803 35.549 355.932 30.209 350.392 C 24.837 344.818 21.593 338.702 20.531 332.076 C 20.000 328.766 20.005 325.434 20.531 322.123 C 21.072 318.712 22.161 315.356 23.703 312.092 C 26.859 305.411 32.110 299.584 39.619 294.766 C 44.367 291.719 49.739 289.227 55.666 287.366 C 60.813 285.749 66.433 284.687 72.141 284.819 C 76.666 284.820 81.316 285.263 85.452 286.568 C 88.456 287.515 91.596 288.737 93.953 290.341 C 96.155 291.840 98.525 293.607 100.079 295.453 C 101.080 296.642 101.951 298.137 101.379 299.519 C 100.871 300.748 99.580 301.458 97.736 301.637 C 95.628 301.841 93.062 301.339 91.095 300.856 C 85.475 299.477 79.631 299.723 73.970 300.868 C 67.135 302.251 60.986 304.740 55.538 307.841 C 51.887 309.919 48.717 312.389 45.919 315.001 C 42.780 317.930 40.394 321.183 38.615 324.594 C 36.670 328.325 35.802 332.223 35.802 336.176 C 35.802 340.247 37.403 344.006 40.606 347.445 C 44.720 351.862 50.282 355.081 57.774 356.478 C 65.013 357.826 72.407 357.901 79.742 356.824 C 87.394 355.700 94.466 353.556 100.915 350.536 C 106.911 347.727 112.114 344.230 115.608 339.850 L 115.613 339.845 L 115.617 339.839 C 119.093 335.672 121.360 331.190 122.148 326.425 C 122.917 321.774 122.749 317.112 121.633 312.495 C 120.497 307.795 118.432 303.247 115.575 298.901 C 112.699 294.527 109.258 290.338 105.230 286.406 L 105.218 286.395 L 105.208 286.383 C 101.404 282.316 99.013 277.838 97.891 273.080 C 96.755 268.262 96.696 263.407 97.759 258.583 C 98.816 253.790 100.897 249.181 103.976 244.810 C 106.977 240.551 110.971 236.732 116.065 233.513 C 121.140 230.306 127.068 228.005 133.646 226.532 C 140.924 224.904 148.537 224.825 156.038 225.710 C 161.022 226.298 165.730 227.476 169.974 229.360 C 174.012 231.151 177.446 233.400 180.164 236.112 C 182.909 238.852 184.710 241.897 185.665 245.147 C 186.687 248.625 186.540 252.145 185.534 255.616 C 184.183 260.281 181.572 264.649 177.257 268.415 C 173.483 271.710 168.903 274.510 163.341 276.330 C 159.006 277.748 154.249 278.318 149.460 278.260 C 144.645 278.203 140.111 277.354 136.233 275.375 L 136.216 275.366 L 136.200 275.357 C 133.943 274.100 132.497 272.386 131.584 270.523 C 130.403 268.112 131.241 265.597 132.804 263.364 L 133.162 262.852 L 133.965 263.008 C 137.277 263.652 140.694 263.880 144.110 263.523 C 147.398 263.178 150.517 262.457 153.442 261.376 C 156.418 260.278 158.969 258.805 161.104 257.016 C 163.318 255.162 165.007 253.087 166.156 250.829 C 167.839 247.519 168.376 244.070 166.923 240.672 C 165.468 237.267 161.692 235.125 157.037 233.731 C 154.069 232.843 150.980 232.494 147.752 232.720 C 144.441 232.950 141.284 233.593 138.309 234.605 C 135.134 235.685 132.258 237.105 129.672 238.755 C 127.113 240.388 124.846 242.226 123.064 244.287 L 123.058 244.295 L 123.051 244.302 C 118.592 249.157 115.870 254.590 117.188 260.354 C 118.471 265.965 121.665 271.235 125.931 276.091 C 130.766 281.595 134.940 287.355 138.394 293.322 C 141.714 299.057 143.988 305.027 144.979 311.159 C 145.581 314.885 145.596 318.608 145.057 322.305"/>
</g>
</svg>
