<svg xmlns="http://www.w3.org/2000/svg" width="800mm" height="600mm" viewBox="0 0 800 600" data-corel-reference="true">
<title>Corel reference object: 4 mayıs gold 03.ai / 9</title>
<rect x="0" y="0" width="800" height="600" fill="#ffffff"/>
<g id="corel-reference-paths" fill="none" stroke="#020617" stroke-width="0.22" stroke-linejoin="round" stroke-linecap="round" vector-effect="non-scaling-stroke">
<path id="corel-ref-path-1" d="M 703.758 371.284 C 703.440 372.379 703.096 374.145 704.377 374.859 C 705.605 375.400 706.868 375.092 708.013 374.515 C 709.827 373.601 711.465 372.208 712.847 370.826 C 714.813 368.861 716.571 366.681 718.187 364.476 C 719.721 362.382 721.191 360.250 722.611 358.093 C 718.606 359.951 714.653 361.951 710.894 364.170 C 707.992 365.882 704.942 368.249 703.758 371.284 L 703.758 371.284 Z"/>
<path id="corel-ref-path-2" d="M 690.229 313.138 C 691.557 310.424 692.876 307.705 694.183 304.982 C 695.231 302.798 696.191 300.522 696.850 298.216 C 697.283 296.700 697.675 294.941 697.599 293.369 C 697.550 292.354 697.146 291.551 696.140 291.048 L 696.123 291.040 L 696.108 291.031 C 695.084 290.455 693.593 291.267 692.763 291.793 C 690.743 293.072 688.903 294.784 687.296 296.462 C 685.085 298.773 683.101 301.292 681.276 303.859 C 679.271 306.677 677.494 309.617 675.915 312.645 C 674.577 315.210 673.328 317.821 672.273 320.491 C 671.354 322.816 670.547 325.201 669.983 327.617 C 669.578 329.344 669.246 331.247 669.322 333.016 C 669.356 333.814 669.537 334.885 670.490 335.207 L 670.545 335.225 L 670.596 335.251 C 671.460 335.696 673.015 334.698 673.650 334.259 C 675.610 332.902 677.383 331.137 678.935 329.414 C 681.080 327.033 683.038 324.495 684.873 321.915 C 686.875 319.101 688.673 316.172 690.229 313.138 L 690.229 313.138 Z"/>
<path id="corel-ref-path-3" d="M 605.559 241.742 C 605.258 241.843 604.724 242.203 604.555 242.323 C 603.694 242.930 602.874 243.664 602.112 244.368 C 600.711 245.663 599.393 247.052 598.124 248.452 C 596.424 250.326 594.793 252.256 593.198 254.203 C 588.884 259.471 584.894 265.017 581.066 270.579 C 576.105 277.784 571.602 285.271 567.390 292.850 L 565.927 295.543 C 570.522 290.414 575.008 285.205 579.377 279.918 C 584.408 273.830 589.337 267.657 594.032 261.354 C 595.918 258.821 597.762 256.257 599.516 253.648 C 600.900 251.590 602.238 249.494 603.449 247.349 C 603.907 246.537 604.347 245.711 604.735 244.870 C 605.008 244.277 605.268 243.655 605.444 243.033 C 605.537 242.701 605.636 242.269 605.599 241.926 C 605.596 241.890 605.583 241.807 605.559 241.742 L 605.559 241.742 Z"/>
<path id="corel-ref-path-4" d="M 505.816 311.572 C 505.633 312.038 505.427 312.697 505.521 313.189 C 505.575 313.473 505.717 313.646 506.011 313.762 C 507.124 314.200 508.838 313.753 509.909 313.400 C 512.181 312.650 514.423 311.410 516.406 310.176 C 519.141 308.472 521.642 306.452 523.916 304.272 C 526.527 301.769 529.123 298.695 530.320 295.395 C 530.582 294.672 531.643 291.602 530.627 291.031 L 530.618 291.026 L 530.609 291.020 C 529.024 290.069 527.156 290.419 525.517 291.074 C 522.949 292.101 520.608 293.738 518.578 295.468 C 515.961 297.699 513.629 300.216 511.524 302.846 C 509.329 305.590 507.393 308.501 505.816 311.572 L 505.816 311.572 Z"/>
<path id="corel-ref-path-5" d="M 275.097 306.704 C 274.915 307.170 274.709 307.830 274.802 308.322 C 274.856 308.606 274.999 308.779 275.293 308.895 C 276.406 309.333 278.120 308.886 279.190 308.533 C 281.463 307.783 283.705 306.543 285.688 305.308 C 288.423 303.605 290.924 301.585 293.198 299.404 C 295.809 296.902 298.404 293.828 299.602 290.528 C 299.864 289.805 300.925 286.735 299.909 286.164 L 299.900 286.158 L 299.890 286.153 C 298.306 285.202 296.438 285.551 294.799 286.207 C 292.231 287.234 289.890 288.871 287.860 290.601 C 285.243 292.832 282.911 295.349 280.806 297.979 C 278.610 300.723 276.675 303.634 275.097 306.704 L 275.097 306.704 Z"/>
<path id="corel-ref-path-6" d="M 219.780 311.552 C 221.722 311.263 223.577 310.632 225.319 309.787 C 227.776 308.597 230.095 307.198 232.249 305.602 C 234.345 304.049 236.294 302.340 238.045 300.473 C 239.539 298.879 240.969 297.171 242.120 295.358 C 242.792 294.300 243.615 292.843 243.766 291.615 C 243.846 290.973 243.668 290.781 242.947 290.781 C 241.778 290.781 240.134 291.730 239.215 292.312 C 237.148 293.621 235.207 295.237 233.422 296.843 C 230.960 299.059 228.642 301.425 226.420 303.835 C 224.111 306.338 221.905 308.920 219.780 311.552 L 219.780 311.552 Z"/>
<path id="corel-ref-path-7" d="M 266.320 236.865 C 266.031 236.952 265.507 237.291 265.340 237.404 C 264.505 237.973 263.706 238.668 262.966 239.334 C 261.612 240.551 260.343 241.868 259.127 243.196 C 257.505 244.966 255.955 246.794 254.444 248.641 C 250.353 253.642 246.551 258.888 242.890 264.150 C 238.124 270.998 233.708 278.061 229.507 285.200 L 226.835 290.565 C 231.482 285.307 236.048 279.990 240.529 274.614 C 245.530 268.614 250.410 262.503 254.984 256.231 C 256.815 253.720 258.610 251.184 260.327 248.609 C 261.686 246.572 263.004 244.503 264.214 242.391 C 264.672 241.592 265.112 240.779 265.499 239.950 C 265.772 239.367 266.033 238.755 266.208 238.142 C 266.301 237.816 266.399 237.391 266.363 237.053 C 266.359 237.016 266.346 236.929 266.320 236.865 L 266.320 236.865 Z"/>
<path id="corel-ref-path-8" d="M 80.379 336.898 C 79.859 337.241 79.323 337.566 78.777 337.874 C 75.693 339.950 72.240 341.288 68.414 341.719 C 64.704 342.136 61.050 341.835 57.484 340.825 C 53.901 339.809 50.569 338.281 47.524 336.300 C 44.524 334.347 41.947 331.987 39.920 329.194 C 38.624 327.637 37.586 325.949 36.816 324.144 C 34.902 326.642 33.413 329.361 32.327 332.243 C 31.121 335.445 30.560 338.773 30.819 342.151 L 30.819 342.159 L 30.820 342.167 C 30.941 344.572 31.575 346.873 32.771 349.026 C 33.950 351.149 35.710 352.778 37.987 353.964 C 40.450 355.247 43.157 355.925 45.985 356.136 C 48.963 356.360 51.928 356.110 54.823 355.459 C 61.143 354.037 66.812 351.433 71.372 347.212 C 74.774 344.061 77.764 340.593 80.379 336.898 L 80.379 336.898 Z"/>
<path id="corel-ref-path-9" d="M 594.307 285.126 C 593.593 283.552 593.624 281.839 594.201 280.100 C 594.933 277.480 596.668 275.372 598.983 273.683 C 601.333 271.968 604.023 270.931 607.070 270.931 C 609.749 270.931 611.999 271.814 613.557 273.817 C 615.115 275.820 615.381 278.084 614.729 280.433 C 614.001 283.053 612.272 285.136 609.933 286.785 C 609.716 286.939 609.496 287.086 609.273 287.228"/>
<path id="corel-ref-path-10" d="M 494.011 304.625 C 495.902 302.000 497.972 299.485 500.247 297.163 C 503.976 293.358 508.256 289.663 513.056 286.963 C 516.646 284.944 520.701 283.243 524.925 282.700 C 528.019 282.302 531.385 282.349 534.236 283.632 L 534.245 283.636 L 534.254 283.640 C 536.346 284.644 537.948 286.116 539.088 287.986 C 540.303 289.981 540.885 292.175 541.011 294.437 C 541.156 297.053 540.697 299.687 539.924 302.203 C 539.008 305.181 537.422 307.946 535.476 310.481 C 532.834 313.921 529.699 317.098 525.943 319.584 C 522.883 321.610 519.447 323.343 515.750 324.208 C 512.831 324.891 509.710 325.123 506.776 324.378 C 504.670 323.844 502.987 322.826 501.753 321.333 C 501.040 324.080 500.638 326.978 500.942 329.763 C 501.208 332.207 502.303 334.187 504.859 335.223 L 504.873 335.228 L 504.886 335.234 C 507.189 336.270 510.078 336.078 512.519 335.613 C 516.074 334.937 519.434 333.572 522.523 331.873 C 526.176 329.864 529.502 327.392 532.525 324.672 C 535.616 321.890 538.266 318.769 540.402 315.338 C 540.543 314.866 540.687 314.395 540.835 313.925 C 542.124 309.816 543.768 305.770 545.559 301.819 C 547.800 296.872 550.309 292.011 552.952 287.228 C 558.219 277.697 563.907 268.319 570.172 259.286 C 572.809 255.484 575.553 251.735 578.452 248.089 C 580.918 244.988 583.505 241.949 586.263 239.052 C 588.538 236.664 590.960 234.347 593.574 232.256 C 595.659 230.589 597.926 229.017 600.363 227.787 C 603.969 225.968 608.157 224.960 611.913 227.017 L 611.919 227.021 L 611.925 227.024 C 615.767 229.224 615.983 233.643 615.443 237.307 C 615.024 240.152 614.047 243.010 612.916 245.686 C 611.416 249.235 609.541 252.695 607.542 256.036 C 605.020 260.251 602.211 264.344 599.277 268.336 C 595.722 273.175 591.954 277.895 588.076 282.529 C 583.536 287.956 578.754 293.225 573.830 298.373 C 568.246 304.213 562.469 309.905 556.569 315.487 C 556.005 317.118 555.484 318.765 555.039 320.425 C 554.670 321.806 554.349 323.209 554.136 324.617 C 553.831 326.624 553.599 328.798 553.754 330.825 C 553.840 331.938 554.044 333.384 554.636 334.383 C 554.885 334.805 555.367 335.532 555.863 335.755 L 555.881 335.763 L 555.899 335.773 C 556.801 336.237 558.455 335.476 559.229 335.077 C 561.320 334.003 563.269 332.453 564.965 330.927 C 567.337 328.792 569.481 326.405 571.456 323.967 C 573.721 321.173 575.655 318.179 577.274 315.043 L 577.723 314.171 L 577.751 314.197 L 592.919 285.126 L 594.307 285.126"/>
<path id="corel-ref-path-11" d="M 609.273 287.228 L 589.987 324.463 L 589.984 324.467 C 589.047 326.204 588.137 327.964 587.324 329.751 C 586.779 330.948 586.242 332.211 585.883 333.466 C 585.745 333.947 585.560 334.802 585.842 335.269 C 586.061 335.633 586.599 335.686 587.011 335.686 C 590.130 335.686 593.103 332.370 594.718 330.317 C 596.668 327.838 598.396 325.179 599.992 322.505 L 619.762 285.126 L 637.020 285.126 L 630.384 297.626 C 631.620 296.451 632.893 295.307 634.207 294.207 C 636.351 292.412 638.627 290.713 641.054 289.235 C 644.573 287.094 648.895 285.126 653.241 285.126 C 654.985 285.126 656.610 285.536 658.019 286.470 C 659.432 287.407 660.355 288.689 660.888 290.187 C 661.507 291.927 661.497 293.816 661.204 295.608 C 660.831 297.892 659.767 300.095 658.511 302.091 C 654.748 308.069 651.029 314.067 647.314 320.070 C 646.064 322.089 644.829 324.116 643.629 326.160 C 642.745 327.665 641.874 329.182 641.059 330.718 C 640.516 331.742 639.981 332.794 639.540 333.857 C 639.335 334.351 639.044 335.077 639.005 335.605 C 638.995 335.735 638.990 336.036 639.083 336.150 C 639.127 336.204 639.277 336.207 639.339 336.207 C 642.530 336.207 646.051 332.578 647.843 330.548 C 650.945 327.034 653.548 323.042 655.816 319.053 C 656.438 317.753 657.103 316.469 657.801 315.202 C 659.562 312.006 661.438 308.852 663.488 305.798 C 665.258 303.160 667.166 300.581 669.272 298.150 C 672.548 294.366 676.330 290.578 680.609 287.690 C 683.707 285.600 687.304 283.744 691.138 283.054 C 694.056 282.529 697.117 282.514 699.880 283.619 L 699.895 283.625 L 699.910 283.632 C 701.243 284.231 702.400 285.036 703.222 286.107 L 703.767 285.126 L 721.003 285.126 L 701.013 323.771 L 700.624 324.471 C 699.691 326.201 698.787 327.959 697.993 329.745 C 697.465 330.932 696.943 332.201 696.626 333.448 C 696.501 333.944 696.339 334.804 696.613 335.282 C 696.811 335.630 697.257 335.686 697.653 335.686 C 700.772 335.686 703.745 332.370 705.360 330.317 C 707.451 327.658 709.292 324.789 710.985 321.912 C 711.877 320.119 712.823 318.346 713.799 316.590 C 715.207 314.056 716.622 311.525 718.071 309.010 C 719.318 306.847 720.591 304.692 721.927 302.573 C 723.983 299.312 726.107 296.085 728.315 292.906 C 730.048 290.411 731.759 287.896 733.535 285.426 L 733.750 285.126 L 751.114 285.126 L 750.404 286.134 C 747.952 289.618 745.576 293.145 743.275 296.711 L 743.270 296.718 L 743.265 296.726 C 741.036 299.984 738.933 303.316 736.914 306.683 C 734.858 310.111 732.915 313.598 731.145 317.152 L 731.142 317.158 L 731.138 317.164 C 729.670 319.956 728.244 322.780 726.955 325.643 C 726.081 327.587 725.222 329.620 724.619 331.648 C 724.339 332.587 723.950 334.058 724.105 335.034 C 724.161 335.387 724.245 335.686 724.686 335.686 C 724.973 335.686 725.614 335.261 725.828 335.109 C 726.674 334.511 727.478 333.750 728.201 333.034 C 730.528 330.731 732.676 328.216 734.717 325.705 C 737.414 322.384 739.961 318.957 742.414 315.488 C 745.058 311.750 747.664 307.990 750.227 304.206 C 752.585 300.724 754.877 297.202 757.066 293.632 C 758.714 290.944 760.354 288.235 761.879 285.489 L 762.081 285.126 L 779.107 285.126 L 778.645 286.052 C 775.730 291.895 772.663 297.679 769.561 303.444 C 766.544 309.050 763.585 314.682 760.583 320.295 C 757.742 325.610 754.921 330.933 752.124 336.266 C 756.183 333.811 760.009 331.061 763.577 328.046 C 767.969 324.333 771.400 319.892 774.041 315.031 L 774.501 314.186 L 780.000 319.349 L 779.808 319.750 C 776.802 326.020 772.083 331.212 766.174 335.466 C 759.970 339.932 753.307 343.846 746.312 347.233 L 746.016 347.898 L 746.007 347.916 C 742.938 353.770 739.413 359.445 735.327 364.775 C 731.863 369.295 727.906 373.661 723.336 377.316 C 719.797 380.147 715.667 382.667 711.086 383.884 C 709.153 384.397 707.151 384.602 705.148 384.345 C 703.184 384.093 701.380 383.416 699.749 382.405 C 697.209 380.830 695.339 378.739 694.534 376.040 C 693.682 373.183 694.442 370.297 695.833 367.687 C 697.076 365.205 698.890 363.059 701.119 361.225 C 703.551 359.224 706.240 357.477 709.052 355.936 C 712.188 354.219 715.449 352.684 718.780 351.297 C 722.301 349.830 725.834 348.383 729.375 346.954 C 731.011 344.233 732.610 341.493 734.173 338.738 C 734.734 337.747 735.292 336.755 735.844 335.760 C 733.278 338.460 730.532 341.034 727.579 343.353 C 724.695 345.619 720.584 348.293 716.576 348.293 C 714.073 348.293 711.584 347.816 709.566 346.419 C 707.515 344.999 706.587 342.818 706.222 340.580 C 706.186 340.617 706.150 340.653 706.114 340.690 C 701.684 345.147 696.174 348.293 689.350 348.293 C 683.479 348.293 679.860 345.857 678.796 340.981 C 675.582 343.635 671.944 345.972 667.904 347.462 C 663.943 348.923 660.009 348.840 656.335 346.806 L 656.326 346.801 L 656.318 346.796 C 653.109 344.908 651.841 341.699 651.461 338.427 C 650.779 339.200 650.075 339.955 649.344 340.690 C 644.915 345.147 639.404 348.293 632.580 348.293 C 629.900 348.293 627.194 347.790 625.072 346.234 C 622.783 344.555 622.239 341.803 622.293 339.284 C 622.331 337.476 622.749 335.624 623.285 333.887 C 623.994 331.585 624.963 329.321 626.022 327.133 C 627.396 324.294 629.014 321.528 630.715 318.839 C 632.862 315.446 635.179 312.132 637.571 308.876 L 637.575 308.871 L 637.579 308.866 C 638.841 307.214 640.065 305.530 641.196 303.802 C 642.068 302.469 642.901 301.092 643.595 299.678 C 643.903 299.051 644.434 297.886 644.379 297.187 C 644.358 296.908 644.284 296.865 643.973 296.865 C 642.601 296.865 639.707 299.278 638.780 300.071 C 637.329 301.314 635.951 302.634 634.624 303.983 C 633.013 305.622 631.469 307.315 629.969 309.036 C 626.309 313.233 622.910 317.637 619.676 322.107 C 616.069 327.090 612.735 332.231 609.676 337.504 L 604.272 347.772 L 586.628 347.772 L 587.298 346.503 C 584.683 347.663 581.883 348.293 578.901 348.293 C 573.717 348.293 569.704 346.470 568.346 341.719 C 568.195 341.190 568.090 340.652 568.024 340.110 C 566.934 341.064 565.783 341.963 564.564 342.777 C 561.843 344.594 558.752 346.233 555.466 347.053 C 552.727 347.736 549.943 347.821 547.219 347.049 C 544.434 346.350 542.260 344.605 540.566 342.555 C 538.148 339.629 537.574 335.373 537.525 331.833 C 537.521 331.574 537.521 331.315 537.525 331.056 C 536.408 332.225 535.247 333.361 534.044 334.458 C 529.685 338.435 524.816 341.984 519.401 344.733 C 514.710 347.114 509.629 348.845 504.259 349.418 C 499.393 349.936 494.809 349.159 490.654 346.802 C 488.416 345.532 486.708 343.792 485.474 341.688 C 484.575 340.155 483.974 338.508 483.597 336.818"/>
<path id="corel-ref-path-12" d="M 483.597 336.818 C 483.500 336.937 483.402 337.056 483.303 337.175 C 480.378 340.698 476.965 343.841 473.011 346.434 C 469.183 348.945 465.018 350.956 460.571 352.427 C 456.119 353.900 451.495 354.809 446.766 355.158 C 441.933 355.516 437.106 355.200 432.368 354.278 C 424.181 352.848 416.975 349.602 411.583 343.806 C 406.574 338.420 403.373 332.260 402.059 325.338 C 400.718 318.283 401.317 311.240 403.525 304.370 C 405.798 297.299 409.843 291.153 415.793 286.093 C 419.305 283.106 423.283 280.672 427.671 278.850 C 431.480 277.268 435.640 276.228 439.864 276.357 C 443.213 276.358 446.655 276.792 449.717 278.068 C 451.940 278.996 454.264 280.192 456.009 281.762 C 457.638 283.228 459.392 284.957 460.542 286.764 C 461.283 287.928 461.928 289.391 461.505 290.744 C 461.129 291.947 460.173 292.641 458.808 292.816 C 457.249 293.016 455.349 292.525 453.893 292.052 C 449.734 290.702 445.408 290.943 441.218 292.064 C 436.160 293.417 431.608 295.854 427.576 298.888 C 424.874 300.921 422.528 303.339 420.456 305.895 C 418.133 308.761 416.368 311.945 415.051 315.284 C 413.611 318.935 412.969 322.750 412.969 326.618 C 412.969 330.602 414.154 334.281 416.525 337.646 C 419.570 341.969 423.686 345.120 429.231 346.486 C 434.589 347.806 440.062 347.880 445.490 346.825 C 451.154 345.725 456.388 343.628 461.161 340.672 C 465.599 337.923 469.450 334.500 472.036 330.214 L 472.040 330.208 L 472.043 330.203 C 474.615 326.125 476.293 321.738 476.876 317.075 C 477.445 312.524 477.321 307.961 476.495 303.443 C 475.654 298.843 474.126 294.392 472.011 290.139 C 469.883 285.858 467.336 281.758 464.355 277.910 L 464.346 277.899 L 464.338 277.887 C 461.524 273.907 459.754 269.525 458.923 264.869 C 458.082 260.153 458.039 255.402 458.825 250.681 C 459.607 245.990 461.148 241.480 463.427 237.203 C 465.648 233.034 468.604 229.296 472.374 226.146 C 476.131 223.008 480.518 220.756 485.387 219.314 C 490.773 217.720 496.407 217.644 501.959 218.509 C 505.648 219.085 509.132 220.238 512.274 222.081 C 515.263 223.835 517.804 226.035 519.816 228.690 C 521.848 231.371 523.180 234.351 523.887 237.532 C 524.644 240.936 524.535 244.381 523.791 247.778 C 522.790 252.344 520.858 256.617 517.665 260.304 C 514.871 263.528 511.482 266.268 507.364 268.049 C 504.156 269.437 500.636 269.995 497.091 269.939 C 493.527 269.882 490.171 269.051 487.301 267.114 L 487.289 267.106 L 487.277 267.097 C 485.607 265.868 484.536 264.189 483.860 262.366 C 482.986 260.007 483.606 257.546 484.763 255.361 L 485.028 254.859 L 485.622 255.012 C 488.073 255.642 490.602 255.865 493.131 255.515 C 495.565 255.178 497.874 254.473 500.038 253.415 C 502.241 252.339 504.129 250.898 505.709 249.148 C 507.348 247.333 508.597 245.303 509.448 243.092 C 510.694 239.853 511.091 236.478 510.016 233.152 C 508.939 229.820 506.144 227.724 502.699 226.360 C 500.502 225.490 498.216 225.149 495.826 225.370 C 493.376 225.596 491.040 226.224 488.838 227.215 C 486.488 228.272 484.360 229.662 482.445 231.277 C 480.551 232.874 478.873 234.673 477.555 236.690 L 477.550 236.698 L 477.545 236.705 C 474.244 241.457 472.230 246.773 473.206 252.415 C 474.155 257.906 476.519 263.064 479.676 267.816 C 483.255 273.202 486.344 278.839 488.900 284.678 C 491.358 290.291 493.041 296.134 493.774 302.135 C 493.876 302.965 493.955 303.795 494.011 304.625"/>
<path id="corel-ref-path-13" d="M 131.291 282.021 C 130.919 281.714 130.572 281.365 130.254 280.969 C 128.639 278.963 128.433 276.627 129.074 274.261 C 129.788 271.628 131.544 269.515 133.861 267.825 C 136.212 266.110 138.901 265.072 141.948 265.072 C 144.627 265.072 146.878 265.956 148.435 267.958 C 149.993 269.961 150.245 272.224 149.608 274.572 C 149.290 275.747 148.790 276.822 148.125 277.803"/>
<path id="corel-ref-path-14" d="M 151.300 278.595 C 151.354 278.372 151.418 278.148 151.488 277.926 C 152.220 275.303 153.955 273.194 156.271 271.504 C 158.622 269.789 161.311 268.751 164.358 268.751 C 167.037 268.751 169.287 269.635 170.845 271.638 C 172.403 273.640 172.655 275.903 172.018 278.251 C 171.286 280.953 169.567 283.104 167.118 284.785 C 164.781 286.390 162.119 287.439 159.145 287.439 C 156.561 287.439 154.274 286.711 152.672 284.888"/>
<path id="corel-ref-path-15" d="M 124.080 287.265 C 125.783 285.788 127.576 284.403 129.461 283.165 C 130.057 282.774 130.667 282.391 131.291 282.021"/>
<path id="corel-ref-path-16" d="M 148.125 277.803 C 149.199 277.961 150.259 278.221 151.300 278.595"/>
<path id="corel-ref-path-17" d="M 157.557 287.339 L 157.557 287.494 L 156.372 286.641 C 154.491 285.287 152.317 284.595 149.919 284.437 C 147.069 284.250 144.332 285.252 141.962 286.597 C 138.494 288.564 135.409 291.570 132.876 294.442 C 131.112 296.443 129.551 298.615 128.123 300.821 C 126.371 303.527 124.791 306.334 123.311 309.168 C 121.186 313.235 119.110 318.163 119.035 322.711 C 118.989 325.489 119.642 328.456 122.603 329.851 L 122.621 329.860 L 122.639 329.870 C 123.961 330.584 125.595 330.086 126.853 329.502 C 129.113 328.453 131.177 326.830 132.940 325.197 C 135.316 322.996 137.424 320.534 139.326 317.991 C 141.390 315.234 143.217 312.339 144.766 309.322 L 146.232 306.095 C 143.822 305.033 141.965 303.426 140.901 301.151 C 139.877 298.965 139.434 296.652 139.788 294.293 C 140.133 291.998 141.174 289.972 142.855 288.218 C 144.728 286.263 147.250 285.471 150.069 285.471 C 153.749 285.471 156.429 286.950 157.796 290.056 C 159.150 293.134 158.960 296.570 158.174 299.762 C 160.851 299.387 163.488 298.786 166.058 298.015 C 167.239 297.661 168.409 297.254 169.531 296.769 L 174.365 287.686 C 173.360 285.659 172.862 283.503 172.801 281.279 C 172.728 278.658 173.645 276.212 175.124 273.978 C 176.596 271.752 178.660 269.752 181.597 269.238 C 183.858 268.842 186.088 269.045 187.967 270.313 C 189.815 271.560 190.638 273.359 190.768 275.405 C 190.846 276.629 190.481 277.803 189.870 278.889 C 189.131 280.201 188.038 281.387 186.887 282.422 C 186.330 282.923 185.488 283.771 185.353 284.498 C 185.270 284.943 185.329 285.350 185.665 285.695 C 186.103 286.146 186.685 286.491 187.276 286.757 C 187.953 287.062 188.642 287.350 189.345 287.603 L 189.367 287.611 L 189.388 287.620 C 192.042 288.757 194.166 290.455 195.344 292.904 C 196.455 295.216 196.387 297.536 195.139 299.789 L 185.100 319.593 L 185.096 319.600 C 184.162 321.331 183.257 323.091 182.462 324.878 C 181.935 326.065 181.413 327.334 181.096 328.581 C 180.970 329.077 180.809 329.937 181.082 330.415 C 181.281 330.763 181.726 330.819 182.123 330.819 C 185.242 330.819 188.215 327.503 189.830 325.450 C 192.343 322.254 194.515 318.741 196.486 315.255 C 197.141 314.024 197.797 312.794 198.454 311.564 C 200.349 307.812 202.279 304.074 204.249 300.354 C 205.982 297.078 207.719 293.805 209.463 290.535 C 210.715 288.188 211.969 285.841 213.230 283.496 C 213.572 282.861 213.913 282.223 214.240 281.581 C 214.348 281.370 214.519 281.065 214.605 280.833 L 214.605 280.757 L 214.685 280.617 C 219.951 271.350 225.558 262.192 231.709 253.376 C 234.288 249.679 236.975 246.037 239.822 242.502 C 242.246 239.491 244.793 236.545 247.515 233.746 C 249.760 231.437 252.141 229.197 254.702 227.170 C 256.740 225.557 258.949 224.033 261.319 222.834 C 264.892 221.025 268.976 220.124 272.676 222.150 L 272.687 222.156 L 272.698 222.162 C 275.556 223.852 276.386 226.757 276.358 229.688 C 276.339 231.651 275.950 233.655 275.431 235.556 C 274.756 238.033 273.820 240.474 272.783 242.845 C 271.494 245.793 269.954 248.664 268.294 251.456 C 266.310 254.792 264.133 258.044 261.856 261.225 C 259.190 264.949 256.373 268.589 253.468 272.165 C 250.774 275.482 248.001 278.747 245.171 281.972 C 247.661 280.987 250.362 280.259 252.988 280.259 C 255.968 280.259 259.382 280.792 261.213 283.145 C 262.836 285.231 263.074 287.696 262.588 290.152 C 261.974 293.261 260.310 296.268 258.429 298.905 C 256.141 302.115 253.389 305.022 250.301 307.630 C 247.077 310.354 243.455 312.623 239.512 314.426 C 235.847 316.102 231.950 317.123 227.859 317.335 C 227.926 318.738 228.216 320.121 228.680 321.464 C 229.218 323.027 229.954 324.526 230.918 325.915 C 231.760 327.127 232.783 328.247 234.034 329.136 C 235.065 329.868 236.221 330.298 237.540 330.298 C 240.731 330.298 244.456 327.055 246.469 325.120 C 250.353 321.383 253.444 316.661 255.943 312.090 C 256.382 311.146 256.853 310.214 257.353 309.295 C 260.622 303.277 264.593 297.334 269.529 292.296 C 273.258 288.491 277.538 284.795 282.337 282.096 C 285.928 280.077 289.982 278.376 294.207 277.833 C 297.301 277.435 300.667 277.482 303.518 278.764 L 303.527 278.769 L 303.535 278.772 C 305.628 279.777 307.230 281.249 308.369 283.119 C 309.585 285.114 310.167 287.307 310.293 289.570 C 310.438 292.185 309.979 294.820 309.205 297.336 C 308.290 300.314 306.704 303.079 304.758 305.613 C 302.116 309.054 298.980 312.230 295.225 314.717 C 292.165 316.743 288.729 318.476 285.032 319.341 C 282.113 320.024 278.992 320.256 276.057 319.511 C 273.952 318.976 272.269 317.959 271.035 316.465 C 270.322 319.213 269.920 322.111 270.223 324.896 C 270.490 327.340 271.585 329.320 274.141 330.356 L 274.155 330.361 L 274.168 330.367 C 276.471 331.403 279.359 331.211 281.801 330.746 C 285.355 330.070 288.716 328.705 291.805 327.006 C 295.457 324.997 298.784 322.525 301.807 319.805 C 304.745 317.161 307.288 314.207 309.368 310.970 L 325.515 280.259 L 342.971 280.259 L 339.586 286.603 C 341.702 284.917 344.027 283.395 346.516 282.321 C 349.722 280.939 353.123 280.259 356.679 280.259 C 359.139 280.259 361.198 281.080 362.672 282.870 C 363.894 284.355 364.375 286.122 364.420 287.921 C 369.148 284.234 375.533 280.259 381.781 280.259 C 383.525 280.259 385.149 280.669 386.558 281.603 C 387.971 282.540 388.895 283.822 389.427 285.320 C 390.046 287.060 390.037 288.949 389.743 290.741 C 389.371 293.025 388.306 295.228 387.050 297.224 C 383.288 303.202 379.568 309.200 375.853 315.203 C 374.604 317.221 373.368 319.249 372.168 321.292 C 371.284 322.798 370.414 324.315 369.599 325.851 C 369.056 326.875 368.520 327.927 368.079 328.990 C 367.875 329.483 367.583 330.210 367.544 330.737 C 367.535 330.868 367.529 331.169 367.622 331.283 C 367.666 331.336 367.816 331.340 367.878 331.340 C 371.062 331.340 374.518 327.722 376.281 325.685 C 378.138 323.541 379.798 321.242 381.319 318.895 C 383.151 316.070 384.802 313.142 386.332 310.176 L 386.782 309.304 L 392.305 314.489 L 392.100 314.894 C 390.033 318.984 387.747 323.017 385.130 326.846 C 382.971 330.004 380.553 333.075 377.784 335.826 C 373.369 340.211 367.872 343.426 361.120 343.426 C 358.440 343.426 355.733 342.922 353.611 341.367 C 351.322 339.688 350.778 336.936 350.832 334.416 C 350.871 332.609 351.288 330.756 351.824 329.019 C 352.533 326.718 353.502 324.454 354.561 322.265 C 355.935 319.427 357.553 316.661 359.255 313.972 C 361.401 310.579 363.718 307.265 366.111 304.009 L 366.114 304.004 L 366.118 303.999 C 367.377 302.352 368.594 300.668 369.709 298.938 C 370.562 297.613 371.374 296.236 372.032 294.822 C 372.326 294.192 372.823 293.031 372.751 292.335 C 372.721 292.049 372.638 291.997 372.319 291.997 C 371.492 291.997 370.104 292.905 369.483 293.337 C 367.829 294.487 366.281 295.829 364.831 297.182 C 362.936 298.950 361.201 300.873 359.583 302.850 C 357.748 305.092 356.098 307.454 354.616 309.898 C 352.768 312.946 351.024 316.054 349.320 319.169 C 347.385 322.708 345.469 326.258 343.632 329.840 C 341.485 334.024 339.450 338.255 337.463 342.503 L 337.275 342.905 L 319.798 342.905 L 320.298 341.964 C 323.072 336.755 325.841 331.544 328.601 326.328 L 328.604 326.323 L 328.607 326.317 C 329.768 324.227 330.891 322.118 331.975 319.995 C 333.047 317.895 334.143 315.805 335.264 313.727 C 336.264 311.875 337.262 310.023 338.257 308.169 C 338.997 306.788 339.760 305.402 340.588 304.062 C 341.599 302.291 342.579 300.484 343.430 298.646 C 343.989 297.438 344.548 296.126 344.864 294.847 C 344.995 294.315 345.175 293.396 344.962 292.867 C 344.848 292.583 344.647 292.518 344.321 292.518 C 342.824 292.518 340.325 295.170 339.479 296.100 C 338.186 297.522 336.978 299.015 335.823 300.529 C 334.391 302.407 333.032 304.331 331.717 306.276 C 328.476 311.073 325.419 315.981 322.468 320.927 C 319.103 326.569 315.862 332.270 312.729 338.019 L 311.344 340.562 L 311.344 340.434 L 310.022 342.905 L 292.578 342.905 L 296.775 334.921 C 294.225 336.755 291.528 338.421 288.682 339.866 C 283.992 342.247 278.911 343.978 273.541 344.550 C 268.675 345.069 264.091 344.291 259.936 341.934 C 257.698 340.665 255.990 338.925 254.756 336.821 C 253.648 334.932 252.993 332.871 252.652 330.767 C 251.191 332.544 249.618 334.251 247.913 335.841 C 242.877 340.538 236.788 343.426 229.431 343.426 C 226.938 343.426 224.730 342.589 222.796 341.197 C 220.645 339.648 218.944 337.684 217.595 335.534 C 216.020 333.022 214.956 330.257 214.237 327.453 C 213.619 325.044 213.294 322.580 213.236 320.110 C 211.561 322.401 209.959 324.737 208.436 327.112 C 206.544 330.064 204.745 333.063 203.052 336.110 L 199.378 342.905 L 181.939 342.905 L 182.428 341.969 C 182.505 341.820 182.582 341.672 182.660 341.524 C 179.977 342.753 177.095 343.426 174.013 343.426 C 168.841 343.426 164.839 341.610 163.552 336.843 C 162.069 331.347 165.236 323.959 167.750 319.039 C 168.883 316.822 170.023 314.600 171.236 312.417 C 172.168 310.740 173.130 309.074 174.148 307.439 C 175.015 306.046 175.884 304.655 176.756 303.266 C 177.685 301.788 178.618 300.313 179.554 298.839 C 180.186 297.796 180.588 296.653 180.525 295.454 C 180.482 294.643 180.154 293.952 179.627 293.353 L 176.439 299.439 L 176.884 300.271 L 176.333 300.584 C 176.101 300.714 175.869 300.844 175.635 300.972 L 166.893 317.658 L 161.159 312.499 L 164.955 305.368 C 161.930 306.217 158.819 306.816 155.662 307.072 C 155.412 307.858 155.087 308.624 154.680 309.356 C 154.221 310.183 153.817 311.034 153.456 311.899 L 153.445 311.925 L 153.432 311.950 C 151.006 316.558 148.072 320.938 144.773 325.082 C 141.533 329.153 137.815 332.927 133.546 336.149 C 129.837 338.948 125.666 341.267 121.040 342.612 C 116.704 343.872 112.396 343.693 108.249 341.976 C 103.258 339.908 101.133 335.553 100.397 330.872 C 100.039 328.591 100.133 326.262 100.542 323.952"/>
<path id="corel-ref-path-18" d="M 100.542 323.952 C 98.878 327.757 97.117 331.528 95.249 335.256 C 93.192 339.363 90.824 343.341 88.153 347.151 C 85.487 350.954 82.245 354.347 78.461 357.283 C 75.581 359.626 72.224 361.314 68.561 362.451 C 64.752 363.632 60.806 364.336 56.784 364.570 C 52.732 364.805 48.682 364.536 44.711 363.775 C 40.891 363.042 37.186 361.882 33.785 360.141 C 30.209 358.312 27.425 355.691 25.314 352.525 C 23.241 349.416 21.755 346.061 21.069 342.482 L 21.067 342.475 L 21.066 342.468 C 20.000 336.113 20.690 329.851 22.929 323.747 C 25.141 317.720 28.667 312.377 33.615 307.866 C 33.774 301.654 34.951 295.542 37.022 289.615 C 39.023 283.886 41.495 278.288 44.500 272.924 C 49.498 264.004 55.531 255.617 62.544 247.872 C 69.546 240.140 77.591 233.287 86.631 227.510 L 86.637 227.507 L 86.643 227.503 C 90.475 225.158 94.646 223.132 98.799 221.289 C 103.556 219.177 108.552 217.562 113.738 216.545 C 118.649 215.582 123.642 215.398 128.599 216.193 C 133.635 217.000 137.557 219.437 140.551 223.142 C 143.676 227.009 145.545 231.316 145.615 236.116 C 145.682 240.808 144.584 245.356 142.564 249.671 C 140.371 254.358 137.300 258.641 133.664 262.523 C 129.907 266.534 125.714 270.188 121.097 273.392 C 116.735 276.420 112.011 279.000 106.939 280.947 C 102.628 282.602 97.948 283.780 93.232 283.780 C 89.701 283.780 85.566 283.442 82.375 281.970 C 80.127 280.932 78.029 279.487 76.847 277.430 C 75.805 275.618 75.468 273.662 75.808 271.644 C 76.130 269.735 76.873 267.948 78.166 266.397 L 78.559 265.926 L 79.123 266.226 C 82.694 268.130 86.666 268.811 90.788 268.654 C 95.490 268.475 100.073 267.518 104.460 266.004 C 109.200 264.368 113.664 262.187 117.819 259.564 C 121.867 257.009 125.560 254.028 128.677 250.567 C 131.453 247.485 133.619 244.036 134.817 240.204 C 135.912 236.700 135.779 233.236 134.264 229.855 C 132.966 226.963 130.692 225.109 127.326 224.338 C 123.515 223.466 119.497 223.723 115.699 224.516 C 110.955 225.505 106.418 227.259 102.183 229.400 C 97.721 231.655 93.563 234.355 89.877 237.553 L 89.872 237.558 L 89.867 237.562 C 86.217 240.611 82.866 243.937 79.809 247.474 C 76.731 251.035 73.836 254.725 71.161 258.541 C 68.653 262.119 66.323 265.804 64.247 269.600 C 62.444 272.897 60.793 276.268 59.351 279.706 C 58.039 282.837 56.843 286.004 55.797 289.215 C 54.826 292.195 54.020 295.218 53.397 298.272 C 55.428 297.936 57.488 297.793 59.557 297.843 C 62.016 297.903 64.399 298.348 66.672 299.196 C 69.547 300.269 72.064 301.920 73.510 304.454 C 74.722 306.578 75.481 308.846 75.617 311.236 C 75.699 312.663 75.692 315.284 73.714 315.729 C 72.217 316.066 70.244 315.667 68.796 315.289 C 66.422 314.668 64.007 314.141 61.596 313.647 C 58.866 313.089 56.060 313.128 53.312 313.542 C 53.758 316.090 54.660 318.556 55.856 320.899 C 56.667 322.487 57.714 323.984 58.869 325.386 C 60.082 326.860 61.508 328.161 63.154 329.243 C 64.707 330.264 66.422 330.999 68.296 331.393 C 70.261 331.806 72.201 331.417 73.999 330.656 L 74.010 330.651 L 74.022 330.647 C 77.508 329.302 80.598 327.412 83.249 324.971 C 85.959 322.474 88.375 319.738 90.497 316.818 C 92.719 313.761 94.832 310.641 96.847 307.469 C 98.885 304.259 101.049 301.113 103.344 298.046 C 105.613 295.012 108.230 292.212 111.168 289.685 C 114.179 287.096 117.672 285.121 121.539 283.730 L 122.187 283.496 L 124.080 287.265"/>
</g>
</svg>
