<svg xmlns="http://www.w3.org/2000/svg" width="800mm" height="600mm" viewBox="0 0 800 600" data-corel-reference="true">
<title>Corel reference object: 30 mart gold 01.ai / 1</title>
<rect x="0" y="0" width="800" height="600" fill="#ffffff"/>
<g id="corel-reference-paths" fill="none" stroke="#020617" stroke-width="0.22" stroke-linejoin="round" stroke-linecap="round" vector-effect="non-scaling-stroke">
<path id="corel-ref-path-1" d="M 697.397 369.913 C 697.081 370.944 696.697 372.696 697.974 373.379 C 699.239 373.901 700.542 373.587 701.718 373.026 C 703.663 372.100 705.421 370.684 706.904 369.283 C 709.025 367.277 710.924 365.051 712.667 362.798 C 714.199 360.821 715.673 358.809 717.099 356.775 C 712.979 358.598 708.916 360.558 705.043 362.719 C 701.943 364.449 698.665 366.847 697.397 369.913 L 697.397 369.913 Z"/>
<path id="corel-ref-path-2" d="M 682.378 310.246 C 683.815 307.466 685.244 304.683 686.658 301.895 C 687.789 299.667 688.825 297.344 689.535 294.990 C 689.999 293.456 690.423 291.668 690.342 290.076 C 690.292 289.094 689.891 288.325 688.862 287.838 L 688.840 287.828 L 688.819 287.817 C 687.801 287.275 686.231 288.103 685.415 288.592 C 683.241 289.893 681.260 291.638 679.532 293.347 C 677.143 295.707 675.001 298.280 673.029 300.902 C 670.863 303.782 668.943 306.786 667.236 309.881 C 665.790 312.503 664.440 315.172 663.300 317.902 C 662.308 320.275 661.437 322.711 660.827 325.178 C 660.393 326.932 660.035 328.869 660.116 330.667 C 660.149 331.402 660.313 332.459 661.253 332.759 L 661.327 332.782 L 661.396 332.816 C 662.226 333.219 663.885 332.205 664.485 331.812 C 666.594 330.431 668.504 328.630 670.175 326.877 C 672.493 324.444 674.608 321.850 676.592 319.214 C 678.754 316.338 680.697 313.345 682.378 310.246 L 682.378 310.246 Z"/>
<path id="corel-ref-path-3" d="M 607.833 313.435 C 609.740 313.116 611.565 312.509 613.288 311.719 C 615.936 310.506 618.438 309.079 620.760 307.452 C 623.019 305.867 625.121 304.125 627.010 302.220 C 628.621 300.596 630.163 298.854 631.403 297.007 C 632.115 295.946 633.000 294.469 633.160 293.238 C 633.233 292.683 633.127 292.571 632.470 292.571 C 631.258 292.571 629.493 293.538 628.543 294.108 C 626.313 295.443 624.220 297.091 622.295 298.730 C 619.634 300.995 617.128 303.414 614.725 305.879 C 612.333 308.333 610.042 310.859 607.833 313.435 L 607.833 313.435 Z"/>
<path id="corel-ref-path-4" d="M 657.639 237.421 C 657.331 237.559 656.923 237.815 656.767 237.917 C 655.895 238.488 655.064 239.171 654.287 239.832 C 652.825 241.075 651.455 242.420 650.142 243.776 C 648.389 245.586 646.713 247.456 645.079 249.345 C 640.652 254.463 636.537 259.833 632.575 265.218 C 627.418 272.226 622.640 279.454 618.094 286.761 L 615.846 291.027 C 620.541 285.985 625.157 280.891 629.693 275.745 C 635.107 269.602 640.388 263.347 645.339 256.926 C 647.321 254.357 649.262 251.762 651.120 249.126 C 652.589 247.042 654.015 244.927 655.323 242.767 C 656.081 241.518 656.894 240.106 657.366 238.755 C 657.441 238.543 657.666 237.812 657.639 237.421 L 657.639 237.421 Z"/>
<path id="corel-ref-path-5" d="M 507.931 308.773 C 507.746 309.220 507.529 309.871 507.623 310.339 C 507.670 310.573 507.782 310.704 508.038 310.800 C 509.184 311.226 511.013 310.768 512.111 310.425 C 514.556 309.662 516.970 308.398 519.103 307.142 C 522.053 305.405 524.750 303.343 527.204 301.119 C 530.010 298.575 532.807 295.446 534.094 292.092 C 534.465 291.125 534.882 289.884 534.882 288.861 C 534.882 288.571 534.845 287.995 534.510 287.817 L 534.498 287.810 L 534.486 287.803 C 532.830 286.864 530.868 287.226 529.162 287.872 C 526.402 288.915 523.884 290.581 521.704 292.340 C 518.879 294.617 516.361 297.188 514.089 299.872 C 511.721 302.671 509.633 305.641 507.931 308.773 L 507.931 308.773 Z"/>
<path id="corel-ref-path-6" d="M 463.970 276.460 C 464.762 275.760 465.515 275.021 466.188 274.240 C 466.789 273.543 467.392 272.821 467.915 272.080 C 469.235 270.208 470.256 268.176 471.066 266.108 C 471.958 263.829 472.529 261.477 472.797 259.087 C 473.065 256.692 473.037 254.273 472.695 251.884 C 472.418 249.949 471.829 248.078 470.872 246.316 C 466.185 248.941 462.761 252.714 460.235 256.966 C 457.214 262.050 454.726 267.359 452.676 272.780 C 456.600 273.572 460.393 274.886 463.970 276.460 L 463.970 276.460 Z"/>
<path id="corel-ref-path-7" d="M 291.058 313.963 C 290.874 314.410 290.657 315.062 290.751 315.529 C 290.798 315.763 290.909 315.894 291.166 315.990 C 292.312 316.416 294.141 315.958 295.239 315.615 C 297.683 314.852 300.098 313.588 302.231 312.332 C 305.180 310.595 307.878 308.533 310.332 306.309 C 313.138 303.766 315.935 300.636 317.222 297.281 C 317.593 296.315 318.010 295.075 318.010 294.051 C 318.010 293.761 317.973 293.185 317.637 293.007 L 317.625 293.000 L 317.613 292.993 C 315.958 292.054 313.997 292.416 312.290 293.062 C 309.529 294.105 307.013 295.772 304.831 297.530 C 302.007 299.807 299.489 302.378 297.217 305.062 C 294.849 307.862 292.761 310.831 291.058 313.963 L 291.058 313.963 Z"/>
<path id="corel-ref-path-8" d="M 216.122 361.500 C 211.806 363.412 207.550 365.465 203.494 367.731 C 200.335 369.495 196.810 372.000 195.520 375.135 C 195.034 376.321 194.728 377.767 196.037 378.646 C 197.139 379.387 198.412 379.090 199.557 378.566 C 201.609 377.625 203.488 376.109 205.043 374.649 C 207.339 372.492 209.413 370.115 211.336 367.711 C 212.973 365.665 214.567 363.593 216.122 361.500 L 216.122 361.500 Z"/>
<path id="corel-ref-path-9" d="M 243.249 315.423 C 244.769 312.676 246.269 309.911 247.619 307.100 C 248.709 304.835 249.721 302.513 250.511 300.159 C 251.019 298.646 251.496 296.849 251.415 295.266 C 251.365 294.285 250.964 293.515 249.936 293.028 L 249.914 293.018 L 249.892 293.007 C 248.874 292.465 247.305 293.293 246.488 293.782 C 244.315 295.084 242.334 296.827 240.605 298.536 C 238.217 300.897 236.074 303.470 234.102 306.092 C 231.937 308.972 230.017 311.977 228.310 315.071 C 226.864 317.693 225.515 320.362 224.374 323.092 C 223.375 325.482 222.478 327.919 221.791 330.388 C 221.314 332.104 220.923 334.057 221.083 335.824 C 221.141 336.474 221.334 337.661 222.159 337.963 L 222.211 337.982 L 222.260 338.006 C 223.099 338.414 224.849 337.383 225.469 336.993 C 227.625 335.633 229.564 333.836 231.248 332.067 C 233.551 329.651 235.628 327.056 237.554 324.413 C 239.664 321.517 241.544 318.506 243.249 315.423 L 243.249 315.423 Z"/>
<path id="corel-ref-path-10" d="M 161.674 363.395 C 157.885 365.128 154.156 367.015 150.662 369.123 C 147.853 370.818 144.832 373.126 143.592 375.939 C 143.288 376.631 142.973 377.564 143.115 378.310 C 143.205 378.786 143.469 379.114 143.961 379.347 C 144.987 379.773 146.293 379.277 147.189 378.832 C 149.077 377.894 150.811 376.516 152.295 375.160 C 154.367 373.267 156.190 371.135 157.832 368.961 C 159.200 367.151 160.477 365.291 161.674 363.395 L 161.674 363.395 Z"/>
<path id="corel-ref-path-11" d="M 109.811 256.204 C 114.305 260.328 119.088 264.221 124.149 267.838 C 129.377 271.576 135.409 274.039 142.041 275.405 C 146.771 276.380 152.052 276.526 156.034 273.789 C 159.558 271.367 161.719 268.236 162.694 264.475 C 163.779 260.292 163.552 256.013 162.484 251.846 C 161.400 247.613 159.327 243.726 155.918 240.484 C 152.778 237.497 148.869 235.536 144.063 235.780 C 139.253 236.024 134.749 237.369 130.592 239.406 C 125.951 241.680 121.774 244.525 118.056 247.802 C 116.301 249.349 114.592 250.942 112.985 252.602 C 111.868 253.757 110.786 254.955 109.811 256.204 L 109.811 256.204 Z"/>
<path id="corel-ref-path-12" d="M 70.971 359.593 C 74.933 362.624 79.539 364.000 84.858 363.643 C 89.829 363.308 94.516 362.037 98.891 360.006 C 103.572 357.833 107.860 355.125 111.758 352.033 C 115.966 348.695 119.787 345.017 123.247 341.110 C 126.794 337.105 130.098 332.945 133.120 328.640 C 136.003 324.532 138.725 320.341 141.239 316.061 C 143.413 312.360 145.588 308.646 147.600 304.879 C 149.591 301.152 151.460 297.368 153.340 293.599 C 155.184 289.904 156.766 286.118 158.107 282.270 C 153.188 284.883 147.603 286.911 141.745 287.116 C 136.519 287.299 131.475 286.502 126.676 284.734 C 121.622 282.873 116.977 280.299 112.742 277.315 C 108.490 274.318 104.373 271.184 100.387 267.934 C 97.846 271.363 95.411 274.852 93.120 278.406 C 91.044 281.629 89.006 284.877 87.075 288.165 L 87.070 288.172 L 87.066 288.179 C 85.146 291.299 83.279 294.445 81.429 297.596 C 79.034 301.671 76.875 305.852 74.875 310.078 C 72.680 314.718 70.672 319.422 68.834 324.173 C 67.076 328.717 65.766 333.399 65.113 338.154 C 64.548 342.263 64.532 346.461 65.416 350.537 C 66.177 354.044 67.934 357.122 70.971 359.593 L 70.971 359.593 Z"/>
<path id="corel-ref-path-13" d="M 490.967 306.989 C 493.971 302.318 497.463 297.808 501.570 293.843 C 505.620 289.933 510.269 286.138 515.483 283.366 C 519.395 281.285 523.810 279.535 528.412 278.976 C 531.804 278.563 535.486 278.616 538.629 279.953 C 540.935 281.000 542.697 282.530 543.950 284.475 C 545.280 286.540 545.919 288.812 546.056 291.154 C 546.215 293.851 545.715 296.567 544.872 299.160 C 543.874 302.228 542.148 305.077 540.028 307.689 C 537.155 311.228 533.744 314.494 529.659 317.051 C 526.325 319.139 522.584 320.923 518.555 321.814 C 515.360 322.521 511.945 322.759 508.733 321.988 C 506.554 321.464 504.783 320.496 503.448 319.090 C 502.740 321.783 502.353 324.608 502.667 327.325 C 502.948 329.767 504.090 331.744 506.820 332.790 C 509.279 333.836 512.370 333.635 514.965 333.168 C 518.792 332.479 522.410 331.088 525.737 329.359 C 529.678 327.309 533.268 324.785 536.530 322.008 C 539.521 319.463 542.136 316.633 544.307 313.544 L 557.989 289.230 C 556.914 287.154 556.380 284.950 556.314 282.676 C 556.234 279.958 557.237 277.423 558.857 275.107 C 560.482 272.785 562.760 270.711 565.999 270.174 C 568.504 269.761 570.974 269.979 573.054 271.306 C 575.102 272.614 576.021 274.501 576.165 276.646 C 576.251 277.930 575.849 279.161 575.171 280.299 C 574.361 281.659 573.166 282.887 571.905 283.961 C 571.339 284.442 570.436 285.295 570.299 285.996 C 570.219 286.400 570.266 286.768 570.590 287.084 C 571.047 287.528 571.658 287.868 572.275 288.131 C 573.003 288.441 573.744 288.734 574.544 289.008 C 577.475 290.195 579.810 291.964 581.104 294.510 C 582.330 296.923 582.256 299.349 580.880 301.701 L 570.006 321.986 C 568.994 323.760 568.016 325.558 567.158 327.385 C 566.590 328.592 566.028 329.884 565.687 331.153 C 565.564 331.609 565.387 332.473 565.655 332.916 C 565.830 333.206 566.264 333.239 566.606 333.239 C 569.899 333.239 573.089 329.857 574.791 327.811 C 577.506 324.545 579.853 320.955 581.982 317.394 C 582.691 316.134 583.401 314.875 584.111 313.616 C 586.164 309.773 588.254 305.945 590.387 302.134 C 592.263 298.779 594.145 295.427 596.034 292.078 C 597.390 289.673 598.747 287.270 600.112 284.869 C 600.479 284.225 600.844 283.579 601.195 282.928 C 601.312 282.712 601.484 282.423 601.582 282.185 L 601.582 282.096 L 601.690 281.916 C 607.395 272.422 613.469 263.038 620.133 254.005 C 622.928 250.215 625.841 246.482 628.925 242.859 C 631.554 239.771 634.316 236.750 637.267 233.880 C 639.704 231.510 642.288 229.210 645.069 227.130 C 647.286 225.470 649.689 223.903 652.267 222.669 C 656.201 220.785 660.693 219.862 664.786 221.983 C 667.948 223.751 668.878 226.775 668.846 229.837 C 668.825 231.860 668.403 233.924 667.837 235.885 C 667.104 238.428 666.088 240.936 664.961 243.371 C 663.563 246.396 661.892 249.342 660.091 252.207 C 657.939 255.628 655.581 258.963 653.112 262.225 C 647.700 269.374 641.709 276.275 635.514 282.967 C 638.032 282.084 640.720 281.458 643.342 281.458 C 646.640 281.458 650.387 282.026 652.411 284.486 C 654.198 286.660 654.468 289.228 653.933 291.788 C 653.263 294.995 651.452 298.092 649.401 300.814 C 646.914 304.112 643.924 307.100 640.568 309.780 C 637.064 312.581 633.126 314.914 628.840 316.769 C 624.905 318.470 620.724 319.516 616.337 319.755 C 616.425 321.121 616.731 322.467 617.209 323.777 C 617.787 325.363 618.576 326.886 619.612 328.296 C 620.511 329.520 621.604 330.653 622.941 331.551 C 624.022 332.278 625.230 332.705 626.615 332.705 C 629.997 332.705 634.009 329.393 636.139 327.455 C 639.814 324.112 642.803 320.017 645.283 315.971 C 645.908 314.751 646.572 313.546 647.266 312.353 C 650.786 306.312 654.829 300.190 659.708 294.861 C 663.268 290.974 667.374 287.084 672.023 284.118 C 675.401 281.961 679.321 280.051 683.503 279.339 C 686.705 278.795 690.058 278.783 693.119 279.942 C 694.502 280.529 695.704 281.301 696.596 282.307 L 697.096 281.458 L 716.191 281.458 L 694.414 321.277 L 693.992 321.995 C 692.983 323.763 692.006 325.560 691.148 327.385 C 690.581 328.592 690.019 329.884 689.678 331.153 C 689.555 331.609 689.378 332.473 689.645 332.916 C 689.821 333.206 690.255 333.239 690.597 333.239 C 693.890 333.239 697.080 329.857 698.781 327.811 C 701.039 325.095 703.028 322.165 704.855 319.226 C 705.821 317.389 706.847 315.574 707.904 313.774 C 710.735 308.956 713.587 304.098 716.710 299.411 C 718.937 296.070 721.239 292.763 723.632 289.505 C 725.509 286.949 727.361 284.372 729.285 281.842 L 729.578 281.458 L 748.846 281.458 L 747.886 282.749 C 745.232 286.315 742.660 289.925 740.159 293.590 C 737.745 296.929 735.469 300.339 733.284 303.784 C 731.061 307.290 728.959 310.858 727.037 314.506 C 725.447 317.366 723.903 320.255 722.510 323.185 C 721.566 325.170 720.639 327.244 719.987 329.314 C 719.693 330.249 719.273 331.744 719.436 332.715 C 719.457 332.843 719.515 333.086 719.627 333.184 C 719.683 333.235 719.795 333.239 719.869 333.239 C 720.136 333.228 720.815 332.799 721.018 332.662 C 721.913 332.057 722.762 331.296 723.529 330.578 C 726.045 328.223 728.367 325.653 730.571 323.085 C 733.489 319.687 736.245 316.181 738.900 312.631 C 741.762 308.804 744.583 304.954 747.358 301.079 C 749.910 297.515 752.389 293.911 754.759 290.256 C 756.542 287.506 758.317 284.733 759.968 281.923 L 760.241 281.458 L 779.105 281.458 L 778.479 282.643 C 775.322 288.629 772.000 294.554 768.640 300.459 C 765.374 306.201 762.168 311.969 758.919 317.718 C 755.947 322.975 752.995 328.241 750.068 333.517 C 754.232 331.096 758.168 328.401 761.848 325.460 C 766.586 321.671 770.287 317.139 773.136 312.180 L 773.758 311.098 L 780.000 316.640 L 779.740 317.152 C 776.472 323.598 771.343 328.939 764.918 333.313 C 758.209 337.880 751.006 341.885 743.445 345.352 L 743.142 345.993 C 739.809 352.007 735.985 357.827 731.555 363.294 C 727.795 367.934 723.500 372.415 718.539 376.167 C 714.684 379.084 710.189 381.676 705.199 382.930 C 700.799 384.035 696.555 383.620 692.755 381.392 C 689.964 379.756 687.913 377.582 687.029 374.779 C 686.094 371.812 686.920 368.820 688.447 366.110 C 689.804 363.547 691.784 361.331 694.217 359.438 C 696.860 357.382 699.781 355.586 702.838 354.002 C 706.240 352.240 709.777 350.665 713.391 349.242 C 717.185 347.748 720.991 346.273 724.805 344.817 C 726.565 342.048 728.285 339.260 729.967 336.455 C 730.336 335.839 730.703 335.223 731.069 334.605 C 728.584 337.007 725.945 339.296 723.132 341.385 C 719.967 343.737 715.484 346.486 711.087 346.486 C 708.333 346.486 705.597 345.986 703.376 344.533 C 701.226 343.125 700.189 341.006 699.746 338.794 C 694.939 343.316 688.971 346.486 681.606 346.486 C 675.278 346.486 671.310 344.033 670.055 339.153 C 666.620 341.802 662.748 344.126 658.458 345.623 C 654.110 347.139 649.785 347.050 645.735 344.929 C 642.256 342.993 640.845 339.739 640.402 336.395 C 639.626 337.173 638.823 337.932 637.990 338.667 C 632.499 343.510 625.855 346.486 617.833 346.486 C 615.089 346.486 612.655 345.617 610.525 344.167 C 608.176 342.568 606.319 340.540 604.846 338.318 C 603.131 335.731 601.972 332.885 601.189 329.998 C 600.564 327.694 600.214 325.341 600.117 322.980 C 598.430 325.180 596.814 327.419 595.271 329.695 C 593.225 332.714 591.278 335.783 589.446 338.900 L 585.415 345.953 L 566.097 345.953 L 566.763 344.745 C 563.981 345.869 560.999 346.486 557.824 346.486 C 532.785 346.486 561.587 314.821 563.652 300.573 C 564.318 299.533 564.745 298.392 564.678 297.197 C 564.639 296.500 564.373 295.896 563.941 295.363 L 550.173 320.216 L 549.863 319.952 C 546.583 324.391 542.786 328.530 538.455 332.267 C 533.722 336.351 528.435 339.996 522.555 342.818 C 517.453 345.268 511.927 347.048 506.086 347.637 C 500.771 348.173 495.763 347.368 491.224 344.933 C 488.772 343.617 486.899 341.813 485.546 339.632 C 484.236 337.520 483.505 335.199 483.162 332.839"/>
<path id="corel-ref-path-14" d="M 483.162 332.839 C 481.114 335.833 478.749 338.660 476.099 341.299 C 472.838 344.546 469.191 347.490 465.173 350.055 C 459.229 353.849 452.624 356.797 445.698 359.063 C 438.306 361.483 430.635 363.179 422.804 364.182 C 414.902 365.193 406.917 365.440 398.952 364.900 C 391.233 364.377 383.683 362.953 376.497 360.482 C 369.498 358.075 363.199 354.653 357.687 350.263 C 351.893 345.648 347.801 339.983 345.097 333.655 C 342.887 328.482 341.886 323.058 342.322 317.564 C 342.734 312.363 344.418 307.439 347.700 303.024 C 349.102 301.139 350.880 299.433 352.763 297.887 C 354.780 296.229 357.006 294.773 359.438 293.581 C 361.788 292.430 364.321 291.660 367.008 291.342 C 369.742 291.019 372.390 291.394 374.899 292.399 C 376.992 293.290 378.750 294.533 380.162 296.114 C 381.573 297.695 382.402 299.479 382.559 301.503 C 382.559 302.622 382.528 304.228 382.082 305.274 C 381.713 306.135 381.014 306.771 379.973 307.037 C 379.029 307.278 378.009 307.271 377.041 307.153 C 375.938 307.019 374.833 306.905 373.675 306.795 C 371.974 306.531 369.897 307.093 368.356 307.632 C 365.794 308.530 363.711 310.296 362.082 312.161 C 359.919 314.636 358.558 317.718 357.645 320.681 C 356.500 324.394 356.474 328.208 357.244 331.978 C 358.102 336.173 360.265 340.012 363.141 343.469 C 366.429 347.423 371.006 350.071 376.282 351.801 C 384.003 354.333 392.098 355.316 400.350 355.037 C 408.996 354.745 417.432 353.337 425.560 350.816 C 433.671 348.301 441.218 344.795 448.091 340.350 C 454.590 336.147 460.178 331.115 464.348 325.124 C 466.148 322.292 467.499 319.286 468.432 316.168 C 469.375 313.013 469.757 309.792 469.553 306.544 C 469.354 303.390 468.596 300.314 467.217 297.380 C 465.992 294.772 464.239 292.457 461.929 290.473 C 461.022 290.928 460.086 291.340 459.122 291.699 C 458.013 292.112 456.891 292.501 455.758 292.863 C 454.102 293.502 452.403 294.065 450.685 294.570 C 448.974 295.075 447.248 295.539 445.509 295.969 L 442.722 303.929 C 440.849 308.277 439.055 312.638 437.287 317.004 C 435.167 322.235 432.477 327.282 429.267 332.092 C 426.142 336.775 422.311 341.062 417.687 344.746 C 413.181 348.338 407.845 350.276 401.650 350.401 C 400.062 350.401 398.511 350.165 397.060 349.617 C 395.395 348.986 394.550 347.778 394.384 346.199 C 394.384 345.380 394.540 344.596 394.861 343.846 C 395.241 342.957 395.906 342.082 396.561 341.323 C 397.547 340.178 398.515 339.022 399.479 337.864 C 400.993 336.045 402.479 334.207 403.959 332.366 C 408.169 326.872 411.868 321.103 415.068 315.136 C 418.731 308.304 422.166 301.372 425.491 294.415 C 424.588 293.889 423.897 293.136 423.362 292.316 C 422.727 291.343 422.204 290.224 422.193 289.097 C 422.045 287.523 422.370 285.992 423.111 284.544 C 423.868 283.062 424.878 281.691 426.072 280.436 C 427.290 279.155 428.674 278.002 430.213 277.004 C 431.449 276.203 432.741 275.437 434.091 274.778 C 435.758 271.021 437.614 267.325 439.643 263.699 C 441.687 260.045 444.036 256.515 446.725 253.176 C 449.231 250.063 452.088 247.158 455.334 244.584 C 458.033 242.443 461.070 240.720 464.436 239.485 C 460.017 236.167 454.791 234.059 448.994 232.940 C 442.359 231.659 435.689 231.608 429.023 232.766 C 422.278 233.937 416.083 236.264 410.475 239.656 C 404.807 243.085 400.880 247.621 398.605 253.214 C 397.383 256.217 397.416 259.162 399.264 261.958 C 401.021 264.615 403.673 266.087 407.209 266.519 C 410.330 266.836 413.277 266.410 415.981 265.030 C 418.524 263.731 420.364 261.941 421.420 259.580 L 421.714 258.923 L 422.526 259.052 C 424.511 259.369 426.582 259.961 428.120 261.117 C 429.324 262.020 430.312 263.098 430.897 264.378 C 431.439 265.564 431.637 266.798 431.481 268.063 C 431.353 269.095 431.156 270.143 430.812 271.168 C 430.140 272.884 428.949 274.441 427.596 275.811 C 425.938 277.491 423.834 278.749 421.510 279.679 C 418.932 280.711 416.175 281.299 413.344 281.534 C 410.174 281.798 406.970 281.495 403.899 280.798 C 400.495 280.026 397.447 278.530 394.742 276.631 C 391.715 274.506 389.501 271.817 387.979 268.746 C 385.836 264.423 384.900 259.859 385.825 255.201 C 386.699 250.798 388.717 246.763 391.741 243.113 C 394.932 239.261 398.853 235.925 403.237 233.055 C 407.811 230.061 412.733 227.499 417.949 225.399 C 423.011 223.362 428.276 221.710 433.706 220.540 C 438.517 219.503 443.523 218.871 448.496 219.002 C 454.702 219.004 460.810 219.812 466.680 221.539 C 472.193 223.161 477.219 225.596 481.465 229.018 C 485.641 232.386 488.580 236.463 490.399 241.107 C 492.456 246.358 492.295 251.993 491.059 257.372 C 489.906 262.383 487.847 267.134 484.769 271.520 C 481.925 275.573 478.469 279.232 474.430 282.455 C 478.561 285.531 482.164 289.043 485.167 292.961 C 488.127 296.824 490.243 301.084 490.864 305.711 C 490.906 306.141 490.940 306.566 490.967 306.989"/>
<path id="corel-ref-path-15" d="M 170.708 295.351 C 174.185 292.227 178.105 289.295 182.388 287.205 C 184.590 286.130 186.930 285.194 189.364 284.571 C 191.440 284.040 193.602 283.735 195.775 283.802 C 199.433 283.915 202.900 284.776 205.694 286.857 C 209.092 289.387 210.721 292.599 210.420 296.441 C 210.105 300.458 208.325 304.171 205.767 307.521 C 202.750 311.470 198.798 314.862 194.470 317.775 C 189.752 320.951 184.512 323.362 178.794 324.944 L 178.708 324.968 L 176.408 325.229 C 179.107 326.378 181.309 328.126 182.990 330.468 C 185.302 333.686 186.191 337.334 186.212 341.043 C 190.284 338.598 193.933 335.587 197.189 332.401 C 201.006 328.666 204.198 324.436 206.925 320.072 C 207.381 319.223 207.853 318.379 208.340 317.543 C 211.860 311.502 215.902 305.380 220.782 300.051 C 224.341 296.164 228.448 292.275 233.096 289.308 C 236.436 287.176 240.336 285.248 244.468 284.530 C 247.724 283.965 251.047 284.003 254.212 285.139 C 255.504 285.739 256.588 286.525 257.512 287.446 L 257.928 286.648 L 277.271 286.648 L 276.609 287.846 C 273.323 293.805 269.940 299.725 266.569 305.649 C 263.301 311.391 260.097 317.159 256.847 322.908 C 253.875 328.165 250.923 333.431 247.996 338.707 C 252.161 336.285 256.096 333.592 259.776 330.650 C 264.097 327.196 267.563 323.115 270.303 318.652 C 270.677 317.921 271.071 317.197 271.482 316.479 C 275.031 310.303 279.340 304.204 284.697 299.033 C 288.748 295.123 293.397 291.329 298.610 288.556 C 302.522 286.475 306.937 284.725 311.539 284.166 C 314.932 283.753 318.614 283.806 321.756 285.144 C 324.062 286.190 325.824 287.720 327.077 289.665 C 328.408 291.730 329.047 294.002 329.184 296.344 C 329.343 299.041 328.843 301.757 328.000 304.350 C 327.002 307.418 325.276 310.267 323.155 312.879 C 320.282 316.418 316.872 319.684 312.787 322.242 C 309.453 324.330 305.711 326.113 301.683 327.004 C 298.487 327.712 295.072 327.949 291.861 327.178 C 289.682 326.655 287.911 325.686 286.576 324.280 C 285.867 326.973 285.481 329.798 285.794 332.515 C 286.075 334.957 287.218 336.934 289.948 337.980 C 292.407 339.026 295.498 338.825 298.093 338.358 C 301.920 337.669 305.538 336.278 308.864 334.549 C 312.806 332.499 316.395 329.974 319.658 327.198 C 323.102 324.267 326.035 320.969 328.377 317.335 L 329.024 316.330 L 335.277 321.882 L 334.909 322.428 C 331.216 327.897 326.791 332.964 321.583 337.457 C 316.850 341.541 311.563 345.186 305.683 348.009 C 300.581 350.458 295.054 352.238 289.213 352.827 C 283.898 353.363 278.890 352.557 274.352 350.123 C 271.899 348.807 270.026 347.003 268.674 344.822 C 267.162 342.385 266.421 339.670 266.159 336.936 C 266.136 336.698 266.116 336.459 266.101 336.221 C 265.082 337.015 264.030 337.775 262.947 338.505 C 256.191 343.058 248.958 347.065 241.372 350.542 L 241.070 351.183 C 237.736 357.197 233.913 363.017 229.483 368.484 C 225.739 373.104 221.481 377.584 216.578 381.353 C 212.762 384.286 208.310 386.870 203.337 388.119 C 198.876 389.240 194.602 388.763 190.683 386.582 C 187.909 384.929 185.840 382.769 184.957 379.968 C 184.022 377.000 184.855 374.004 186.379 371.292 C 187.856 368.664 189.910 366.379 192.469 364.442 C 195.218 362.362 198.249 360.542 201.396 358.923 C 204.928 357.108 208.610 355.502 212.377 354.071 C 216.335 352.568 220.278 351.033 224.207 349.474 L 224.894 348.461 C 222.573 349.709 220.086 350.728 217.444 351.376 C 213.634 352.312 209.943 351.956 206.598 350.118 C 202.568 347.903 201.348 343.875 201.202 339.994 C 196.139 344.377 190.451 348.409 184.127 351.406 C 183.709 352.568 183.250 353.718 182.762 354.859 C 182.190 356.200 181.553 357.521 180.859 358.820 C 178.276 364.203 175.109 369.446 171.138 374.188 C 167.901 378.056 164.064 381.741 159.515 384.526 C 155.830 386.782 151.687 388.495 147.158 389.035 C 142.792 389.557 138.762 388.640 135.065 386.582 C 132.290 384.929 130.222 382.769 129.339 379.968 C 128.404 377.001 129.239 374.004 130.761 371.292 C 132.086 368.928 133.875 366.823 136.088 365.000 C 138.447 363.058 141.099 361.376 143.887 359.908 C 147.020 358.257 150.276 356.773 153.598 355.416 C 157.095 353.987 160.619 352.605 164.163 351.262 C 165.667 348.551 166.878 345.726 167.701 342.810 C 168.428 340.232 168.840 337.534 168.617 334.880 C 168.443 332.807 167.867 330.729 166.568 328.948 C 165.471 327.444 163.960 326.457 161.940 326.028 L 160.686 325.761 L 164.528 319.923 L 165.106 319.923 C 169.115 319.923 172.869 318.867 176.326 317.187 C 179.975 315.412 183.337 313.256 186.241 310.664 C 188.656 308.509 190.856 306.030 192.213 303.268 C 192.965 301.742 193.564 299.728 192.008 298.404 C 191.147 297.671 189.215 297.524 188.076 297.493 C 185.552 297.426 182.773 298.588 180.678 299.683 C 178.980 300.569 177.399 301.690 175.950 302.849 C 174.033 304.380 172.253 306.060 170.570 307.779 C 168.442 309.952 166.574 312.352 164.886 314.786 C 162.752 317.861 160.855 321.073 159.104 324.317 L 158.499 325.441 L 154.308 321.720"/>
<path id="corel-ref-path-16" d="M 160.022 224.304 C 160.023 223.393 160.199 222.464 160.509 221.536 C 161.313 218.816 163.214 216.627 165.755 214.873 C 168.336 213.092 171.291 212.016 174.636 212.016 C 177.602 212.016 180.098 212.948 181.822 215.044 C 183.543 217.135 183.825 219.501 183.123 221.953 C 182.319 224.758 180.432 226.993 177.745 228.739 C 175.953 229.903 173.985 230.784 171.850 231.209"/>
<path id="corel-ref-path-17" d="M 133.794 228.164 C 133.346 227.827 132.930 227.436 132.552 226.991 C 130.769 224.896 130.533 222.454 131.242 219.981 C 132.025 217.249 133.951 215.054 136.493 213.300 C 139.074 211.519 142.030 210.443 145.375 210.443 C 148.341 210.443 150.838 211.375 152.561 213.471 C 154.281 215.562 154.564 217.928 153.861 220.380 C 153.548 221.476 153.072 222.489 152.451 223.420"/>
<path id="corel-ref-path-18" d="M 154.308 321.720 C 153.427 322.882 152.530 324.036 151.618 325.182 C 145.825 332.462 139.475 339.429 132.501 345.919 C 126.126 351.854 119.162 357.355 111.554 362.132 C 105.115 366.175 97.995 369.722 90.368 371.863 C 83.941 373.667 77.266 374.279 70.611 373.042 C 63.785 371.773 58.468 368.215 54.254 363.571 C 50.174 359.074 47.571 354.037 46.635 348.406 C 45.675 342.625 45.950 336.795 47.164 331.057 C 48.476 324.855 50.655 318.815 53.497 313.000 C 56.409 307.040 59.700 301.215 63.372 295.567 C 66.870 290.184 70.635 284.921 74.712 279.841 C 78.127 275.585 81.685 271.406 85.412 267.342 L 91.564 260.635 C 88.896 258.391 86.126 256.234 83.255 254.179 C 80.330 252.085 77.264 250.132 74.051 248.370 C 71.100 246.751 67.983 245.354 64.713 244.264 C 61.607 243.231 58.372 242.721 55.001 242.720 C 49.173 242.490 44.103 244.142 39.812 247.483 C 37.840 249.018 36.175 250.814 34.754 252.737 C 33.281 254.732 32.122 256.868 31.308 259.120 C 30.526 261.283 30.168 263.510 30.305 265.770 C 30.434 267.920 31.208 269.879 32.663 271.683 C 34.525 274.284 37.203 275.894 40.648 276.654 C 44.028 277.401 47.310 277.144 50.367 275.670 C 51.418 275.163 52.371 274.276 53.111 273.477 C 53.807 272.728 54.541 271.749 54.683 270.780 L 54.814 269.891 L 55.848 270.059 C 58.362 270.466 61.031 271.284 62.701 273.021 C 64.090 274.466 64.806 276.135 64.806 278.002 C 64.806 279.865 64.274 281.653 63.355 283.338 C 62.458 284.982 61.258 286.485 59.645 287.720 C 56.943 289.614 53.722 290.746 50.331 291.368 C 46.539 292.065 42.763 291.892 39.059 290.904 C 33.858 289.517 29.055 287.197 25.801 283.390 C 22.866 279.956 21.167 276.088 20.601 271.870 C 20.000 267.399 20.614 262.943 22.097 258.637 C 23.639 254.166 25.907 249.940 28.910 246.046 C 31.865 242.215 35.501 238.885 39.807 236.137 C 43.925 233.508 48.533 231.721 53.638 231.084 C 58.904 230.427 64.331 230.341 69.561 231.271 C 74.158 232.088 78.583 233.424 82.697 235.362 C 86.673 237.236 90.343 239.513 93.661 242.157 C 96.752 244.619 99.766 247.150 102.707 249.741 C 105.521 247.252 108.400 244.817 111.331 242.430 C 114.586 239.777 117.992 237.260 121.547 234.900 C 124.985 232.618 128.622 230.557 132.448 228.776 C 132.894 228.569 133.343 228.364 133.794 228.164"/>
<path id="corel-ref-path-19" d="M 152.451 223.420 C 155.010 223.365 157.564 223.619 160.022 224.304"/>
<path id="corel-ref-path-20" d="M 171.850 231.209 C 175.025 234.555 177.205 238.418 178.616 242.535 C 180.049 246.716 180.951 251.025 181.060 255.386 C 181.251 263.015 179.839 270.670 177.578 278.037 C 175.767 283.940 173.451 289.720 170.708 295.351"/>
</g>
</svg>
