<svg xmlns="http://www.w3.org/2000/svg" width="800mm" height="600mm" viewBox="0 0 800 600" data-corel-reference="true">
<title>Corel reference object: 02 gold cyzella.ai / 1</title>
<rect x="0" y="0" width="800" height="600" fill="#ffffff"/>
<g id="corel-reference-paths" fill="none" stroke="#020617" stroke-width="0.22" stroke-linejoin="round" stroke-linecap="round" vector-effect="non-scaling-stroke">
<path id="corel-ref-path-1" d="M 673.177 317.005 C 674.849 314.087 676.511 311.166 678.158 308.239 C 679.474 305.900 680.679 303.462 681.507 300.992 C 682.047 299.380 682.540 297.505 682.446 295.834 C 682.387 294.804 681.920 293.995 680.724 293.485 L 680.697 293.474 L 680.673 293.461 C 679.488 292.893 677.661 293.762 676.711 294.275 C 674.182 295.642 671.876 297.472 669.864 299.266 C 667.083 301.744 664.590 304.445 662.295 307.197 C 659.775 310.220 657.540 313.375 655.554 316.623 C 653.871 319.375 652.300 322.176 650.972 325.041 C 649.818 327.533 648.804 330.090 648.094 332.680 C 647.588 334.521 647.171 336.553 647.266 338.440 C 647.304 339.213 647.496 340.322 648.589 340.636 L 648.676 340.662 L 648.756 340.697 C 649.722 341.120 651.653 340.055 652.352 339.643 C 654.806 338.194 657.029 336.304 658.973 334.463 C 661.671 331.909 664.134 329.186 666.442 326.418 C 668.958 323.400 671.220 320.259 673.177 317.005 L 673.177 317.005 Z"/>
<path id="corel-ref-path-2" d="M 586.416 320.353 C 588.634 320.018 590.759 319.381 592.764 318.552 C 595.847 317.278 598.757 315.781 601.460 314.072 C 604.091 312.410 606.537 310.580 608.735 308.580 C 610.609 306.876 612.404 305.048 613.848 303.109 C 614.676 301.995 615.706 300.444 615.893 299.153 C 615.978 298.570 615.855 298.452 615.089 298.452 C 613.679 298.452 611.625 299.468 610.518 300.065 C 607.924 301.467 605.488 303.198 603.247 304.918 C 600.150 307.295 597.234 309.835 594.437 312.422 C 591.653 314.997 588.987 317.649 586.416 320.353 L 586.416 320.353 Z"/>
<path id="corel-ref-path-3" d="M 644.383 240.563 C 644.025 240.707 643.550 240.976 643.368 241.083 C 642.354 241.682 641.386 242.400 640.482 243.093 C 638.781 244.398 637.186 245.810 635.658 247.233 C 633.617 249.133 631.666 251.096 629.765 253.079 C 624.612 258.451 619.824 264.088 615.212 269.741 C 609.210 277.097 603.649 284.684 598.358 292.353 L 595.742 296.832 C 601.206 291.539 606.579 286.192 611.858 280.790 C 618.159 274.342 624.305 267.776 630.068 261.037 C 632.374 258.339 634.634 255.616 636.796 252.848 C 638.506 250.662 640.165 248.441 641.688 246.174 C 642.570 244.863 643.516 243.381 644.066 241.963 C 644.153 241.740 644.415 240.973 644.383 240.563 L 644.383 240.563 Z"/>
<path id="corel-ref-path-4" d="M 595.470 240.581 C 595.099 240.739 594.616 241.024 594.431 241.136 C 593.384 241.777 592.389 242.536 591.456 243.272 C 589.694 244.660 588.038 246.149 586.442 247.650 C 584.303 249.663 582.249 251.735 580.241 253.826 C 574.808 259.486 569.784 265.444 564.962 271.418 C 558.714 279.159 553.042 287.203 547.736 295.346 L 546.798 296.820 C 552.137 291.706 557.358 286.519 562.454 281.260 C 568.793 274.717 575.002 268.084 580.916 261.310 C 583.291 258.588 585.614 255.836 587.823 253.033 C 589.564 250.824 591.247 248.574 592.770 246.273 C 593.654 244.937 594.600 243.432 595.151 241.992 C 595.237 241.767 595.495 241.001 595.470 240.581 L 595.470 240.581 Z"/>
<path id="corel-ref-path-5" d="M 274.661 317.191 C 274.446 317.658 274.194 318.343 274.303 318.833 C 274.358 319.080 274.487 319.217 274.787 319.318 C 276.120 319.765 278.249 319.284 279.527 318.924 C 282.371 318.123 285.183 316.797 287.665 315.478 C 291.097 313.654 294.237 311.490 297.093 309.156 C 300.359 306.486 303.615 303.201 305.113 299.680 C 305.544 298.665 306.030 297.363 306.030 296.288 C 306.030 295.985 305.986 295.380 305.596 295.192 L 305.581 295.185 L 305.568 295.178 C 303.641 294.192 301.359 294.573 299.372 295.250 C 296.159 296.346 293.230 298.095 290.692 299.941 C 287.404 302.332 284.473 305.029 281.829 307.847 C 279.073 310.786 276.643 313.903 274.661 317.191 L 274.661 317.191 Z"/>
<path id="corel-ref-path-6" d="M 287.073 242.312 C 286.702 242.470 286.219 242.754 286.034 242.867 C 284.987 243.508 283.991 244.267 283.059 245.003 C 281.298 246.391 279.641 247.880 278.045 249.381 C 275.906 251.394 273.852 253.466 271.844 255.557 C 266.411 261.216 261.387 267.175 256.565 273.149 C 250.317 280.890 244.644 288.934 239.339 297.076 L 238.401 298.551 C 243.741 293.436 248.962 288.250 254.056 282.990 C 260.395 276.448 266.605 269.814 272.519 263.040 C 274.895 260.319 277.217 257.566 279.426 254.763 C 281.167 252.555 282.850 250.305 284.373 248.004 C 285.257 246.668 286.203 245.163 286.754 243.723 C 286.840 243.498 287.098 242.732 287.073 242.312 L 287.073 242.312 Z"/>
<path id="corel-ref-path-7" d="M 464.044 295.182 C 466.515 293.281 469.141 291.506 471.926 289.946 C 476.395 287.442 481.511 285.260 486.969 284.378 C 491.451 283.654 495.962 283.767 500.197 285.180 L 500.225 285.189 L 500.252 285.200 C 502.186 285.942 503.836 287.057 505.235 288.310 C 506.827 289.735 507.702 291.393 507.702 293.273 L 507.702 295.110 L 505.834 293.962 C 503.501 292.530 500.804 291.799 497.829 291.632 C 494.289 291.433 490.883 292.503 487.940 293.927 C 483.592 296.031 479.721 299.251 476.547 302.321 C 474.329 304.465 472.369 306.793 470.574 309.158 C 468.370 312.062 466.381 315.075 464.518 318.117 C 461.857 322.464 459.247 327.742 459.152 332.604 C 459.095 335.517 459.879 338.655 463.525 340.121 L 463.555 340.133 L 463.583 340.146 C 465.171 340.877 467.165 340.341 468.670 339.745 C 471.495 338.625 474.078 336.892 476.282 335.151 C 479.267 332.793 481.915 330.152 484.305 327.428 C 486.898 324.474 489.193 321.371 491.140 318.137 L 492.906 314.824 C 489.912 313.663 487.602 311.925 486.267 309.492 C 484.962 307.112 484.397 304.595 484.849 302.028 C 485.289 299.526 486.622 297.317 488.768 295.406 C 491.174 293.264 494.414 292.391 498.035 292.391 C 502.767 292.391 506.229 294.024 507.986 297.431 C 509.668 300.693 509.486 304.320 508.545 307.715 C 511.794 307.311 514.992 306.683 518.113 305.885 C 518.559 305.770 519.002 305.652 519.442 305.527 C 522.358 299.968 525.653 294.509 529.128 289.145 C 535.769 278.894 542.942 268.807 550.841 259.092 C 554.168 255.002 557.628 250.968 561.285 247.046 C 564.398 243.707 567.661 240.436 571.142 237.319 C 574.016 234.746 577.074 232.249 580.378 229.996 C 583.017 228.194 585.888 226.498 588.975 225.169 C 593.596 223.181 598.954 222.098 603.762 224.345 L 603.772 224.349 L 603.782 224.354 C 608.710 226.761 609.013 231.566 608.320 235.581 C 607.789 238.653 606.553 241.738 605.122 244.628 C 603.227 248.451 600.862 252.177 598.336 255.776 C 595.155 260.311 591.611 264.716 587.910 269.012 C 583.427 274.216 578.675 279.294 573.785 284.278 C 568.060 290.116 562.030 295.783 555.821 301.320 C 548.793 307.589 541.521 313.701 534.096 319.695 C 532.822 322.841 531.633 326.178 531.053 329.441 C 530.672 331.587 530.380 333.914 530.574 336.079 C 530.680 337.248 530.930 338.785 531.659 339.833 C 531.944 340.244 532.537 341.016 533.105 341.234 L 533.134 341.245 L 533.162 341.256 C 534.197 341.711 536.251 340.896 537.131 340.510 C 539.748 339.363 542.189 337.704 544.311 336.076 C 547.293 333.787 549.987 331.228 552.469 328.615 C 554.612 326.360 556.522 323.981 558.203 321.506 C 558.404 321.185 558.604 320.865 558.806 320.544 C 561.194 316.510 563.628 312.491 566.111 308.490 C 568.294 304.969 570.483 301.450 572.682 297.934 C 574.260 295.411 575.840 292.888 577.429 290.367 C 577.856 289.691 578.281 289.014 578.690 288.331 C 578.826 288.103 579.025 287.800 579.139 287.550 L 579.139 287.457 L 579.265 287.269 C 585.906 277.302 592.975 267.453 600.731 257.970 C 603.984 253.993 607.374 250.074 610.964 246.271 C 614.024 243.029 617.238 239.858 620.673 236.845 C 623.508 234.357 626.517 231.943 629.752 229.760 C 632.334 228.017 635.131 226.372 638.131 225.077 C 642.710 223.099 647.938 222.131 652.677 224.345 L 652.694 224.353 L 652.711 224.362 C 656.382 226.213 657.464 229.387 657.426 232.601 C 657.403 234.725 656.911 236.892 656.253 238.950 C 655.400 241.619 654.217 244.252 652.906 246.808 C 651.278 249.983 649.334 253.076 647.237 256.083 C 644.733 259.674 641.988 263.174 639.114 266.598 C 632.815 274.103 625.843 281.346 618.633 288.372 C 621.563 287.444 624.691 286.788 627.744 286.788 C 631.582 286.788 635.943 287.384 638.298 289.965 C 640.379 292.247 640.693 294.942 640.070 297.631 C 639.290 300.997 637.183 304.248 634.796 307.105 C 631.901 310.567 628.421 313.703 624.515 316.517 C 620.436 319.457 615.854 321.906 610.865 323.852 C 606.285 325.638 601.419 326.737 596.313 326.987 C 596.415 328.421 596.772 329.834 597.327 331.209 C 598.001 332.874 598.919 334.472 600.124 335.952 C 601.171 337.238 602.443 338.427 603.998 339.369 C 605.257 340.132 606.664 340.580 608.275 340.580 C 612.211 340.580 616.881 337.104 619.360 335.069 C 623.637 331.561 627.116 327.262 630.002 323.015 C 630.730 321.735 631.502 320.469 632.311 319.218 C 636.408 312.876 641.112 306.450 646.792 300.856 C 650.935 296.776 655.714 292.693 661.124 289.579 C 665.056 287.315 669.619 285.311 674.486 284.563 C 678.212 283.992 682.115 283.980 685.643 285.183 L 685.666 285.191 L 685.690 285.200 C 687.287 285.813 688.686 286.622 689.725 287.679 L 690.305 286.788 L 712.532 286.788 L 687.185 328.585 L 686.694 329.339 C 685.519 331.195 684.382 333.080 683.384 334.996 C 682.723 336.263 682.070 337.620 681.673 338.951 C 681.530 339.431 681.323 340.337 681.636 340.803 C 681.839 341.106 682.344 341.140 682.742 341.140 C 686.575 341.140 690.287 337.590 692.268 335.443 C 694.719 332.785 696.892 329.935 698.897 327.067 L 723.874 286.788 L 746.135 286.788 L 738.238 299.472 C 742.080 296.428 746.254 293.556 750.725 291.235 C 755.200 288.912 760.685 286.788 766.213 286.788 C 768.461 286.788 770.556 287.241 772.371 288.267 C 774.191 289.297 775.383 290.705 776.069 292.350 C 776.860 294.248 776.851 296.304 776.477 298.258 C 776.002 300.736 774.652 303.123 773.054 305.289 C 768.313 311.715 763.626 318.163 758.944 324.615 C 757.370 326.784 755.813 328.963 754.301 331.159 C 753.189 332.774 752.093 334.403 751.068 336.053 C 750.386 337.149 749.714 338.274 749.161 339.413 C 748.913 339.924 748.548 340.694 748.500 341.241 C 748.492 341.331 748.485 341.586 748.541 341.692 C 748.588 341.699 748.658 341.701 748.692 341.701 C 752.616 341.701 757.030 337.810 759.229 335.684 C 761.600 333.393 763.715 330.928 765.648 328.407 C 767.971 325.380 770.057 322.237 771.985 319.051 L 772.693 317.879 L 780.000 323.732 L 779.666 324.280 C 776.988 328.676 774.051 333.013 770.720 337.141 C 767.984 340.532 764.940 343.838 761.473 346.814 C 755.846 351.644 748.842 355.046 740.175 355.046 C 736.742 355.046 733.283 354.492 730.565 352.793 C 727.621 350.952 726.909 347.947 726.979 345.181 C 727.086 340.907 729.499 335.930 731.698 332.052 C 733.432 328.994 735.475 326.015 737.624 323.119 C 740.332 319.468 743.254 315.902 746.273 312.398 L 746.278 312.392 L 746.284 312.385 C 747.872 310.613 749.412 308.805 750.834 306.951 C 751.928 305.525 752.974 304.051 753.846 302.536 C 754.209 301.904 754.596 301.168 754.758 300.485 C 754.788 300.354 754.866 299.925 754.778 299.781 C 754.714 299.763 754.586 299.759 754.532 299.759 C 752.904 299.759 749.248 302.353 748.146 303.158 C 744.142 306.082 740.470 309.443 737.064 312.776 C 732.455 317.284 728.175 322.014 724.102 326.815 C 719.563 332.167 715.365 337.688 711.515 343.350 L 704.641 354.486 L 681.895 354.486 L 682.638 353.288 C 679.397 354.435 675.942 355.046 672.278 355.046 C 664.913 355.046 660.295 352.470 658.834 347.349 C 654.837 350.129 650.329 352.569 645.337 354.140 C 640.276 355.732 635.242 355.638 630.548 353.421 L 630.534 353.415 L 630.521 353.408 C 626.479 351.379 624.837 347.964 624.322 344.453 C 623.418 345.271 622.483 346.067 621.514 346.839 C 615.124 351.922 607.391 355.046 598.054 355.046 C 594.861 355.046 592.028 354.134 589.548 352.611 C 586.815 350.933 584.652 348.805 582.938 346.473 C 580.942 343.757 579.594 340.770 578.682 337.739 C 577.955 335.321 577.548 332.850 577.435 330.372 C 575.471 332.681 573.590 335.032 571.794 337.421 C 569.413 340.590 567.147 343.811 565.016 347.083 L 560.323 354.486 L 537.839 354.486 L 538.608 353.228 C 539.004 352.580 539.401 351.931 539.798 351.282 C 537.393 352.364 534.826 353.261 532.158 353.790 C 528.788 354.458 525.376 354.507 522.043 353.703 C 518.483 352.939 515.705 351.042 513.539 348.807 C 510.459 345.628 509.724 341.024 509.661 337.178 C 509.614 334.293 510.033 331.365 510.650 328.523 C 511.430 324.936 512.555 321.374 513.842 317.876 C 514.256 316.748 514.701 315.627 515.168 314.512 C 511.928 315.213 508.615 315.713 505.260 315.954 C 504.948 316.769 504.548 317.562 504.052 318.323 C 503.477 319.206 502.970 320.116 502.519 321.040 L 502.501 321.075 L 502.481 321.108 C 499.418 326.071 495.713 330.789 491.547 335.252 C 487.451 339.641 482.754 343.709 477.359 347.182 C 472.660 350.206 467.378 352.710 461.519 354.163 C 456.001 355.532 450.510 355.336 445.233 353.471 C 438.868 351.222 436.143 346.493 435.206 341.399 C 434.255 336.240 435.804 330.865 438.282 325.912"/>
<path id="corel-ref-path-8" d="M 438.282 325.912 C 437.151 327.237 436.013 328.560 434.869 329.878 C 430.161 335.298 425.264 340.631 420.101 345.801 C 415.910 350.000 411.118 354.104 405.657 357.355 C 401.404 359.888 396.499 361.861 391.080 362.299 C 385.570 362.744 380.663 361.009 376.480 358.367 C 370.870 354.826 366.953 350.396 364.912 345.046 C 362.851 339.641 362.296 333.978 362.923 328.379 C 363.616 322.195 365.324 316.092 367.716 310.169 C 370.204 304.008 373.132 297.953 376.523 292.050 C 379.713 286.496 383.193 281.034 387.034 275.728 C 390.174 271.390 393.426 267.066 396.922 262.891 C 402.158 256.379 407.909 250.087 413.889 243.967 C 419.448 238.278 425.622 232.972 432.372 228.111 L 397.154 236.002 L 396.688 235.452 C 394.694 233.098 392.335 230.953 389.590 229.095 C 386.870 227.253 383.782 225.820 380.426 224.767 C 376.325 223.483 372.031 222.778 367.597 222.778 C 363.312 222.778 359.121 223.316 355.082 224.409 C 351.112 225.485 347.479 227.051 344.239 229.113 C 341.080 231.123 338.513 233.522 336.615 236.313 L 336.608 236.325 L 336.599 236.336 C 334.293 239.497 332.857 242.936 332.107 246.505 C 331.335 250.179 331.783 253.758 333.497 257.239 C 335.021 259.916 337.474 261.900 340.865 263.229 C 344.150 264.519 347.539 264.838 351.079 264.011 L 351.091 264.009 L 351.104 264.007 C 354.614 263.251 357.423 261.789 359.161 259.302 C 360.829 256.917 361.437 254.393 360.981 251.709 L 360.859 250.987 L 361.758 250.757 C 365.453 249.811 369.302 249.698 372.704 251.311 C 376.218 252.976 377.386 255.833 377.386 258.879 C 377.386 262.760 376.050 266.378 372.729 269.353 C 369.713 272.053 366.023 274.030 361.652 275.214 C 357.262 276.403 352.689 276.819 348.048 276.569 C 343.460 276.323 339.114 275.346 335.222 273.445 L 335.209 273.439 L 335.196 273.432 C 328.835 270.137 324.235 265.757 322.197 260.046 C 320.261 254.616 320.102 249.088 321.571 243.573 C 323.079 237.917 325.944 232.632 330.005 227.771 C 333.839 223.179 338.666 219.188 344.722 216.291 C 350.323 213.612 356.383 211.675 362.887 210.756 C 369.096 209.878 375.389 209.767 381.636 210.470 C 387.921 211.178 393.945 212.670 399.626 214.850 C 405.188 216.985 410.333 219.641 414.994 222.794 L 481.480 209.801 L 484.003 217.789 L 482.730 217.915 C 477.550 218.429 472.748 219.946 468.353 222.082 C 463.380 224.499 458.780 227.337 454.543 230.470 C 450.048 233.795 445.909 237.392 442.127 241.203 C 438.439 244.917 434.942 248.750 431.724 252.715 C 428.965 256.114 426.270 259.551 423.721 263.046 C 421.945 265.479 420.147 267.901 418.366 270.331 C 416.010 273.545 413.791 276.844 411.569 280.113 C 408.381 284.803 405.369 289.567 402.467 294.365 C 399.193 299.776 396.176 305.279 393.370 310.842 C 390.618 316.299 388.225 321.875 386.356 327.550 C 384.798 332.277 383.682 337.217 383.591 342.102 C 383.527 345.591 384.325 349.264 387.131 352.110 C 388.851 353.855 390.881 353.996 393.376 353.063 C 397.203 351.632 400.928 348.771 403.728 346.358 C 408.436 342.303 412.649 337.740 416.524 333.201 C 421.552 327.310 426.340 321.292 430.973 315.214 C 436.269 308.264 441.447 301.260 446.534 294.219 C 451.903 286.790 457.254 279.355 462.588 271.911 C 465.287 267.927 468.193 264.004 471.124 260.117 C 474.999 254.982 479.147 249.961 483.453 245.032 C 488.159 239.647 493.181 234.426 498.479 229.374 C 503.600 224.491 509.224 219.904 515.416 215.811 C 520.897 212.189 527.007 209.111 533.752 207.067 C 539.937 205.193 546.303 204.742 552.732 206.104 C 556.556 206.913 560.101 208.396 563.315 210.159 L 563.326 210.165 L 563.337 210.171 C 564.843 211.037 566.604 212.162 567.630 213.387 C 568.283 214.168 568.917 215.155 568.779 216.110 C 568.655 216.965 568.058 217.632 567.055 218.016 C 566.188 218.349 565.258 218.451 564.315 218.270 L 564.303 218.267 L 564.291 218.265 C 562.342 217.857 559.976 218.111 558.044 218.459 C 556.895 218.667 555.745 218.879 554.603 219.108 C 553.928 219.243 553.238 219.383 552.576 219.551 C 544.289 222.072 536.830 225.960 530.193 230.493 C 522.370 235.838 515.186 241.747 508.536 247.952 C 501.069 254.922 494.015 262.156 487.299 269.562 C 480.209 277.381 473.097 285.187 466.005 293.003 C 465.348 293.728 464.694 294.454 464.044 295.182"/>
<path id="corel-ref-path-9" d="M 137.989 312.186 C 139.108 310.565 140.251 308.955 141.426 307.363 C 144.019 303.856 146.697 300.384 149.482 296.965 C 151.667 294.282 153.823 291.577 156.062 288.921 L 156.402 288.518 L 178.829 288.518 L 177.711 289.873 C 174.622 293.616 171.628 297.406 168.730 301.237 L 168.723 301.247 L 168.715 301.257 C 165.908 304.758 163.260 308.337 160.717 311.953 C 158.110 315.660 155.529 319.393 153.202 323.208 C 151.377 326.202 149.607 329.231 148.019 332.303 C 146.943 334.386 145.889 336.565 145.161 338.736 C 144.831 339.722 144.367 341.288 144.574 342.308 C 144.602 342.448 144.674 342.702 144.810 342.810 C 144.881 342.866 145.009 342.871 145.104 342.871 C 145.572 342.871 146.838 342.058 147.171 341.833 C 148.772 340.745 150.276 339.405 151.643 338.146 C 155.914 334.211 159.910 330.059 163.754 325.875 C 168.411 320.805 172.891 315.640 177.230 310.407 C 181.179 305.644 185.042 300.815 188.630 295.886 L 193.820 288.518 L 213.587 288.518 L 187.756 331.058 L 187.752 331.065 C 186.576 332.922 185.438 334.809 184.438 336.727 C 183.779 337.994 183.124 339.350 182.728 340.681 C 182.585 341.162 182.378 342.067 182.690 342.533 C 182.894 342.837 183.399 342.871 183.797 342.871 C 187.629 342.871 191.343 339.321 193.323 337.174 C 195.364 334.961 197.202 332.619 198.918 330.251 C 201.043 327.318 202.997 324.305 204.850 321.265 C 205.043 320.711 205.241 320.158 205.444 319.606 C 207.071 315.184 209.147 310.828 211.406 306.574 C 214.234 301.251 217.397 296.022 220.731 290.876 C 227.373 280.624 234.545 270.537 242.444 260.823 C 245.771 256.732 249.232 252.699 252.888 248.777 C 256.000 245.438 259.264 242.167 262.745 239.049 C 265.619 236.476 268.678 233.980 271.980 231.727 C 274.621 229.925 277.490 228.228 280.578 226.900 C 285.199 224.912 290.557 223.829 295.365 226.076 L 295.375 226.080 L 295.385 226.085 C 300.312 228.492 300.616 233.297 299.923 237.312 C 299.393 240.383 298.156 243.469 296.724 246.358 C 294.830 250.181 292.464 253.908 289.939 257.506 C 286.758 262.042 283.214 266.447 279.513 270.742 C 275.030 275.947 270.278 281.025 265.389 286.009 C 259.663 291.846 253.633 297.513 247.424 303.051 C 240.395 309.320 233.124 315.432 225.699 321.426 C 224.424 324.572 223.237 327.909 222.656 331.172 C 222.275 333.318 221.983 335.644 222.178 337.810 C 222.283 338.978 222.533 340.515 223.262 341.564 C 223.547 341.975 224.141 342.746 224.708 342.964 L 224.737 342.975 L 224.765 342.987 C 225.801 343.442 227.854 342.627 228.735 342.240 C 231.350 341.094 233.792 339.435 235.914 337.806 C 238.896 335.518 241.590 332.959 244.072 330.346 C 246.395 327.901 248.444 325.311 250.224 322.613 C 250.742 321.674 251.294 320.748 251.878 319.832 C 256.008 313.348 261.023 306.947 267.258 301.519 C 271.972 297.414 277.383 293.431 283.451 290.520 C 288.004 288.336 293.142 286.499 298.499 285.912 C 302.447 285.480 306.732 285.535 310.370 286.930 L 310.384 286.936 L 310.397 286.941 C 313.074 288.037 315.124 289.643 316.583 291.685 C 318.131 293.853 318.875 296.237 319.035 298.696 C 319.219 301.527 318.638 304.377 317.656 307.100 C 316.496 310.320 314.486 313.311 312.019 316.051 C 308.674 319.766 304.705 323.195 299.952 325.880 C 296.071 328.072 291.715 329.944 287.026 330.879 C 283.308 331.621 279.333 331.871 275.595 331.062 C 273.060 330.512 270.998 329.496 269.444 328.020 C 268.620 330.847 268.170 333.812 268.534 336.663 C 268.862 339.227 270.192 341.302 273.337 342.389 L 273.359 342.397 L 273.380 342.404 C 276.231 343.498 279.828 343.287 282.849 342.797 C 287.303 342.074 291.514 340.614 295.385 338.798 C 299.973 336.647 304.150 333.997 307.948 331.083 C 311.957 328.006 315.370 324.544 318.095 320.729 L 318.849 319.674 L 326.126 325.503 L 325.697 326.075 C 321.401 331.817 316.249 337.135 310.188 341.852 C 304.679 346.139 298.527 349.964 291.682 352.927 C 285.744 355.498 279.312 357.367 272.514 357.985 C 266.328 358.547 260.499 357.702 255.217 355.147 C 252.362 353.765 250.183 351.872 248.608 349.582 C 247.173 347.495 246.334 345.214 245.908 342.887 C 242.947 345.824 239.560 348.619 235.709 350.813 C 232.256 352.780 228.335 354.550 224.167 355.437 C 220.674 356.181 217.121 356.272 213.647 355.434 C 210.086 354.670 207.308 352.773 205.142 350.537 C 202.833 348.154 201.845 344.972 201.466 341.921 C 199.418 344.240 197.193 346.477 194.749 348.548 C 189.139 353.302 182.153 356.777 173.576 356.777 C 168.372 356.777 163.555 355.559 161.110 351.807 C 159.290 349.012 159.392 345.565 160.179 342.347 C 156.621 345.694 152.755 348.897 148.533 351.705 C 144.887 354.130 139.914 356.777 134.882 356.777 C 131.677 356.777 128.492 356.252 125.907 354.726 C 123.213 353.135 122.022 350.680 121.575 348.169 C 121.523 347.875 121.483 347.577 121.452 347.278"/>
<path id="corel-ref-path-10" d="M 121.452 347.278 C 118.538 349.892 115.285 352.263 111.667 354.322 C 106.943 357.010 101.803 359.189 96.301 360.789 C 90.835 362.378 85.147 363.360 79.321 363.738 C 73.633 364.106 67.930 363.931 62.294 363.250 L 58.515 366.796 C 60.373 366.497 62.270 366.380 64.199 366.460 C 67.122 366.581 69.962 367.138 72.431 368.377 C 74.883 369.607 76.369 371.402 77.056 373.577 C 77.895 376.233 76.812 378.995 75.264 381.370 C 73.982 383.339 72.203 385.091 70.181 386.643 C 67.933 388.369 65.390 389.839 62.651 391.075 C 59.671 392.420 56.457 393.424 53.136 394.152 C 49.464 394.957 45.626 395.258 41.814 395.119 C 38.992 395.016 36.198 394.619 33.552 393.849 C 31.306 393.194 29.151 392.301 27.353 391.066 C 25.810 390.006 24.492 388.774 23.562 387.348 C 22.763 386.121 22.225 384.786 22.225 383.404 L 22.225 382.836 L 32.186 379.361 L 32.520 380.389 C 33.204 382.487 34.633 384.141 37.163 385.141 C 39.418 386.033 41.764 386.322 44.203 385.737 L 44.243 385.727 L 44.282 385.721 C 46.764 385.272 48.835 384.329 50.483 382.834 C 51.925 381.526 53.230 380.017 53.915 378.372 C 54.392 377.229 54.496 376.030 53.749 374.943 C 53.060 373.937 51.515 373.981 50.237 374.167 L 40.251 377.393 L 35.514 372.303 L 50.078 360.584 C 41.836 357.973 35.023 353.906 30.079 348.120 C 25.047 342.233 22.010 335.772 21.014 328.773 C 20.000 321.635 21.124 314.503 23.983 307.675 C 26.938 300.618 31.858 294.461 38.891 289.372 C 43.338 286.154 48.369 283.521 53.920 281.555 C 58.753 279.843 64.030 278.720 69.388 278.859 C 73.643 278.860 78.010 279.332 81.898 280.715 C 84.726 281.721 87.675 283.018 89.893 284.721 C 92.618 286.812 98.097 291.226 96.879 294.549 C 96.380 295.910 95.102 296.706 93.292 296.904 C 91.283 297.124 88.862 296.593 86.987 296.074 C 81.791 294.636 76.389 294.896 71.156 296.090 C 64.812 297.537 59.102 300.145 54.045 303.392 C 50.654 305.569 47.709 308.157 45.111 310.893 C 42.196 313.961 39.981 317.368 38.329 320.941 C 36.523 324.847 35.719 328.928 35.719 333.067 C 35.719 337.316 37.199 341.239 40.164 344.829 C 43.970 349.439 49.111 352.799 56.044 354.255 C 62.760 355.667 69.621 355.746 76.427 354.618 C 83.535 353.440 90.103 351.195 96.094 348.029 C 101.657 345.091 106.486 341.432 109.729 336.848 L 109.734 336.841 L 109.739 336.834 C 112.965 332.471 115.071 327.778 115.802 322.789 C 116.517 317.912 116.362 313.023 115.323 308.182 C 114.267 303.252 112.346 298.482 109.690 293.923 C 107.013 289.332 103.810 284.934 100.062 280.806 L 100.048 280.791 L 100.035 280.776 C 96.471 276.477 94.229 271.743 93.177 266.713 C 92.113 261.626 92.058 256.500 93.054 251.407 C 94.043 246.347 95.991 241.481 98.873 236.867 C 101.685 232.366 105.428 228.329 110.200 224.928 C 114.959 221.537 120.517 219.103 126.685 217.546 C 133.509 215.823 140.647 215.738 147.682 216.674 C 152.363 217.297 156.783 218.545 160.768 220.540 C 164.561 222.438 167.786 224.820 170.338 227.693 C 172.916 230.595 174.607 233.821 175.504 237.262 C 176.463 240.945 176.327 244.671 175.383 248.346 C 174.115 253.282 171.665 257.902 167.618 261.886 C 164.075 265.374 159.776 268.337 154.555 270.263 C 150.478 271.768 146.006 272.372 141.503 272.312 C 136.963 272.250 132.687 271.345 129.031 269.241 L 129.012 269.229 L 128.993 269.217 C 126.854 267.874 125.481 266.043 124.615 264.051 C 123.494 261.469 124.279 258.779 125.763 256.388 L 126.181 255.714 L 127.116 255.919 C 130.174 256.589 133.329 256.828 136.482 256.456 C 139.523 256.097 142.407 255.344 145.112 254.217 C 147.862 253.072 150.218 251.537 152.191 249.673 C 154.239 247.739 155.801 245.574 156.864 243.217 C 158.419 239.769 158.918 236.178 157.576 232.639 C 156.238 229.108 152.761 226.894 148.483 225.449 C 145.750 224.526 142.909 224.164 139.938 224.398 C 136.877 224.639 133.959 225.309 131.208 226.364 C 128.267 227.493 125.603 228.978 123.206 230.701 C 120.835 232.408 118.734 234.328 117.084 236.482 L 117.076 236.492 L 117.067 236.502 C 112.938 241.574 110.412 247.248 111.632 253.269 C 112.823 259.150 115.792 264.674 119.757 269.762 C 124.273 275.562 128.172 281.630 131.399 287.916 C 134.503 293.965 136.629 300.262 137.556 306.728 C 137.817 308.549 137.960 310.369 137.989 312.186"/>
</g>
</svg>
