<svg xmlns="http://www.w3.org/2000/svg" width="800mm" height="600mm" viewBox="0 0 800 600" data-corel-reference="true">
<title>Corel reference object: 30 mart gold 02.ai / 21</title>
<rect x="0" y="0" width="800" height="600" fill="#ffffff"/>
<g id="corel-reference-paths" fill="none" stroke="#020617" stroke-width="0.22" stroke-linejoin="round" stroke-linecap="round" vector-effect="non-scaling-stroke">
<path id="corel-ref-path-1" d="M 688.248 311.761 C 688.064 312.208 687.847 312.861 687.941 313.329 C 687.988 313.564 688.099 313.696 688.354 313.792 C 689.494 314.219 691.313 313.759 692.407 313.416 C 694.838 312.652 697.240 311.386 699.362 310.127 C 702.296 308.386 704.981 306.321 707.421 304.093 C 710.213 301.545 712.996 298.410 714.276 295.049 C 714.645 294.081 715.059 292.838 715.059 291.812 C 715.059 291.522 715.023 290.945 714.689 290.766 L 714.678 290.760 L 714.665 290.753 C 713.018 289.812 711.067 290.175 709.369 290.821 C 706.623 291.867 704.119 293.537 701.949 295.298 C 699.139 297.580 696.634 300.154 694.375 302.844 C 692.018 305.649 689.941 308.623 688.248 311.761 L 688.248 311.761 Z"/>
<path id="corel-ref-path-2" d="M 559.551 313.237 C 560.981 310.452 562.402 307.664 563.810 304.870 C 564.934 302.638 565.965 300.311 566.672 297.953 C 567.133 296.416 567.555 294.625 567.474 293.030 C 567.425 292.047 567.026 291.275 566.003 290.788 L 565.981 290.778 L 565.960 290.766 C 564.947 290.224 563.386 291.053 562.573 291.543 C 560.411 292.847 558.440 294.594 556.720 296.306 C 554.344 298.671 552.212 301.249 550.250 303.875 C 548.096 306.761 546.186 309.771 544.488 312.871 C 543.049 315.498 541.707 318.171 540.572 320.906 C 539.586 323.284 538.719 325.724 538.111 328.196 C 537.680 329.953 537.323 331.893 537.404 333.694 C 537.437 334.431 537.600 335.489 538.535 335.790 L 538.609 335.814 L 538.677 335.847 C 539.503 336.252 541.154 335.235 541.751 334.841 C 543.849 333.458 545.749 331.655 547.412 329.898 C 549.718 327.461 551.822 324.862 553.795 322.220 C 555.946 319.340 557.879 316.341 559.551 313.237 L 559.551 313.237 Z"/>
<path id="corel-ref-path-3" d="M 432.067 237.922 C 431.750 238.073 431.337 238.345 431.179 238.453 C 430.284 239.063 429.433 239.789 428.636 240.491 C 427.131 241.816 425.714 243.237 424.351 244.669 C 422.522 246.590 420.766 248.568 419.050 250.563 C 414.406 255.964 410.111 261.651 405.989 267.353 C 400.649 274.741 395.800 282.418 391.266 290.190 L 390.464 291.597 C 395.028 286.716 399.490 281.766 403.846 276.747 C 409.264 270.502 414.572 264.171 419.627 257.706 C 421.657 255.109 423.643 252.481 425.531 249.806 C 427.019 247.699 428.458 245.551 429.760 243.355 C 430.514 242.080 431.324 240.643 431.795 239.269 C 431.869 239.055 432.089 238.324 432.067 237.922 L 432.067 237.922 Z"/>
<path id="corel-ref-path-4" d="M 245.188 357.011 C 240.895 358.925 236.660 360.983 232.626 363.252 C 229.483 365.020 225.976 367.529 224.693 370.670 C 224.208 371.857 223.905 373.306 225.207 374.187 C 226.303 374.930 227.569 374.632 228.708 374.106 C 230.750 373.164 232.619 371.645 234.166 370.182 C 236.450 368.022 238.514 365.640 240.427 363.233 C 242.056 361.182 243.641 359.107 245.188 357.011 L 245.188 357.011 Z"/>
<path id="corel-ref-path-5" d="M 272.176 310.849 C 273.687 308.097 275.180 305.327 276.523 302.511 C 277.607 300.242 278.614 297.916 279.400 295.557 C 279.906 294.041 280.380 292.241 280.300 290.655 C 280.250 289.672 279.851 288.900 278.828 288.414 L 278.806 288.403 L 278.785 288.392 C 277.772 287.849 276.210 288.679 275.399 289.168 C 273.236 290.473 271.266 292.220 269.545 293.931 C 267.169 296.296 265.038 298.874 263.076 301.501 C 260.921 304.386 259.011 307.397 257.313 310.496 C 255.875 313.123 254.532 315.797 253.398 318.531 C 252.405 320.926 251.511 323.368 250.828 325.841 C 250.353 327.559 249.964 329.516 250.123 331.287 C 250.182 331.939 250.372 333.128 251.194 333.430 L 251.246 333.449 L 251.295 333.473 C 252.130 333.882 253.871 332.849 254.487 332.458 C 256.632 331.096 258.561 329.295 260.237 327.524 C 262.527 325.103 264.594 322.503 266.509 319.856 C 268.609 316.954 270.480 313.938 272.176 310.849 L 272.176 310.849 Z"/>
<path id="corel-ref-path-6" d="M 525.974 313.051 C 529.152 307.758 532.757 302.488 536.999 297.824 C 540.540 293.929 544.625 290.033 549.249 287.061 C 552.611 284.901 556.511 282.987 560.671 282.274 C 563.856 281.728 567.192 281.716 570.207 282.865 L 570.228 282.873 L 570.248 282.881 C 571.613 283.466 572.809 284.239 573.697 285.247 L 574.193 284.396 L 593.191 284.396 L 571.525 324.288 L 571.106 325.007 C 570.102 326.779 569.130 328.578 568.276 330.407 C 567.712 331.616 567.153 332.910 566.814 334.182 C 566.692 334.639 566.515 335.505 566.782 335.948 C 566.956 336.239 567.388 336.271 567.728 336.271 C 571.004 336.271 574.178 332.883 575.871 330.833 C 578.488 327.664 580.757 324.191 582.822 320.739 L 602.884 284.396 L 622.126 284.396 L 618.755 290.414 C 620.852 288.888 623.128 287.523 625.547 286.529 C 629.028 285.100 632.721 284.396 636.581 284.396 C 639.293 284.396 641.570 285.265 643.195 287.144 C 644.453 288.600 644.997 290.312 645.102 292.070 C 650.200 288.326 656.971 284.396 663.623 284.396 C 665.543 284.396 667.335 284.829 668.886 285.809 C 670.442 286.791 671.460 288.135 672.047 289.706 C 672.723 291.517 672.715 293.479 672.396 295.344 C 671.990 297.709 670.836 299.987 669.470 302.054 C 665.417 308.188 661.411 314.341 657.409 320.499 C 656.063 322.570 654.733 324.649 653.441 326.744 C 652.490 328.287 651.553 329.841 650.677 331.415 C 650.094 332.461 649.520 333.536 649.046 334.622 C 648.834 335.110 648.522 335.846 648.482 336.367 C 648.476 336.453 648.469 336.696 648.517 336.797 C 648.557 336.804 648.617 336.806 648.645 336.806 C 651.992 336.806 655.693 333.104 657.543 331.069 C 661.353 326.881 664.498 322.029 667.199 317.262 C 667.688 316.255 668.214 315.261 668.772 314.282 C 672.302 308.095 676.589 301.985 681.919 296.804 C 685.948 292.886 690.574 289.086 695.760 286.307 C 699.652 284.223 704.044 282.470 708.623 281.909 C 711.998 281.496 715.660 281.549 718.770 282.881 L 718.782 282.886 L 718.793 282.891 C 721.081 283.937 722.834 285.471 724.080 287.418 C 725.404 289.488 726.039 291.763 726.177 294.110 C 726.334 296.811 725.837 299.532 724.998 302.131 C 724.006 305.205 722.288 308.058 720.179 310.674 C 717.321 314.220 713.928 317.492 709.864 320.054 C 706.547 322.146 702.825 323.933 698.817 324.826 C 695.638 325.534 692.241 325.772 689.045 325.000 C 686.878 324.476 685.116 323.506 683.788 322.097 C 683.083 324.795 682.699 327.625 683.010 330.346 C 683.290 332.793 684.427 334.774 687.116 335.810 L 687.134 335.818 L 687.152 335.826 C 689.589 336.869 692.664 336.669 695.246 336.201 C 699.053 335.510 702.652 334.117 705.961 332.384 C 709.883 330.330 713.454 327.801 716.699 325.020 C 719.586 322.547 722.121 319.803 724.243 316.816 L 737.792 292.142 L 728.639 292.142 L 732.892 284.396 L 742.045 284.396 L 758.410 254.570 L 780.000 249.945 L 761.268 284.396 L 775.754 284.396 L 772.032 292.142 L 757.024 292.142 L 739.188 324.997 L 739.184 325.003 C 737.920 327.234 735.875 331.261 736.554 333.806 C 736.907 335.132 737.591 336.271 739.340 336.271 C 740.938 336.271 743.010 335.464 744.402 334.850 C 746.938 333.730 749.319 332.242 751.502 330.674 C 754.251 328.701 756.720 326.417 758.958 324.020 C 761.487 321.311 763.579 318.334 765.282 315.189 L 765.888 314.071 L 772.136 319.658 L 771.847 320.182 C 769.434 324.546 766.511 328.697 762.989 332.470 C 759.829 335.854 756.294 339.001 752.327 341.695 C 748.888 344.031 745.129 346.073 741.068 347.517 C 737.695 348.717 734.067 349.543 730.395 349.543 C 727.611 349.543 724.935 349.028 722.517 347.824 C 720.154 346.648 718.462 344.947 717.422 342.782 C 716.590 341.051 716.283 339.144 716.275 337.256 C 712.181 340.554 707.696 343.500 702.796 345.869 C 697.720 348.323 692.222 350.106 686.412 350.695 C 681.124 351.232 676.142 350.426 671.627 347.987 C 669.187 346.668 667.323 344.861 665.977 342.676 C 664.895 340.918 664.209 339.015 663.813 337.066 C 662.457 338.671 661.013 340.223 659.463 341.690 C 654.668 346.226 648.697 349.543 641.365 349.543 C 638.431 349.543 635.474 349.014 633.152 347.392 C 630.636 345.635 630.027 342.767 630.086 340.128 C 630.177 336.048 632.240 331.298 634.120 327.597 C 635.602 324.679 637.348 321.835 639.185 319.071 C 641.500 315.587 643.998 312.183 646.578 308.840 L 646.583 308.834 L 646.588 308.827 C 647.941 307.141 649.250 305.417 650.448 303.646 C 651.363 302.292 652.234 300.886 652.939 299.442 C 653.236 298.834 653.554 298.117 653.669 297.462 C 653.691 297.340 653.742 296.925 653.657 296.802 C 653.604 296.781 653.478 296.777 653.430 296.777 C 652.603 296.777 651.116 297.705 650.494 298.116 C 648.720 299.291 647.060 300.664 645.505 302.045 C 643.470 303.854 641.606 305.821 639.868 307.843 C 637.896 310.137 636.123 312.554 634.532 315.055 C 632.542 318.181 630.664 321.368 628.830 324.561 C 626.746 328.192 624.683 331.832 622.704 335.505 C 620.393 339.797 618.201 344.137 616.061 348.493 L 615.808 349.008 L 596.537 349.008 L 597.212 347.802 C 600.200 342.457 603.182 337.111 606.155 331.760 L 606.160 331.753 L 606.164 331.745 C 607.414 329.602 608.623 327.441 609.790 325.264 C 610.946 323.109 612.126 320.963 613.335 318.830 C 614.412 316.930 615.487 315.030 616.558 313.127 C 617.358 311.708 618.180 310.285 619.073 308.907 C 620.160 307.095 621.212 305.247 622.126 303.365 C 622.725 302.136 623.323 300.797 623.660 299.496 C 623.791 298.990 623.986 298.062 623.774 297.558 C 623.682 297.339 623.534 297.312 623.268 297.312 C 621.753 297.312 619.059 300.028 618.204 300.924 C 616.814 302.380 615.517 303.908 614.275 305.458 C 612.735 307.381 611.273 309.354 609.859 311.346 C 606.368 316.265 603.078 321.298 599.900 326.370 C 596.275 332.157 592.785 338.004 589.412 343.902 L 587.547 347.162 L 587.547 347.043 L 586.443 349.008 L 567.216 349.008 L 567.907 347.756 C 565.063 348.920 562.021 349.543 558.784 349.543 C 552.488 349.543 548.541 347.084 547.292 342.196 C 543.875 344.850 540.023 347.178 535.754 348.678 C 531.429 350.197 527.126 350.108 523.114 347.992 L 523.102 347.986 L 523.091 347.979 C 519.401 345.911 518.046 342.322 517.712 338.716"/>
<path id="corel-ref-path-7" d="M 517.712 338.716 C 516.649 340.197 515.501 341.637 514.282 343.036 C 511.120 346.665 507.429 349.901 503.153 352.571 C 499.014 355.156 494.511 357.228 489.704 358.742 C 484.891 360.259 479.892 361.194 474.781 361.554 C 469.556 361.922 464.337 361.597 459.213 360.648 C 450.351 359.173 442.548 355.823 436.712 349.846 C 431.293 344.298 427.831 337.950 426.408 330.819 C 424.959 323.555 425.606 316.303 427.993 309.230 C 430.451 301.946 434.827 295.614 441.263 290.402 C 445.061 287.325 449.365 284.817 454.111 282.940 C 458.242 281.306 462.752 280.234 467.332 280.367 C 470.969 280.369 474.702 280.818 478.025 282.138 C 480.443 283.098 482.963 284.337 484.859 285.961 C 487.188 287.958 491.872 292.170 490.831 295.342 C 490.405 296.641 489.312 297.400 487.765 297.589 C 486.048 297.799 483.978 297.293 482.375 296.797 C 477.934 295.425 473.316 295.673 468.843 296.812 C 463.420 298.194 458.540 300.683 454.217 303.782 C 451.319 305.859 448.802 308.329 446.580 310.941 C 444.089 313.868 442.196 317.121 440.784 320.531 C 439.240 324.259 438.552 328.153 438.552 332.104 C 438.552 336.159 439.818 339.903 442.351 343.329 C 445.605 347.728 450.000 350.936 455.926 352.326 C 461.667 353.673 467.531 353.748 473.348 352.672 C 479.425 351.547 485.039 349.404 490.160 346.383 C 494.915 343.579 499.043 340.087 501.814 335.712 L 501.819 335.705 L 501.823 335.698 C 504.581 331.535 506.381 327.055 507.006 322.294 C 507.617 317.639 507.484 312.974 506.596 308.353 C 505.693 303.648 504.052 299.095 501.781 294.745 C 499.493 290.362 496.755 286.165 493.551 282.226 L 493.540 282.211 L 493.528 282.196 C 490.482 278.094 488.566 273.575 487.666 268.776 C 486.757 263.920 486.710 259.028 487.561 254.167 C 488.406 249.337 490.072 244.694 492.535 240.290 C 494.938 235.994 498.138 232.142 502.217 228.896 C 506.285 225.659 511.036 223.336 516.308 221.850 C 522.141 220.205 528.243 220.124 534.256 221.018 C 538.256 221.612 542.035 222.803 545.442 224.707 C 548.683 226.519 551.440 228.792 553.621 231.534 C 555.825 234.304 557.271 237.382 558.037 240.668 C 558.857 244.182 558.741 247.739 557.934 251.245 C 556.850 255.956 554.755 260.366 551.296 264.168 C 548.268 267.497 544.593 270.325 540.130 272.164 C 536.646 273.599 532.823 274.176 528.974 274.119 C 525.093 274.060 521.440 273.196 518.313 271.187 L 518.297 271.176 L 518.281 271.165 C 516.452 269.883 515.278 268.136 514.539 266.234 C 513.580 263.771 514.251 261.203 515.519 258.921 L 515.877 258.277 L 516.677 258.473 C 519.291 259.113 521.987 259.341 524.682 258.985 C 527.282 258.642 529.747 257.925 532.059 256.849 C 534.410 255.756 536.423 254.292 538.109 252.513 C 539.860 250.666 541.195 248.600 542.104 246.351 C 543.433 243.061 543.860 239.632 542.713 236.254 C 541.569 232.885 538.597 230.771 534.940 229.393 C 532.604 228.512 530.176 228.166 527.636 228.390 C 525.020 228.620 522.525 229.259 520.174 230.266 C 517.660 231.344 515.383 232.760 513.335 234.405 C 511.308 236.034 509.512 237.867 508.101 239.923 L 508.094 239.932 L 508.087 239.942 C 504.558 244.782 502.397 250.198 503.441 255.945 C 504.460 261.557 506.998 266.829 510.385 271.685 C 514.247 277.220 517.580 283.012 520.338 289.011 C 522.991 294.784 524.808 300.794 525.600 306.965 C 525.861 308.996 525.984 311.026 525.974 313.051"/>
<path id="corel-ref-path-8" d="M 321.251 282.022 C 320.232 280.205 320.178 278.193 320.756 276.160 C 321.535 273.423 323.450 271.224 325.981 269.467 C 328.549 267.683 331.489 266.604 334.816 266.604 C 337.767 266.604 340.250 267.538 341.966 269.638 C 343.677 271.732 343.959 274.103 343.260 276.559 C 342.592 278.904 341.198 280.865 339.205 282.480"/>
<path id="corel-ref-path-9" d="M 352.291 282.127 C 350.666 280.059 350.580 277.668 351.369 275.292 C 352.168 272.567 354.060 270.373 356.588 268.617 C 359.155 266.833 362.096 265.754 365.424 265.754 C 368.374 265.754 370.858 266.688 372.573 268.788 C 374.284 270.883 374.566 273.253 373.867 275.709 C 373.139 278.266 371.521 280.350 369.220 282.022"/>
<path id="corel-ref-path-10" d="M 120.997 309.200 C 123.835 304.766 127.009 300.448 130.636 296.514 C 134.515 292.306 138.967 288.208 144.037 285.036 C 147.856 282.647 152.229 280.564 156.895 279.722 C 160.726 279.032 164.581 279.139 168.202 280.488 L 168.226 280.497 L 168.249 280.507 C 169.902 281.215 171.311 282.279 172.508 283.475 C 173.869 284.835 174.617 286.417 174.617 288.212 L 174.617 289.964 L 173.020 288.870 C 171.025 287.502 168.721 286.805 166.178 286.646 C 163.151 286.456 160.241 287.476 157.725 288.836 C 154.008 290.844 150.699 293.917 147.986 296.847 C 146.091 298.893 144.415 301.116 142.881 303.371 C 140.997 306.144 139.297 309.020 137.705 311.923 C 135.429 316.071 133.199 321.109 133.118 325.749 C 133.070 328.530 133.739 331.524 136.855 332.923 L 136.881 332.935 L 136.905 332.947 C 138.262 333.645 139.967 333.133 141.253 332.564 C 143.668 331.496 145.876 329.842 147.759 328.180 C 150.311 325.929 152.574 323.410 154.618 320.810 C 156.833 317.990 158.796 315.028 160.460 311.941 L 161.969 308.780 C 159.410 307.672 157.436 306.014 156.295 303.691 C 155.179 301.420 154.697 299.017 155.083 296.567 C 155.459 294.180 156.597 292.071 158.433 290.247 C 160.489 288.203 163.258 287.370 166.353 287.370 C 170.399 287.370 173.358 288.929 174.860 292.181 C 176.298 295.294 176.141 298.755 175.338 301.995 C 178.114 301.610 180.848 301.010 183.516 300.248 C 184.721 299.904 185.914 299.512 187.064 299.047 L 196.519 282.022 L 215.548 282.022 L 208.798 294.128 C 212.081 291.223 215.649 288.482 219.471 286.267 C 223.297 284.048 227.985 282.022 232.710 282.022 C 234.631 282.022 236.422 282.454 237.973 283.434 C 239.529 284.416 240.548 285.761 241.134 287.332 C 241.811 289.143 241.803 291.105 241.483 292.970 C 241.077 295.334 239.923 297.613 238.558 299.679 C 234.505 305.813 230.498 311.967 226.496 318.124 C 225.151 320.195 223.820 322.274 222.528 324.369 C 221.577 325.912 220.641 327.466 219.764 329.041 C 219.181 330.087 218.607 331.161 218.133 332.248 C 217.922 332.735 217.610 333.471 217.570 333.993 C 217.563 334.078 217.556 334.321 217.605 334.422 C 217.645 334.430 217.704 334.431 217.733 334.431 C 221.087 334.431 224.860 330.717 226.740 328.689 C 230.062 325.104 232.853 321.033 235.284 316.964 C 235.961 315.618 236.686 314.287 237.446 312.973 C 240.948 306.921 244.970 300.788 249.824 295.449 C 253.365 291.554 257.450 287.659 262.074 284.686 C 265.398 282.550 269.278 280.619 273.388 279.900 C 276.628 279.333 279.933 279.372 283.015 280.483 L 283.060 280.500 L 283.104 280.521 C 284.367 281.111 285.446 281.898 286.365 282.820 L 286.779 282.022 L 306.022 282.022 L 305.365 283.222 C 302.095 289.191 298.728 295.123 295.375 301.057 C 292.125 306.810 288.937 312.588 285.703 318.347 C 282.746 323.614 279.810 328.890 276.898 334.176 C 281.041 331.749 284.956 329.051 288.617 326.103 C 292.375 323.079 295.492 319.566 298.041 315.731 C 298.296 315.285 298.553 314.841 298.812 314.397 C 301.628 309.570 304.466 304.702 307.572 300.008 C 309.788 296.659 312.079 293.347 314.459 290.083 C 316.326 287.523 318.169 284.941 320.083 282.407 L 320.374 282.022 L 321.251 282.022"/>
<path id="corel-ref-path-11" d="M 339.205 282.480 L 338.588 283.315 C 335.947 286.888 333.388 290.504 330.911 294.161 L 330.904 294.171 L 330.897 294.179 C 328.499 297.520 326.235 300.936 324.061 304.388 C 321.833 307.927 319.627 311.488 317.638 315.130 C 316.078 317.987 314.565 320.879 313.207 323.811 C 312.287 325.797 311.387 327.878 310.765 329.950 C 310.483 330.890 310.086 332.386 310.263 333.359 C 310.287 333.492 310.349 333.735 310.465 333.838 C 310.525 333.892 310.634 333.896 310.716 333.896 C 311.116 333.896 312.198 333.120 312.483 332.905 C 313.851 331.867 315.137 330.588 316.305 329.387 C 319.956 325.632 323.372 321.669 326.658 317.675 C 330.639 312.837 334.468 307.907 338.176 302.912 C 341.551 298.367 344.854 293.757 347.921 289.054 L 352.291 282.127"/>
<path id="corel-ref-path-12" d="M 369.220 282.022 L 369.254 282.022 L 347.173 322.622 L 347.170 322.628 C 346.165 324.401 345.193 326.202 344.338 328.033 C 343.774 329.242 343.215 330.536 342.876 331.807 C 342.753 332.265 342.577 333.129 342.844 333.574 C 343.017 333.864 343.449 333.896 343.790 333.896 C 347.065 333.896 350.240 330.508 351.932 328.459 C 353.676 326.347 355.248 324.112 356.714 321.852 C 358.530 319.053 360.202 316.177 361.785 313.276 C 361.951 312.747 362.120 312.220 362.294 311.693 C 363.684 307.471 365.458 303.314 367.389 299.254 C 369.806 294.174 372.510 289.183 375.360 284.272 C 381.037 274.488 387.168 264.861 393.920 255.590 C 396.763 251.686 399.722 247.836 402.847 244.093 C 405.507 240.906 408.297 237.784 411.273 234.809 C 413.729 232.353 416.343 229.970 419.167 227.820 C 421.423 226.101 423.876 224.481 426.515 223.213 C 430.465 221.316 435.045 220.282 439.155 222.427 L 439.164 222.431 L 439.172 222.436 C 443.383 224.733 443.643 229.318 443.051 233.150 C 442.598 236.082 441.541 239.026 440.317 241.784 C 438.698 245.433 436.676 248.989 434.517 252.424 C 431.797 256.753 428.768 260.957 425.605 265.057 C 421.773 270.025 417.711 274.870 413.532 279.627 C 408.638 285.198 403.483 290.607 398.176 295.892 C 392.168 301.875 385.953 307.708 379.607 313.429 C 378.517 316.432 377.501 319.617 377.006 322.731 C 376.680 324.779 376.430 326.998 376.596 329.065 C 376.686 330.181 376.900 331.648 377.523 332.649 C 377.767 333.041 378.274 333.777 378.760 333.985 L 378.784 333.996 L 378.808 334.008 C 379.693 334.441 381.449 333.663 382.201 333.295 C 384.437 332.199 386.524 330.617 388.338 329.063 C 390.887 326.879 393.190 324.436 395.311 321.943 C 397.743 319.084 399.821 316.022 401.559 312.814 L 402.164 311.696 L 408.416 317.288 L 408.119 317.815 C 405.305 322.793 402.114 327.754 398.332 332.246 C 395.473 335.643 392.104 338.969 388.163 341.476 C 385.211 343.353 381.860 345.042 378.297 345.890 C 375.311 346.599 372.274 346.686 369.304 345.886 C 366.261 345.157 363.886 343.347 362.035 341.213 C 360.061 338.938 359.216 335.903 358.893 332.990 C 357.142 335.203 355.240 337.339 353.151 339.315 C 348.356 343.852 342.385 347.168 335.053 347.168 C 330.605 347.168 326.487 346.007 324.398 342.424 C 322.841 339.757 322.929 336.467 323.601 333.397 C 320.560 336.591 317.256 339.647 313.647 342.327 C 310.530 344.642 306.279 347.168 301.979 347.168 C 299.238 347.168 296.516 346.667 294.308 345.211 C 292.004 343.692 290.986 341.349 290.605 338.952 C 290.388 337.591 290.399 336.183 290.547 334.795 C 284.178 339.018 277.397 342.759 270.309 346.032 L 270.014 346.662 L 270.001 346.685 C 266.691 352.699 262.888 358.530 258.481 364.006 C 254.756 368.635 250.520 373.123 245.642 376.899 C 241.846 379.837 237.416 382.426 232.468 383.678 C 228.030 384.800 223.779 384.322 219.900 382.149 L 219.886 382.141 L 219.874 382.134 C 217.120 380.481 215.062 378.317 214.183 375.512 C 213.253 372.538 214.082 369.536 215.599 366.819 C 217.068 364.187 219.111 361.897 221.657 359.957 C 224.392 357.874 227.408 356.050 230.538 354.429 C 234.052 352.610 237.714 351.002 241.462 349.568 C 245.400 348.061 249.323 346.524 253.231 344.962 L 253.915 343.947 C 251.606 345.197 249.131 346.218 246.504 346.868 C 242.714 347.804 239.041 347.449 235.713 345.607 C 232.375 343.760 230.977 340.657 230.518 337.439 C 229.915 338.075 229.296 338.700 228.659 339.311 C 223.849 343.921 217.861 347.168 210.453 347.168 C 207.519 347.168 204.562 346.639 202.239 345.018 C 199.723 343.261 199.114 340.393 199.173 337.753 C 199.265 333.673 201.327 328.924 203.207 325.222 C 204.689 322.304 206.436 319.461 208.273 316.696 C 210.587 313.212 213.085 309.808 215.665 306.466 L 215.670 306.459 L 215.675 306.452 C 217.033 304.761 218.349 303.036 219.565 301.266 C 220.500 299.905 221.394 298.498 222.139 297.052 C 222.450 296.449 222.779 295.747 222.918 295.095 C 222.945 294.969 223.010 294.561 222.936 294.423 C 222.881 294.406 222.770 294.402 222.725 294.402 C 221.334 294.402 218.210 296.878 217.266 297.647 C 213.844 300.436 210.706 303.645 207.794 306.826 C 203.855 311.128 200.196 315.643 196.715 320.224 C 192.834 325.332 189.246 330.601 185.955 336.005 L 180.081 346.633 L 160.637 346.633 L 181.958 308.242 C 178.883 309.038 175.729 309.602 172.530 309.858 C 172.263 310.636 171.921 311.393 171.497 312.119 C 171.005 312.962 170.572 313.831 170.186 314.713 L 170.172 314.745 L 170.154 314.777 C 167.536 319.514 164.368 324.017 160.808 328.277 C 157.308 332.466 153.292 336.347 148.680 339.663 C 144.664 342.548 140.149 344.939 135.141 346.325 C 130.424 347.631 125.731 347.445 121.220 345.665 C 115.780 343.519 113.451 339.005 112.649 334.144 C 112.639 334.088 112.631 334.031 112.622 333.975"/>
<path id="corel-ref-path-13" d="M 112.622 333.975 C 111.596 335.391 110.492 336.770 109.323 338.112 C 106.161 341.740 102.469 344.976 98.194 347.647 C 94.055 350.232 89.552 352.303 84.745 353.818 C 79.932 355.334 74.932 356.270 69.821 356.630 C 64.596 356.997 59.378 356.673 54.255 355.724 C 45.392 354.249 37.590 350.898 31.753 344.922 C 26.334 339.374 22.871 333.026 21.449 325.895 C 20.000 318.631 20.646 311.379 23.033 304.306 C 25.492 297.023 29.868 290.690 36.303 285.478 C 40.102 282.401 44.406 279.893 49.152 278.016 C 53.283 276.382 57.793 275.310 62.373 275.443 C 66.009 275.444 69.743 275.895 73.066 277.215 C 75.483 278.174 78.004 279.413 79.900 281.037 C 82.229 283.033 86.913 287.246 85.872 290.418 C 85.446 291.716 84.353 292.476 82.806 292.665 C 81.088 292.875 79.019 292.368 77.416 291.873 C 72.975 290.500 68.357 290.749 63.884 291.888 C 58.461 293.270 53.581 295.759 49.258 298.857 C 46.360 300.934 43.843 303.405 41.621 306.016 C 39.129 308.944 37.237 312.196 35.825 315.606 C 34.281 319.334 33.593 323.229 33.593 327.179 C 33.593 331.235 34.859 334.979 37.393 338.405 C 40.646 342.804 45.041 346.011 50.967 347.402 C 56.708 348.749 62.572 348.823 68.389 347.747 C 74.466 346.623 80.080 344.480 85.201 341.459 C 89.956 338.654 94.084 335.162 96.855 330.788 L 96.860 330.781 L 96.864 330.774 C 99.622 326.610 101.422 322.131 102.046 317.369 C 102.658 312.715 102.525 308.050 101.637 303.428 C 100.734 298.724 99.093 294.171 96.822 289.821 C 94.534 285.438 91.796 281.241 88.592 277.301 L 88.580 277.287 L 88.569 277.272 C 85.523 273.170 83.606 268.651 82.707 263.850 C 81.798 258.996 81.751 254.103 82.602 249.242 C 83.447 244.413 85.112 239.770 87.576 235.366 C 89.980 231.070 93.178 227.218 97.258 223.971 C 101.325 220.735 106.077 218.412 111.348 216.925 C 117.182 215.281 123.284 215.200 129.297 216.094 C 133.298 216.688 137.076 217.879 140.483 219.783 C 143.724 221.594 146.481 223.868 148.662 226.610 C 150.866 229.380 152.312 232.458 153.079 235.744 C 153.899 239.258 153.781 242.814 152.974 246.321 C 151.891 251.032 149.797 255.441 146.337 259.244 C 143.308 262.573 139.634 265.401 135.171 267.239 C 131.687 268.675 127.864 269.252 124.015 269.195 C 120.134 269.136 116.480 268.272 113.354 266.263 L 113.337 266.253 L 113.322 266.241 C 111.493 264.959 110.319 263.211 109.579 261.310 C 108.621 258.846 109.292 256.279 110.561 253.996 L 110.918 253.353 L 111.718 253.549 C 114.331 254.189 117.027 254.416 119.723 254.061 C 122.322 253.718 124.788 253.000 127.100 251.925 C 129.450 250.831 131.464 249.367 133.150 247.588 C 134.901 245.742 136.236 243.676 137.145 241.427 C 138.474 238.136 138.900 234.709 137.754 231.331 C 136.610 227.961 133.638 225.847 129.982 224.468 C 127.645 223.588 125.217 223.242 122.677 223.465 C 120.060 223.696 117.567 224.335 115.215 225.342 C 112.701 226.420 110.424 227.836 108.375 229.481 C 106.348 231.110 104.553 232.943 103.142 234.999 L 103.136 235.008 L 103.128 235.018 C 99.599 239.857 97.438 245.273 98.482 251.020 C 99.501 256.633 102.039 261.905 105.427 266.762 C 109.287 272.296 112.620 278.088 115.378 284.087 C 118.032 289.860 119.849 295.870 120.641 302.041 C 120.948 304.430 121.064 306.818 120.997 309.200"/>
</g>
</svg>
