<svg xmlns="http://www.w3.org/2000/svg" width="800mm" height="600mm" viewBox="0 0 800 600" data-corel-reference="true">
<title>Corel reference object: 4 mayıs gold 03.ai / 15</title>
<rect x="0" y="0" width="800" height="600" fill="#ffffff"/>
<g id="corel-reference-paths" fill="none" stroke="#020617" stroke-width="0.22" stroke-linejoin="round" stroke-linecap="round" vector-effect="non-scaling-stroke">
<path id="corel-ref-path-1" d="M 769.958 239.928 C 769.673 240.027 769.154 240.418 768.990 240.548 C 768.164 241.203 767.374 242.005 766.642 242.772 C 765.304 244.176 764.050 245.693 762.847 247.224 C 761.245 249.264 759.712 251.371 758.219 253.500 C 754.174 259.264 750.416 265.312 746.796 271.377 C 742.103 279.241 737.804 287.391 733.758 295.640 L 731.046 301.751 C 735.667 295.745 740.174 289.642 744.556 283.441 C 749.454 276.509 754.239 269.464 758.752 262.249 C 760.563 259.354 762.336 256.431 764.034 253.463 C 765.377 251.115 766.680 248.730 767.877 246.296 C 768.329 245.375 768.764 244.438 769.147 243.483 C 769.417 242.811 769.674 242.105 769.847 241.398 C 769.939 241.023 770.036 240.533 770.001 240.144 C 769.997 240.101 769.984 240.001 769.958 239.928 L 769.958 239.928 Z"/>
<path id="corel-ref-path-2" d="M 679.387 322.231 C 680.699 319.102 682.003 315.969 683.295 312.830 C 684.331 310.313 685.280 307.689 685.931 305.031 C 686.359 303.284 686.748 301.257 686.672 299.445 C 686.624 298.274 686.224 297.349 685.230 296.769 L 685.213 296.760 L 685.198 296.749 C 684.186 296.086 682.713 297.022 681.892 297.628 C 679.894 299.103 678.076 301.075 676.487 303.010 C 674.301 305.674 672.340 308.577 670.535 311.536 C 668.554 314.783 666.797 318.173 665.236 321.662 C 663.914 324.619 662.680 327.628 661.636 330.707 C 660.728 333.386 659.931 336.135 659.372 338.920 C 658.972 340.911 658.644 343.104 658.718 345.143 C 658.753 346.063 658.932 347.298 659.874 347.668 L 659.928 347.689 L 659.978 347.719 C 660.832 348.232 662.370 347.082 662.998 346.575 C 664.935 345.012 666.688 342.976 668.222 340.991 C 670.342 338.247 672.278 335.322 674.092 332.348 C 676.071 329.104 677.848 325.728 679.387 322.231 L 679.387 322.231 Z"/>
<path id="corel-ref-path-3" d="M 232.354 326.035 C 232.174 326.573 231.970 327.333 232.063 327.900 C 232.116 328.226 232.257 328.428 232.547 328.561 C 233.647 329.066 235.342 328.550 236.400 328.143 C 238.646 327.279 240.863 325.850 242.823 324.426 C 245.527 322.462 247.999 320.134 250.248 317.621 C 252.829 314.737 255.394 311.194 256.578 307.391 C 256.837 306.556 257.885 303.018 256.881 302.360 L 256.872 302.354 L 256.864 302.348 C 255.296 301.252 253.450 301.654 251.830 302.410 C 249.291 303.594 246.977 305.480 244.971 307.474 C 242.384 310.046 240.078 312.947 237.997 315.978 C 235.827 319.141 233.914 322.496 232.354 326.035 L 232.354 326.035 Z"/>
<path id="corel-ref-path-4" d="M 145.513 327.842 C 146.825 324.712 148.130 321.579 149.422 318.440 C 150.457 315.923 151.406 313.299 152.057 310.642 C 152.486 308.894 152.874 306.867 152.799 305.055 C 152.750 303.885 152.350 302.959 151.356 302.379 L 151.340 302.370 L 151.324 302.360 C 150.312 301.696 148.839 302.632 148.018 303.238 C 146.021 304.713 144.202 306.685 142.613 308.620 C 140.427 311.284 138.466 314.187 136.662 317.145 C 134.680 320.394 132.924 323.783 131.362 327.273 C 130.040 330.229 128.805 333.238 127.762 336.317 C 126.854 338.996 126.057 341.745 125.498 344.530 C 125.099 346.521 124.770 348.714 124.845 350.753 C 124.879 351.673 125.058 352.908 126.000 353.278 L 126.054 353.299 L 126.104 353.329 C 126.959 353.842 128.496 352.692 129.124 352.185 C 131.061 350.622 132.814 348.586 134.348 346.601 C 136.469 343.857 138.404 340.932 140.218 337.958 C 142.197 334.714 143.974 331.338 145.513 327.842 L 145.513 327.842 Z"/>
<path id="corel-ref-path-5" d="M 534.757 326.242 L 551.125 289.944 L 568.380 289.944 L 565.035 297.256 C 567.126 295.313 569.425 293.558 571.885 292.321 C 575.054 290.728 578.416 289.944 581.931 289.944 C 584.363 289.944 586.399 290.890 587.856 292.954 C 589.065 294.665 589.539 296.701 589.584 298.775 C 594.259 294.526 600.569 289.944 606.746 289.944 C 608.470 289.944 610.076 290.417 611.469 291.493 C 612.866 292.573 613.778 294.050 614.305 295.777 C 614.916 297.783 614.908 299.960 614.618 302.026 C 614.249 304.658 613.197 307.197 611.955 309.498 C 608.236 316.389 604.559 323.302 600.886 330.220 C 599.651 332.548 598.430 334.885 597.243 337.240 C 596.370 338.975 595.509 340.723 594.704 342.494 C 594.167 343.675 593.637 344.887 593.201 346.112 C 593.000 346.681 592.711 347.518 592.672 348.127 C 592.663 348.277 592.658 348.624 592.750 348.755 C 592.793 348.817 592.941 348.821 593.003 348.821 C 596.151 348.821 599.566 344.650 601.310 342.304 C 602.936 340.114 604.408 337.785 605.768 335.404 C 607.288 332.743 608.680 329.995 609.981 327.208 L 609.883 327.105 L 622.938 298.504 C 621.944 296.167 621.452 293.683 621.391 291.120 C 621.319 288.098 622.226 285.280 623.687 282.704 C 625.143 280.139 627.184 277.833 630.087 277.241 C 632.322 276.785 634.527 277.019 636.384 278.480 C 638.211 279.917 639.024 281.991 639.153 284.349 C 639.230 285.760 638.869 287.114 638.265 288.364 C 637.534 289.877 636.454 291.243 635.316 292.438 C 634.765 293.015 633.933 293.992 633.799 294.830 C 633.718 295.343 633.775 295.812 634.108 296.210 C 634.541 296.730 635.116 297.127 635.701 297.434 C 636.370 297.784 637.051 298.117 637.746 298.409 L 637.768 298.418 L 637.788 298.429 C 640.412 299.739 642.512 301.696 643.676 304.519 C 644.774 307.184 644.708 309.858 643.474 312.455 L 633.549 335.281 L 633.546 335.290 C 632.622 337.285 631.727 339.313 630.942 341.373 C 630.421 342.741 629.905 344.204 629.592 345.641 C 629.467 346.212 629.307 347.203 629.577 347.755 C 629.774 348.155 630.215 348.220 630.606 348.220 C 633.690 348.220 636.629 344.398 638.225 342.032 C 640.872 338.108 643.145 333.761 645.197 329.469 C 645.860 327.826 646.575 326.207 647.330 324.609 C 649.071 320.926 650.926 317.291 652.952 313.770 C 654.701 310.730 656.588 307.757 658.670 304.955 C 661.908 300.594 665.646 296.227 669.877 292.899 C 672.938 290.490 676.495 288.351 680.285 287.555 C 683.170 286.950 686.196 286.933 688.927 288.207 L 688.942 288.214 L 688.957 288.221 C 690.275 288.913 691.418 289.840 692.231 291.074 L 692.770 289.944 L 709.808 289.944 L 690.048 334.487 L 689.663 335.294 C 688.740 337.288 687.846 339.314 687.061 341.373 C 686.540 342.741 686.024 344.204 685.711 345.641 C 685.586 346.212 685.427 347.203 685.697 347.755 C 685.893 348.155 686.334 348.220 686.725 348.220 C 689.809 348.220 692.748 344.398 694.344 342.032 C 696.829 338.348 698.976 334.299 700.925 330.281 C 701.572 328.863 702.220 327.445 702.869 326.027 C 704.743 321.702 706.651 317.394 708.598 313.105 C 710.312 309.331 712.029 305.557 713.753 301.788 C 714.990 299.083 716.230 296.377 717.476 293.675 C 717.814 292.943 718.151 292.208 718.475 291.468 C 718.582 291.224 718.751 290.873 718.835 290.606 L 718.835 290.519 L 718.915 290.356 C 724.120 279.676 729.663 269.119 735.743 258.957 C 738.293 254.697 740.950 250.498 743.763 246.424 C 746.160 242.954 748.678 239.558 751.368 236.332 C 753.588 233.671 755.941 231.088 758.474 228.752 C 760.489 226.893 762.672 225.137 765.015 223.754 C 768.537 221.675 772.606 220.598 776.247 222.970 C 779.056 224.798 779.956 227.991 779.982 231.307 C 780.000 233.482 779.657 235.712 779.184 237.825 C 778.570 240.573 777.699 243.284 776.731 245.914 C 775.529 249.177 774.094 252.359 772.545 255.456 C 770.698 259.148 768.673 262.748 766.551 266.272 C 764.072 270.390 761.452 274.417 758.749 278.375 C 756.038 282.344 753.240 286.248 750.381 290.101 C 751.044 289.997 751.714 289.944 752.389 289.944 C 754.112 289.944 755.719 290.417 757.111 291.493 C 758.508 292.573 759.421 294.050 759.947 295.777 C 760.559 297.783 760.550 299.960 760.260 302.026 C 759.891 304.658 758.839 307.197 757.598 309.498 C 753.887 316.372 750.227 323.276 746.628 330.214 C 745.419 332.544 744.222 334.882 743.055 337.236 C 742.193 338.975 741.342 340.725 740.537 342.494 C 739.996 343.683 739.463 344.895 739.007 346.123 C 738.783 346.725 738.487 347.534 738.406 348.176 C 738.391 348.296 738.364 348.624 738.445 348.730 C 738.506 348.809 738.753 348.821 738.836 348.821 C 741.984 348.821 745.400 344.650 747.143 342.304 C 748.979 339.833 750.619 337.182 752.123 334.477 C 753.934 331.221 755.566 327.845 757.079 324.427 L 757.523 323.422 L 762.986 329.402 L 762.777 329.873 C 760.679 334.580 758.378 339.223 755.770 343.643 C 753.630 347.269 751.248 350.805 748.536 353.988 C 744.210 359.063 738.815 362.751 732.155 362.751 C 729.474 362.751 726.794 362.157 724.647 360.387 C 722.313 358.463 721.782 355.296 721.890 352.353 C 721.967 350.272 722.389 348.148 722.918 346.147 C 723.618 343.500 724.553 340.895 725.574 338.369 C 726.896 335.092 728.476 331.901 730.143 328.804 C 732.250 324.889 734.535 321.068 736.898 317.319 L 736.902 317.313 L 736.905 317.307 C 738.153 315.403 739.363 313.461 740.481 311.470 C 741.343 309.934 742.166 308.347 742.853 306.716 C 743.157 305.994 743.681 304.651 743.628 303.846 C 743.606 303.523 743.534 303.473 743.226 303.473 C 741.701 303.473 738.824 306.328 737.813 307.363 C 736.338 308.874 734.936 310.471 733.582 312.101 C 731.935 314.083 730.352 316.127 728.811 318.201 C 725.079 323.226 721.625 328.503 718.351 333.865 C 714.697 339.851 711.309 346.013 708.178 352.317 L 703.791 362.150 L 686.544 362.150 L 687.027 361.072 C 687.108 360.890 687.190 360.708 687.271 360.526 C 684.555 361.973 681.637 362.751 678.517 362.751 C 672.714 362.751 669.137 359.943 668.084 354.324 C 664.907 357.383 661.311 360.076 657.317 361.794 C 653.401 363.477 649.513 363.382 645.880 361.037 L 645.872 361.031 L 645.864 361.026 C 642.692 358.850 641.438 355.151 641.063 351.381 C 640.389 352.270 639.692 353.141 638.970 353.988 C 634.645 359.063 629.249 362.751 622.589 362.751 C 600.054 362.751 624.041 323.081 628.067 311.359 C 628.692 310.157 629.089 308.839 629.027 307.459 C 628.984 306.523 628.660 305.727 628.139 305.037 L 615.551 333.051 C 615.545 333.045 610.200 343.414 609.546 344.503 C 607.543 347.835 605.319 351.069 602.795 353.991 C 598.431 359.046 592.997 362.751 586.322 362.751 C 583.672 362.751 580.997 362.171 578.899 360.378 C 576.636 358.444 576.099 355.271 576.152 352.367 C 576.190 350.284 576.603 348.149 577.132 346.147 C 577.834 343.494 578.792 340.884 579.838 338.361 C 581.196 335.090 582.796 331.901 584.478 328.802 C 586.600 324.891 588.890 321.071 591.256 317.319 L 591.259 317.313 L 591.263 317.307 C 592.507 315.408 593.711 313.468 594.812 311.474 C 595.656 309.946 596.459 308.360 597.110 306.730 C 597.399 306.003 597.891 304.666 597.820 303.863 C 597.791 303.533 597.708 303.473 597.393 303.473 C 596.576 303.473 595.203 304.520 594.589 305.018 C 592.954 306.344 591.424 307.891 589.991 309.450 C 588.118 311.488 586.403 313.704 584.803 315.982 C 582.988 318.566 581.357 321.290 579.893 324.106 C 578.066 327.620 576.341 331.202 574.657 334.793 C 572.744 338.872 570.850 342.963 569.034 347.092 C 566.912 351.915 564.901 356.792 562.936 361.687 L 562.750 362.150 L 545.473 362.150 L 545.968 361.066 C 548.710 355.063 551.447 349.055 554.175 343.045 L 554.178 343.038 L 554.181 343.031 C 555.330 340.622 556.439 338.192 557.511 335.744 C 558.571 333.325 559.654 330.915 560.763 328.520 C 561.751 326.386 562.738 324.250 563.721 322.113 C 564.453 320.522 565.207 318.925 566.025 317.379 C 567.025 315.338 567.993 313.256 568.835 311.137 C 569.387 309.745 569.940 308.232 570.251 306.758 C 570.381 306.145 570.559 305.086 570.349 304.476 C 570.236 304.149 570.037 304.074 569.715 304.074 C 568.236 304.074 565.765 307.130 564.929 308.202 C 563.650 309.841 562.456 311.563 561.315 313.308 C 559.899 315.471 558.555 317.690 557.256 319.932 C 554.051 325.461 551.031 331.118 548.113 336.819 C 544.786 343.321 541.582 349.893 538.486 356.520 L 537.117 359.450 L 537.117 359.303 L 535.810 362.150 L 518.565 362.150 L 520.599 357.639"/>
<path id="corel-ref-path-6" d="M 520.599 357.639 C 517.494 360.815 514.072 363.645 510.424 366.157 C 504.200 370.444 497.417 373.525 490.138 375.176 C 482.946 376.807 475.728 376.757 468.545 375.075 C 460.900 373.284 454.488 369.030 449.094 363.145 C 445.224 358.922 442.489 353.997 441.275 348.266 C 440.105 342.743 439.955 337.154 440.789 331.563 C 441.643 325.843 443.329 320.345 445.719 315.131 C 448.041 310.066 450.919 305.313 454.412 301.047 C 459.462 294.879 465.377 289.678 472.286 285.948 C 478.464 282.612 485.033 280.448 491.882 279.402 C 490.305 278.006 488.971 276.351 487.851 274.512 C 486.272 271.920 485.290 269.047 484.790 266.023 C 484.221 262.598 484.350 259.078 484.884 255.658 C 485.518 251.590 486.996 247.705 488.876 244.102 C 490.762 240.486 493.290 237.226 496.061 234.318 C 499.226 230.997 502.734 228.066 506.486 225.507 C 510.370 222.858 514.510 220.662 518.838 218.926 C 523.013 217.251 527.367 216.129 531.830 215.774 C 536.082 215.436 540.240 216.002 544.250 217.519 C 548.442 219.105 551.831 221.936 554.591 225.570 C 558.341 230.506 560.433 236.111 560.760 242.421 C 561.080 248.608 560.155 254.629 557.940 260.370 C 555.707 266.158 552.324 271.153 547.928 275.364 C 543.493 279.612 538.313 282.224 532.362 283.065 C 527.953 283.689 522.819 283.528 519.368 280.166 C 517.943 278.779 516.971 277.094 516.488 275.119 C 515.962 272.971 516.067 270.707 516.479 268.549 L 516.607 267.876 L 517.258 267.944 C 520.035 268.235 522.910 267.752 525.582 266.967 C 528.767 266.031 531.807 264.662 534.675 262.934 C 537.658 261.136 540.419 258.980 542.942 256.527 C 545.306 254.229 547.381 251.603 548.905 248.614 C 550.306 245.867 550.980 242.890 550.919 239.775 C 550.852 236.350 549.596 233.243 547.714 230.488 C 545.613 227.414 542.812 224.883 539.085 224.593 C 535.439 224.310 531.959 225.474 528.797 227.305 C 524.841 229.595 521.312 232.677 518.183 236.079 C 514.766 239.795 511.654 243.805 508.909 248.092 C 506.380 252.041 504.165 256.239 502.491 260.666 C 501.373 263.621 500.194 267.433 500.346 270.654 C 500.467 272.426 500.954 274.087 501.782 275.637 C 502.553 277.083 503.682 277.976 505.208 278.347 C 507.730 278.113 510.323 278.116 512.823 278.565 C 515.620 279.068 516.647 281.161 516.377 283.993 L 516.375 284.017 L 516.371 284.042 C 516.202 285.110 515.639 286.044 514.951 286.832 C 513.843 288.100 511.905 288.083 510.409 287.872 C 505.593 287.191 500.833 287.793 496.219 289.344 C 491.216 291.026 486.565 293.548 482.293 296.749 C 477.757 300.148 473.703 304.168 470.113 308.637 C 466.500 313.135 463.432 318.060 461.053 323.390 C 458.804 328.426 457.305 333.739 456.726 339.272 C 456.182 344.476 456.695 349.640 458.495 354.538 C 459.937 358.458 462.336 361.527 466.034 363.229 C 469.665 364.900 473.507 365.595 477.461 365.469 C 481.698 365.334 485.845 364.469 489.844 363.007 C 493.404 361.706 497.058 360.052 500.169 357.793 C 505.595 353.852 509.928 348.815 513.221 342.818 C 516.410 337.010 517.930 330.736 517.423 324.047 C 517.154 321.821 516.162 319.793 514.891 318.016 C 513.672 316.311 512.160 314.642 510.354 313.622 L 509.647 313.222 L 510.102 312.527 C 511.450 310.470 513.170 308.756 515.373 307.755 C 517.278 306.889 519.290 306.470 521.365 306.695 C 523.357 306.911 525.213 307.605 526.918 308.706 C 528.720 309.870 530.144 311.447 531.178 313.387 C 533.357 317.475 534.585 321.775 534.757 326.242"/>
<path id="corel-ref-path-7" d="M 358.648 295.554 C 358.512 295.393 358.381 295.225 358.254 295.049 C 356.618 292.786 356.416 290.161 357.178 287.482 C 357.902 284.461 359.617 282.032 361.905 280.085 C 364.229 278.109 366.888 276.912 369.900 276.912 C 372.548 276.912 374.773 277.931 376.313 280.239 C 377.853 282.548 378.117 285.158 377.471 287.866 C 376.752 290.885 375.043 293.286 372.731 295.187 C 372.578 295.313 372.424 295.435 372.269 295.554"/>
<path id="corel-ref-path-8" d="M 126.718 308.058 C 129.489 304.564 132.586 301.198 136.003 298.509 C 139.065 296.100 142.621 293.961 146.411 293.165 C 149.296 292.560 152.322 292.543 155.053 293.817 L 155.068 293.824 L 155.083 293.831 C 156.401 294.523 157.545 295.450 158.357 296.684 L 158.896 295.554 L 175.934 295.554 L 156.174 340.097 L 155.789 340.903 C 154.866 342.898 153.972 344.924 153.187 346.983 C 152.666 348.351 152.150 349.814 151.837 351.252 C 151.713 351.822 151.553 352.814 151.823 353.365 C 152.019 353.766 152.460 353.831 152.852 353.831 C 155.935 353.831 158.874 350.008 160.471 347.642 C 161.920 345.493 163.238 343.233 164.473 340.944 C 165.906 338.287 167.238 335.565 168.504 332.816 L 168.402 332.705 L 180.561 305.975 C 180.329 301.858 181.031 297.832 182.535 294.019 C 184.219 289.750 186.844 286.012 189.945 282.758 L 189.951 282.752 L 189.958 282.745 C 192.041 280.670 194.699 278.692 197.649 278.434 C 199.832 278.243 201.927 278.761 203.180 280.778 C 204.505 282.908 204.119 285.722 203.458 288.018 C 202.383 291.747 199.462 295.342 196.883 298.048 L 196.878 298.052 L 196.874 298.057 C 195.379 299.571 193.873 301.172 192.567 302.869 C 191.893 303.745 191.005 304.984 190.662 306.063 C 190.168 307.617 190.345 309.050 191.238 310.398 C 192.442 312.214 194.055 313.896 195.615 315.375 C 198.025 317.658 199.757 320.956 201.042 324.045 C 202.602 327.794 203.058 331.679 202.331 335.703 C 201.625 339.604 200.299 343.286 198.324 346.672 C 196.687 349.476 194.703 351.996 192.360 354.156 C 195.146 352.549 197.761 350.627 200.207 348.498 C 203.209 345.884 205.945 342.960 208.412 339.790 C 210.423 337.205 212.239 334.437 213.728 331.485 C 214.072 330.656 214.434 329.835 214.813 329.022 C 218.045 322.086 221.970 315.236 226.850 309.428 C 230.536 305.042 234.767 300.783 239.511 297.672 C 243.060 295.345 247.069 293.384 251.244 292.758 C 254.303 292.299 257.631 292.353 260.450 293.831 L 260.458 293.836 L 260.466 293.841 C 262.536 294.998 264.118 296.694 265.245 298.850 C 266.447 301.150 267.022 303.678 267.146 306.286 C 267.290 309.301 266.836 312.337 266.071 315.237 C 265.167 318.670 263.599 321.856 261.675 324.778 C 259.063 328.744 255.963 332.405 252.251 335.271 C 249.226 337.606 245.830 339.604 242.175 340.600 C 239.289 341.388 236.204 341.655 233.303 340.797 C 231.222 340.181 229.558 339.008 228.338 337.286 C 227.634 340.453 227.236 343.794 227.536 347.003 C 227.799 349.821 228.882 352.103 231.409 353.296 L 231.422 353.303 L 231.435 353.309 C 233.712 354.504 236.567 354.282 238.980 353.747 C 242.494 352.967 245.816 351.394 248.871 349.435 C 252.481 347.121 255.769 344.271 258.758 341.135 C 261.662 338.088 264.176 334.683 266.232 330.952 L 282.194 295.554 L 299.449 295.554 L 296.104 302.866 C 298.196 300.923 300.494 299.168 302.954 297.931 C 306.124 296.338 309.486 295.554 313.001 295.554 C 315.433 295.554 317.468 296.501 318.925 298.564 C 320.134 300.275 320.609 302.311 320.654 304.385 C 325.328 300.136 331.639 295.554 337.815 295.554 C 339.539 295.554 341.146 296.027 342.538 297.103 C 343.935 298.183 344.848 299.660 345.374 301.387 C 345.986 303.393 345.977 305.570 345.687 307.636 C 345.318 310.268 344.266 312.807 343.024 315.108 C 339.305 321.999 335.628 328.912 331.956 335.830 C 330.721 338.158 329.499 340.495 328.313 342.850 C 327.439 344.585 326.578 346.333 325.773 348.105 C 325.236 349.285 324.707 350.497 324.271 351.723 C 324.069 352.291 323.781 353.128 323.742 353.737 C 323.733 353.887 323.727 354.234 323.819 354.365 C 323.862 354.427 324.011 354.431 324.072 354.431 C 327.220 354.431 330.636 350.260 332.379 347.914 C 334.215 345.443 335.855 342.793 337.359 340.088 C 339.170 336.831 340.802 333.456 342.315 330.037 L 342.760 329.032 L 342.787 329.062 L 357.782 295.554 L 358.648 295.554"/>
<path id="corel-ref-path-9" d="M 372.269 295.554 L 375.024 295.554 L 354.883 340.894 L 354.880 340.900 C 353.954 342.901 353.054 344.929 352.251 346.989 C 351.712 348.369 351.180 349.826 350.826 351.271 C 350.690 351.826 350.506 352.811 350.785 353.350 C 351.002 353.769 351.534 353.831 351.941 353.831 C 355.024 353.831 357.963 350.008 359.560 347.642 C 361.487 344.784 363.196 341.720 364.773 338.637 L 384.317 295.554 L 401.378 295.554 L 394.817 309.961 C 396.039 308.607 397.297 307.289 398.597 306.020 C 400.716 303.952 402.966 301.993 405.365 300.290 C 408.843 297.821 413.116 295.554 417.413 295.554 C 419.136 295.554 420.743 296.027 422.136 297.103 C 423.533 298.183 424.445 299.660 424.972 301.387 C 425.584 303.393 425.574 305.570 425.285 307.636 C 424.916 310.268 423.863 312.807 422.622 315.108 C 418.903 321.999 415.226 328.912 411.553 335.830 C 410.317 338.158 409.097 340.495 407.910 342.850 C 407.037 344.585 406.176 346.333 405.370 348.105 C 404.833 349.285 404.304 350.497 403.869 351.723 C 403.666 352.291 403.378 353.128 403.340 353.737 C 403.330 353.887 403.324 354.234 403.416 354.365 C 403.460 354.427 403.608 354.431 403.669 354.431 C 406.824 354.431 410.305 350.248 412.076 347.909 C 413.941 345.445 415.604 342.794 417.125 340.085 C 418.950 336.834 420.589 333.458 422.103 330.037 L 422.548 329.032 L 428.011 335.013 L 427.801 335.482 C 425.704 340.190 423.403 344.833 420.794 349.253 C 418.654 352.879 416.272 356.415 413.561 359.598 C 409.182 364.735 403.734 368.361 396.989 368.361 C 394.339 368.361 391.664 367.781 389.566 365.988 C 387.303 364.054 386.766 360.881 386.819 357.977 C 386.857 355.894 387.270 353.759 387.799 351.757 C 388.501 349.104 389.459 346.494 390.505 343.972 C 391.863 340.700 393.463 337.512 395.145 334.412 C 397.267 330.501 399.557 326.682 401.922 322.929 L 401.926 322.923 L 401.930 322.917 C 403.178 321.013 404.388 319.071 405.505 317.080 C 406.367 315.544 407.190 313.957 407.877 312.326 C 408.181 311.604 408.706 310.261 408.652 309.455 C 408.631 309.133 408.558 309.083 408.251 309.083 C 406.895 309.083 404.033 311.865 403.117 312.780 C 401.682 314.212 400.320 315.734 399.008 317.289 C 397.417 319.177 395.890 321.130 394.407 323.112 C 390.789 327.950 387.429 333.027 384.231 338.178 C 380.666 343.923 377.370 349.848 374.347 355.926 L 369.004 367.761 L 351.562 367.761 L 352.225 366.299 C 349.640 367.635 346.872 368.361 343.924 368.361 C 338.800 368.361 334.832 366.260 333.490 360.784 C 333.441 360.583 333.396 360.381 333.357 360.177 C 329.081 364.935 323.810 368.361 317.391 368.361 C 314.742 368.361 312.066 367.781 309.968 365.988 C 307.705 364.054 307.168 360.881 307.221 357.977 C 307.259 355.894 307.672 353.759 308.202 351.757 C 308.903 349.104 309.861 346.494 310.908 343.972 C 312.265 340.700 313.865 337.512 315.547 334.412 C 317.670 330.501 319.959 326.682 322.325 322.929 L 322.329 322.923 L 322.332 322.917 C 323.577 321.019 324.780 319.078 325.882 317.084 C 326.725 315.556 327.529 313.970 328.178 312.340 C 328.468 311.613 328.961 310.276 328.889 309.473 C 328.860 309.143 328.777 309.083 328.463 309.083 C 327.645 309.083 326.273 310.130 325.658 310.628 C 324.023 311.954 322.493 313.501 321.060 315.060 C 319.187 317.098 317.472 319.315 315.872 321.592 C 314.057 324.176 312.426 326.900 310.962 329.716 C 309.135 333.230 307.411 336.812 305.727 340.402 C 303.813 344.482 301.920 348.573 300.104 352.702 C 297.982 357.525 295.970 362.402 294.005 367.297 L 293.819 367.761 L 276.542 367.761 L 277.037 366.676 C 279.780 360.673 282.516 354.665 285.245 348.655 L 285.247 348.648 L 285.251 348.641 C 286.399 346.232 287.509 343.802 288.581 341.355 C 289.640 338.935 290.723 336.525 291.832 334.130 C 292.821 331.996 293.807 329.860 294.790 327.723 C 295.522 326.132 296.276 324.535 297.094 322.990 C 298.094 320.948 299.062 318.866 299.904 316.747 C 300.457 315.355 301.009 313.842 301.321 312.368 C 301.451 311.755 301.629 310.696 301.418 310.086 C 301.306 309.759 301.107 309.684 300.784 309.684 C 299.305 309.684 296.834 312.740 295.998 313.812 C 294.720 315.452 293.526 317.173 292.384 318.918 C 290.969 321.082 289.625 323.300 288.326 325.542 C 285.121 331.071 282.100 336.728 279.182 342.429 C 275.855 348.931 272.651 355.503 269.555 362.130 L 268.186 365.060 L 268.186 364.913 L 266.879 367.761 L 249.634 367.761 L 253.783 358.559 C 251.262 360.673 248.596 362.594 245.784 364.258 C 241.147 367.003 236.124 368.999 230.816 369.658 C 226.005 370.255 221.474 369.359 217.367 366.643 C 215.154 365.179 213.465 363.174 212.246 360.748 C 210.877 358.028 210.207 354.996 209.970 351.945 C 209.938 351.533 209.913 351.121 209.897 350.707 C 209.661 350.952 209.421 351.193 209.180 351.433 C 204.639 355.936 199.552 359.728 193.918 362.579 C 188.624 365.257 183.021 367.028 177.167 367.656 C 171.927 368.219 166.701 367.657 161.898 365.285 L 161.263 364.972 L 164.443 357.346 L 165.000 357.446 C 168.718 358.119 171.997 356.919 174.929 354.494 C 178.311 351.696 180.901 348.149 182.845 344.131 C 184.895 339.894 186.184 335.395 186.684 330.672 C 187.124 326.523 186.691 322.382 184.676 318.718 L 184.666 318.699 L 184.656 318.678 C 184.420 318.183 184.173 317.694 183.911 317.213 C 183.875 317.147 183.840 317.081 183.804 317.015 L 175.581 334.920 L 175.666 335.013 L 175.457 335.482 C 173.359 340.190 171.058 344.833 168.449 349.253 C 166.309 352.879 163.928 356.415 161.216 359.598 C 156.837 364.735 151.389 368.361 144.644 368.361 C 138.840 368.361 135.263 365.553 134.211 359.934 C 131.034 362.993 127.438 365.686 123.443 367.404 C 119.528 369.087 115.639 368.992 112.007 366.647 L 111.998 366.641 L 111.990 366.636 C 107.637 363.649 106.888 357.772 107.083 352.754 C 107.173 350.440 107.487 348.114 107.969 345.806"/>
<path id="corel-ref-path-10" d="M 107.969 345.806 C 103.625 352.878 98.618 359.462 92.977 365.446 C 87.189 371.586 80.474 376.361 72.894 379.729 C 69.437 381.266 65.839 382.429 62.174 383.276 C 58.454 384.136 54.650 384.564 50.840 384.495 C 47.105 384.428 43.424 383.817 39.854 382.659 C 36.293 381.504 33.046 379.691 30.162 377.215 L 30.147 377.202 L 30.132 377.188 C 27.217 374.395 24.883 371.111 23.278 367.324 C 21.747 363.708 20.810 359.901 20.546 355.955 C 20.282 352.013 20.597 348.075 21.421 344.221 C 22.233 340.417 23.537 336.770 25.411 333.398 C 27.339 329.758 29.776 326.505 32.710 323.701 C 35.641 320.899 38.934 318.617 42.531 316.865 C 46.148 315.103 49.958 313.972 53.919 313.495 C 57.930 313.012 61.892 313.399 65.758 314.624 C 68.849 315.603 71.494 317.374 73.710 319.836 C 75.901 322.270 77.248 325.140 77.529 328.481 C 77.728 330.014 78.137 333.586 76.094 334.014 C 74.639 334.320 72.471 333.729 71.073 333.297 C 68.266 332.432 65.326 331.793 62.455 331.212 C 58.353 330.382 53.912 330.829 49.853 331.710 C 47.315 332.261 44.971 333.525 42.871 335.090 C 40.471 336.880 38.433 339.087 36.745 341.617 L 36.738 341.627 L 36.732 341.636 C 35.208 343.768 34.047 346.129 33.208 348.642 C 32.354 351.202 31.813 353.852 31.625 356.558 C 31.441 359.190 31.749 361.770 32.544 364.274 C 33.332 366.755 34.654 368.875 36.460 370.673 C 39.315 373.515 42.640 375.348 46.554 375.878 C 50.529 376.417 54.517 376.173 58.431 375.288 C 62.567 374.354 66.528 372.813 70.273 370.752 C 73.686 368.874 77.033 366.678 79.964 364.043 C 83.370 360.867 86.463 357.350 89.217 353.542 C 92.010 349.680 94.506 345.593 96.697 341.324 C 98.906 337.020 100.903 332.598 102.678 328.078 C 104.425 323.625 106.141 319.160 107.824 314.680 L 110.106 308.095 C 107.270 310.071 104.304 311.861 101.293 313.516 C 97.378 315.667 93.224 317.253 88.873 318.095 C 84.829 318.879 80.784 318.737 76.870 317.368 C 72.638 315.888 69.677 312.534 67.588 308.500 C 64.410 302.361 63.021 295.781 64.268 288.873 C 65.490 282.111 68.230 275.938 72.025 270.351 C 76.214 264.184 81.198 258.651 86.647 253.696 C 90.596 250.105 94.652 246.639 98.820 243.330 L 80.355 251.610 L 80.024 251.076 C 78.414 248.477 76.481 246.151 74.241 244.128 C 72.016 242.118 69.533 240.521 66.815 239.353 C 63.552 238.086 60.156 237.402 56.674 237.402 C 53.319 237.402 50.045 238.005 46.909 239.255 C 43.799 240.495 40.967 242.264 38.436 244.531 C 35.883 246.817 33.807 249.529 32.208 252.626 C 30.416 256.096 29.404 260.007 28.851 263.893 C 28.286 267.862 28.493 271.847 29.944 275.593 C 30.849 277.605 32.104 279.365 33.816 280.696 C 35.378 281.910 37.113 282.734 39.037 283.060 C 40.933 283.380 42.789 283.166 44.598 282.493 C 46.592 281.750 48.203 280.359 49.515 278.642 C 50.502 277.214 51.177 275.620 51.584 273.911 C 52.002 272.159 52.099 270.382 51.856 268.594 L 51.771 267.969 L 52.342 267.769 C 55.114 266.799 58.072 266.613 60.601 268.355 C 63.173 270.125 64.134 273.149 64.361 276.239 L 64.361 276.247 L 64.362 276.255 C 64.492 278.710 64.142 281.113 63.259 283.391 C 62.398 285.616 61.166 287.605 59.581 289.338 C 58.012 291.052 56.232 292.506 54.262 293.678 C 52.344 294.818 50.291 295.639 48.122 296.066 L 48.112 296.068 L 48.102 296.070 C 43.194 296.889 38.030 296.731 33.532 294.292 C 29.616 292.169 26.541 289.103 24.361 285.083 C 22.070 280.859 20.875 276.180 20.452 271.360 C 20.000 266.212 20.448 261.071 21.713 256.077 C 23.118 250.533 25.432 245.402 28.810 240.884 C 32.056 236.544 35.943 232.904 40.463 230.087 C 44.971 227.276 49.855 225.421 55.024 224.485 C 60.309 223.526 65.618 223.686 70.858 224.891 C 74.949 225.832 78.883 227.321 82.588 229.367 C 86.153 231.335 89.501 233.687 92.603 236.381 L 123.527 224.089 L 127.375 231.450 L 126.874 231.844 C 123.509 234.492 120.134 237.128 116.754 239.757 C 112.953 242.713 109.282 245.852 105.730 249.129 C 102.064 252.511 98.577 256.102 95.288 259.885 C 92.177 263.463 89.352 267.324 86.975 271.480 C 84.817 275.253 83.163 279.297 82.191 283.582 C 81.271 287.634 81.253 291.698 82.281 295.727 C 83.206 299.351 84.929 303.751 88.307 305.563 C 91.090 307.055 94.036 307.336 97.074 306.601 C 100.498 305.771 103.668 304.173 106.566 302.106 C 109.297 300.157 111.944 297.924 114.157 295.339 C 116.308 288.289 118.528 281.262 120.795 274.252 C 123.145 266.986 125.936 259.876 129.233 253.026 C 132.271 246.716 135.921 240.729 140.304 235.352 C 144.268 230.490 149.060 226.680 154.831 224.517 L 154.838 224.515 L 154.845 224.512 C 157.443 223.604 160.139 223.044 162.881 222.971 C 165.243 222.910 167.654 223.262 169.799 224.349 C 171.797 225.360 173.306 226.921 174.325 228.988 C 175.498 231.367 175.597 234.141 175.258 236.748 L 175.173 237.402 L 174.543 237.402 C 170.644 237.402 167.048 238.478 163.766 240.687 C 160.275 243.036 157.228 246.009 154.578 249.346 C 151.608 253.084 149.047 257.167 146.831 261.439 C 144.514 265.908 142.353 270.465 140.366 275.106 C 138.482 279.503 136.665 283.932 134.936 288.398 C 133.506 292.090 132.053 295.775 130.539 299.429 L 130.535 299.437 L 130.532 299.445 C 129.264 302.318 127.993 305.189 126.718 308.058"/>
</g>
</svg>
