<svg xmlns="http://www.w3.org/2000/svg" viewBox="17.366 17.367 51.326 34.220">
  <path d="M 37.5862 19.3829 C 37.4519 19.9477 37.1362 20.4248 36.6386 20.8143 C 36.4315 20.9767 36.2191 21.1053 36.0000 21.2000 C 36.6767 21.5100 37.2229 21.9224 37.6390 22.4371 C 38.3780 23.3514 38.8085 24.4195 38.9295 25.6423 C 39.0505 26.8656 38.9224 28.1623 38.5462 29.5333 C 38.4048 30.0481 38.2429 30.5500 38.0595 31.0381 C 38.0976 31.0610 38.1352 31.0862 38.1714 31.1133 C 38.4938 31.3552 38.6685 31.7114 38.6957 32.1819 C 38.7224 32.6519 38.4671 33.1562 37.9295 33.6938 C 37.7143 33.9086 37.5933 34.0967 37.5666 34.2581 C 37.5399 34.4195 37.5733 34.5538 37.6676 34.6614 C 37.7614 34.7685 37.8890 34.8628 38.0505 34.9433 C 38.2119 35.0243 38.3595 35.0914 38.4938 35.1452 C 39.0586 35.4138 39.4481 35.7966 39.6633 36.2942 C 39.8781 36.7913 39.8647 37.2818 39.6228 37.7656 L 37.5261 42.3618 C 37.0694 43.3028 36.7871 44.0080 36.6794 44.4785 C 36.5723 44.9490 36.6932 45.1842 37.0423 45.1842 C 37.5799 45.1842 38.1580 44.7471 38.7761 43.8737 C 39.3299 43.0908 39.9166 42.0547 40.5351 40.7642 C 40.6256 40.5466 40.7246 40.3266 40.8322 40.1042 C 41.6117 38.5180 42.4517 37.2147 43.3522 36.1932 C 44.2527 35.1718 45.1327 34.3922 45.9932 33.8546 C 46.8532 33.3170 47.6594 32.9946 48.4122 32.8870 C 49.1646 32.7794 49.7827 32.8470 50.2665 33.0889 C 50.6698 33.3037 50.9855 33.6194 51.2141 34.0360 C 51.4427 34.4527 51.5703 34.9298 51.5970 35.4674 C 51.6241 36.0050 51.5503 36.5893 51.3756 37.2212 C 51.2008 37.8526 50.8985 38.4779 50.4685 39.0960 C 49.8771 39.9560 49.2252 40.6484 48.5128 41.1722 C 47.8009 41.6965 47.1085 42.0460 46.4366 42.2208 C 45.7647 42.3956 45.1666 42.4089 44.6423 42.2608 C 44.1185 42.1132 43.7352 41.7975 43.4933 41.3137 C 43.2514 42.2004 43.1643 42.9866 43.2314 43.6723 C 43.2985 44.3575 43.6009 44.8213 44.1385 45.0633 C 44.5685 45.2781 45.1328 45.3119 45.8318 45.1638 C 46.5308 45.0162 47.2428 44.7205 47.9685 44.2771 C 48.6942 43.8333 49.3999 43.2690 50.0852 42.5838 C 50.7181 41.9509 51.2528 41.2562 51.6909 40.4976 L 55.0242 33.4519 L 58.3304 33.4519 L 57.3628 35.4676 C 58.0618 34.7419 58.7338 34.2243 59.3785 33.9152 C 60.0237 33.6062 60.7090 33.4519 61.4347 33.4519 C 61.9185 33.4519 62.2952 33.6333 62.5637 33.9962 C 62.8327 34.3591 62.9399 34.8357 62.8861 35.4272 C 64.3375 34.1101 65.6009 33.4520 66.6761 33.4520 C 67.0256 33.4520 67.3280 33.5458 67.5832 33.7339 C 67.8384 33.9220 68.0199 34.1844 68.1275 34.5201 C 68.2351 34.8563 68.2551 35.2525 68.1880 35.7096 C 68.1209 36.1663 67.9394 36.6501 67.6437 37.1610 C 66.6761 38.8810 65.8966 40.2720 65.3051 41.3339 C 64.7141 42.3958 64.2770 43.2220 63.9951 43.8134 C 63.7127 44.4048 63.5651 44.8010 63.5513 45.0029 C 63.5380 45.2043 63.6118 45.3053 63.7732 45.3053 C 64.3108 45.3053 64.9356 44.8482 65.6480 43.9343 C 66.3604 43.0205 67.0661 41.8110 67.7647 40.3057 L 68.6918 41.2733 C 67.7513 43.3428 66.7637 44.9490 65.7285 46.0914 C 64.6937 47.2338 63.5718 47.8047 62.3623 47.8047 C 61.7442 47.8047 61.2533 47.6571 60.8904 47.3614 C 60.5275 47.0657 60.3533 46.5685 60.3666 45.8695 C 60.3799 45.1705 60.6352 44.2500 61.1323 43.1076 C 61.6299 41.9652 62.4294 40.5609 63.5313 38.8947 C 64.1227 38.0342 64.5394 37.3152 64.7813 36.7376 C 65.0232 36.1595 64.9961 35.8709 64.7003 35.8709 C 64.5393 35.8709 64.3108 35.9847 64.0151 36.2133 C 63.7194 36.4419 63.3903 36.7443 63.0275 37.1204 C 62.6646 37.4966 62.2951 37.9404 61.9185 38.4509 C 61.5423 38.9619 61.1928 39.5128 60.8704 40.1042 C 60.5480 40.6952 60.1785 41.4142 59.7618 42.2609 C 59.3451 43.1076 58.9485 43.9342 58.5723 44.7404 C 58.1423 45.6814 57.7123 46.6623 57.2823 47.6837 L 53.9761 47.6837 C 54.5942 46.3937 55.1723 45.1842 55.7099 44.0551 C 55.9518 43.5713 56.1870 43.0808 56.4151 42.5837 C 56.6437 42.0861 56.8722 41.6023 57.1008 41.1323 C 57.3289 40.6618 57.5375 40.2318 57.7256 39.8418 C 57.9137 39.4523 58.0751 39.1366 58.2094 38.8947 C 59.2042 36.9595 59.4189 35.9918 58.8546 35.9918 C 58.5856 35.9918 58.2094 36.2870 57.7256 36.8785 C 57.2418 37.4699 56.6975 38.2628 56.0927 39.2575 C 55.4879 40.2518 54.8427 41.3875 54.1575 42.6642 C 53.4723 43.9409 52.7932 45.2647 52.1213 46.6356 L 52.1213 46.5951 L 51.5975 47.6837 L 48.2913 47.6837 L 49.3627 45.4189 C 48.6503 46.0460 47.9165 46.5727 47.1622 46.9984 C 46.1141 47.5894 45.0793 47.9455 44.0579 48.0665 C 43.0365 48.1875 42.1227 47.9927 41.3160 47.4822 C 40.8860 47.2132 40.5436 46.8370 40.2879 46.3532 C 40.0327 45.8694 39.8784 45.2984 39.8246 44.6399 L 39.8236 44.6247 C 39.4512 45.1776 39.0750 45.6666 38.6955 46.0914 C 37.6741 47.2338 36.5584 47.8047 35.3488 47.8047 C 34.2202 47.8047 33.5412 47.3342 33.3131 46.3937 C 33.0845 45.4527 33.3736 44.1089 34.1798 42.3618 C 34.4484 41.7704 34.6903 41.2599 34.9055 40.8299 C 35.1207 40.3994 35.3222 40.0166 35.5103 39.6809 C 35.6984 39.3447 35.8798 39.0223 36.0546 38.7133 C 36.2294 38.4038 36.4241 38.0614 36.6394 37.6852 C 36.8004 37.3895 36.8746 37.1004 36.8608 36.8181 C 36.8475 36.5362 36.7198 36.2871 36.4779 36.0724 L 33.8169 41.7167 L 32.8493 40.7491 L 34.5364 37.2258 C 34.2854 37.5820 34.0293 37.9344 33.7683 38.2825 C 32.5993 39.8411 31.4097 41.3735 30.2002 42.8787 C 29.7164 43.4430 29.1721 44.0544 28.5673 44.7130 C 27.9625 45.3716 27.3778 46.0635 26.8135 46.7892 C 26.2492 47.5149 25.7721 48.2611 25.3821 49.0268 C 24.9926 49.7930 24.7845 50.5658 24.7573 51.3454 C 23.9778 51.5873 23.4468 51.3921 23.1649 50.7606 C 22.8825 50.1292 22.8892 49.2487 23.1849 48.1196 C 23.4001 47.2867 23.7025 46.4734 24.0920 45.6806 C 24.4820 44.8877 24.9187 44.1149 25.4025 43.3625 C 25.8863 42.6096 26.3968 41.8773 26.9344 41.1649 C 27.4720 40.4525 27.9963 39.7606 28.5068 39.0887 C 28.9368 38.5244 29.4744 37.8725 30.1197 37.1335 C 30.7645 36.3940 31.4297 35.6011 32.1154 34.7545 C 32.8006 33.9078 33.4459 33.0345 34.0506 32.1340 C 34.6554 31.2335 35.1525 30.3197 35.5420 29.3926 C 35.9320 28.4650 36.1606 27.5512 36.2277 26.6507 C 36.2948 25.7502 36.1267 24.8969 35.7234 24.0907 L 35.7234 24.0502 C 35.6967 24.0773 35.6967 24.1040 35.7234 24.1307 C 35.2934 23.3783 34.6348 22.8812 33.7482 22.6393 C 32.8072 22.3436 31.8196 22.2360 30.7849 22.3164 C 29.7501 22.3974 28.7154 22.6054 27.6801 22.9416 C 26.6453 23.2773 25.6644 23.7073 24.7372 24.2316 C 23.8096 24.7559 23.0101 25.3268 22.3382 25.9449 C 21.5858 26.5901 20.9472 27.3159 20.4230 28.1225 C 19.8992 28.9287 19.5697 29.7620 19.4354 30.6220 C 19.3011 31.5091 19.4621 32.2144 19.9192 32.7387 C 20.3763 33.2630 21.0211 33.5516 21.8544 33.6054 C 22.7144 33.6325 23.5544 33.4778 24.3744 33.1421 C 25.1939 32.8059 25.9334 32.3559 26.5915 31.7911 C 27.2501 31.2268 27.8010 30.5616 28.2448 29.7954 C 28.6881 29.0297 28.9772 28.2297 29.1115 27.3964 C 29.6491 27.3964 30.0858 27.4840 30.4220 27.6588 C 30.7577 27.8336 31.0134 28.0550 31.1877 28.3240 C 31.3625 28.5926 31.4701 28.8950 31.5106 29.2311 C 31.5506 29.5668 31.5306 29.8963 31.4501 30.2187 C 31.3691 30.6758 31.1811 31.1325 30.8853 31.5897 C 30.5901 32.0464 30.2472 32.4835 29.8572 32.9002 C 29.4677 33.3164 29.0510 33.6931 28.6077 34.0288 C 28.1639 34.3650 27.7677 34.6269 27.4182 34.8150 C 26.6658 35.2721 25.8258 35.6283 24.8982 35.8836 C 23.9711 36.1388 22.9163 36.2126 21.7334 36.1055 C 20.9810 36.0517 20.3086 35.8636 19.7177 35.5407 C 19.1263 35.2183 18.6425 34.7950 18.2663 34.2707 C 17.8896 33.7469 17.6344 33.1555 17.5001 32.4969 C 17.3658 31.8383 17.3791 31.1326 17.5406 30.3802 C 17.8896 28.7673 18.6692 27.3092 19.8787 26.0054 C 21.0882 24.7021 22.4997 23.6068 24.1120 22.7197 C 25.7249 21.8326 27.4249 21.2011 29.2125 20.8249 C 30.8025 20.4901 32.2915 20.4106 33.6796 20.5863 C 33.5134 20.2430 33.4853 19.8420 33.5944 19.3830 C 33.7287 18.8459 34.0449 18.3754 34.5420 17.9720 C 35.0391 17.5687 35.5701 17.3672 36.1344 17.3672 C 36.6720 17.3672 37.0820 17.5686 37.3644 17.9720 C 37.6463 18.3753 37.7201 18.8458 37.5858 19.3830 Z M 48.2914 37.8462 C 48.9900 37.0938 49.4471 36.3881 49.6619 35.7295 C 49.8771 35.0709 49.8771 34.6747 49.6619 34.5405 C 49.3395 34.3253 48.9362 34.3253 48.4524 34.5405 C 47.9686 34.7553 47.4714 35.1048 46.9610 35.5886 C 46.4500 36.0724 45.9529 36.6500 45.4691 37.3224 C 44.9853 37.9943 44.5820 38.6795 44.2596 39.3786 C 44.1253 39.7548 44.1653 39.9900 44.3806 40.0838 C 44.5958 40.1781 44.9049 40.1509 45.3077 40.0033 C 45.7110 39.8552 46.1748 39.6000 46.6987 39.2371 C 47.2230 38.8742 47.7539 38.4109 48.2916 37.8461 Z" fill="black" fill-rule="evenodd"/>
</svg>
