<svg xmlns="http://www.w3.org/2000/svg" viewBox="31.461 -4.806 51.981 34.383">
  <path d="M 65.1014 -2.7895 C 65.0619 -2.6247 65.0066 -2.4676 64.9357 -2.3176 C 65.4724 -2.5114 66.0200 -2.6666 66.5776 -2.7838 L 67.0614 -1.4938 C 65.7176 -0.8757 64.4743 -0.0224 63.3324 1.0662 C 62.1900 2.1548 61.1348 3.3576 60.1672 4.6748 C 59.1996 5.9919 58.3196 7.3562 57.5267 8.7672 C 56.7334 10.1782 56.0148 11.5020 55.3696 12.7386 C 55.1277 13.1953 54.7848 13.8538 54.3415 14.7138 C 53.8982 15.5738 53.4477 16.5214 52.9910 17.5562 C 52.6939 18.2286 52.4172 18.9157 52.1596 19.6167 L 54.9772 13.6605 L 58.2834 13.6605 L 57.3158 15.6762 C 58.0148 14.9505 58.6868 14.4329 59.3315 14.1238 C 59.9767 13.8148 60.6620 13.6605 61.3877 13.6605 C 61.8715 13.6605 62.2482 13.8419 62.5167 14.2048 C 62.7857 14.5677 62.8929 15.0443 62.8391 15.6358 C 64.2905 14.3187 65.5539 13.6606 66.6291 13.6606 C 66.9786 13.6606 67.2810 13.7544 67.5362 13.9425 C 67.7914 14.1306 67.9729 14.3930 68.0805 14.7287 C 68.1881 15.0649 68.2081 15.4611 68.1410 15.9182 C 68.0739 16.3749 67.8924 16.8587 67.5967 17.3696 C 66.6291 19.0896 65.8496 20.4806 65.2581 21.5425 C 64.6671 22.6044 64.2300 23.4306 63.9481 24.0220 C 63.6657 24.6134 63.5181 25.0096 63.5043 25.2115 C 63.4910 25.4129 63.5648 25.5139 63.7262 25.5139 C 64.2638 25.5139 64.8886 25.0568 65.6010 24.1429 C 66.3134 23.2291 67.0191 22.0196 67.7177 20.5143 L 67.7229 20.5195 L 70.9429 13.6605 L 71.3853 13.6605 C 71.3420 13.6153 71.3010 13.5667 71.2620 13.5143 C 70.9663 13.1243 70.8991 12.6543 71.0606 12.1100 C 71.1949 11.5657 71.5106 11.0886 72.0082 10.6852 C 72.5053 10.2752 73.0363 10.0738 73.6006 10.0738 C 74.1382 10.0738 74.5482 10.2752 74.8301 10.6852 C 75.1125 11.0885 75.1863 11.5657 75.0520 12.1100 C 74.9177 12.6543 74.6020 13.1243 74.1044 13.5143 C 74.0387 13.5667 73.9725 13.6153 73.9058 13.6605 L 74.2491 13.6605 L 70.0962 22.5705 C 69.6395 23.5115 69.3505 24.2167 69.2295 24.6872 C 69.1085 25.1577 69.2362 25.3929 69.6124 25.3929 C 70.1500 25.3929 70.7281 24.9558 71.3462 24.0824 C 71.9062 23.2910 72.4995 22.2400 73.1262 20.9295 L 73.1586 20.8614 L 73.2891 20.5847 L 73.3220 20.5142 L 75.9025 15.0309 L 74.1282 15.0309 L 74.7734 13.6199 L 76.5472 13.6199 L 79.7324 6.8799 L 83.4414 5.9594 L 79.8533 13.6199 L 82.6757 13.6199 L 82.1109 15.0309 L 79.2080 15.0309 L 75.7004 22.5704 C 75.2437 23.5114 75.0690 24.2166 75.1766 24.6871 C 75.2837 25.1576 75.5256 25.3928 75.9023 25.3928 C 76.1709 25.3928 76.5271 25.2785 76.9704 25.0499 C 77.4142 24.8213 77.8842 24.4989 78.3818 24.0823 C 78.8789 23.6656 79.3694 23.1552 79.8532 22.5504 C 80.3370 21.9456 80.7537 21.2666 81.1032 20.5142 L 82.0303 21.4818 C 81.5465 22.5032 80.9822 23.4170 80.3370 24.2232 C 79.6918 25.0299 79.0132 25.7151 78.3008 26.2794 C 77.5889 26.8442 76.8765 27.2742 76.1641 27.5699 C 75.4517 27.8656 74.7865 28.0132 74.1684 28.0132 C 73.6308 28.0132 73.1536 27.8922 72.7370 27.6503 C 72.3203 27.4084 72.0180 27.0589 71.8299 26.6022 C 71.7380 26.3793 71.6770 26.1289 71.6461 25.8517 C 71.5199 26.0084 71.3928 26.1574 71.2656 26.2998 C 70.2442 27.4422 69.1285 28.0131 67.9189 28.0131 C 66.7903 28.0131 66.1046 27.5426 65.8627 26.6021 C 65.8284 26.4678 65.8046 26.3259 65.7922 26.1754 L 65.6812 26.2997 C 64.6464 27.4421 63.5245 28.0130 62.3150 28.0130 C 61.6969 28.0130 61.2060 27.8654 60.8431 27.5697 C 60.4802 27.2740 60.3060 26.7768 60.3193 26.0778 C 60.3326 25.3788 60.5879 24.4583 61.0850 23.3159 C 61.5826 22.1735 62.3821 20.7692 63.4840 19.1030 C 64.0754 18.2425 64.4921 17.5235 64.7340 16.9459 C 64.9759 16.3678 64.9488 16.0792 64.6530 16.0792 C 64.4920 16.0792 64.2635 16.1930 63.9678 16.4216 C 63.6721 16.6502 63.3430 16.9526 62.9802 17.3287 C 62.6173 17.7049 62.2478 18.1487 61.8712 18.6592 C 61.4950 19.1702 61.1455 19.7211 60.8231 20.3125 C 60.5007 20.9035 60.1312 21.6225 59.7145 22.4692 C 59.2978 23.3159 58.9012 24.1425 58.5250 24.9487 C 58.0950 25.8897 57.6650 26.8706 57.2350 27.8920 L 53.9288 27.8920 C 54.5469 26.6020 55.1250 25.3925 55.6626 24.2634 C 55.9045 23.7796 56.1397 23.2891 56.3678 22.7920 C 56.5964 22.2944 56.8249 21.8106 57.0535 21.3406 C 57.2816 20.8701 57.4902 20.4401 57.6783 20.0501 C 57.8664 19.6606 58.0278 19.3449 58.1621 19.1030 C 59.1569 17.1678 59.3716 16.2001 58.8073 16.2001 C 58.5383 16.2001 58.1621 16.4953 57.6783 17.0868 C 57.1945 17.6782 56.6502 18.4711 56.0454 19.4658 C 55.4406 20.4601 54.7954 21.5958 54.1102 22.8725 C 53.4250 24.1492 52.7459 25.4730 52.0740 26.8439 L 52.0740 26.8034 L 51.9930 26.9720 C 52.3392 27.2834 52.8063 27.4977 53.3935 27.6153 C 53.3397 28.0720 53.1183 28.4686 52.7283 28.8043 C 52.3388 29.1405 51.8750 29.3624 51.3373 29.4695 C 50.7997 29.5771 50.2421 29.5571 49.6640 29.4090 C 49.0864 29.2614 48.5959 28.9457 48.1926 28.4619 C 47.6283 27.7900 47.3797 26.9162 47.4469 25.8409 C 47.5140 24.7661 47.7288 23.6638 48.0917 22.5352 C 48.4546 21.4062 48.8712 20.3376 49.3417 19.3300 C 49.8122 18.3219 50.1550 17.5224 50.3698 16.9310 C 49.5903 18.3020 48.7841 19.6862 47.9508 21.0839 C 47.1175 22.4815 46.2375 23.7649 45.3098 24.9339 C 44.3827 26.1034 43.4284 27.0844 42.4474 27.8772 C 41.4664 28.6701 40.4517 29.1472 39.4036 29.3086 C 39.1079 29.3624 38.7250 29.3757 38.2546 29.3486 C 37.7841 29.3219 37.3336 29.1738 36.9036 28.9053 C 35.9360 28.3139 35.3312 27.4943 35.0893 26.4458 C 34.8474 25.3977 34.8474 24.2487 35.0893 22.9987 C 35.3312 21.7492 35.7479 20.4454 36.3393 19.0882 C 36.9307 17.7306 37.5826 16.4339 38.2945 15.1972 C 39.0069 13.9610 39.6993 12.8453 40.3712 11.8510 C 41.0431 10.8562 41.5807 10.0772 41.9836 9.5124 C 42.4946 8.8138 43.0993 8.0343 43.7979 7.1743 C 44.4969 6.3138 45.2427 5.4605 46.0355 4.6138 C 46.8288 3.7671 47.6484 2.9476 48.4950 2.1543 C 49.3417 1.3614 50.1817 0.6695 51.0150 0.0781 L 44.1607 2.3357 C 43.8117 1.7986 43.4083 1.3281 42.9512 0.9247 C 42.4945 0.5214 41.9702 0.1990 41.3788 -0.0429 C 40.8417 -0.2577 40.2369 -0.4058 39.5645 -0.4862 C 38.8926 -0.5672 38.1940 -0.4995 37.4683 -0.2848 C 36.7693 -0.0967 36.0502 0.2462 35.3112 0.7433 C 34.5722 1.2404 34.0145 1.8519 33.6379 2.5776 C 33.3693 3.0886 33.1746 3.6462 33.0536 4.2509 C 32.9326 4.8557 32.9055 5.4404 32.9726 6.0047 C 33.0397 6.5695 33.2145 7.0933 33.4969 7.5771 C 33.7793 8.0609 34.1888 8.4238 34.7264 8.6657 C 35.2640 8.8809 35.8083 8.9281 36.3593 8.8071 C 36.9103 8.6861 37.3741 8.4238 37.7503 8.0209 C 37.9655 7.7252 38.1270 7.3957 38.2341 7.0328 C 38.3417 6.6699 38.3551 6.3004 38.2746 5.9242 C 38.8927 5.7090 39.4436 5.7428 39.9275 6.0252 C 40.4113 6.3071 40.6399 6.7976 40.6132 7.4966 C 40.5861 8.3837 40.3308 9.1095 39.8470 9.6737 C 39.3632 10.2380 38.7784 10.6413 38.0932 10.8832 C 37.4080 11.1251 36.6822 11.2122 35.9161 11.1451 C 35.1499 11.0780 34.4713 10.8561 33.8799 10.4799 C 33.1542 10.0232 32.6032 9.4651 32.2270 8.8070 C 31.8508 8.1484 31.6222 7.4360 31.5418 6.6699 C 31.4608 5.9042 31.5080 5.1180 31.6828 4.3113 C 31.8576 3.5051 32.1261 2.7323 32.4890 1.9932 C 32.8519 1.2542 33.2890 0.5751 33.7995 -0.0430 C 34.3100 -0.6611 34.8614 -1.1582 35.4524 -1.5349 C 36.3934 -2.1259 37.3743 -2.5159 38.3957 -2.7039 C 39.4171 -2.8920 40.4319 -2.9120 41.4395 -2.7644 C 42.4476 -2.6163 43.4285 -2.3073 44.3828 -1.8373 C 45.3371 -1.3668 46.2038 -0.7821 46.9833 -0.0835 L 56.6700 -2.5497 C 56.6805 -2.6278 56.6957 -2.7083 56.7152 -2.7902 C 56.8495 -3.3273 57.1652 -3.7978 57.6628 -4.2012 C 58.1599 -4.6045 58.6909 -4.8060 59.2552 -4.8060 C 59.7928 -4.8060 60.2028 -4.6046 60.4847 -4.2012 C 60.7671 -3.7979 60.8409 -3.3274 60.7066 -2.7902 C 60.5723 -2.2254 60.2561 -1.7483 59.7590 -1.3588 C 59.2619 -0.9688 58.7309 -0.7740 58.1666 -0.7740 C 57.7428 -0.7740 57.3985 -0.8950 57.1337 -1.1369 C 56.2185 -0.7826 55.3418 -0.2974 54.5027 0.3198 C 53.3332 1.1798 52.2379 2.1541 51.2165 3.2427 C 50.1951 4.3313 49.2408 5.4737 48.3541 6.6698 C 47.4670 7.8660 46.6474 8.9884 45.8946 10.0365 C 45.1422 11.0846 44.3089 12.2470 43.3951 13.5241 C 42.4813 14.8008 41.6208 16.1446 40.8146 17.5555 C 40.0084 18.9669 39.3298 20.4045 38.7784 21.8698 C 38.2274 23.3346 37.9389 24.7660 37.9117 26.1636 C 37.8850 26.7546 38.0731 27.1984 38.4760 27.4941 C 38.8793 27.7898 39.3765 27.8570 39.9679 27.6955 C 40.6131 27.5074 41.2784 27.1174 41.9636 26.5265 C 42.6488 25.9351 43.3412 25.2094 44.0398 24.3494 C 44.7388 23.4889 45.4379 22.5351 46.1365 21.4865 C 46.8355 20.4384 47.5075 19.3698 48.1522 18.2813 C 48.7974 17.1927 49.4022 16.1175 49.9665 15.0561 C 50.5313 13.9942 51.0551 13.0332 51.5394 12.1732 C 52.3456 10.6951 53.2661 9.1427 54.3008 7.5165 C 55.3356 5.8903 56.4846 4.3717 57.7479 2.9608 C 59.0112 1.5494 60.3822 0.3265 61.8603 -0.7082 L 62.0484 -0.8377 C 61.7327 -0.9239 61.4803 -1.0972 61.2913 -1.3587 C 61.0089 -1.7482 60.9484 -2.2254 61.1099 -2.7901 C 61.2442 -3.3272 61.5599 -3.7977 62.0570 -4.2011 C 62.5541 -4.6044 63.0851 -4.8059 63.6499 -4.8059 C 64.1875 -4.8059 64.5970 -4.6045 64.8794 -4.2011 C 65.1618 -3.7978 65.2356 -3.3273 65.1013 -2.7901 Z" fill="black" fill-rule="evenodd"/>
</svg>
