<svg xmlns="http://www.w3.org/2000/svg" viewBox="20.769 17.374 80.204 33.419">
  <path d="M 66.146 17.430 L 66.444 17.531 L 66.745 17.693 L 67.121 18.030 L 67.383 18.457 L 67.534 18.960 L 67.584 19.532 L 67.541 20.179 L 67.406 20.901 L 67.183 21.702 L 66.869 22.586 L 66.461 23.545 L 65.956 24.567 L 65.353 25.655 L 64.653 26.807 L 63.855 28.026 L 62.958 29.314 L 61.322 31.487 L 61.521 31.474 L 62.137 31.587 L 62.251 31.633 L 62.748 31.968 L 62.833 32.056 L 63.205 32.678 L 63.353 33.451 L 63.269 34.358 L 62.930 35.325 L 58.707 43.259 L 58.625 43.610 L 59.045 43.458 L 59.474 43.145 L 59.956 42.650 L 60.751 41.589 L 61.553 40.258 L 62.056 39.259 L 65.660 31.641 L 65.931 31.469 L 69.321 31.469 L 69.591 31.899 L 69.251 32.607 L 70.023 32.099 L 70.825 31.745 L 71.667 31.537 L 72.762 31.488 L 73.329 31.657 L 73.665 31.892 L 74.036 32.364 L 74.249 32.946 L 74.270 33.178 L 74.903 32.660 L 75.434 32.300 L 75.953 32.003 L 76.458 31.771 L 76.951 31.602 L 77.449 31.500 L 78.238 31.504 L 78.808 31.707 L 78.914 31.772 L 79.350 32.186 L 79.701 32.972 L 79.757 33.798 L 79.573 34.746 L 79.133 35.715 L 75.142 43.101 L 75.004 43.609 L 75.413 43.458 L 75.842 43.145 L 76.324 42.650 L 77.119 41.589 L 77.921 40.258 L 78.812 38.446 L 79.752 36.715 L 80.748 35.226 L 81.794 33.984 L 82.842 32.960 L 83.880 32.143 L 84.899 31.534 L 85.884 31.116 L 86.828 30.891 L 87.700 30.845 L 88.470 30.969 L 89.095 31.257 L 89.671 31.769 L 90.087 32.437 L 90.336 33.220 L 90.410 34.301 L 90.232 35.487 L 89.892 36.501 L 89.354 37.498 L 88.460 38.685 L 87.670 39.486 L 86.830 40.135 L 85.985 40.633 L 85.149 40.975 L 84.336 41.162 L 83.571 41.197 L 82.873 41.080 L 82.442 40.905 L 82.069 40.653 L 81.967 40.548 L 81.849 41.147 L 81.818 41.973 L 81.866 42.434 L 81.988 42.814 L 82.173 43.096 L 82.435 43.315 L 82.741 43.464 L 83.059 43.544 L 83.665 43.554 L 84.389 43.422 L 85.439 43.040 L 86.501 42.442 L 87.833 41.409 L 88.839 40.394 L 89.693 39.258 L 90.056 38.648 L 92.492 33.474 L 91.145 33.474 L 90.874 33.046 L 91.535 31.641 L 91.806 31.469 L 93.435 31.469 L 96.619 24.697 L 96.817 24.534 L 100.620 23.583 L 100.973 23.765 L 100.965 24.001 L 97.485 31.469 L 99.908 31.469 L 100.185 31.883 L 99.606 33.288 L 99.329 33.474 L 96.544 33.474 L 92.742 41.686 L 92.563 42.241 L 92.492 42.681 L 92.516 43.012 L 92.598 43.253 L 92.698 43.394 L 92.855 43.483 L 93.238 43.453 L 94.085 43.089 L 95.313 42.223 L 96.417 41.130 L 97.292 39.988 L 98.034 38.650 L 98.513 38.588 L 99.464 39.580 L 99.511 39.931 L 98.686 41.449 L 97.734 42.797 L 96.693 43.968 L 95.595 44.952 L 94.464 45.738 L 93.324 46.315 L 92.216 46.667 L 91.409 46.777 L 90.500 46.716 L 89.721 46.452 L 89.203 46.111 L 88.792 45.663 L 88.500 45.118 L 88.327 44.475 L 88.304 43.992 L 87.317 44.844 L 86.108 45.684 L 84.874 46.344 L 84.046 46.674 L 83.222 46.910 L 82.395 47.052 L 81.581 47.083 L 80.805 46.983 L 80.068 46.748 L 79.210 46.268 L 78.731 45.828 L 78.238 45.105 L 77.906 44.234 L 77.869 44.017 L 77.121 44.937 L 76.701 45.365 L 76.268 45.740 L 75.825 46.056 L 75.368 46.320 L 74.899 46.524 L 74.421 46.669 L 73.924 46.756 L 73.172 46.773 L 72.477 46.643 L 71.899 46.366 L 71.567 46.074 L 71.325 45.700 L 71.175 45.245 L 71.111 44.460 L 71.241 43.511 L 71.581 42.388 L 72.133 41.077 L 72.936 39.553 L 75.447 35.473 L 75.776 34.674 L 75.784 34.597 L 75.329 34.844 L 73.803 36.355 L 72.438 38.293 L 68.517 46.489 L 68.246 46.660 L 64.857 46.660 L 64.587 46.230 L 69.536 35.929 L 69.833 35.055 L 69.869 34.791 L 69.855 34.683 L 69.758 34.707 L 69.417 34.950 L 68.558 35.956 L 66.573 39.077 L 63.220 45.385 L 62.688 46.490 L 62.418 46.660 L 59.029 46.660 L 58.853 46.382 L 58.529 46.524 L 58.052 46.669 L 57.555 46.756 L 56.803 46.773 L 56.105 46.644 L 55.519 46.369 L 55.176 46.077 L 54.927 45.700 L 54.778 45.255 L 54.720 44.736 L 54.793 43.846 L 55.064 42.784 L 55.535 41.538 L 56.238 40.084 L 57.581 37.818 L 59.051 35.469 L 59.397 34.668 L 59.410 34.573 L 58.972 34.820 L 57.742 36.012 L 55.927 38.259 L 53.639 41.682 L 52.026 44.544 L 51.117 46.487 L 50.845 46.660 L 47.455 46.660 L 47.184 46.232 L 50.408 39.418 L 49.018 39.512 L 47.361 39.411 L 46.388 39.257 L 45.527 42.175 L 45.154 44.319 L 45.097 45.731 L 45.200 46.772 L 45.465 47.708 L 45.719 48.215 L 45.897 48.397 L 46.370 48.679 L 46.817 48.848 L 47.011 49.114 L 47.021 49.749 L 46.850 50.170 L 46.561 50.487 L 46.455 50.562 L 45.959 50.770 L 45.838 50.793 L 44.877 50.765 L 44.135 50.518 L 43.622 50.183 L 43.016 49.654 L 42.510 49.043 L 42.109 48.353 L 41.811 47.589 L 41.515 46.385 L 41.357 45.132 L 41.349 43.418 L 41.520 41.698 L 42.285 38.260 L 41.424 38.025 L 38.762 41.946 L 36.883 44.300 L 35.241 46.080 L 33.519 47.686 L 32.172 48.766 L 31.258 49.374 L 30.337 49.873 L 29.410 50.261 L 28.471 50.535 L 27.537 50.670 L 26.612 50.661 L 25.697 50.508 L 24.802 50.205 L 24.360 49.981 L 23.927 49.709 L 23.497 49.382 L 22.684 48.603 L 21.900 47.627 L 21.394 46.748 L 21.039 45.802 L 20.798 44.489 L 20.769 43.188 L 20.915 41.896 L 21.046 41.248 L 21.220 40.615 L 21.440 39.998 L 21.702 39.398 L 22.010 38.814 L 22.364 38.241 L 22.984 37.419 L 23.962 36.440 L 24.810 35.772 L 25.445 35.375 L 26.132 35.051 L 26.875 34.795 L 27.953 34.567 L 28.804 34.536 L 29.642 34.659 L 30.449 34.935 L 31.164 35.344 L 31.443 35.586 L 31.661 35.153 L 32.161 34.523 L 32.754 34.059 L 33.421 33.728 L 34.161 33.518 L 35.225 33.415 L 36.380 33.496 L 38.937 34.077 L 44.110 26.972 L 48.477 21.735 L 44.720 23.323 L 44.361 23.225 L 43.805 22.469 L 43.171 21.843 L 42.428 21.311 L 41.596 20.887 L 40.797 20.628 L 39.990 20.494 L 38.894 20.508 L 37.839 20.705 L 36.842 21.076 L 35.934 21.609 L 35.139 22.289 L 34.503 23.082 L 34.002 24.055 L 33.624 25.354 L 33.504 26.486 L 33.566 27.354 L 33.787 28.145 L 34.053 28.665 L 34.419 29.089 L 34.904 29.419 L 35.476 29.637 L 36.039 29.698 L 36.599 29.600 L 37.119 29.371 L 37.551 29.046 L 37.919 28.574 L 38.190 27.841 L 38.269 26.705 L 38.497 26.434 L 39.034 26.310 L 39.546 26.298 L 40.024 26.402 L 40.459 26.623 L 40.824 26.955 L 41.076 27.370 L 41.221 27.855 L 41.265 28.400 L 41.214 29.065 L 41.067 29.684 L 40.823 30.254 L 40.482 30.775 L 39.863 31.431 L 39.140 31.950 L 38.320 32.329 L 37.451 32.564 L 36.547 32.649 L 35.621 32.580 L 34.754 32.337 L 33.965 31.925 L 33.299 31.415 L 32.747 30.811 L 32.200 29.904 L 31.813 28.904 L 31.543 27.568 L 31.506 25.949 L 31.750 24.162 L 32.005 23.290 L 32.342 22.466 L 32.759 21.693 L 33.259 20.968 L 34.115 20.005 L 34.758 19.435 L 35.809 18.708 L 36.955 18.135 L 38.177 17.724 L 39.467 17.478 L 40.348 17.415 L 41.235 17.438 L 42.131 17.547 L 43.286 17.824 L 44.605 18.316 L 45.807 18.960 L 47.360 20.107 L 55.704 17.494 L 56.078 17.421 L 56.428 17.653 L 56.718 19.017 L 56.586 19.332 L 55.837 19.808 L 55.150 20.372 L 54.486 21.051 L 53.879 21.816 L 52.740 23.567 L 51.738 25.465 L 50.442 28.490 L 47.238 36.886 L 48.759 37.236 L 50.080 37.373 L 50.655 37.342 L 51.152 37.235 L 51.511 37.087 L 54.094 31.626 L 56.395 27.381 L 58.191 24.437 L 59.911 21.967 L 61.147 20.443 L 62.322 19.212 L 63.071 18.553 L 63.797 18.028 L 64.507 17.638 L 65.176 17.418 L 65.508 17.374 L 65.786 17.374 Z M 35.381 37.333 L 34.069 37.655 L 33.023 38.163 L 32.436 38.623 L 31.940 39.233 L 31.549 39.299 L 30.614 38.721 L 29.861 38.456 L 29.269 38.384 L 28.642 38.428 L 27.790 38.631 L 26.996 38.981 L 25.891 39.766 L 24.794 40.953 L 24.055 42.117 L 23.498 43.568 L 23.342 44.422 L 23.344 45.274 L 23.459 45.854 L 23.682 46.401 L 24.007 46.897 L 24.410 47.306 L 25.093 47.742 L 25.841 48.024 L 26.693 48.157 L 27.233 48.154 L 27.767 48.073 L 28.282 47.914 L 29.322 47.374 L 30.344 46.625 L 31.580 45.426 L 33.417 43.064 L 36.911 37.292 Z M 87.456 33.030 L 87.007 33.163 L 86.306 33.566 L 85.375 34.363 L 84.256 35.664 L 83.255 37.197 L 82.874 37.946 L 82.819 38.206 L 82.837 38.272 L 82.884 38.300 L 83.187 38.303 L 84.021 37.998 L 85.318 37.158 L 86.757 35.784 L 87.356 34.993 L 87.754 34.244 L 87.956 33.588 L 87.980 33.204 L 87.956 33.146 L 87.871 33.088 L 87.675 33.030 Z M 49.806 23.266 L 48.339 25.281 L 47.011 27.416 L 44.969 31.287 L 42.913 35.445 L 43.236 35.563 L 43.580 34.711 L 46.043 29.653 L 48.343 25.598 L 49.222 24.183 L 50.098 22.926 Z M 64.472 22.169 L 62.844 24.178 L 60.384 27.847 L 58.278 31.492 L 57.574 32.832 L 60.097 29.587 L 63.335 24.870 L 64.690 22.542 L 65.050 21.741 L 65.084 21.608 Z" fill="black" fill-rule="evenodd"/>
</svg>
