<svg xmlns="http://www.w3.org/2000/svg" width="800mm" height="600mm" viewBox="0 0 800 600" data-corel-reference="true" data-split-child="true">
<title>Split golden reference: Ayşegül from ayse.svg</title>
<rect x="0" y="0" width="800" height="600" fill="#ffffff"/>
<g id="split-reference-aysegul" fill="none" stroke="#020617" stroke-width="0.22" stroke-linejoin="round" stroke-linecap="round" vector-effect="non-scaling-stroke" data-source-file="ayse.svg" data-label="Ayşegül">
<path id="split-aysegul-path-10" d="M 140.718 276.470 C 140.477 277.238 140.183 278.542 141.159 279.051 C 142.125 279.440 143.120 279.206 144.019 278.788 C 145.504 278.099 146.847 277.044 147.979 276.001 C 149.600 274.506 151.050 272.848 152.382 271.171 C 153.552 269.698 154.677 268.201 155.767 266.685 C 152.620 268.043 149.517 269.502 146.558 271.112 C 144.190 272.401 141.687 274.186 140.718 276.470 L 140.718 276.470 Z"/>
<path id="split-aysegul-path-11" d="M 151.902 177.811 C 149.394 179.596 147.121 181.606 145.061 183.777 C 136.800 192.484 119.836 214.434 113.986 223.568 C 114.658 223.754 122.434 225.140 123.092 225.357 C 133.347 209.774 140.267 188.945 151.902 177.811 L 151.902 177.811 Z"/>
<path id="split-aysegul-path-12" d="M 96.379 228.495 C 94.881 228.457 93.380 228.478 91.884 228.542 C 89.858 228.628 87.857 228.911 85.907 229.379 C 83.944 229.851 82.083 230.540 80.345 231.431 C 78.620 232.315 77.211 233.471 76.110 234.883 L 75.662 235.456 L 75.014 235.037 C 73.261 233.906 71.321 233.022 69.191 232.492 C 67.064 231.962 64.859 231.982 62.700 232.372 L 62.688 232.374 L 62.675 232.376 C 60.403 232.719 58.276 233.409 56.308 234.414 C 54.274 235.452 52.430 236.709 50.793 238.152 C 49.130 239.618 47.667 241.223 46.419 242.949 C 45.220 244.606 44.263 246.372 43.623 248.232 L 43.619 248.241 L 43.616 248.250 C 42.917 250.071 42.588 251.951 42.692 253.862 C 42.791 255.656 43.370 257.333 44.499 258.865 C 45.618 260.384 47.134 261.559 49.011 262.420 C 50.860 263.269 52.843 263.827 54.950 264.002 L 54.964 264.003 L 54.978 264.005 C 57.907 264.340 60.742 263.979 63.416 262.932 C 66.363 261.779 69.041 260.200 71.459 258.395 C 74.214 256.337 76.701 254.035 78.949 251.589 C 81.350 248.978 83.599 246.272 85.696 243.487 C 87.779 240.722 89.800 237.925 91.750 235.093 C 93.272 232.884 94.810 230.682 96.379 228.495 L 96.379 228.495 Z"/>
<path id="split-aysegul-path-16" d="M 126.244 387.325 C 127.522 384.304 129.032 381.323 130.647 378.400 C 133.145 373.878 135.941 369.435 138.887 365.063 C 144.756 356.353 151.094 347.784 158.073 339.531 C 161.013 336.055 164.071 332.628 167.302 329.295 C 170.052 326.459 172.936 323.680 176.012 321.032 C 178.552 318.846 181.255 316.724 184.173 314.810 C 186.506 313.279 189.042 311.838 191.770 310.710 C 195.854 309.020 200.588 308.100 204.850 310.015 C 209.208 312.062 209.477 316.144 208.864 319.555 C 208.395 322.165 207.303 324.786 206.038 327.241 C 204.364 330.489 202.274 333.655 200.043 336.713 C 197.231 340.566 194.100 344.308 190.829 347.958 C 186.867 352.380 182.668 356.694 178.348 360.928 C 173.288 365.887 167.961 370.702 162.474 375.407 C 156.263 380.733 149.838 385.926 143.277 391.018 C 142.150 393.691 141.101 396.526 140.588 399.298 C 140.252 401.122 139.993 403.098 140.165 404.938 C 140.258 405.931 140.480 407.236 141.123 408.127 C 141.375 408.476 141.900 409.132 142.439 409.332 C 143.366 409.723 145.181 409.030 145.959 408.702 C 148.271 407.728 150.428 406.319 152.304 404.935 C 154.938 402.991 157.319 400.816 159.512 398.596 C 162.026 396.053 164.174 393.326 165.971 390.471 L 166.612 389.488 L 183.450 363.060 L 187.185 363.060"/>
<path id="split-aysegul-path-18" d="M 121.732 407.054 C 120.517 408.662 119.128 410.209 117.587 411.696 C 112.629 416.481 106.516 420.468 99.705 423.769 C 92.672 427.176 85.008 429.624 76.783 430.936 C 68.651 432.234 60.491 432.194 52.369 430.856 C 43.717 429.431 36.458 426.045 30.354 421.361 C 25.968 417.994 22.869 414.067 21.493 409.499 C 20.170 405.104 20.000 400.657 20.944 396.207 C 21.909 391.661 23.814 387.290 26.515 383.145 C 29.139 379.120 32.390 375.343 36.337 371.953 C 42.044 367.050 48.728 362.917 56.535 359.952 C 63.383 357.352 70.655 355.647 78.235 354.799 C 76.590 353.729 75.183 352.482 73.992 351.104 C 72.198 349.034 71.083 346.739 70.513 344.323 C 69.870 341.593 70.015 338.787 70.619 336.060 C 71.338 332.820 73.011 329.726 75.139 326.855 C 77.273 323.977 80.132 321.383 83.269 319.068 C 86.844 316.429 90.807 314.100 95.045 312.067 C 99.434 309.962 104.110 308.217 108.999 306.838 C 113.720 305.505 118.645 304.613 123.692 304.331 C 128.512 304.061 133.224 304.512 137.769 305.722 C 142.527 306.989 146.375 309.247 149.508 312.149 C 153.759 316.085 156.132 320.557 156.502 325.588 C 156.865 330.511 155.818 335.304 153.311 339.874 C 150.784 344.482 146.956 348.458 141.980 351.810 C 136.955 355.196 131.080 357.279 124.335 357.950 C 119.302 358.451 113.468 358.312 109.531 355.615 C 107.897 354.495 106.781 353.135 106.227 351.542 C 105.627 349.818 105.746 348.002 106.215 346.269 L 106.395 345.603 L 107.312 345.671 C 110.415 345.899 113.629 345.518 116.614 344.901 C 120.187 344.163 123.596 343.083 126.811 341.720 C 130.159 340.301 133.258 338.599 136.088 336.663 C 138.735 334.853 141.058 332.786 142.765 330.432 C 144.326 328.278 145.078 325.945 145.010 323.502 C 144.936 320.819 143.534 318.385 141.437 316.227 C 139.107 313.829 136.002 311.844 131.866 311.618 C 127.799 311.396 123.917 312.313 120.389 313.749 C 115.951 315.556 111.990 317.989 108.480 320.675 C 104.638 323.612 101.141 326.783 98.055 330.172 C 95.213 333.293 92.726 336.610 90.845 340.108 C 89.598 342.426 88.273 345.431 88.442 347.958 C 88.577 349.339 89.117 350.634 90.034 351.842 C 90.870 352.944 92.084 353.624 93.732 353.911 C 96.581 353.727 99.507 353.731 102.330 354.088 C 105.588 354.500 106.817 356.229 106.495 358.588 C 106.295 359.476 105.645 360.242 104.842 360.888 C 103.541 361.935 101.309 361.934 99.549 361.759 C 94.153 361.223 88.821 361.697 83.651 362.920 C 78.035 364.248 72.815 366.239 68.019 368.767 C 62.924 371.453 58.368 374.630 54.335 378.161 C 50.276 381.715 46.829 385.607 44.157 389.818 C 41.633 393.794 39.950 397.988 39.300 402.356 C 38.691 406.456 39.265 410.524 41.281 414.383 C 42.886 417.451 45.549 419.854 49.666 421.186 C 53.729 422.501 58.027 423.047 62.452 422.948 C 67.204 422.842 71.855 422.160 76.341 421.006 C 80.334 419.979 84.436 418.674 87.924 416.892 C 94.012 413.782 98.872 409.807 102.568 405.074 C 106.139 400.499 107.842 395.560 107.275 390.291 C 106.976 388.555 105.872 386.972 104.463 385.586 C 103.108 384.253 101.425 382.944 99.418 382.147 L 98.421 381.751 L 99.063 381.062 C 100.603 379.408 102.570 378.033 105.087 377.228 C 107.266 376.531 109.566 376.196 111.939 376.377 C 114.214 376.550 116.333 377.107 118.280 377.991 C 120.340 378.927 121.969 380.196 123.151 381.755 C 124.520 383.562 125.559 385.421 126.244 387.325"/>
</g>
</svg>