<svg xmlns="http://www.w3.org/2000/svg" width="800mm" height="600mm" viewBox="0 0 800 600" data-corel-reference="true" data-split-child="true">
<title>Split golden reference: Berkay from ozge.svg</title>
<rect x="0" y="0" width="800" height="600" fill="#ffffff"/>
<g id="split-reference-berkay" fill="none" stroke="#020617" stroke-width="0.22" stroke-linejoin="round" stroke-linecap="round" vector-effect="non-scaling-stroke" data-source-file="ozge.svg" data-label="Berkay">
<path id="split-berkay-path-1" d="M 697.397 369.913 C 697.081 370.944 696.697 372.696 697.974 373.379 C 699.239 373.901 700.542 373.587 701.718 373.026 C 703.663 372.100 705.421 370.684 706.904 369.283 C 709.025 367.277 710.924 365.051 712.667 362.798 C 714.199 360.821 715.673 358.809 717.099 356.775 C 712.979 358.598 708.916 360.558 705.043 362.719 C 701.943 364.449 698.665 366.847 697.397 369.913 L 697.397 369.913 Z"/>
<path id="split-berkay-path-2" d="M 682.378 310.246 C 683.815 307.466 685.244 304.683 686.658 301.895 C 687.789 299.667 688.825 297.344 689.535 294.990 C 689.999 293.456 690.423 291.668 690.342 290.076 C 690.292 289.094 689.891 288.325 688.862 287.838 L 688.840 287.828 L 688.819 287.817 C 687.801 287.275 686.231 288.103 685.415 288.592 C 683.241 289.893 681.260 291.638 679.532 293.347 C 677.143 295.707 675.001 298.280 673.029 300.902 C 670.863 303.782 668.943 306.786 667.236 309.881 C 665.790 312.503 664.440 315.172 663.300 317.902 C 662.308 320.275 661.437 322.711 660.827 325.178 C 660.393 326.932 660.035 328.869 660.116 330.667 C 660.149 331.402 660.313 332.459 661.253 332.759 L 661.327 332.782 L 661.396 332.816 C 662.226 333.219 663.885 332.205 664.485 331.812 C 666.594 330.431 668.504 328.630 670.175 326.877 C 672.493 324.444 674.608 321.850 676.592 319.214 C 678.754 316.338 680.697 313.345 682.378 310.246 L 682.378 310.246 Z"/>
<path id="split-berkay-path-3" d="M 607.833 313.435 C 609.740 313.116 611.565 312.509 613.288 311.719 C 615.936 310.506 618.438 309.079 620.760 307.452 C 623.019 305.867 625.121 304.125 627.010 302.220 C 628.621 300.596 630.163 298.854 631.403 297.007 C 632.115 295.946 633.000 294.469 633.160 293.238 C 633.233 292.683 633.127 292.571 632.470 292.571 C 631.258 292.571 629.493 293.538 628.543 294.108 C 626.313 295.443 624.220 297.091 622.295 298.730 C 619.634 300.995 617.128 303.414 614.725 305.879 C 612.333 308.333 610.042 310.859 607.833 313.435 L 607.833 313.435 Z"/>
<path id="split-berkay-path-4" d="M 657.639 237.421 C 657.331 237.559 656.923 237.815 656.767 237.917 C 655.895 238.488 655.064 239.171 654.287 239.832 C 652.825 241.075 651.455 242.420 650.142 243.776 C 648.389 245.586 646.713 247.456 645.079 249.345 C 640.652 254.463 636.537 259.833 632.575 265.218 C 627.418 272.226 622.640 279.454 618.094 286.761 L 615.846 291.027 C 620.541 285.985 625.157 280.891 629.693 275.745 C 635.107 269.602 640.388 263.347 645.339 256.926 C 647.321 254.357 649.262 251.762 651.120 249.126 C 652.589 247.042 654.015 244.927 655.323 242.767 C 656.081 241.518 656.894 240.106 657.366 238.755 C 657.441 238.543 657.666 237.812 657.639 237.421 L 657.639 237.421 Z"/>
<path id="split-berkay-path-5" d="M 507.931 308.773 C 507.746 309.220 507.529 309.871 507.623 310.339 C 507.670 310.573 507.782 310.704 508.038 310.800 C 509.184 311.226 511.013 310.768 512.111 310.425 C 514.556 309.662 516.970 308.398 519.103 307.142 C 522.053 305.405 524.750 303.343 527.204 301.119 C 530.010 298.575 532.807 295.446 534.094 292.092 C 534.465 291.125 534.882 289.884 534.882 288.861 C 534.882 288.571 534.845 287.995 534.510 287.817 L 534.498 287.810 L 534.486 287.803 C 532.830 286.864 530.868 287.226 529.162 287.872 C 526.402 288.915 523.884 290.581 521.704 292.340 C 518.879 294.617 516.361 297.188 514.089 299.872 C 511.721 302.671 509.633 305.641 507.931 308.773 L 507.931 308.773 Z"/>
<path id="split-berkay-path-6" d="M 463.970 276.460 C 464.762 275.760 465.515 275.021 466.188 274.240 C 466.789 273.543 467.392 272.821 467.915 272.080 C 469.235 270.208 470.256 268.176 471.066 266.108 C 471.958 263.829 472.529 261.477 472.797 259.087 C 473.065 256.692 473.037 254.273 472.695 251.884 C 472.418 249.949 471.829 248.078 470.872 246.316 C 466.185 248.941 462.761 252.714 460.235 256.966 C 457.214 262.050 454.726 267.359 452.676 272.780 C 456.600 273.572 460.393 274.886 463.970 276.460 L 463.970 276.460 Z"/>
<path id="split-berkay-path-13" d="M 490.967 306.989 C 493.971 302.318 497.463 297.808 501.570 293.843 C 505.620 289.933 510.269 286.138 515.483 283.366 C 519.395 281.285 523.810 279.535 528.412 278.976 C 531.804 278.563 535.486 278.616 538.629 279.953 C 540.935 281.000 542.697 282.530 543.950 284.475 C 545.280 286.540 545.919 288.812 546.056 291.154 C 546.215 293.851 545.715 296.567 544.872 299.160 C 543.874 302.228 542.148 305.077 540.028 307.689 C 537.155 311.228 533.744 314.494 529.659 317.051 C 526.325 319.139 522.584 320.923 518.555 321.814 C 515.360 322.521 511.945 322.759 508.733 321.988 C 506.554 321.464 504.783 320.496 503.448 319.090 C 502.740 321.783 502.353 324.608 502.667 327.325 C 502.948 329.767 504.090 331.744 506.820 332.790 C 509.279 333.836 512.370 333.635 514.965 333.168 C 518.792 332.479 522.410 331.088 525.737 329.359 C 529.678 327.309 533.268 324.785 536.530 322.008 C 539.521 319.463 542.136 316.633 544.307 313.544 L 557.989 289.230 C 556.914 287.154 556.380 284.950 556.314 282.676 C 556.234 279.958 557.237 277.423 558.857 275.107 C 560.482 272.785 562.760 270.711 565.999 270.174 C 568.504 269.761 570.974 269.979 573.054 271.306 C 575.102 272.614 576.021 274.501 576.165 276.646 C 576.251 277.930 575.849 279.161 575.171 280.299 C 574.361 281.659 573.166 282.887 571.905 283.961 C 571.339 284.442 570.436 285.295 570.299 285.996 C 570.219 286.400 570.266 286.768 570.590 287.084 C 571.047 287.528 571.658 287.868 572.275 288.131 C 573.003 288.441 573.744 288.734 574.544 289.008 C 577.475 290.195 579.810 291.964 581.104 294.510 C 582.330 296.923 582.256 299.349 580.880 301.701 L 570.006 321.986 C 568.994 323.760 568.016 325.558 567.158 327.385 C 566.590 328.592 566.028 329.884 565.687 331.153 C 565.564 331.609 565.387 332.473 565.655 332.916 C 565.830 333.206 566.264 333.239 566.606 333.239 C 569.899 333.239 573.089 329.857 574.791 327.811 C 577.506 324.545 579.853 320.955 581.982 317.394 C 582.691 316.134 583.401 314.875 584.111 313.616 C 586.164 309.773 588.254 305.945 590.387 302.134 C 592.263 298.779 594.145 295.427 596.034 292.078 C 597.390 289.673 598.747 287.270 600.112 284.869 C 600.479 284.225 600.844 283.579 601.195 282.928 C 601.312 282.712 601.484 282.423 601.582 282.185 L 601.582 282.096 L 601.690 281.916 C 607.395 272.422 613.469 263.038 620.133 254.005 C 622.928 250.215 625.841 246.482 628.925 242.859 C 631.554 239.771 634.316 236.750 637.267 233.880 C 639.704 231.510 642.288 229.210 645.069 227.130 C 647.286 225.470 649.689 223.903 652.267 222.669 C 656.201 220.785 660.693 219.862 664.786 221.983 C 667.948 223.751 668.878 226.775 668.846 229.837 C 668.825 231.860 668.403 233.924 667.837 235.885 C 667.104 238.428 666.088 240.936 664.961 243.371 C 663.563 246.396 661.892 249.342 660.091 252.207 C 657.939 255.628 655.581 258.963 653.112 262.225 C 647.700 269.374 641.709 276.275 635.514 282.967 C 638.032 282.084 640.720 281.458 643.342 281.458 C 646.640 281.458 650.387 282.026 652.411 284.486 C 654.198 286.660 654.468 289.228 653.933 291.788 C 653.263 294.995 651.452 298.092 649.401 300.814 C 646.914 304.112 643.924 307.100 640.568 309.780 C 637.064 312.581 633.126 314.914 628.840 316.769 C 624.905 318.470 620.724 319.516 616.337 319.755 C 616.425 321.121 616.731 322.467 617.209 323.777 C 617.787 325.363 618.576 326.886 619.612 328.296 C 620.511 329.520 621.604 330.653 622.941 331.551 C 624.022 332.278 625.230 332.705 626.615 332.705 C 629.997 332.705 634.009 329.393 636.139 327.455 C 639.814 324.112 642.803 320.017 645.283 315.971 C 645.908 314.751 646.572 313.546 647.266 312.353 C 650.786 306.312 654.829 300.190 659.708 294.861 C 663.268 290.974 667.374 287.084 672.023 284.118 C 675.401 281.961 679.321 280.051 683.503 279.339 C 686.705 278.795 690.058 278.783 693.119 279.942 C 694.502 280.529 695.704 281.301 696.596 282.307 L 697.096 281.458 L 716.191 281.458 L 694.414 321.277 L 693.992 321.995 C 692.983 323.763 692.006 325.560 691.148 327.385 C 690.581 328.592 690.019 329.884 689.678 331.153 C 689.555 331.609 689.378 332.473 689.645 332.916 C 689.821 333.206 690.255 333.239 690.597 333.239 C 693.890 333.239 697.080 329.857 698.781 327.811 C 701.039 325.095 703.028 322.165 704.855 319.226 C 705.821 317.389 706.847 315.574 707.904 313.774 C 710.735 308.956 713.587 304.098 716.710 299.411 C 718.937 296.070 721.239 292.763 723.632 289.505 C 725.509 286.949 727.361 284.372 729.285 281.842 L 729.578 281.458 L 748.846 281.458 L 747.886 282.749 C 745.232 286.315 742.660 289.925 740.159 293.590 C 737.745 296.929 735.469 300.339 733.284 303.784 C 731.061 307.290 728.959 310.858 727.037 314.506 C 725.447 317.366 723.903 320.255 722.510 323.185 C 721.566 325.170 720.639 327.244 719.987 329.314 C 719.693 330.249 719.273 331.744 719.436 332.715 C 719.457 332.843 719.515 333.086 719.627 333.184 C 719.683 333.235 719.795 333.239 719.869 333.239 C 720.136 333.228 720.815 332.799 721.018 332.662 C 721.913 332.057 722.762 331.296 723.529 330.578 C 726.045 328.223 728.367 325.653 730.571 323.085 C 733.489 319.687 736.245 316.181 738.900 312.631 C 741.762 308.804 744.583 304.954 747.358 301.079 C 749.910 297.515 752.389 293.911 754.759 290.256 C 756.542 287.506 758.317 284.733 759.968 281.923 L 760.241 281.458 L 779.105 281.458 L 778.479 282.643 C 775.322 288.629 772.000 294.554 768.640 300.459 C 765.374 306.201 762.168 311.969 758.919 317.718 C 755.947 322.975 752.995 328.241 750.068 333.517 C 754.232 331.096 758.168 328.401 761.848 325.460 C 766.586 321.671 770.287 317.139 773.136 312.180 L 773.758 311.098 L 780.000 316.640 L 779.740 317.152 C 776.472 323.598 771.343 328.939 764.918 333.313 C 758.209 337.880 751.006 341.885 743.445 345.352 L 743.142 345.993 C 739.809 352.007 735.985 357.827 731.555 363.294 C 727.795 367.934 723.500 372.415 718.539 376.167 C 714.684 379.084 710.189 381.676 705.199 382.930 C 700.799 384.035 696.555 383.620 692.755 381.392 C 689.964 379.756 687.913 377.582 687.029 374.779 C 686.094 371.812 686.920 368.820 688.447 366.110 C 689.804 363.547 691.784 361.331 694.217 359.438 C 696.860 357.382 699.781 355.586 702.838 354.002 C 706.240 352.240 709.777 350.665 713.391 349.242 C 717.185 347.748 720.991 346.273 724.805 344.817 C 726.565 342.048 728.285 339.260 729.967 336.455 C 730.336 335.839 730.703 335.223 731.069 334.605 C 728.584 337.007 725.945 339.296 723.132 341.385 C 719.967 343.737 715.484 346.486 711.087 346.486 C 708.333 346.486 705.597 345.986 703.376 344.533 C 701.226 343.125 700.189 341.006 699.746 338.794 C 694.939 343.316 688.971 346.486 681.606 346.486 C 675.278 346.486 671.310 344.033 670.055 339.153 C 666.620 341.802 662.748 344.126 658.458 345.623 C 654.110 347.139 649.785 347.050 645.735 344.929 C 642.256 342.993 640.845 339.739 640.402 336.395 C 639.626 337.173 638.823 337.932 637.990 338.667 C 632.499 343.510 625.855 346.486 617.833 346.486 C 615.089 346.486 612.655 345.617 610.525 344.167 C 608.176 342.568 606.319 340.540 604.846 338.318 C 603.131 335.731 601.972 332.885 601.189 329.998 C 600.564 327.694 600.214 325.341 600.117 322.980 C 598.430 325.180 596.814 327.419 595.271 329.695 C 593.225 332.714 591.278 335.783 589.446 338.900 L 585.415 345.953 L 566.097 345.953 L 566.763 344.745 C 563.981 345.869 560.999 346.486 557.824 346.486 C 532.785 346.486 561.587 314.821 563.652 300.573 C 564.318 299.533 564.745 298.392 564.678 297.197 C 564.639 296.500 564.373 295.896 563.941 295.363 L 550.173 320.216 L 549.863 319.952 C 546.583 324.391 542.786 328.530 538.455 332.267 C 533.722 336.351 528.435 339.996 522.555 342.818 C 517.453 345.268 511.927 347.048 506.086 347.637 C 500.771 348.173 495.763 347.368 491.224 344.933 C 488.772 343.617 486.899 341.813 485.546 339.632 C 484.236 337.520 483.505 335.199 483.162 332.839"/>
<path id="split-berkay-path-14" d="M 483.162 332.839 C 481.114 335.833 478.749 338.660 476.099 341.299 C 472.838 344.546 469.191 347.490 465.173 350.055 C 459.229 353.849 452.624 356.797 445.698 359.063 C 438.306 361.483 430.635 363.179 422.804 364.182 C 414.902 365.193 406.917 365.440 398.952 364.900 C 391.233 364.377 383.683 362.953 376.497 360.482 C 369.498 358.075 363.199 354.653 357.687 350.263 C 351.893 345.648 347.801 339.983 345.097 333.655 C 342.887 328.482 341.886 323.058 342.322 317.564 C 342.734 312.363 344.418 307.439 347.700 303.024 C 349.102 301.139 350.880 299.433 352.763 297.887 C 354.780 296.229 357.006 294.773 359.438 293.581 C 361.788 292.430 364.321 291.660 367.008 291.342 C 369.742 291.019 372.390 291.394 374.899 292.399 C 376.992 293.290 378.750 294.533 380.162 296.114 C 381.573 297.695 382.402 299.479 382.559 301.503 C 382.559 302.622 382.528 304.228 382.082 305.274 C 381.713 306.135 381.014 306.771 379.973 307.037 C 379.029 307.278 378.009 307.271 377.041 307.153 C 375.938 307.019 374.833 306.905 373.675 306.795 C 371.974 306.531 369.897 307.093 368.356 307.632 C 365.794 308.530 363.711 310.296 362.082 312.161 C 359.919 314.636 358.558 317.718 357.645 320.681 C 356.500 324.394 356.474 328.208 357.244 331.978 C 358.102 336.173 360.265 340.012 363.141 343.469 C 366.429 347.423 371.006 350.071 376.282 351.801 C 384.003 354.333 392.098 355.316 400.350 355.037 C 408.996 354.745 417.432 353.337 425.560 350.816 C 433.671 348.301 441.218 344.795 448.091 340.350 C 454.590 336.147 460.178 331.115 464.348 325.124 C 466.148 322.292 467.499 319.286 468.432 316.168 C 469.375 313.013 469.757 309.792 469.553 306.544 C 469.354 303.390 468.596 300.314 467.217 297.380 C 465.992 294.772 464.239 292.457 461.929 290.473 C 461.022 290.928 460.086 291.340 459.122 291.699 C 458.013 292.112 456.891 292.501 455.758 292.863 C 454.102 293.502 452.403 294.065 450.685 294.570 C 448.974 295.075 447.248 295.539 445.509 295.969 L 442.722 303.929 C 440.849 308.277 439.055 312.638 437.287 317.004 C 435.167 322.235 432.477 327.282 429.267 332.092 C 426.142 336.775 422.311 341.062 417.687 344.746 C 413.181 348.338 407.845 350.276 401.650 350.401 C 400.062 350.401 398.511 350.165 397.060 349.617 C 395.395 348.986 394.550 347.778 394.384 346.199 C 394.384 345.380 394.540 344.596 394.861 343.846 C 395.241 342.957 395.906 342.082 396.561 341.323 C 397.547 340.178 398.515 339.022 399.479 337.864 C 400.993 336.045 402.479 334.207 403.959 332.366 C 408.169 326.872 411.868 321.103 415.068 315.136 C 418.731 308.304 422.166 301.372 425.491 294.415 C 424.588 293.889 423.897 293.136 423.362 292.316 C 422.727 291.343 422.204 290.224 422.193 289.097 C 422.045 287.523 422.370 285.992 423.111 284.544 C 423.868 283.062 424.878 281.691 426.072 280.436 C 427.290 279.155 428.674 278.002 430.213 277.004 C 431.449 276.203 432.741 275.437 434.091 274.778 C 435.758 271.021 437.614 267.325 439.643 263.699 C 441.687 260.045 444.036 256.515 446.725 253.176 C 449.231 250.063 452.088 247.158 455.334 244.584 C 458.033 242.443 461.070 240.720 464.436 239.485 C 460.017 236.167 454.791 234.059 448.994 232.940 C 442.359 231.659 435.689 231.608 429.023 232.766 C 422.278 233.937 416.083 236.264 410.475 239.656 C 404.807 243.085 400.880 247.621 398.605 253.214 C 397.383 256.217 397.416 259.162 399.264 261.958 C 401.021 264.615 403.673 266.087 407.209 266.519 C 410.330 266.836 413.277 266.410 415.981 265.030 C 418.524 263.731 420.364 261.941 421.420 259.580 L 421.714 258.923 L 422.526 259.052 C 424.511 259.369 426.582 259.961 428.120 261.117 C 429.324 262.020 430.312 263.098 430.897 264.378 C 431.439 265.564 431.637 266.798 431.481 268.063 C 431.353 269.095 431.156 270.143 430.812 271.168 C 430.140 272.884 428.949 274.441 427.596 275.811 C 425.938 277.491 423.834 278.749 421.510 279.679 C 418.932 280.711 416.175 281.299 413.344 281.534 C 410.174 281.798 406.970 281.495 403.899 280.798 C 400.495 280.026 397.447 278.530 394.742 276.631 C 391.715 274.506 389.501 271.817 387.979 268.746 C 385.836 264.423 384.900 259.859 385.825 255.201 C 386.699 250.798 388.717 246.763 391.741 243.113 C 394.932 239.261 398.853 235.925 403.237 233.055 C 407.811 230.061 412.733 227.499 417.949 225.399 C 423.011 223.362 428.276 221.710 433.706 220.540 C 438.517 219.503 443.523 218.871 448.496 219.002 C 454.702 219.004 460.810 219.812 466.680 221.539 C 472.193 223.161 477.219 225.596 481.465 229.018 C 485.641 232.386 488.580 236.463 490.399 241.107 C 492.456 246.358 492.295 251.993 491.059 257.372 C 489.906 262.383 487.847 267.134 484.769 271.520 C 481.925 275.573 478.469 279.232 474.430 282.455 C 478.561 285.531 482.164 289.043 485.167 292.961 C 488.127 296.824 490.243 301.084 490.864 305.711 C 490.906 306.141 490.940 306.566 490.967 306.989"/>
</g>
</svg>