<svg xmlns="http://www.w3.org/2000/svg" width="800mm" height="600mm" viewBox="0 0 800 600" data-corel-reference="true" data-split-child="true">
<title>Split golden reference: Elif from ayse.svg</title>
<rect x="0" y="0" width="800" height="600" fill="#ffffff"/>
<g id="split-reference-elif" fill="none" stroke="#020617" stroke-width="0.22" stroke-linejoin="round" stroke-linecap="round" vector-effect="non-scaling-stroke" data-source-file="ayse.svg" data-label="Elif">
<path id="split-elif-path-6" d="M 428.959 177.809 C 428.715 177.921 428.398 178.123 428.277 178.204 C 427.590 178.658 426.937 179.197 426.324 179.718 C 425.168 180.703 424.082 181.760 423.035 182.825 C 421.631 184.253 420.282 185.723 418.965 187.206 C 415.399 191.222 412.102 195.449 408.938 199.688 C 404.837 205.181 401.115 210.888 397.634 216.665 L 397.018 217.711 C 400.522 214.082 403.948 210.402 407.292 206.671 C 411.451 202.029 415.526 197.323 419.407 192.516 C 420.966 190.586 422.491 188.632 423.940 186.644 C 425.083 185.077 426.188 183.481 427.187 181.847 C 427.767 180.900 428.388 179.832 428.750 178.810 C 428.806 178.651 428.975 178.108 428.959 177.809 L 428.959 177.809 Z"/>
<path id="split-elif-path-14" d="M 401.166 421.236 C 398.632 420.022 396.391 418.521 394.475 416.718 C 391.443 413.865 389.058 410.693 387.235 407.330 C 385.283 403.728 383.931 399.970 383.090 396.143 C 382.235 392.254 381.650 388.334 381.358 384.400 C 381.080 380.651 381.026 376.891 381.250 373.139 C 381.437 370.010 381.614 366.858 382.006 363.740 C 392.382 321.481 390.818 340.007 361.257 379.510 C 358.034 384.794 354.507 389.978 350.681 395.039 C 346.848 400.109 342.322 404.859 337.115 409.214 C 331.736 413.713 325.382 417.389 317.957 419.874 C 311.304 422.101 304.257 423.521 296.936 423.749 C 290.197 423.958 283.617 423.201 277.370 421.313 C 271.496 419.537 266.559 416.815 262.942 412.953 C 259.127 408.879 257.667 404.100 257.600 399.204 C 257.515 392.835 260.792 386.346 264.703 380.762 C 266.660 377.968 269.215 375.451 272.190 373.204 C 275.248 370.892 278.707 368.933 282.529 367.360 C 286.294 365.810 290.318 364.707 294.551 364.105 C 298.818 363.497 303.110 363.596 307.336 364.348 C 310.899 364.921 313.958 366.217 316.536 368.119 C 319.172 370.065 320.830 372.397 321.446 375.127 C 321.661 376.275 321.841 377.761 321.420 378.886 C 321.052 379.871 320.170 380.586 318.720 380.586 C 316.179 380.586 312.759 379.428 310.525 378.603 C 307.567 377.511 304.298 377.162 301.018 377.253 C 297.531 377.351 294.155 377.888 290.963 378.935 C 287.802 379.971 284.885 381.314 282.302 383.014 C 279.735 384.704 277.441 386.598 275.469 388.677 C 273.512 390.741 271.935 392.967 270.752 395.331 C 269.638 397.554 268.916 399.874 268.770 402.260 C 268.503 405.012 269.145 407.664 270.815 410.128 C 272.480 412.586 275.137 414.225 278.636 415.153 C 283.443 416.428 288.443 416.854 293.480 416.154 C 298.473 415.459 303.129 414.033 307.430 412.049 C 312.132 409.880 316.398 407.249 320.247 404.309 C 324.303 401.212 328.081 397.923 331.560 394.465 C 334.909 391.135 338.105 387.717 341.083 384.200 C 343.619 381.206 346.133 378.200 348.595 375.173 C 352.968 369.550 357.159 363.850 361.146 358.073 C 365.094 352.353 368.999 346.616 372.861 340.864 C 376.728 335.101 380.712 329.381 384.809 323.705 C 388.376 318.764 392.187 313.919 396.213 309.173 L 376.009 317.190 L 375.500 316.612 C 373.820 314.706 371.804 312.965 369.379 311.555 C 366.944 310.140 364.208 309.033 361.323 308.163 C 357.707 306.977 353.871 306.348 349.919 306.400 C 346.078 306.450 342.343 306.980 338.768 308.015 C 335.235 309.037 332.026 310.476 329.175 312.323 C 326.411 314.114 324.126 316.210 322.416 318.614 C 321.037 320.552 320.074 322.664 319.386 324.788 C 318.642 327.083 318.339 329.427 318.551 331.784 C 318.748 333.967 319.493 336.056 320.905 337.983 C 322.285 339.869 324.400 341.165 327.058 342.009 C 329.732 342.758 332.453 342.911 335.201 342.303 C 337.845 341.718 340.041 340.650 341.784 339.073 C 342.895 337.941 343.632 336.664 344.075 335.308 C 344.532 333.912 344.655 332.489 344.380 331.067 L 344.260 330.448 L 345.064 330.250 C 348.287 329.456 351.668 329.350 354.562 330.819 C 357.484 332.302 358.608 334.735 358.871 337.263 C 359.018 339.209 358.633 341.118 357.612 342.915 C 356.620 344.660 355.207 346.221 353.430 347.587 C 351.625 348.974 349.556 350.133 347.272 351.057 C 345.126 351.926 342.852 352.659 340.477 353.110 C 337.372 353.699 334.156 353.702 331.011 353.280 C 327.731 352.840 324.666 351.956 321.846 350.643 C 318.594 349.223 315.978 347.317 314.079 344.906 C 312.230 342.559 310.900 340.041 310.095 337.393 C 309.277 334.704 308.960 331.939 309.103 329.187 C 309.242 326.531 309.651 323.878 310.420 321.270 C 311.847 316.846 314.374 312.764 318.130 309.161 C 321.760 305.678 326.166 302.815 331.334 300.636 C 336.521 298.448 342.121 296.978 347.998 296.185 C 354.016 295.373 360.043 295.459 366.020 296.426 C 370.668 297.091 375.109 298.285 379.296 299.908 C 383.195 301.420 386.893 303.206 390.253 305.306 L 415.050 295.759 L 420.776 300.177 L 420.505 300.634 C 416.195 307.919 412.717 315.461 410.242 323.199 C 407.820 330.766 405.921 338.423 404.561 346.133 C 403.189 353.915 402.194 361.733 401.557 369.567 C 401.078 375.461 400.623 381.355 400.192 387.251 C 403.458 379.448 407.319 371.785 411.763 364.302 C 417.262 355.040 423.446 346.004 430.307 337.250 C 432.433 334.537 434.581 331.835 436.767 329.147 C 439.522 325.758 442.504 322.466 445.629 319.257 C 449.014 315.781 452.632 312.431 456.440 309.204 C 460.147 306.064 464.193 303.130 468.617 300.540 C 472.606 298.206 477.005 296.284 481.812 295.026 C 486.357 293.836 491.002 293.582 495.724 294.369 C 498.443 294.870 500.966 295.814 502.647 297.512 C 503.912 298.788 504.917 300.262 505.098 301.859 L 505.166 302.457 L 504.388 302.637 C 497.474 304.231 491.072 306.678 485.223 309.826 C 479.143 313.099 473.476 316.765 468.261 320.769 C 463.000 324.809 458.069 329.078 453.502 333.554 C 449.139 337.830 444.903 342.178 440.835 346.625 C 437.843 349.743 434.972 352.930 432.145 356.126 C 428.605 360.128 425.262 364.226 422.071 368.384 C 418.648 372.846 415.477 377.412 412.538 382.058 C 409.769 386.437 407.397 390.986 405.719 395.659 C 405.302 396.820 404.939 397.997 404.646 399.184"/>
<path id="split-elif-path-20" d="M 492.550 241.371 C 489.397 244.261 485.768 246.759 481.824 248.908 C 476.601 251.753 470.908 253.798 464.800 254.894 C 458.761 255.978 452.701 255.944 446.669 254.827 C 440.244 253.636 434.853 250.809 430.320 246.897 C 427.062 244.086 424.761 240.806 423.739 236.991 C 422.756 233.321 422.630 229.607 423.331 225.892 C 424.047 222.095 425.462 218.445 427.468 214.984 C 429.417 211.622 431.832 208.468 434.763 205.637 C 439.001 201.543 443.965 198.091 449.762 195.615 C 454.848 193.443 460.249 192.020 465.879 191.311 C 464.657 190.418 463.612 189.376 462.727 188.226 C 461.396 186.497 460.567 184.580 460.144 182.563 C 459.667 180.283 459.774 177.940 460.223 175.662 C 460.756 172.956 461.999 170.373 463.580 167.975 C 465.164 165.572 467.288 163.405 469.617 161.472 C 472.273 159.269 475.215 157.323 478.363 155.625 C 481.622 153.868 485.095 152.411 488.726 151.259 C 492.233 150.146 495.890 149.401 499.638 149.165 C 503.217 148.940 506.717 149.317 510.092 150.327 C 513.626 151.385 516.484 153.271 518.811 155.694 C 521.968 158.981 523.730 162.715 524.005 166.917 C 524.274 171.029 523.497 175.031 521.635 178.848 C 519.758 182.695 516.915 186.016 513.219 188.816 C 509.487 191.643 505.124 193.383 500.116 193.943 C 496.377 194.361 492.044 194.245 489.120 191.992 C 487.908 191.058 487.080 189.922 486.667 188.592 C 486.222 187.152 486.310 185.635 486.658 184.188 L 486.793 183.632 L 487.473 183.688 C 489.778 183.879 492.165 183.561 494.381 183.046 C 497.034 182.429 499.567 181.527 501.955 180.389 C 504.441 179.204 506.742 177.783 508.845 176.166 C 510.809 174.654 512.536 172.928 513.803 170.963 C 514.963 169.163 515.520 167.215 515.470 165.175 C 515.415 162.934 514.374 160.902 512.816 159.100 C 511.086 157.097 508.780 155.440 505.708 155.251 C 502.689 155.065 499.805 155.831 497.185 157.030 C 493.889 158.539 490.948 160.572 488.341 162.814 C 485.488 165.267 482.890 167.915 480.598 170.745 C 478.488 173.352 476.640 176.122 475.243 179.043 C 474.318 180.979 473.334 183.488 473.459 185.598 C 473.559 186.752 473.960 187.833 474.642 188.842 C 475.262 189.762 476.164 190.330 477.387 190.570 C 479.503 190.416 481.676 190.419 483.772 190.718 C 486.192 191.062 487.105 192.505 486.867 194.476 C 486.718 195.218 486.235 195.857 485.639 196.396 C 484.673 197.270 483.015 197.270 481.708 197.123 C 477.700 196.676 473.741 197.072 469.901 198.093 C 465.730 199.202 461.853 200.865 458.292 202.976 C 454.507 205.219 451.125 207.872 448.130 210.821 C 445.115 213.789 442.555 217.039 440.570 220.556 C 438.696 223.876 437.446 227.379 436.963 231.027 C 436.510 234.450 436.937 237.847 438.435 241.070 C 439.626 243.633 441.605 245.639 444.661 246.752 C 447.679 247.850 450.871 248.305 454.157 248.223 C 457.687 248.135 461.141 247.564 464.472 246.601 C 467.437 245.744 470.484 244.654 473.074 243.166 C 477.596 240.568 481.206 237.249 483.950 233.296 C 486.601 229.476 487.866 225.351 487.446 220.951 C 487.224 219.501 486.404 218.179 485.357 217.022 C 484.351 215.909 483.101 214.815 481.610 214.150 L 480.870 213.819 L 481.347 213.243 C 482.491 211.863 483.952 210.714 485.821 210.042 C 487.439 209.460 489.148 209.180 490.909 209.331 C 492.598 209.476 494.173 209.941 495.619 210.679 C 497.149 211.461 498.358 212.520 499.236 213.823 C 501.487 217.163 502.533 220.718 502.210 224.427"/>
<path id="split-elif-path-21" d="M 344.742 210.593 C 344.462 210.371 344.199 210.122 343.956 209.844 C 342.595 208.284 342.415 206.465 342.956 204.624 C 343.554 202.589 345.025 200.955 346.967 199.648 C 348.938 198.321 351.196 197.520 353.751 197.520 C 356.016 197.520 357.923 198.214 359.239 199.775 C 360.553 201.332 360.769 203.094 360.233 204.921 C 359.624 206.990 358.229 208.658 356.212 209.969 C 355.868 210.193 355.514 210.402 355.154 210.593"/>
<path id="split-elif-path-22" d="M 367.144 211.540 C 365.987 210.031 365.939 208.299 366.529 206.576 C 367.142 204.551 368.595 202.920 370.536 201.614 C 372.507 200.288 374.764 199.487 377.319 199.487 C 379.584 199.487 381.492 200.180 382.808 201.742 C 384.122 203.298 384.338 205.061 383.801 206.887 C 383.234 208.819 381.958 210.389 380.145 211.642"/>
<path id="split-elif-path-23" d="M 355.154 210.593 L 357.923 210.593 L 357.190 211.554 C 355.163 214.210 353.199 216.898 351.289 219.627 C 349.444 222.114 347.706 224.654 346.038 227.220 C 344.327 229.850 342.633 232.498 341.106 235.206 C 339.908 237.329 338.747 239.479 337.705 241.659 C 336.998 243.136 336.306 244.682 335.829 246.222 C 335.612 246.922 335.308 248.033 335.444 248.757 C 335.463 248.856 335.509 249.037 335.599 249.113 C 335.646 249.153 335.729 249.156 335.791 249.156 C 336.099 249.156 336.930 248.579 337.148 248.419 C 338.198 247.648 339.186 246.697 340.083 245.804 C 342.886 243.012 345.508 240.066 348.031 237.098 C 351.087 233.500 354.027 229.836 356.874 226.123 C 359.465 222.744 362.001 219.317 364.356 215.821 L 367.144 211.540"/>
</g>
</svg>