<svg xmlns="http://www.w3.org/2000/svg" width="800mm" height="600mm" viewBox="0 0 800 600" data-corel-reference="true" data-split-child="true">
<title>Split golden reference: Emrah from yagmur.svg</title>
<rect x="0" y="0" width="800" height="600" fill="#ffffff"/>
<g id="split-reference-emrah" fill="none" stroke="#020617" stroke-width="0.22" stroke-linejoin="round" stroke-linecap="round" vector-effect="non-scaling-stroke" data-source-file="yagmur.svg" data-label="Emrah">
<path id="split-emrah-path-1" d="M 769.958 239.928 C 769.673 240.027 769.154 240.418 768.990 240.548 C 768.164 241.203 767.374 242.005 766.642 242.772 C 765.304 244.176 764.050 245.693 762.847 247.224 C 761.245 249.264 759.712 251.371 758.219 253.500 C 754.174 259.264 750.416 265.312 746.796 271.377 C 742.103 279.241 737.804 287.391 733.758 295.640 L 731.046 301.751 C 735.667 295.745 740.174 289.642 744.556 283.441 C 749.454 276.509 754.239 269.464 758.752 262.249 C 760.563 259.354 762.336 256.431 764.034 253.463 C 765.377 251.115 766.680 248.730 767.877 246.296 C 768.329 245.375 768.764 244.438 769.147 243.483 C 769.417 242.811 769.674 242.105 769.847 241.398 C 769.939 241.023 770.036 240.533 770.001 240.144 C 769.997 240.101 769.984 240.001 769.958 239.928 L 769.958 239.928 Z"/>
<path id="split-emrah-path-2" d="M 679.387 322.231 C 680.699 319.102 682.003 315.969 683.295 312.830 C 684.331 310.313 685.280 307.689 685.931 305.031 C 686.359 303.284 686.748 301.257 686.672 299.445 C 686.624 298.274 686.224 297.349 685.230 296.769 L 685.213 296.760 L 685.198 296.749 C 684.186 296.086 682.713 297.022 681.892 297.628 C 679.894 299.103 678.076 301.075 676.487 303.010 C 674.301 305.674 672.340 308.577 670.535 311.536 C 668.554 314.783 666.797 318.173 665.236 321.662 C 663.914 324.619 662.680 327.628 661.636 330.707 C 660.728 333.386 659.931 336.135 659.372 338.920 C 658.972 340.911 658.644 343.104 658.718 345.143 C 658.753 346.063 658.932 347.298 659.874 347.668 L 659.928 347.689 L 659.978 347.719 C 660.832 348.232 662.370 347.082 662.998 346.575 C 664.935 345.012 666.688 342.976 668.222 340.991 C 670.342 338.247 672.278 335.322 674.092 332.348 C 676.071 329.104 677.848 325.728 679.387 322.231 L 679.387 322.231 Z"/>
<path id="split-emrah-path-5" d="M 534.757 326.242 L 551.125 289.944 L 568.380 289.944 L 565.035 297.256 C 567.126 295.313 569.425 293.558 571.885 292.321 C 575.054 290.728 578.416 289.944 581.931 289.944 C 584.363 289.944 586.399 290.890 587.856 292.954 C 589.065 294.665 589.539 296.701 589.584 298.775 C 594.259 294.526 600.569 289.944 606.746 289.944 C 608.470 289.944 610.076 290.417 611.469 291.493 C 612.866 292.573 613.778 294.050 614.305 295.777 C 614.916 297.783 614.908 299.960 614.618 302.026 C 614.249 304.658 613.197 307.197 611.955 309.498 C 608.236 316.389 604.559 323.302 600.886 330.220 C 599.651 332.548 598.430 334.885 597.243 337.240 C 596.370 338.975 595.509 340.723 594.704 342.494 C 594.167 343.675 593.637 344.887 593.201 346.112 C 593.000 346.681 592.711 347.518 592.672 348.127 C 592.663 348.277 592.658 348.624 592.750 348.755 C 592.793 348.817 592.941 348.821 593.003 348.821 C 596.151 348.821 599.566 344.650 601.310 342.304 C 602.936 340.114 604.408 337.785 605.768 335.404 C 607.288 332.743 608.680 329.995 609.981 327.208 L 609.883 327.105 L 622.938 298.504 C 621.944 296.167 621.452 293.683 621.391 291.120 C 621.319 288.098 622.226 285.280 623.687 282.704 C 625.143 280.139 627.184 277.833 630.087 277.241 C 632.322 276.785 634.527 277.019 636.384 278.480 C 638.211 279.917 639.024 281.991 639.153 284.349 C 639.230 285.760 638.869 287.114 638.265 288.364 C 637.534 289.877 636.454 291.243 635.316 292.438 C 634.765 293.015 633.933 293.992 633.799 294.830 C 633.718 295.343 633.775 295.812 634.108 296.210 C 634.541 296.730 635.116 297.127 635.701 297.434 C 636.370 297.784 637.051 298.117 637.746 298.409 L 637.768 298.418 L 637.788 298.429 C 640.412 299.739 642.512 301.696 643.676 304.519 C 644.774 307.184 644.708 309.858 643.474 312.455 L 633.549 335.281 L 633.546 335.290 C 632.622 337.285 631.727 339.313 630.942 341.373 C 630.421 342.741 629.905 344.204 629.592 345.641 C 629.467 346.212 629.307 347.203 629.577 347.755 C 629.774 348.155 630.215 348.220 630.606 348.220 C 633.690 348.220 636.629 344.398 638.225 342.032 C 640.872 338.108 643.145 333.761 645.197 329.469 C 645.860 327.826 646.575 326.207 647.330 324.609 C 649.071 320.926 650.926 317.291 652.952 313.770 C 654.701 310.730 656.588 307.757 658.670 304.955 C 661.908 300.594 665.646 296.227 669.877 292.899 C 672.938 290.490 676.495 288.351 680.285 287.555 C 683.170 286.950 686.196 286.933 688.927 288.207 L 688.942 288.214 L 688.957 288.221 C 690.275 288.913 691.418 289.840 692.231 291.074 L 692.770 289.944 L 709.808 289.944 L 690.048 334.487 L 689.663 335.294 C 688.740 337.288 687.846 339.314 687.061 341.373 C 686.540 342.741 686.024 344.204 685.711 345.641 C 685.586 346.212 685.427 347.203 685.697 347.755 C 685.893 348.155 686.334 348.220 686.725 348.220 C 689.809 348.220 692.748 344.398 694.344 342.032 C 696.829 338.348 698.976 334.299 700.925 330.281 C 701.572 328.863 702.220 327.445 702.869 326.027 C 704.743 321.702 706.651 317.394 708.598 313.105 C 710.312 309.331 712.029 305.557 713.753 301.788 C 714.990 299.083 716.230 296.377 717.476 293.675 C 717.814 292.943 718.151 292.208 718.475 291.468 C 718.582 291.224 718.751 290.873 718.835 290.606 L 718.835 290.519 L 718.915 290.356 C 724.120 279.676 729.663 269.119 735.743 258.957 C 738.293 254.697 740.950 250.498 743.763 246.424 C 746.160 242.954 748.678 239.558 751.368 236.332 C 753.588 233.671 755.941 231.088 758.474 228.752 C 760.489 226.893 762.672 225.137 765.015 223.754 C 768.537 221.675 772.606 220.598 776.247 222.970 C 779.056 224.798 779.956 227.991 779.982 231.307 C 780.000 233.482 779.657 235.712 779.184 237.825 C 778.570 240.573 777.699 243.284 776.731 245.914 C 775.529 249.177 774.094 252.359 772.545 255.456 C 770.698 259.148 768.673 262.748 766.551 266.272 C 764.072 270.390 761.452 274.417 758.749 278.375 C 756.038 282.344 753.240 286.248 750.381 290.101 C 751.044 289.997 751.714 289.944 752.389 289.944 C 754.112 289.944 755.719 290.417 757.111 291.493 C 758.508 292.573 759.421 294.050 759.947 295.777 C 760.559 297.783 760.550 299.960 760.260 302.026 C 759.891 304.658 758.839 307.197 757.598 309.498 C 753.887 316.372 750.227 323.276 746.628 330.214 C 745.419 332.544 744.222 334.882 743.055 337.236 C 742.193 338.975 741.342 340.725 740.537 342.494 C 739.996 343.683 739.463 344.895 739.007 346.123 C 738.783 346.725 738.487 347.534 738.406 348.176 C 738.391 348.296 738.364 348.624 738.445 348.730 C 738.506 348.809 738.753 348.821 738.836 348.821 C 741.984 348.821 745.400 344.650 747.143 342.304 C 748.979 339.833 750.619 337.182 752.123 334.477 C 753.934 331.221 755.566 327.845 757.079 324.427 L 757.523 323.422 L 762.986 329.402 L 762.777 329.873 C 760.679 334.580 758.378 339.223 755.770 343.643 C 753.630 347.269 751.248 350.805 748.536 353.988 C 744.210 359.063 738.815 362.751 732.155 362.751 C 729.474 362.751 726.794 362.157 724.647 360.387 C 722.313 358.463 721.782 355.296 721.890 352.353 C 721.967 350.272 722.389 348.148 722.918 346.147 C 723.618 343.500 724.553 340.895 725.574 338.369 C 726.896 335.092 728.476 331.901 730.143 328.804 C 732.250 324.889 734.535 321.068 736.898 317.319 L 736.902 317.313 L 736.905 317.307 C 738.153 315.403 739.363 313.461 740.481 311.470 C 741.343 309.934 742.166 308.347 742.853 306.716 C 743.157 305.994 743.681 304.651 743.628 303.846 C 743.606 303.523 743.534 303.473 743.226 303.473 C 741.701 303.473 738.824 306.328 737.813 307.363 C 736.338 308.874 734.936 310.471 733.582 312.101 C 731.935 314.083 730.352 316.127 728.811 318.201 C 725.079 323.226 721.625 328.503 718.351 333.865 C 714.697 339.851 711.309 346.013 708.178 352.317 L 703.791 362.150 L 686.544 362.150 L 687.027 361.072 C 687.108 360.890 687.190 360.708 687.271 360.526 C 684.555 361.973 681.637 362.751 678.517 362.751 C 672.714 362.751 669.137 359.943 668.084 354.324 C 664.907 357.383 661.311 360.076 657.317 361.794 C 653.401 363.477 649.513 363.382 645.880 361.037 L 645.872 361.031 L 645.864 361.026 C 642.692 358.850 641.438 355.151 641.063 351.381 C 640.389 352.270 639.692 353.141 638.970 353.988 C 634.645 359.063 629.249 362.751 622.589 362.751 C 600.054 362.751 624.041 323.081 628.067 311.359 C 628.692 310.157 629.089 308.839 629.027 307.459 C 628.984 306.523 628.660 305.727 628.139 305.037 L 615.551 333.051 C 615.545 333.045 610.200 343.414 609.546 344.503 C 607.543 347.835 605.319 351.069 602.795 353.991 C 598.431 359.046 592.997 362.751 586.322 362.751 C 583.672 362.751 580.997 362.171 578.899 360.378 C 576.636 358.444 576.099 355.271 576.152 352.367 C 576.190 350.284 576.603 348.149 577.132 346.147 C 577.834 343.494 578.792 340.884 579.838 338.361 C 581.196 335.090 582.796 331.901 584.478 328.802 C 586.600 324.891 588.890 321.071 591.256 317.319 L 591.259 317.313 L 591.263 317.307 C 592.507 315.408 593.711 313.468 594.812 311.474 C 595.656 309.946 596.459 308.360 597.110 306.730 C 597.399 306.003 597.891 304.666 597.820 303.863 C 597.791 303.533 597.708 303.473 597.393 303.473 C 596.576 303.473 595.203 304.520 594.589 305.018 C 592.954 306.344 591.424 307.891 589.991 309.450 C 588.118 311.488 586.403 313.704 584.803 315.982 C 582.988 318.566 581.357 321.290 579.893 324.106 C 578.066 327.620 576.341 331.202 574.657 334.793 C 572.744 338.872 570.850 342.963 569.034 347.092 C 566.912 351.915 564.901 356.792 562.936 361.687 L 562.750 362.150 L 545.473 362.150 L 545.968 361.066 C 548.710 355.063 551.447 349.055 554.175 343.045 L 554.178 343.038 L 554.181 343.031 C 555.330 340.622 556.439 338.192 557.511 335.744 C 558.571 333.325 559.654 330.915 560.763 328.520 C 561.751 326.386 562.738 324.250 563.721 322.113 C 564.453 320.522 565.207 318.925 566.025 317.379 C 567.025 315.338 567.993 313.256 568.835 311.137 C 569.387 309.745 569.940 308.232 570.251 306.758 C 570.381 306.145 570.559 305.086 570.349 304.476 C 570.236 304.149 570.037 304.074 569.715 304.074 C 568.236 304.074 565.765 307.130 564.929 308.202 C 563.650 309.841 562.456 311.563 561.315 313.308 C 559.899 315.471 558.555 317.690 557.256 319.932 C 554.051 325.461 551.031 331.118 548.113 336.819 C 544.786 343.321 541.582 349.893 538.486 356.520 L 537.117 359.450 L 537.117 359.303 L 535.810 362.150 L 518.565 362.150 L 520.599 357.639"/>
<path id="split-emrah-path-6" d="M 520.599 357.639 C 517.494 360.815 514.072 363.645 510.424 366.157 C 504.200 370.444 497.417 373.525 490.138 375.176 C 482.946 376.807 475.728 376.757 468.545 375.075 C 460.900 373.284 454.488 369.030 449.094 363.145 C 445.224 358.922 442.489 353.997 441.275 348.266 C 440.105 342.743 439.955 337.154 440.789 331.563 C 441.643 325.843 443.329 320.345 445.719 315.131 C 448.041 310.066 450.919 305.313 454.412 301.047 C 459.462 294.879 465.377 289.678 472.286 285.948 C 478.464 282.612 485.033 280.448 491.882 279.402 C 490.305 278.006 488.971 276.351 487.851 274.512 C 486.272 271.920 485.290 269.047 484.790 266.023 C 484.221 262.598 484.350 259.078 484.884 255.658 C 485.518 251.590 486.996 247.705 488.876 244.102 C 490.762 240.486 493.290 237.226 496.061 234.318 C 499.226 230.997 502.734 228.066 506.486 225.507 C 510.370 222.858 514.510 220.662 518.838 218.926 C 523.013 217.251 527.367 216.129 531.830 215.774 C 536.082 215.436 540.240 216.002 544.250 217.519 C 548.442 219.105 551.831 221.936 554.591 225.570 C 558.341 230.506 560.433 236.111 560.760 242.421 C 561.080 248.608 560.155 254.629 557.940 260.370 C 555.707 266.158 552.324 271.153 547.928 275.364 C 543.493 279.612 538.313 282.224 532.362 283.065 C 527.953 283.689 522.819 283.528 519.368 280.166 C 517.943 278.779 516.971 277.094 516.488 275.119 C 515.962 272.971 516.067 270.707 516.479 268.549 L 516.607 267.876 L 517.258 267.944 C 520.035 268.235 522.910 267.752 525.582 266.967 C 528.767 266.031 531.807 264.662 534.675 262.934 C 537.658 261.136 540.419 258.980 542.942 256.527 C 545.306 254.229 547.381 251.603 548.905 248.614 C 550.306 245.867 550.980 242.890 550.919 239.775 C 550.852 236.350 549.596 233.243 547.714 230.488 C 545.613 227.414 542.812 224.883 539.085 224.593 C 535.439 224.310 531.959 225.474 528.797 227.305 C 524.841 229.595 521.312 232.677 518.183 236.079 C 514.766 239.795 511.654 243.805 508.909 248.092 C 506.380 252.041 504.165 256.239 502.491 260.666 C 501.373 263.621 500.194 267.433 500.346 270.654 C 500.467 272.426 500.954 274.087 501.782 275.637 C 502.553 277.083 503.682 277.976 505.208 278.347 C 507.730 278.113 510.323 278.116 512.823 278.565 C 515.620 279.068 516.647 281.161 516.377 283.993 L 516.375 284.017 L 516.371 284.042 C 516.202 285.110 515.639 286.044 514.951 286.832 C 513.843 288.100 511.905 288.083 510.409 287.872 C 505.593 287.191 500.833 287.793 496.219 289.344 C 491.216 291.026 486.565 293.548 482.293 296.749 C 477.757 300.148 473.703 304.168 470.113 308.637 C 466.500 313.135 463.432 318.060 461.053 323.390 C 458.804 328.426 457.305 333.739 456.726 339.272 C 456.182 344.476 456.695 349.640 458.495 354.538 C 459.937 358.458 462.336 361.527 466.034 363.229 C 469.665 364.900 473.507 365.595 477.461 365.469 C 481.698 365.334 485.845 364.469 489.844 363.007 C 493.404 361.706 497.058 360.052 500.169 357.793 C 505.595 353.852 509.928 348.815 513.221 342.818 C 516.410 337.010 517.930 330.736 517.423 324.047 C 517.154 321.821 516.162 319.793 514.891 318.016 C 513.672 316.311 512.160 314.642 510.354 313.622 L 509.647 313.222 L 510.102 312.527 C 511.450 310.470 513.170 308.756 515.373 307.755 C 517.278 306.889 519.290 306.470 521.365 306.695 C 523.357 306.911 525.213 307.605 526.918 308.706 C 528.720 309.870 530.144 311.447 531.178 313.387 C 533.357 317.475 534.585 321.775 534.757 326.242"/>
</g>
</svg>