<svg xmlns="http://www.w3.org/2000/svg" width="800mm" height="600mm" viewBox="0 0 800 600" data-corel-reference="true" data-split-child="true">
<title>Split golden reference: Emrecan from ayse.svg</title>
<rect x="0" y="0" width="800" height="600" fill="#ffffff"/>
<g id="split-reference-emrecan" fill="none" stroke="#020617" stroke-width="0.22" stroke-linejoin="round" stroke-linecap="round" vector-effect="non-scaling-stroke" data-source-file="ayse.svg" data-label="Emrecan">
<path id="split-emrecan-path-2" d="M 250.363 352.422 C 252.348 350.316 254.266 348.142 255.942 345.894 C 257.138 344.290 258.287 342.561 259.036 340.812 C 259.474 339.787 259.966 338.506 260.010 337.426 C 260.019 337.198 260.010 336.555 259.713 336.376 C 258.888 336.119 257.676 336.841 257.128 337.197 C 256.278 337.749 255.507 338.415 254.810 339.071 C 253.818 340.004 252.907 340.995 252.045 341.996 C 249.702 344.713 247.586 347.566 245.585 350.427 C 242.955 354.191 240.501 358.030 238.140 361.890 C 237.746 362.568 237.335 363.240 236.914 363.909 C 241.791 360.345 246.262 356.483 250.363 352.422 L 250.363 352.422 Z"/>
<path id="split-emrecan-path-3" d="M 197.510 323.803 C 197.182 323.938 196.755 324.179 196.591 324.275 C 195.667 324.820 194.786 325.465 193.962 326.089 C 192.407 327.269 190.942 328.534 189.532 329.809 C 187.642 331.519 185.827 333.279 184.053 335.056 C 179.252 339.864 174.812 344.927 170.551 350.002 C 165.030 356.579 160.018 363.413 155.330 370.331 L 154.500 371.583 C 159.219 367.238 163.832 362.832 168.335 358.364 C 173.936 352.805 179.423 347.169 184.649 341.414 C 186.748 339.103 188.800 336.763 190.753 334.382 C 192.290 332.506 193.778 330.594 195.124 328.638 C 195.904 327.504 196.741 326.225 197.228 325.002 C 197.304 324.811 197.532 324.160 197.510 323.803 L 197.510 323.803 Z"/>
<path id="split-emrecan-path-7" d="M 285.482 266.339 C 282.186 267.762 278.936 269.292 275.837 270.979 C 273.425 272.293 270.733 274.159 269.748 276.494 C 269.376 277.376 269.143 278.454 270.142 279.108 C 270.984 279.660 271.956 279.439 272.830 279.048 C 274.398 278.348 275.833 277.219 277.021 276.131 C 278.775 274.526 280.358 272.754 281.827 270.965 C 283.077 269.441 284.295 267.898 285.482 266.339 L 285.482 266.339 Z"/>
<path id="split-emrecan-path-8" d="M 306.203 232.023 C 307.363 229.977 308.509 227.918 309.541 225.824 C 310.372 224.137 311.145 222.408 311.749 220.655 C 312.138 219.528 312.501 218.190 312.440 217.011 C 312.402 216.280 312.095 215.707 311.310 215.345 L 311.293 215.336 L 311.276 215.328 C 310.499 214.925 309.300 215.542 308.677 215.906 C 307.017 216.875 305.504 218.174 304.183 219.446 C 302.358 221.205 300.722 223.121 299.216 225.074 C 297.562 227.218 296.096 229.456 294.792 231.760 C 293.687 233.714 292.657 235.701 291.785 237.734 C 291.023 239.514 290.337 241.329 289.812 243.168 C 289.448 244.445 289.150 245.900 289.272 247.217 C 289.317 247.701 289.463 248.585 290.094 248.809 L 290.134 248.824 L 290.171 248.841 C 290.812 249.145 292.149 248.377 292.622 248.087 C 294.269 247.074 295.749 245.735 297.036 244.419 C 298.795 242.619 300.382 240.687 301.852 238.718 C 303.464 236.561 304.901 234.319 306.203 232.023 L 306.203 232.023 Z"/>
<path id="split-emrecan-path-9" d="M 251.209 230.936 C 251.069 231.268 250.903 231.754 250.975 232.102 C 251.011 232.276 251.096 232.374 251.292 232.445 C 252.167 232.763 253.564 232.421 254.403 232.166 C 256.270 231.598 258.114 230.657 259.743 229.721 C 261.996 228.427 264.056 226.891 265.930 225.235 C 268.074 223.341 270.210 221.010 271.193 218.512 C 271.476 217.793 271.794 216.869 271.794 216.106 C 271.794 215.890 271.767 215.461 271.510 215.328 L 271.501 215.323 L 271.492 215.318 C 270.227 214.619 268.729 214.888 267.425 215.369 C 265.318 216.147 263.395 217.388 261.729 218.697 C 259.572 220.393 257.648 222.307 255.914 224.307 C 254.105 226.391 252.510 228.603 251.209 230.936 L 251.209 230.936 Z"/>
<path id="split-emrecan-path-15" d="M 187.185 363.060 C 186.961 362.884 186.745 362.696 186.539 362.496 C 184.657 360.665 184.418 358.537 185.294 356.370 C 186.121 353.945 188.076 351.994 190.687 350.432 C 193.341 348.843 196.381 347.884 199.821 347.884 C 202.871 347.884 205.439 348.715 207.213 350.584 C 208.982 352.449 209.290 354.562 208.548 356.750 C 207.727 359.175 205.776 361.106 203.136 362.633 C 202.879 362.781 202.620 362.924 202.357 363.060"/>
<path id="split-emrecan-path-17" d="M 202.357 363.060 L 203.323 363.060 L 180.495 399.205 C 179.451 400.790 178.440 402.395 177.536 404.024 C 176.933 405.111 176.337 406.259 175.940 407.398 C 175.803 407.790 175.594 408.553 175.875 408.936 C 176.076 409.209 176.631 409.239 176.999 409.239 C 180.385 409.239 183.667 406.222 185.416 404.397 C 187.241 402.495 188.884 400.479 190.416 398.442 C 192.292 395.946 194.019 393.383 195.655 390.797 C 195.651 390.652 195.653 390.507 195.660 390.362 C 195.738 388.797 196.261 387.292 197.150 385.871 C 198.061 384.415 199.279 383.100 200.777 381.938 C 202.158 380.869 203.810 379.983 205.762 379.590 L 207.045 379.331 L 207.045 380.313 C 207.045 381.166 207.294 381.979 207.717 382.750 L 227.477 352.220 C 230.088 348.185 233.124 344.281 236.714 340.674 C 239.681 337.692 243.043 334.771 246.875 332.373 C 249.778 330.557 253.136 328.921 256.807 328.102 C 259.873 327.418 262.944 327.466 265.717 328.745 C 270.660 331.130 271.021 335.499 270.146 339.415 C 268.799 345.444 263.941 351.468 259.102 356.320 C 254.304 361.132 248.988 365.652 243.188 369.822 C 238.437 373.236 233.354 376.564 227.918 379.380 L 223.831 386.198 C 227.536 385.715 231.259 384.741 234.661 383.670 C 240.268 381.905 245.595 379.195 250.338 376.395 L 251.334 375.807 L 255.016 381.450 L 254.442 381.826 C 248.582 385.660 242.172 389.112 235.203 391.770 C 229.704 393.868 223.788 395.684 217.722 396.674 C 214.207 402.693 210.692 408.710 207.177 414.728 C 203.910 420.321 200.744 425.945 197.502 431.546 C 194.261 437.145 190.971 442.730 187.831 448.358 L 187.607 448.759 L 164.103 451.060 L 164.898 449.816 C 168.645 443.953 172.386 438.089 176.077 432.207 C 179.757 426.341 183.478 420.491 187.265 414.662 C 187.874 413.725 188.481 412.788 189.087 411.849 C 188.276 412.606 187.439 413.343 186.573 414.058 C 181.659 418.113 175.529 421.052 167.967 421.052 C 162.100 421.052 157.552 419.342 156.016 414.935 C 155.880 414.543 155.776 414.146 155.703 413.745 C 154.569 414.543 153.378 415.297 152.122 415.985 C 149.071 417.656 145.607 419.160 141.923 419.914 C 138.836 420.546 135.697 420.623 132.626 419.910 C 129.480 419.262 127.026 417.651 125.111 415.751 C 122.712 413.370 121.923 410.047 121.732 407.054"/>
<path id="split-emrecan-path-24" d="M 380.145 211.642 L 363.780 240.777 C 363.008 242.097 362.261 243.436 361.605 244.797 C 361.172 245.696 360.742 246.658 360.482 247.603 C 360.388 247.943 360.253 248.586 360.457 248.917 C 360.591 249.132 360.923 249.156 361.184 249.156 C 363.699 249.156 366.136 246.637 367.435 245.114 C 368.774 243.544 369.981 241.883 371.107 240.203 C 372.501 238.121 373.784 235.984 374.999 233.827 C 375.127 233.434 375.256 233.041 375.390 232.650 C 376.457 229.512 377.819 226.421 379.302 223.403 C 381.158 219.627 383.234 215.917 385.422 212.265 C 389.780 204.992 394.487 197.835 399.671 190.943 C 401.854 188.041 404.126 185.179 406.525 182.396 C 408.567 180.027 410.709 177.706 412.994 175.495 C 414.879 173.669 416.887 171.898 419.054 170.299 C 420.787 169.021 422.670 167.817 424.696 166.875 C 427.729 165.464 431.245 164.696 434.410 166.295 C 437.647 168.004 437.847 171.413 437.391 174.262 C 437.044 176.441 436.232 178.630 435.292 180.680 C 434.050 183.393 432.497 186.036 430.840 188.590 C 428.752 191.808 426.426 194.933 423.998 197.981 C 421.055 201.674 417.937 205.276 414.728 208.812 C 410.971 212.954 407.014 216.975 402.939 220.904 C 398.327 225.351 393.555 229.688 388.682 233.941 C 387.846 236.173 387.066 238.541 386.685 240.856 C 386.435 242.378 386.243 244.029 386.371 245.565 C 386.440 246.395 386.605 247.485 387.083 248.229 C 387.270 248.520 387.660 249.068 388.060 249.235 C 388.748 249.561 390.097 248.983 390.674 248.709 C 392.390 247.895 393.993 246.719 395.386 245.563 C 397.343 243.939 399.111 242.123 400.740 240.270 C 402.607 238.145 404.202 235.868 405.535 233.484 L 406.001 232.653 L 410.801 236.809 L 410.572 237.201 C 408.412 240.903 405.962 244.590 403.059 247.929 C 400.864 250.454 398.277 252.927 395.251 254.791 C 392.985 256.187 390.412 257.442 387.677 258.072 C 385.384 258.600 383.053 258.664 380.772 258.069 C 378.436 257.527 376.613 256.182 375.191 254.596 C 373.676 252.905 373.028 250.648 372.780 248.483 C 371.435 250.127 369.975 251.715 368.371 253.185 C 364.689 256.557 360.105 259.023 354.477 259.023 C 351.062 259.023 347.900 258.159 346.296 255.496 C 345.101 253.513 345.168 251.067 345.684 248.785 C 343.349 251.159 340.813 253.432 338.042 255.424 C 335.650 257.145 332.385 259.023 329.084 259.023 C 326.980 259.023 324.890 258.650 323.194 257.567 C 321.426 256.439 320.644 254.697 320.351 252.915 C 320.185 251.902 320.193 250.856 320.307 249.825 C 315.417 252.963 310.212 255.745 304.769 258.178 L 304.538 258.655 C 301.991 263.134 299.072 267.469 295.688 271.540 C 292.829 274.980 289.576 278.318 285.831 281.125 C 282.917 283.309 279.517 285.234 275.717 286.164 C 272.310 286.998 269.046 286.643 266.052 285.019 C 263.933 283.787 262.354 282.179 261.679 280.093 C 260.965 277.883 261.601 275.651 262.765 273.631 C 263.893 271.674 265.462 269.972 267.416 268.530 C 269.517 266.981 271.832 265.625 274.235 264.420 C 276.933 263.068 279.745 261.872 282.622 260.806 C 285.645 259.686 288.657 258.544 291.658 257.382 L 292.183 256.628 C 290.410 257.558 288.510 258.316 286.493 258.799 C 283.583 259.496 280.763 259.231 278.209 257.862 C 274.579 255.917 273.933 252.101 274.099 248.788 C 270.592 251.686 266.696 254.271 262.379 256.291 C 258.482 258.115 254.262 259.441 249.800 259.880 C 245.741 260.278 241.916 259.679 238.449 257.866 C 236.576 256.886 235.145 255.542 234.112 253.918 C 232.958 252.102 232.391 250.081 232.191 248.045 C 232.174 247.872 232.160 247.700 232.148 247.528 C 230.377 248.992 228.469 250.337 226.436 251.550 C 223.422 253.349 220.200 254.890 216.795 256.121 C 213.657 257.255 210.372 258.067 206.980 258.455 L 202.572 262.769 C 203.770 262.565 204.992 262.486 206.234 262.542 C 208.152 262.628 210.016 263.023 211.637 263.902 C 213.245 264.775 214.221 266.048 214.672 267.592 C 215.222 269.476 214.511 271.435 213.495 273.121 C 212.654 274.517 211.487 275.761 210.160 276.862 C 208.685 278.086 207.015 279.129 205.218 280.007 C 203.262 280.961 201.153 281.673 198.974 282.189 C 196.564 282.761 194.045 282.974 191.544 282.875 C 189.692 282.802 187.859 282.521 186.122 281.974 C 184.648 281.510 183.234 280.876 182.054 280.000 C 181.041 279.248 180.176 278.373 179.566 277.362 C 179.041 276.491 178.688 275.544 178.688 274.564 L 178.688 274.160 L 185.225 271.695 L 185.445 272.424 C 185.893 273.913 186.831 275.087 188.492 275.796 C 189.972 276.429 191.511 276.634 193.151 276.210 C 194.792 275.890 196.151 275.220 197.232 274.160 C 198.179 273.231 199.036 272.160 199.485 270.994 C 199.798 270.183 199.866 269.333 199.377 268.561 C 198.924 267.847 197.910 267.878 197.071 268.010 L 190.518 270.299 L 187.403 266.681 L 197.211 258.417 C 195.421 258.121 193.683 257.650 192.041 256.969 L 191.400 256.703 L 194.160 251.468 L 194.742 251.551 C 197.810 251.990 200.512 251.205 202.931 249.622 C 205.744 247.782 207.896 245.449 209.513 242.807 C 211.220 240.016 212.293 237.054 212.709 233.943 C 213.074 231.225 212.718 228.510 211.033 226.085 C 210.847 225.777 210.659 225.480 210.461 225.189 L 203.751 236.744 L 203.810 236.795 L 203.612 237.176 C 201.116 241.977 197.198 245.954 192.291 249.211 C 187.167 252.613 181.665 255.596 175.889 258.178 L 175.658 258.655 C 173.112 263.134 170.192 267.469 166.808 271.540 C 163.936 274.996 160.656 278.333 156.867 281.128 C 153.922 283.300 150.489 285.231 146.677 286.164 C 143.317 286.987 140.075 286.678 137.173 285.018 C 135.041 283.800 133.474 282.181 132.799 280.093 C 132.085 277.884 132.716 275.655 133.882 273.638 C 134.918 271.728 136.431 270.078 138.289 268.669 C 140.308 267.137 142.539 265.799 144.874 264.620 C 147.473 263.307 150.175 262.135 152.934 261.075 C 155.833 259.962 158.739 258.864 161.653 257.779 C 162.997 255.717 164.311 253.641 165.595 251.552 C 165.877 251.093 166.158 250.634 166.437 250.174 C 164.539 251.963 162.523 253.668 160.375 255.224 C 157.957 256.975 154.533 259.023 151.175 259.023 C 149.071 259.023 146.982 258.650 145.285 257.567 C 143.517 256.439 142.735 254.697 142.443 252.915 C 142.041 250.470 142.646 247.735 143.420 245.377 C 143.969 243.709 144.704 242.067 145.504 240.471 C 146.373 238.735 147.335 237.026 148.338 235.338 C 146.908 235.546 145.462 235.668 144.008 235.699 C 139.931 235.785 135.866 235.490 131.861 234.862 C 130.784 237.352 129.854 239.885 129.069 242.449 C 128.261 245.089 127.610 247.764 127.169 250.463 C 126.775 252.872 126.657 255.319 126.933 257.741 C 127.173 259.854 127.804 261.920 129.005 263.802 C 129.829 265.093 132.101 265.863 133.678 266.281 L 134.095 266.392 L 134.186 266.747 C 134.500 267.963 134.429 269.220 133.489 270.240 C 132.667 271.132 131.559 271.666 130.230 271.867 C 128.834 272.077 127.396 271.984 126.018 271.730 C 124.455 271.441 123.049 270.863 121.807 270.023 C 118.424 267.960 116.164 265.214 114.921 261.896 C 113.642 258.480 113.050 254.946 113.050 251.373 C 113.050 247.704 113.485 244.050 114.342 240.451 C 115.032 237.551 115.827 234.633 116.849 231.796 L 112.869 230.896 C 109.991 234.695 106.937 238.409 103.799 242.062 C 100.197 246.255 96.280 250.257 92.082 254.049 C 87.986 257.749 83.569 261.204 78.819 264.321 C 74.615 267.079 69.911 269.379 64.752 270.658 C 60.070 271.820 55.379 271.843 50.729 270.587 C 45.385 269.145 41.183 265.643 37.967 261.936 C 35.993 259.570 34.694 256.963 34.089 254.133 C 33.504 251.396 33.402 248.625 33.843 245.868 C 34.501 240.154 36.977 235.013 41.187 230.444 C 43.436 228.112 46.083 226.092 49.006 224.359 C 52.248 222.438 55.947 221.282 59.846 220.675 C 62.711 220.229 65.553 220.327 68.347 221.022 C 70.691 221.606 72.787 222.554 74.571 223.906 C 75.546 222.114 76.920 220.493 78.867 219.325 C 80.966 218.068 83.353 217.336 85.908 217.027 C 88.767 216.681 91.693 216.815 94.531 217.228 C 97.585 217.673 100.608 218.269 103.589 218.974 C 107.223 214.588 110.931 210.245 114.713 205.947 C 118.627 201.497 122.635 197.101 126.791 192.804 C 129.492 190.013 132.267 187.267 135.024 184.513 C 137.205 182.336 139.462 180.205 141.808 178.147 L 125.005 184.042 L 124.664 183.589 C 122.040 180.106 118.406 177.597 113.834 176.016 C 111.138 175.084 108.272 174.630 105.354 174.673 C 102.509 174.715 99.727 175.134 97.060 175.959 C 94.445 176.767 92.062 177.923 89.940 179.426 C 87.877 180.888 86.188 182.616 84.928 184.608 C 83.895 186.242 83.184 188.035 82.679 189.827 C 82.132 191.767 81.898 193.749 82.058 195.739 C 82.205 197.561 82.757 199.306 83.806 200.916 C 84.834 202.495 86.409 203.578 88.390 204.282 C 90.387 204.993 92.416 205.139 94.492 204.593 C 96.434 204.082 98.084 203.202 99.305 201.835 C 100.136 200.903 100.647 199.832 100.928 198.702 C 101.224 197.517 101.338 196.303 101.234 195.096 L 101.193 194.611 L 101.748 194.458 C 104.200 193.780 106.720 193.729 108.945 194.923 C 111.227 196.149 112.004 198.175 112.004 200.352 C 112.004 203.071 111.145 205.597 109.132 207.759 C 107.247 209.782 104.876 211.311 102.046 212.324 C 99.197 213.344 96.199 213.790 93.097 213.700 C 89.984 213.610 87.105 212.879 84.490 211.480 C 82.143 210.225 80.172 208.631 78.741 206.636 C 77.340 204.684 76.365 202.571 75.778 200.354 C 75.182 198.108 74.933 195.802 75.042 193.503 C 75.145 191.307 75.454 189.116 76.019 186.958 C 77.079 183.264 78.956 179.855 81.746 176.846 C 84.432 173.948 87.674 171.533 91.460 169.665 C 95.269 167.788 99.409 166.561 103.776 165.942 C 108.292 165.303 112.837 165.416 117.328 166.215 C 120.836 166.899 124.240 167.909 127.417 169.321 C 130.441 170.665 133.246 172.319 135.834 174.185 C 138.630 173.265 141.459 172.412 144.302 171.600 C 147.486 170.690 150.689 169.824 153.910 169.009 C 156.858 168.263 159.820 167.548 162.797 166.883 C 165.075 166.374 167.405 165.886 169.729 165.545 L 170.447 165.440 L 171.832 170.859 L 171.343 171.083 C 167.092 173.033 163.634 175.861 160.811 179.117 C 157.605 182.815 154.847 186.766 152.496 190.881 C 150.087 195.096 147.931 199.409 146.058 203.808 C 144.399 207.701 142.692 211.587 140.857 215.426 C 139.906 217.416 138.940 219.402 137.982 221.390 C 136.940 223.552 135.924 225.722 134.925 227.898 C 138.292 228.674 141.762 229.257 145.244 229.479 C 147.733 229.638 150.330 229.430 152.555 228.435 C 153.499 226.933 154.462 225.438 155.470 223.963 C 157.171 221.475 158.929 219.012 160.757 216.586 C 162.190 214.682 163.605 212.763 165.075 210.879 L 165.298 210.593 L 180.015 210.593 L 179.282 211.554 C 177.254 214.210 175.290 216.898 173.380 219.627 C 171.536 222.114 169.798 224.654 168.129 227.220 C 166.431 229.831 164.825 232.488 163.357 235.205 C 162.143 237.335 160.964 239.487 159.900 241.668 C 159.179 243.147 158.471 244.692 157.973 246.234 C 157.748 246.930 157.427 248.043 157.552 248.767 C 157.568 248.862 157.612 249.042 157.698 249.116 C 157.741 249.154 157.826 249.156 157.882 249.156 C 158.087 249.148 158.605 248.829 158.761 248.726 C 159.444 248.277 160.092 247.710 160.678 247.175 C 162.599 245.421 164.373 243.507 166.057 241.595 C 168.285 239.064 170.390 236.452 172.418 233.809 C 174.604 230.958 176.759 228.091 178.878 225.205 C 180.828 222.551 182.721 219.867 184.531 217.145 C 185.893 215.097 187.249 213.032 188.510 210.939 L 188.718 210.593 L 203.126 210.593 L 202.649 211.476 C 200.237 215.933 197.700 220.346 195.134 224.744 C 192.638 229.020 190.191 233.315 187.708 237.597 C 185.438 241.513 183.184 245.434 180.948 249.364 C 184.129 247.560 187.135 245.554 189.946 243.363 C 192.940 241.029 195.400 238.308 197.388 235.332 L 207.583 217.589 C 207.395 214.857 207.986 212.186 209.249 209.654 C 210.665 206.814 212.872 204.327 215.491 202.154 C 217.264 200.757 219.515 199.438 222.021 199.264 C 223.905 199.134 225.707 199.497 226.788 200.872 C 227.923 202.317 227.606 204.209 227.038 205.768 C 226.130 208.258 223.677 210.650 221.492 212.463 C 220.077 213.596 216.961 216.145 216.331 217.712 C 215.933 218.703 216.073 219.610 216.794 220.469 C 217.794 221.663 219.137 222.770 220.433 223.742 C 222.466 225.265 223.926 227.460 225.011 229.522 C 226.327 232.026 226.713 234.622 226.098 237.310 C 225.505 239.906 224.389 242.357 222.727 244.610 C 221.582 246.161 220.236 247.581 218.682 248.842 C 220.579 247.903 222.377 246.827 224.077 245.657 C 226.581 243.932 228.864 242.003 230.921 239.911 C 232.597 238.208 234.109 236.385 235.350 234.441 C 235.637 233.892 235.941 233.348 236.257 232.810 C 238.968 228.209 242.259 223.668 246.351 219.817 C 249.445 216.904 252.995 214.078 256.977 212.013 C 259.966 210.464 263.338 209.161 266.853 208.744 C 269.444 208.437 272.256 208.476 274.657 209.472 C 276.418 210.252 277.764 211.391 278.721 212.840 C 279.737 214.378 280.224 216.069 280.330 217.814 C 280.451 219.822 280.069 221.844 279.425 223.776 C 278.663 226.061 277.344 228.183 275.725 230.128 C 273.530 232.763 270.925 235.196 267.806 237.101 C 265.259 238.656 262.401 239.984 259.324 240.648 C 256.884 241.175 254.276 241.352 251.823 240.777 C 250.158 240.388 248.806 239.666 247.786 238.620 C 247.245 240.625 246.949 242.729 247.189 244.752 C 247.403 246.571 248.276 248.043 250.361 248.822 C 252.240 249.601 254.600 249.452 256.582 249.104 C 259.506 248.591 262.269 247.555 264.809 246.266 C 267.820 244.740 270.562 242.860 273.054 240.792 C 275.400 238.845 277.443 236.675 279.126 234.302 C 279.263 234.068 279.400 233.835 279.539 233.602 C 282.228 229.102 285.315 224.543 289.042 220.575 C 291.761 217.680 294.897 214.783 298.447 212.574 C 300.998 210.985 303.977 209.550 307.133 209.016 C 309.620 208.594 312.159 208.623 314.576 209.469 C 315.563 209.916 316.391 210.501 317.096 211.187 L 317.414 210.593 L 332.188 210.593 L 331.683 211.485 C 329.173 215.923 326.588 220.332 324.014 224.744 C 321.518 229.020 319.071 233.315 316.588 237.597 C 314.318 241.513 312.064 245.434 309.828 249.364 C 313.009 247.560 316.015 245.554 318.825 243.363 C 321.710 241.114 324.104 238.503 326.061 235.652 C 326.256 235.321 326.453 234.990 326.652 234.660 C 328.814 231.072 330.993 227.454 333.378 223.963 C 335.079 221.475 336.837 219.012 338.665 216.586 C 340.099 214.682 341.514 212.763 342.983 210.879 L 343.206 210.593 L 344.742 210.593"/>
</g>
</svg>