<svg xmlns="http://www.w3.org/2000/svg" width="800mm" height="600mm" viewBox="0 0 800 600" data-corel-reference="true" data-split-child="true">
<title>Split golden reference: Güllü from batu.svg</title>
<rect x="0" y="0" width="800" height="600" fill="#ffffff"/>
<g id="split-reference-gullu" fill="none" stroke="#020617" stroke-width="0.22" stroke-linejoin="round" stroke-linecap="round" vector-effect="non-scaling-stroke" data-source-file="batu.svg" data-label="Güllü">
<path id="split-gullu-path-5" d="M 264.789 242.678 C 264.486 242.798 263.949 243.226 263.779 243.369 C 262.915 244.092 262.090 244.964 261.325 245.802 C 259.917 247.342 258.593 248.995 257.317 250.660 C 255.609 252.890 253.970 255.185 252.367 257.502 C 248.033 263.768 244.024 270.366 240.177 276.982 C 235.192 285.553 230.667 294.459 226.435 303.475 L 224.965 306.679 C 229.582 300.577 234.090 294.381 238.480 288.092 C 243.536 280.850 248.488 273.507 253.205 266.008 C 255.101 262.995 256.954 259.945 258.716 256.841 C 260.107 254.393 261.452 251.899 262.668 249.348 C 263.128 248.382 263.571 247.399 263.960 246.399 C 264.234 245.694 264.496 244.954 264.672 244.213 C 264.766 243.819 264.865 243.305 264.829 242.896 C 264.825 242.854 264.813 242.755 264.789 242.678 L 264.789 242.678 Z"/>
<path id="split-gullu-path-6" d="M 227.924 242.678 C 227.621 242.798 227.084 243.226 226.914 243.369 C 226.050 244.092 225.226 244.964 224.460 245.802 C 223.052 247.342 221.727 248.995 220.452 250.660 C 218.745 252.890 217.105 255.185 215.502 257.502 C 211.168 263.768 207.159 270.366 203.312 276.982 C 198.327 285.553 193.802 294.459 189.570 303.475 L 188.100 306.679 C 192.717 300.577 197.225 294.381 201.615 288.092 C 206.670 280.850 211.623 273.507 216.340 266.008 C 218.236 262.995 220.089 259.945 221.852 256.841 C 223.242 254.393 224.587 251.899 225.803 249.348 C 226.263 248.382 226.706 247.399 227.095 246.399 C 227.370 245.694 227.631 244.954 227.807 244.213 C 227.901 243.819 228.000 243.305 227.964 242.896 C 227.960 242.854 227.948 242.755 227.924 242.678 L 227.924 242.678 Z"/>
<path id="split-gullu-path-7" d="M 80.670 355.668 C 80.148 356.077 79.610 356.462 79.061 356.829 C 75.961 359.299 72.493 360.891 68.648 361.403 C 64.920 361.899 61.248 361.541 57.665 360.339 C 54.064 359.132 50.716 357.314 47.657 354.957 C 44.642 352.633 42.053 349.826 40.016 346.504 C 38.714 344.651 37.671 342.643 36.897 340.497 C 34.974 343.468 33.477 346.702 32.386 350.131 C 31.174 353.940 30.611 357.899 30.872 361.917 L 30.872 361.926 L 30.872 361.936 C 30.994 364.797 31.630 367.534 32.833 370.095 C 34.018 372.620 35.785 374.558 38.074 375.970 C 40.549 377.496 43.269 378.302 46.110 378.554 C 49.103 378.820 52.082 378.523 54.991 377.748 C 61.342 376.057 67.038 372.960 71.620 367.937 C 75.039 364.190 78.044 360.064 80.670 355.668 L 80.670 355.668 Z"/>
<path id="split-gullu-path-10" d="M 256.074 294.287 C 254.877 292.078 254.771 289.584 255.348 287.061 C 256.065 283.930 257.830 281.417 260.158 279.406 C 262.521 277.365 265.223 276.131 268.284 276.131 C 270.976 276.131 273.238 277.182 274.803 279.564 C 276.368 281.947 276.621 284.638 275.982 287.431 C 275.358 290.155 274.044 292.425 272.164 294.287"/>
<path id="split-gullu-path-11" d="M 285.760 294.287 C 285.646 294.143 285.536 293.991 285.429 293.833 C 283.796 291.432 283.695 288.625 284.441 285.836 C 285.176 282.716 286.920 280.208 289.247 278.197 C 291.609 276.157 294.312 274.923 297.373 274.923 C 300.065 274.923 302.327 275.974 303.892 278.356 C 305.457 280.738 305.710 283.430 305.071 286.223 C 304.335 289.437 302.608 291.996 300.147 293.996 C 300.025 294.095 299.902 294.192 299.779 294.287"/>
<path id="split-gullu-path-12" d="M 120.104 293.313 C 119.732 291.699 119.808 289.991 120.201 288.270 C 120.919 285.138 122.683 282.625 125.012 280.614 C 127.374 278.574 130.076 277.339 133.138 277.339 C 135.830 277.339 138.091 278.391 139.656 280.773 C 141.222 283.155 141.474 285.847 140.835 288.640 C 140.340 290.800 139.411 292.675 138.110 294.287"/>
<path id="split-gullu-path-13" d="M 152.553 296.253 C 152.552 296.252 152.551 296.251 152.551 296.250 C 150.918 293.848 150.817 291.042 151.563 288.253 C 152.298 285.133 154.042 282.624 156.369 280.614 C 158.731 278.574 161.434 277.339 164.495 277.339 C 167.187 277.339 169.448 278.391 171.014 280.773 C 172.579 283.155 172.832 285.847 172.192 288.640 C 171.580 291.312 170.283 293.532 168.448 295.355"/>
<path id="split-gullu-path-14" d="M 138.110 294.287 L 141.156 294.287 L 140.444 295.487 C 137.979 299.631 135.591 303.826 133.280 308.068 L 133.275 308.078 L 133.270 308.086 C 131.030 311.963 128.917 315.926 126.888 319.932 C 124.808 324.037 122.748 328.170 120.891 332.397 C 119.435 335.712 118.022 339.068 116.755 342.471 C 115.894 344.784 115.051 347.202 114.469 349.613 C 114.198 350.736 113.828 352.483 113.997 353.644 C 114.059 354.068 114.152 354.433 114.600 354.433 C 115.049 354.433 116.055 353.531 116.370 353.234 C 117.653 352.024 118.859 350.534 119.955 349.133 C 123.364 344.776 126.553 340.176 129.620 335.542 C 133.335 329.930 136.909 324.211 140.370 318.418 C 143.520 313.144 146.602 307.797 149.465 302.340 L 152.553 296.253"/>
<path id="split-gullu-path-15" d="M 168.448 295.355 L 148.441 341.082 L 148.439 341.087 C 147.500 343.147 146.590 345.240 145.792 347.366 C 145.262 348.777 144.738 350.287 144.419 351.771 C 144.293 352.360 144.130 353.383 144.405 353.952 C 144.605 354.366 145.053 354.433 145.451 354.433 C 148.585 354.433 151.573 350.488 153.195 348.045 C 154.826 345.592 156.295 342.994 157.666 340.368 C 159.365 337.112 160.928 333.769 162.409 330.396 C 162.564 329.778 162.723 329.162 162.887 328.546 C 164.182 323.659 165.833 318.846 167.633 314.145 C 169.885 308.260 172.406 302.478 175.062 296.787 C 180.354 285.450 186.070 274.293 192.365 263.548 C 195.015 259.026 197.772 254.565 200.685 250.228 C 203.164 246.539 205.762 242.924 208.534 239.478 C 210.820 236.638 213.253 233.882 215.880 231.394 C 217.975 229.410 220.253 227.541 222.703 226.078 C 226.326 223.914 230.534 222.715 234.308 225.162 L 234.314 225.166 L 234.320 225.170 C 238.180 227.786 238.397 233.044 237.855 237.403 C 237.434 240.786 236.452 244.187 235.316 247.370 C 233.808 251.592 231.925 255.708 229.916 259.682 C 227.381 264.696 224.559 269.566 221.611 274.315 C 218.039 280.070 214.252 285.686 210.356 291.198 C 205.794 297.654 200.989 303.921 196.041 310.046 C 190.430 316.992 184.624 323.764 178.696 330.405 C 178.130 332.345 177.606 334.303 177.159 336.278 C 176.788 337.922 176.465 339.589 176.251 341.265 C 175.946 343.653 175.712 346.239 175.868 348.650 C 175.954 349.975 176.159 351.694 176.754 352.883 C 177.005 353.384 177.489 354.250 177.987 354.515 L 178.005 354.525 L 178.023 354.536 C 178.930 355.088 180.592 354.183 181.370 353.709 C 183.470 352.430 185.429 350.586 187.133 348.771 C 189.517 346.231 191.671 343.392 193.656 340.492 C 195.827 337.321 197.696 333.932 199.276 330.387 C 199.430 329.772 199.589 329.159 199.751 328.546 C 201.047 323.659 202.698 318.846 204.498 314.145 C 206.750 308.260 209.271 302.478 211.928 296.787 C 217.220 285.450 222.935 274.293 229.230 263.548 C 231.881 259.026 234.637 254.565 237.550 250.228 C 240.029 246.539 242.627 242.924 245.399 239.478 C 247.685 236.638 250.118 233.882 252.745 231.394 C 254.840 229.410 257.118 227.541 259.568 226.078 C 263.191 223.914 267.399 222.715 271.173 225.162 L 271.179 225.166 L 271.186 225.170 C 275.045 227.786 275.262 233.044 274.720 237.403 C 274.299 240.786 273.317 244.187 272.181 247.370 C 270.673 251.592 268.790 255.708 266.781 259.682 C 264.246 264.696 261.424 269.566 258.476 274.315 C 254.904 280.070 251.117 285.686 247.221 291.198 C 242.659 297.654 237.854 303.921 232.906 310.046 C 227.295 316.992 221.489 323.764 215.561 330.405 C 214.995 332.345 214.470 334.303 214.024 336.278 C 213.653 337.922 213.331 339.589 213.116 341.265 C 212.811 343.653 212.577 346.239 212.733 348.650 C 212.819 349.975 213.024 351.694 213.619 352.883 C 213.869 353.384 214.353 354.250 214.852 354.515 L 214.870 354.525 L 214.888 354.536 C 215.795 355.088 217.457 354.183 218.235 353.709 C 220.335 352.430 222.294 350.586 223.998 348.771 C 226.382 346.231 228.536 343.392 230.521 340.492 C 231.796 338.630 232.969 336.689 234.040 334.687 C 234.486 333.692 234.942 332.702 235.405 331.716 C 236.820 328.702 238.242 325.690 239.698 322.699 C 240.951 320.126 242.229 317.563 243.572 315.042 C 245.638 311.162 247.772 307.324 249.991 303.542 C 251.732 300.574 253.451 297.582 255.236 294.644 L 255.453 294.287 L 256.074 294.287"/>
<path id="split-gullu-path-16" d="M 272.164 294.287 L 272.900 294.287 L 272.187 295.487 C 269.723 299.631 267.335 303.826 265.023 308.068 L 265.018 308.078 L 265.013 308.086 C 262.774 311.963 260.661 315.926 258.631 319.932 C 256.552 324.037 254.492 328.170 252.636 332.397 C 251.178 335.712 249.766 339.068 248.499 342.471 C 247.638 344.784 246.795 347.202 246.213 349.613 C 245.942 350.736 245.571 352.483 245.740 353.644 C 245.803 354.068 245.896 354.433 246.345 354.433 C 246.793 354.433 247.799 353.531 248.114 353.234 C 249.397 352.024 250.603 350.534 251.699 349.133 C 255.108 344.776 258.296 340.176 261.364 335.542 C 265.079 329.930 268.652 324.211 272.113 318.418 C 275.264 313.144 278.346 307.797 281.209 302.340 L 285.294 294.287 L 285.760 294.287"/>
<path id="split-gullu-path-17" d="M 299.779 294.287 L 300.658 294.287 L 280.185 341.082 L 280.182 341.087 C 279.243 343.147 278.334 345.240 277.536 347.366 C 277.005 348.777 276.481 350.287 276.163 351.771 C 276.036 352.360 275.874 353.383 276.149 353.952 C 276.348 354.366 276.796 354.433 277.195 354.433 C 280.329 354.433 283.316 350.488 284.939 348.045 C 286.607 345.535 288.107 342.876 289.504 340.187 C 291.253 336.822 292.860 333.364 294.379 329.876 L 294.832 328.839 L 300.380 335.007 L 300.175 335.489 C 298.099 340.354 295.801 345.152 293.171 349.707 C 291.003 353.463 288.572 357.117 285.790 360.389 C 281.353 365.606 275.831 369.430 269.045 369.430 C 264.969 369.430 261.187 368.121 259.270 364.038 C 258.342 362.059 258.066 359.810 258.126 357.620 C 258.169 356.059 258.377 354.477 258.688 352.921 C 255.730 356.838 252.501 360.594 248.959 363.865 C 246.090 366.513 242.156 369.430 238.195 369.430 C 235.681 369.430 233.179 368.862 231.151 367.201 C 229.043 365.473 228.116 362.799 227.767 360.073 C 227.724 359.739 227.692 359.403 227.668 359.066 C 226.398 360.437 225.044 361.724 223.595 362.868 C 220.861 365.030 217.754 366.979 214.453 367.954 C 211.701 368.768 208.903 368.868 206.166 367.950 C 203.367 367.118 201.183 365.043 199.481 362.604 C 197.408 359.635 196.684 355.512 196.485 351.751 C 193.740 355.875 190.500 359.888 186.730 362.868 C 183.996 365.030 180.889 366.979 177.588 367.954 C 174.836 368.768 172.039 368.868 169.302 367.950 C 166.502 367.118 164.318 365.043 162.616 362.604 C 160.697 359.856 159.937 356.124 159.676 352.619 C 157.968 355.340 156.105 357.968 154.046 360.389 C 149.610 365.606 144.087 369.430 137.302 369.430 C 133.225 369.430 129.443 368.121 127.526 364.038 C 126.598 362.059 126.323 359.810 126.382 357.620 C 126.424 356.059 126.633 354.477 126.944 352.921 C 123.986 356.838 120.758 360.594 117.215 363.865 C 114.346 366.513 110.412 369.430 106.452 369.430 C 103.937 369.430 101.435 368.862 99.407 367.201 C 97.299 365.473 96.372 362.799 96.023 360.073 C 95.800 358.323 95.842 356.520 96.021 354.767 C 96.129 353.722 96.286 352.678 96.480 351.642"/>
<path id="split-gullu-path-18" d="M 96.480 351.642 C 96.193 352.335 95.904 353.025 95.613 353.714 C 93.546 358.601 91.167 363.332 88.482 367.865 C 85.803 372.389 82.546 376.425 78.743 379.918 C 75.849 382.705 72.476 384.713 68.795 386.065 C 64.968 387.471 61.003 388.308 56.963 388.586 C 52.890 388.866 48.821 388.547 44.830 387.641 C 40.992 386.769 37.269 385.389 33.851 383.319 C 30.259 381.142 27.461 378.024 25.339 374.258 C 23.257 370.560 21.763 366.568 21.074 362.310 L 21.072 362.302 L 21.071 362.294 C 20.000 354.734 20.693 347.285 22.943 340.024 C 25.166 332.854 28.709 326.498 33.681 321.132 C 33.841 313.742 35.023 306.472 37.104 299.421 C 39.115 292.605 41.599 285.946 44.619 279.565 C 49.641 268.955 55.703 258.977 62.749 249.764 C 69.785 240.566 77.870 232.414 86.952 225.542 L 86.959 225.537 L 86.965 225.533 C 90.815 222.744 95.007 220.334 99.179 218.141 C 103.959 215.629 108.981 213.708 114.190 212.498 C 119.126 211.352 124.142 211.134 129.125 212.079 C 134.184 213.039 138.124 215.938 141.133 220.345 C 144.274 224.945 146.152 230.069 146.221 235.779 C 146.289 241.360 145.185 246.771 143.157 251.904 C 140.953 257.480 137.867 262.574 134.213 267.193 C 130.438 271.964 126.225 276.310 121.586 280.122 C 117.202 283.724 112.455 286.793 107.358 289.110 C 103.027 291.078 98.325 292.479 93.586 292.479 C 90.038 292.479 85.883 292.078 82.677 290.327 C 80.418 289.092 78.310 287.373 77.121 284.926 C 76.075 282.770 75.736 280.443 76.077 278.043 C 76.401 275.772 77.148 273.646 78.447 271.801 L 78.842 271.240 L 79.408 271.597 C 82.996 273.862 86.988 274.673 91.130 274.486 C 95.855 274.273 100.460 273.135 104.868 271.334 C 109.632 269.387 114.116 266.793 118.291 263.673 C 122.359 260.633 126.070 257.087 129.202 252.970 C 131.991 249.303 134.168 245.200 135.372 240.642 C 136.472 236.474 136.338 232.352 134.816 228.331 C 133.512 224.891 131.227 222.686 127.845 221.769 C 124.015 220.730 119.978 221.037 116.162 221.980 C 111.395 223.157 106.837 225.243 102.579 227.790 C 98.096 230.472 93.918 233.684 90.215 237.489 L 90.210 237.494 L 90.205 237.499 C 86.537 241.126 83.170 245.083 80.098 249.291 C 77.005 253.527 74.096 257.916 71.408 262.455 C 68.888 266.712 66.547 271.096 64.461 275.612 C 62.649 279.534 60.990 283.543 59.542 287.633 C 58.222 291.358 57.021 295.125 55.970 298.945 C 54.994 302.490 54.185 306.086 53.558 309.719 C 55.599 309.319 57.669 309.149 59.748 309.209 C 62.219 309.280 64.614 309.809 66.897 310.818 C 69.786 312.094 72.315 314.059 73.769 317.074 C 74.986 319.599 75.749 322.298 75.886 325.141 C 75.967 326.839 75.961 329.956 73.973 330.486 C 72.469 330.886 70.486 330.412 69.031 329.962 C 66.645 329.224 64.219 328.596 61.797 328.010 C 59.054 327.346 56.234 327.392 53.473 327.883 C 53.921 330.915 54.827 333.849 56.029 336.636 C 56.844 338.525 57.897 340.306 59.056 341.974 C 60.275 343.727 61.709 345.275 63.363 346.562 C 64.923 347.777 66.646 348.651 68.529 349.119 C 70.504 349.610 72.453 349.149 74.259 348.243 L 74.271 348.237 L 74.283 348.232 C 77.786 346.632 80.891 344.384 83.554 341.480 C 86.277 338.510 88.706 335.255 90.838 331.781 C 93.070 328.144 95.194 324.432 97.218 320.660 C 99.266 316.841 101.440 313.099 103.746 309.450 C 106.027 305.841 108.656 302.510 111.609 299.504 C 114.126 296.942 116.979 294.885 120.104 293.313"/>
</g>
</svg>