<svg xmlns="http://www.w3.org/2000/svg" width="800mm" height="600mm" viewBox="0 0 800 600" data-corel-reference="true" data-split-child="true">
<title>Split golden reference: Numan from ayse.svg</title>
<rect x="0" y="0" width="800" height="600" fill="#ffffff"/>
<g id="split-reference-numan" fill="none" stroke="#020617" stroke-width="0.22" stroke-linejoin="round" stroke-linecap="round" vector-effect="non-scaling-stroke" data-source-file="ayse.svg" data-label="Numan">
<path id="split-numan-path-1" d="M 593.812 391.819 C 595.290 389.340 596.758 386.858 598.213 384.371 C 599.376 382.384 600.441 380.312 601.173 378.214 C 601.650 376.845 602.086 375.251 602.002 373.831 C 601.950 372.956 601.538 372.269 600.481 371.835 L 600.458 371.826 L 600.436 371.816 C 599.389 371.333 597.775 372.071 596.935 372.507 C 594.700 373.668 592.663 375.224 590.884 376.747 C 588.427 378.852 586.224 381.147 584.196 383.486 C 581.969 386.054 579.994 388.734 578.239 391.493 C 576.752 393.831 575.364 396.211 574.191 398.646 C 573.171 400.763 572.275 402.935 571.648 405.135 C 571.201 406.700 570.832 408.427 570.916 410.030 C 570.950 410.686 571.118 411.628 572.085 411.895 L 572.162 411.917 L 572.232 411.946 C 573.086 412.306 574.792 411.402 575.410 411.051 C 577.579 409.820 579.543 408.215 581.261 406.650 C 583.646 404.481 585.821 402.167 587.861 399.816 C 590.085 397.252 592.083 394.583 593.812 391.819 L 593.812 391.819 Z"/>
<path id="split-numan-path-4" d="M 709.897 220.437 C 710.995 218.367 712.086 216.294 713.167 214.218 C 714.030 212.558 714.821 210.828 715.364 209.075 C 715.719 207.932 716.042 206.601 715.980 205.415 C 715.941 204.684 715.636 204.111 714.850 203.749 L 714.833 203.741 L 714.817 203.733 C 714.039 203.329 712.840 203.946 712.217 204.310 C 710.557 205.280 709.044 206.578 707.723 207.851 C 705.899 209.609 704.263 211.526 702.756 213.478 C 701.102 215.623 699.636 217.860 698.332 220.165 C 697.228 222.118 696.197 224.106 695.326 226.139 C 694.568 227.907 693.903 229.720 693.437 231.557 C 693.105 232.864 692.831 234.306 692.894 235.645 C 692.919 236.193 693.044 236.980 693.762 237.203 L 693.819 237.221 L 693.871 237.246 C 694.505 237.547 695.773 236.791 696.231 236.498 C 697.842 235.470 699.301 234.129 700.577 232.823 C 702.347 231.011 703.963 229.079 705.478 227.115 C 707.129 224.974 708.613 222.745 709.897 220.437 L 709.897 220.437 Z"/>
<path id="split-numan-path-5" d="M 612.589 219.340 C 612.448 219.673 612.281 220.158 612.353 220.506 C 612.389 220.680 612.474 220.778 612.670 220.850 C 613.546 221.167 614.942 220.826 615.782 220.570 C 617.648 220.002 619.493 219.061 621.122 218.125 C 623.375 216.831 625.435 215.296 627.309 213.640 C 629.453 211.745 631.589 209.415 632.572 206.917 C 632.855 206.197 633.174 205.273 633.174 204.510 C 633.174 204.295 633.145 203.865 632.890 203.733 L 632.880 203.727 L 632.871 203.722 C 631.607 203.023 630.108 203.293 628.805 203.773 C 626.697 204.551 624.774 205.792 623.108 207.102 C 620.950 208.798 619.028 210.712 617.292 212.711 C 615.483 214.796 613.889 217.008 612.589 219.340 L 612.589 219.340 Z"/>
<path id="split-numan-path-13" d="M 404.646 399.184 C 405.523 397.764 406.445 396.359 407.389 394.966 C 410.301 390.668 413.234 386.335 416.446 382.156 C 418.736 379.176 421.103 376.227 423.565 373.322 C 425.495 371.043 427.400 368.745 429.379 366.488 L 429.679 366.146 L 449.496 366.146 L 448.508 367.297 C 445.779 370.477 443.134 373.697 440.562 376.965 C 438.079 379.942 435.738 382.983 433.491 386.056 C 431.188 389.206 428.908 392.377 426.851 395.619 C 425.238 398.161 423.675 400.735 422.271 403.346 C 421.321 405.115 420.389 406.966 419.746 408.811 C 419.454 409.648 419.044 410.979 419.227 411.845 C 419.252 411.964 419.315 412.181 419.435 412.272 C 419.498 412.319 419.611 412.324 419.695 412.324 C 420.109 412.324 421.228 411.633 421.521 411.441 C 422.936 410.517 424.265 409.379 425.473 408.309 C 429.248 404.967 432.779 401.439 436.175 397.883 C 440.291 393.577 444.249 389.188 448.083 384.742 C 451.573 380.696 454.986 376.593 458.157 372.406 L 462.742 366.146 L 480.210 366.146 L 457.383 402.290 C 456.342 403.871 455.337 405.475 454.453 407.104 C 453.870 408.180 453.291 409.332 452.941 410.463 C 452.815 410.871 452.633 411.641 452.908 412.036 C 453.088 412.295 453.535 412.324 453.886 412.324 C 457.273 412.324 460.554 409.308 462.304 407.483 C 465.010 404.661 467.355 401.571 469.490 398.497 L 490.230 366.146 L 510.121 366.146 L 506.637 371.503 C 508.805 370.144 511.157 368.929 513.659 368.044 C 517.257 366.772 521.074 366.146 525.065 366.146 C 527.869 366.146 530.223 366.918 531.903 368.591 C 533.203 369.888 533.766 371.411 533.874 372.977 C 539.144 369.644 546.144 366.146 553.020 366.146 C 555.006 366.146 556.857 366.531 558.461 367.403 C 560.069 368.277 561.123 369.474 561.729 370.872 C 562.428 372.484 562.420 374.231 562.090 375.891 C 561.670 377.996 560.476 380.024 559.065 381.864 C 554.875 387.324 550.733 392.802 546.596 398.284 C 545.205 400.127 543.830 401.978 542.494 403.843 C 541.511 405.216 540.543 406.600 539.636 408.001 C 539.034 408.933 538.440 409.889 537.951 410.856 C 537.732 411.290 537.410 411.945 537.368 412.409 C 537.361 412.485 537.354 412.702 537.404 412.792 C 537.445 412.799 537.507 412.800 537.537 412.800 C 540.997 412.800 544.822 409.504 546.735 407.693 C 550.116 404.493 552.965 400.875 555.460 397.266 C 556.162 396.062 556.912 394.873 557.700 393.698 C 561.321 388.310 565.478 382.851 570.497 378.098 C 574.158 374.632 578.381 371.163 583.161 368.517 C 586.636 366.594 590.668 364.891 594.969 364.256 C 598.262 363.770 601.710 363.760 604.858 364.793 C 606.280 365.318 607.517 366.005 608.435 366.903 L 608.948 366.146 L 628.587 366.146 L 606.190 401.657 L 605.756 402.297 C 604.718 403.874 603.713 405.476 602.831 407.104 C 602.248 408.180 601.669 409.332 601.319 410.463 C 601.193 410.871 601.010 411.641 601.286 412.036 C 601.466 412.295 601.913 412.324 602.264 412.324 C 605.651 412.324 608.932 409.308 610.682 407.483 C 612.847 405.225 614.767 402.803 616.540 400.367 L 638.610 366.146 L 658.281 366.146 L 651.303 376.923 C 654.698 374.336 658.386 371.897 662.336 369.924 C 666.292 367.950 671.138 366.146 676.023 366.146 C 678.009 366.146 679.860 366.531 681.464 367.403 C 683.072 368.277 684.126 369.474 684.732 370.872 C 685.431 372.484 685.423 374.231 685.093 375.891 C 684.673 377.996 683.480 380.024 682.068 381.864 C 677.879 387.324 673.737 392.802 669.599 398.284 C 668.208 400.127 666.833 401.978 665.497 403.843 C 664.515 405.216 663.546 406.600 662.640 408.001 C 662.037 408.933 661.443 409.889 660.955 410.856 C 660.735 411.290 660.413 411.945 660.371 412.409 C 660.364 412.485 660.358 412.702 660.408 412.792 C 660.449 412.799 660.510 412.800 660.540 412.800 C 664.008 412.800 667.908 409.494 669.852 407.688 C 671.947 405.741 673.816 403.647 675.524 401.506 C 677.577 398.934 679.420 396.264 681.123 393.557 L 681.749 392.562 L 688.206 397.533 L 687.911 397.998 C 685.544 401.734 682.948 405.418 680.005 408.926 C 677.588 411.806 674.898 414.616 671.835 417.144 C 666.862 421.247 660.673 424.138 653.014 424.138 C 649.980 424.138 646.924 423.667 644.523 422.224 C 641.922 420.660 641.292 418.107 641.354 415.757 C 641.448 412.125 643.580 407.897 645.523 404.602 C 647.056 402.004 648.861 399.474 650.760 397.012 C 653.153 393.911 655.735 390.881 658.410 387.897 C 659.816 386.387 661.177 384.852 662.433 383.276 C 663.400 382.065 664.324 380.812 665.095 379.526 C 665.416 378.989 665.757 378.363 665.900 377.783 C 665.928 377.672 665.995 377.308 665.919 377.185 C 665.862 377.170 665.748 377.167 665.701 377.167 C 664.262 377.167 661.033 379.370 660.058 380.054 C 656.520 382.538 653.276 385.394 650.265 388.226 C 646.193 392.056 642.411 396.075 638.812 400.153 C 634.800 404.700 631.090 409.391 627.689 414.201 L 621.616 423.662 L 601.516 423.662 L 602.172 422.644 C 599.308 423.619 596.255 424.138 593.018 424.138 C 586.510 424.138 582.429 421.949 581.137 417.598 C 577.605 419.961 573.623 422.033 569.210 423.368 C 564.740 424.720 560.291 424.641 556.126 422.749 C 552.674 421.084 551.202 418.324 550.693 415.454 C 550.054 416.030 549.397 416.596 548.719 417.148 C 543.762 421.186 537.590 424.138 530.011 424.138 C 526.978 424.138 523.921 423.667 521.520 422.224 C 518.919 420.660 518.289 418.107 518.351 415.757 C 518.445 412.125 520.577 407.897 522.520 404.602 C 524.053 402.004 525.858 399.474 527.757 397.012 C 530.150 393.911 532.732 390.881 535.407 387.897 C 536.808 386.392 538.162 384.858 539.400 383.281 C 540.346 382.076 541.246 380.825 541.976 379.539 C 542.283 378.998 542.611 378.359 542.730 377.776 C 542.753 377.668 542.805 377.298 542.717 377.189 C 542.663 377.170 542.532 377.167 542.483 377.167 C 541.628 377.167 540.091 377.993 539.449 378.359 C 537.614 379.405 535.898 380.626 534.290 381.857 C 532.187 383.467 530.260 385.218 528.463 387.018 C 526.424 389.060 524.592 391.211 522.946 393.438 C 520.890 396.220 518.948 399.056 517.052 401.900 C 514.897 405.131 512.765 408.372 510.719 411.642 C 508.330 415.463 506.064 419.325 503.852 423.203 L 503.590 423.662 L 483.669 423.662 L 484.366 422.589 C 487.455 417.831 490.538 413.071 493.618 408.299 C 494.913 406.387 496.162 404.463 497.369 402.525 C 498.564 400.607 499.784 398.697 501.034 396.798 C 502.147 395.107 503.259 393.415 504.366 391.722 C 505.193 390.459 506.043 389.191 506.965 387.965 C 508.089 386.351 509.177 384.706 510.123 383.031 C 510.740 381.937 511.359 380.746 511.708 379.587 C 511.843 379.137 512.045 378.310 511.825 377.861 C 511.729 377.667 511.577 377.643 511.302 377.643 C 509.736 377.643 506.951 380.061 506.067 380.859 C 504.631 382.154 503.289 383.515 502.006 384.895 C 500.413 386.606 498.901 388.362 497.440 390.136 C 493.831 394.515 490.430 398.995 487.145 403.510 C 483.398 408.661 479.790 413.867 476.303 419.116 L 474.374 422.019 L 474.374 421.913 L 473.233 423.662 L 453.357 423.662 L 454.046 422.586 C 451.179 423.589 448.113 424.138 444.855 424.138 C 440.256 424.138 436.000 423.104 433.839 419.915 C 432.230 417.540 432.321 414.612 433.016 411.879 C 429.872 414.722 426.456 417.443 422.725 419.829 C 419.504 421.890 415.109 424.138 410.663 424.138 C 407.830 424.138 405.016 423.692 402.732 422.396 C 402.128 422.052 401.610 421.662 401.166 421.236"/>
<path id="split-numan-path-19" d="M 502.210 224.427 L 516.708 198.997 L 531.480 198.997 L 528.893 203.471 C 530.503 202.337 532.250 201.321 534.107 200.583 C 536.779 199.520 539.614 198.997 542.578 198.997 C 544.661 198.997 546.409 199.642 547.656 201.040 C 548.622 202.122 549.040 203.395 549.120 204.702 C 553.034 201.918 558.233 198.997 563.340 198.997 C 564.814 198.997 566.189 199.319 567.381 200.047 C 568.574 200.777 569.357 201.776 569.808 202.944 C 570.327 204.290 570.320 205.749 570.075 207.136 C 569.764 208.893 568.878 210.587 567.829 212.124 C 564.717 216.683 561.641 221.258 558.569 225.836 C 557.536 227.375 556.515 228.921 555.522 230.479 C 554.793 231.625 554.073 232.780 553.400 233.951 C 552.953 234.729 552.512 235.527 552.149 236.335 C 551.986 236.697 551.747 237.244 551.715 237.632 C 551.711 237.696 551.705 237.877 551.742 237.952 C 551.773 237.957 551.819 237.959 551.841 237.959 C 554.410 237.959 557.251 235.207 558.672 233.694 C 561.493 230.691 563.840 227.229 565.864 223.807 L 565.782 223.739 L 576.720 204.785 C 575.899 203.239 575.492 201.597 575.441 199.904 C 575.381 197.881 576.146 195.992 577.384 194.267 C 578.624 192.538 580.365 190.993 582.839 190.594 C 584.752 190.285 586.638 190.448 588.227 191.436 C 589.791 192.410 590.493 193.816 590.603 195.413 C 590.669 196.369 590.362 197.287 589.845 198.134 C 589.226 199.147 588.313 200.062 587.349 200.861 C 586.917 201.220 586.228 201.855 586.123 202.377 C 586.062 202.678 586.098 202.952 586.345 203.187 C 586.695 203.518 587.161 203.771 587.632 203.967 C 588.188 204.198 588.755 204.416 589.365 204.620 C 591.604 205.504 593.387 206.821 594.375 208.718 C 595.312 210.514 595.255 212.322 594.205 214.073 L 585.899 229.181 C 585.126 230.502 584.379 231.841 583.724 233.201 C 583.290 234.100 582.861 235.063 582.600 236.007 C 582.507 236.348 582.372 236.991 582.576 237.321 C 582.710 237.537 583.041 237.561 583.302 237.561 C 585.817 237.561 588.254 235.042 589.554 233.518 C 590.756 232.108 591.850 230.625 592.876 229.123 C 594.132 227.284 595.293 225.398 596.397 223.494 C 596.780 222.723 597.195 221.963 597.636 221.214 C 600.347 216.614 603.638 212.072 607.730 208.221 C 610.824 205.309 614.375 202.483 618.357 200.418 C 621.344 198.868 624.717 197.565 628.232 197.149 C 630.823 196.841 633.634 196.880 636.035 197.876 C 637.797 198.656 639.142 199.796 640.099 201.244 C 641.116 202.782 641.604 204.473 641.708 206.218 C 641.829 208.226 641.448 210.249 640.804 212.181 C 640.042 214.466 638.723 216.587 637.104 218.532 C 634.910 221.168 632.305 223.600 629.185 225.505 C 626.638 227.060 623.780 228.389 620.703 229.053 C 618.263 229.579 615.654 229.756 613.202 229.182 C 611.537 228.792 610.184 228.071 609.165 227.024 C 608.624 229.029 608.329 231.133 608.567 233.156 C 608.782 234.975 609.655 236.448 611.741 237.226 C 613.618 238.005 615.979 237.856 617.961 237.508 C 620.884 236.995 623.648 235.959 626.189 234.671 C 629.199 233.144 631.940 231.264 634.432 229.197 C 636.901 227.148 639.030 224.855 640.762 222.340 C 640.966 221.963 641.177 221.589 641.399 221.208 C 644.184 216.663 647.500 212.123 651.568 208.288 C 654.639 205.391 658.158 202.602 662.115 200.550 C 665.103 199.001 668.475 197.697 671.990 197.281 C 674.609 196.971 677.423 196.990 679.910 197.859 C 681.313 198.388 682.361 199.275 683.129 200.368 C 683.969 201.562 684.451 202.880 684.663 204.248 C 684.897 205.749 684.871 207.271 684.664 208.772 C 684.435 210.441 683.914 212.069 683.166 213.662 C 682.388 215.033 681.476 216.381 680.357 217.568 C 679.485 218.493 678.481 219.385 677.330 220.075 C 676.412 220.625 675.396 221.095 674.306 221.361 C 673.570 221.541 672.708 221.718 671.937 221.718 C 669.899 221.718 668.152 221.120 666.936 219.738 C 665.711 218.348 665.566 216.733 666.099 215.098 C 666.695 213.264 667.912 211.763 669.716 210.593 C 671.493 209.441 673.511 208.804 675.770 208.804 C 676.259 208.804 676.809 208.884 677.323 208.979 C 677.940 208.041 678.198 207.040 677.980 205.955 C 677.828 205.197 677.490 204.169 676.634 203.725 C 675.380 203.032 673.937 203.283 672.650 203.771 C 670.578 204.557 668.672 205.808 667.027 207.102 C 664.854 208.809 662.903 210.725 661.125 212.718 C 659.267 214.801 657.658 217.024 656.331 219.370 C 655.245 221.289 654.287 223.269 653.578 225.308 C 652.972 227.045 652.523 228.857 652.408 230.666 C 652.319 232.074 652.450 233.528 653.007 234.868 C 653.452 235.940 654.238 236.744 655.501 237.227 C 657.268 237.960 659.268 237.860 661.123 237.450 C 663.700 236.879 666.127 235.806 668.316 234.557 C 671.084 232.977 673.620 231.081 675.944 229.073 C 678.484 226.880 680.841 224.544 683.023 222.100 C 683.042 222.069 683.061 222.038 683.080 222.006 C 685.768 217.507 688.856 212.948 692.582 208.979 C 695.301 206.084 698.438 203.187 701.987 200.978 C 704.568 199.372 707.563 197.949 710.757 197.419 C 713.202 197.013 715.764 197.005 718.102 197.868 C 719.157 198.306 720.075 198.880 720.757 199.629 L 721.138 198.997 L 735.724 198.997 L 719.090 228.653 L 718.768 229.187 C 717.998 230.504 717.252 231.842 716.596 233.201 C 716.162 234.100 715.734 235.063 715.473 236.007 C 715.380 236.348 715.244 236.991 715.448 237.321 C 715.582 237.537 715.913 237.561 716.175 237.561 C 718.690 237.561 721.127 235.042 722.426 233.518 C 724.035 231.632 725.460 229.610 726.776 227.575 L 743.167 198.997 L 757.776 198.997 L 752.595 207.997 C 755.115 205.837 757.854 203.800 760.788 202.153 C 763.725 200.504 767.325 198.997 770.953 198.997 C 772.427 198.997 773.803 199.319 774.993 200.047 C 776.188 200.777 776.970 201.776 777.421 202.944 C 777.940 204.290 777.934 205.749 777.688 207.136 C 777.376 208.893 776.491 210.587 775.442 212.124 C 772.331 216.683 769.255 221.258 766.182 225.836 C 765.149 227.375 764.127 228.921 763.135 230.479 C 762.406 231.625 761.687 232.780 761.014 233.951 C 760.566 234.729 760.125 235.527 759.762 236.335 C 759.599 236.697 759.360 237.244 759.329 237.632 C 759.324 237.696 759.318 237.877 759.356 237.952 C 759.386 237.957 759.432 237.959 759.454 237.959 C 762.030 237.959 764.926 235.198 766.369 233.690 C 767.925 232.064 769.313 230.315 770.582 228.527 C 772.106 226.378 773.475 224.148 774.740 221.888 L 775.205 221.057 L 780.000 225.209 L 779.781 225.598 C 778.024 228.717 776.096 231.794 773.910 234.723 C 772.115 237.129 770.117 239.475 767.842 241.586 C 764.149 245.013 759.552 247.427 753.865 247.427 C 751.612 247.427 749.342 247.034 747.559 245.828 C 745.627 244.522 745.160 242.390 745.205 240.428 C 745.275 237.395 746.858 233.864 748.302 231.112 C 749.440 228.943 750.780 226.829 752.191 224.774 C 753.968 222.184 755.886 219.654 757.872 217.162 C 758.916 215.901 759.927 214.619 760.860 213.303 C 761.578 212.291 762.264 211.245 762.836 210.171 C 763.075 209.722 763.329 209.200 763.435 208.716 C 763.455 208.622 763.506 208.319 763.449 208.216 C 763.406 208.204 763.322 208.201 763.287 208.201 C 762.218 208.201 759.820 210.041 759.096 210.613 C 756.469 212.686 754.059 215.072 751.823 217.436 C 748.799 220.635 745.990 223.991 743.318 227.397 C 740.338 231.194 737.583 235.111 735.056 239.129 L 730.546 247.029 L 715.619 247.029 L 716.106 246.179 C 713.979 246.994 711.712 247.427 709.308 247.427 C 704.474 247.427 701.444 245.599 700.485 241.965 C 697.862 243.938 694.904 245.669 691.627 246.784 C 688.307 247.913 685.003 247.847 681.909 246.267 C 678.213 244.261 677.565 240.337 677.731 236.969 C 677.735 236.879 677.741 236.790 677.746 236.701 C 677.721 236.722 677.697 236.744 677.672 236.765 C 674.217 239.754 670.369 242.521 666.103 244.685 C 662.538 246.492 658.630 247.839 654.466 248.283 C 650.554 248.701 646.922 248.015 643.587 246.270 C 641.713 245.290 640.283 243.947 639.250 242.323 C 638.095 240.507 637.529 238.485 637.328 236.449 C 637.302 236.183 637.283 235.917 637.269 235.651 C 636.821 236.052 636.366 236.448 635.902 236.838 C 632.287 239.879 628.250 242.593 623.758 244.695 C 619.862 246.520 615.640 247.846 611.179 248.284 C 607.119 248.683 603.294 248.083 599.829 246.270 C 597.954 245.290 596.524 243.947 595.491 242.323 C 594.641 240.986 594.110 239.537 593.809 238.054 C 592.749 239.278 591.621 240.464 590.413 241.586 C 586.764 244.972 582.211 247.427 576.595 247.427 C 572.247 247.427 568.878 246.004 567.797 242.310 C 570.723 231.727 584.092 215.680 581.830 210.719 C 581.556 205.949 571.518 226.514 570.751 227.862 C 570.746 227.858 566.347 234.584 565.809 235.293 C 564.130 237.504 562.262 239.650 560.146 241.589 C 556.465 244.961 551.880 247.427 546.251 247.427 C 543.999 247.427 541.729 247.034 539.946 245.828 C 538.014 244.522 537.546 242.390 537.592 240.428 C 537.662 237.395 539.245 233.864 540.689 231.112 C 541.827 228.943 543.167 226.829 544.578 224.774 C 546.355 222.184 548.272 219.654 550.259 217.162 C 551.300 215.905 552.305 214.624 553.224 213.307 C 553.927 212.301 554.596 211.256 555.138 210.182 C 555.366 209.730 555.609 209.197 555.698 208.710 C 555.715 208.620 555.754 208.311 555.688 208.220 C 555.648 208.204 555.551 208.201 555.514 208.201 C 554.879 208.201 553.737 208.891 553.260 209.196 C 551.898 210.070 550.624 211.090 549.430 212.117 C 547.867 213.462 546.437 214.925 545.102 216.427 C 543.587 218.133 542.227 219.930 541.005 221.789 C 539.478 224.112 538.036 226.481 536.628 228.855 C 535.027 231.554 533.443 234.261 531.925 236.992 C 530.150 240.182 528.467 243.408 526.824 246.646 L 526.630 247.029 L 511.835 247.029 L 512.353 246.133 C 514.647 242.160 516.937 238.185 519.224 234.199 C 520.186 232.603 521.114 230.997 522.010 229.378 C 522.897 227.776 523.803 226.181 524.731 224.595 C 525.558 223.183 526.383 221.770 527.206 220.355 C 527.820 219.301 528.451 218.243 529.137 217.218 C 529.971 215.871 530.779 214.498 531.481 213.099 C 531.940 212.185 532.400 211.190 532.659 210.222 C 532.759 209.847 532.909 209.156 532.746 208.781 C 532.675 208.618 532.562 208.598 532.357 208.598 C 531.194 208.598 529.127 210.618 528.469 211.284 C 527.403 212.366 526.407 213.502 525.454 214.654 C 524.271 216.084 523.148 217.550 522.062 219.032 C 519.383 222.689 516.856 226.430 514.417 230.201 C 511.634 234.502 508.954 238.850 506.364 243.233 L 504.933 245.657 L 504.933 245.569 L 504.085 247.029 L 489.324 247.029 L 492.550 241.371"/>
</g>
</svg>