<svg xmlns="http://www.w3.org/2000/svg" width="800mm" height="600mm" viewBox="0 0 800 600" data-corel-reference="true" data-split-child="true">
<title>Split golden reference: Özge from ozge.svg</title>
<rect x="0" y="0" width="800" height="600" fill="#ffffff"/>
<g id="split-reference-ozge" fill="none" stroke="#020617" stroke-width="0.22" stroke-linejoin="round" stroke-linecap="round" vector-effect="non-scaling-stroke" data-source-file="ozge.svg" data-label="Özge">
<path id="split-ozge-path-7" d="M 291.058 313.963 C 290.874 314.410 290.657 315.062 290.751 315.529 C 290.798 315.763 290.909 315.894 291.166 315.990 C 292.312 316.416 294.141 315.958 295.239 315.615 C 297.683 314.852 300.098 313.588 302.231 312.332 C 305.180 310.595 307.878 308.533 310.332 306.309 C 313.138 303.766 315.935 300.636 317.222 297.281 C 317.593 296.315 318.010 295.075 318.010 294.051 C 318.010 293.761 317.973 293.185 317.637 293.007 L 317.625 293.000 L 317.613 292.993 C 315.958 292.054 313.997 292.416 312.290 293.062 C 309.529 294.105 307.013 295.772 304.831 297.530 C 302.007 299.807 299.489 302.378 297.217 305.062 C 294.849 307.862 292.761 310.831 291.058 313.963 L 291.058 313.963 Z"/>
<path id="split-ozge-path-8" d="M 216.122 361.500 C 211.806 363.412 207.550 365.465 203.494 367.731 C 200.335 369.495 196.810 372.000 195.520 375.135 C 195.034 376.321 194.728 377.767 196.037 378.646 C 197.139 379.387 198.412 379.090 199.557 378.566 C 201.609 377.625 203.488 376.109 205.043 374.649 C 207.339 372.492 209.413 370.115 211.336 367.711 C 212.973 365.665 214.567 363.593 216.122 361.500 L 216.122 361.500 Z"/>
<path id="split-ozge-path-9" d="M 243.249 315.423 C 244.769 312.676 246.269 309.911 247.619 307.100 C 248.709 304.835 249.721 302.513 250.511 300.159 C 251.019 298.646 251.496 296.849 251.415 295.266 C 251.365 294.285 250.964 293.515 249.936 293.028 L 249.914 293.018 L 249.892 293.007 C 248.874 292.465 247.305 293.293 246.488 293.782 C 244.315 295.084 242.334 296.827 240.605 298.536 C 238.217 300.897 236.074 303.470 234.102 306.092 C 231.937 308.972 230.017 311.977 228.310 315.071 C 226.864 317.693 225.515 320.362 224.374 323.092 C 223.375 325.482 222.478 327.919 221.791 330.388 C 221.314 332.104 220.923 334.057 221.083 335.824 C 221.141 336.474 221.334 337.661 222.159 337.963 L 222.211 337.982 L 222.260 338.006 C 223.099 338.414 224.849 337.383 225.469 336.993 C 227.625 335.633 229.564 333.836 231.248 332.067 C 233.551 329.651 235.628 327.056 237.554 324.413 C 239.664 321.517 241.544 318.506 243.249 315.423 L 243.249 315.423 Z"/>
<path id="split-ozge-path-10" d="M 161.674 363.395 C 157.885 365.128 154.156 367.015 150.662 369.123 C 147.853 370.818 144.832 373.126 143.592 375.939 C 143.288 376.631 142.973 377.564 143.115 378.310 C 143.205 378.786 143.469 379.114 143.961 379.347 C 144.987 379.773 146.293 379.277 147.189 378.832 C 149.077 377.894 150.811 376.516 152.295 375.160 C 154.367 373.267 156.190 371.135 157.832 368.961 C 159.200 367.151 160.477 365.291 161.674 363.395 L 161.674 363.395 Z"/>
<path id="split-ozge-path-11" d="M 109.811 256.204 C 114.305 260.328 119.088 264.221 124.149 267.838 C 129.377 271.576 135.409 274.039 142.041 275.405 C 146.771 276.380 152.052 276.526 156.034 273.789 C 159.558 271.367 161.719 268.236 162.694 264.475 C 163.779 260.292 163.552 256.013 162.484 251.846 C 161.400 247.613 159.327 243.726 155.918 240.484 C 152.778 237.497 148.869 235.536 144.063 235.780 C 139.253 236.024 134.749 237.369 130.592 239.406 C 125.951 241.680 121.774 244.525 118.056 247.802 C 116.301 249.349 114.592 250.942 112.985 252.602 C 111.868 253.757 110.786 254.955 109.811 256.204 L 109.811 256.204 Z"/>
<path id="split-ozge-path-12" d="M 70.971 359.593 C 74.933 362.624 79.539 364.000 84.858 363.643 C 89.829 363.308 94.516 362.037 98.891 360.006 C 103.572 357.833 107.860 355.125 111.758 352.033 C 115.966 348.695 119.787 345.017 123.247 341.110 C 126.794 337.105 130.098 332.945 133.120 328.640 C 136.003 324.532 138.725 320.341 141.239 316.061 C 143.413 312.360 145.588 308.646 147.600 304.879 C 149.591 301.152 151.460 297.368 153.340 293.599 C 155.184 289.904 156.766 286.118 158.107 282.270 C 153.188 284.883 147.603 286.911 141.745 287.116 C 136.519 287.299 131.475 286.502 126.676 284.734 C 121.622 282.873 116.977 280.299 112.742 277.315 C 108.490 274.318 104.373 271.184 100.387 267.934 C 97.846 271.363 95.411 274.852 93.120 278.406 C 91.044 281.629 89.006 284.877 87.075 288.165 L 87.070 288.172 L 87.066 288.179 C 85.146 291.299 83.279 294.445 81.429 297.596 C 79.034 301.671 76.875 305.852 74.875 310.078 C 72.680 314.718 70.672 319.422 68.834 324.173 C 67.076 328.717 65.766 333.399 65.113 338.154 C 64.548 342.263 64.532 346.461 65.416 350.537 C 66.177 354.044 67.934 357.122 70.971 359.593 L 70.971 359.593 Z"/>
<path id="split-ozge-path-15" d="M 170.708 295.351 C 174.185 292.227 178.105 289.295 182.388 287.205 C 184.590 286.130 186.930 285.194 189.364 284.571 C 191.440 284.040 193.602 283.735 195.775 283.802 C 199.433 283.915 202.900 284.776 205.694 286.857 C 209.092 289.387 210.721 292.599 210.420 296.441 C 210.105 300.458 208.325 304.171 205.767 307.521 C 202.750 311.470 198.798 314.862 194.470 317.775 C 189.752 320.951 184.512 323.362 178.794 324.944 L 178.708 324.968 L 176.408 325.229 C 179.107 326.378 181.309 328.126 182.990 330.468 C 185.302 333.686 186.191 337.334 186.212 341.043 C 190.284 338.598 193.933 335.587 197.189 332.401 C 201.006 328.666 204.198 324.436 206.925 320.072 C 207.381 319.223 207.853 318.379 208.340 317.543 C 211.860 311.502 215.902 305.380 220.782 300.051 C 224.341 296.164 228.448 292.275 233.096 289.308 C 236.436 287.176 240.336 285.248 244.468 284.530 C 247.724 283.965 251.047 284.003 254.212 285.139 C 255.504 285.739 256.588 286.525 257.512 287.446 L 257.928 286.648 L 277.271 286.648 L 276.609 287.846 C 273.323 293.805 269.940 299.725 266.569 305.649 C 263.301 311.391 260.097 317.159 256.847 322.908 C 253.875 328.165 250.923 333.431 247.996 338.707 C 252.161 336.285 256.096 333.592 259.776 330.650 C 264.097 327.196 267.563 323.115 270.303 318.652 C 270.677 317.921 271.071 317.197 271.482 316.479 C 275.031 310.303 279.340 304.204 284.697 299.033 C 288.748 295.123 293.397 291.329 298.610 288.556 C 302.522 286.475 306.937 284.725 311.539 284.166 C 314.932 283.753 318.614 283.806 321.756 285.144 C 324.062 286.190 325.824 287.720 327.077 289.665 C 328.408 291.730 329.047 294.002 329.184 296.344 C 329.343 299.041 328.843 301.757 328.000 304.350 C 327.002 307.418 325.276 310.267 323.155 312.879 C 320.282 316.418 316.872 319.684 312.787 322.242 C 309.453 324.330 305.711 326.113 301.683 327.004 C 298.487 327.712 295.072 327.949 291.861 327.178 C 289.682 326.655 287.911 325.686 286.576 324.280 C 285.867 326.973 285.481 329.798 285.794 332.515 C 286.075 334.957 287.218 336.934 289.948 337.980 C 292.407 339.026 295.498 338.825 298.093 338.358 C 301.920 337.669 305.538 336.278 308.864 334.549 C 312.806 332.499 316.395 329.974 319.658 327.198 C 323.102 324.267 326.035 320.969 328.377 317.335 L 329.024 316.330 L 335.277 321.882 L 334.909 322.428 C 331.216 327.897 326.791 332.964 321.583 337.457 C 316.850 341.541 311.563 345.186 305.683 348.009 C 300.581 350.458 295.054 352.238 289.213 352.827 C 283.898 353.363 278.890 352.557 274.352 350.123 C 271.899 348.807 270.026 347.003 268.674 344.822 C 267.162 342.385 266.421 339.670 266.159 336.936 C 266.136 336.698 266.116 336.459 266.101 336.221 C 265.082 337.015 264.030 337.775 262.947 338.505 C 256.191 343.058 248.958 347.065 241.372 350.542 L 241.070 351.183 C 237.736 357.197 233.913 363.017 229.483 368.484 C 225.739 373.104 221.481 377.584 216.578 381.353 C 212.762 384.286 208.310 386.870 203.337 388.119 C 198.876 389.240 194.602 388.763 190.683 386.582 C 187.909 384.929 185.840 382.769 184.957 379.968 C 184.022 377.000 184.855 374.004 186.379 371.292 C 187.856 368.664 189.910 366.379 192.469 364.442 C 195.218 362.362 198.249 360.542 201.396 358.923 C 204.928 357.108 208.610 355.502 212.377 354.071 C 216.335 352.568 220.278 351.033 224.207 349.474 L 224.894 348.461 C 222.573 349.709 220.086 350.728 217.444 351.376 C 213.634 352.312 209.943 351.956 206.598 350.118 C 202.568 347.903 201.348 343.875 201.202 339.994 C 196.139 344.377 190.451 348.409 184.127 351.406 C 183.709 352.568 183.250 353.718 182.762 354.859 C 182.190 356.200 181.553 357.521 180.859 358.820 C 178.276 364.203 175.109 369.446 171.138 374.188 C 167.901 378.056 164.064 381.741 159.515 384.526 C 155.830 386.782 151.687 388.495 147.158 389.035 C 142.792 389.557 138.762 388.640 135.065 386.582 C 132.290 384.929 130.222 382.769 129.339 379.968 C 128.404 377.001 129.239 374.004 130.761 371.292 C 132.086 368.928 133.875 366.823 136.088 365.000 C 138.447 363.058 141.099 361.376 143.887 359.908 C 147.020 358.257 150.276 356.773 153.598 355.416 C 157.095 353.987 160.619 352.605 164.163 351.262 C 165.667 348.551 166.878 345.726 167.701 342.810 C 168.428 340.232 168.840 337.534 168.617 334.880 C 168.443 332.807 167.867 330.729 166.568 328.948 C 165.471 327.444 163.960 326.457 161.940 326.028 L 160.686 325.761 L 164.528 319.923 L 165.106 319.923 C 169.115 319.923 172.869 318.867 176.326 317.187 C 179.975 315.412 183.337 313.256 186.241 310.664 C 188.656 308.509 190.856 306.030 192.213 303.268 C 192.965 301.742 193.564 299.728 192.008 298.404 C 191.147 297.671 189.215 297.524 188.076 297.493 C 185.552 297.426 182.773 298.588 180.678 299.683 C 178.980 300.569 177.399 301.690 175.950 302.849 C 174.033 304.380 172.253 306.060 170.570 307.779 C 168.442 309.952 166.574 312.352 164.886 314.786 C 162.752 317.861 160.855 321.073 159.104 324.317 L 158.499 325.441 L 154.308 321.720"/>
<path id="split-ozge-path-16" d="M 160.022 224.304 C 160.023 223.393 160.199 222.464 160.509 221.536 C 161.313 218.816 163.214 216.627 165.755 214.873 C 168.336 213.092 171.291 212.016 174.636 212.016 C 177.602 212.016 180.098 212.948 181.822 215.044 C 183.543 217.135 183.825 219.501 183.123 221.953 C 182.319 224.758 180.432 226.993 177.745 228.739 C 175.953 229.903 173.985 230.784 171.850 231.209"/>
<path id="split-ozge-path-17" d="M 133.794 228.164 C 133.346 227.827 132.930 227.436 132.552 226.991 C 130.769 224.896 130.533 222.454 131.242 219.981 C 132.025 217.249 133.951 215.054 136.493 213.300 C 139.074 211.519 142.030 210.443 145.375 210.443 C 148.341 210.443 150.838 211.375 152.561 213.471 C 154.281 215.562 154.564 217.928 153.861 220.380 C 153.548 221.476 153.072 222.489 152.451 223.420"/>
<path id="split-ozge-path-18" d="M 154.308 321.720 C 153.427 322.882 152.530 324.036 151.618 325.182 C 145.825 332.462 139.475 339.429 132.501 345.919 C 126.126 351.854 119.162 357.355 111.554 362.132 C 105.115 366.175 97.995 369.722 90.368 371.863 C 83.941 373.667 77.266 374.279 70.611 373.042 C 63.785 371.773 58.468 368.215 54.254 363.571 C 50.174 359.074 47.571 354.037 46.635 348.406 C 45.675 342.625 45.950 336.795 47.164 331.057 C 48.476 324.855 50.655 318.815 53.497 313.000 C 56.409 307.040 59.700 301.215 63.372 295.567 C 66.870 290.184 70.635 284.921 74.712 279.841 C 78.127 275.585 81.685 271.406 85.412 267.342 L 91.564 260.635 C 88.896 258.391 86.126 256.234 83.255 254.179 C 80.330 252.085 77.264 250.132 74.051 248.370 C 71.100 246.751 67.983 245.354 64.713 244.264 C 61.607 243.231 58.372 242.721 55.001 242.720 C 49.173 242.490 44.103 244.142 39.812 247.483 C 37.840 249.018 36.175 250.814 34.754 252.737 C 33.281 254.732 32.122 256.868 31.308 259.120 C 30.526 261.283 30.168 263.510 30.305 265.770 C 30.434 267.920 31.208 269.879 32.663 271.683 C 34.525 274.284 37.203 275.894 40.648 276.654 C 44.028 277.401 47.310 277.144 50.367 275.670 C 51.418 275.163 52.371 274.276 53.111 273.477 C 53.807 272.728 54.541 271.749 54.683 270.780 L 54.814 269.891 L 55.848 270.059 C 58.362 270.466 61.031 271.284 62.701 273.021 C 64.090 274.466 64.806 276.135 64.806 278.002 C 64.806 279.865 64.274 281.653 63.355 283.338 C 62.458 284.982 61.258 286.485 59.645 287.720 C 56.943 289.614 53.722 290.746 50.331 291.368 C 46.539 292.065 42.763 291.892 39.059 290.904 C 33.858 289.517 29.055 287.197 25.801 283.390 C 22.866 279.956 21.167 276.088 20.601 271.870 C 20.000 267.399 20.614 262.943 22.097 258.637 C 23.639 254.166 25.907 249.940 28.910 246.046 C 31.865 242.215 35.501 238.885 39.807 236.137 C 43.925 233.508 48.533 231.721 53.638 231.084 C 58.904 230.427 64.331 230.341 69.561 231.271 C 74.158 232.088 78.583 233.424 82.697 235.362 C 86.673 237.236 90.343 239.513 93.661 242.157 C 96.752 244.619 99.766 247.150 102.707 249.741 C 105.521 247.252 108.400 244.817 111.331 242.430 C 114.586 239.777 117.992 237.260 121.547 234.900 C 124.985 232.618 128.622 230.557 132.448 228.776 C 132.894 228.569 133.343 228.364 133.794 228.164"/>
<path id="split-ozge-path-19" d="M 152.451 223.420 C 155.010 223.365 157.564 223.619 160.022 224.304"/>
<path id="split-ozge-path-20" d="M 171.850 231.209 C 175.025 234.555 177.205 238.418 178.616 242.535 C 180.049 246.716 180.951 251.025 181.060 255.386 C 181.251 263.015 179.839 270.670 177.578 278.037 C 175.767 283.940 173.451 289.720 170.708 295.351"/>
</g>
</svg>