<svg xmlns="http://www.w3.org/2000/svg" width="800mm" height="600mm" viewBox="0 0 800 600" data-corel-reference="true" data-split-child="true">
<title>Split golden reference: Samet from sumeyye.svg</title>
<rect x="0" y="0" width="800" height="600" fill="#ffffff"/>
<g id="split-reference-samet" fill="none" stroke="#020617" stroke-width="0.22" stroke-linejoin="round" stroke-linecap="round" vector-effect="non-scaling-stroke" data-source-file="sumeyye.svg" data-label="Samet">
<path id="split-samet-path-1" d="M 688.248 311.761 C 688.064 312.208 687.847 312.861 687.941 313.329 C 687.988 313.564 688.099 313.696 688.354 313.792 C 689.494 314.219 691.313 313.759 692.407 313.416 C 694.838 312.652 697.240 311.386 699.362 310.127 C 702.296 308.386 704.981 306.321 707.421 304.093 C 710.213 301.545 712.996 298.410 714.276 295.049 C 714.645 294.081 715.059 292.838 715.059 291.812 C 715.059 291.522 715.023 290.945 714.689 290.766 L 714.678 290.760 L 714.665 290.753 C 713.018 289.812 711.067 290.175 709.369 290.821 C 706.623 291.867 704.119 293.537 701.949 295.298 C 699.139 297.580 696.634 300.154 694.375 302.844 C 692.018 305.649 689.941 308.623 688.248 311.761 L 688.248 311.761 Z"/>
<path id="split-samet-path-2" d="M 559.551 313.237 C 560.981 310.452 562.402 307.664 563.810 304.870 C 564.934 302.638 565.965 300.311 566.672 297.953 C 567.133 296.416 567.555 294.625 567.474 293.030 C 567.425 292.047 567.026 291.275 566.003 290.788 L 565.981 290.778 L 565.960 290.766 C 564.947 290.224 563.386 291.053 562.573 291.543 C 560.411 292.847 558.440 294.594 556.720 296.306 C 554.344 298.671 552.212 301.249 550.250 303.875 C 548.096 306.761 546.186 309.771 544.488 312.871 C 543.049 315.498 541.707 318.171 540.572 320.906 C 539.586 323.284 538.719 325.724 538.111 328.196 C 537.680 329.953 537.323 331.893 537.404 333.694 C 537.437 334.431 537.600 335.489 538.535 335.790 L 538.609 335.814 L 538.677 335.847 C 539.503 336.252 541.154 335.235 541.751 334.841 C 543.849 333.458 545.749 331.655 547.412 329.898 C 549.718 327.461 551.822 324.862 553.795 322.220 C 555.946 319.340 557.879 316.341 559.551 313.237 L 559.551 313.237 Z"/>
<path id="split-samet-path-3" d="M 432.067 237.922 C 431.750 238.073 431.337 238.345 431.179 238.453 C 430.284 239.063 429.433 239.789 428.636 240.491 C 427.131 241.816 425.714 243.237 424.351 244.669 C 422.522 246.590 420.766 248.568 419.050 250.563 C 414.406 255.964 410.111 261.651 405.989 267.353 C 400.649 274.741 395.800 282.418 391.266 290.190 L 390.464 291.597 C 395.028 286.716 399.490 281.766 403.846 276.747 C 409.264 270.502 414.572 264.171 419.627 257.706 C 421.657 255.109 423.643 252.481 425.531 249.806 C 427.019 247.699 428.458 245.551 429.760 243.355 C 430.514 242.080 431.324 240.643 431.795 239.269 C 431.869 239.055 432.089 238.324 432.067 237.922 L 432.067 237.922 Z"/>
<path id="split-samet-path-6" d="M 525.974 313.051 C 529.152 307.758 532.757 302.488 536.999 297.824 C 540.540 293.929 544.625 290.033 549.249 287.061 C 552.611 284.901 556.511 282.987 560.671 282.274 C 563.856 281.728 567.192 281.716 570.207 282.865 L 570.228 282.873 L 570.248 282.881 C 571.613 283.466 572.809 284.239 573.697 285.247 L 574.193 284.396 L 593.191 284.396 L 571.525 324.288 L 571.106 325.007 C 570.102 326.779 569.130 328.578 568.276 330.407 C 567.712 331.616 567.153 332.910 566.814 334.182 C 566.692 334.639 566.515 335.505 566.782 335.948 C 566.956 336.239 567.388 336.271 567.728 336.271 C 571.004 336.271 574.178 332.883 575.871 330.833 C 578.488 327.664 580.757 324.191 582.822 320.739 L 602.884 284.396 L 622.126 284.396 L 618.755 290.414 C 620.852 288.888 623.128 287.523 625.547 286.529 C 629.028 285.100 632.721 284.396 636.581 284.396 C 639.293 284.396 641.570 285.265 643.195 287.144 C 644.453 288.600 644.997 290.312 645.102 292.070 C 650.200 288.326 656.971 284.396 663.623 284.396 C 665.543 284.396 667.335 284.829 668.886 285.809 C 670.442 286.791 671.460 288.135 672.047 289.706 C 672.723 291.517 672.715 293.479 672.396 295.344 C 671.990 297.709 670.836 299.987 669.470 302.054 C 665.417 308.188 661.411 314.341 657.409 320.499 C 656.063 322.570 654.733 324.649 653.441 326.744 C 652.490 328.287 651.553 329.841 650.677 331.415 C 650.094 332.461 649.520 333.536 649.046 334.622 C 648.834 335.110 648.522 335.846 648.482 336.367 C 648.476 336.453 648.469 336.696 648.517 336.797 C 648.557 336.804 648.617 336.806 648.645 336.806 C 651.992 336.806 655.693 333.104 657.543 331.069 C 661.353 326.881 664.498 322.029 667.199 317.262 C 667.688 316.255 668.214 315.261 668.772 314.282 C 672.302 308.095 676.589 301.985 681.919 296.804 C 685.948 292.886 690.574 289.086 695.760 286.307 C 699.652 284.223 704.044 282.470 708.623 281.909 C 711.998 281.496 715.660 281.549 718.770 282.881 L 718.782 282.886 L 718.793 282.891 C 721.081 283.937 722.834 285.471 724.080 287.418 C 725.404 289.488 726.039 291.763 726.177 294.110 C 726.334 296.811 725.837 299.532 724.998 302.131 C 724.006 305.205 722.288 308.058 720.179 310.674 C 717.321 314.220 713.928 317.492 709.864 320.054 C 706.547 322.146 702.825 323.933 698.817 324.826 C 695.638 325.534 692.241 325.772 689.045 325.000 C 686.878 324.476 685.116 323.506 683.788 322.097 C 683.083 324.795 682.699 327.625 683.010 330.346 C 683.290 332.793 684.427 334.774 687.116 335.810 L 687.134 335.818 L 687.152 335.826 C 689.589 336.869 692.664 336.669 695.246 336.201 C 699.053 335.510 702.652 334.117 705.961 332.384 C 709.883 330.330 713.454 327.801 716.699 325.020 C 719.586 322.547 722.121 319.803 724.243 316.816 L 737.792 292.142 L 728.639 292.142 L 732.892 284.396 L 742.045 284.396 L 758.410 254.570 L 780.000 249.945 L 761.268 284.396 L 775.754 284.396 L 772.032 292.142 L 757.024 292.142 L 739.188 324.997 L 739.184 325.003 C 737.920 327.234 735.875 331.261 736.554 333.806 C 736.907 335.132 737.591 336.271 739.340 336.271 C 740.938 336.271 743.010 335.464 744.402 334.850 C 746.938 333.730 749.319 332.242 751.502 330.674 C 754.251 328.701 756.720 326.417 758.958 324.020 C 761.487 321.311 763.579 318.334 765.282 315.189 L 765.888 314.071 L 772.136 319.658 L 771.847 320.182 C 769.434 324.546 766.511 328.697 762.989 332.470 C 759.829 335.854 756.294 339.001 752.327 341.695 C 748.888 344.031 745.129 346.073 741.068 347.517 C 737.695 348.717 734.067 349.543 730.395 349.543 C 727.611 349.543 724.935 349.028 722.517 347.824 C 720.154 346.648 718.462 344.947 717.422 342.782 C 716.590 341.051 716.283 339.144 716.275 337.256 C 712.181 340.554 707.696 343.500 702.796 345.869 C 697.720 348.323 692.222 350.106 686.412 350.695 C 681.124 351.232 676.142 350.426 671.627 347.987 C 669.187 346.668 667.323 344.861 665.977 342.676 C 664.895 340.918 664.209 339.015 663.813 337.066 C 662.457 338.671 661.013 340.223 659.463 341.690 C 654.668 346.226 648.697 349.543 641.365 349.543 C 638.431 349.543 635.474 349.014 633.152 347.392 C 630.636 345.635 630.027 342.767 630.086 340.128 C 630.177 336.048 632.240 331.298 634.120 327.597 C 635.602 324.679 637.348 321.835 639.185 319.071 C 641.500 315.587 643.998 312.183 646.578 308.840 L 646.583 308.834 L 646.588 308.827 C 647.941 307.141 649.250 305.417 650.448 303.646 C 651.363 302.292 652.234 300.886 652.939 299.442 C 653.236 298.834 653.554 298.117 653.669 297.462 C 653.691 297.340 653.742 296.925 653.657 296.802 C 653.604 296.781 653.478 296.777 653.430 296.777 C 652.603 296.777 651.116 297.705 650.494 298.116 C 648.720 299.291 647.060 300.664 645.505 302.045 C 643.470 303.854 641.606 305.821 639.868 307.843 C 637.896 310.137 636.123 312.554 634.532 315.055 C 632.542 318.181 630.664 321.368 628.830 324.561 C 626.746 328.192 624.683 331.832 622.704 335.505 C 620.393 339.797 618.201 344.137 616.061 348.493 L 615.808 349.008 L 596.537 349.008 L 597.212 347.802 C 600.200 342.457 603.182 337.111 606.155 331.760 L 606.160 331.753 L 606.164 331.745 C 607.414 329.602 608.623 327.441 609.790 325.264 C 610.946 323.109 612.126 320.963 613.335 318.830 C 614.412 316.930 615.487 315.030 616.558 313.127 C 617.358 311.708 618.180 310.285 619.073 308.907 C 620.160 307.095 621.212 305.247 622.126 303.365 C 622.725 302.136 623.323 300.797 623.660 299.496 C 623.791 298.990 623.986 298.062 623.774 297.558 C 623.682 297.339 623.534 297.312 623.268 297.312 C 621.753 297.312 619.059 300.028 618.204 300.924 C 616.814 302.380 615.517 303.908 614.275 305.458 C 612.735 307.381 611.273 309.354 609.859 311.346 C 606.368 316.265 603.078 321.298 599.900 326.370 C 596.275 332.157 592.785 338.004 589.412 343.902 L 587.547 347.162 L 587.547 347.043 L 586.443 349.008 L 567.216 349.008 L 567.907 347.756 C 565.063 348.920 562.021 349.543 558.784 349.543 C 552.488 349.543 548.541 347.084 547.292 342.196 C 543.875 344.850 540.023 347.178 535.754 348.678 C 531.429 350.197 527.126 350.108 523.114 347.992 L 523.102 347.986 L 523.091 347.979 C 519.401 345.911 518.046 342.322 517.712 338.716"/>
<path id="split-samet-path-7" d="M 517.712 338.716 C 516.649 340.197 515.501 341.637 514.282 343.036 C 511.120 346.665 507.429 349.901 503.153 352.571 C 499.014 355.156 494.511 357.228 489.704 358.742 C 484.891 360.259 479.892 361.194 474.781 361.554 C 469.556 361.922 464.337 361.597 459.213 360.648 C 450.351 359.173 442.548 355.823 436.712 349.846 C 431.293 344.298 427.831 337.950 426.408 330.819 C 424.959 323.555 425.606 316.303 427.993 309.230 C 430.451 301.946 434.827 295.614 441.263 290.402 C 445.061 287.325 449.365 284.817 454.111 282.940 C 458.242 281.306 462.752 280.234 467.332 280.367 C 470.969 280.369 474.702 280.818 478.025 282.138 C 480.443 283.098 482.963 284.337 484.859 285.961 C 487.188 287.958 491.872 292.170 490.831 295.342 C 490.405 296.641 489.312 297.400 487.765 297.589 C 486.048 297.799 483.978 297.293 482.375 296.797 C 477.934 295.425 473.316 295.673 468.843 296.812 C 463.420 298.194 458.540 300.683 454.217 303.782 C 451.319 305.859 448.802 308.329 446.580 310.941 C 444.089 313.868 442.196 317.121 440.784 320.531 C 439.240 324.259 438.552 328.153 438.552 332.104 C 438.552 336.159 439.818 339.903 442.351 343.329 C 445.605 347.728 450.000 350.936 455.926 352.326 C 461.667 353.673 467.531 353.748 473.348 352.672 C 479.425 351.547 485.039 349.404 490.160 346.383 C 494.915 343.579 499.043 340.087 501.814 335.712 L 501.819 335.705 L 501.823 335.698 C 504.581 331.535 506.381 327.055 507.006 322.294 C 507.617 317.639 507.484 312.974 506.596 308.353 C 505.693 303.648 504.052 299.095 501.781 294.745 C 499.493 290.362 496.755 286.165 493.551 282.226 L 493.540 282.211 L 493.528 282.196 C 490.482 278.094 488.566 273.575 487.666 268.776 C 486.757 263.920 486.710 259.028 487.561 254.167 C 488.406 249.337 490.072 244.694 492.535 240.290 C 494.938 235.994 498.138 232.142 502.217 228.896 C 506.285 225.659 511.036 223.336 516.308 221.850 C 522.141 220.205 528.243 220.124 534.256 221.018 C 538.256 221.612 542.035 222.803 545.442 224.707 C 548.683 226.519 551.440 228.792 553.621 231.534 C 555.825 234.304 557.271 237.382 558.037 240.668 C 558.857 244.182 558.741 247.739 557.934 251.245 C 556.850 255.956 554.755 260.366 551.296 264.168 C 548.268 267.497 544.593 270.325 540.130 272.164 C 536.646 273.599 532.823 274.176 528.974 274.119 C 525.093 274.060 521.440 273.196 518.313 271.187 L 518.297 271.176 L 518.281 271.165 C 516.452 269.883 515.278 268.136 514.539 266.234 C 513.580 263.771 514.251 261.203 515.519 258.921 L 515.877 258.277 L 516.677 258.473 C 519.291 259.113 521.987 259.341 524.682 258.985 C 527.282 258.642 529.747 257.925 532.059 256.849 C 534.410 255.756 536.423 254.292 538.109 252.513 C 539.860 250.666 541.195 248.600 542.104 246.351 C 543.433 243.061 543.860 239.632 542.713 236.254 C 541.569 232.885 538.597 230.771 534.940 229.393 C 532.604 228.512 530.176 228.166 527.636 228.390 C 525.020 228.620 522.525 229.259 520.174 230.266 C 517.660 231.344 515.383 232.760 513.335 234.405 C 511.308 236.034 509.512 237.867 508.101 239.923 L 508.094 239.932 L 508.087 239.942 C 504.558 244.782 502.397 250.198 503.441 255.945 C 504.460 261.557 506.998 266.829 510.385 271.685 C 514.247 277.220 517.580 283.012 520.338 289.011 C 522.991 294.784 524.808 300.794 525.600 306.965 C 525.861 308.996 525.984 311.026 525.974 313.051"/>
</g>
</svg>