<svg xmlns="http://www.w3.org/2000/svg" width="800mm" height="600mm" viewBox="0 0 800 600" data-corel-reference="true" data-split-child="true">
<title>Split golden reference: Selnay from gokce.svg</title>
<rect x="0" y="0" width="800" height="600" fill="#ffffff"/>
<g id="split-reference-selnay" fill="none" stroke="#020617" stroke-width="0.22" stroke-linejoin="round" stroke-linecap="round" vector-effect="non-scaling-stroke" data-source-file="gokce.svg" data-label="Selnay">
<path id="split-selnay-path-1" d="M 703.758 371.284 C 703.440 372.379 703.096 374.145 704.377 374.859 C 705.605 375.400 706.868 375.092 708.013 374.515 C 709.827 373.601 711.465 372.208 712.847 370.826 C 714.813 368.861 716.571 366.681 718.187 364.476 C 719.721 362.382 721.191 360.250 722.611 358.093 C 718.606 359.951 714.653 361.951 710.894 364.170 C 707.992 365.882 704.942 368.249 703.758 371.284 L 703.758 371.284 Z"/>
<path id="split-selnay-path-2" d="M 690.229 313.138 C 691.557 310.424 692.876 307.705 694.183 304.982 C 695.231 302.798 696.191 300.522 696.850 298.216 C 697.283 296.700 697.675 294.941 697.599 293.369 C 697.550 292.354 697.146 291.551 696.140 291.048 L 696.123 291.040 L 696.108 291.031 C 695.084 290.455 693.593 291.267 692.763 291.793 C 690.743 293.072 688.903 294.784 687.296 296.462 C 685.085 298.773 683.101 301.292 681.276 303.859 C 679.271 306.677 677.494 309.617 675.915 312.645 C 674.577 315.210 673.328 317.821 672.273 320.491 C 671.354 322.816 670.547 325.201 669.983 327.617 C 669.578 329.344 669.246 331.247 669.322 333.016 C 669.356 333.814 669.537 334.885 670.490 335.207 L 670.545 335.225 L 670.596 335.251 C 671.460 335.696 673.015 334.698 673.650 334.259 C 675.610 332.902 677.383 331.137 678.935 329.414 C 681.080 327.033 683.038 324.495 684.873 321.915 C 686.875 319.101 688.673 316.172 690.229 313.138 L 690.229 313.138 Z"/>
<path id="split-selnay-path-3" d="M 605.559 241.742 C 605.258 241.843 604.724 242.203 604.555 242.323 C 603.694 242.930 602.874 243.664 602.112 244.368 C 600.711 245.663 599.393 247.052 598.124 248.452 C 596.424 250.326 594.793 252.256 593.198 254.203 C 588.884 259.471 584.894 265.017 581.066 270.579 C 576.105 277.784 571.602 285.271 567.390 292.850 L 565.927 295.543 C 570.522 290.414 575.008 285.205 579.377 279.918 C 584.408 273.830 589.337 267.657 594.032 261.354 C 595.918 258.821 597.762 256.257 599.516 253.648 C 600.900 251.590 602.238 249.494 603.449 247.349 C 603.907 246.537 604.347 245.711 604.735 244.870 C 605.008 244.277 605.268 243.655 605.444 243.033 C 605.537 242.701 605.636 242.269 605.599 241.926 C 605.596 241.890 605.583 241.807 605.559 241.742 L 605.559 241.742 Z"/>
<path id="split-selnay-path-4" d="M 505.816 311.572 C 505.633 312.038 505.427 312.697 505.521 313.189 C 505.575 313.473 505.717 313.646 506.011 313.762 C 507.124 314.200 508.838 313.753 509.909 313.400 C 512.181 312.650 514.423 311.410 516.406 310.176 C 519.141 308.472 521.642 306.452 523.916 304.272 C 526.527 301.769 529.123 298.695 530.320 295.395 C 530.582 294.672 531.643 291.602 530.627 291.031 L 530.618 291.026 L 530.609 291.020 C 529.024 290.069 527.156 290.419 525.517 291.074 C 522.949 292.101 520.608 293.738 518.578 295.468 C 515.961 297.699 513.629 300.216 511.524 302.846 C 509.329 305.590 507.393 308.501 505.816 311.572 L 505.816 311.572 Z"/>
<path id="split-selnay-path-9" d="M 594.307 285.126 C 593.593 283.552 593.624 281.839 594.201 280.100 C 594.933 277.480 596.668 275.372 598.983 273.683 C 601.333 271.968 604.023 270.931 607.070 270.931 C 609.749 270.931 611.999 271.814 613.557 273.817 C 615.115 275.820 615.381 278.084 614.729 280.433 C 614.001 283.053 612.272 285.136 609.933 286.785 C 609.716 286.939 609.496 287.086 609.273 287.228"/>
<path id="split-selnay-path-10" d="M 494.011 304.625 C 495.902 302.000 497.972 299.485 500.247 297.163 C 503.976 293.358 508.256 289.663 513.056 286.963 C 516.646 284.944 520.701 283.243 524.925 282.700 C 528.019 282.302 531.385 282.349 534.236 283.632 L 534.245 283.636 L 534.254 283.640 C 536.346 284.644 537.948 286.116 539.088 287.986 C 540.303 289.981 540.885 292.175 541.011 294.437 C 541.156 297.053 540.697 299.687 539.924 302.203 C 539.008 305.181 537.422 307.946 535.476 310.481 C 532.834 313.921 529.699 317.098 525.943 319.584 C 522.883 321.610 519.447 323.343 515.750 324.208 C 512.831 324.891 509.710 325.123 506.776 324.378 C 504.670 323.844 502.987 322.826 501.753 321.333 C 501.040 324.080 500.638 326.978 500.942 329.763 C 501.208 332.207 502.303 334.187 504.859 335.223 L 504.873 335.228 L 504.886 335.234 C 507.189 336.270 510.078 336.078 512.519 335.613 C 516.074 334.937 519.434 333.572 522.523 331.873 C 526.176 329.864 529.502 327.392 532.525 324.672 C 535.616 321.890 538.266 318.769 540.402 315.338 C 540.543 314.866 540.687 314.395 540.835 313.925 C 542.124 309.816 543.768 305.770 545.559 301.819 C 547.800 296.872 550.309 292.011 552.952 287.228 C 558.219 277.697 563.907 268.319 570.172 259.286 C 572.809 255.484 575.553 251.735 578.452 248.089 C 580.918 244.988 583.505 241.949 586.263 239.052 C 588.538 236.664 590.960 234.347 593.574 232.256 C 595.659 230.589 597.926 229.017 600.363 227.787 C 603.969 225.968 608.157 224.960 611.913 227.017 L 611.919 227.021 L 611.925 227.024 C 615.767 229.224 615.983 233.643 615.443 237.307 C 615.024 240.152 614.047 243.010 612.916 245.686 C 611.416 249.235 609.541 252.695 607.542 256.036 C 605.020 260.251 602.211 264.344 599.277 268.336 C 595.722 273.175 591.954 277.895 588.076 282.529 C 583.536 287.956 578.754 293.225 573.830 298.373 C 568.246 304.213 562.469 309.905 556.569 315.487 C 556.005 317.118 555.484 318.765 555.039 320.425 C 554.670 321.806 554.349 323.209 554.136 324.617 C 553.831 326.624 553.599 328.798 553.754 330.825 C 553.840 331.938 554.044 333.384 554.636 334.383 C 554.885 334.805 555.367 335.532 555.863 335.755 L 555.881 335.763 L 555.899 335.773 C 556.801 336.237 558.455 335.476 559.229 335.077 C 561.320 334.003 563.269 332.453 564.965 330.927 C 567.337 328.792 569.481 326.405 571.456 323.967 C 573.721 321.173 575.655 318.179 577.274 315.043 L 577.723 314.171 L 577.751 314.197 L 592.919 285.126 L 594.307 285.126"/>
<path id="split-selnay-path-11" d="M 609.273 287.228 L 589.987 324.463 L 589.984 324.467 C 589.047 326.204 588.137 327.964 587.324 329.751 C 586.779 330.948 586.242 332.211 585.883 333.466 C 585.745 333.947 585.560 334.802 585.842 335.269 C 586.061 335.633 586.599 335.686 587.011 335.686 C 590.130 335.686 593.103 332.370 594.718 330.317 C 596.668 327.838 598.396 325.179 599.992 322.505 L 619.762 285.126 L 637.020 285.126 L 630.384 297.626 C 631.620 296.451 632.893 295.307 634.207 294.207 C 636.351 292.412 638.627 290.713 641.054 289.235 C 644.573 287.094 648.895 285.126 653.241 285.126 C 654.985 285.126 656.610 285.536 658.019 286.470 C 659.432 287.407 660.355 288.689 660.888 290.187 C 661.507 291.927 661.497 293.816 661.204 295.608 C 660.831 297.892 659.767 300.095 658.511 302.091 C 654.748 308.069 651.029 314.067 647.314 320.070 C 646.064 322.089 644.829 324.116 643.629 326.160 C 642.745 327.665 641.874 329.182 641.059 330.718 C 640.516 331.742 639.981 332.794 639.540 333.857 C 639.335 334.351 639.044 335.077 639.005 335.605 C 638.995 335.735 638.990 336.036 639.083 336.150 C 639.127 336.204 639.277 336.207 639.339 336.207 C 642.530 336.207 646.051 332.578 647.843 330.548 C 650.945 327.034 653.548 323.042 655.816 319.053 C 656.438 317.753 657.103 316.469 657.801 315.202 C 659.562 312.006 661.438 308.852 663.488 305.798 C 665.258 303.160 667.166 300.581 669.272 298.150 C 672.548 294.366 676.330 290.578 680.609 287.690 C 683.707 285.600 687.304 283.744 691.138 283.054 C 694.056 282.529 697.117 282.514 699.880 283.619 L 699.895 283.625 L 699.910 283.632 C 701.243 284.231 702.400 285.036 703.222 286.107 L 703.767 285.126 L 721.003 285.126 L 701.013 323.771 L 700.624 324.471 C 699.691 326.201 698.787 327.959 697.993 329.745 C 697.465 330.932 696.943 332.201 696.626 333.448 C 696.501 333.944 696.339 334.804 696.613 335.282 C 696.811 335.630 697.257 335.686 697.653 335.686 C 700.772 335.686 703.745 332.370 705.360 330.317 C 707.451 327.658 709.292 324.789 710.985 321.912 C 711.877 320.119 712.823 318.346 713.799 316.590 C 715.207 314.056 716.622 311.525 718.071 309.010 C 719.318 306.847 720.591 304.692 721.927 302.573 C 723.983 299.312 726.107 296.085 728.315 292.906 C 730.048 290.411 731.759 287.896 733.535 285.426 L 733.750 285.126 L 751.114 285.126 L 750.404 286.134 C 747.952 289.618 745.576 293.145 743.275 296.711 L 743.270 296.718 L 743.265 296.726 C 741.036 299.984 738.933 303.316 736.914 306.683 C 734.858 310.111 732.915 313.598 731.145 317.152 L 731.142 317.158 L 731.138 317.164 C 729.670 319.956 728.244 322.780 726.955 325.643 C 726.081 327.587 725.222 329.620 724.619 331.648 C 724.339 332.587 723.950 334.058 724.105 335.034 C 724.161 335.387 724.245 335.686 724.686 335.686 C 724.973 335.686 725.614 335.261 725.828 335.109 C 726.674 334.511 727.478 333.750 728.201 333.034 C 730.528 330.731 732.676 328.216 734.717 325.705 C 737.414 322.384 739.961 318.957 742.414 315.488 C 745.058 311.750 747.664 307.990 750.227 304.206 C 752.585 300.724 754.877 297.202 757.066 293.632 C 758.714 290.944 760.354 288.235 761.879 285.489 L 762.081 285.126 L 779.107 285.126 L 778.645 286.052 C 775.730 291.895 772.663 297.679 769.561 303.444 C 766.544 309.050 763.585 314.682 760.583 320.295 C 757.742 325.610 754.921 330.933 752.124 336.266 C 756.183 333.811 760.009 331.061 763.577 328.046 C 767.969 324.333 771.400 319.892 774.041 315.031 L 774.501 314.186 L 780.000 319.349 L 779.808 319.750 C 776.802 326.020 772.083 331.212 766.174 335.466 C 759.970 339.932 753.307 343.846 746.312 347.233 L 746.016 347.898 L 746.007 347.916 C 742.938 353.770 739.413 359.445 735.327 364.775 C 731.863 369.295 727.906 373.661 723.336 377.316 C 719.797 380.147 715.667 382.667 711.086 383.884 C 709.153 384.397 707.151 384.602 705.148 384.345 C 703.184 384.093 701.380 383.416 699.749 382.405 C 697.209 380.830 695.339 378.739 694.534 376.040 C 693.682 373.183 694.442 370.297 695.833 367.687 C 697.076 365.205 698.890 363.059 701.119 361.225 C 703.551 359.224 706.240 357.477 709.052 355.936 C 712.188 354.219 715.449 352.684 718.780 351.297 C 722.301 349.830 725.834 348.383 729.375 346.954 C 731.011 344.233 732.610 341.493 734.173 338.738 C 734.734 337.747 735.292 336.755 735.844 335.760 C 733.278 338.460 730.532 341.034 727.579 343.353 C 724.695 345.619 720.584 348.293 716.576 348.293 C 714.073 348.293 711.584 347.816 709.566 346.419 C 707.515 344.999 706.587 342.818 706.222 340.580 C 706.186 340.617 706.150 340.653 706.114 340.690 C 701.684 345.147 696.174 348.293 689.350 348.293 C 683.479 348.293 679.860 345.857 678.796 340.981 C 675.582 343.635 671.944 345.972 667.904 347.462 C 663.943 348.923 660.009 348.840 656.335 346.806 L 656.326 346.801 L 656.318 346.796 C 653.109 344.908 651.841 341.699 651.461 338.427 C 650.779 339.200 650.075 339.955 649.344 340.690 C 644.915 345.147 639.404 348.293 632.580 348.293 C 629.900 348.293 627.194 347.790 625.072 346.234 C 622.783 344.555 622.239 341.803 622.293 339.284 C 622.331 337.476 622.749 335.624 623.285 333.887 C 623.994 331.585 624.963 329.321 626.022 327.133 C 627.396 324.294 629.014 321.528 630.715 318.839 C 632.862 315.446 635.179 312.132 637.571 308.876 L 637.575 308.871 L 637.579 308.866 C 638.841 307.214 640.065 305.530 641.196 303.802 C 642.068 302.469 642.901 301.092 643.595 299.678 C 643.903 299.051 644.434 297.886 644.379 297.187 C 644.358 296.908 644.284 296.865 643.973 296.865 C 642.601 296.865 639.707 299.278 638.780 300.071 C 637.329 301.314 635.951 302.634 634.624 303.983 C 633.013 305.622 631.469 307.315 629.969 309.036 C 626.309 313.233 622.910 317.637 619.676 322.107 C 616.069 327.090 612.735 332.231 609.676 337.504 L 604.272 347.772 L 586.628 347.772 L 587.298 346.503 C 584.683 347.663 581.883 348.293 578.901 348.293 C 573.717 348.293 569.704 346.470 568.346 341.719 C 568.195 341.190 568.090 340.652 568.024 340.110 C 566.934 341.064 565.783 341.963 564.564 342.777 C 561.843 344.594 558.752 346.233 555.466 347.053 C 552.727 347.736 549.943 347.821 547.219 347.049 C 544.434 346.350 542.260 344.605 540.566 342.555 C 538.148 339.629 537.574 335.373 537.525 331.833 C 537.521 331.574 537.521 331.315 537.525 331.056 C 536.408 332.225 535.247 333.361 534.044 334.458 C 529.685 338.435 524.816 341.984 519.401 344.733 C 514.710 347.114 509.629 348.845 504.259 349.418 C 499.393 349.936 494.809 349.159 490.654 346.802 C 488.416 345.532 486.708 343.792 485.474 341.688 C 484.575 340.155 483.974 338.508 483.597 336.818"/>
<path id="split-selnay-path-12" d="M 483.597 336.818 C 483.500 336.937 483.402 337.056 483.303 337.175 C 480.378 340.698 476.965 343.841 473.011 346.434 C 469.183 348.945 465.018 350.956 460.571 352.427 C 456.119 353.900 451.495 354.809 446.766 355.158 C 441.933 355.516 437.106 355.200 432.368 354.278 C 424.181 352.848 416.975 349.602 411.583 343.806 C 406.574 338.420 403.373 332.260 402.059 325.338 C 400.718 318.283 401.317 311.240 403.525 304.370 C 405.798 297.299 409.843 291.153 415.793 286.093 C 419.305 283.106 423.283 280.672 427.671 278.850 C 431.480 277.268 435.640 276.228 439.864 276.357 C 443.213 276.358 446.655 276.792 449.717 278.068 C 451.940 278.996 454.264 280.192 456.009 281.762 C 457.638 283.228 459.392 284.957 460.542 286.764 C 461.283 287.928 461.928 289.391 461.505 290.744 C 461.129 291.947 460.173 292.641 458.808 292.816 C 457.249 293.016 455.349 292.525 453.893 292.052 C 449.734 290.702 445.408 290.943 441.218 292.064 C 436.160 293.417 431.608 295.854 427.576 298.888 C 424.874 300.921 422.528 303.339 420.456 305.895 C 418.133 308.761 416.368 311.945 415.051 315.284 C 413.611 318.935 412.969 322.750 412.969 326.618 C 412.969 330.602 414.154 334.281 416.525 337.646 C 419.570 341.969 423.686 345.120 429.231 346.486 C 434.589 347.806 440.062 347.880 445.490 346.825 C 451.154 345.725 456.388 343.628 461.161 340.672 C 465.599 337.923 469.450 334.500 472.036 330.214 L 472.040 330.208 L 472.043 330.203 C 474.615 326.125 476.293 321.738 476.876 317.075 C 477.445 312.524 477.321 307.961 476.495 303.443 C 475.654 298.843 474.126 294.392 472.011 290.139 C 469.883 285.858 467.336 281.758 464.355 277.910 L 464.346 277.899 L 464.338 277.887 C 461.524 273.907 459.754 269.525 458.923 264.869 C 458.082 260.153 458.039 255.402 458.825 250.681 C 459.607 245.990 461.148 241.480 463.427 237.203 C 465.648 233.034 468.604 229.296 472.374 226.146 C 476.131 223.008 480.518 220.756 485.387 219.314 C 490.773 217.720 496.407 217.644 501.959 218.509 C 505.648 219.085 509.132 220.238 512.274 222.081 C 515.263 223.835 517.804 226.035 519.816 228.690 C 521.848 231.371 523.180 234.351 523.887 237.532 C 524.644 240.936 524.535 244.381 523.791 247.778 C 522.790 252.344 520.858 256.617 517.665 260.304 C 514.871 263.528 511.482 266.268 507.364 268.049 C 504.156 269.437 500.636 269.995 497.091 269.939 C 493.527 269.882 490.171 269.051 487.301 267.114 L 487.289 267.106 L 487.277 267.097 C 485.607 265.868 484.536 264.189 483.860 262.366 C 482.986 260.007 483.606 257.546 484.763 255.361 L 485.028 254.859 L 485.622 255.012 C 488.073 255.642 490.602 255.865 493.131 255.515 C 495.565 255.178 497.874 254.473 500.038 253.415 C 502.241 252.339 504.129 250.898 505.709 249.148 C 507.348 247.333 508.597 245.303 509.448 243.092 C 510.694 239.853 511.091 236.478 510.016 233.152 C 508.939 229.820 506.144 227.724 502.699 226.360 C 500.502 225.490 498.216 225.149 495.826 225.370 C 493.376 225.596 491.040 226.224 488.838 227.215 C 486.488 228.272 484.360 229.662 482.445 231.277 C 480.551 232.874 478.873 234.673 477.555 236.690 L 477.550 236.698 L 477.545 236.705 C 474.244 241.457 472.230 246.773 473.206 252.415 C 474.155 257.906 476.519 263.064 479.676 267.816 C 483.255 273.202 486.344 278.839 488.900 284.678 C 491.358 290.291 493.041 296.134 493.774 302.135 C 493.876 302.965 493.955 303.795 494.011 304.625"/>
</g>
</svg>