<svg xmlns="http://www.w3.org/2000/svg" width="800mm" height="600mm" viewBox="0 0 800 600" data-corel-reference="true" data-split-child="true">
<title>Split golden reference: Şule from sukran.svg</title>
<rect x="0" y="0" width="800" height="600" fill="#ffffff"/>
<g id="split-reference-sule" fill="none" stroke="#020617" stroke-width="0.22" stroke-linejoin="round" stroke-linecap="round" vector-effect="non-scaling-stroke" data-source-file="sukran.svg" data-label="Şule">
<path id="split-sule-path-5" d="M 274.661 317.191 C 274.446 317.658 274.194 318.343 274.303 318.833 C 274.358 319.080 274.487 319.217 274.787 319.318 C 276.120 319.765 278.249 319.284 279.527 318.924 C 282.371 318.123 285.183 316.797 287.665 315.478 C 291.097 313.654 294.237 311.490 297.093 309.156 C 300.359 306.486 303.615 303.201 305.113 299.680 C 305.544 298.665 306.030 297.363 306.030 296.288 C 306.030 295.985 305.986 295.380 305.596 295.192 L 305.581 295.185 L 305.568 295.178 C 303.641 294.192 301.359 294.573 299.372 295.250 C 296.159 296.346 293.230 298.095 290.692 299.941 C 287.404 302.332 284.473 305.029 281.829 307.847 C 279.073 310.786 276.643 313.903 274.661 317.191 L 274.661 317.191 Z"/>
<path id="split-sule-path-6" d="M 287.073 242.312 C 286.702 242.470 286.219 242.754 286.034 242.867 C 284.987 243.508 283.991 244.267 283.059 245.003 C 281.298 246.391 279.641 247.880 278.045 249.381 C 275.906 251.394 273.852 253.466 271.844 255.557 C 266.411 261.216 261.387 267.175 256.565 273.149 C 250.317 280.890 244.644 288.934 239.339 297.076 L 238.401 298.551 C 243.741 293.436 248.962 288.250 254.056 282.990 C 260.395 276.448 266.605 269.814 272.519 263.040 C 274.895 260.319 277.217 257.566 279.426 254.763 C 281.167 252.555 282.850 250.305 284.373 248.004 C 285.257 246.668 286.203 245.163 286.754 243.723 C 286.840 243.498 287.098 242.732 287.073 242.312 L 287.073 242.312 Z"/>
<path id="split-sule-path-9" d="M 137.989 312.186 C 139.108 310.565 140.251 308.955 141.426 307.363 C 144.019 303.856 146.697 300.384 149.482 296.965 C 151.667 294.282 153.823 291.577 156.062 288.921 L 156.402 288.518 L 178.829 288.518 L 177.711 289.873 C 174.622 293.616 171.628 297.406 168.730 301.237 L 168.723 301.247 L 168.715 301.257 C 165.908 304.758 163.260 308.337 160.717 311.953 C 158.110 315.660 155.529 319.393 153.202 323.208 C 151.377 326.202 149.607 329.231 148.019 332.303 C 146.943 334.386 145.889 336.565 145.161 338.736 C 144.831 339.722 144.367 341.288 144.574 342.308 C 144.602 342.448 144.674 342.702 144.810 342.810 C 144.881 342.866 145.009 342.871 145.104 342.871 C 145.572 342.871 146.838 342.058 147.171 341.833 C 148.772 340.745 150.276 339.405 151.643 338.146 C 155.914 334.211 159.910 330.059 163.754 325.875 C 168.411 320.805 172.891 315.640 177.230 310.407 C 181.179 305.644 185.042 300.815 188.630 295.886 L 193.820 288.518 L 213.587 288.518 L 187.756 331.058 L 187.752 331.065 C 186.576 332.922 185.438 334.809 184.438 336.727 C 183.779 337.994 183.124 339.350 182.728 340.681 C 182.585 341.162 182.378 342.067 182.690 342.533 C 182.894 342.837 183.399 342.871 183.797 342.871 C 187.629 342.871 191.343 339.321 193.323 337.174 C 195.364 334.961 197.202 332.619 198.918 330.251 C 201.043 327.318 202.997 324.305 204.850 321.265 C 205.043 320.711 205.241 320.158 205.444 319.606 C 207.071 315.184 209.147 310.828 211.406 306.574 C 214.234 301.251 217.397 296.022 220.731 290.876 C 227.373 280.624 234.545 270.537 242.444 260.823 C 245.771 256.732 249.232 252.699 252.888 248.777 C 256.000 245.438 259.264 242.167 262.745 239.049 C 265.619 236.476 268.678 233.980 271.980 231.727 C 274.621 229.925 277.490 228.228 280.578 226.900 C 285.199 224.912 290.557 223.829 295.365 226.076 L 295.375 226.080 L 295.385 226.085 C 300.312 228.492 300.616 233.297 299.923 237.312 C 299.393 240.383 298.156 243.469 296.724 246.358 C 294.830 250.181 292.464 253.908 289.939 257.506 C 286.758 262.042 283.214 266.447 279.513 270.742 C 275.030 275.947 270.278 281.025 265.389 286.009 C 259.663 291.846 253.633 297.513 247.424 303.051 C 240.395 309.320 233.124 315.432 225.699 321.426 C 224.424 324.572 223.237 327.909 222.656 331.172 C 222.275 333.318 221.983 335.644 222.178 337.810 C 222.283 338.978 222.533 340.515 223.262 341.564 C 223.547 341.975 224.141 342.746 224.708 342.964 L 224.737 342.975 L 224.765 342.987 C 225.801 343.442 227.854 342.627 228.735 342.240 C 231.350 341.094 233.792 339.435 235.914 337.806 C 238.896 335.518 241.590 332.959 244.072 330.346 C 246.395 327.901 248.444 325.311 250.224 322.613 C 250.742 321.674 251.294 320.748 251.878 319.832 C 256.008 313.348 261.023 306.947 267.258 301.519 C 271.972 297.414 277.383 293.431 283.451 290.520 C 288.004 288.336 293.142 286.499 298.499 285.912 C 302.447 285.480 306.732 285.535 310.370 286.930 L 310.384 286.936 L 310.397 286.941 C 313.074 288.037 315.124 289.643 316.583 291.685 C 318.131 293.853 318.875 296.237 319.035 298.696 C 319.219 301.527 318.638 304.377 317.656 307.100 C 316.496 310.320 314.486 313.311 312.019 316.051 C 308.674 319.766 304.705 323.195 299.952 325.880 C 296.071 328.072 291.715 329.944 287.026 330.879 C 283.308 331.621 279.333 331.871 275.595 331.062 C 273.060 330.512 270.998 329.496 269.444 328.020 C 268.620 330.847 268.170 333.812 268.534 336.663 C 268.862 339.227 270.192 341.302 273.337 342.389 L 273.359 342.397 L 273.380 342.404 C 276.231 343.498 279.828 343.287 282.849 342.797 C 287.303 342.074 291.514 340.614 295.385 338.798 C 299.973 336.647 304.150 333.997 307.948 331.083 C 311.957 328.006 315.370 324.544 318.095 320.729 L 318.849 319.674 L 326.126 325.503 L 325.697 326.075 C 321.401 331.817 316.249 337.135 310.188 341.852 C 304.679 346.139 298.527 349.964 291.682 352.927 C 285.744 355.498 279.312 357.367 272.514 357.985 C 266.328 358.547 260.499 357.702 255.217 355.147 C 252.362 353.765 250.183 351.872 248.608 349.582 C 247.173 347.495 246.334 345.214 245.908 342.887 C 242.947 345.824 239.560 348.619 235.709 350.813 C 232.256 352.780 228.335 354.550 224.167 355.437 C 220.674 356.181 217.121 356.272 213.647 355.434 C 210.086 354.670 207.308 352.773 205.142 350.537 C 202.833 348.154 201.845 344.972 201.466 341.921 C 199.418 344.240 197.193 346.477 194.749 348.548 C 189.139 353.302 182.153 356.777 173.576 356.777 C 168.372 356.777 163.555 355.559 161.110 351.807 C 159.290 349.012 159.392 345.565 160.179 342.347 C 156.621 345.694 152.755 348.897 148.533 351.705 C 144.887 354.130 139.914 356.777 134.882 356.777 C 131.677 356.777 128.492 356.252 125.907 354.726 C 123.213 353.135 122.022 350.680 121.575 348.169 C 121.523 347.875 121.483 347.577 121.452 347.278"/>
<path id="split-sule-path-10" d="M 121.452 347.278 C 118.538 349.892 115.285 352.263 111.667 354.322 C 106.943 357.010 101.803 359.189 96.301 360.789 C 90.835 362.378 85.147 363.360 79.321 363.738 C 73.633 364.106 67.930 363.931 62.294 363.250 L 58.515 366.796 C 60.373 366.497 62.270 366.380 64.199 366.460 C 67.122 366.581 69.962 367.138 72.431 368.377 C 74.883 369.607 76.369 371.402 77.056 373.577 C 77.895 376.233 76.812 378.995 75.264 381.370 C 73.982 383.339 72.203 385.091 70.181 386.643 C 67.933 388.369 65.390 389.839 62.651 391.075 C 59.671 392.420 56.457 393.424 53.136 394.152 C 49.464 394.957 45.626 395.258 41.814 395.119 C 38.992 395.016 36.198 394.619 33.552 393.849 C 31.306 393.194 29.151 392.301 27.353 391.066 C 25.810 390.006 24.492 388.774 23.562 387.348 C 22.763 386.121 22.225 384.786 22.225 383.404 L 22.225 382.836 L 32.186 379.361 L 32.520 380.389 C 33.204 382.487 34.633 384.141 37.163 385.141 C 39.418 386.033 41.764 386.322 44.203 385.737 L 44.243 385.727 L 44.282 385.721 C 46.764 385.272 48.835 384.329 50.483 382.834 C 51.925 381.526 53.230 380.017 53.915 378.372 C 54.392 377.229 54.496 376.030 53.749 374.943 C 53.060 373.937 51.515 373.981 50.237 374.167 L 40.251 377.393 L 35.514 372.303 L 50.078 360.584 C 41.836 357.973 35.023 353.906 30.079 348.120 C 25.047 342.233 22.010 335.772 21.014 328.773 C 20.000 321.635 21.124 314.503 23.983 307.675 C 26.938 300.618 31.858 294.461 38.891 289.372 C 43.338 286.154 48.369 283.521 53.920 281.555 C 58.753 279.843 64.030 278.720 69.388 278.859 C 73.643 278.860 78.010 279.332 81.898 280.715 C 84.726 281.721 87.675 283.018 89.893 284.721 C 92.618 286.812 98.097 291.226 96.879 294.549 C 96.380 295.910 95.102 296.706 93.292 296.904 C 91.283 297.124 88.862 296.593 86.987 296.074 C 81.791 294.636 76.389 294.896 71.156 296.090 C 64.812 297.537 59.102 300.145 54.045 303.392 C 50.654 305.569 47.709 308.157 45.111 310.893 C 42.196 313.961 39.981 317.368 38.329 320.941 C 36.523 324.847 35.719 328.928 35.719 333.067 C 35.719 337.316 37.199 341.239 40.164 344.829 C 43.970 349.439 49.111 352.799 56.044 354.255 C 62.760 355.667 69.621 355.746 76.427 354.618 C 83.535 353.440 90.103 351.195 96.094 348.029 C 101.657 345.091 106.486 341.432 109.729 336.848 L 109.734 336.841 L 109.739 336.834 C 112.965 332.471 115.071 327.778 115.802 322.789 C 116.517 317.912 116.362 313.023 115.323 308.182 C 114.267 303.252 112.346 298.482 109.690 293.923 C 107.013 289.332 103.810 284.934 100.062 280.806 L 100.048 280.791 L 100.035 280.776 C 96.471 276.477 94.229 271.743 93.177 266.713 C 92.113 261.626 92.058 256.500 93.054 251.407 C 94.043 246.347 95.991 241.481 98.873 236.867 C 101.685 232.366 105.428 228.329 110.200 224.928 C 114.959 221.537 120.517 219.103 126.685 217.546 C 133.509 215.823 140.647 215.738 147.682 216.674 C 152.363 217.297 156.783 218.545 160.768 220.540 C 164.561 222.438 167.786 224.820 170.338 227.693 C 172.916 230.595 174.607 233.821 175.504 237.262 C 176.463 240.945 176.327 244.671 175.383 248.346 C 174.115 253.282 171.665 257.902 167.618 261.886 C 164.075 265.374 159.776 268.337 154.555 270.263 C 150.478 271.768 146.006 272.372 141.503 272.312 C 136.963 272.250 132.687 271.345 129.031 269.241 L 129.012 269.229 L 128.993 269.217 C 126.854 267.874 125.481 266.043 124.615 264.051 C 123.494 261.469 124.279 258.779 125.763 256.388 L 126.181 255.714 L 127.116 255.919 C 130.174 256.589 133.329 256.828 136.482 256.456 C 139.523 256.097 142.407 255.344 145.112 254.217 C 147.862 253.072 150.218 251.537 152.191 249.673 C 154.239 247.739 155.801 245.574 156.864 243.217 C 158.419 239.769 158.918 236.178 157.576 232.639 C 156.238 229.108 152.761 226.894 148.483 225.449 C 145.750 224.526 142.909 224.164 139.938 224.398 C 136.877 224.639 133.959 225.309 131.208 226.364 C 128.267 227.493 125.603 228.978 123.206 230.701 C 120.835 232.408 118.734 234.328 117.084 236.482 L 117.076 236.492 L 117.067 236.502 C 112.938 241.574 110.412 247.248 111.632 253.269 C 112.823 259.150 115.792 264.674 119.757 269.762 C 124.273 275.562 128.172 281.630 131.399 287.916 C 134.503 293.965 136.629 300.262 137.556 306.728 C 137.817 308.549 137.960 310.369 137.989 312.186"/>
</g>
</svg>