<svg xmlns="http://www.w3.org/2000/svg" width="800mm" height="600mm" viewBox="0 0 800 600" data-corel-reference="true" data-split-child="true">
<title>Split golden reference: Şule from cagr.svg</title>
<rect x="0" y="0" width="800" height="600" fill="#ffffff"/>
<g id="split-reference-sule" fill="none" stroke="#020617" stroke-width="0.22" stroke-linejoin="round" stroke-linecap="round" vector-effect="non-scaling-stroke" data-source-file="cagr.svg" data-label="Şule">
<path id="split-sule-path-3" d="M 296.468 319.840 C 296.221 320.316 295.943 320.989 296.069 321.492 C 296.142 321.782 296.335 321.960 296.732 322.078 C 298.235 322.526 300.552 322.068 301.998 321.708 C 305.068 320.942 308.097 319.675 310.776 318.413 C 314.472 316.672 317.851 314.608 320.924 312.381 C 324.452 309.823 327.958 306.683 329.576 303.311 C 329.931 302.571 331.363 299.434 329.990 298.851 L 329.978 298.846 L 329.966 298.840 C 327.824 297.869 325.301 298.226 323.087 298.895 C 319.616 299.944 316.454 301.617 313.712 303.385 C 310.176 305.664 307.024 308.237 304.181 310.924 C 301.214 313.727 298.600 316.702 296.468 319.840 Z"/>
<path id="split-sule-path-4" d="M 310.179 248.487 C 309.773 248.590 309.051 248.958 308.822 249.081 C 307.660 249.701 306.552 250.451 305.522 251.171 C 303.629 252.494 301.848 253.913 300.134 255.344 C 297.837 257.259 295.633 259.230 293.478 261.220 C 287.649 266.603 282.259 272.270 277.086 277.953 C 270.384 285.315 264.299 292.965 258.609 300.710 L 256.632 303.461 C 262.841 298.220 268.902 292.898 274.805 287.496 C 281.603 281.274 288.262 274.967 294.605 268.526 C 297.153 265.938 299.645 263.318 302.015 260.653 C 303.884 258.550 305.693 256.408 307.328 254.216 C 307.947 253.386 308.541 252.543 309.065 251.683 C 309.434 251.077 309.786 250.442 310.023 249.806 C 310.149 249.467 310.282 249.026 310.234 248.674 C 310.229 248.638 310.212 248.553 310.179 248.487 Z"/>
<path id="split-sule-path-9" d="M 145.057 322.305 C 146.314 320.606 147.581 318.911 148.868 317.222 C 150.552 315.012 152.272 312.810 154.077 310.645 C 156.854 307.312 159.724 304.016 162.708 300.767 C 165.049 298.218 167.360 295.648 169.760 293.124 L 170.052 292.817 L 193.512 292.817 L 192.553 293.848 C 189.240 297.407 186.029 301.011 182.920 304.655 L 182.913 304.662 L 182.907 304.670 C 179.895 308.000 177.054 311.404 174.325 314.845 C 171.529 318.371 168.760 321.922 166.263 325.551 C 164.304 328.400 162.405 331.282 160.701 334.205 C 159.543 336.191 158.410 338.269 157.628 340.340 C 157.263 341.305 156.765 342.805 156.993 343.803 C 157.076 344.166 157.201 344.480 157.804 344.480 C 158.407 344.480 159.760 343.705 160.183 343.450 C 161.909 342.410 163.530 341.131 165.004 339.928 C 169.588 336.185 173.875 332.234 178.000 328.254 C 182.995 323.433 187.800 318.521 192.453 313.545 C 196.689 309.015 200.833 304.421 204.683 299.734 L 210.177 292.817 L 230.835 292.817 L 203.307 333.012 L 203.303 333.017 C 202.041 334.786 200.818 336.583 199.745 338.410 C 199.032 339.622 198.327 340.919 197.899 342.193 C 197.729 342.700 197.510 343.578 197.880 344.067 C 198.148 344.422 198.750 344.480 199.285 344.480 C 203.500 344.480 207.517 341.092 209.699 338.993 C 211.891 336.885 213.867 334.655 215.711 332.398 C 217.995 329.603 220.096 326.731 222.087 323.834 C 222.296 323.303 222.510 322.773 222.730 322.244 C 224.471 318.046 226.693 313.912 229.112 309.875 C 232.141 304.820 235.530 299.853 239.102 294.965 C 246.218 285.226 253.903 275.643 262.367 266.414 C 265.930 262.529 269.638 258.698 273.555 254.973 C 276.887 251.804 280.381 248.698 284.109 245.739 C 287.183 243.299 290.454 240.931 293.986 238.795 C 296.803 237.091 299.866 235.485 303.159 234.228 C 308.031 232.370 313.690 231.340 318.764 233.442 L 318.773 233.445 L 318.781 233.449 C 323.970 235.696 324.262 240.212 323.534 243.956 C 322.967 246.863 321.647 249.783 320.118 252.517 C 318.092 256.144 315.560 259.679 312.858 263.093 C 309.450 267.400 305.655 271.582 301.692 275.662 C 296.888 280.606 291.797 285.429 286.558 290.164 C 280.424 295.709 273.962 301.093 267.310 306.354 C 259.765 312.320 251.959 318.137 243.988 323.841 C 243.227 325.507 242.521 327.189 241.922 328.886 C 241.422 330.298 240.989 331.730 240.701 333.169 C 240.289 335.221 239.976 337.442 240.185 339.512 C 240.301 340.651 240.576 342.127 241.376 343.148 C 241.714 343.579 242.364 344.323 243.034 344.551 L 243.059 344.559 L 243.083 344.569 C 244.302 345.042 246.536 344.265 247.583 343.858 C 250.407 342.760 253.041 341.176 255.332 339.617 C 258.537 337.435 261.434 334.996 264.103 332.506 C 266.602 330.173 268.807 327.702 270.722 325.127 C 271.277 324.236 271.868 323.356 272.493 322.487 C 276.910 316.338 282.275 310.265 288.944 305.117 C 293.982 301.229 299.765 297.453 306.249 294.695 C 311.100 292.632 316.579 290.893 322.286 290.339 C 326.467 289.932 331.015 289.980 334.867 291.291 L 334.879 291.294 L 334.890 291.299 C 337.718 292.325 339.882 293.828 341.422 295.740 C 343.064 297.778 343.851 300.020 344.020 302.332 C 344.217 305.004 343.596 307.696 342.551 310.267 C 341.314 313.310 339.172 316.135 336.542 318.724 C 332.973 322.240 328.736 325.486 323.662 328.027 C 319.528 330.097 314.886 331.868 309.890 332.752 C 305.946 333.449 301.730 333.686 297.765 332.926 C 294.920 332.379 292.646 331.340 290.979 329.813 C 290.016 332.621 289.473 335.582 289.882 338.428 C 290.242 340.925 291.721 342.949 295.176 344.006 L 295.194 344.012 L 295.212 344.018 C 298.324 345.077 302.226 344.880 305.525 344.406 C 310.327 343.714 314.867 342.320 319.042 340.584 C 323.977 338.531 328.471 336.005 332.555 333.226 C 336.869 330.290 340.543 326.986 343.476 323.346 L 344.122 322.545 L 351.564 327.829 L 351.195 328.264 C 346.600 333.709 341.090 338.752 334.607 343.226 C 328.717 347.289 322.140 350.915 314.823 353.724 C 308.485 356.157 301.620 357.926 294.365 358.511 C 287.790 359.041 281.597 358.247 275.983 355.838 C 272.958 354.540 270.652 352.763 268.984 350.613 C 267.367 348.527 266.463 346.235 266.038 343.904 C 262.792 346.800 259.058 349.570 254.790 351.726 C 251.115 353.583 246.937 355.257 242.498 356.094 C 238.798 356.793 235.036 356.880 231.355 356.091 C 227.592 355.376 224.655 353.594 222.366 351.498 C 219.786 349.138 218.764 345.932 218.413 342.921 C 216.117 345.259 213.611 347.517 210.844 349.596 C 204.878 354.077 197.451 357.362 188.328 357.362 C 182.846 357.362 177.762 356.238 175.185 352.730 C 173.936 351.031 173.566 349.098 173.646 347.218 C 173.703 345.876 173.983 344.518 174.401 343.181 C 170.424 346.545 166.084 349.772 161.320 352.582 C 157.462 354.857 152.172 357.362 146.847 357.362 C 143.466 357.362 140.102 356.874 137.376 355.447 C 134.541 353.963 133.295 351.666 132.825 349.325 C 132.548 347.939 132.574 346.514 132.769 345.120"/>
<path id="split-sule-path-10" d="M 132.769 345.120 C 132.141 345.742 131.495 346.356 130.833 346.962 C 126.986 350.482 122.506 353.629 117.323 356.243 C 112.276 358.789 106.787 360.853 100.910 362.368 C 95.071 363.873 88.996 364.803 82.773 365.161 C 76.648 365.513 70.506 365.342 64.439 364.684 L 59.844 368.506 C 62.035 368.146 64.281 367.999 66.568 368.083 C 69.657 368.196 72.662 368.717 75.272 369.878 C 77.848 371.024 79.404 372.694 80.126 374.720 C 81.011 377.203 79.855 379.793 78.223 382.013 C 76.861 383.867 74.970 385.519 72.821 386.981 C 70.425 388.611 67.715 390.000 64.797 391.168 C 61.621 392.439 58.194 393.387 54.654 394.076 C 50.743 394.836 46.655 395.119 42.596 394.988 C 39.596 394.891 36.627 394.517 33.814 393.791 C 31.435 393.177 29.150 392.338 27.245 391.179 C 25.614 390.185 24.220 389.031 23.238 387.694 C 22.398 386.551 21.829 385.308 21.829 384.021 L 21.829 383.589 L 32.094 380.414 L 32.382 381.195 C 33.131 383.237 34.710 384.848 37.485 385.821 C 39.961 386.689 42.541 386.968 45.219 386.399 L 45.253 386.391 L 45.287 386.386 C 47.999 385.952 50.265 385.036 52.065 383.588 C 53.633 382.326 55.047 380.874 55.792 379.289 C 56.324 378.158 56.429 376.975 55.598 375.901 C 54.795 374.863 53.035 374.885 51.542 375.080 L 40.995 378.101 L 36.149 373.485 L 51.872 362.268 C 42.931 359.803 35.549 355.932 30.209 350.392 C 24.837 344.818 21.593 338.702 20.531 332.076 C 20.000 328.766 20.005 325.434 20.531 322.123 C 21.072 318.712 22.161 315.356 23.703 312.092 C 26.859 305.411 32.110 299.584 39.619 294.766 C 44.367 291.719 49.739 289.227 55.666 287.366 C 60.813 285.749 66.433 284.687 72.141 284.819 C 76.666 284.820 81.316 285.263 85.452 286.568 C 88.456 287.515 91.596 288.737 93.953 290.341 C 96.155 291.840 98.525 293.607 100.079 295.453 C 101.080 296.642 101.951 298.137 101.379 299.519 C 100.871 300.748 99.580 301.458 97.736 301.637 C 95.628 301.841 93.062 301.339 91.095 300.856 C 85.475 299.477 79.631 299.723 73.970 300.868 C 67.135 302.251 60.986 304.740 55.538 307.841 C 51.887 309.919 48.717 312.389 45.919 315.001 C 42.780 317.930 40.394 321.183 38.615 324.594 C 36.670 328.325 35.802 332.223 35.802 336.176 C 35.802 340.247 37.403 344.006 40.606 347.445 C 44.720 351.862 50.282 355.081 57.774 356.478 C 65.013 357.826 72.407 357.901 79.742 356.824 C 87.394 355.700 94.466 353.556 100.915 350.536 C 106.911 347.727 112.114 344.230 115.608 339.850 L 115.613 339.845 L 115.617 339.839 C 119.093 335.672 121.360 331.190 122.148 326.425 C 122.917 321.774 122.749 317.112 121.633 312.495 C 120.497 307.795 118.432 303.247 115.575 298.901 C 112.699 294.527 109.258 290.338 105.230 286.406 L 105.218 286.395 L 105.208 286.383 C 101.404 282.316 99.013 277.838 97.891 273.080 C 96.755 268.262 96.696 263.407 97.759 258.583 C 98.816 253.790 100.897 249.181 103.976 244.810 C 106.977 240.551 110.971 236.732 116.065 233.513 C 121.140 230.306 127.068 228.005 133.646 226.532 C 140.924 224.904 148.537 224.825 156.038 225.710 C 161.022 226.298 165.730 227.476 169.974 229.360 C 174.012 231.151 177.446 233.400 180.164 236.112 C 182.909 238.852 184.710 241.897 185.665 245.147 C 186.687 248.625 186.540 252.145 185.534 255.616 C 184.183 260.281 181.572 264.649 177.257 268.415 C 173.483 271.710 168.903 274.510 163.341 276.330 C 159.006 277.748 154.249 278.318 149.460 278.260 C 144.645 278.203 140.111 277.354 136.233 275.375 L 136.216 275.366 L 136.200 275.357 C 133.943 274.100 132.497 272.386 131.584 270.523 C 130.403 268.112 131.241 265.597 132.804 263.364 L 133.162 262.852 L 133.965 263.008 C 137.277 263.652 140.694 263.880 144.110 263.523 C 147.398 263.178 150.517 262.457 153.442 261.376 C 156.418 260.278 158.969 258.805 161.104 257.016 C 163.318 255.162 165.007 253.087 166.156 250.829 C 167.839 247.519 168.376 244.070 166.923 240.672 C 165.468 237.267 161.692 235.125 157.037 233.731 C 154.069 232.843 150.980 232.494 147.752 232.720 C 144.441 232.950 141.284 233.593 138.309 234.605 C 135.134 235.685 132.258 237.105 129.672 238.755 C 127.113 240.388 124.846 242.226 123.064 244.287 L 123.058 244.295 L 123.051 244.302 C 118.592 249.157 115.870 254.590 117.188 260.354 C 118.471 265.965 121.665 271.235 125.931 276.091 C 130.766 281.595 134.940 287.355 138.394 293.322 C 141.714 299.057 143.988 305.027 144.979 311.159 C 145.581 314.885 145.596 318.608 145.057 322.305"/>
</g>
</svg>