<svg xmlns="http://www.w3.org/2000/svg" width="800mm" height="600mm" viewBox="0 0 800 600" data-corel-reference="true" data-split-child="true">
<title>Split golden reference: Ümit from mucahit.svg</title>
<rect x="0" y="0" width="800" height="600" fill="#ffffff"/>
<g id="split-reference-umit" fill="none" stroke="#020617" stroke-width="0.22" stroke-linejoin="round" stroke-linecap="round" vector-effect="non-scaling-stroke" data-source-file="mucahit.svg" data-label="Ümit">
<path id="split-umit-path-5" d="M 564.472 357.052 L 591.436 303.520 L 611.336 303.520 L 607.850 310.341 C 610.020 308.612 612.373 307.063 614.876 305.937 C 618.476 304.318 622.295 303.520 626.288 303.520 C 629.092 303.520 631.447 304.503 633.128 306.634 C 634.430 308.285 634.993 310.225 635.101 312.218 C 640.373 307.974 647.376 303.520 654.255 303.520 C 656.243 303.520 658.095 304.010 659.699 305.120 C 661.308 306.234 662.362 307.758 662.969 309.538 C 663.668 311.592 663.660 313.816 663.329 315.930 C 662.910 318.610 661.716 321.193 660.304 323.536 C 656.112 330.488 651.968 337.464 647.829 344.445 C 646.437 346.791 645.062 349.148 643.725 351.524 C 642.741 353.272 641.773 355.034 640.867 356.818 C 640.263 358.004 639.669 359.222 639.181 360.454 C 638.961 361.006 638.639 361.841 638.596 362.432 C 638.590 362.529 638.583 362.805 638.633 362.919 C 638.674 362.928 638.735 362.929 638.766 362.929 C 642.227 362.929 646.054 358.733 647.968 356.427 C 650.774 353.044 653.197 349.313 655.361 345.542 C 656.231 343.751 657.143 341.978 658.080 340.219 C 660.993 334.747 663.927 329.230 667.141 323.908 C 669.433 320.113 671.801 316.357 674.263 312.658 C 676.195 309.755 678.101 306.830 680.081 303.956 L 680.381 303.520 L 700.207 303.520 L 699.219 304.986 C 696.488 309.035 693.842 313.135 691.279 317.280 L 691.272 317.291 L 691.266 317.301 C 688.784 321.089 686.443 324.961 684.195 328.873 C 681.890 332.884 679.609 336.922 677.551 341.050 C 675.938 344.288 674.373 347.566 672.969 350.890 C 672.017 353.142 671.086 355.500 670.443 357.850 C 670.151 358.916 669.741 360.611 669.923 361.714 C 669.948 361.866 670.011 362.141 670.132 362.257 C 670.195 362.317 670.307 362.323 670.391 362.323 C 670.806 362.323 671.926 361.443 672.219 361.199 C 673.634 360.023 674.964 358.572 676.172 357.211 C 679.949 352.954 683.481 348.462 686.880 343.935 C 690.997 338.450 694.958 332.862 698.794 327.201 C 702.285 322.048 705.700 316.823 708.872 311.491 L 713.460 303.520 L 730.936 303.520 L 708.099 349.543 L 708.096 349.550 C 707.056 351.559 706.050 353.601 705.167 355.675 C 704.583 357.046 704.005 358.514 703.654 359.954 C 703.528 360.473 703.344 361.454 703.621 361.957 C 703.800 362.286 704.247 362.323 704.600 362.323 C 707.988 362.323 711.270 358.482 713.021 356.159 C 715.286 353.153 717.285 349.917 719.126 346.667 L 736.345 312.300 L 726.879 312.300 L 731.277 303.520 L 740.744 303.520 L 757.671 269.710 L 780.000 264.466 L 760.626 303.520 L 775.609 303.520 L 771.760 312.300 L 756.237 312.300 L 737.789 349.543 L 737.786 349.550 C 736.478 352.079 734.363 356.644 735.065 359.529 C 735.431 361.032 736.138 362.323 737.947 362.323 C 739.599 362.323 741.743 361.408 743.183 360.712 C 745.806 359.442 748.268 357.755 750.526 355.979 C 753.369 353.742 755.923 351.153 758.237 348.435 C 760.853 345.364 763.017 341.989 764.779 338.425 L 765.405 337.158 L 771.867 343.491 L 771.567 344.085 C 769.073 349.032 766.049 353.737 762.406 358.014 C 759.139 361.850 755.483 365.418 751.379 368.472 C 747.822 371.119 743.935 373.434 739.735 375.072 C 736.246 376.432 732.494 377.367 728.696 377.367 C 725.815 377.367 723.049 376.783 720.547 375.419 C 718.103 374.086 716.353 372.158 715.277 369.703 C 715.040 369.163 714.844 368.607 714.685 368.042 C 714.552 368.184 714.417 368.325 714.281 368.465 C 709.322 373.608 703.146 377.367 695.564 377.367 C 690.963 377.367 686.704 376.050 684.543 371.990 C 682.933 368.966 683.024 365.237 683.718 361.756 C 680.573 365.377 677.156 368.842 673.424 371.880 C 670.201 374.504 665.803 377.367 661.356 377.367 C 658.521 377.367 655.705 376.799 653.421 375.149 C 651.235 373.569 650.168 371.202 649.703 368.724 C 644.786 373.733 638.691 377.367 631.235 377.367 C 628.201 377.367 625.143 376.768 622.741 374.930 C 620.138 372.938 619.508 369.687 619.570 366.695 C 619.664 362.070 621.797 356.686 623.742 352.490 C 625.275 349.183 627.081 345.959 628.981 342.825 C 631.375 338.876 633.958 335.018 636.627 331.227 L 636.631 331.221 L 636.637 331.213 C 638.037 329.302 639.390 327.348 640.629 325.339 C 641.575 323.805 642.477 322.212 643.207 320.575 C 643.514 319.886 643.841 319.073 643.961 318.330 C 643.983 318.192 644.036 317.721 643.948 317.582 C 643.894 317.558 643.763 317.554 643.714 317.554 C 642.858 317.554 641.320 318.606 640.678 319.072 C 638.842 320.404 637.125 321.960 635.517 323.526 C 633.412 325.576 631.485 327.806 629.687 330.098 C 627.648 332.698 625.814 335.439 624.168 338.274 C 622.110 341.816 620.168 345.429 618.271 349.049 C 616.115 353.164 613.981 357.291 611.935 361.455 C 609.544 366.320 607.278 371.239 605.064 376.177 L 604.802 376.761 L 584.872 376.761 L 585.568 375.394 C 588.660 369.336 591.744 363.275 594.819 357.210 L 594.824 357.201 L 594.828 357.192 C 596.121 354.764 597.371 352.314 598.579 349.845 C 599.773 347.403 600.994 344.971 602.245 342.552 C 603.358 340.399 604.471 338.244 605.579 336.089 C 606.405 334.480 607.256 332.866 608.179 331.304 C 609.303 329.250 610.392 327.155 611.338 325.022 C 611.956 323.628 612.575 322.112 612.924 320.635 C 613.060 320.063 613.261 319.011 613.041 318.438 C 612.946 318.191 612.794 318.160 612.518 318.160 C 610.951 318.160 608.166 321.240 607.280 322.255 C 605.843 323.905 604.502 325.637 603.217 327.394 C 601.625 329.575 600.112 331.810 598.649 334.069 C 595.039 339.645 591.636 345.350 588.349 351.100 C 584.600 357.659 580.990 364.288 577.502 370.973 L 575.573 374.669 L 575.573 374.534 L 574.430 376.761 L 554.545 376.761 L 554.811 376.232"/>
<path id="split-umit-path-6" d="M 561.475 376.761 C 559.114 376.932 556.756 376.703 554.431 376.144 C 551.057 375.334 548.283 373.588 546.050 371.084 C 542.550 367.156 541.501 362.302 541.835 357.276 C 542.216 351.556 543.460 345.924 545.324 340.473 C 546.836 336.055 548.564 331.698 550.533 327.440 C 549.167 329.624 547.793 331.804 546.412 333.980 C 542.134 340.719 537.435 347.233 532.244 353.383 C 527.663 358.807 522.551 363.925 516.811 368.283 C 511.924 371.992 506.355 374.748 500.097 375.656 C 498.057 376.002 495.802 375.980 493.739 375.869 C 490.972 375.720 488.412 374.868 486.057 373.507 C 480.819 370.479 477.306 366.231 475.918 360.582 C 474.486 354.756 474.706 348.749 475.911 342.908 C 477.314 336.097 479.699 329.460 482.645 323.107 C 485.756 316.402 489.244 309.850 493.132 303.512 C 496.639 297.794 500.315 292.151 504.250 286.682 C 507.079 282.748 509.912 278.782 512.874 274.936 C 515.968 270.920 519.263 267.021 522.590 263.174 C 526.420 258.747 530.426 254.455 534.578 250.292 C 538.823 246.034 543.217 241.908 547.748 237.921 C 550.513 235.489 553.375 233.145 556.345 230.931 L 524.890 240.664 L 524.463 240.047 C 522.702 237.501 520.615 235.181 518.189 233.171 C 515.784 231.177 513.062 229.620 510.090 228.490 C 507.089 227.348 503.876 226.691 500.668 226.330 C 497.024 225.919 493.398 226.332 489.890 227.308 L 489.878 227.311 L 489.866 227.314 C 485.860 228.327 482.088 230.170 478.659 232.338 C 475.036 234.626 472.088 237.537 470.064 241.181 C 468.640 243.746 467.645 246.477 467.040 249.313 C 466.445 252.106 466.263 254.970 466.622 257.803 C 466.961 260.478 467.843 262.989 469.288 265.315 C 470.721 267.624 472.780 269.275 475.370 270.374 C 477.995 271.356 480.705 271.597 483.468 271.028 C 486.151 270.474 488.441 269.287 490.322 267.410 C 491.401 266.006 492.192 264.457 492.715 262.798 C 493.244 261.119 493.301 259.423 492.910 257.711 L 492.723 256.888 L 493.570 256.610 C 496.861 255.534 500.184 255.519 503.238 257.192 C 506.479 258.967 507.520 262.061 507.399 265.425 C 507.246 269.655 506.037 273.671 503.067 276.926 C 500.400 279.848 497.138 281.986 493.274 283.267 C 489.384 284.557 485.337 284.970 481.230 284.631 C 477.182 284.298 473.355 283.200 469.910 281.153 C 466.158 278.923 462.965 276.073 460.750 272.434 C 458.660 268.998 457.406 265.286 456.965 261.349 C 456.509 257.284 456.814 253.217 457.736 249.226 C 458.682 245.121 460.148 241.159 462.119 237.388 C 464.060 233.674 466.434 230.188 469.240 226.997 C 471.841 224.039 474.840 221.374 478.302 219.321 C 483.243 216.390 488.612 214.324 494.366 213.329 C 499.854 212.379 505.419 212.259 510.941 213.020 C 516.529 213.790 521.886 215.412 526.948 217.756 C 531.907 220.052 536.502 222.923 540.648 226.352 L 599.432 212.295 L 601.617 221.015 L 600.661 221.253 C 593.547 223.025 587.023 226.101 581.103 230.192 C 574.836 234.522 569.028 239.399 563.707 244.727 C 558.296 250.144 553.218 255.851 548.507 261.819 C 544.093 267.409 539.714 273.026 535.392 278.680 C 530.941 284.503 526.496 290.329 522.054 296.158 C 517.116 302.638 512.551 309.365 508.341 316.283 C 504.152 323.169 500.519 330.344 497.545 337.768 C 494.821 344.570 493.134 351.688 492.984 358.971 L 492.984 358.983 L 492.984 358.996 C 492.870 361.334 493.517 363.430 495.581 364.851 C 497.700 366.310 500.200 366.342 502.665 365.712 C 506.465 364.670 509.955 362.456 512.926 360.049 C 516.925 356.807 520.553 353.104 523.881 349.257 C 527.841 344.680 531.530 339.888 535.012 334.982 C 538.738 329.732 542.316 324.389 545.740 318.960 C 549.089 313.654 552.316 308.280 555.399 302.833 C 558.144 297.984 560.972 293.181 563.797 288.372 C 568.460 280.433 573.384 272.631 578.567 264.981 C 584.062 256.870 590.235 249.185 597.062 242.022 C 603.678 235.082 611.052 228.832 619.181 223.488 C 626.931 218.393 635.461 214.754 644.727 212.930 L 645.581 212.761 L 648.801 220.826 L 647.942 221.198 C 640.654 224.346 634.118 228.661 628.317 233.853 C 622.167 239.358 616.576 245.383 611.547 251.813 C 606.438 258.344 601.749 265.159 597.522 272.225 C 593.589 278.800 589.751 285.425 586.026 292.105 C 584.189 295.399 582.357 298.696 580.543 302.001 C 577.987 306.656 575.614 311.405 573.362 316.196 C 570.907 321.417 568.736 326.752 566.836 332.173 C 565.112 337.088 563.829 342.229 563.441 347.401 C 563.200 350.632 563.416 353.958 564.472 357.052"/>
</g>
</svg>