<svg xmlns="http://www.w3.org/2000/svg" width="800mm" height="600mm" viewBox="0 0 800 600" data-corel-reference="true" data-split-child="true">
<title>Split golden reference: Volkan from sukran.svg</title>
<rect x="0" y="0" width="800" height="600" fill="#ffffff"/>
<g id="split-reference-volkan" fill="none" stroke="#020617" stroke-width="0.22" stroke-linejoin="round" stroke-linecap="round" vector-effect="non-scaling-stroke" data-source-file="sukran.svg" data-label="Volkan">
<path id="split-volkan-path-1" d="M 673.177 317.005 C 674.849 314.087 676.511 311.166 678.158 308.239 C 679.474 305.900 680.679 303.462 681.507 300.992 C 682.047 299.380 682.540 297.505 682.446 295.834 C 682.387 294.804 681.920 293.995 680.724 293.485 L 680.697 293.474 L 680.673 293.461 C 679.488 292.893 677.661 293.762 676.711 294.275 C 674.182 295.642 671.876 297.472 669.864 299.266 C 667.083 301.744 664.590 304.445 662.295 307.197 C 659.775 310.220 657.540 313.375 655.554 316.623 C 653.871 319.375 652.300 322.176 650.972 325.041 C 649.818 327.533 648.804 330.090 648.094 332.680 C 647.588 334.521 647.171 336.553 647.266 338.440 C 647.304 339.213 647.496 340.322 648.589 340.636 L 648.676 340.662 L 648.756 340.697 C 649.722 341.120 651.653 340.055 652.352 339.643 C 654.806 338.194 657.029 336.304 658.973 334.463 C 661.671 331.909 664.134 329.186 666.442 326.418 C 668.958 323.400 671.220 320.259 673.177 317.005 L 673.177 317.005 Z"/>
<path id="split-volkan-path-2" d="M 586.416 320.353 C 588.634 320.018 590.759 319.381 592.764 318.552 C 595.847 317.278 598.757 315.781 601.460 314.072 C 604.091 312.410 606.537 310.580 608.735 308.580 C 610.609 306.876 612.404 305.048 613.848 303.109 C 614.676 301.995 615.706 300.444 615.893 299.153 C 615.978 298.570 615.855 298.452 615.089 298.452 C 613.679 298.452 611.625 299.468 610.518 300.065 C 607.924 301.467 605.488 303.198 603.247 304.918 C 600.150 307.295 597.234 309.835 594.437 312.422 C 591.653 314.997 588.987 317.649 586.416 320.353 L 586.416 320.353 Z"/>
<path id="split-volkan-path-3" d="M 644.383 240.563 C 644.025 240.707 643.550 240.976 643.368 241.083 C 642.354 241.682 641.386 242.400 640.482 243.093 C 638.781 244.398 637.186 245.810 635.658 247.233 C 633.617 249.133 631.666 251.096 629.765 253.079 C 624.612 258.451 619.824 264.088 615.212 269.741 C 609.210 277.097 603.649 284.684 598.358 292.353 L 595.742 296.832 C 601.206 291.539 606.579 286.192 611.858 280.790 C 618.159 274.342 624.305 267.776 630.068 261.037 C 632.374 258.339 634.634 255.616 636.796 252.848 C 638.506 250.662 640.165 248.441 641.688 246.174 C 642.570 244.863 643.516 243.381 644.066 241.963 C 644.153 241.740 644.415 240.973 644.383 240.563 L 644.383 240.563 Z"/>
<path id="split-volkan-path-4" d="M 595.470 240.581 C 595.099 240.739 594.616 241.024 594.431 241.136 C 593.384 241.777 592.389 242.536 591.456 243.272 C 589.694 244.660 588.038 246.149 586.442 247.650 C 584.303 249.663 582.249 251.735 580.241 253.826 C 574.808 259.486 569.784 265.444 564.962 271.418 C 558.714 279.159 553.042 287.203 547.736 295.346 L 546.798 296.820 C 552.137 291.706 557.358 286.519 562.454 281.260 C 568.793 274.717 575.002 268.084 580.916 261.310 C 583.291 258.588 585.614 255.836 587.823 253.033 C 589.564 250.824 591.247 248.574 592.770 246.273 C 593.654 244.937 594.600 243.432 595.151 241.992 C 595.237 241.767 595.495 241.001 595.470 240.581 L 595.470 240.581 Z"/>
<path id="split-volkan-path-7" d="M 464.044 295.182 C 466.515 293.281 469.141 291.506 471.926 289.946 C 476.395 287.442 481.511 285.260 486.969 284.378 C 491.451 283.654 495.962 283.767 500.197 285.180 L 500.225 285.189 L 500.252 285.200 C 502.186 285.942 503.836 287.057 505.235 288.310 C 506.827 289.735 507.702 291.393 507.702 293.273 L 507.702 295.110 L 505.834 293.962 C 503.501 292.530 500.804 291.799 497.829 291.632 C 494.289 291.433 490.883 292.503 487.940 293.927 C 483.592 296.031 479.721 299.251 476.547 302.321 C 474.329 304.465 472.369 306.793 470.574 309.158 C 468.370 312.062 466.381 315.075 464.518 318.117 C 461.857 322.464 459.247 327.742 459.152 332.604 C 459.095 335.517 459.879 338.655 463.525 340.121 L 463.555 340.133 L 463.583 340.146 C 465.171 340.877 467.165 340.341 468.670 339.745 C 471.495 338.625 474.078 336.892 476.282 335.151 C 479.267 332.793 481.915 330.152 484.305 327.428 C 486.898 324.474 489.193 321.371 491.140 318.137 L 492.906 314.824 C 489.912 313.663 487.602 311.925 486.267 309.492 C 484.962 307.112 484.397 304.595 484.849 302.028 C 485.289 299.526 486.622 297.317 488.768 295.406 C 491.174 293.264 494.414 292.391 498.035 292.391 C 502.767 292.391 506.229 294.024 507.986 297.431 C 509.668 300.693 509.486 304.320 508.545 307.715 C 511.794 307.311 514.992 306.683 518.113 305.885 C 518.559 305.770 519.002 305.652 519.442 305.527 C 522.358 299.968 525.653 294.509 529.128 289.145 C 535.769 278.894 542.942 268.807 550.841 259.092 C 554.168 255.002 557.628 250.968 561.285 247.046 C 564.398 243.707 567.661 240.436 571.142 237.319 C 574.016 234.746 577.074 232.249 580.378 229.996 C 583.017 228.194 585.888 226.498 588.975 225.169 C 593.596 223.181 598.954 222.098 603.762 224.345 L 603.772 224.349 L 603.782 224.354 C 608.710 226.761 609.013 231.566 608.320 235.581 C 607.789 238.653 606.553 241.738 605.122 244.628 C 603.227 248.451 600.862 252.177 598.336 255.776 C 595.155 260.311 591.611 264.716 587.910 269.012 C 583.427 274.216 578.675 279.294 573.785 284.278 C 568.060 290.116 562.030 295.783 555.821 301.320 C 548.793 307.589 541.521 313.701 534.096 319.695 C 532.822 322.841 531.633 326.178 531.053 329.441 C 530.672 331.587 530.380 333.914 530.574 336.079 C 530.680 337.248 530.930 338.785 531.659 339.833 C 531.944 340.244 532.537 341.016 533.105 341.234 L 533.134 341.245 L 533.162 341.256 C 534.197 341.711 536.251 340.896 537.131 340.510 C 539.748 339.363 542.189 337.704 544.311 336.076 C 547.293 333.787 549.987 331.228 552.469 328.615 C 554.612 326.360 556.522 323.981 558.203 321.506 C 558.404 321.185 558.604 320.865 558.806 320.544 C 561.194 316.510 563.628 312.491 566.111 308.490 C 568.294 304.969 570.483 301.450 572.682 297.934 C 574.260 295.411 575.840 292.888 577.429 290.367 C 577.856 289.691 578.281 289.014 578.690 288.331 C 578.826 288.103 579.025 287.800 579.139 287.550 L 579.139 287.457 L 579.265 287.269 C 585.906 277.302 592.975 267.453 600.731 257.970 C 603.984 253.993 607.374 250.074 610.964 246.271 C 614.024 243.029 617.238 239.858 620.673 236.845 C 623.508 234.357 626.517 231.943 629.752 229.760 C 632.334 228.017 635.131 226.372 638.131 225.077 C 642.710 223.099 647.938 222.131 652.677 224.345 L 652.694 224.353 L 652.711 224.362 C 656.382 226.213 657.464 229.387 657.426 232.601 C 657.403 234.725 656.911 236.892 656.253 238.950 C 655.400 241.619 654.217 244.252 652.906 246.808 C 651.278 249.983 649.334 253.076 647.237 256.083 C 644.733 259.674 641.988 263.174 639.114 266.598 C 632.815 274.103 625.843 281.346 618.633 288.372 C 621.563 287.444 624.691 286.788 627.744 286.788 C 631.582 286.788 635.943 287.384 638.298 289.965 C 640.379 292.247 640.693 294.942 640.070 297.631 C 639.290 300.997 637.183 304.248 634.796 307.105 C 631.901 310.567 628.421 313.703 624.515 316.517 C 620.436 319.457 615.854 321.906 610.865 323.852 C 606.285 325.638 601.419 326.737 596.313 326.987 C 596.415 328.421 596.772 329.834 597.327 331.209 C 598.001 332.874 598.919 334.472 600.124 335.952 C 601.171 337.238 602.443 338.427 603.998 339.369 C 605.257 340.132 606.664 340.580 608.275 340.580 C 612.211 340.580 616.881 337.104 619.360 335.069 C 623.637 331.561 627.116 327.262 630.002 323.015 C 630.730 321.735 631.502 320.469 632.311 319.218 C 636.408 312.876 641.112 306.450 646.792 300.856 C 650.935 296.776 655.714 292.693 661.124 289.579 C 665.056 287.315 669.619 285.311 674.486 284.563 C 678.212 283.992 682.115 283.980 685.643 285.183 L 685.666 285.191 L 685.690 285.200 C 687.287 285.813 688.686 286.622 689.725 287.679 L 690.305 286.788 L 712.532 286.788 L 687.185 328.585 L 686.694 329.339 C 685.519 331.195 684.382 333.080 683.384 334.996 C 682.723 336.263 682.070 337.620 681.673 338.951 C 681.530 339.431 681.323 340.337 681.636 340.803 C 681.839 341.106 682.344 341.140 682.742 341.140 C 686.575 341.140 690.287 337.590 692.268 335.443 C 694.719 332.785 696.892 329.935 698.897 327.067 L 723.874 286.788 L 746.135 286.788 L 738.238 299.472 C 742.080 296.428 746.254 293.556 750.725 291.235 C 755.200 288.912 760.685 286.788 766.213 286.788 C 768.461 286.788 770.556 287.241 772.371 288.267 C 774.191 289.297 775.383 290.705 776.069 292.350 C 776.860 294.248 776.851 296.304 776.477 298.258 C 776.002 300.736 774.652 303.123 773.054 305.289 C 768.313 311.715 763.626 318.163 758.944 324.615 C 757.370 326.784 755.813 328.963 754.301 331.159 C 753.189 332.774 752.093 334.403 751.068 336.053 C 750.386 337.149 749.714 338.274 749.161 339.413 C 748.913 339.924 748.548 340.694 748.500 341.241 C 748.492 341.331 748.485 341.586 748.541 341.692 C 748.588 341.699 748.658 341.701 748.692 341.701 C 752.616 341.701 757.030 337.810 759.229 335.684 C 761.600 333.393 763.715 330.928 765.648 328.407 C 767.971 325.380 770.057 322.237 771.985 319.051 L 772.693 317.879 L 780.000 323.732 L 779.666 324.280 C 776.988 328.676 774.051 333.013 770.720 337.141 C 767.984 340.532 764.940 343.838 761.473 346.814 C 755.846 351.644 748.842 355.046 740.175 355.046 C 736.742 355.046 733.283 354.492 730.565 352.793 C 727.621 350.952 726.909 347.947 726.979 345.181 C 727.086 340.907 729.499 335.930 731.698 332.052 C 733.432 328.994 735.475 326.015 737.624 323.119 C 740.332 319.468 743.254 315.902 746.273 312.398 L 746.278 312.392 L 746.284 312.385 C 747.872 310.613 749.412 308.805 750.834 306.951 C 751.928 305.525 752.974 304.051 753.846 302.536 C 754.209 301.904 754.596 301.168 754.758 300.485 C 754.788 300.354 754.866 299.925 754.778 299.781 C 754.714 299.763 754.586 299.759 754.532 299.759 C 752.904 299.759 749.248 302.353 748.146 303.158 C 744.142 306.082 740.470 309.443 737.064 312.776 C 732.455 317.284 728.175 322.014 724.102 326.815 C 719.563 332.167 715.365 337.688 711.515 343.350 L 704.641 354.486 L 681.895 354.486 L 682.638 353.288 C 679.397 354.435 675.942 355.046 672.278 355.046 C 664.913 355.046 660.295 352.470 658.834 347.349 C 654.837 350.129 650.329 352.569 645.337 354.140 C 640.276 355.732 635.242 355.638 630.548 353.421 L 630.534 353.415 L 630.521 353.408 C 626.479 351.379 624.837 347.964 624.322 344.453 C 623.418 345.271 622.483 346.067 621.514 346.839 C 615.124 351.922 607.391 355.046 598.054 355.046 C 594.861 355.046 592.028 354.134 589.548 352.611 C 586.815 350.933 584.652 348.805 582.938 346.473 C 580.942 343.757 579.594 340.770 578.682 337.739 C 577.955 335.321 577.548 332.850 577.435 330.372 C 575.471 332.681 573.590 335.032 571.794 337.421 C 569.413 340.590 567.147 343.811 565.016 347.083 L 560.323 354.486 L 537.839 354.486 L 538.608 353.228 C 539.004 352.580 539.401 351.931 539.798 351.282 C 537.393 352.364 534.826 353.261 532.158 353.790 C 528.788 354.458 525.376 354.507 522.043 353.703 C 518.483 352.939 515.705 351.042 513.539 348.807 C 510.459 345.628 509.724 341.024 509.661 337.178 C 509.614 334.293 510.033 331.365 510.650 328.523 C 511.430 324.936 512.555 321.374 513.842 317.876 C 514.256 316.748 514.701 315.627 515.168 314.512 C 511.928 315.213 508.615 315.713 505.260 315.954 C 504.948 316.769 504.548 317.562 504.052 318.323 C 503.477 319.206 502.970 320.116 502.519 321.040 L 502.501 321.075 L 502.481 321.108 C 499.418 326.071 495.713 330.789 491.547 335.252 C 487.451 339.641 482.754 343.709 477.359 347.182 C 472.660 350.206 467.378 352.710 461.519 354.163 C 456.001 355.532 450.510 355.336 445.233 353.471 C 438.868 351.222 436.143 346.493 435.206 341.399 C 434.255 336.240 435.804 330.865 438.282 325.912"/>
<path id="split-volkan-path-8" d="M 438.282 325.912 C 437.151 327.237 436.013 328.560 434.869 329.878 C 430.161 335.298 425.264 340.631 420.101 345.801 C 415.910 350.000 411.118 354.104 405.657 357.355 C 401.404 359.888 396.499 361.861 391.080 362.299 C 385.570 362.744 380.663 361.009 376.480 358.367 C 370.870 354.826 366.953 350.396 364.912 345.046 C 362.851 339.641 362.296 333.978 362.923 328.379 C 363.616 322.195 365.324 316.092 367.716 310.169 C 370.204 304.008 373.132 297.953 376.523 292.050 C 379.713 286.496 383.193 281.034 387.034 275.728 C 390.174 271.390 393.426 267.066 396.922 262.891 C 402.158 256.379 407.909 250.087 413.889 243.967 C 419.448 238.278 425.622 232.972 432.372 228.111 L 397.154 236.002 L 396.688 235.452 C 394.694 233.098 392.335 230.953 389.590 229.095 C 386.870 227.253 383.782 225.820 380.426 224.767 C 376.325 223.483 372.031 222.778 367.597 222.778 C 363.312 222.778 359.121 223.316 355.082 224.409 C 351.112 225.485 347.479 227.051 344.239 229.113 C 341.080 231.123 338.513 233.522 336.615 236.313 L 336.608 236.325 L 336.599 236.336 C 334.293 239.497 332.857 242.936 332.107 246.505 C 331.335 250.179 331.783 253.758 333.497 257.239 C 335.021 259.916 337.474 261.900 340.865 263.229 C 344.150 264.519 347.539 264.838 351.079 264.011 L 351.091 264.009 L 351.104 264.007 C 354.614 263.251 357.423 261.789 359.161 259.302 C 360.829 256.917 361.437 254.393 360.981 251.709 L 360.859 250.987 L 361.758 250.757 C 365.453 249.811 369.302 249.698 372.704 251.311 C 376.218 252.976 377.386 255.833 377.386 258.879 C 377.386 262.760 376.050 266.378 372.729 269.353 C 369.713 272.053 366.023 274.030 361.652 275.214 C 357.262 276.403 352.689 276.819 348.048 276.569 C 343.460 276.323 339.114 275.346 335.222 273.445 L 335.209 273.439 L 335.196 273.432 C 328.835 270.137 324.235 265.757 322.197 260.046 C 320.261 254.616 320.102 249.088 321.571 243.573 C 323.079 237.917 325.944 232.632 330.005 227.771 C 333.839 223.179 338.666 219.188 344.722 216.291 C 350.323 213.612 356.383 211.675 362.887 210.756 C 369.096 209.878 375.389 209.767 381.636 210.470 C 387.921 211.178 393.945 212.670 399.626 214.850 C 405.188 216.985 410.333 219.641 414.994 222.794 L 481.480 209.801 L 484.003 217.789 L 482.730 217.915 C 477.550 218.429 472.748 219.946 468.353 222.082 C 463.380 224.499 458.780 227.337 454.543 230.470 C 450.048 233.795 445.909 237.392 442.127 241.203 C 438.439 244.917 434.942 248.750 431.724 252.715 C 428.965 256.114 426.270 259.551 423.721 263.046 C 421.945 265.479 420.147 267.901 418.366 270.331 C 416.010 273.545 413.791 276.844 411.569 280.113 C 408.381 284.803 405.369 289.567 402.467 294.365 C 399.193 299.776 396.176 305.279 393.370 310.842 C 390.618 316.299 388.225 321.875 386.356 327.550 C 384.798 332.277 383.682 337.217 383.591 342.102 C 383.527 345.591 384.325 349.264 387.131 352.110 C 388.851 353.855 390.881 353.996 393.376 353.063 C 397.203 351.632 400.928 348.771 403.728 346.358 C 408.436 342.303 412.649 337.740 416.524 333.201 C 421.552 327.310 426.340 321.292 430.973 315.214 C 436.269 308.264 441.447 301.260 446.534 294.219 C 451.903 286.790 457.254 279.355 462.588 271.911 C 465.287 267.927 468.193 264.004 471.124 260.117 C 474.999 254.982 479.147 249.961 483.453 245.032 C 488.159 239.647 493.181 234.426 498.479 229.374 C 503.600 224.491 509.224 219.904 515.416 215.811 C 520.897 212.189 527.007 209.111 533.752 207.067 C 539.937 205.193 546.303 204.742 552.732 206.104 C 556.556 206.913 560.101 208.396 563.315 210.159 L 563.326 210.165 L 563.337 210.171 C 564.843 211.037 566.604 212.162 567.630 213.387 C 568.283 214.168 568.917 215.155 568.779 216.110 C 568.655 216.965 568.058 217.632 567.055 218.016 C 566.188 218.349 565.258 218.451 564.315 218.270 L 564.303 218.267 L 564.291 218.265 C 562.342 217.857 559.976 218.111 558.044 218.459 C 556.895 218.667 555.745 218.879 554.603 219.108 C 553.928 219.243 553.238 219.383 552.576 219.551 C 544.289 222.072 536.830 225.960 530.193 230.493 C 522.370 235.838 515.186 241.747 508.536 247.952 C 501.069 254.922 494.015 262.156 487.299 269.562 C 480.209 277.381 473.097 285.187 466.005 293.003 C 465.348 293.728 464.694 294.454 464.044 295.182"/>
</g>
</svg>