<svg xmlns="http://www.w3.org/2000/svg" width="800mm" height="600mm" viewBox="0 0 800 600" data-corel-reference="true" data-split-child="true">
<title>Split golden reference: Yasemin from yagmur.svg</title>
<rect x="0" y="0" width="800" height="600" fill="#ffffff"/>
<g id="split-reference-yasemin" fill="none" stroke="#020617" stroke-width="0.22" stroke-linejoin="round" stroke-linecap="round" vector-effect="non-scaling-stroke" data-source-file="yagmur.svg" data-label="Yasemin">
<path id="split-yasemin-path-3" d="M 232.354 326.035 C 232.174 326.573 231.970 327.333 232.063 327.900 C 232.116 328.226 232.257 328.428 232.547 328.561 C 233.647 329.066 235.342 328.550 236.400 328.143 C 238.646 327.279 240.863 325.850 242.823 324.426 C 245.527 322.462 247.999 320.134 250.248 317.621 C 252.829 314.737 255.394 311.194 256.578 307.391 C 256.837 306.556 257.885 303.018 256.881 302.360 L 256.872 302.354 L 256.864 302.348 C 255.296 301.252 253.450 301.654 251.830 302.410 C 249.291 303.594 246.977 305.480 244.971 307.474 C 242.384 310.046 240.078 312.947 237.997 315.978 C 235.827 319.141 233.914 322.496 232.354 326.035 L 232.354 326.035 Z"/>
<path id="split-yasemin-path-4" d="M 145.513 327.842 C 146.825 324.712 148.130 321.579 149.422 318.440 C 150.457 315.923 151.406 313.299 152.057 310.642 C 152.486 308.894 152.874 306.867 152.799 305.055 C 152.750 303.885 152.350 302.959 151.356 302.379 L 151.340 302.370 L 151.324 302.360 C 150.312 301.696 148.839 302.632 148.018 303.238 C 146.021 304.713 144.202 306.685 142.613 308.620 C 140.427 311.284 138.466 314.187 136.662 317.145 C 134.680 320.394 132.924 323.783 131.362 327.273 C 130.040 330.229 128.805 333.238 127.762 336.317 C 126.854 338.996 126.057 341.745 125.498 344.530 C 125.099 346.521 124.770 348.714 124.845 350.753 C 124.879 351.673 125.058 352.908 126.000 353.278 L 126.054 353.299 L 126.104 353.329 C 126.959 353.842 128.496 352.692 129.124 352.185 C 131.061 350.622 132.814 348.586 134.348 346.601 C 136.469 343.857 138.404 340.932 140.218 337.958 C 142.197 334.714 143.974 331.338 145.513 327.842 L 145.513 327.842 Z"/>
<path id="split-yasemin-path-7" d="M 358.648 295.554 C 358.512 295.393 358.381 295.225 358.254 295.049 C 356.618 292.786 356.416 290.161 357.178 287.482 C 357.902 284.461 359.617 282.032 361.905 280.085 C 364.229 278.109 366.888 276.912 369.900 276.912 C 372.548 276.912 374.773 277.931 376.313 280.239 C 377.853 282.548 378.117 285.158 377.471 287.866 C 376.752 290.885 375.043 293.286 372.731 295.187 C 372.578 295.313 372.424 295.435 372.269 295.554"/>
<path id="split-yasemin-path-8" d="M 126.718 308.058 C 129.489 304.564 132.586 301.198 136.003 298.509 C 139.065 296.100 142.621 293.961 146.411 293.165 C 149.296 292.560 152.322 292.543 155.053 293.817 L 155.068 293.824 L 155.083 293.831 C 156.401 294.523 157.545 295.450 158.357 296.684 L 158.896 295.554 L 175.934 295.554 L 156.174 340.097 L 155.789 340.903 C 154.866 342.898 153.972 344.924 153.187 346.983 C 152.666 348.351 152.150 349.814 151.837 351.252 C 151.713 351.822 151.553 352.814 151.823 353.365 C 152.019 353.766 152.460 353.831 152.852 353.831 C 155.935 353.831 158.874 350.008 160.471 347.642 C 161.920 345.493 163.238 343.233 164.473 340.944 C 165.906 338.287 167.238 335.565 168.504 332.816 L 168.402 332.705 L 180.561 305.975 C 180.329 301.858 181.031 297.832 182.535 294.019 C 184.219 289.750 186.844 286.012 189.945 282.758 L 189.951 282.752 L 189.958 282.745 C 192.041 280.670 194.699 278.692 197.649 278.434 C 199.832 278.243 201.927 278.761 203.180 280.778 C 204.505 282.908 204.119 285.722 203.458 288.018 C 202.383 291.747 199.462 295.342 196.883 298.048 L 196.878 298.052 L 196.874 298.057 C 195.379 299.571 193.873 301.172 192.567 302.869 C 191.893 303.745 191.005 304.984 190.662 306.063 C 190.168 307.617 190.345 309.050 191.238 310.398 C 192.442 312.214 194.055 313.896 195.615 315.375 C 198.025 317.658 199.757 320.956 201.042 324.045 C 202.602 327.794 203.058 331.679 202.331 335.703 C 201.625 339.604 200.299 343.286 198.324 346.672 C 196.687 349.476 194.703 351.996 192.360 354.156 C 195.146 352.549 197.761 350.627 200.207 348.498 C 203.209 345.884 205.945 342.960 208.412 339.790 C 210.423 337.205 212.239 334.437 213.728 331.485 C 214.072 330.656 214.434 329.835 214.813 329.022 C 218.045 322.086 221.970 315.236 226.850 309.428 C 230.536 305.042 234.767 300.783 239.511 297.672 C 243.060 295.345 247.069 293.384 251.244 292.758 C 254.303 292.299 257.631 292.353 260.450 293.831 L 260.458 293.836 L 260.466 293.841 C 262.536 294.998 264.118 296.694 265.245 298.850 C 266.447 301.150 267.022 303.678 267.146 306.286 C 267.290 309.301 266.836 312.337 266.071 315.237 C 265.167 318.670 263.599 321.856 261.675 324.778 C 259.063 328.744 255.963 332.405 252.251 335.271 C 249.226 337.606 245.830 339.604 242.175 340.600 C 239.289 341.388 236.204 341.655 233.303 340.797 C 231.222 340.181 229.558 339.008 228.338 337.286 C 227.634 340.453 227.236 343.794 227.536 347.003 C 227.799 349.821 228.882 352.103 231.409 353.296 L 231.422 353.303 L 231.435 353.309 C 233.712 354.504 236.567 354.282 238.980 353.747 C 242.494 352.967 245.816 351.394 248.871 349.435 C 252.481 347.121 255.769 344.271 258.758 341.135 C 261.662 338.088 264.176 334.683 266.232 330.952 L 282.194 295.554 L 299.449 295.554 L 296.104 302.866 C 298.196 300.923 300.494 299.168 302.954 297.931 C 306.124 296.338 309.486 295.554 313.001 295.554 C 315.433 295.554 317.468 296.501 318.925 298.564 C 320.134 300.275 320.609 302.311 320.654 304.385 C 325.328 300.136 331.639 295.554 337.815 295.554 C 339.539 295.554 341.146 296.027 342.538 297.103 C 343.935 298.183 344.848 299.660 345.374 301.387 C 345.986 303.393 345.977 305.570 345.687 307.636 C 345.318 310.268 344.266 312.807 343.024 315.108 C 339.305 321.999 335.628 328.912 331.956 335.830 C 330.721 338.158 329.499 340.495 328.313 342.850 C 327.439 344.585 326.578 346.333 325.773 348.105 C 325.236 349.285 324.707 350.497 324.271 351.723 C 324.069 352.291 323.781 353.128 323.742 353.737 C 323.733 353.887 323.727 354.234 323.819 354.365 C 323.862 354.427 324.011 354.431 324.072 354.431 C 327.220 354.431 330.636 350.260 332.379 347.914 C 334.215 345.443 335.855 342.793 337.359 340.088 C 339.170 336.831 340.802 333.456 342.315 330.037 L 342.760 329.032 L 342.787 329.062 L 357.782 295.554 L 358.648 295.554"/>
<path id="split-yasemin-path-9" d="M 372.269 295.554 L 375.024 295.554 L 354.883 340.894 L 354.880 340.900 C 353.954 342.901 353.054 344.929 352.251 346.989 C 351.712 348.369 351.180 349.826 350.826 351.271 C 350.690 351.826 350.506 352.811 350.785 353.350 C 351.002 353.769 351.534 353.831 351.941 353.831 C 355.024 353.831 357.963 350.008 359.560 347.642 C 361.487 344.784 363.196 341.720 364.773 338.637 L 384.317 295.554 L 401.378 295.554 L 394.817 309.961 C 396.039 308.607 397.297 307.289 398.597 306.020 C 400.716 303.952 402.966 301.993 405.365 300.290 C 408.843 297.821 413.116 295.554 417.413 295.554 C 419.136 295.554 420.743 296.027 422.136 297.103 C 423.533 298.183 424.445 299.660 424.972 301.387 C 425.584 303.393 425.574 305.570 425.285 307.636 C 424.916 310.268 423.863 312.807 422.622 315.108 C 418.903 321.999 415.226 328.912 411.553 335.830 C 410.317 338.158 409.097 340.495 407.910 342.850 C 407.037 344.585 406.176 346.333 405.370 348.105 C 404.833 349.285 404.304 350.497 403.869 351.723 C 403.666 352.291 403.378 353.128 403.340 353.737 C 403.330 353.887 403.324 354.234 403.416 354.365 C 403.460 354.427 403.608 354.431 403.669 354.431 C 406.824 354.431 410.305 350.248 412.076 347.909 C 413.941 345.445 415.604 342.794 417.125 340.085 C 418.950 336.834 420.589 333.458 422.103 330.037 L 422.548 329.032 L 428.011 335.013 L 427.801 335.482 C 425.704 340.190 423.403 344.833 420.794 349.253 C 418.654 352.879 416.272 356.415 413.561 359.598 C 409.182 364.735 403.734 368.361 396.989 368.361 C 394.339 368.361 391.664 367.781 389.566 365.988 C 387.303 364.054 386.766 360.881 386.819 357.977 C 386.857 355.894 387.270 353.759 387.799 351.757 C 388.501 349.104 389.459 346.494 390.505 343.972 C 391.863 340.700 393.463 337.512 395.145 334.412 C 397.267 330.501 399.557 326.682 401.922 322.929 L 401.926 322.923 L 401.930 322.917 C 403.178 321.013 404.388 319.071 405.505 317.080 C 406.367 315.544 407.190 313.957 407.877 312.326 C 408.181 311.604 408.706 310.261 408.652 309.455 C 408.631 309.133 408.558 309.083 408.251 309.083 C 406.895 309.083 404.033 311.865 403.117 312.780 C 401.682 314.212 400.320 315.734 399.008 317.289 C 397.417 319.177 395.890 321.130 394.407 323.112 C 390.789 327.950 387.429 333.027 384.231 338.178 C 380.666 343.923 377.370 349.848 374.347 355.926 L 369.004 367.761 L 351.562 367.761 L 352.225 366.299 C 349.640 367.635 346.872 368.361 343.924 368.361 C 338.800 368.361 334.832 366.260 333.490 360.784 C 333.441 360.583 333.396 360.381 333.357 360.177 C 329.081 364.935 323.810 368.361 317.391 368.361 C 314.742 368.361 312.066 367.781 309.968 365.988 C 307.705 364.054 307.168 360.881 307.221 357.977 C 307.259 355.894 307.672 353.759 308.202 351.757 C 308.903 349.104 309.861 346.494 310.908 343.972 C 312.265 340.700 313.865 337.512 315.547 334.412 C 317.670 330.501 319.959 326.682 322.325 322.929 L 322.329 322.923 L 322.332 322.917 C 323.577 321.019 324.780 319.078 325.882 317.084 C 326.725 315.556 327.529 313.970 328.178 312.340 C 328.468 311.613 328.961 310.276 328.889 309.473 C 328.860 309.143 328.777 309.083 328.463 309.083 C 327.645 309.083 326.273 310.130 325.658 310.628 C 324.023 311.954 322.493 313.501 321.060 315.060 C 319.187 317.098 317.472 319.315 315.872 321.592 C 314.057 324.176 312.426 326.900 310.962 329.716 C 309.135 333.230 307.411 336.812 305.727 340.402 C 303.813 344.482 301.920 348.573 300.104 352.702 C 297.982 357.525 295.970 362.402 294.005 367.297 L 293.819 367.761 L 276.542 367.761 L 277.037 366.676 C 279.780 360.673 282.516 354.665 285.245 348.655 L 285.247 348.648 L 285.251 348.641 C 286.399 346.232 287.509 343.802 288.581 341.355 C 289.640 338.935 290.723 336.525 291.832 334.130 C 292.821 331.996 293.807 329.860 294.790 327.723 C 295.522 326.132 296.276 324.535 297.094 322.990 C 298.094 320.948 299.062 318.866 299.904 316.747 C 300.457 315.355 301.009 313.842 301.321 312.368 C 301.451 311.755 301.629 310.696 301.418 310.086 C 301.306 309.759 301.107 309.684 300.784 309.684 C 299.305 309.684 296.834 312.740 295.998 313.812 C 294.720 315.452 293.526 317.173 292.384 318.918 C 290.969 321.082 289.625 323.300 288.326 325.542 C 285.121 331.071 282.100 336.728 279.182 342.429 C 275.855 348.931 272.651 355.503 269.555 362.130 L 268.186 365.060 L 268.186 364.913 L 266.879 367.761 L 249.634 367.761 L 253.783 358.559 C 251.262 360.673 248.596 362.594 245.784 364.258 C 241.147 367.003 236.124 368.999 230.816 369.658 C 226.005 370.255 221.474 369.359 217.367 366.643 C 215.154 365.179 213.465 363.174 212.246 360.748 C 210.877 358.028 210.207 354.996 209.970 351.945 C 209.938 351.533 209.913 351.121 209.897 350.707 C 209.661 350.952 209.421 351.193 209.180 351.433 C 204.639 355.936 199.552 359.728 193.918 362.579 C 188.624 365.257 183.021 367.028 177.167 367.656 C 171.927 368.219 166.701 367.657 161.898 365.285 L 161.263 364.972 L 164.443 357.346 L 165.000 357.446 C 168.718 358.119 171.997 356.919 174.929 354.494 C 178.311 351.696 180.901 348.149 182.845 344.131 C 184.895 339.894 186.184 335.395 186.684 330.672 C 187.124 326.523 186.691 322.382 184.676 318.718 L 184.666 318.699 L 184.656 318.678 C 184.420 318.183 184.173 317.694 183.911 317.213 C 183.875 317.147 183.840 317.081 183.804 317.015 L 175.581 334.920 L 175.666 335.013 L 175.457 335.482 C 173.359 340.190 171.058 344.833 168.449 349.253 C 166.309 352.879 163.928 356.415 161.216 359.598 C 156.837 364.735 151.389 368.361 144.644 368.361 C 138.840 368.361 135.263 365.553 134.211 359.934 C 131.034 362.993 127.438 365.686 123.443 367.404 C 119.528 369.087 115.639 368.992 112.007 366.647 L 111.998 366.641 L 111.990 366.636 C 107.637 363.649 106.888 357.772 107.083 352.754 C 107.173 350.440 107.487 348.114 107.969 345.806"/>
<path id="split-yasemin-path-10" d="M 107.969 345.806 C 103.625 352.878 98.618 359.462 92.977 365.446 C 87.189 371.586 80.474 376.361 72.894 379.729 C 69.437 381.266 65.839 382.429 62.174 383.276 C 58.454 384.136 54.650 384.564 50.840 384.495 C 47.105 384.428 43.424 383.817 39.854 382.659 C 36.293 381.504 33.046 379.691 30.162 377.215 L 30.147 377.202 L 30.132 377.188 C 27.217 374.395 24.883 371.111 23.278 367.324 C 21.747 363.708 20.810 359.901 20.546 355.955 C 20.282 352.013 20.597 348.075 21.421 344.221 C 22.233 340.417 23.537 336.770 25.411 333.398 C 27.339 329.758 29.776 326.505 32.710 323.701 C 35.641 320.899 38.934 318.617 42.531 316.865 C 46.148 315.103 49.958 313.972 53.919 313.495 C 57.930 313.012 61.892 313.399 65.758 314.624 C 68.849 315.603 71.494 317.374 73.710 319.836 C 75.901 322.270 77.248 325.140 77.529 328.481 C 77.728 330.014 78.137 333.586 76.094 334.014 C 74.639 334.320 72.471 333.729 71.073 333.297 C 68.266 332.432 65.326 331.793 62.455 331.212 C 58.353 330.382 53.912 330.829 49.853 331.710 C 47.315 332.261 44.971 333.525 42.871 335.090 C 40.471 336.880 38.433 339.087 36.745 341.617 L 36.738 341.627 L 36.732 341.636 C 35.208 343.768 34.047 346.129 33.208 348.642 C 32.354 351.202 31.813 353.852 31.625 356.558 C 31.441 359.190 31.749 361.770 32.544 364.274 C 33.332 366.755 34.654 368.875 36.460 370.673 C 39.315 373.515 42.640 375.348 46.554 375.878 C 50.529 376.417 54.517 376.173 58.431 375.288 C 62.567 374.354 66.528 372.813 70.273 370.752 C 73.686 368.874 77.033 366.678 79.964 364.043 C 83.370 360.867 86.463 357.350 89.217 353.542 C 92.010 349.680 94.506 345.593 96.697 341.324 C 98.906 337.020 100.903 332.598 102.678 328.078 C 104.425 323.625 106.141 319.160 107.824 314.680 L 110.106 308.095 C 107.270 310.071 104.304 311.861 101.293 313.516 C 97.378 315.667 93.224 317.253 88.873 318.095 C 84.829 318.879 80.784 318.737 76.870 317.368 C 72.638 315.888 69.677 312.534 67.588 308.500 C 64.410 302.361 63.021 295.781 64.268 288.873 C 65.490 282.111 68.230 275.938 72.025 270.351 C 76.214 264.184 81.198 258.651 86.647 253.696 C 90.596 250.105 94.652 246.639 98.820 243.330 L 80.355 251.610 L 80.024 251.076 C 78.414 248.477 76.481 246.151 74.241 244.128 C 72.016 242.118 69.533 240.521 66.815 239.353 C 63.552 238.086 60.156 237.402 56.674 237.402 C 53.319 237.402 50.045 238.005 46.909 239.255 C 43.799 240.495 40.967 242.264 38.436 244.531 C 35.883 246.817 33.807 249.529 32.208 252.626 C 30.416 256.096 29.404 260.007 28.851 263.893 C 28.286 267.862 28.493 271.847 29.944 275.593 C 30.849 277.605 32.104 279.365 33.816 280.696 C 35.378 281.910 37.113 282.734 39.037 283.060 C 40.933 283.380 42.789 283.166 44.598 282.493 C 46.592 281.750 48.203 280.359 49.515 278.642 C 50.502 277.214 51.177 275.620 51.584 273.911 C 52.002 272.159 52.099 270.382 51.856 268.594 L 51.771 267.969 L 52.342 267.769 C 55.114 266.799 58.072 266.613 60.601 268.355 C 63.173 270.125 64.134 273.149 64.361 276.239 L 64.361 276.247 L 64.362 276.255 C 64.492 278.710 64.142 281.113 63.259 283.391 C 62.398 285.616 61.166 287.605 59.581 289.338 C 58.012 291.052 56.232 292.506 54.262 293.678 C 52.344 294.818 50.291 295.639 48.122 296.066 L 48.112 296.068 L 48.102 296.070 C 43.194 296.889 38.030 296.731 33.532 294.292 C 29.616 292.169 26.541 289.103 24.361 285.083 C 22.070 280.859 20.875 276.180 20.452 271.360 C 20.000 266.212 20.448 261.071 21.713 256.077 C 23.118 250.533 25.432 245.402 28.810 240.884 C 32.056 236.544 35.943 232.904 40.463 230.087 C 44.971 227.276 49.855 225.421 55.024 224.485 C 60.309 223.526 65.618 223.686 70.858 224.891 C 74.949 225.832 78.883 227.321 82.588 229.367 C 86.153 231.335 89.501 233.687 92.603 236.381 L 123.527 224.089 L 127.375 231.450 L 126.874 231.844 C 123.509 234.492 120.134 237.128 116.754 239.757 C 112.953 242.713 109.282 245.852 105.730 249.129 C 102.064 252.511 98.577 256.102 95.288 259.885 C 92.177 263.463 89.352 267.324 86.975 271.480 C 84.817 275.253 83.163 279.297 82.191 283.582 C 81.271 287.634 81.253 291.698 82.281 295.727 C 83.206 299.351 84.929 303.751 88.307 305.563 C 91.090 307.055 94.036 307.336 97.074 306.601 C 100.498 305.771 103.668 304.173 106.566 302.106 C 109.297 300.157 111.944 297.924 114.157 295.339 C 116.308 288.289 118.528 281.262 120.795 274.252 C 123.145 266.986 125.936 259.876 129.233 253.026 C 132.271 246.716 135.921 240.729 140.304 235.352 C 144.268 230.490 149.060 226.680 154.831 224.517 L 154.838 224.515 L 154.845 224.512 C 157.443 223.604 160.139 223.044 162.881 222.971 C 165.243 222.910 167.654 223.262 169.799 224.349 C 171.797 225.360 173.306 226.921 174.325 228.988 C 175.498 231.367 175.597 234.141 175.258 236.748 L 175.173 237.402 L 174.543 237.402 C 170.644 237.402 167.048 238.478 163.766 240.687 C 160.275 243.036 157.228 246.009 154.578 249.346 C 151.608 253.084 149.047 257.167 146.831 261.439 C 144.514 265.908 142.353 270.465 140.366 275.106 C 138.482 279.503 136.665 283.932 134.936 288.398 C 133.506 292.090 132.053 295.775 130.539 299.429 L 130.535 299.437 L 130.532 299.445 C 129.264 302.318 127.993 305.189 126.718 308.058"/>
</g>
</svg>