<svg xmlns="http://www.w3.org/2000/svg" width="800mm" height="600mm" viewBox="0 0 800 600" data-corel-reference="true" data-split-child="true">
<title>Split golden reference: Zahit from cagr.svg</title>
<rect x="0" y="0" width="800" height="600" fill="#ffffff"/>
<g id="split-reference-zahit" fill="none" stroke="#020617" stroke-width="0.22" stroke-linejoin="round" stroke-linecap="round" vector-effect="non-scaling-stroke" data-source-file="cagr.svg" data-label="Zahit">
<path id="split-zahit-path-1" d="M 693.455 248.478 C 693.065 248.566 692.356 248.913 692.131 249.028 C 691.003 249.609 689.923 250.320 688.923 251.000 C 687.094 252.244 685.380 253.589 683.736 254.947 C 681.546 256.755 679.452 258.623 677.410 260.510 C 671.883 265.620 666.746 270.981 661.799 276.358 C 655.383 283.330 649.509 290.554 643.977 297.867 L 640.271 303.285 C 646.588 297.960 652.747 292.550 658.736 287.053 C 665.431 280.907 671.971 274.662 678.139 268.266 C 680.614 265.700 683.038 263.108 685.358 260.477 C 687.194 258.395 688.975 256.282 690.610 254.124 C 691.229 253.307 691.824 252.477 692.347 251.630 C 692.716 251.034 693.067 250.408 693.304 249.782 C 693.429 249.449 693.562 249.015 693.513 248.670 C 693.508 248.632 693.491 248.543 693.455 248.478 Z"/>
<path id="split-zahit-path-2" d="M 569.665 321.441 C 571.459 318.667 573.242 315.889 575.008 313.106 C 576.423 310.875 577.720 308.549 578.610 306.193 C 579.196 304.644 579.726 302.847 579.624 301.241 C 579.557 300.203 579.011 299.382 577.652 298.868 L 577.629 298.860 L 577.608 298.851 C 576.224 298.263 574.211 299.092 573.089 299.630 C 570.359 300.937 567.874 302.685 565.703 304.401 C 562.714 306.762 560.035 309.336 557.568 311.959 C 554.860 314.838 552.459 317.843 550.325 320.936 C 548.517 323.557 546.831 326.225 545.405 328.954 C 544.163 331.329 543.073 333.767 542.310 336.235 C 541.764 337.999 541.315 339.944 541.417 341.752 C 541.463 342.568 541.709 343.661 542.996 343.990 L 543.070 344.009 L 543.138 344.036 C 544.306 344.490 546.407 343.470 547.266 343.021 C 549.913 341.635 552.309 339.831 554.406 338.071 C 557.304 335.638 559.950 333.045 562.429 330.409 C 565.133 327.534 567.562 324.540 569.665 321.441 Z"/>
<path id="split-zahit-path-5" d="M 700.731 292.817 C 700.669 292.765 700.607 292.711 700.546 292.656 C 698.310 290.650 698.035 288.323 699.076 285.948 C 700.066 283.270 702.409 281.117 705.537 279.391 C 708.714 277.639 712.347 276.578 716.463 276.578 C 720.083 276.578 723.124 277.481 725.228 279.527 C 727.334 281.574 727.694 283.888 726.812 286.289 C 725.829 288.964 723.493 291.094 720.333 292.779 C 720.308 292.792 720.284 292.805 720.260 292.817"/>
<path id="split-zahit-path-6" d="M 517.195 346.577 C 517.086 345.547 517.081 344.517 517.141 343.526 C 517.553 336.651 521.404 329.653 525.852 323.549 C 528.231 320.283 530.766 317.061 533.535 313.940 C 535.927 311.245 538.505 308.609 541.350 306.125 C 545.777 302.259 550.886 298.388 556.667 295.437 C 560.852 293.301 565.713 291.405 570.893 290.700 C 574.836 290.164 578.972 290.148 582.705 291.278 L 582.726 291.284 L 582.746 291.291 C 584.547 291.903 586.110 292.726 587.220 293.820 L 587.956 292.817 L 611.244 292.817 L 584.236 332.305 L 583.711 333.020 C 582.449 334.788 581.228 336.585 580.154 338.410 C 579.442 339.622 578.737 340.919 578.309 342.193 C 578.139 342.700 577.920 343.578 578.290 344.067 C 578.558 344.422 579.160 344.480 579.696 344.480 C 583.910 344.480 587.927 341.092 590.109 338.993 C 593.505 335.728 596.440 332.139 599.103 328.577 C 599.987 327.319 600.873 326.062 601.761 324.805 C 604.321 320.971 606.930 317.153 609.590 313.350 C 611.932 310.004 614.279 306.659 616.635 303.318 C 618.328 300.919 620.021 298.521 621.724 296.126 C 622.186 295.476 622.647 294.824 623.090 294.169 C 623.236 293.952 623.467 293.641 623.583 293.404 L 623.583 293.327 L 623.691 293.183 C 630.806 283.715 638.381 274.357 646.692 265.348 C 650.176 261.571 653.808 257.849 657.653 254.237 C 660.928 251.161 664.370 248.150 668.048 245.290 C 671.080 242.931 674.297 240.642 677.759 238.571 C 680.513 236.923 683.497 235.365 686.699 234.140 C 691.513 232.297 697.074 231.342 702.051 233.444 C 705.890 235.066 707.119 237.896 707.156 240.835 C 707.180 242.765 706.711 244.741 706.065 246.614 C 705.225 249.050 704.036 251.453 702.712 253.786 C 701.069 256.678 699.107 259.499 696.991 262.244 C 694.467 265.516 691.698 268.708 688.799 271.833 C 685.411 275.482 681.830 279.053 678.135 282.562 C 674.430 286.080 670.605 289.541 666.698 292.957 C 667.604 292.865 668.520 292.817 669.441 292.817 C 671.797 292.817 673.994 293.237 675.896 294.191 C 677.806 295.148 679.053 296.458 679.773 297.989 C 680.609 299.767 680.596 301.697 680.201 303.528 C 679.696 305.861 678.258 308.113 676.561 310.152 C 671.490 316.246 666.488 322.366 661.568 328.517 C 659.916 330.583 658.280 332.656 656.685 334.742 C 655.506 336.284 654.343 337.835 653.243 339.404 C 652.504 340.458 651.776 341.532 651.152 342.620 C 650.847 343.154 650.442 343.871 650.330 344.441 C 650.310 344.547 650.274 344.838 650.384 344.931 C 650.467 345.002 650.805 345.012 650.918 345.012 C 655.221 345.012 659.889 341.315 662.272 339.235 C 664.782 337.044 667.024 334.695 669.079 332.297 C 671.554 329.410 673.784 326.418 675.852 323.387 L 676.460 322.496 L 676.497 322.522 L 696.991 292.817 L 700.731 292.817"/>
<path id="split-zahit-path-7" d="M 720.260 292.817 L 720.558 292.817 L 693.030 333.012 L 693.026 333.017 C 691.760 334.791 690.531 336.589 689.432 338.415 C 688.696 339.638 687.969 340.930 687.485 342.211 C 687.299 342.703 687.048 343.576 687.429 344.054 C 687.726 344.426 688.452 344.480 689.008 344.480 C 693.223 344.480 697.240 341.092 699.422 338.993 C 702.176 336.345 704.606 333.495 706.844 330.633 L 727.893 300.196 L 716.413 300.196 L 721.516 292.817 L 732.995 292.817 L 753.538 263.089 L 780.000 258.587 L 756.561 292.817 L 774.748 292.817 L 770.284 300.196 L 751.468 300.196 L 729.032 333.011 L 729.029 333.017 C 727.411 335.283 724.843 339.310 725.711 341.895 C 726.183 343.296 727.128 344.480 729.446 344.480 C 731.498 344.480 734.120 343.672 735.908 343.045 C 739.106 341.924 742.106 340.436 744.858 338.867 C 748.318 336.894 751.427 334.612 754.243 332.215 C 757.428 329.507 760.062 326.531 762.207 323.387 L 762.814 322.496 L 770.283 327.800 L 769.993 328.217 C 766.976 332.551 763.319 336.674 758.914 340.422 C 754.964 343.782 750.543 346.907 745.581 349.583 C 741.286 351.899 736.592 353.925 731.520 355.358 C 727.320 356.544 722.801 357.362 718.228 357.362 C 714.779 357.362 711.466 356.857 708.471 355.673 C 705.554 354.520 703.469 352.854 702.184 350.732 C 701.825 350.138 701.546 349.524 701.334 348.899 C 701.039 349.132 700.741 349.363 700.440 349.593 C 694.528 354.092 687.153 357.362 678.051 357.362 C 671.047 357.362 665.625 355.499 663.791 350.644 C 663.714 350.442 663.646 350.238 663.587 350.033 C 657.777 354.304 650.590 357.362 641.788 357.362 C 638.123 357.362 634.461 356.835 631.525 355.266 C 628.336 353.560 627.610 350.752 627.758 348.143 C 627.862 346.299 628.439 344.416 629.162 342.641 C 630.118 340.295 631.397 337.987 632.792 335.746 C 634.600 332.842 636.760 330.012 639.037 327.267 C 641.917 323.797 645.040 320.410 648.270 317.086 L 648.275 317.080 L 648.280 317.076 C 649.986 315.387 651.639 313.666 653.167 311.900 C 654.345 310.539 655.470 309.132 656.408 307.686 C 656.824 307.046 657.541 305.856 657.468 305.142 C 657.439 304.856 657.340 304.811 656.919 304.811 C 654.834 304.811 650.903 307.342 649.520 308.260 C 647.505 309.599 645.588 311.015 643.737 312.460 C 641.486 314.217 639.323 316.029 637.217 317.868 C 632.115 322.322 627.395 327.000 622.921 331.754 C 617.926 337.060 613.295 342.523 609.017 348.111 L 603.020 356.829 L 579.448 356.829 L 580.107 355.873 C 580.219 355.711 580.330 355.550 580.441 355.389 C 576.728 356.672 572.740 357.362 568.478 357.362 C 563.726 357.362 560.067 356.469 557.586 354.681"/>
<path id="split-zahit-path-8" d="M 557.586 354.681 C 557.442 356.108 556.904 357.484 555.947 358.785 C 554.716 360.460 553.037 361.938 551.051 363.231 C 549.016 364.556 546.694 365.619 544.108 366.380 C 539.763 367.659 535.133 368.210 530.412 368.210 C 525.468 368.210 520.552 367.846 515.722 367.129 C 510.864 366.408 506.104 365.415 501.481 364.168 C 497.308 363.043 493.179 361.783 489.239 360.316 C 483.438 358.156 477.791 355.806 472.329 353.270 C 466.914 350.754 461.405 348.331 455.806 346.009 C 450.299 343.726 444.625 341.631 438.806 339.739 C 433.006 337.854 426.911 336.455 420.629 335.529 C 417.301 335.038 413.740 334.700 410.328 334.833 C 407.173 334.955 404.056 335.399 401.046 336.045 L 399.942 336.283 L 398.328 328.810 L 399.291 328.707 C 402.517 328.360 405.762 328.087 409.016 327.902 C 412.141 327.725 415.282 327.692 418.413 327.807 C 425.111 326.837 431.418 325.055 437.290 322.668 C 443.450 320.165 449.349 317.373 454.914 314.291 C 464.214 309.140 472.813 303.438 480.616 297.243 C 488.465 291.011 496.213 284.719 503.818 278.349 C 507.932 274.904 511.893 271.366 515.794 267.808 C 520.360 263.644 525.079 259.558 529.909 255.535 C 535.011 251.284 540.290 247.132 545.728 243.079 C 550.676 239.392 556.020 235.955 561.765 232.849 C 560.399 232.524 559.042 232.181 557.700 231.816 C 556.093 231.379 554.500 230.907 552.952 230.381 C 547.278 228.691 541.663 226.911 536.107 225.049 C 530.682 223.231 525.030 221.739 519.195 220.656 C 513.603 219.618 507.809 219.174 502.018 219.347 C 495.732 219.536 489.835 221.061 484.481 223.247 C 481.800 224.342 479.457 225.767 477.413 227.372 C 475.272 229.053 473.515 230.921 472.226 232.967 C 470.966 234.968 470.207 237.064 469.955 239.235 C 469.705 241.394 470.157 243.488 471.325 245.505 C 472.254 247.111 473.626 248.530 475.505 249.693 C 477.302 250.804 479.355 251.619 481.666 252.125 C 484.004 252.636 486.413 252.827 488.865 252.715 C 491.352 252.602 493.787 252.263 496.136 251.695 C 497.481 251.300 498.778 250.747 499.971 250.174 C 501.381 249.497 502.685 248.726 503.862 247.868 C 505.002 247.037 505.897 246.094 506.545 245.047 C 507.118 244.121 507.335 243.155 507.013 242.168 L 506.776 241.443 L 507.860 241.356 C 510.512 241.144 513.345 241.272 515.668 242.251 C 517.684 243.100 519.192 244.275 520.213 245.728 C 521.278 247.243 521.745 248.870 521.745 250.544 C 521.745 252.274 521.290 253.956 520.380 255.570 C 519.185 257.867 516.958 259.741 514.209 261.272 C 511.132 262.985 507.620 264.213 503.839 265.032 L 503.830 265.033 L 503.820 265.035 C 499.245 265.958 494.512 266.251 489.799 265.674 C 485.401 265.135 481.256 264.079 477.454 262.477 C 473.649 260.874 470.345 258.844 467.550 256.467 C 464.717 254.057 462.578 251.372 461.125 248.452 C 459.033 244.249 457.965 239.807 458.731 235.375 C 459.423 231.374 461.199 227.583 464.209 224.106 C 467.196 220.657 471.022 217.642 475.510 215.058 C 480.111 212.408 485.218 210.267 490.759 208.651 C 496.312 207.031 502.118 205.946 508.107 205.407 C 513.949 204.881 519.848 204.917 525.642 205.680 C 530.650 206.339 535.522 207.403 540.107 208.932 C 544.530 210.406 548.823 212.057 552.984 213.849 C 557.349 215.729 561.700 217.624 566.037 219.534 C 570.621 221.552 575.499 223.275 580.492 224.776 C 583.475 223.848 586.606 223.078 589.720 222.389 C 593.475 221.557 597.318 220.922 601.219 220.500 C 604.843 220.107 608.553 219.993 612.199 220.320 C 615.314 220.599 618.249 221.398 620.168 223.160 C 622.087 224.923 623.105 226.949 622.701 229.146 C 622.287 231.405 620.391 233.148 617.745 234.484 C 614.340 236.203 609.703 237.060 605.582 237.536 C 599.464 238.242 592.684 237.878 586.558 237.232 C 582.700 239.651 579.105 242.256 575.788 245.021 C 572.562 247.710 569.368 250.417 566.133 253.100 C 558.051 259.803 550.116 266.589 542.416 273.497 C 534.702 280.416 526.699 287.184 518.375 293.768 C 513.588 297.554 508.629 301.243 503.607 304.885 C 498.280 308.748 492.684 312.436 486.842 315.937 C 480.994 319.441 474.763 322.637 468.199 325.496 C 462.590 327.939 456.688 330.046 450.526 331.756 C 458.390 333.320 466.145 335.134 473.768 337.178 C 482.335 339.475 491.016 341.573 499.794 343.465 C 505.517 344.699 511.323 345.740 517.195 346.577"/>
</g>
</svg>