<svg xmlns="http://www.w3.org/2000/svg" width="800mm" height="600mm" viewBox="0 0 800 600" data-corel-split-reference="true">
<title>Corel split reference: 02-001-30-mart-gold-01-split-02</title>
<rect x="0" y="0" width="800" height="600" fill="#ffffff"/>
<g id="corel-reference-paths" fill="none" stroke="#020617" stroke-width="0.22" stroke-linejoin="round" stroke-linecap="round" vector-effect="non-scaling-stroke">
<path id="corel-ref-path-3" d="M 607.833 313.435 C 609.740 313.116 611.565 312.509 613.288 311.719 C 615.936 310.506 618.438 309.079 620.760 307.452 C 623.019 305.867 625.121 304.125 627.010 302.220 C 628.621 300.596 630.163 298.854 631.403 297.007 C 632.115 295.946 633.000 294.469 633.160 293.238 C 633.233 292.683 633.127 292.571 632.470 292.571 C 631.258 292.571 629.493 293.538 628.543 294.108 C 626.313 295.443 624.220 297.091 622.295 298.730 C 619.634 300.995 617.128 303.414 614.725 305.879 C 612.333 308.333 610.042 310.859 607.833 313.435 L 607.833 313.435 Z"/>
<path id="corel-ref-path-4" d="M 657.639 237.421 C 657.331 237.559 656.923 237.815 656.767 237.917 C 655.895 238.488 655.064 239.171 654.287 239.832 C 652.825 241.075 651.455 242.420 650.142 243.776 C 648.389 245.586 646.713 247.456 645.079 249.345 C 640.652 254.463 636.537 259.833 632.575 265.218 C 627.418 272.226 622.640 279.454 618.094 286.761 L 615.846 291.027 C 620.541 285.985 625.157 280.891 629.693 275.745 C 635.107 269.602 640.388 263.347 645.339 256.926 C 647.321 254.357 649.262 251.762 651.120 249.126 C 652.589 247.042 654.015 244.927 655.323 242.767 C 656.081 241.518 656.894 240.106 657.366 238.755 C 657.441 238.543 657.666 237.812 657.639 237.421 L 657.639 237.421 Z"/>
<path id="corel-ref-path-2" d="M 682.378 310.246 C 683.815 307.466 685.244 304.683 686.658 301.895 C 687.789 299.667 688.825 297.344 689.535 294.990 C 689.999 293.456 690.423 291.668 690.342 290.076 C 690.292 289.094 689.891 288.325 688.862 287.838 L 688.840 287.828 L 688.819 287.817 C 687.801 287.275 686.231 288.103 685.415 288.592 C 683.241 289.893 681.260 291.638 679.532 293.347 C 677.143 295.707 675.001 298.280 673.029 300.902 C 670.863 303.782 668.943 306.786 667.236 309.881 C 665.790 312.503 664.440 315.172 663.300 317.902 C 662.308 320.275 661.437 322.711 660.827 325.178 C 660.393 326.932 660.035 328.869 660.116 330.667 C 660.149 331.402 660.313 332.459 661.253 332.759 L 661.327 332.782 L 661.396 332.816 C 662.226 333.219 663.885 332.205 664.485 331.812 C 666.594 330.431 668.504 328.630 670.175 326.877 C 672.493 324.444 674.608 321.850 676.592 319.214 C 678.754 316.338 680.697 313.345 682.378 310.246 L 682.378 310.246 Z"/>
<path id="corel-ref-path-1" d="M 697.397 369.913 C 697.081 370.944 696.697 372.696 697.974 373.379 C 699.239 373.901 700.542 373.587 701.718 373.026 C 703.663 372.100 705.421 370.684 706.904 369.283 C 709.025 367.277 710.924 365.051 712.667 362.798 C 714.199 360.821 715.673 358.809 717.099 356.775 C 712.979 358.598 708.916 360.558 705.043 362.719 C 701.943 364.449 698.665 366.847 697.397 369.913 L 697.397 369.913 Z"/>
</g>
</svg>
