<svg xmlns="http://www.w3.org/2000/svg" width="800mm" height="600mm" viewBox="0 0 800 600" data-corel-split-reference="true">
<title>Corel split reference: 03-021-30-mart-gold-02-split-02</title>
<rect x="0" y="0" width="800" height="600" fill="#ffffff"/>
<g id="corel-reference-paths" fill="none" stroke="#020617" stroke-width="0.22" stroke-linejoin="round" stroke-linecap="round" vector-effect="non-scaling-stroke">
<path id="corel-ref-path-1" d="M 688.248 311.761 C 688.064 312.208 687.847 312.861 687.941 313.329 C 687.988 313.564 688.099 313.696 688.354 313.792 C 689.494 314.219 691.313 313.759 692.407 313.416 C 694.838 312.652 697.240 311.386 699.362 310.127 C 702.296 308.386 704.981 306.321 707.421 304.093 C 710.213 301.545 712.996 298.410 714.276 295.049 C 714.645 294.081 715.059 292.838 715.059 291.812 C 715.059 291.522 715.023 290.945 714.689 290.766 L 714.678 290.760 L 714.665 290.753 C 713.018 289.812 711.067 290.175 709.369 290.821 C 706.623 291.867 704.119 293.537 701.949 295.298 C 699.139 297.580 696.634 300.154 694.375 302.844 C 692.018 305.649 689.941 308.623 688.248 311.761 L 688.248 311.761 Z"/>
</g>
</svg>
