<svg xmlns="http://www.w3.org/2000/svg" width="800mm" height="600mm" viewBox="0 0 800 600" data-corel-split-reference="true">
<title>Corel split reference: 07-032-4-mays-gold-03-split-01</title>
<rect x="0" y="0" width="800" height="600" fill="#ffffff"/>
<g id="corel-reference-paths" fill="none" stroke="#020617" stroke-width="0.22" stroke-linejoin="round" stroke-linecap="round" vector-effect="non-scaling-stroke">
<path id="corel-ref-path-18" d="M 96.480 351.642 C 96.193 352.335 95.904 353.025 95.613 353.714 C 93.546 358.601 91.167 363.332 88.482 367.865 C 85.803 372.389 82.546 376.425 78.743 379.918 C 75.849 382.705 72.476 384.713 68.795 386.065 C 64.968 387.471 61.003 388.308 56.963 388.586 C 52.890 388.866 48.821 388.547 44.830 387.641 C 40.992 386.769 37.269 385.389 33.851 383.319 C 30.259 381.142 27.461 378.024 25.339 374.258 C 23.257 370.560 21.763 366.568 21.074 362.310 L 21.072 362.302 L 21.071 362.294 C 20.000 354.734 20.693 347.285 22.943 340.024 C 25.166 332.854 28.709 326.498 33.681 321.132 C 33.841 313.742 35.023 306.472 37.104 299.421 C 39.115 292.605 41.599 285.946 44.619 279.565 C 49.641 268.955 55.703 258.977 62.749 249.764 C 69.785 240.566 77.870 232.414 86.952 225.542 L 86.959 225.537 L 86.965 225.533 C 90.815 222.744 95.007 220.334 99.179 218.141 C 103.959 215.629 108.981 213.708 114.190 212.498 C 119.126 211.352 124.142 211.134 129.125 212.079 C 134.184 213.039 138.124 215.938 141.133 220.345 C 144.274 224.945 146.152 230.069 146.221 235.779 C 146.289 241.360 145.185 246.771 143.157 251.904 C 140.953 257.480 137.867 262.574 134.213 267.193 C 130.438 271.964 126.225 276.310 121.586 280.122 C 117.202 283.724 112.455 286.793 107.358 289.110 C 103.027 291.078 98.325 292.479 93.586 292.479 C 90.038 292.479 85.883 292.078 82.677 290.327 C 80.418 289.092 78.310 287.373 77.121 284.926 C 76.075 282.770 75.736 280.443 76.077 278.043 C 76.401 275.772 77.148 273.646 78.447 271.801 L 78.842 271.240 L 79.408 271.597 C 82.996 273.862 86.988 274.673 91.130 274.486 C 95.855 274.273 100.460 273.135 104.868 271.334 C 109.632 269.387 114.116 266.793 118.291 263.673 C 122.359 260.633 126.070 257.087 129.202 252.970 C 131.991 249.303 134.168 245.200 135.372 240.642 C 136.472 236.474 136.338 232.352 134.816 228.331 C 133.512 224.891 131.227 222.686 127.845 221.769 C 124.015 220.730 119.978 221.037 116.162 221.980 C 111.395 223.157 106.837 225.243 102.579 227.790 C 98.096 230.472 93.918 233.684 90.215 237.489 L 90.210 237.494 L 90.205 237.499 C 86.537 241.126 83.170 245.083 80.098 249.291 C 77.005 253.527 74.096 257.916 71.408 262.455 C 68.888 266.712 66.547 271.096 64.461 275.612 C 62.649 279.534 60.990 283.543 59.542 287.633 C 58.222 291.358 57.021 295.125 55.970 298.945 C 54.994 302.490 54.185 306.086 53.558 309.719 C 55.599 309.319 57.669 309.149 59.748 309.209 C 62.219 309.280 64.614 309.809 66.897 310.818 C 69.786 312.094 72.315 314.059 73.769 317.074 C 74.986 319.599 75.749 322.298 75.886 325.141 C 75.967 326.839 75.961 329.956 73.973 330.486 C 72.469 330.886 70.486 330.412 69.031 329.962 C 66.645 329.224 64.219 328.596 61.797 328.010 C 59.054 327.346 56.234 327.392 53.473 327.883 C 53.921 330.915 54.827 333.849 56.029 336.636 C 56.844 338.525 57.897 340.306 59.056 341.974 C 60.275 343.727 61.709 345.275 63.363 346.562 C 64.923 347.777 66.646 348.651 68.529 349.119 C 70.504 349.610 72.453 349.149 74.259 348.243 L 74.271 348.237 L 74.283 348.232 C 77.786 346.632 80.891 344.384 83.554 341.480 C 86.277 338.510 88.706 335.255 90.838 331.781 C 93.070 328.144 95.194 324.432 97.218 320.660 C 99.266 316.841 101.440 313.099 103.746 309.450 C 106.027 305.841 108.656 302.510 111.609 299.504 C 114.126 296.942 116.979 294.885 120.104 293.313"/>
<path id="corel-ref-path-7" d="M 80.670 355.668 C 80.148 356.077 79.610 356.462 79.061 356.829 C 75.961 359.299 72.493 360.891 68.648 361.403 C 64.920 361.899 61.248 361.541 57.665 360.339 C 54.064 359.132 50.716 357.314 47.657 354.957 C 44.642 352.633 42.053 349.826 40.016 346.504 C 38.714 344.651 37.671 342.643 36.897 340.497 C 34.974 343.468 33.477 346.702 32.386 350.131 C 31.174 353.940 30.611 357.899 30.872 361.917 L 30.872 361.926 L 30.872 361.936 C 30.994 364.797 31.630 367.534 32.833 370.095 C 34.018 372.620 35.785 374.558 38.074 375.970 C 40.549 377.496 43.269 378.302 46.110 378.554 C 49.103 378.820 52.082 378.523 54.991 377.748 C 61.342 376.057 67.038 372.960 71.620 367.937 C 75.039 364.190 78.044 360.064 80.670 355.668 L 80.670 355.668 Z"/>
<path id="corel-ref-path-17" d="M 299.779 294.287 L 300.658 294.287 L 280.185 341.082 L 280.182 341.087 C 279.243 343.147 278.334 345.240 277.536 347.366 C 277.005 348.777 276.481 350.287 276.163 351.771 C 276.036 352.360 275.874 353.383 276.149 353.952 C 276.348 354.366 276.796 354.433 277.195 354.433 C 280.329 354.433 283.316 350.488 284.939 348.045 C 286.607 345.535 288.107 342.876 289.504 340.187 C 291.253 336.822 292.860 333.364 294.379 329.876 L 294.832 328.839 L 300.380 335.007 L 300.175 335.489 C 298.099 340.354 295.801 345.152 293.171 349.707 C 291.003 353.463 288.572 357.117 285.790 360.389 C 281.353 365.606 275.831 369.430 269.045 369.430 C 264.969 369.430 261.187 368.121 259.270 364.038 C 258.342 362.059 258.066 359.810 258.126 357.620 C 258.169 356.059 258.377 354.477 258.688 352.921 C 255.730 356.838 252.501 360.594 248.959 363.865 C 246.090 366.513 242.156 369.430 238.195 369.430 C 235.681 369.430 233.179 368.862 231.151 367.201 C 229.043 365.473 228.116 362.799 227.767 360.073 C 227.724 359.739 227.692 359.403 227.668 359.066 C 226.398 360.437 225.044 361.724 223.595 362.868 C 220.861 365.030 217.754 366.979 214.453 367.954 C 211.701 368.768 208.903 368.868 206.166 367.950 C 203.367 367.118 201.183 365.043 199.481 362.604 C 197.408 359.635 196.684 355.512 196.485 351.751 C 193.740 355.875 190.500 359.888 186.730 362.868 C 183.996 365.030 180.889 366.979 177.588 367.954 C 174.836 368.768 172.039 368.868 169.302 367.950 C 166.502 367.118 164.318 365.043 162.616 362.604 C 160.697 359.856 159.937 356.124 159.676 352.619 C 157.968 355.340 156.105 357.968 154.046 360.389 C 149.610 365.606 144.087 369.430 137.302 369.430 C 133.225 369.430 129.443 368.121 127.526 364.038 C 126.598 362.059 126.323 359.810 126.382 357.620 C 126.424 356.059 126.633 354.477 126.944 352.921 C 123.986 356.838 120.758 360.594 117.215 363.865 C 114.346 366.513 110.412 369.430 106.452 369.430 C 103.937 369.430 101.435 368.862 99.407 367.201 C 97.299 365.473 96.372 362.799 96.023 360.073 C 95.800 358.323 95.842 356.520 96.021 354.767 C 96.129 353.722 96.286 352.678 96.480 351.642"/>
<path id="corel-ref-path-14" d="M 138.110 294.287 L 141.156 294.287 L 140.444 295.487 C 137.979 299.631 135.591 303.826 133.280 308.068 L 133.275 308.078 L 133.270 308.086 C 131.030 311.963 128.917 315.926 126.888 319.932 C 124.808 324.037 122.748 328.170 120.891 332.397 C 119.435 335.712 118.022 339.068 116.755 342.471 C 115.894 344.784 115.051 347.202 114.469 349.613 C 114.198 350.736 113.828 352.483 113.997 353.644 C 114.059 354.068 114.152 354.433 114.600 354.433 C 115.049 354.433 116.055 353.531 116.370 353.234 C 117.653 352.024 118.859 350.534 119.955 349.133 C 123.364 344.776 126.553 340.176 129.620 335.542 C 133.335 329.930 136.909 324.211 140.370 318.418 C 143.520 313.144 146.602 307.797 149.465 302.340 L 152.553 296.253"/>
<path id="corel-ref-path-12" d="M 120.104 293.313 C 119.732 291.699 119.808 289.991 120.201 288.270 C 120.919 285.138 122.683 282.625 125.012 280.614 C 127.374 278.574 130.076 277.339 133.138 277.339 C 135.830 277.339 138.091 278.391 139.656 280.773 C 141.222 283.155 141.474 285.847 140.835 288.640 C 140.340 290.800 139.411 292.675 138.110 294.287"/>
<path id="corel-ref-path-15" d="M 168.448 295.355 L 148.441 341.082 L 148.439 341.087 C 147.500 343.147 146.590 345.240 145.792 347.366 C 145.262 348.777 144.738 350.287 144.419 351.771 C 144.293 352.360 144.130 353.383 144.405 353.952 C 144.605 354.366 145.053 354.433 145.451 354.433 C 148.585 354.433 151.573 350.488 153.195 348.045 C 154.826 345.592 156.295 342.994 157.666 340.368 C 159.365 337.112 160.928 333.769 162.409 330.396 C 162.564 329.778 162.723 329.162 162.887 328.546 C 164.182 323.659 165.833 318.846 167.633 314.145 C 169.885 308.260 172.406 302.478 175.062 296.787 C 180.354 285.450 186.070 274.293 192.365 263.548 C 195.015 259.026 197.772 254.565 200.685 250.228 C 203.164 246.539 205.762 242.924 208.534 239.478 C 210.820 236.638 213.253 233.882 215.880 231.394 C 217.975 229.410 220.253 227.541 222.703 226.078 C 226.326 223.914 230.534 222.715 234.308 225.162 L 234.314 225.166 L 234.320 225.170 C 238.180 227.786 238.397 233.044 237.855 237.403 C 237.434 240.786 236.452 244.187 235.316 247.370 C 233.808 251.592 231.925 255.708 229.916 259.682 C 227.381 264.696 224.559 269.566 221.611 274.315 C 218.039 280.070 214.252 285.686 210.356 291.198 C 205.794 297.654 200.989 303.921 196.041 310.046 C 190.430 316.992 184.624 323.764 178.696 330.405 C 178.130 332.345 177.606 334.303 177.159 336.278 C 176.788 337.922 176.465 339.589 176.251 341.265 C 175.946 343.653 175.712 346.239 175.868 348.650 C 175.954 349.975 176.159 351.694 176.754 352.883 C 177.005 353.384 177.489 354.250 177.987 354.515 L 178.005 354.525 L 178.023 354.536 C 178.930 355.088 180.592 354.183 181.370 353.709 C 183.470 352.430 185.429 350.586 187.133 348.771 C 189.517 346.231 191.671 343.392 193.656 340.492 C 195.827 337.321 197.696 333.932 199.276 330.387 C 199.430 329.772 199.589 329.159 199.751 328.546 C 201.047 323.659 202.698 318.846 204.498 314.145 C 206.750 308.260 209.271 302.478 211.928 296.787 C 217.220 285.450 222.935 274.293 229.230 263.548 C 231.881 259.026 234.637 254.565 237.550 250.228 C 240.029 246.539 242.627 242.924 245.399 239.478 C 247.685 236.638 250.118 233.882 252.745 231.394 C 254.840 229.410 257.118 227.541 259.568 226.078 C 263.191 223.914 267.399 222.715 271.173 225.162 L 271.179 225.166 L 271.186 225.170 C 275.045 227.786 275.262 233.044 274.720 237.403 C 274.299 240.786 273.317 244.187 272.181 247.370 C 270.673 251.592 268.790 255.708 266.781 259.682 C 264.246 264.696 261.424 269.566 258.476 274.315 C 254.904 280.070 251.117 285.686 247.221 291.198 C 242.659 297.654 237.854 303.921 232.906 310.046 C 227.295 316.992 221.489 323.764 215.561 330.405 C 214.995 332.345 214.470 334.303 214.024 336.278 C 213.653 337.922 213.331 339.589 213.116 341.265 C 212.811 343.653 212.577 346.239 212.733 348.650 C 212.819 349.975 213.024 351.694 213.619 352.883 C 213.869 353.384 214.353 354.250 214.852 354.515 L 214.870 354.525 L 214.888 354.536 C 215.795 355.088 217.457 354.183 218.235 353.709 C 220.335 352.430 222.294 350.586 223.998 348.771 C 226.382 346.231 228.536 343.392 230.521 340.492 C 231.796 338.630 232.969 336.689 234.040 334.687 C 234.486 333.692 234.942 332.702 235.405 331.716 C 236.820 328.702 238.242 325.690 239.698 322.699 C 240.951 320.126 242.229 317.563 243.572 315.042 C 245.638 311.162 247.772 307.324 249.991 303.542 C 251.732 300.574 253.451 297.582 255.236 294.644 L 255.453 294.287 L 256.074 294.287"/>
<path id="corel-ref-path-13" d="M 152.553 296.253 C 152.552 296.252 152.551 296.251 152.551 296.250 C 150.918 293.848 150.817 291.042 151.563 288.253 C 152.298 285.133 154.042 282.624 156.369 280.614 C 158.731 278.574 161.434 277.339 164.495 277.339 C 167.187 277.339 169.448 278.391 171.014 280.773 C 172.579 283.155 172.832 285.847 172.192 288.640 C 171.580 291.312 170.283 293.532 168.448 295.355"/>
<path id="corel-ref-path-6" d="M 227.924 242.678 C 227.621 242.798 227.084 243.226 226.914 243.369 C 226.050 244.092 225.226 244.964 224.460 245.802 C 223.052 247.342 221.727 248.995 220.452 250.660 C 218.745 252.890 217.105 255.185 215.502 257.502 C 211.168 263.768 207.159 270.366 203.312 276.982 C 198.327 285.553 193.802 294.459 189.570 303.475 L 188.100 306.679 C 192.717 300.577 197.225 294.381 201.615 288.092 C 206.670 280.850 211.623 273.507 216.340 266.008 C 218.236 262.995 220.089 259.945 221.852 256.841 C 223.242 254.393 224.587 251.899 225.803 249.348 C 226.263 248.382 226.706 247.399 227.095 246.399 C 227.370 245.694 227.631 244.954 227.807 244.213 C 227.901 243.819 228.000 243.305 227.964 242.896 C 227.960 242.854 227.948 242.755 227.924 242.678 L 227.924 242.678 Z"/>
<path id="corel-ref-path-5" d="M 264.789 242.678 C 264.486 242.798 263.949 243.226 263.779 243.369 C 262.915 244.092 262.090 244.964 261.325 245.802 C 259.917 247.342 258.593 248.995 257.317 250.660 C 255.609 252.890 253.970 255.185 252.367 257.502 C 248.033 263.768 244.024 270.366 240.177 276.982 C 235.192 285.553 230.667 294.459 226.435 303.475 L 224.965 306.679 C 229.582 300.577 234.090 294.381 238.480 288.092 C 243.536 280.850 248.488 273.507 253.205 266.008 C 255.101 262.995 256.954 259.945 258.716 256.841 C 260.107 254.393 261.452 251.899 262.668 249.348 C 263.128 248.382 263.571 247.399 263.960 246.399 C 264.234 245.694 264.496 244.954 264.672 244.213 C 264.766 243.819 264.865 243.305 264.829 242.896 C 264.825 242.854 264.813 242.755 264.789 242.678 L 264.789 242.678 Z"/>
<path id="corel-ref-path-16" d="M 272.164 294.287 L 272.900 294.287 L 272.187 295.487 C 269.723 299.631 267.335 303.826 265.023 308.068 L 265.018 308.078 L 265.013 308.086 C 262.774 311.963 260.661 315.926 258.631 319.932 C 256.552 324.037 254.492 328.170 252.636 332.397 C 251.178 335.712 249.766 339.068 248.499 342.471 C 247.638 344.784 246.795 347.202 246.213 349.613 C 245.942 350.736 245.571 352.483 245.740 353.644 C 245.803 354.068 245.896 354.433 246.345 354.433 C 246.793 354.433 247.799 353.531 248.114 353.234 C 249.397 352.024 250.603 350.534 251.699 349.133 C 255.108 344.776 258.296 340.176 261.364 335.542 C 265.079 329.930 268.652 324.211 272.113 318.418 C 275.264 313.144 278.346 307.797 281.209 302.340 L 285.294 294.287 L 285.760 294.287"/>
<path id="corel-ref-path-10" d="M 256.074 294.287 C 254.877 292.078 254.771 289.584 255.348 287.061 C 256.065 283.930 257.830 281.417 260.158 279.406 C 262.521 277.365 265.223 276.131 268.284 276.131 C 270.976 276.131 273.238 277.182 274.803 279.564 C 276.368 281.947 276.621 284.638 275.982 287.431 C 275.358 290.155 274.044 292.425 272.164 294.287"/>
<path id="corel-ref-path-11" d="M 285.760 294.287 C 285.646 294.143 285.536 293.991 285.429 293.833 C 283.796 291.432 283.695 288.625 284.441 285.836 C 285.176 282.716 286.920 280.208 289.247 278.197 C 291.609 276.157 294.312 274.923 297.373 274.923 C 300.065 274.923 302.327 275.974 303.892 278.356 C 305.457 280.738 305.710 283.430 305.071 286.223 C 304.335 289.437 302.608 291.996 300.147 293.996 C 300.025 294.095 299.902 294.192 299.779 294.287"/>
<path id="corel-ref-path-9" d="M 449.539 349.057 C 447.541 352.842 445.197 356.403 442.545 359.709 C 439.527 363.471 436.153 366.880 432.435 369.850 C 426.933 374.246 420.818 377.662 414.408 380.289 C 407.560 383.094 400.455 385.061 393.202 386.223 C 385.883 387.396 378.487 387.682 371.110 387.056 C 363.965 386.450 356.978 384.800 350.327 381.937 C 343.852 379.151 338.027 375.188 332.929 370.106 C 327.573 364.766 323.793 358.212 321.293 350.891 C 319.251 344.908 318.326 338.635 318.728 332.280 C 319.108 326.271 320.662 320.584 323.691 315.483 C 324.984 313.306 326.625 311.337 328.361 309.552 C 330.222 307.638 332.276 305.956 334.519 304.580 C 336.679 303.255 339.008 302.368 341.478 302.003 C 343.980 301.632 346.401 302.062 348.682 303.206 L 348.690 303.210 L 348.697 303.214 C 350.610 304.233 352.220 305.657 353.513 307.470 C 354.801 309.276 355.557 311.312 355.698 313.575 L 355.700 313.601 L 355.700 313.627 C 355.700 314.883 355.673 316.737 355.268 317.924 C 354.946 318.867 354.342 319.561 353.431 319.853 C 352.581 320.124 351.660 320.114 350.788 319.981 C 349.764 319.825 348.735 319.692 347.707 319.571 L 347.682 319.568 L 347.657 319.563 C 346.054 319.253 344.100 319.907 342.634 320.550 C 340.224 321.607 338.268 323.679 336.735 325.874 C 334.712 328.771 333.441 332.371 332.587 335.837 C 331.518 340.178 331.492 344.637 332.212 349.043 C 333.012 353.945 335.030 358.430 337.715 362.470 C 340.787 367.094 345.062 370.193 349.991 372.217 C 357.181 375.169 364.717 376.314 372.400 375.989 C 380.442 375.649 388.288 374.010 395.850 371.075 C 403.394 368.146 410.413 364.065 416.805 358.889 C 422.855 353.991 428.057 348.126 431.939 341.144 C 433.618 337.841 434.877 334.332 435.747 330.693 C 436.627 327.010 436.983 323.250 436.793 319.456 C 436.607 315.773 435.899 312.177 434.613 308.750 C 433.449 305.649 431.775 302.900 429.564 300.555 C 428.691 301.109 427.788 301.611 426.856 302.045 C 425.828 302.524 424.789 302.975 423.739 303.395 C 422.206 304.137 420.633 304.788 419.041 305.374 C 417.425 305.970 415.794 306.519 414.151 307.026 L 411.542 316.354 L 411.535 316.376 C 409.801 321.413 408.137 326.481 406.495 331.554 C 404.532 337.618 402.040 343.468 399.066 349.046 C 396.176 354.467 392.633 359.432 388.355 363.698 C 384.207 367.837 379.298 370.069 373.611 370.213 L 373.602 370.213 L 373.593 370.213 C 372.151 370.213 370.737 369.945 369.415 369.319 C 367.930 368.616 367.187 367.273 367.042 365.576 L 367.039 365.540 L 367.039 365.505 C 367.039 364.599 367.181 363.712 367.471 362.861 C 367.818 361.847 368.427 360.846 369.025 359.979 C 369.940 358.650 370.839 357.305 371.733 355.960 C 373.140 353.845 374.520 351.708 375.894 349.570 C 379.807 343.178 383.244 336.469 386.217 329.528 C 389.638 321.541 392.845 313.437 395.949 305.304 C 395.074 304.709 394.412 303.815 393.907 302.846 C 393.333 301.744 392.853 300.470 392.845 299.193 C 392.709 297.394 393.006 295.646 393.682 293.991 C 394.378 292.285 395.306 290.708 396.403 289.264 C 397.524 287.788 398.798 286.460 400.216 285.310 C 401.373 284.370 402.585 283.473 403.851 282.704 C 405.402 278.321 407.130 274.012 409.020 269.784 C 410.913 265.549 413.088 261.457 415.577 257.587 C 417.895 253.983 420.538 250.620 423.540 247.640 C 426.100 245.099 428.989 243.065 432.199 241.634 C 428.030 237.640 423.077 235.112 417.572 233.782 C 411.390 232.288 405.175 232.228 398.964 233.579 C 392.679 234.945 386.907 237.658 381.682 241.614 C 376.391 245.621 372.723 250.923 370.600 257.457 C 369.449 260.999 369.484 264.477 371.225 267.773 C 372.883 270.914 375.395 272.659 378.734 273.169 C 381.672 273.543 384.447 273.040 386.992 271.413 C 389.387 269.882 391.121 267.769 392.116 264.985 L 392.334 264.375 L 392.937 264.495 C 394.745 264.856 396.640 265.530 398.041 266.847 C 399.135 267.876 400.035 269.102 400.567 270.560 C 401.060 271.908 401.240 273.311 401.098 274.748 C 400.981 275.936 400.801 277.143 400.492 278.292 L 400.488 278.308 L 400.483 278.324 C 399.869 280.284 398.775 282.071 397.535 283.643 C 396.013 285.574 394.082 287.017 391.950 288.085 C 389.577 289.274 387.038 289.952 384.433 290.222 C 381.513 290.526 378.560 290.176 375.733 289.373 C 372.600 288.483 369.795 286.758 367.306 284.570 C 364.520 282.122 362.483 279.025 361.082 275.488 C 359.107 270.500 358.242 265.234 359.094 259.862 C 359.902 254.777 361.764 250.117 364.554 245.901 C 367.504 241.442 371.130 237.582 375.184 234.261 C 379.417 230.792 383.973 227.823 388.802 225.390 C 393.488 223.029 398.364 221.115 403.390 219.758 C 407.839 218.558 412.469 217.826 417.066 217.978 C 422.806 217.979 428.455 218.915 433.884 220.914 C 438.975 222.789 443.616 225.603 447.536 229.559 C 451.390 233.448 454.102 238.157 455.780 243.521 C 457.678 249.587 457.527 256.100 456.386 262.313 C 455.321 268.112 453.417 273.610 450.572 278.685 C 447.907 283.439 444.660 287.725 440.862 291.492 C 444.746 295.087 448.131 299.200 450.945 303.796 C 453.677 308.258 455.630 313.177 456.201 318.499 L 456.202 318.511 L 456.203 318.522 C 456.391 320.925 456.414 323.323 456.272 325.708"/>
<path id="corel-ref-path-4" d="M 431.466 284.763 C 432.241 283.912 432.978 283.013 433.635 282.059 C 434.196 281.245 434.759 280.402 435.247 279.535 C 436.479 277.349 437.431 274.976 438.187 272.560 C 439.020 269.899 439.553 267.153 439.802 264.362 C 440.053 261.566 440.027 258.742 439.707 255.953 C 439.439 253.610 438.859 251.346 437.909 249.223 C 433.442 252.295 430.190 256.755 427.799 261.792 C 424.961 267.769 422.630 274.014 420.714 280.391 C 424.453 281.312 428.067 282.880 431.466 284.763 L 431.466 284.763 Z"/>
<path id="corel-ref-path-8" d="M 456.272 325.708 C 457.961 322.109 459.756 318.559 461.709 315.115 C 463.487 311.977 465.405 308.908 467.520 306.016 C 470.813 301.515 474.612 297.009 478.913 293.574 C 482.025 291.087 485.640 288.880 489.492 288.059 C 492.424 287.434 495.500 287.417 498.277 288.731 L 498.292 288.739 L 498.307 288.746 C 499.646 289.460 500.809 290.417 501.635 291.691 L 502.182 290.524 L 519.502 290.524 L 499.416 336.495 L 499.025 337.328 C 498.086 339.386 497.178 341.477 496.380 343.603 C 495.850 345.014 495.326 346.523 495.007 348.008 C 494.881 348.597 494.718 349.620 494.993 350.189 C 495.193 350.603 495.641 350.669 496.039 350.669 C 499.173 350.669 502.161 346.725 503.783 344.282 C 505.832 341.199 507.639 337.880 509.303 334.548 L 524.957 299.114 L 516.420 299.114 L 520.215 290.524 L 528.752 290.524 L 544.030 255.914 L 563.710 250.673 L 546.278 290.524 L 559.804 290.524 L 556.484 299.114 L 542.491 299.114 L 525.805 337.318 L 525.802 337.324 C 524.599 339.963 522.689 344.651 523.335 347.660 C 523.686 349.291 524.388 350.669 526.113 350.669 C 527.639 350.669 529.588 349.729 530.919 348.999 C 533.297 347.694 535.528 345.961 537.575 344.134 C 540.148 341.838 542.460 339.180 544.555 336.391 C 545.971 334.505 547.246 332.502 548.382 330.412 C 548.754 329.589 549.132 328.769 549.516 327.953 C 550.931 324.938 552.352 321.927 553.809 318.936 C 555.062 316.362 556.341 313.800 557.683 311.278 C 559.749 307.399 561.883 303.560 564.102 299.778 C 565.844 296.811 567.563 293.819 569.347 290.881 L 569.563 290.524 L 587.011 290.524 L 586.298 291.723 C 583.835 295.868 581.446 300.063 579.134 304.305 L 579.129 304.314 L 579.124 304.322 C 576.885 308.199 574.772 312.163 572.742 316.168 C 570.663 320.273 568.603 324.407 566.747 328.633 C 565.289 331.948 563.877 335.305 562.609 338.708 C 561.748 341.020 560.906 343.439 560.324 345.850 C 560.053 346.973 559.683 348.720 559.852 349.881 C 559.914 350.304 560.007 350.669 560.456 350.669 C 560.903 350.669 561.910 349.767 562.225 349.471 C 563.508 348.260 564.714 346.771 565.810 345.370 C 569.219 341.012 572.407 336.413 575.475 331.779 C 579.190 326.167 582.764 320.448 586.225 314.655 C 589.375 309.381 592.457 304.033 595.320 298.576 L 599.406 290.524 L 614.769 290.524 L 594.296 337.318 L 594.293 337.324 C 593.355 339.383 592.445 341.476 591.647 343.602 C 591.117 345.014 590.593 346.523 590.275 348.008 C 590.148 348.597 589.985 349.620 590.260 350.189 C 590.460 350.603 590.908 350.669 591.305 350.669 C 594.440 350.669 597.427 346.725 599.050 344.282 C 601.575 340.481 603.758 336.302 605.739 332.155 C 606.396 330.691 607.056 329.227 607.716 327.764 C 609.620 323.301 611.560 318.855 613.539 314.428 C 615.280 310.532 617.025 306.638 618.779 302.748 C 620.037 299.956 621.296 297.163 622.563 294.375 C 622.906 293.619 623.249 292.861 623.578 292.097 C 623.687 291.845 623.859 291.483 623.945 291.207 L 623.945 291.117 L 624.025 290.949 C 629.317 279.926 634.951 269.032 641.131 258.544 C 643.723 254.146 646.424 249.814 649.283 245.609 C 651.719 242.026 654.279 238.522 657.013 235.193 C 659.269 232.446 661.662 229.781 664.236 227.369 C 666.284 225.451 668.504 223.638 670.885 222.212 C 674.465 220.066 678.601 218.955 682.302 221.402 C 685.157 223.289 686.072 226.584 686.099 230.006 C 686.117 232.252 685.768 234.553 685.288 236.734 C 684.664 239.569 683.779 242.368 682.794 245.082 C 681.573 248.451 680.113 251.734 678.539 254.929 C 676.662 258.740 674.603 262.456 672.447 266.093 C 669.927 270.342 667.264 274.499 664.516 278.584 C 661.760 282.680 658.916 286.709 656.011 290.687 C 656.684 290.579 657.365 290.524 658.051 290.524 C 659.803 290.524 661.435 291.012 662.851 292.123 C 664.271 293.237 665.199 294.762 665.734 296.544 C 666.356 298.615 666.346 300.861 666.052 302.993 C 665.677 305.710 664.607 308.331 663.345 310.705 C 659.574 317.800 655.854 324.925 652.195 332.085 C 650.966 334.490 649.750 336.904 648.563 339.333 C 647.687 341.127 646.822 342.934 646.004 344.760 C 645.454 345.987 644.912 347.238 644.449 348.505 C 644.221 349.126 643.920 349.961 643.837 350.624 C 643.822 350.747 643.795 351.086 643.878 351.195 C 643.939 351.277 644.190 351.290 644.275 351.290 C 647.475 351.290 650.947 346.985 652.719 344.563 C 655.777 340.382 658.355 335.659 660.613 330.945 C 661.244 329.377 661.921 327.830 662.632 326.302 C 664.402 322.499 666.288 318.748 668.347 315.115 C 670.125 311.977 672.043 308.908 674.158 306.016 C 677.451 301.515 681.251 297.009 685.550 293.574 C 688.663 291.087 692.278 288.880 696.130 288.059 C 699.062 287.434 702.138 287.417 704.915 288.731 L 704.930 288.739 L 704.945 288.746 C 706.284 289.460 707.447 290.417 708.273 291.691 L 708.820 290.524 L 726.140 290.524 L 706.054 336.495 L 705.663 337.328 C 704.725 339.386 703.816 341.477 703.018 343.603 C 702.488 345.014 701.963 346.523 701.645 348.008 C 701.519 348.597 701.356 349.620 701.631 350.189 C 701.831 350.603 702.279 350.669 702.677 350.669 C 705.811 350.669 708.798 346.725 710.421 344.282 C 712.380 341.333 714.117 338.170 715.720 334.988 L 735.586 290.524 L 752.928 290.524 L 746.259 305.393 C 747.502 303.996 748.781 302.635 750.102 301.326 C 752.255 299.190 754.542 297.170 756.981 295.412 C 760.517 292.864 764.860 290.524 769.228 290.524 C 770.980 290.524 772.612 291.012 774.028 292.123 C 775.448 293.237 776.376 294.762 776.911 296.544 C 777.533 298.615 777.523 300.861 777.229 302.993 C 776.854 305.710 775.784 308.331 774.522 310.705 C 770.742 317.817 767.004 324.952 763.271 332.092 C 762.016 334.494 760.774 336.906 759.568 339.337 C 758.680 341.127 757.806 342.932 756.987 344.760 C 756.441 345.978 755.903 347.229 755.459 348.494 C 755.254 349.081 754.961 349.944 754.922 350.572 C 754.913 350.728 754.907 351.085 755.000 351.221 C 755.044 351.286 755.195 351.290 755.257 351.290 C 758.464 351.290 762.003 346.972 763.802 344.557 C 765.699 342.015 767.390 339.280 768.935 336.483 C 770.790 333.127 772.456 329.644 773.995 326.113 L 774.447 325.075 L 780.000 331.248 L 779.787 331.733 C 777.655 336.592 775.316 341.384 772.665 345.945 C 770.489 349.688 768.068 353.337 765.312 356.621 C 760.861 361.924 755.323 365.666 748.467 365.666 C 745.774 365.666 743.054 365.068 740.922 363.217 C 738.622 361.220 738.075 357.946 738.129 354.949 C 738.168 352.799 738.588 350.595 739.126 348.529 C 739.839 345.791 740.813 343.097 741.877 340.495 C 743.257 337.118 744.883 333.827 746.592 330.628 C 748.750 326.592 751.078 322.650 753.482 318.777 L 753.486 318.771 L 753.489 318.765 C 754.758 316.800 755.988 314.796 757.124 312.740 C 758.000 311.155 758.836 309.517 759.535 307.834 C 759.844 307.089 760.377 305.703 760.322 304.871 C 760.301 304.539 760.227 304.487 759.914 304.487 C 758.536 304.487 755.628 307.359 754.696 308.302 C 753.237 309.781 751.853 311.351 750.520 312.956 C 748.901 314.905 747.350 316.920 745.842 318.966 C 742.164 323.959 738.750 329.199 735.499 334.515 C 731.875 340.444 728.525 346.559 725.452 352.832 L 720.021 365.046 L 702.292 365.046 L 702.981 363.503 C 700.288 364.913 697.404 365.666 694.334 365.666 C 688.434 365.666 684.798 362.768 683.729 356.968 C 680.499 360.125 676.844 362.905 672.784 364.678 C 668.804 366.415 664.851 366.317 661.159 363.897 L 661.150 363.892 L 661.142 363.885 C 657.917 361.640 656.643 357.822 656.261 353.930 C 655.576 354.848 654.868 355.748 654.135 356.621 C 649.738 361.860 644.253 365.666 637.484 365.666 C 634.758 365.666 632.035 365.053 629.852 363.226 C 627.480 361.241 626.940 357.972 627.050 354.934 C 627.127 352.787 627.557 350.595 628.094 348.529 C 628.806 345.797 629.757 343.110 630.794 340.502 C 632.138 337.120 633.744 333.826 635.438 330.630 C 637.580 326.590 639.903 322.647 642.305 318.777 L 642.309 318.771 L 642.312 318.765 C 643.581 316.800 644.811 314.796 645.947 312.740 C 646.823 311.155 647.659 309.517 648.358 307.834 C 648.667 307.089 649.200 305.703 649.145 304.871 C 649.124 304.539 649.050 304.487 648.737 304.487 C 647.187 304.487 644.263 307.433 643.235 308.502 C 641.736 310.061 640.310 311.709 638.934 313.391 C 637.260 315.437 635.651 317.547 634.085 319.688 C 630.291 324.873 626.780 330.320 623.452 335.854 C 619.738 342.031 616.293 348.391 613.112 354.897 L 608.652 365.046 L 591.121 365.046 L 591.612 363.933 C 591.687 363.762 591.762 363.591 591.838 363.421 C 589.141 364.870 586.246 365.666 583.157 365.666 C 579.080 365.666 575.299 364.358 573.381 360.274 C 572.453 358.296 572.178 356.046 572.237 353.856 C 572.279 352.296 572.488 350.714 572.799 349.157 C 569.841 353.074 566.613 356.830 563.070 360.102 C 560.201 362.750 556.267 365.666 552.306 365.666 C 549.792 365.666 547.290 365.099 545.262 363.437 C 543.154 361.709 542.227 359.035 541.878 356.310 C 541.750 355.307 541.709 354.286 541.732 353.268 C 540.570 354.436 539.364 355.554 538.113 356.610 C 534.918 359.307 531.427 361.665 527.655 363.333 C 524.532 364.714 521.170 365.666 517.770 365.666 C 515.205 365.666 512.740 365.078 510.513 363.701 C 508.343 362.358 506.793 360.419 505.838 357.949 C 505.571 357.257 505.363 356.542 505.205 355.814 C 504.986 356.085 504.765 356.354 504.541 356.621 C 500.090 361.924 494.552 365.666 487.696 365.666 C 481.796 365.666 478.160 362.768 477.091 356.968 C 473.861 360.125 470.206 362.905 466.146 364.678 C 462.165 366.415 458.214 366.317 454.521 363.897 L 454.512 363.892 L 454.504 363.885 C 450.078 360.803 449.317 354.737 449.516 349.558 C 449.522 349.391 449.530 349.224 449.539 349.057"/>
<path id="corel-ref-path-3" d="M 488.579 323.847 C 489.913 320.617 491.239 317.383 492.552 314.144 C 493.605 311.547 494.569 308.838 495.232 306.095 C 495.667 304.292 496.061 302.200 495.985 300.330 C 495.936 299.122 495.529 298.167 494.518 297.569 L 494.502 297.559 L 494.486 297.548 C 493.457 296.863 491.960 297.829 491.125 298.455 C 489.095 299.977 487.247 302.012 485.632 304.009 C 483.409 306.758 481.417 309.755 479.582 312.808 C 477.569 316.160 475.782 319.658 474.196 323.260 C 472.851 326.311 471.597 329.417 470.536 332.594 C 469.613 335.359 468.803 338.197 468.235 341.070 C 467.828 343.125 467.494 345.388 467.570 347.493 C 467.605 348.443 467.788 349.717 468.745 350.099 L 468.800 350.121 L 468.851 350.153 C 469.719 350.681 471.282 349.494 471.920 348.971 C 473.889 347.358 475.671 345.257 477.231 343.208 C 479.386 340.376 481.354 337.357 483.197 334.288 C 485.209 330.941 487.015 327.456 488.579 323.847 L 488.579 323.847 Z"/>
</g>
</svg>
