<svg xmlns="http://www.w3.org/2000/svg" width="800mm" height="600mm" viewBox="0 0 800 600" data-corel-split-reference="true">
<title>Corel split reference: 07-032-4-mays-gold-03-split-02</title>
<rect x="0" y="0" width="800" height="600" fill="#ffffff"/>
<g id="corel-reference-paths" fill="none" stroke="#020617" stroke-width="0.22" stroke-linejoin="round" stroke-linecap="round" vector-effect="non-scaling-stroke">
<path id="corel-ref-path-2" d="M 675.910 238.904 C 675.620 239.006 675.092 239.410 674.925 239.545 C 674.085 240.220 673.282 241.048 672.539 241.840 C 671.179 243.288 669.904 244.854 668.682 246.435 C 667.053 248.540 665.495 250.715 663.977 252.911 C 659.866 258.860 656.046 265.102 652.366 271.361 C 647.595 279.478 643.226 287.889 639.113 296.403 L 636.356 302.710 C 641.054 296.511 645.634 290.212 650.089 283.813 C 655.067 276.658 659.932 269.387 664.519 261.940 C 666.360 258.954 668.162 255.936 669.888 252.874 C 671.253 250.450 672.578 247.988 673.794 245.476 C 674.254 244.526 674.696 243.559 675.085 242.573 C 675.360 241.880 675.621 241.151 675.797 240.421 C 675.890 240.034 675.989 239.528 675.953 239.127 C 675.949 239.082 675.936 238.979 675.910 238.904 L 675.910 238.904 Z"/>
<path id="corel-ref-path-1" d="M 695.217 323.847 C 696.551 320.617 697.877 317.383 699.190 314.144 C 700.243 311.547 701.207 308.838 701.870 306.095 C 702.305 304.292 702.699 302.200 702.623 300.330 C 702.573 299.122 702.167 298.167 701.156 297.569 L 701.140 297.559 L 701.124 297.548 C 700.095 296.863 698.598 297.829 697.763 298.455 C 695.733 299.977 693.884 302.012 692.270 304.009 C 690.048 306.758 688.055 309.755 686.220 312.808 C 684.206 316.160 682.421 319.658 680.834 323.260 C 679.489 326.311 678.234 329.417 677.174 332.594 C 676.251 335.359 675.440 338.197 674.872 341.070 C 674.467 343.125 674.132 345.388 674.208 347.493 C 674.243 348.443 674.426 349.717 675.382 350.099 L 675.438 350.121 L 675.489 350.153 C 676.357 350.681 677.920 349.494 678.558 348.971 C 680.527 347.358 682.309 345.257 683.869 343.208 C 686.024 340.376 687.991 337.357 689.835 334.288 C 691.846 330.941 693.653 327.456 695.217 323.847 L 695.217 323.847 Z"/>
</g>
</svg>
