<svg xmlns="http://www.w3.org/2000/svg" width="800mm" height="600mm" viewBox="0 0 800 600" data-corel-split-reference="true">
<title>Corel split reference: 08-028-02-gold-cyzella-split-02</title>
<rect x="0" y="0" width="800" height="600" fill="#ffffff"/>
<g id="corel-reference-paths" fill="none" stroke="#020617" stroke-width="0.22" stroke-linejoin="round" stroke-linecap="round" vector-effect="non-scaling-stroke">
<path id="corel-ref-path-6" d="M 398.142 254.478 C 397.895 253.688 397.938 252.842 398.201 251.987 C 398.580 250.532 399.475 249.361 400.670 248.423 C 401.886 247.469 403.277 246.893 404.852 246.893 C 406.249 246.893 407.424 247.392 408.236 248.514 C 409.046 249.634 409.187 250.902 408.848 252.215 C 408.496 253.575 407.694 254.676 406.604 255.562"/>
<path id="corel-ref-path-23" d="M 490.716 360.032 C 490.086 363.227 488.677 366.112 486.704 368.696 C 484.503 371.579 481.790 373.981 478.767 375.969 C 475.646 378.021 472.244 379.496 468.594 380.287 C 464.985 381.068 461.363 381.044 457.758 380.238 C 453.918 379.380 450.697 377.340 447.987 374.518 C 446.041 372.491 444.665 370.125 444.055 367.373 C 443.468 364.725 443.392 362.046 443.811 359.366 C 444.239 356.627 445.084 353.995 446.284 351.498 C 447.448 349.073 448.891 346.798 450.643 344.756 C 453.176 341.802 456.142 339.312 459.607 337.527 C 462.646 335.960 465.874 334.933 469.238 334.422 C 468.508 333.778 467.884 333.026 467.355 332.197 C 466.559 330.950 466.064 329.567 465.811 328.112 C 465.526 326.467 465.590 324.777 465.858 323.134 C 466.177 321.182 466.920 319.319 467.864 317.589 C 468.811 315.856 470.080 314.293 471.472 312.899 C 473.059 311.309 474.818 309.906 476.699 308.681 C 478.647 307.413 480.722 306.362 482.892 305.531 C 484.988 304.729 487.173 304.191 489.414 304.021 C 491.552 303.859 493.644 304.130 495.661 304.859 C 497.773 305.622 499.481 306.983 500.871 308.730 C 502.758 311.102 503.811 313.795 503.975 316.826 C 504.136 319.792 503.671 322.679 502.559 325.432 C 501.437 328.207 499.738 330.602 497.530 332.622 C 495.299 334.662 492.692 335.916 489.698 336.321 C 487.465 336.622 484.875 336.539 483.128 334.913 C 482.403 334.239 481.908 333.420 481.662 332.460 C 481.396 331.422 481.448 330.328 481.656 329.284 L 481.736 328.883 L 482.143 328.924 C 483.520 329.061 484.947 328.831 486.272 328.460 C 487.857 328.015 489.370 327.365 490.798 326.544 C 492.284 325.689 493.658 324.664 494.915 323.497 C 496.089 322.407 497.121 321.162 497.878 319.744 C 498.571 318.446 498.905 317.041 498.875 315.569 C 498.842 313.953 498.219 312.487 497.289 311.187 C 496.255 309.742 494.877 308.547 493.041 308.411 C 491.236 308.277 489.513 308.829 487.947 309.694 C 485.977 310.783 484.220 312.249 482.661 313.866 C 480.957 315.636 479.404 317.546 478.035 319.588 C 476.774 321.467 475.670 323.465 474.835 325.572 C 474.281 326.969 473.693 328.779 473.768 330.301 C 473.828 331.134 474.068 331.913 474.475 332.641 C 474.846 333.305 475.385 333.714 476.116 333.888 C 477.380 333.777 478.679 333.779 479.932 333.994 C 481.378 334.242 481.923 335.284 481.784 336.683 L 481.782 336.697 L 481.780 336.712 C 481.692 337.240 481.403 337.701 481.047 338.090 C 480.470 338.721 479.479 338.720 478.698 338.615 C 476.303 338.292 473.937 338.578 471.642 339.314 C 469.149 340.114 466.833 341.314 464.704 342.836 C 462.442 344.454 460.421 346.368 458.631 348.495 C 456.829 350.636 455.299 352.981 454.113 355.518 C 452.993 357.912 452.246 360.439 451.958 363.070 C 451.688 365.540 451.942 367.990 452.837 370.315 C 453.549 372.164 454.732 373.611 456.559 374.413 C 458.362 375.205 460.269 375.534 462.233 375.475 C 464.343 375.411 466.407 375.000 468.397 374.304 C 470.170 373.686 471.990 372.900 473.538 371.827 C 476.240 369.953 478.398 367.559 480.038 364.708 C 481.623 361.952 482.379 358.976 482.127 355.802 C 481.994 354.756 481.504 353.803 480.879 352.968 C 480.277 352.165 479.530 351.377 478.640 350.896 L 478.197 350.657 L 478.482 350.243 C 479.166 349.247 480.039 348.418 481.155 347.933 C 482.123 347.514 483.144 347.312 484.197 347.420 C 485.206 347.525 486.147 347.861 487.012 348.393 C 487.925 348.957 488.648 349.721 489.173 350.661 C 490.081 352.286 490.660 353.981 490.882 355.734"/>
<path id="corel-ref-path-22" d="M 490.882 355.734 L 495.975 345.081 C 495.485 343.966 495.241 342.782 495.211 341.560 C 495.174 340.101 495.632 338.739 496.372 337.494 C 497.113 336.247 498.153 335.132 499.632 334.844 C 500.775 334.622 501.902 334.739 502.852 335.452 C 503.787 336.154 504.206 337.168 504.272 338.321 C 504.311 339.010 504.128 339.672 503.818 340.283 C 503.449 341.014 502.903 341.674 502.327 342.251 C 502.069 342.509 501.657 342.967 501.594 343.344 C 501.558 343.561 501.580 343.759 501.728 343.928 C 501.936 344.167 502.215 344.350 502.496 344.491 C 502.829 344.657 503.167 344.815 503.512 344.953 L 503.525 344.959 L 503.538 344.965 C 504.870 345.600 505.935 346.550 506.526 347.918 C 507.086 349.214 507.052 350.517 506.424 351.781 L 501.462 362.676 L 501.460 362.681 C 500.999 363.631 500.552 364.597 500.160 365.579 C 499.902 366.227 499.645 366.921 499.489 367.603 C 499.433 367.848 499.352 368.312 499.475 368.550 C 499.555 368.706 499.753 368.723 499.909 368.723 C 501.412 368.723 502.868 366.906 503.645 365.807 C 504.369 364.782 505.027 363.704 505.645 362.611 C 506.401 361.273 507.101 359.899 507.765 358.513 C 507.986 357.980 508.223 357.453 508.474 356.934 L 508.476 356.930 L 508.478 356.926 C 510.141 353.649 512.124 350.374 514.554 347.607 C 516.390 345.518 518.493 343.506 520.858 342.026 C 522.643 340.909 524.658 339.969 526.759 339.668 C 528.324 339.444 530.005 339.458 531.484 340.081 L 531.489 340.084 L 531.495 340.086 C 532.331 340.467 532.957 341.106 533.416 341.895 C 533.918 342.756 534.206 343.707 534.333 344.693 C 534.472 345.776 534.457 346.874 534.334 347.957 C 534.196 349.161 533.885 350.335 533.447 351.463 L 533.441 351.478 L 533.435 351.492 C 532.973 352.473 532.428 353.446 531.759 354.302 C 531.238 354.969 530.638 355.613 529.950 356.110 C 529.402 356.507 528.795 356.846 528.143 357.038 C 527.703 357.168 527.189 357.295 526.728 357.295 C 525.509 357.295 524.466 356.863 523.739 355.867 C 523.007 354.864 522.920 353.700 523.238 352.520 C 523.595 351.198 524.322 350.114 525.400 349.271 C 526.462 348.440 527.668 347.980 529.018 347.980 C 529.310 347.980 529.639 348.037 529.946 348.106 C 530.315 347.430 530.469 346.708 530.339 345.925 C 530.248 345.378 530.046 344.637 529.543 344.322 L 529.537 344.318 L 529.531 344.315 C 528.785 343.816 527.923 343.997 527.154 344.349 C 525.915 344.917 524.776 345.819 523.793 346.752 C 522.495 347.983 521.328 349.365 520.266 350.803 C 519.156 352.306 518.194 353.909 517.401 355.602 C 516.752 356.986 516.180 358.414 515.756 359.885 C 515.394 361.138 515.126 362.445 515.057 363.750 C 515.004 364.766 515.082 365.814 515.415 366.781 C 515.681 367.554 516.150 368.134 516.895 368.478 L 516.902 368.481 L 516.908 368.484 C 517.961 369.012 519.156 368.939 520.265 368.643 C 521.805 368.231 523.255 367.457 524.563 366.556 C 526.218 365.417 527.733 364.049 529.122 362.601 C 530.640 361.019 532.049 359.334 533.353 357.571 C 533.364 357.549 533.375 357.526 533.386 357.503 C 534.993 354.258 536.838 350.969 539.065 348.106 C 540.690 346.018 542.565 343.929 544.686 342.335 C 546.228 341.176 548.018 340.150 549.927 339.768 C 551.388 339.475 552.919 339.469 554.302 340.085 L 554.311 340.089 L 554.321 340.094 C 554.947 340.407 555.496 340.821 555.903 341.362 L 556.131 340.906 L 564.847 340.906 L 554.907 362.297 L 554.714 362.683 C 554.253 363.633 553.808 364.598 553.416 365.579 C 553.157 366.227 552.901 366.921 552.745 367.603 C 552.689 367.848 552.608 368.312 552.731 368.550 C 552.810 368.706 553.008 368.723 553.165 368.723 C 554.667 368.723 556.124 366.906 556.900 365.807 C 557.862 364.447 558.714 362.988 559.500 361.521 L 569.296 340.906 L 578.026 340.906 L 574.929 347.398 C 576.436 345.840 578.073 344.370 579.826 343.182 C 581.582 341.993 583.733 340.906 585.900 340.906 C 586.782 340.906 587.604 341.138 588.316 341.663 C 589.029 342.190 589.497 342.911 589.766 343.753 C 590.076 344.724 590.072 345.777 589.926 346.777 C 589.739 348.045 589.210 349.266 588.584 350.375 C 586.724 353.664 584.886 356.964 583.050 360.266 C 582.432 361.376 581.822 362.491 581.229 363.615 C 580.793 364.441 580.363 365.275 579.961 366.119 C 579.693 366.680 579.430 367.257 579.213 367.839 C 579.116 368.101 578.972 368.495 578.954 368.775 C 578.951 368.821 578.948 368.951 578.970 369.005 C 578.988 369.009 579.015 369.010 579.029 369.010 C 580.568 369.010 582.299 367.019 583.162 365.931 C 584.092 364.758 584.921 363.496 585.679 362.207 C 586.590 360.657 587.408 359.049 588.164 357.418 L 588.442 356.819 L 591.307 359.813 L 591.176 360.094 C 590.126 362.344 588.974 364.564 587.668 366.676 C 586.595 368.412 585.401 370.104 584.042 371.627 C 581.835 374.099 579.087 375.840 575.688 375.840 C 574.342 375.840 572.986 375.557 571.920 374.687 C 570.766 373.745 570.486 372.207 570.513 370.791 C 570.555 368.604 571.502 366.056 572.364 364.072 C 573.044 362.507 573.845 360.982 574.688 359.500 C 575.750 357.632 576.896 355.807 578.080 354.013 L 578.082 354.010 L 578.084 354.007 C 578.707 353.100 579.311 352.174 579.869 351.225 C 580.298 350.496 580.708 349.741 581.050 348.966 C 581.193 348.643 581.344 348.266 581.408 347.917 C 581.420 347.849 581.450 347.630 581.416 347.556 C 581.391 347.547 581.340 347.545 581.320 347.545 C 580.681 347.545 579.247 348.872 578.815 349.284 C 577.245 350.780 575.805 352.501 574.469 354.207 C 572.661 356.514 570.982 358.935 569.386 361.392 C 567.604 364.131 565.958 366.956 564.448 369.854 L 561.753 375.553 L 552.832 375.553 L 553.123 374.940 C 551.853 375.527 550.498 375.840 549.061 375.840 C 546.172 375.840 544.361 374.522 543.788 371.900 C 542.220 373.324 540.453 374.572 538.495 375.376 C 536.510 376.191 534.536 376.143 532.695 375.008 L 532.690 375.005 L 532.685 375.002 C 530.478 373.557 530.091 370.726 530.190 368.296 C 530.193 368.232 530.196 368.167 530.199 368.103 C 530.185 368.118 530.170 368.134 530.155 368.149 C 528.090 370.305 525.791 372.301 523.241 373.862 C 521.111 375.166 518.775 376.137 516.287 376.458 C 513.948 376.759 511.778 376.264 509.785 375.006 C 508.665 374.299 507.811 373.330 507.193 372.158 C 506.685 371.194 506.368 370.149 506.188 369.079 C 505.554 369.962 504.881 370.817 504.158 371.627 C 501.978 374.069 499.257 375.840 495.900 375.840 C 483.093 375.840 500.428 355.221 499.029 349.361 C 499.011 348.987 498.890 348.662 498.692 348.376 L 492.408 361.727 L 490.716 360.032"/>
<path id="corel-ref-path-19" d="M 549.413 356.371 C 550.069 354.878 550.721 353.383 551.367 351.885 C 551.883 350.688 552.356 349.440 552.680 348.176 C 552.892 347.351 553.085 346.391 553.048 345.536 C 553.025 345.009 552.842 344.595 552.373 344.333 L 552.363 344.328 L 552.353 344.322 C 551.888 344.031 551.172 344.476 550.800 344.738 C 549.807 345.437 548.903 346.375 548.114 347.292 C 547.023 348.561 546.046 349.943 545.146 351.352 C 544.157 352.899 543.281 354.513 542.501 356.175 C 541.842 357.584 541.226 359.017 540.705 360.484 C 540.252 361.759 539.855 363.068 539.576 364.393 C 539.378 365.335 539.214 366.376 539.251 367.341 C 539.266 367.737 539.342 368.304 539.770 368.465 L 539.804 368.478 L 539.836 368.496 C 540.215 368.713 540.972 368.168 541.246 367.957 C 542.208 367.215 543.080 366.248 543.843 365.306 C 544.901 363.999 545.867 362.605 546.772 361.188 C 547.759 359.644 548.646 358.036 549.413 356.371 L 549.413 356.371 Z"/>
<path id="corel-ref-path-21" d="M 728.282 338.479 L 718.671 359.134 L 718.669 359.138 C 718.206 360.091 717.758 361.058 717.356 362.039 C 717.089 362.694 716.824 363.385 716.648 364.071 C 716.588 364.307 716.495 364.768 716.619 364.998 C 716.709 365.162 716.955 365.180 717.118 365.180 C 718.621 365.180 720.077 363.363 720.854 362.264 C 721.578 361.239 722.237 360.160 722.854 359.068 C 723.610 357.729 724.310 356.356 724.974 354.969 C 725.195 354.436 725.433 353.910 725.684 353.390 L 725.685 353.386 L 725.687 353.382 C 727.351 350.106 729.333 346.831 731.764 344.064 C 733.599 341.975 735.702 339.963 738.067 338.483 C 739.852 337.365 741.868 336.425 743.969 336.125 C 745.533 335.901 747.215 335.915 748.693 336.538 L 748.699 336.540 L 748.705 336.543 C 749.540 336.923 750.166 337.563 750.625 338.352 C 751.127 339.213 751.415 340.164 751.542 341.150 C 751.681 342.233 751.666 343.331 751.543 344.414 C 751.406 345.617 751.094 346.792 750.656 347.920 L 750.651 347.934 L 750.644 347.948 C 750.183 348.930 749.638 349.903 748.969 350.759 C 748.447 351.426 747.848 352.069 747.159 352.567 C 746.611 352.964 746.004 353.303 745.353 353.495 C 744.912 353.624 744.398 353.752 743.937 353.752 C 742.719 353.752 741.675 353.320 740.948 352.324 C 740.216 351.321 740.129 350.156 740.447 348.976 C 740.804 347.654 741.531 346.571 742.609 345.727 C 743.671 344.896 744.877 344.437 746.227 344.437 C 746.519 344.437 746.848 344.494 747.155 344.563 C 747.525 343.887 747.679 343.165 747.548 342.381 C 747.457 341.835 747.255 341.094 746.752 340.778 L 746.746 340.775 L 746.741 340.771 C 745.995 340.273 745.132 340.454 744.363 340.806 C 743.124 341.373 741.985 342.276 741.002 343.209 C 739.704 344.440 738.538 345.822 737.475 347.260 C 736.365 348.762 735.403 350.366 734.610 352.058 C 733.961 353.443 733.389 354.871 732.965 356.341 C 732.603 357.595 732.335 358.902 732.266 360.207 C 732.213 361.222 732.291 362.271 732.624 363.238 C 732.890 364.011 733.360 364.591 734.104 364.935 L 734.111 364.938 L 734.117 364.941 C 735.170 365.468 736.366 365.396 737.474 365.100 C 739.014 364.688 740.464 363.914 741.773 363.013 C 743.427 361.874 744.942 360.506 746.332 359.057 C 747.866 357.458 749.288 355.754 750.604 353.971 C 750.694 353.776 750.786 353.582 750.881 353.389 C 752.501 350.070 754.467 346.794 756.912 344.016 C 758.762 341.916 760.883 339.877 763.263 338.388 C 765.049 337.270 767.064 336.330 769.165 336.029 C 770.713 335.808 772.393 335.836 773.820 336.550 L 773.826 336.553 L 773.831 336.556 C 774.881 337.116 775.685 337.939 776.257 338.984 C 776.864 340.093 777.156 341.313 777.219 342.572 C 777.291 344.020 777.063 345.479 776.678 346.873 C 776.223 348.521 775.435 350.051 774.467 351.454 C 773.156 353.355 771.599 355.110 769.734 356.484 C 768.212 357.606 766.504 358.564 764.665 359.043 C 763.207 359.423 761.648 359.550 760.183 359.136 C 759.188 358.855 758.379 358.335 757.770 357.579 C 757.447 359.026 757.270 360.543 757.413 362.003 C 757.542 363.315 758.063 364.377 759.297 364.933 L 759.305 364.937 L 759.314 364.941 C 760.432 365.501 761.842 365.393 763.027 365.142 C 764.774 364.772 766.425 364.025 767.944 363.095 C 769.743 361.994 771.381 360.638 772.871 359.147 C 774.442 357.572 775.781 355.800 776.850 353.848 L 777.146 353.308 L 780.000 356.291 L 779.832 356.584 C 778.146 359.523 776.126 362.244 773.749 364.658 C 771.588 366.852 769.176 368.810 766.491 370.327 C 764.163 371.642 761.640 372.599 758.974 372.915 C 756.548 373.203 754.262 372.770 752.191 371.462 C 751.071 370.755 750.216 369.786 749.598 368.615 C 748.908 367.305 748.570 365.847 748.450 364.378 C 748.426 364.081 748.411 363.784 748.405 363.486 C 748.063 363.865 747.717 364.238 747.364 364.606 C 745.299 366.762 743.000 368.758 740.450 370.319 C 738.320 371.622 735.985 372.594 733.496 372.914 C 731.158 373.215 728.987 372.721 726.994 371.462 C 725.874 370.755 725.020 369.786 724.402 368.615 C 723.894 367.650 723.577 366.606 723.397 365.535 C 722.763 366.419 722.090 367.274 721.367 368.083 C 719.187 370.526 716.466 372.297 713.110 372.297 C 710.506 372.297 708.487 371.267 707.806 368.612 C 707.668 368.077 707.606 367.524 707.599 366.970 C 707.171 367.356 706.731 367.730 706.279 368.089 C 704.702 369.341 702.977 370.436 701.114 371.211 C 699.566 371.854 697.901 372.297 696.217 372.297 C 694.939 372.297 693.712 372.021 692.602 371.375 C 691.517 370.745 690.742 369.832 690.264 368.671 C 690.153 368.401 690.063 368.124 689.990 367.841 C 689.919 367.922 689.848 368.003 689.777 368.083 C 687.570 370.556 684.823 372.297 681.423 372.297 C 678.535 372.297 676.724 370.978 676.151 368.357 C 674.583 369.780 672.816 371.029 670.857 371.833 C 668.873 372.648 666.899 372.600 665.058 371.465 L 665.053 371.462 L 665.047 371.458 C 662.841 370.013 662.454 367.183 662.553 364.753 C 662.685 361.520 663.770 358.246 665.116 355.291 C 664.417 355.438 663.710 355.546 662.999 355.614 C 660.723 355.833 658.431 355.881 656.147 355.775 C 655.248 358.080 654.448 360.423 653.749 362.796 C 653.106 364.981 652.656 367.274 652.622 369.558 C 652.594 371.363 652.895 373.184 653.760 374.785 C 654.616 376.367 656.135 377.157 657.848 377.521 L 658.205 377.597 L 658.205 377.963 C 658.205 379.185 657.602 380.085 656.535 380.656 C 655.415 381.254 654.189 381.354 652.951 381.132 C 651.467 380.865 650.111 380.099 648.935 379.179 C 647.404 377.982 646.414 376.294 645.780 374.480 C 644.641 371.220 644.297 367.828 644.612 364.396 C 644.917 361.060 645.604 357.787 646.659 354.611 C 645.419 354.397 644.178 354.188 642.936 353.985 C 641.666 353.778 640.390 353.614 639.109 353.491 C 638.848 353.968 638.596 354.450 638.354 354.936 C 638.062 355.521 637.757 356.099 637.440 356.670 C 636.353 358.720 635.203 360.735 633.992 362.713 C 632.776 364.701 631.443 366.615 630.001 368.445 C 628.563 370.269 627.003 371.994 625.331 373.605 C 623.628 375.244 621.749 376.678 619.711 377.874 C 617.852 378.966 615.798 379.784 613.752 380.448 C 611.497 381.180 609.167 381.584 606.795 381.617 C 604.509 381.649 602.272 381.240 600.169 380.338 C 597.951 379.386 596.348 377.716 595.224 375.594 C 594.095 373.462 593.503 371.168 593.406 368.756 C 593.308 366.296 593.611 363.863 594.282 361.494 C 594.972 359.058 596.026 356.763 597.390 354.634 C 598.732 352.541 600.361 350.670 602.309 349.123 C 604.171 347.644 606.246 346.535 608.519 345.842 C 610.836 345.136 613.203 345.082 615.569 345.594 L 615.574 345.595 L 615.577 345.596 C 616.857 345.897 617.990 346.603 618.969 347.464 C 619.612 348.030 620.160 348.686 620.510 349.443 C 620.905 348.638 621.420 347.900 622.087 347.281 C 622.993 346.441 624.040 345.832 625.217 345.461 C 626.459 345.070 627.765 344.897 629.064 344.867 C 630.402 344.836 631.741 344.911 633.070 345.071 C 634.518 342.343 635.916 339.588 637.258 336.806 C 638.596 334.031 639.965 331.270 641.367 328.528 C 642.711 325.898 644.128 323.306 645.627 320.761 C 646.686 318.962 647.838 317.218 649.089 315.548 L 644.140 318.244 L 643.915 317.884 C 642.347 315.371 640.175 313.562 637.443 312.422 C 635.835 311.751 634.148 311.389 632.407 311.357 C 630.753 311.327 629.110 311.600 627.565 312.188 C 626.006 312.781 624.582 313.625 623.303 314.694 C 621.994 315.786 620.958 317.110 620.168 318.619 C 619.552 319.798 619.127 321.090 618.824 322.384 C 618.497 323.783 618.358 325.213 618.453 326.648 C 618.541 327.963 618.871 329.222 619.498 330.383 C 620.110 331.518 621.049 332.299 622.229 332.807 C 623.415 333.258 624.623 333.351 625.843 332.985 C 627.017 332.632 627.991 331.989 628.765 331.039 C 629.258 330.357 629.585 329.587 629.781 328.771 C 629.984 327.930 630.039 327.073 629.917 326.216 L 629.863 325.843 L 630.220 325.724 C 631.633 325.252 633.132 325.174 634.394 326.071 C 635.659 326.970 636.136 328.442 636.252 329.934 C 636.382 331.121 636.228 332.275 635.736 333.364 C 635.267 334.406 634.628 335.343 633.838 336.168 C 633.037 337.003 632.119 337.701 631.105 338.258 C 630.152 338.781 629.143 339.223 628.089 339.495 C 626.711 339.850 625.284 339.851 623.888 339.597 C 622.455 339.336 621.117 338.811 619.904 338.002 C 618.496 337.104 617.327 335.949 616.471 334.509 C 615.634 333.101 615.051 331.577 614.700 329.977 C 614.344 328.357 614.195 326.693 614.260 325.035 C 614.322 323.451 614.506 321.871 614.842 320.321 L 614.844 320.317 L 614.845 320.312 C 615.478 317.649 616.599 315.190 618.266 313.020 C 619.872 310.929 621.809 309.188 624.072 307.841 C 626.348 306.486 628.822 305.601 631.432 305.155 C 634.129 304.694 636.844 304.775 639.520 305.349 C 641.537 305.740 643.462 306.429 645.274 307.401 C 646.955 308.303 648.540 309.370 649.995 310.606 L 661.381 304.904 L 663.394 308.684 L 662.815 308.813 C 661.764 309.047 660.847 309.528 660.071 310.275 C 659.102 311.208 658.287 312.454 657.620 313.616 C 656.626 315.350 655.763 317.185 654.971 319.019 C 653.869 321.567 652.728 324.100 651.579 326.626 C 649.995 330.110 648.423 333.600 646.856 337.092 C 645.368 340.407 643.838 343.705 642.267 346.982 L 648.901 348.748 C 649.162 348.128 649.431 347.512 649.709 346.900 C 650.027 346.198 650.340 345.493 650.664 344.794 C 652.558 340.704 654.734 336.727 657.032 332.852 C 659.549 328.609 662.402 324.577 665.569 320.796 C 668.686 317.075 672.200 313.724 676.096 310.830 C 679.815 308.067 683.948 306.095 688.490 305.158 L 688.868 305.080 L 690.296 308.894 L 689.915 309.069 C 686.691 310.555 683.789 312.576 681.207 315.010 C 678.472 317.589 675.993 320.425 673.770 323.456 C 671.503 326.546 669.424 329.770 667.548 333.113 C 665.804 336.222 664.096 339.354 662.449 342.516 L 662.445 342.524 L 662.440 342.531 C 661.757 343.729 661.120 344.964 660.494 346.193 C 659.700 347.752 658.949 349.335 658.224 350.928 C 660.007 351.162 661.820 351.303 663.616 351.272 C 665.100 351.245 666.534 350.917 667.788 350.106 C 668.877 348.188 670.073 346.304 671.429 344.563 C 673.053 342.475 674.927 340.385 677.049 338.792 C 678.591 337.633 680.381 336.607 682.290 336.225 C 683.751 335.932 685.282 335.926 686.665 336.541 L 686.674 336.546 L 686.684 336.550 C 687.310 336.864 687.859 337.278 688.266 337.819 L 688.494 337.363 L 697.210 337.363 L 687.270 358.754 L 687.077 359.140 C 686.616 360.090 686.170 361.055 685.779 362.036 C 685.520 362.684 685.264 363.378 685.108 364.059 C 685.052 364.305 684.971 364.769 685.093 365.007 C 685.173 365.162 685.371 365.180 685.527 365.180 C 687.030 365.180 688.487 363.363 689.263 362.264 C 690.268 360.842 691.155 359.311 691.971 357.774 L 699.610 341.516 L 695.411 341.516 L 697.362 337.363 L 701.562 337.363 L 709.070 321.369 L 718.976 318.889 L 710.381 337.363 L 717.028 337.363 L 715.321 341.516 L 708.434 341.516 L 700.251 359.134 L 700.249 359.138 C 699.669 360.334 698.731 362.494 699.042 363.858 C 699.205 364.569 699.518 365.180 700.321 365.180 C 701.054 365.180 702.004 364.747 702.643 364.418 C 703.807 363.817 704.899 363.019 705.900 362.179 C 707.162 361.120 708.295 359.896 709.322 358.610 C 710.482 357.158 711.442 355.561 712.224 353.875 L 712.501 353.275 L 712.515 353.290 L 719.981 337.363 L 721.835 337.363"/>
<path id="corel-ref-path-18" d="M 601.892 359.700 C 600.919 360.955 600.231 362.463 599.724 363.961 C 599.152 365.651 598.809 367.400 598.745 369.185 C 598.687 370.814 598.930 372.410 599.569 373.915 C 600.164 375.315 601.197 376.201 602.635 376.674 C 605.225 377.525 607.724 377.333 610.169 376.124 C 612.901 374.773 615.278 372.818 617.338 370.583 C 619.749 367.967 621.861 365.076 623.728 362.049 C 625.453 359.252 627.111 356.410 628.672 353.517 C 627.385 353.756 626.116 354.079 624.874 354.494 C 623.312 355.015 621.853 355.790 620.504 356.730 L 620.151 356.976 L 619.889 356.635 C 619.291 355.857 618.523 355.310 617.606 354.966 C 616.601 354.588 615.552 354.365 614.482 354.276 C 613.386 354.185 612.285 354.213 611.195 354.369 C 610.281 354.500 609.336 354.679 608.459 354.972 L 608.454 354.973 L 608.449 354.975 C 605.788 355.795 603.636 357.573 601.892 359.700 L 601.892 359.700 Z"/>
<path id="corel-ref-path-17" d="M 681.776 352.828 C 682.432 351.335 683.084 349.840 683.730 348.342 C 684.246 347.145 684.718 345.897 685.043 344.632 C 685.255 343.808 685.448 342.848 685.411 341.992 C 685.388 341.465 685.205 341.051 684.736 340.790 L 684.726 340.785 L 684.716 340.778 C 684.251 340.488 683.535 340.932 683.162 341.195 C 682.170 341.894 681.266 342.831 680.477 343.749 C 679.386 345.017 678.408 346.400 677.508 347.808 C 676.520 349.355 675.643 350.970 674.865 352.632 C 674.205 354.041 673.589 355.474 673.068 356.941 C 672.615 358.216 672.217 359.524 671.939 360.849 C 671.741 361.792 671.577 362.832 671.614 363.798 C 671.629 364.193 671.704 364.761 672.133 364.922 L 672.167 364.935 L 672.199 364.953 C 672.577 365.170 673.335 364.624 673.609 364.414 C 674.571 363.672 675.443 362.705 676.206 361.762 C 677.264 360.455 678.230 359.062 679.135 357.645 C 680.121 356.101 681.008 354.493 681.776 352.828 L 681.776 352.828 Z"/>
<path id="corel-ref-path-20" d="M 721.835 337.363 C 721.190 336.330 721.132 335.160 721.487 333.969 C 721.854 332.509 722.721 331.333 723.880 330.392 C 725.059 329.435 726.407 328.858 727.934 328.858 C 729.288 328.858 730.428 329.358 731.215 330.484 C 732.000 331.608 732.137 332.880 731.808 334.198 C 731.443 335.659 730.577 336.822 729.405 337.742 C 729.046 338.024 728.671 338.272 728.282 338.479"/>
<path id="corel-ref-path-16" d="M 759.816 352.037 C 759.732 352.277 759.633 352.627 759.676 352.878 C 759.697 353.004 759.748 353.074 759.866 353.125 C 760.388 353.355 761.223 353.108 761.725 352.924 C 762.840 352.514 763.942 351.836 764.916 351.161 C 766.262 350.227 767.494 349.120 768.614 347.925 C 769.894 346.558 771.171 344.877 771.759 343.075 C 771.928 342.556 772.118 341.889 772.118 341.340 C 772.118 341.184 772.101 340.874 771.948 340.778 L 771.943 340.775 L 771.937 340.771 C 771.182 340.267 770.286 340.461 769.507 340.808 C 768.247 341.369 767.098 342.264 766.103 343.209 C 764.813 344.432 763.664 345.813 762.628 347.255 C 761.546 348.759 760.593 350.354 759.816 352.037 L 759.816 352.037 Z"/>
</g>
</svg>
