<svg xmlns="http://www.w3.org/2000/svg" width="800mm" height="600mm" viewBox="0 0 800 600" data-corel-split-reference="true">
<title>Corel split reference: 08-026-02-gold-cyzella-split-01</title>
<rect x="0" y="0" width="800" height="600" fill="#ffffff"/>
<g id="corel-reference-paths" fill="none" stroke="#020617" stroke-width="0.22" stroke-linejoin="round" stroke-linecap="round" vector-effect="non-scaling-stroke">
<path id="corel-ref-path-8" d="M 183.427 294.470 L 160.745 340.181 L 160.742 340.187 C 159.699 342.203 158.687 344.246 157.783 346.321 C 157.180 347.705 156.584 349.167 156.186 350.617 C 156.050 351.116 155.840 352.089 156.122 352.576 C 156.323 352.923 156.877 352.960 157.246 352.960 C 160.634 352.960 163.916 349.120 165.667 346.796 C 167.297 344.633 168.779 342.358 170.168 340.053 C 171.756 337.418 173.233 334.720 174.637 331.995 L 174.521 331.885 L 189.257 302.983 C 188.150 300.626 187.602 298.122 187.533 295.540 C 187.451 292.454 188.483 289.576 190.150 286.945 C 191.821 284.307 194.166 281.951 197.499 281.343 C 200.076 280.873 202.617 281.120 204.757 282.628 C 206.864 284.113 207.810 286.256 207.958 288.692 C 208.048 290.150 207.633 291.548 206.936 292.841 C 206.103 294.386 204.873 295.780 203.574 297.000 C 202.993 297.546 202.064 298.514 201.922 299.310 C 201.841 299.769 201.889 300.188 202.223 300.545 C 202.693 301.050 203.321 301.437 203.956 301.735 C 204.705 302.086 205.468 302.421 206.246 302.712 L 206.276 302.724 L 206.305 302.737 C 209.307 304.080 211.709 306.088 213.040 308.980 C 214.302 311.719 214.226 314.475 212.809 317.145 L 201.625 340.177 L 201.619 340.187 C 200.580 342.197 199.574 344.238 198.690 346.313 C 198.107 347.684 197.528 349.151 197.177 350.592 C 197.052 351.111 196.869 352.091 197.145 352.595 C 197.325 352.923 197.771 352.960 198.123 352.960 C 201.512 352.960 204.794 349.120 206.545 346.796 C 209.449 342.942 211.950 338.684 214.211 334.471 C 215.006 332.699 215.872 330.954 216.793 329.237 C 220.492 322.346 224.750 315.474 229.808 309.378 C 233.470 304.963 237.695 300.547 242.478 297.177 C 245.915 294.756 249.928 292.567 254.180 291.752 C 257.530 291.110 260.949 291.153 264.137 292.414 L 264.167 292.425 L 264.196 292.440 C 265.609 293.103 266.846 293.979 267.765 295.123 C 273.345 284.692 279.153 274.346 285.343 264.224 C 288.040 259.817 290.838 255.457 293.791 251.196 C 296.277 247.606 298.881 244.073 301.662 240.677 C 303.927 237.912 306.348 235.210 308.986 232.751 C 311.056 230.823 313.330 228.976 315.804 227.518 C 319.697 225.225 324.059 224.234 328.172 226.604 C 332.436 229.062 332.575 234.304 331.982 238.457 C 331.519 241.700 330.496 244.941 329.293 248.006 C 327.734 251.973 325.788 255.842 323.699 259.586 C 321.116 264.213 318.258 268.717 315.265 273.120 C 311.704 278.357 307.932 283.473 304.043 288.500 C 294.612 300.689 284.096 312.253 273.217 323.318 C 271.226 327.835 269.281 332.417 267.609 337.046 C 267.001 338.728 266.429 340.427 265.933 342.142 C 265.548 343.474 265.201 344.830 264.960 346.191 C 264.688 347.722 264.392 349.860 264.737 351.395 C 264.834 351.832 265.112 352.836 265.626 353.029 L 265.723 353.065 L 265.812 353.121 C 266.519 353.564 268.451 352.598 269.047 352.278 C 271.385 351.023 273.586 349.226 275.512 347.471 C 278.182 345.037 280.558 342.269 282.706 339.420 C 284.702 336.773 286.473 333.981 288.027 331.084 C 288.489 330.055 288.984 329.039 289.506 328.035 C 293.158 321.020 297.592 314.094 303.104 308.222 C 307.272 303.781 312.055 299.472 317.419 296.323 C 321.445 293.960 325.988 291.973 330.723 291.338 C 334.213 290.870 338.002 290.929 341.218 292.440 L 341.230 292.445 L 341.242 292.450 C 343.608 293.636 345.421 295.374 346.710 297.583 C 348.079 299.928 348.737 302.507 348.879 305.167 C 349.041 308.231 348.527 311.314 347.660 314.260 C 346.633 317.744 344.857 320.979 342.676 323.945 C 339.719 327.964 336.210 331.673 332.007 334.578 C 328.575 336.949 324.727 338.974 320.581 339.987 C 317.293 340.790 313.780 341.059 310.475 340.184 C 308.233 339.590 306.411 338.490 305.037 336.893 C 304.308 339.952 303.911 343.159 304.233 346.245 C 304.522 349.018 305.698 351.263 308.479 352.439 L 308.497 352.447 L 308.516 352.455 C 311.037 353.639 314.216 353.411 316.887 352.881 C 320.825 352.098 324.548 350.519 327.971 348.554 C 332.026 346.226 335.720 343.360 339.076 340.207 C 342.531 336.962 345.488 333.319 347.866 329.312 L 363.756 294.158 L 383.381 294.158 L 363.004 340.131 C 362.139 342.161 361.339 344.247 360.731 346.359 C 360.299 347.863 359.931 349.472 359.851 351.032 C 359.810 351.802 359.860 352.867 360.390 353.505 C 360.841 354.047 361.583 354.173 362.278 354.173 C 364.048 354.173 366.688 351.569 367.761 350.448 C 370.647 347.436 373.241 344.125 375.632 340.756 C 378.415 336.835 380.972 332.774 383.324 328.613 C 385.292 325.134 387.198 321.573 388.839 317.943 C 387.102 316.072 386.307 313.734 386.113 311.247 C 385.889 308.374 386.297 305.567 387.356 302.865 C 388.398 300.208 389.978 297.853 392.110 295.851 C 394.264 293.827 396.874 292.743 399.928 292.743 C 402.173 292.743 404.492 293.199 406.133 294.740 C 407.556 296.076 408.400 297.730 408.779 299.579 C 409.201 301.642 409.120 303.795 408.786 305.863 C 408.523 307.489 408.197 309.107 407.798 310.707 C 411.112 309.759 414.347 308.574 417.486 307.197 L 418.690 304.826 C 418.437 300.660 419.233 296.586 420.934 292.726 C 422.842 288.396 425.815 284.603 429.330 281.302 L 429.339 281.293 L 429.348 281.285 C 431.731 279.158 434.763 277.147 438.139 276.883 C 440.677 276.685 443.106 277.239 444.561 279.334 C 446.091 281.537 445.663 284.423 444.898 286.800 C 443.676 290.597 440.370 294.244 437.437 297.000 L 437.430 297.005 L 437.424 297.011 C 435.521 298.737 431.322 302.624 430.474 305.013 C 430.431 305.136 430.391 305.261 430.356 305.387 L 432.007 308.609 L 431.226 309.060 C 431.169 309.093 431.112 309.126 431.055 309.159 C 431.069 309.178 431.084 309.198 431.097 309.217 C 432.446 311.037 434.254 312.725 436.001 314.207 C 438.739 316.530 440.707 319.877 442.167 323.020 C 443.941 326.839 444.460 330.798 443.633 334.896 C 442.834 338.855 441.330 342.593 439.091 346.028 C 437.549 348.394 435.735 350.559 433.641 352.481 C 436.197 351.049 438.619 349.409 440.909 347.624 C 444.283 344.995 447.359 342.053 450.130 338.863 C 452.755 335.842 455.087 332.572 456.886 329.051 L 457.520 327.809 L 463.960 334.120 L 463.675 334.709 C 460.704 340.849 456.510 346.239 451.293 350.871 C 446.159 355.428 440.408 359.266 434.040 362.151 C 428.052 364.864 421.713 366.656 415.092 367.293 C 409.149 367.863 403.222 367.291 397.774 364.883 L 396.880 364.487 L 400.607 356.485 L 401.391 356.612 C 405.524 357.281 409.163 356.084 412.422 353.671 C 416.212 350.864 419.111 347.307 421.289 343.279 C 423.589 339.023 425.034 334.505 425.596 329.763 C 426.086 325.617 425.608 321.478 423.359 317.817 L 423.344 317.792 L 423.330 317.767 C 423.087 317.311 422.834 316.859 422.566 316.414 L 411.395 338.191 L 404.947 331.871 L 412.058 317.877 C 409.450 318.825 406.796 319.672 404.102 320.366 C 401.297 326.259 397.916 331.899 394.104 337.269 C 390.245 342.705 385.965 347.888 381.198 352.650 C 377.053 356.790 372.448 360.640 367.344 363.712 C 363.338 366.121 358.720 368.005 353.887 368.005 C 347.813 368.005 343.127 365.696 340.690 360.354 C 339.682 358.145 339.376 355.726 339.471 353.331 C 335.015 357.371 330.099 360.977 324.697 363.840 C 319.447 366.622 313.760 368.643 307.751 369.312 C 302.281 369.920 297.128 369.006 292.460 366.241 C 289.935 364.746 288.008 362.698 286.616 360.221 C 285.372 358.006 284.635 355.589 284.251 353.121 C 281.660 356.256 278.695 359.223 275.316 361.555 C 272.236 363.681 268.742 365.595 265.034 366.555 C 261.936 367.359 258.782 367.461 255.701 366.549 C 252.863 365.763 250.714 364.024 249.120 361.709 C 247.530 359.402 247.024 356.331 246.960 353.444 C 244.996 355.636 242.899 357.725 240.658 359.669 C 238.052 361.928 235.188 363.985 232.060 365.567 C 229.360 366.933 226.446 367.875 223.375 368.103 C 220.455 368.319 217.710 367.702 215.226 366.244 L 215.218 366.238 L 215.209 366.232 C 211.721 364.091 210.254 360.518 209.762 356.817 C 209.095 357.593 208.410 358.355 207.702 359.098 C 202.786 364.262 196.653 368.005 189.087 368.005 C 183.230 368.005 178.691 365.835 177.234 360.203 C 179.565 346.090 197.430 321.927 196.140 312.030 C 196.099 311.239 195.825 310.553 195.381 309.948 L 181.215 338.172 C 181.198 338.156 175.168 348.392 174.423 349.497 C 172.156 352.859 169.651 356.129 166.824 359.098 C 161.909 364.262 155.776 368.005 148.210 368.005 C 142.340 368.005 137.789 365.828 136.253 360.215 C 134.481 353.743 138.132 345.112 141.053 339.360 L 141.058 339.351 L 141.917 337.737 L 147.032 327.502 C 144.886 327.952 142.702 328.226 140.499 328.297 C 134.366 328.493 128.225 328.277 122.124 327.658 L 118.993 333.539 L 118.988 333.550 C 114.093 342.202 108.648 350.569 102.680 358.604 C 96.562 366.843 88.883 373.687 79.918 379.167 L 79.907 379.173 L 79.896 379.179 C 75.735 381.584 71.184 383.441 66.570 384.927 C 61.569 386.538 56.388 387.466 51.101 387.606 C 45.987 387.741 40.999 386.942 36.270 385.109 C 31.222 383.152 27.549 379.624 24.906 375.196 C 22.248 370.742 20.735 365.947 20.368 360.850 C 20.000 355.733 20.529 350.657 21.905 345.693 C 23.297 340.667 25.471 335.914 28.369 331.490 C 31.221 327.137 34.765 323.297 39.040 320.127 C 43.203 317.041 47.848 314.778 52.941 313.392 C 58.324 311.926 63.826 311.998 69.265 313.177 L 69.285 313.180 L 69.304 313.186 C 71.327 313.704 73.335 314.761 75.080 315.834 C 76.640 316.795 77.898 317.993 78.836 319.427 C 79.774 317.537 81.058 315.829 82.806 314.481 C 84.982 312.802 87.482 311.711 90.229 311.153 C 93.144 310.561 96.150 310.434 99.121 310.628 C 101.972 310.815 104.813 311.146 107.626 311.622 L 112.238 302.958 L 112.245 302.946 C 114.697 298.647 116.994 294.262 119.215 289.854 C 121.742 284.834 124.563 279.946 127.658 275.214 C 130.632 270.666 133.984 266.329 137.770 262.347 C 140.504 259.471 143.707 256.999 147.443 255.442 C 143.182 253.675 138.977 251.790 134.836 249.787 C 130.070 247.483 125.185 245.397 120.193 243.563 C 115.314 241.770 110.269 240.435 105.111 239.572 C 99.777 238.680 94.344 238.874 89.042 239.869 C 86.087 240.502 83.311 241.586 80.788 243.165 C 78.343 244.696 76.222 246.573 74.481 248.797 C 72.742 251.019 71.431 253.467 70.543 256.097 C 69.640 258.772 69.265 261.547 69.407 264.352 C 69.523 266.641 70.070 268.894 71.312 270.885 C 72.415 272.654 73.843 274.165 75.640 275.332 C 77.410 276.484 79.370 277.231 81.487 277.603 C 83.719 277.997 85.941 277.822 88.113 277.222 L 88.143 277.214 L 88.174 277.207 C 91.187 276.564 93.722 275.146 95.835 273.038 C 97.960 270.918 99.167 268.428 99.436 265.526 L 99.511 264.702 L 100.392 264.656 C 102.847 264.528 105.324 264.871 107.441 266.113 C 109.264 267.183 110.669 268.627 111.498 270.496 C 112.356 272.431 112.454 274.521 112.100 276.572 C 111.695 278.934 110.754 281.175 109.509 283.254 L 109.494 283.280 L 109.476 283.304 C 107.692 285.894 105.249 287.974 102.508 289.648 C 99.382 291.557 95.886 292.624 92.193 293.027 C 88.151 293.608 84.166 293.142 80.317 291.870 C 76.236 290.522 72.668 288.354 69.608 285.481 C 66.855 282.895 64.604 279.936 62.952 276.623 C 61.357 273.421 60.301 270.043 59.852 266.532 C 59.406 263.044 59.493 259.535 60.072 256.065 C 60.663 252.526 61.867 249.157 63.615 245.975 C 66.383 240.939 69.974 236.386 74.626 232.746 C 78.944 229.366 83.804 226.835 89.178 225.292 C 94.632 223.727 100.280 223.133 105.972 223.331 C 112.059 223.543 118.025 224.664 123.784 226.510 C 125.157 226.913 126.512 227.406 127.839 227.925 C 129.563 228.600 131.262 229.334 132.944 230.093 C 137.063 231.953 141.186 233.803 145.313 235.648 C 150.034 237.761 154.832 239.731 159.674 241.588 C 164.521 243.447 169.473 245.079 174.515 246.402 C 179.056 247.594 183.712 248.444 188.415 248.795 C 192.327 249.086 196.325 248.816 200.032 247.537 C 203.452 246.357 206.066 244.232 208.024 241.352 C 210.516 237.684 211.201 232.666 211.306 228.405 L 211.329 227.505 L 219.557 227.238 L 219.578 228.206 C 219.647 231.406 219.388 234.630 218.639 237.756 C 217.965 240.572 216.897 243.280 215.354 245.779 C 212.432 250.514 208.486 254.329 203.485 257.133 C 198.339 260.019 192.672 261.693 186.743 262.414 C 180.496 263.173 174.226 262.982 168.032 261.900 L 168.002 261.895 L 167.972 261.888 C 166.882 261.632 165.785 261.397 164.684 261.190 C 163.625 260.991 162.570 260.768 161.522 260.524 C 158.052 261.205 155.170 263.951 153.105 266.492 C 149.707 270.671 146.864 275.368 144.388 280.076 C 141.328 285.896 138.490 291.824 135.808 297.806 C 133.174 303.681 130.538 309.555 127.899 315.427 C 133.138 316.422 138.448 317.195 143.774 317.601 C 146.695 317.823 149.834 317.651 152.537 316.490 L 163.700 294.158 L 166.105 294.158"/>
<path id="corel-ref-path-4" d="M 99.275 327.432 C 96.344 327.879 93.479 328.616 90.710 329.645 C 87.015 331.019 83.657 333.191 80.678 335.639 L 79.865 336.307 L 79.205 335.504 C 76.936 332.746 74.072 330.767 70.544 329.663 C 67.026 328.562 63.396 328.318 59.738 328.891 C 55.805 329.506 52.165 330.966 48.828 332.993 C 45.173 335.216 42.173 338.115 39.763 341.513 C 37.729 344.377 35.931 347.384 34.348 350.489 C 32.683 353.751 31.809 357.253 31.541 360.853 C 31.271 364.464 32.001 367.925 33.698 371.177 C 35.343 374.330 37.918 376.353 41.540 377.240 C 47.385 378.673 53.012 377.961 58.340 375.301 C 64.363 372.293 69.625 368.099 74.202 363.377 C 79.516 357.893 84.176 351.863 88.285 345.537 C 92.137 339.606 95.817 333.574 99.275 327.432 L 99.275 327.432 Z"/>
<path id="corel-ref-path-7" d="M 166.105 294.158 C 164.525 291.927 164.365 289.381 165.187 286.788 C 166.014 283.702 167.970 281.217 170.583 279.228 C 173.239 277.205 176.280 275.983 179.722 275.983 C 182.773 275.983 185.342 277.041 187.116 279.422 C 188.887 281.797 189.194 284.487 188.453 287.273 C 187.672 290.207 185.871 292.573 183.427 294.470"/>
<path id="corel-ref-path-3" d="M 259.784 301.391 C 258.572 300.779 257.029 301.607 256.044 302.258 C 253.807 303.736 251.769 305.717 249.990 307.657 C 247.532 310.338 245.328 313.260 243.299 316.238 C 241.071 319.508 239.096 322.921 237.339 326.435 C 235.850 329.412 234.462 332.443 233.288 335.543 C 232.268 338.239 231.372 341.005 230.744 343.806 C 230.302 345.776 229.952 347.987 230.117 350.002 C 230.178 350.741 230.375 352.090 231.226 352.431 L 231.279 352.453 L 231.329 352.480 C 232.183 352.938 233.890 351.786 234.508 351.340 C 236.668 349.780 238.631 347.789 240.371 345.827 C 242.755 343.140 244.888 340.217 246.850 337.246 C 249.011 333.973 250.967 330.582 252.687 327.085 C 254.894 321.171 257.544 315.382 260.419 309.730 C 260.934 307.974 261.384 305.903 261.223 304.083 C 261.129 303.018 260.780 301.988 259.784 301.391 L 259.784 301.391 Z"/>
<path id="corel-ref-path-2" d="M 320.803 244.158 C 320.528 244.312 320.185 244.582 320.054 244.692 C 319.273 245.344 318.544 246.151 317.887 246.913 C 316.608 248.394 315.421 249.968 314.281 251.545 C 312.724 253.701 311.238 255.906 309.788 258.126 C 305.779 264.267 301.996 270.567 298.303 276.880 C 295.257 282.087 292.285 287.335 289.367 292.609 C 292.435 288.718 295.451 284.791 298.408 280.823 C 302.845 274.871 307.166 268.808 311.172 262.589 C 312.753 260.134 314.300 257.657 315.778 255.145 C 316.936 253.174 318.060 251.174 319.083 249.137 C 319.679 247.948 320.325 246.579 320.650 245.297 C 320.697 245.113 320.822 244.525 320.803 244.158 L 320.803 244.158 Z"/>
<path id="corel-ref-path-1" d="M 309.649 325.178 C 309.460 325.684 309.236 326.424 309.332 326.954 C 309.381 327.221 309.495 327.370 309.760 327.478 C 310.938 327.963 312.820 327.441 313.950 327.053 C 316.465 326.186 318.950 324.751 321.145 323.324 C 324.181 321.351 326.956 319.011 329.480 316.484 C 332.367 313.595 335.246 310.042 336.570 306.233 C 336.952 305.135 337.380 303.726 337.380 302.563 C 337.380 302.235 337.343 301.580 336.998 301.378 L 336.985 301.370 L 336.972 301.362 C 335.269 300.296 333.251 300.707 331.495 301.440 C 328.655 302.626 326.065 304.518 323.821 306.515 C 320.914 309.101 318.323 312.020 315.986 315.069 C 313.549 318.248 311.401 321.621 309.649 325.178 L 309.649 325.178 Z"/>
</g>
</svg>
