<svg xmlns="http://www.w3.org/2000/svg" width="800mm" height="600mm" viewBox="0 0 800 600" data-corel-split-reference="true">
<title>Corel split reference: 08-028-02-gold-cyzella-split-01</title>
<rect x="0" y="0" width="800" height="600" fill="#ffffff"/>
<g id="corel-reference-paths" fill="none" stroke="#020617" stroke-width="0.22" stroke-linejoin="round" stroke-linecap="round" vector-effect="non-scaling-stroke">
<path id="corel-ref-path-15" d="M 62.705 283.454 C 62.564 283.645 62.421 283.835 62.275 284.023 C 60.778 285.962 59.032 287.691 57.008 289.118 C 55.049 290.499 52.918 291.606 50.643 292.415 C 48.365 293.226 45.999 293.725 43.580 293.918 C 41.107 294.114 38.637 293.941 36.212 293.434 C 32.018 292.646 28.325 290.856 25.563 287.662 C 22.998 284.698 21.359 281.306 20.686 277.496 C 20.000 273.615 20.306 269.740 21.436 265.961 C 22.599 262.069 24.671 258.686 27.716 255.901 C 29.514 254.257 31.551 252.917 33.797 251.914 C 35.752 251.041 37.887 250.468 40.055 250.539 C 41.776 250.540 43.543 250.781 45.116 251.486 C 46.259 251.999 47.453 252.660 48.350 253.528 C 49.452 254.595 51.669 256.845 51.176 258.540 C 50.974 259.234 50.457 259.640 49.725 259.741 C 48.912 259.854 47.933 259.583 47.174 259.318 C 45.073 258.584 42.887 258.717 40.770 259.326 C 38.203 260.064 35.894 261.394 33.847 263.050 C 32.476 264.160 31.285 265.479 30.233 266.875 C 29.054 268.439 28.158 270.177 27.490 271.999 C 26.759 273.990 26.433 276.072 26.433 278.182 C 26.433 280.349 27.033 282.349 28.232 284.180 C 29.772 286.531 31.852 288.244 34.656 288.987 C 37.374 289.707 40.149 289.747 42.902 289.172 C 45.778 288.571 48.435 287.426 50.858 285.812 C 53.109 284.314 55.063 282.448 56.375 280.111 L 56.376 280.107 L 56.379 280.103 C 57.684 277.878 58.536 275.485 58.831 272.941 C 59.121 270.454 59.058 267.961 58.638 265.492 C 58.210 262.978 57.433 260.546 56.358 258.221 C 55.276 255.880 53.980 253.637 52.464 251.532 L 52.458 251.524 L 52.453 251.517 C 51.011 249.324 50.104 246.910 49.679 244.345 C 49.248 241.752 49.226 239.138 49.629 236.540 C 50.029 233.960 50.817 231.479 51.983 229.126 C 53.120 226.831 54.634 224.772 56.565 223.038 C 58.490 221.308 60.739 220.067 63.234 219.273 C 65.995 218.394 68.883 218.351 71.729 218.828 C 73.622 219.146 75.410 219.783 77.022 220.800 C 78.556 221.768 79.861 222.982 80.894 224.448 C 81.937 225.927 82.621 227.572 82.984 229.328 C 83.372 231.205 83.317 233.106 82.935 234.979 C 82.422 237.497 81.431 239.852 79.793 241.884 C 78.360 243.662 76.621 245.174 74.509 246.156 C 72.860 246.923 71.050 247.231 69.229 247.200 C 67.392 247.170 65.663 246.708 64.183 245.634 L 64.175 245.629 L 64.168 245.623 C 63.302 244.938 62.747 244.004 62.397 242.988 C 61.943 241.672 62.261 240.300 62.861 239.080 L 63.030 238.737 L 63.409 238.841 C 64.646 239.183 65.922 239.305 67.197 239.115 C 68.428 238.932 69.595 238.548 70.689 237.973 C 71.801 237.389 72.754 236.607 73.553 235.656 C 74.381 234.670 75.013 233.566 75.443 232.364 C 76.072 230.606 76.274 228.775 75.731 226.970 C 75.190 225.169 73.783 224.040 72.052 223.303 C 70.947 222.833 69.798 222.648 68.595 222.768 C 67.357 222.890 66.177 223.232 65.064 223.770 C 63.874 224.346 62.796 225.103 61.827 225.982 C 60.868 226.852 60.018 227.831 59.350 228.930 L 59.347 228.935 L 59.344 228.940 C 57.673 231.526 56.651 234.419 57.145 237.490 C 57.627 240.489 58.828 243.306 60.431 245.901 C 62.258 248.858 63.836 251.952 65.141 255.158 C 66.397 258.243 67.257 261.453 67.632 264.751 C 67.660 265.003 67.686 265.254 67.707 265.506"/>
<path id="corel-ref-path-14" d="M 67.707 265.506 C 68.727 263.956 69.850 262.471 71.092 261.108 C 73.000 259.015 75.188 256.984 77.643 255.499 C 79.485 254.386 81.564 253.449 83.731 253.150 C 85.328 252.929 87.061 252.957 88.533 253.669 L 88.539 253.672 L 88.544 253.674 C 89.627 254.233 90.457 255.052 91.047 256.093 C 91.673 257.198 91.974 258.415 92.039 259.669 C 92.113 261.112 91.878 262.565 91.481 263.954 C 91.011 265.596 90.198 267.121 89.200 268.519 C 87.847 270.413 86.242 272.162 84.318 273.531 C 82.748 274.648 80.986 275.603 79.090 276.080 C 77.585 276.459 75.977 276.586 74.465 276.173 C 73.439 275.893 72.606 275.375 71.977 274.622 C 71.643 276.063 71.461 277.575 71.609 279.030 C 71.741 280.337 72.279 281.395 73.552 281.949 L 73.560 281.953 L 73.569 281.957 C 74.722 282.515 76.177 282.408 77.400 282.157 C 79.201 281.789 80.905 281.044 82.471 280.119 C 84.327 279.021 86.017 277.670 87.553 276.184 C 89.045 274.741 90.336 273.129 91.392 271.362 L 99.648 254.478 L 108.754 254.478 L 107.159 257.694 C 108.152 256.879 109.229 256.149 110.374 255.618 C 112.021 254.854 113.769 254.478 115.596 254.478 C 116.880 254.478 117.957 254.942 118.726 255.947 C 119.322 256.724 119.580 257.639 119.629 258.578 C 122.042 256.578 125.246 254.478 128.394 254.478 C 129.303 254.478 130.151 254.710 130.885 255.233 C 131.622 255.758 132.104 256.476 132.382 257.316 C 132.702 258.283 132.698 259.331 132.546 260.328 C 132.354 261.591 131.808 262.809 131.162 263.913 C 129.244 267.190 127.347 270.478 125.453 273.768 C 124.817 274.875 124.187 275.986 123.575 277.105 C 123.126 277.929 122.682 278.760 122.267 279.601 C 121.991 280.160 121.719 280.734 121.495 281.314 C 121.395 281.575 121.248 281.968 121.229 282.247 C 121.226 282.293 121.222 282.422 121.245 282.476 C 121.264 282.480 121.292 282.481 121.306 282.481 C 122.890 282.481 124.641 280.503 125.517 279.416 C 127.065 277.495 128.369 275.324 129.511 273.158 C 129.833 272.434 130.176 271.721 130.537 271.016 C 132.195 267.782 134.098 264.505 136.396 261.653 C 138.072 259.572 140.005 257.490 142.194 255.902 C 143.784 254.748 145.630 253.725 147.599 253.344 C 149.107 253.053 150.686 253.047 152.113 253.660 L 152.122 253.664 L 152.132 253.669 C 152.778 253.981 153.344 254.394 153.764 254.933 L 153.999 254.478 L 162.991 254.478 L 152.736 275.793 L 152.538 276.177 C 152.063 277.123 151.603 278.085 151.199 279.062 C 150.932 279.708 150.667 280.400 150.507 281.079 C 150.449 281.324 150.365 281.786 150.491 282.023 C 150.574 282.178 150.778 282.196 150.939 282.196 C 152.489 282.196 153.992 280.385 154.793 279.290 C 155.637 278.136 156.396 276.913 157.104 275.677 C 157.990 274.128 158.804 272.536 159.575 270.931 L 159.861 270.334 L 162.818 273.318 L 162.682 273.597 C 161.599 275.839 160.411 278.051 159.063 280.156 C 157.957 281.885 156.725 283.571 155.323 285.088 C 153.046 287.552 150.212 289.286 146.706 289.286 C 143.726 289.286 141.858 287.973 141.267 285.361 C 139.650 286.779 137.827 288.023 135.807 288.824 C 133.760 289.636 131.723 289.588 129.824 288.458 L 129.819 288.454 L 129.813 288.451 C 128.236 287.453 127.562 285.797 127.329 284.074 C 127.036 284.420 126.736 284.759 126.426 285.091 C 124.156 287.514 121.330 289.286 117.860 289.286 C 116.471 289.286 115.072 289.004 113.973 288.138 C 112.782 287.199 112.494 285.666 112.522 284.256 C 112.565 282.076 113.541 279.538 114.431 277.560 C 115.132 276.001 115.959 274.482 116.828 273.005 C 117.924 271.144 119.106 269.325 120.327 267.539 L 120.330 267.535 L 120.332 267.532 C 120.972 266.631 121.592 265.710 122.159 264.764 C 122.592 264.040 123.004 263.289 123.338 262.517 C 123.478 262.193 123.629 261.809 123.683 261.460 C 123.694 261.394 123.718 261.172 123.677 261.107 C 123.653 261.096 123.593 261.093 123.570 261.093 C 123.179 261.093 122.475 261.589 122.181 261.809 C 121.341 262.437 120.556 263.170 119.819 263.908 C 118.856 264.875 117.974 265.926 117.152 267.006 C 116.218 268.232 115.379 269.523 114.626 270.860 C 113.684 272.530 112.796 274.232 111.928 275.939 C 110.941 277.878 109.964 279.823 109.028 281.786 C 107.934 284.079 106.897 286.398 105.884 288.725 L 105.764 289.001 L 96.644 289.001 L 96.963 288.356 C 98.377 285.501 99.789 282.644 101.196 279.785 L 101.198 279.781 L 101.200 279.777 C 101.792 278.632 102.364 277.477 102.916 276.314 C 103.463 275.163 104.022 274.016 104.594 272.877 C 105.104 271.861 105.613 270.846 106.120 269.829 C 106.498 269.071 106.887 268.311 107.310 267.575 C 107.824 266.606 108.322 265.619 108.755 264.613 C 109.038 263.957 109.321 263.242 109.481 262.546 C 109.543 262.276 109.635 261.780 109.534 261.511 C 109.491 261.394 109.421 261.379 109.295 261.379 C 108.578 261.379 107.304 262.830 106.899 263.309 C 106.241 264.087 105.627 264.904 105.039 265.732 C 104.310 266.759 103.618 267.813 102.949 268.878 C 101.297 271.506 99.739 274.195 98.236 276.905 C 96.520 279.997 94.868 283.122 93.272 286.272 L 92.389 288.015 L 92.389 287.951 L 91.866 289.001 L 82.767 289.001 L 84.800 284.843 C 83.588 285.758 82.313 286.592 80.973 287.324 C 78.571 288.634 75.969 289.587 73.219 289.903 C 70.716 290.189 68.358 289.758 66.221 288.455 C 65.066 287.751 64.184 286.785 63.547 285.618 C 63.173 284.931 62.899 284.203 62.705 283.454"/>
<path id="corel-ref-path-5" d="M 74.088 269.100 C 74.001 269.338 73.898 269.687 73.943 269.937 C 73.965 270.063 74.017 270.133 74.138 270.185 C 74.677 270.413 75.538 270.167 76.056 269.983 C 77.207 269.576 78.344 268.899 79.348 268.227 C 80.737 267.296 82.007 266.193 83.162 265.003 C 84.483 263.641 85.800 261.966 86.406 260.170 C 86.581 259.653 86.777 258.989 86.777 258.441 C 86.777 258.286 86.760 257.977 86.602 257.882 L 86.596 257.878 L 86.590 257.874 C 85.811 257.372 84.887 257.566 84.084 257.912 C 82.784 258.470 81.599 259.362 80.572 260.303 C 79.242 261.522 78.057 262.898 76.987 264.335 C 75.872 265.834 74.889 267.423 74.088 269.100 L 74.088 269.100 Z"/>
<path id="corel-ref-path-4" d="M 147.070 269.888 C 147.746 268.400 148.419 266.910 149.085 265.418 C 149.617 264.225 150.105 262.981 150.440 261.722 C 150.658 260.900 150.857 259.944 150.819 259.091 C 150.795 258.566 150.607 258.154 150.123 257.894 L 150.112 257.888 L 150.102 257.882 C 149.623 257.592 148.884 258.035 148.500 258.297 C 147.476 258.994 146.543 259.927 145.729 260.842 C 144.605 262.105 143.596 263.483 142.668 264.886 C 141.648 266.428 140.744 268.036 139.940 269.692 C 139.259 271.096 138.624 272.525 138.087 273.986 C 137.620 275.257 137.210 276.560 136.922 277.881 C 136.718 278.820 136.549 279.856 136.588 280.818 C 136.603 281.212 136.680 281.778 137.123 281.938 L 137.158 281.951 L 137.190 281.969 C 137.581 282.185 138.362 281.642 138.645 281.431 C 139.638 280.693 140.537 279.729 141.324 278.790 C 142.415 277.488 143.412 276.100 144.345 274.688 C 145.363 273.149 146.278 271.547 147.070 269.888 L 147.070 269.888 Z"/>
<path id="corel-ref-path-13" d="M 230.617 282.231 C 229.911 283.255 229.142 284.237 228.313 285.175 C 226.777 286.914 225.061 288.489 223.169 289.862 C 220.370 291.893 217.260 293.471 213.999 294.684 C 210.518 295.980 206.906 296.887 203.219 297.424 C 199.499 297.966 195.739 298.098 191.989 297.809 C 188.354 297.528 184.799 296.766 181.416 295.444 C 178.120 294.155 175.154 292.323 172.559 289.973 C 169.831 287.503 167.905 284.471 166.631 281.084 C 165.591 278.315 165.120 275.411 165.325 272.470 C 165.519 269.686 166.311 267.051 167.857 264.688 C 168.517 263.679 169.354 262.766 170.240 261.938 C 171.190 261.050 172.239 260.271 173.383 259.633 C 174.490 259.017 175.683 258.604 176.948 258.435 C 178.235 258.262 179.482 258.463 180.656 258.997 L 180.661 258.999 L 180.666 259.002 C 181.649 259.477 182.476 260.142 183.142 260.989 C 183.806 261.835 184.196 262.790 184.269 263.851 L 184.270 263.866 L 184.270 263.880 C 184.270 264.473 184.255 265.332 184.045 265.892 C 183.872 266.353 183.543 266.693 183.053 266.836 C 182.608 266.965 182.128 266.961 181.672 266.898 C 181.153 266.826 180.632 266.765 180.111 266.709 L 180.095 266.707 L 180.079 266.705 C 179.286 266.565 178.308 266.865 177.583 267.154 C 176.376 267.635 175.396 268.580 174.628 269.578 C 173.610 270.904 172.969 272.553 172.539 274.139 C 172.000 276.126 171.988 278.168 172.351 280.186 C 172.755 282.432 173.773 284.486 175.127 286.337 C 176.675 288.453 178.830 289.871 181.314 290.797 C 184.950 292.152 188.761 292.678 192.647 292.529 C 196.718 292.373 200.690 291.619 204.517 290.270 C 208.336 288.923 211.889 287.047 215.126 284.667 C 218.186 282.417 220.817 279.724 222.780 276.517 C 223.628 275.002 224.264 273.392 224.703 271.723 C 225.147 270.035 225.327 268.311 225.231 266.572 C 225.137 264.884 224.780 263.237 224.131 261.667 C 223.554 260.271 222.729 259.031 221.641 257.970 C 221.214 258.213 220.774 258.433 220.319 258.626 C 219.797 258.847 219.269 259.055 218.736 259.249 C 217.956 259.591 217.156 259.892 216.347 260.163 C 215.541 260.432 214.729 260.681 213.910 260.911 L 212.600 265.165 L 212.595 265.178 C 211.715 267.499 210.871 269.834 210.039 272.171 C 209.041 274.971 207.774 277.672 206.262 280.247 C 204.791 282.753 202.987 285.048 200.810 287.021 C 198.688 288.943 196.176 289.980 193.267 290.047 L 193.262 290.047 L 193.256 290.047 C 192.511 290.047 191.781 289.921 191.098 289.627 C 190.314 289.290 189.916 288.643 189.840 287.829 L 189.838 287.808 L 189.838 287.788 C 189.838 287.360 189.911 286.941 190.063 286.539 C 190.242 286.062 190.555 285.595 190.863 285.188 C 191.327 284.575 191.783 283.956 192.237 283.337 C 192.950 282.363 193.650 281.379 194.346 280.394 C 196.329 277.453 198.070 274.365 199.577 271.171 C 201.302 267.514 202.919 263.803 204.485 260.079 C 204.059 259.798 203.734 259.394 203.482 258.956 C 203.183 258.435 202.937 257.836 202.931 257.232 C 202.862 256.391 203.015 255.571 203.364 254.796 C 203.720 254.002 204.195 253.268 204.758 252.597 C 205.331 251.911 205.983 251.294 206.708 250.760 C 207.290 250.331 207.898 249.921 208.534 249.568 C 209.319 247.557 210.193 245.579 211.148 243.638 C 212.110 241.682 213.216 239.792 214.482 238.005 C 215.662 236.339 217.008 234.784 218.536 233.406 C 219.807 232.260 221.237 231.337 222.822 230.677 C 220.741 228.901 218.280 227.772 215.550 227.173 C 212.427 226.488 209.287 226.460 206.148 227.080 C 202.972 227.707 200.055 228.952 197.414 230.768 C 194.745 232.604 192.896 235.032 191.825 238.026 C 191.250 239.633 191.266 241.209 192.136 242.706 C 192.963 244.128 194.212 244.916 195.876 245.147 C 197.346 245.317 198.733 245.089 200.007 244.350 C 201.204 243.655 202.070 242.697 202.568 241.433 L 202.707 241.081 L 203.088 241.151 C 204.023 241.320 204.998 241.637 205.722 242.255 C 206.289 242.739 206.754 243.316 207.030 244.001 C 207.285 244.636 207.379 245.297 207.305 245.974 C 207.244 246.526 207.152 247.087 206.994 247.622 L 206.991 247.631 L 206.988 247.641 C 206.673 248.554 206.112 249.388 205.475 250.121 C 204.695 251.021 203.704 251.694 202.610 252.192 C 201.396 252.744 200.098 253.059 198.765 253.185 C 197.273 253.326 195.764 253.164 194.318 252.791 C 192.715 252.377 191.280 251.576 190.007 250.560 C 188.581 249.422 187.539 247.983 186.822 246.340 C 185.813 244.026 185.372 241.582 185.808 239.089 C 186.219 236.732 187.170 234.572 188.593 232.619 C 190.096 230.557 191.942 228.771 194.006 227.235 C 196.160 225.632 198.477 224.261 200.933 223.137 C 203.317 222.046 205.796 221.162 208.352 220.536 C 210.618 219.980 212.975 219.642 215.316 219.712 C 218.238 219.713 221.114 220.146 223.879 221.071 C 226.474 221.939 228.840 223.242 230.839 225.074 C 232.806 226.876 234.190 229.059 235.046 231.545 C 236.015 234.355 235.939 237.372 235.357 240.250 C 234.814 242.933 233.845 245.477 232.395 247.824 C 231.056 249.994 229.429 251.953 227.527 253.678 C 229.472 255.324 231.169 257.204 232.583 259.301 C 233.977 261.369 234.973 263.649 235.264 266.115 L 235.265 266.122 L 235.265 266.129 C 235.387 267.540 235.373 268.946 235.223 270.341"/>
<path id="corel-ref-path-3" d="M 222.602 250.469 C 222.975 250.093 223.330 249.698 223.647 249.280 C 223.929 248.907 224.214 248.521 224.459 248.124 C 225.081 247.122 225.562 246.034 225.943 244.927 C 226.363 243.708 226.632 242.448 226.758 241.169 C 226.885 239.887 226.871 238.592 226.710 237.314 C 226.580 236.278 226.303 235.276 225.852 234.333 C 223.645 235.738 222.033 237.758 220.843 240.034 C 219.421 242.755 218.249 245.597 217.284 248.499 C 219.132 248.923 220.918 249.626 222.602 250.469 L 222.602 250.469 Z"/>
<path id="corel-ref-path-11" d="M 406.604 255.562 L 396.676 276.171 L 396.674 276.175 C 396.197 277.125 395.734 278.088 395.320 279.065 C 395.044 279.718 394.771 280.407 394.590 281.091 C 394.527 281.326 394.431 281.784 394.560 282.014 C 394.652 282.178 394.906 282.196 395.074 282.196 C 396.625 282.196 398.127 280.385 398.928 279.290 C 399.920 277.935 400.798 276.481 401.610 275.019 L 411.714 254.478 L 420.720 254.478 L 417.526 260.947 C 419.080 259.394 420.768 257.930 422.577 256.746 C 424.387 255.562 426.606 254.478 428.843 254.478 C 429.752 254.478 430.600 254.710 431.334 255.233 C 432.070 255.758 432.552 256.476 432.830 257.316 C 433.150 258.283 433.146 259.331 432.995 260.328 C 432.803 261.591 432.257 262.809 431.610 263.913 C 429.692 267.190 427.796 270.478 425.902 273.768 C 425.265 274.875 424.635 275.986 424.024 277.105 C 423.574 277.929 423.131 278.760 422.716 279.601 C 422.440 280.160 422.168 280.734 421.944 281.314 C 421.844 281.575 421.696 281.968 421.677 282.247 C 421.674 282.293 421.671 282.422 421.694 282.476 C 421.713 282.480 421.741 282.481 421.754 282.481 C 423.342 282.481 425.128 280.497 426.017 279.413 C 426.976 278.244 427.832 276.987 428.615 275.702 C 429.554 274.158 430.398 272.556 431.177 270.931 L 431.464 270.334 L 434.420 273.318 L 434.285 273.597 C 433.201 275.839 432.013 278.051 430.666 280.156 C 429.559 281.885 428.328 283.571 426.925 285.088 C 424.649 287.552 421.815 289.286 418.309 289.286 C 416.920 289.286 415.521 289.004 414.421 288.138 C 413.231 287.199 412.942 285.666 412.970 284.256 C 413.014 282.076 413.990 279.538 414.879 277.560 C 415.581 276.001 416.407 274.482 417.277 273.005 C 418.373 271.144 419.555 269.325 420.776 267.539 L 420.778 267.535 L 420.781 267.532 C 421.423 266.628 422.046 265.706 422.621 264.761 C 423.064 264.033 423.487 263.282 423.839 262.509 C 423.986 262.187 424.143 261.812 424.208 261.464 C 424.221 261.397 424.252 261.178 424.217 261.104 C 424.191 261.095 424.139 261.093 424.117 261.093 C 423.458 261.093 421.980 262.416 421.533 262.827 C 419.914 264.317 418.428 266.032 417.050 267.731 C 415.186 270.030 413.455 272.442 411.807 274.890 C 409.970 277.619 408.272 280.435 406.714 283.322 L 403.934 289.001 L 394.732 289.001 L 395.024 288.406 C 393.746 288.978 392.385 289.286 390.940 289.286 C 388.254 289.286 386.171 288.260 385.468 285.615 C 385.457 285.573 385.446 285.531 385.436 285.489 C 383.234 287.706 380.532 289.286 377.255 289.286 C 375.867 289.286 374.467 289.004 373.368 288.138 C 372.177 287.199 371.889 285.666 371.917 284.256 C 371.960 282.076 372.936 279.538 373.826 277.560 C 374.527 276.001 375.354 274.482 376.223 273.005 C 377.319 271.144 378.501 269.325 379.722 267.539 L 379.724 267.535 L 379.727 267.532 C 380.367 266.631 380.987 265.710 381.554 264.764 C 381.987 264.040 382.399 263.289 382.733 262.517 C 382.874 262.193 383.024 261.809 383.079 261.460 C 383.089 261.394 383.113 261.172 383.072 261.107 C 383.048 261.096 382.988 261.093 382.965 261.093 C 382.574 261.093 381.870 261.589 381.576 261.809 C 380.736 262.437 379.951 263.170 379.215 263.908 C 378.251 264.875 377.369 265.926 376.546 267.006 C 375.613 268.232 374.774 269.523 374.021 270.860 C 373.079 272.530 372.191 274.232 371.323 275.939 C 370.336 277.878 369.359 279.823 368.423 281.786 C 367.329 284.079 366.292 286.398 365.279 288.725 L 365.159 289.001 L 356.039 289.001 L 356.358 288.356 C 357.773 285.501 359.184 282.644 360.591 279.785 L 360.593 279.781 L 360.595 279.777 C 361.187 278.632 361.759 277.477 362.311 276.314 C 362.858 275.163 363.417 274.016 363.989 272.877 C 364.499 271.861 365.007 270.846 365.515 269.829 C 365.893 269.071 366.282 268.311 366.705 267.575 C 367.219 266.606 367.717 265.619 368.150 264.613 C 368.433 263.957 368.716 263.242 368.876 262.546 C 368.938 262.276 369.030 261.780 368.929 261.511 C 368.886 261.394 368.816 261.379 368.690 261.379 C 367.973 261.379 366.699 262.830 366.294 263.309 C 365.636 264.087 365.022 264.904 364.434 265.732 C 363.705 266.759 363.013 267.813 362.344 268.878 C 360.692 271.506 359.134 274.195 357.630 276.905 C 355.915 279.997 354.263 283.122 352.667 286.272 L 351.784 288.015 L 351.784 287.951 L 351.261 289.001 L 342.162 289.001 L 342.488 288.332 C 341.143 288.954 339.703 289.286 338.171 289.286 C 335.191 289.286 333.323 287.973 332.732 285.361 C 331.115 286.779 329.292 288.023 327.271 288.824 C 325.224 289.636 323.188 289.588 321.289 288.458 L 321.284 288.454 L 321.278 288.451 C 319.031 287.030 318.613 284.262 318.702 281.862 C 318.546 281.988 318.388 282.112 318.230 282.235 C 315.071 284.680 311.679 286.823 308.119 288.679 L 307.979 289.016 L 307.973 289.028 C 306.407 292.242 304.607 295.357 302.521 298.283 C 300.750 300.767 298.728 303.166 296.392 305.174 C 294.577 306.735 292.461 308.123 290.111 308.794 C 288.039 309.385 286.041 309.164 284.252 307.971 C 282.938 307.095 281.972 305.931 281.556 304.431 C 281.116 302.843 281.505 301.241 282.223 299.791 C 282.862 298.419 283.794 297.233 284.940 296.219 C 286.185 295.119 287.560 294.157 288.999 293.310 C 290.601 292.366 292.267 291.524 293.968 290.762 C 295.755 289.961 297.547 289.173 299.343 288.393 C 300.171 286.911 300.981 285.418 301.773 283.917 C 301.947 283.588 302.120 283.257 302.292 282.927 C 301.122 284.212 299.879 285.438 298.555 286.556 C 297.065 287.815 294.954 289.286 292.884 289.286 C 291.587 289.286 290.298 289.019 289.253 288.241 C 288.240 287.487 287.752 286.353 287.544 285.169 C 285.280 287.589 282.470 289.286 279.002 289.286 C 277.614 289.286 276.214 289.004 275.115 288.138 C 273.924 287.199 273.636 285.666 273.664 284.256 C 273.707 282.076 274.683 279.538 275.573 277.560 C 276.275 276.001 277.101 274.482 277.970 273.005 C 279.066 271.144 280.248 269.325 281.469 267.539 L 281.472 267.535 L 281.474 267.532 C 282.116 266.628 282.739 265.706 283.315 264.761 C 283.758 264.033 284.180 263.282 284.533 262.509 C 284.680 262.187 284.837 261.812 284.902 261.464 C 284.915 261.397 284.945 261.178 284.910 261.104 C 284.885 261.095 284.832 261.093 284.811 261.093 C 284.152 261.093 282.673 262.416 282.227 262.827 C 280.608 264.317 279.122 266.032 277.744 267.731 C 275.880 270.030 274.148 272.442 272.501 274.890 C 270.664 277.619 268.965 280.435 267.408 283.322 L 264.628 289.001 L 255.425 289.001 L 255.715 288.412 C 254.437 288.979 253.076 289.286 251.633 289.286 C 249.528 289.286 247.579 288.666 246.590 286.752 C 245.854 285.327 245.895 283.569 246.213 281.928 C 244.774 283.635 243.210 285.268 241.503 286.700 C 240.027 287.937 238.015 289.286 235.980 289.286 C 234.683 289.286 233.394 289.019 232.349 288.241 C 231.259 287.429 230.777 286.177 230.597 284.897 C 230.476 284.039 230.503 283.132 230.617 282.231"/>
<path id="corel-ref-path-12" d="M 235.223 270.341 C 236.316 268.237 237.429 266.132 238.627 264.088 C 239.676 262.300 240.760 260.529 241.886 258.786 C 242.770 257.417 243.643 256.038 244.548 254.684 L 244.686 254.478 L 245.533 254.478"/>
<path id="corel-ref-path-9" d="M 253.278 254.478 L 253.758 254.478 L 253.306 255.169 C 252.057 257.078 250.846 259.010 249.673 260.964 L 249.670 260.970 L 249.666 260.974 C 248.531 262.760 247.460 264.585 246.431 266.429 C 245.377 268.319 244.332 270.223 243.391 272.169 C 242.653 273.695 241.937 275.240 241.294 276.807 C 240.859 277.868 240.432 278.979 240.138 280.087 C 240.005 280.589 239.817 281.388 239.900 281.908 C 239.912 281.979 239.941 282.110 239.996 282.164 C 240.025 282.193 240.076 282.196 240.115 282.196 C 240.304 282.196 240.817 281.781 240.951 281.665 C 241.598 281.111 242.207 280.428 242.760 279.786 C 244.488 277.779 246.105 275.662 247.660 273.528 C 249.544 270.943 251.356 268.309 253.111 265.640 C 254.709 263.212 256.272 260.749 257.723 258.236 L 259.696 254.706"/>
<path id="corel-ref-path-7" d="M 245.533 254.478 C 244.718 253.365 244.613 252.072 244.943 250.763 C 245.312 249.301 246.218 248.126 247.416 247.187 C 248.631 246.233 250.023 245.658 251.597 245.658 C 252.994 245.658 254.169 246.156 254.981 247.278 C 255.791 248.397 255.925 249.664 255.594 250.977 C 255.235 252.398 254.433 253.556 253.278 254.478"/>
<path id="corel-ref-path-10" d="M 267.584 254.969 L 257.370 276.171 L 257.368 276.175 C 256.892 277.122 256.432 278.084 256.028 279.062 C 255.761 279.708 255.496 280.400 255.336 281.079 C 255.278 281.324 255.194 281.786 255.320 282.023 C 255.403 282.178 255.607 282.196 255.768 282.196 C 257.318 282.196 258.821 280.385 259.622 279.290 C 260.613 277.935 261.492 276.481 262.304 275.019 L 272.408 254.478 L 281.414 254.478 L 278.219 260.947 C 279.773 259.394 281.462 257.930 283.271 256.746 C 285.081 255.562 287.300 254.478 289.537 254.478 C 290.446 254.478 291.293 254.710 292.028 255.233 C 292.764 255.758 293.246 256.476 293.524 257.316 C 293.844 258.283 293.840 259.331 293.688 260.328 C 293.497 261.591 292.951 262.809 292.304 263.913 C 290.386 267.190 288.490 270.478 286.595 273.768 C 285.958 274.875 285.329 275.986 284.717 277.105 C 284.267 277.929 283.824 278.760 283.409 279.601 C 283.134 280.160 282.861 280.734 282.638 281.314 C 282.537 281.575 282.390 281.968 282.371 282.247 C 282.367 282.293 282.364 282.422 282.387 282.476 C 282.406 282.480 282.434 282.481 282.448 282.481 C 284.036 282.481 285.821 280.497 286.711 279.413 C 288.030 277.806 289.164 276.024 290.171 274.221 C 290.560 273.399 290.967 272.585 291.385 271.777 C 292.718 269.197 294.060 266.597 295.531 264.088 C 296.580 262.300 297.663 260.529 298.790 258.786 C 299.674 257.417 300.546 256.038 301.452 254.684 L 301.590 254.478 L 310.662 254.478 L 310.210 255.169 C 308.961 257.078 307.750 259.010 306.577 260.964 L 306.574 260.970 L 306.571 260.974 C 305.435 262.760 304.364 264.585 303.335 266.429 C 302.288 268.306 301.298 270.215 300.396 272.162 L 300.395 272.166 L 300.392 272.170 C 299.645 273.699 298.918 275.246 298.262 276.814 C 297.817 277.876 297.381 278.987 297.074 280.095 C 296.936 280.595 296.738 281.395 296.815 281.915 C 296.825 281.984 296.852 282.114 296.904 282.166 C 296.931 282.193 296.984 282.196 297.018 282.196 C 297.145 282.190 297.464 281.960 297.560 281.886 C 297.981 281.563 298.381 281.156 298.742 280.771 C 299.926 279.511 301.020 278.135 302.058 276.760 C 303.432 274.942 304.729 273.065 305.979 271.165 C 307.327 269.116 308.655 267.055 309.962 264.981 C 311.163 263.073 312.331 261.144 313.447 259.188 C 314.286 257.716 315.122 256.231 315.899 254.727 L 316.027 254.478 L 324.909 254.478 L 324.615 255.113 C 323.128 258.317 321.564 261.488 319.982 264.649 C 318.444 267.723 316.935 270.810 315.405 273.887 C 314.005 276.701 312.616 279.520 311.238 282.344 C 313.198 281.048 315.051 279.606 316.784 278.031 C 318.661 276.325 320.198 274.332 321.439 272.152 C 321.621 271.771 321.809 271.392 322.002 271.016 C 323.659 267.782 325.562 264.505 327.860 261.653 C 329.536 259.572 331.470 257.490 333.658 255.902 C 335.249 254.748 337.095 253.725 339.064 253.344 C 340.571 253.053 342.150 253.047 343.578 253.660 L 343.587 253.664 L 343.596 253.669 C 344.242 253.981 344.809 254.394 345.229 254.933 L 345.464 254.478 L 354.455 254.478 L 344.201 275.793 L 344.002 276.177 C 343.527 277.123 343.067 278.085 342.664 279.062 C 342.396 279.708 342.132 280.400 341.971 281.079 C 341.914 281.324 341.830 281.786 341.956 282.023 C 342.039 282.178 342.243 282.196 342.404 282.196 C 343.954 282.196 345.457 280.385 346.258 279.290 C 347.496 277.596 348.570 275.741 349.548 273.896 L 359.043 254.478 L 368.149 254.478 L 366.554 257.694 C 367.547 256.879 368.624 256.149 369.769 255.618 C 371.416 254.854 373.164 254.478 374.991 254.478 C 376.275 254.478 377.352 254.942 378.121 255.947 C 378.717 256.724 378.975 257.639 379.024 258.578 C 381.437 256.578 384.641 254.478 387.789 254.478 C 388.698 254.478 389.546 254.710 390.280 255.233 C 391.016 255.758 391.499 256.476 391.777 257.316 C 392.096 258.283 392.093 259.331 391.941 260.328 C 391.749 261.591 391.203 262.809 390.557 263.913 C 388.639 267.190 386.743 270.478 384.848 273.768 C 384.212 274.875 383.582 275.986 382.970 277.105 C 382.520 277.929 382.077 278.760 381.662 279.601 C 381.386 280.160 381.114 280.734 380.891 281.314 C 380.790 281.575 380.643 281.968 380.623 282.247 C 380.620 282.293 380.617 282.422 380.640 282.476 C 380.659 282.480 380.687 282.481 380.701 282.481 C 382.285 282.481 384.036 280.503 384.912 279.416 C 385.856 278.244 386.700 276.987 387.474 275.704 C 388.406 274.157 389.247 272.554 390.025 270.931 L 390.312 270.334 L 390.327 270.348 L 398.028 254.478 L 398.142 254.478"/>
<path id="corel-ref-path-8" d="M 259.696 254.706 C 259.020 253.635 258.998 252.413 259.355 251.198 C 259.734 249.742 260.629 248.570 261.825 247.632 C 263.041 246.678 264.432 246.103 266.007 246.103 C 267.403 246.103 268.579 246.601 269.391 247.723 C 270.201 248.842 270.334 250.109 270.003 251.422 C 269.636 252.877 268.789 254.047 267.584 254.969"/>
<path id="corel-ref-path-2" d="M 286.438 301.826 C 286.289 302.379 286.108 303.316 286.709 303.681 C 287.305 303.961 287.918 303.793 288.473 303.493 C 289.388 302.997 290.216 302.239 290.914 301.489 C 291.913 300.415 292.807 299.223 293.628 298.018 C 294.349 296.960 295.043 295.883 295.714 294.794 C 293.774 295.770 291.861 296.819 290.038 297.975 C 288.578 298.902 287.035 300.185 286.438 301.826 L 286.438 301.826 Z"/>
<path id="corel-ref-path-1" d="M 338.534 269.888 C 339.211 268.400 339.883 266.910 340.549 265.418 C 341.082 264.225 341.570 262.981 341.904 261.722 C 342.123 260.900 342.322 259.944 342.284 259.091 C 342.260 258.566 342.072 258.154 341.587 257.894 L 341.577 257.888 L 341.567 257.882 C 341.088 257.592 340.348 258.035 339.964 258.297 C 338.941 258.994 338.008 259.927 337.194 260.842 C 336.069 262.105 335.061 263.483 334.132 264.886 C 333.112 266.428 332.208 268.036 331.405 269.692 C 330.724 271.096 330.089 272.525 329.551 273.986 C 329.085 275.257 328.674 276.560 328.387 277.881 C 328.183 278.820 328.014 279.856 328.052 280.818 C 328.068 281.212 328.145 281.778 328.587 281.938 L 328.622 281.951 L 328.655 281.969 C 329.045 282.185 329.827 281.642 330.110 281.431 C 331.103 280.693 332.002 279.729 332.788 278.790 C 333.880 277.488 334.876 276.100 335.810 274.688 C 336.828 273.149 337.742 271.547 338.534 269.888 L 338.534 269.888 Z"/>
</g>
</svg>
