  0
SECTION
  2
HEADER
  9
$ACADVER
  1
AC1032
  9
$ACADMAINTVER
 90
       55
  9
$DWGCODEPAGE
  3
ANSI_1254
  9
$LASTSAVEDBY
  1
Pc
  9
$REQUIREDVERSIONS
160
                 0
  9
$INSBASE
 10
0.0
 20
0.0
 30
0.0
  9
$EXTMIN
 10
-47.5326
 20
21.06
 30
0.0
  9
$EXTMAX
 10
22.5532
 20
61.1417
 30
0.0
  9
$LIMMIN
 10
0.0
 20
0.0
  9
$LIMMAX
 10
12.0
 20
9.0
  9
$ORTHOMODE
 70
     0
  9
$REGENMODE
 70
     1
  9
$FILLMODE
 70
     1
  9
$QTEXTMODE
 70
     0
  9
$MIRRTEXT
 70
     1
  9
$LTSCALE
 40
1.0
  9
$ATTMODE
 70
     1
  9
$TEXTSIZE
 40
0.2
  9
$TRACEWID
 40
0.05
  9
$TEXTSTYLE
  7
Standard
  9
$CLAYER
  8
0
  9
$CELTYPE
  6
ByLayer
  9
$CECOLOR
 62
   256
  9
$CELTSCALE
 40
1.0
  9
$DISPSILH
 70
     0
  9
$DIMSCALE
 40
1.0
  9
$DIMASZ
 40
0.18
  9
$DIMEXO
 40
0.0625
  9
$DIMDLI
 40
0.38
  9
$DIMRND
 40
0.0
  9
$DIMDLE
 40
0.0
  9
$DIMEXE
 40
0.18
  9
$DIMTP
 40
0.0
  9
$DIMTM
 40
0.0
  9
$DIMTXT
 40
0.18
  9
$DIMCEN
 40
0.09
  9
$DIMTSZ
 40
0.0
  9
$DIMTOL
 70
     0
  9
$DIMLIM
 70
     0
  9
$DIMTIH
 70
     1
  9
$DIMTOH
 70
     1
  9
$DIMSE1
 70
     0
  9
$DIMSE2
 70
     0
  9
$DIMTAD
 70
     0
  9
$DIMZIN
 70
     0
  9
$DIMBLK
  1

  9
$DIMASO
 70
     1
  9
$DIMSHO
 70
     1
  9
$DIMPOST
  1

  9
$DIMAPOST
  1

  9
$DIMALT
 70
     0
  9
$DIMALTD
 70
     2
  9
$DIMALTF
 40
25.4
  9
$DIMLFAC
 40
1.0
  9
$DIMTOFL
 70
     0
  9
$DIMTVP
 40
0.0
  9
$DIMTIX
 70
     0
  9
$DIMSOXD
 70
     0
  9
$DIMSAH
 70
     0
  9
$DIMBLK1
  1

  9
$DIMBLK2
  1

  9
$DIMSTYLE
  2
Standard
  9
$DIMCLRD
 70
     0
  9
$DIMCLRE
 70
     0
  9
$DIMCLRT
 70
     0
  9
$DIMTFAC
 40
1.0
  9
$DIMGAP
 40
0.09
  9
$DIMJUST
 70
     0
  9
$DIMSD1
 70
     0
  9
$DIMSD2
 70
     0
  9
$DIMTOLJ
 70
     1
  9
$DIMTZIN
 70
     0
  9
$DIMALTZ
 70
     0
  9
$DIMALTTZ
 70
     0
  9
$DIMUPT
 70
     0
  9
$DIMDEC
 70
     4
  9
$DIMTDEC
 70
     4
  9
$DIMALTU
 70
     2
  9
$DIMALTTD
 70
     2
  9
$DIMTXSTY
  7
Standard
  9
$DIMAUNIT
 70
     0
  9
$DIMADEC
 70
     0
  9
$DIMALTRND
 40
0.0
  9
$DIMAZIN
 70
     0
  9
$DIMDSEP
 70
    46
  9
$DIMATFIT
 70
     3
  9
$DIMFRAC
 70
     0
  9
$DIMLDRBLK
  1

  9
$DIMLUNIT
 70
     2
  9
$DIMLWD
 70
    -2
  9
$DIMLWE
 70
    -2
  9
$DIMTMOVE
 70
     0
  9
$DIMFXL
 40
1.0
  9
$DIMFXLON
 70
     0
  9
$DIMJOGANG
 40
0.7853981633974483
  9
$DIMTFILL
 70
     0
  9
$DIMTFILLCLR
 70
     0
  9
$DIMARCSYM
 70
     0
  9
$DIMLTYPE
  6

  9
$DIMLTEX1
  6

  9
$DIMLTEX2
  6

  9
$DIMTXTDIRECTION
 70
     0
  9
$LUNITS
 70
     2
  9
$LUPREC
 70
     4
  9
$SKETCHINC
 40
0.1
  9
$FILLETRAD
 40
0.0
  9
$AUNITS
 70
     0
  9
$AUPREC
 70
     0
  9
$MENU
  1
.
  9
$ELEVATION
 40
0.0
  9
$PELEVATION
 40
0.0
  9
$THICKNESS
 40
0.0
  9
$LIMCHECK
 70
     0
  9
$CHAMFERA
 40
0.0
  9
$CHAMFERB
 40
0.0
  9
$CHAMFERC
 40
0.0
  9
$CHAMFERD
 40
0.0
  9
$SKPOLY
 70
     0
  9
$TDCREATE
 40
2461189.597750671
  9
$TDUCREATE
 40
2461189.472750671
  9
$TDUPDATE
 40
2461189.597750752
  9
$TDUUPDATE
 40
2461189.472750752
  9
$TDINDWG
 40
0.0000000116
  9
$TDUSRTIMER
 40
0.0000000116
  9
$USRTIMER
 70
     1
  9
$ANGBASE
 50
0.0
  9
$ANGDIR
 70
     0
  9
$PDMODE
 70
     0
  9
$PDSIZE
 40
0.0
  9
$PLINEWID
 40
0.0
  9
$SPLFRAME
 70
     0
  9
$SPLINETYPE
 70
     6
  9
$SPLINESEGS
 70
     8
  9
$HANDSEED
  5
70
  9
$SURFTAB1
 70
     6
  9
$SURFTAB2
 70
     6
  9
$SURFTYPE
 70
     6
  9
$SURFU
 70
     6
  9
$SURFV
 70
     6
  9
$UCSBASE
  2

  9
$UCSNAME
  2

  9
$UCSORG
 10
0.0
 20
0.0
 30
0.0
  9
$UCSXDIR
 10
1.0
 20
0.0
 30
0.0
  9
$UCSYDIR
 10
0.0
 20
1.0
 30
0.0
  9
$UCSORTHOREF
  2

  9
$UCSORTHOVIEW
 70
     0
  9
$UCSORGTOP
 10
0.0
 20
0.0
 30
0.0
  9
$UCSORGBOTTOM
 10
0.0
 20
0.0
 30
0.0
  9
$UCSORGLEFT
 10
0.0
 20
0.0
 30
0.0
  9
$UCSORGRIGHT
 10
0.0
 20
0.0
 30
0.0
  9
$UCSORGFRONT
 10
0.0
 20
0.0
 30
0.0
  9
$UCSORGBACK
 10
0.0
 20
0.0
 30
0.0
  9
$PUCSBASE
  2

  9
$PUCSNAME
  2

  9
$PUCSORG
 10
0.0
 20
0.0
 30
0.0
  9
$PUCSXDIR
 10
1.0
 20
0.0
 30
0.0
  9
$PUCSYDIR
 10
0.0
 20
1.0
 30
0.0
  9
$PUCSORTHOREF
  2

  9
$PUCSORTHOVIEW
 70
     0
  9
$PUCSORGTOP
 10
0.0
 20
0.0
 30
0.0
  9
$PUCSORGBOTTOM
 10
0.0
 20
0.0
 30
0.0
  9
$PUCSORGLEFT
 10
0.0
 20
0.0
 30
0.0
  9
$PUCSORGRIGHT
 10
0.0
 20
0.0
 30
0.0
  9
$PUCSORGFRONT
 10
0.0
 20
0.0
 30
0.0
  9
$PUCSORGBACK
 10
0.0
 20
0.0
 30
0.0
  9
$USERI1
 70
     0
  9
$USERI2
 70
     0
  9
$USERI3
 70
     0
  9
$USERI4
 70
     0
  9
$USERI5
 70
     0
  9
$USERR1
 40
0.0
  9
$USERR2
 40
0.0
  9
$USERR3
 40
0.0
  9
$USERR4
 40
0.0
  9
$USERR5
 40
0.0
  9
$WORLDVIEW
 70
     1
  9
$SHADEDGE
 70
     3
  9
$SHADEDIF
 70
    70
  9
$TILEMODE
 70
     1
  9
$MAXACTVP
 70
    64
  9
$PINSBASE
 10
0.0
 20
0.0
 30
0.0
  9
$PLIMCHECK
 70
     0
  9
$PEXTMIN
 10
1.000000000000000E+20
 20
1.000000000000000E+20
 30
1.000000000000000E+20
  9
$PEXTMAX
 10
-1.000000000000000E+20
 20
-1.000000000000000E+20
 30
-1.000000000000000E+20
  9
$PLIMMIN
 10
0.0
 20
0.0
  9
$PLIMMAX
 10
12.0
 20
9.0
  9
$UNITMODE
 70
     0
  9
$VISRETAIN
 70
     1
  9
$PLINEGEN
 70
     0
  9
$PSLTSCALE
 70
     1
  9
$TREEDEPTH
 70
  3020
  9
$CMLSTYLE
  2
Standard
  9
$CMLJUST
 70
     0
  9
$CMLSCALE
 40
1.0
  9
$PROXYGRAPHICS
 70
     1
  9
$MEASUREMENT
 70
     0
  9
$CELWEIGHT
370
    -1
  9
$ENDCAPS
280
     0
  9
$JOINSTYLE
280
     0
  9
$LWDISPLAY
290
     0
  9
$INSUNITS
 70
     4
  9
$HYPERLINKBASE
  1

  9
$STYLESHEET
  1

  9
$XEDIT
290
     1
  9
$CEPSNTYPE
380
     0
  9
$PSTYLEMODE
290
     1
  9
$FINGERPRINTGUID
  2
{7faf3c8d-c18f-4484-9ee8-0f30566429f6}
  9
$VERSIONGUID
  2
{FAEB1C32-E019-11D5-929B-00C0DF256EC4}
  9
$EXTNAMES
290
     1
  9
$PSVPSCALE
 40
0.0
  9
$OLESTARTUP
290
     0
  9
$SORTENTS
280
   127
  9
$INDEXCTL
280
     0
  9
$HIDETEXT
280
     1
  9
$XCLIPFRAME
280
     2
  9
$HALOGAP
280
     0
  9
$OBSCOLOR
 70
   257
  9
$OBSLTYPE
280
     0
  9
$INTERSECTIONDISPLAY
280
     0
  9
$INTERSECTIONCOLOR
 70
   257
  9
$DIMASSOC
280
     2
  9
$PROJECTNAME
  1

  9
$CAMERADISPLAY
290
     0
  9
$LENSLENGTH
 40
50.0
  9
$CAMERAHEIGHT
 40
0.0
  9
$STEPSPERSEC
 40
2.0
  9
$STEPSIZE
 40
6.0
  9
$3DDWFPREC
 40
2.0
  9
$PSOLWIDTH
 40
0.25
  9
$PSOLHEIGHT
 40
4.0
  9
$LOFTANG1
 40
1.570796326794897
  9
$LOFTANG2
 40
1.570796326794897
  9
$LOFTMAG1
 40
0.0
  9
$LOFTMAG2
 40
0.0
  9
$LOFTPARAM
 70
     7
  9
$LOFTNORMALS
280
     1
  9
$LATITUDE
 40
37.795
  9
$LONGITUDE
 40
-122.394
  9
$NORTHDIRECTION
 40
0.0
  9
$TIMEZONE
 70
 -8000
  9
$LIGHTGLYPHDISPLAY
280
     1
  9
$TILEMODELIGHTSYNCH
280
     1
  9
$CMATERIAL
347
44
  9
$SOLIDHIST
280
     0
  9
$SHOWHIST
280
     1
  9
$DWFFRAME
280
     2
  9
$DGNFRAME
280
     2
  9
$REALWORLDSCALE
290
     1
  9
$INTERFERECOLOR
 62
   256
  9
$CSHADOW
280
     0
  9
$SHADOWPLANELOCATION
 40
0.0
  0
ENDSEC
  0
SECTION
  2
CLASSES
  0
CLASS
  1
ACDBDICTIONARYWDFLT
  2
AcDbDictionaryWithDefault
  3
ObjectDBX Classes
 90
        0
 91
        3
280
     0
281
     0
  0
CLASS
  1
VISUALSTYLE
  2
AcDbVisualStyle
  3
ObjectDBX Classes
 90
     4095
 91
        3
280
     0
281
     0
  0
CLASS
  1
MATERIAL
  2
AcDbMaterial
  3
ObjectDBX Classes
 90
     1153
 91
        3
280
     0
281
     0
  0
CLASS
  1
SCALE
  2
AcDbScale
  3
ObjectDBX Classes
 90
     1153
 91
        3
280
     0
281
     0
  0
CLASS
  1
TABLESTYLE
  2
AcDbTableStyle
  3
ObjectDBX Classes
 90
     4095
 91
        3
280
     0
281
     0
  0
CLASS
  1
MLEADERSTYLE
  2
AcDbMLeaderStyle
  3
ACDB_MLEADERSTYLE_CLASS
 90
     4095
 91
        3
280
     0
281
     0
  0
CLASS
  1
SUN
  2
AcDbSun
  3
SCENEOE
 90
     1153
 91
        3
280
     0
281
     0
  0
CLASS
  1
DICTIONARYVAR
  2
AcDbDictionaryVar
  3
ObjectDBX Classes
 90
        0
 91
        3
280
     0
281
     0
  0
CLASS
  1
CELLSTYLEMAP
  2
AcDbCellStyleMap
  3
ObjectDBX Classes
 90
     1152
 91
        3
280
     0
281
     0
  0
ENDSEC
  0
SECTION
  2
TABLES
  0
TABLE
  2
VPORT
  5
8
330
0
100
AcDbSymbolTable
 70
     1
  0
VPORT
  5
29
330
8
100
AcDbSymbolTableRecord
100
AcDbViewportTableRecord
  2
*Active
 70
     0
 10
0.0
 20
0.0
 11
1.0
 21
1.0
 12
10.42990654205607
 22
4.5
 13
0.0
 23
0.0
 14
0.5
 24
0.5
 15
0.5
 25
0.5
 16
0.0
 26
0.0
 36
1.0
 17
0.0
 27
0.0
 37
0.0
 40
9.0
 41
1.972972972850329
 42
50.0
 43
0.0
 44
0.0
 50
0.0
 51
0.0
 71
     0
 72
   100
 73
     1
 74
     3
 75
     0
 76
     0
 77
     0
 78
     0
281
     0
 65
     1
110
0.0
120
0.0
130
0.0
111
1.0
121
0.0
131
0.0
112
0.0
122
1.0
132
0.0
 79
     0
146
0.0
348
2F
 60
     3
 61
     5
292
     1
282
     1
141
0.0
142
0.0
 63
   250
361
5D
  0
ENDTAB
  0
TABLE
  2
LTYPE
  5
5
330
0
100
AcDbSymbolTable
 70
     1
  0
LTYPE
  5
14
330
5
100
AcDbSymbolTableRecord
100
AcDbLinetypeTableRecord
  2
ByBlock
 70
     0
  3

 72
    65
 73
     0
 40
0.0
  0
LTYPE
  5
15
330
5
100
AcDbSymbolTableRecord
100
AcDbLinetypeTableRecord
  2
ByLayer
 70
     0
  3

 72
    65
 73
     0
 40
0.0
  0
LTYPE
  5
16
330
5
100
AcDbSymbolTableRecord
100
AcDbLinetypeTableRecord
  2
Continuous
 70
     0
  3
Solid line
 72
    65
 73
     0
 40
0.0
  0
ENDTAB
  0
TABLE
  2
LAYER
  5
2
330
0
100
AcDbSymbolTable
 70
     2
  0
LAYER
  5
10
330
2
100
AcDbSymbolTableRecord
100
AcDbLayerTableRecord
  2
0
 70
     0
 62
     7
  6
Continuous
370
    -3
390
F
347
46
348
0
  0
LAYER
  5
5F
330
2
100
AcDbSymbolTableRecord
100
AcDbLayerTableRecord
  2
Katman 1
 70
     0
 62
     7
  6
Continuous
370
    -3
390
F
347
46
348
0
  0
ENDTAB
  0
TABLE
  2
STYLE
  5
3
330
0
100
AcDbSymbolTable
 70
     1
  0
STYLE
  5
11
330
3
100
AcDbSymbolTableRecord
100
AcDbTextStyleTableRecord
  2
Standard
 70
     0
 40
0.0
 41
1.0
 50
0.0
 71
     0
 42
0.2
  3
txt
  4

  0
ENDTAB
  0
TABLE
  2
VIEW
  5
6
330
0
100
AcDbSymbolTable
 70
     0
  0
ENDTAB
  0
TABLE
  2
UCS
  5
7
330
0
100
AcDbSymbolTable
 70
     0
  0
ENDTAB
  0
TABLE
  2
APPID
  5
9
330
0
100
AcDbSymbolTable
 70
     2
  0
APPID
  5
12
330
9
100
AcDbSymbolTableRecord
100
AcDbRegAppTableRecord
  2
ACAD
 70
     0
  0
APPID
  5
5E
330
9
100
AcDbSymbolTableRecord
100
AcDbRegAppTableRecord
  2
ODA
 70
     0
  0
ENDTAB
  0
TABLE
  2
DIMSTYLE
  5
A
330
0
100
AcDbSymbolTable
 70
     1
100
AcDbDimStyleTable
  0
DIMSTYLE
105
27
330
A
100
AcDbSymbolTableRecord
100
AcDbDimStyleTableRecord
  2
Standard
 70
     0
178
     0
340
11
  0
ENDTAB
  0
TABLE
  2
BLOCK_RECORD
  5
1
330
0
100
AcDbSymbolTable
 70
     1
  0
BLOCK_RECORD
  5
1F
330
1
100
AcDbSymbolTableRecord
100
AcDbBlockTableRecord
  2
*Model_Space
340
22
 70
     0
280
     1
281
     0
  0
BLOCK_RECORD
  5
1B
330
1
100
AcDbSymbolTableRecord
100
AcDbBlockTableRecord
  2
*Paper_Space
340
1E
 70
     0
280
     1
281
     0
  0
BLOCK_RECORD
  5
23
330
1
100
AcDbSymbolTableRecord
100
AcDbBlockTableRecord
  2
*Paper_Space0
340
26
 70
     0
280
     1
281
     0
  0
ENDTAB
  0
ENDSEC
  0
SECTION
  2
BLOCKS
  0
BLOCK
  5
20
330
1F
100
AcDbEntity
  8
0
100
AcDbBlockBegin
  2
*Model_Space
 70
     0
 10
0.0
 20
0.0
 30
0.0
  3
*Model_Space
  1

  0
ENDBLK
  5
21
330
1F
100
AcDbEntity
  8
0
100
AcDbBlockEnd
  0
BLOCK
  5
1C
330
1B
100
AcDbEntity
 67
     1
  8
0
100
AcDbBlockBegin
  2
*Paper_Space
 70
     0
 10
0.0
 20
0.0
 30
0.0
  3
*Paper_Space
  1

  0
ENDBLK
  5
1D
330
1B
100
AcDbEntity
 67
     1
  8
0
100
AcDbBlockEnd
  0
BLOCK
  5
24
330
23
100
AcDbEntity
  8
0
100
AcDbBlockBegin
  2
*Paper_Space0
 70
     0
 10
0.0
 20
0.0
 30
0.0
  3
*Paper_Space0
  1

  0
ENDBLK
  5
25
330
23
100
AcDbEntity
  8
0
100
AcDbBlockEnd
  0
ENDSEC
  0
SECTION
  2
ENTITIES
  0
SPLINE
  5
60
330
1F
100
AcDbEntity
  8
Katman 1
 62
   250
370
     9
100
AcDbSpline
210
0.0
220
0.0
230
1.0
 70
    11
 71
     3
 72
   599
 73
   595
 74
     0
 42
0.0000000001
 43
0.0000000001
 40
0.0
 40
0.0
 40
0.0
 40
0.0
 40
0.0050505050505051
 40
0.0050505050505051
 40
0.0050505050505051
 40
0.0101010101010101
 40
0.0101010101010101
 40
0.0101010101010101
 40
0.0151515151515152
 40
0.0151515151515152
 40
0.0151515151515152
 40
0.0202020202020202
 40
0.0202020202020202
 40
0.0202020202020202
 40
0.0252525252525253
 40
0.0252525252525253
 40
0.0252525252525253
 40
0.0303030303030303
 40
0.0303030303030303
 40
0.0303030303030303
 40
0.0353535353535354
 40
0.0353535353535354
 40
0.0353535353535354
 40
0.0404040404040404
 40
0.0404040404040404
 40
0.0404040404040404
 40
0.0454545454545455
 40
0.0454545454545455
 40
0.0454545454545455
 40
0.0505050505050505
 40
0.0505050505050505
 40
0.0505050505050505
 40
0.0555555555555556
 40
0.0555555555555556
 40
0.0555555555555556
 40
0.0606060606060606
 40
0.0606060606060606
 40
0.0606060606060606
 40
0.0656565656565657
 40
0.0656565656565657
 40
0.0656565656565657
 40
0.0707070707070707
 40
0.0707070707070707
 40
0.0707070707070707
 40
0.0757575757575758
 40
0.0757575757575758
 40
0.0757575757575758
 40
0.0808080808080808
 40
0.0808080808080808
 40
0.0808080808080808
 40
0.0858585858585859
 40
0.0858585858585859
 40
0.0858585858585859
 40
0.0909090909090909
 40
0.0909090909090909
 40
0.0909090909090909
 40
0.095959595959596
 40
0.095959595959596
 40
0.095959595959596
 40
0.101010101010101
 40
0.101010101010101
 40
0.101010101010101
 40
0.1060606060606061
 40
0.1060606060606061
 40
0.1060606060606061
 40
0.1111111111111111
 40
0.1111111111111111
 40
0.1111111111111111
 40
0.1161616161616162
 40
0.1161616161616162
 40
0.1161616161616162
 40
0.1212121212121212
 40
0.1212121212121212
 40
0.1212121212121212
 40
0.1262626262626263
 40
0.1262626262626263
 40
0.1262626262626263
 40
0.1313131313131313
 40
0.1313131313131313
 40
0.1313131313131313
 40
0.1363636363636364
 40
0.1363636363636364
 40
0.1363636363636364
 40
0.1414141414141414
 40
0.1414141414141414
 40
0.1414141414141414
 40
0.1464646464646465
 40
0.1464646464646465
 40
0.1464646464646465
 40
0.1515151515151515
 40
0.1515151515151515
 40
0.1515151515151515
 40
0.1565656565656566
 40
0.1565656565656566
 40
0.1565656565656566
 40
0.1616161616161616
 40
0.1616161616161616
 40
0.1616161616161616
 40
0.1666666666666667
 40
0.1666666666666667
 40
0.1666666666666667
 40
0.1717171717171717
 40
0.1717171717171717
 40
0.1717171717171717
 40
0.1767676767676768
 40
0.1767676767676768
 40
0.1767676767676768
 40
0.1818181818181818
 40
0.1818181818181818
 40
0.1818181818181818
 40
0.1868686868686869
 40
0.1868686868686869
 40
0.1868686868686869
 40
0.1919191919191919
 40
0.1919191919191919
 40
0.1919191919191919
 40
0.196969696969697
 40
0.196969696969697
 40
0.196969696969697
 40
0.202020202020202
 40
0.202020202020202
 40
0.202020202020202
 40
0.2070707070707071
 40
0.2070707070707071
 40
0.2070707070707071
 40
0.2121212121212121
 40
0.2121212121212121
 40
0.2121212121212121
 40
0.2171717171717172
 40
0.2171717171717172
 40
0.2171717171717172
 40
0.2222222222222222
 40
0.2222222222222222
 40
0.2222222222222222
 40
0.2272727272727273
 40
0.2272727272727273
 40
0.2272727272727273
 40
0.2323232323232323
 40
0.2323232323232323
 40
0.2323232323232323
 40
0.2373737373737374
 40
0.2373737373737374
 40
0.2373737373737374
 40
0.2424242424242424
 40
0.2424242424242424
 40
0.2424242424242424
 40
0.2474747474747475
 40
0.2474747474747475
 40
0.2474747474747475
 40
0.2525252525252525
 40
0.2525252525252525
 40
0.2525252525252525
 40
0.2575757575757576
 40
0.2575757575757576
 40
0.2575757575757576
 40
0.2626262626262627
 40
0.2626262626262627
 40
0.2626262626262627
 40
0.2676767676767677
 40
0.2676767676767677
 40
0.2676767676767677
 40
0.2727272727272728
 40
0.2727272727272728
 40
0.2727272727272728
 40
0.2777777777777778
 40
0.2777777777777778
 40
0.2777777777777778
 40
0.2828282828282829
 40
0.2828282828282829
 40
0.2828282828282829
 40
0.2878787878787879
 40
0.2878787878787879
 40
0.2878787878787879
 40
0.2929292929292929
 40
0.2929292929292929
 40
0.2929292929292929
 40
0.297979797979798
 40
0.297979797979798
 40
0.297979797979798
 40
0.303030303030303
 40
0.303030303030303
 40
0.303030303030303
 40
0.3080808080808081
 40
0.3080808080808081
 40
0.3080808080808081
 40
0.3131313131313131
 40
0.3131313131313131
 40
0.3131313131313131
 40
0.3181818181818182
 40
0.3181818181818182
 40
0.3181818181818182
 40
0.3232323232323233
 40
0.3232323232323233
 40
0.3232323232323233
 40
0.3282828282828283
 40
0.3282828282828283
 40
0.3282828282828283
 40
0.3333333333333334
 40
0.3333333333333334
 40
0.3333333333333334
 40
0.3383838383838384
 40
0.3383838383838384
 40
0.3383838383838384
 40
0.3434343434343435
 40
0.3434343434343435
 40
0.3434343434343435
 40
0.3484848484848485
 40
0.3484848484848485
 40
0.3484848484848485
 40
0.3535353535353536
 40
0.3535353535353536
 40
0.3535353535353536
 40
0.3585858585858586
 40
0.3585858585858586
 40
0.3585858585858586
 40
0.3636363636363636
 40
0.3636363636363636
 40
0.3636363636363636
 40
0.3686868686868687
 40
0.3686868686868687
 40
0.3686868686868687
 40
0.3737373737373738
 40
0.3737373737373738
 40
0.3737373737373738
 40
0.3787878787878788
 40
0.3787878787878788
 40
0.3787878787878788
 40
0.3838383838383839
 40
0.3838383838383839
 40
0.3838383838383839
 40
0.3888888888888889
 40
0.3888888888888889
 40
0.3888888888888889
 40
0.393939393939394
 40
0.393939393939394
 40
0.393939393939394
 40
0.398989898989899
 40
0.398989898989899
 40
0.398989898989899
 40
0.4040404040404041
 40
0.4040404040404041
 40
0.4040404040404041
 40
0.4090909090909091
 40
0.4090909090909091
 40
0.4090909090909091
 40
0.4141414141414142
 40
0.4141414141414142
 40
0.4141414141414142
 40
0.4191919191919192
 40
0.4191919191919192
 40
0.4191919191919192
 40
0.4242424242424243
 40
0.4242424242424243
 40
0.4242424242424243
 40
0.4292929292929293
 40
0.4292929292929293
 40
0.4292929292929293
 40
0.4343434343434344
 40
0.4343434343434344
 40
0.4343434343434344
 40
0.4393939393939394
 40
0.4393939393939394
 40
0.4393939393939394
 40
0.4444444444444445
 40
0.4444444444444445
 40
0.4444444444444445
 40
0.4494949494949496
 40
0.4494949494949496
 40
0.4494949494949496
 40
0.4545454545454546
 40
0.4545454545454546
 40
0.4545454545454546
 40
0.4595959595959596
 40
0.4595959595959596
 40
0.4595959595959596
 40
0.4646464646464647
 40
0.4646464646464647
 40
0.4646464646464647
 40
0.4696969696969697
 40
0.4696969696969697
 40
0.4696969696969697
 40
0.4747474747474748
 40
0.4747474747474748
 40
0.4747474747474748
 40
0.4797979797979798
 40
0.4797979797979798
 40
0.4797979797979798
 40
0.4848484848484849
 40
0.4848484848484849
 40
0.4848484848484849
 40
0.4898989898989899
 40
0.4898989898989899
 40
0.4898989898989899
 40
0.494949494949495
 40
0.494949494949495
 40
0.494949494949495
 40
0.5
 40
0.5
 40
0.5
 40
0.5050505050505051
 40
0.5050505050505051
 40
0.5050505050505051
 40
0.5101010101010102
 40
0.5101010101010102
 40
0.5101010101010102
 40
0.5151515151515152
 40
0.5151515151515152
 40
0.5151515151515152
 40
0.5202020202020202
 40
0.5202020202020202
 40
0.5202020202020202
 40
0.5252525252525253
 40
0.5252525252525253
 40
0.5252525252525253
 40
0.5303030303030304
 40
0.5303030303030304
 40
0.5303030303030304
 40
0.5353535353535354
 40
0.5353535353535354
 40
0.5353535353535354
 40
0.5404040404040404
 40
0.5404040404040404
 40
0.5404040404040404
 40
0.5454545454545455
 40
0.5454545454545455
 40
0.5454545454545455
 40
0.5505050505050505
 40
0.5505050505050505
 40
0.5505050505050505
 40
0.5555555555555556
 40
0.5555555555555556
 40
0.5555555555555556
 40
0.5606060606060607
 40
0.5606060606060607
 40
0.5606060606060607
 40
0.5656565656565657
 40
0.5656565656565657
 40
0.5656565656565657
 40
0.5707070707070707
 40
0.5707070707070707
 40
0.5707070707070707
 40
0.5757575757575758
 40
0.5757575757575758
 40
0.5757575757575758
 40
0.5808080808080809
 40
0.5808080808080809
 40
0.5808080808080809
 40
0.5858585858585859
 40
0.5858585858585859
 40
0.5858585858585859
 40
0.5909090909090909
 40
0.5909090909090909
 40
0.5909090909090909
 40
0.595959595959596
 40
0.595959595959596
 40
0.595959595959596
 40
0.6010101010101011
 40
0.6010101010101011
 40
0.6010101010101011
 40
0.6060606060606061
 40
0.6060606060606061
 40
0.6060606060606061
 40
0.6111111111111112
 40
0.6111111111111112
 40
0.6111111111111112
 40
0.6161616161616162
 40
0.6161616161616162
 40
0.6161616161616162
 40
0.6212121212121212
 40
0.6212121212121212
 40
0.6212121212121212
 40
0.6262626262626263
 40
0.6262626262626263
 40
0.6262626262626263
 40
0.6313131313131314
 40
0.6313131313131314
 40
0.6313131313131314
 40
0.6363636363636365
 40
0.6363636363636365
 40
0.6363636363636365
 40
0.6414141414141414
 40
0.6414141414141414
 40
0.6414141414141414
 40
0.6464646464646465
 40
0.6464646464646465
 40
0.6464646464646465
 40
0.6515151515151516
 40
0.6515151515151516
 40
0.6515151515151516
 40
0.6565656565656566
 40
0.6565656565656566
 40
0.6565656565656566
 40
0.6616161616161617
 40
0.6616161616161617
 40
0.6616161616161617
 40
0.6666666666666667
 40
0.6666666666666667
 40
0.6666666666666667
 40
0.6717171717171718
 40
0.6717171717171718
 40
0.6717171717171718
 40
0.6767676767676768
 40
0.6767676767676768
 40
0.6767676767676768
 40
0.6818181818181819
 40
0.6818181818181819
 40
0.6818181818181819
 40
0.686868686868687
 40
0.686868686868687
 40
0.686868686868687
 40
0.6919191919191919
 40
0.6919191919191919
 40
0.6919191919191919
 40
0.696969696969697
 40
0.696969696969697
 40
0.696969696969697
 40
0.7020202020202021
 40
0.7020202020202021
 40
0.7020202020202021
 40
0.7070707070707072
 40
0.7070707070707072
 40
0.7070707070707072
 40
0.7121212121212122
 40
0.7121212121212122
 40
0.7121212121212122
 40
0.7171717171717172
 40
0.7171717171717172
 40
0.7171717171717172
 40
0.7222222222222223
 40
0.7222222222222223
 40
0.7222222222222223
 40
0.7272727272727273
 40
0.7272727272727273
 40
0.7272727272727273
 40
0.7323232323232324
 40
0.7323232323232324
 40
0.7323232323232324
 40
0.7373737373737375
 40
0.7373737373737375
 40
0.7373737373737375
 40
0.7424242424242425
 40
0.7424242424242425
 40
0.7424242424242425
 40
0.7474747474747475
 40
0.7474747474747475
 40
0.7474747474747475
 40
0.7525252525252526
 40
0.7525252525252526
 40
0.7525252525252526
 40
0.7575757575757577
 40
0.7575757575757577
 40
0.7575757575757577
 40
0.7626262626262627
 40
0.7626262626262627
 40
0.7626262626262627
 40
0.7676767676767677
 40
0.7676767676767677
 40
0.7676767676767677
 40
0.7727272727272728
 40
0.7727272727272728
 40
0.7727272727272728
 40
0.7777777777777778
 40
0.7777777777777778
 40
0.7777777777777778
 40
0.7828282828282829
 40
0.7828282828282829
 40
0.7828282828282829
 40
0.787878787878788
 40
0.787878787878788
 40
0.787878787878788
 40
0.792929292929293
 40
0.792929292929293
 40
0.792929292929293
 40
0.797979797979798
 40
0.797979797979798
 40
0.797979797979798
 40
0.8030303030303031
 40
0.8030303030303031
 40
0.8030303030303031
 40
0.8080808080808082
 40
0.8080808080808082
 40
0.8080808080808082
 40
0.8131313131313131
 40
0.8131313131313131
 40
0.8131313131313131
 40
0.8181818181818182
 40
0.8181818181818182
 40
0.8181818181818182
 40
0.8232323232323233
 40
0.8232323232323233
 40
0.8232323232323233
 40
0.8282828282828284
 40
0.8282828282828284
 40
0.8282828282828284
 40
0.8333333333333334
 40
0.8333333333333334
 40
0.8333333333333334
 40
0.8383838383838385
 40
0.8383838383838385
 40
0.8383838383838385
 40
0.8434343434343435
 40
0.8434343434343435
 40
0.8434343434343435
 40
0.8484848484848485
 40
0.8484848484848485
 40
0.8484848484848485
 40
0.8535353535353536
 40
0.8535353535353536
 40
0.8535353535353536
 40
0.8585858585858587
 40
0.8585858585858587
 40
0.8585858585858587
 40
0.8636363636363638
 40
0.8636363636363638
 40
0.8636363636363638
 40
0.8686868686868687
 40
0.8686868686868687
 40
0.8686868686868687
 40
0.8737373737373738
 40
0.8737373737373738
 40
0.8737373737373738
 40
0.8787878787878789
 40
0.8787878787878789
 40
0.8787878787878789
 40
0.8838383838383839
 40
0.8838383838383839
 40
0.8838383838383839
 40
0.888888888888889
 40
0.888888888888889
 40
0.888888888888889
 40
0.893939393939394
 40
0.893939393939394
 40
0.893939393939394
 40
0.8989898989898991
 40
0.8989898989898991
 40
0.8989898989898991
 40
0.9040404040404041
 40
0.9040404040404041
 40
0.9040404040404041
 40
0.9090909090909092
 40
0.9090909090909092
 40
0.9090909090909092
 40
0.9141414141414143
 40
0.9141414141414143
 40
0.9141414141414143
 40
0.9191919191919192
 40
0.9191919191919192
 40
0.9191919191919192
 40
0.9242424242424243
 40
0.9242424242424243
 40
0.9242424242424243
 40
0.9292929292929294
 40
0.9292929292929294
 40
0.9292929292929294
 40
0.9343434343434345
 40
0.9343434343434345
 40
0.9343434343434345
 40
0.9393939393939394
 40
0.9393939393939394
 40
0.9393939393939394
 40
0.9444444444444445
 40
0.9444444444444445
 40
0.9444444444444445
 40
0.9494949494949496
 40
0.9494949494949496
 40
0.9494949494949496
 40
0.9545454545454546
 40
0.9545454545454546
 40
0.9545454545454546
 40
0.9595959595959597
 40
0.9595959595959597
 40
0.9595959595959597
 40
0.9646464646464648
 40
0.9646464646464648
 40
0.9646464646464648
 40
0.9696969696969697
 40
0.9696969696969697
 40
0.9696969696969697
 40
0.9747474747474748
 40
0.9747474747474748
 40
0.9747474747474748
 40
0.9797979797979799
 40
0.9797979797979799
 40
0.9797979797979799
 40
0.984848484848485
 40
0.984848484848485
 40
0.984848484848485
 40
0.98989898989899
 40
0.98989898989899
 40
0.98989898989899
 40
0.994949494949495
 40
0.994949494949495
 40
0.994949494949495
 40
1.0
 40
1.0
 40
1.0
 40
1.0
 10
-18.8978
 20
58.2766
 30
0.0
 10
-18.2046
 20
58.5399
 30
0.0
 10
-17.5043
 20
58.7866
 30
0.0
 10
-16.8011
 20
59.0227
 30
0.0
 10
-15.9221
 20
59.3177
 30
0.0
 10
-15.0381
 20
59.5987
 30
0.0
 10
-14.149
 20
59.8631
 30
0.0
 10
-13.3348
 20
60.1052
 30
0.0
 10
-12.5171
 20
60.337
 30
0.0
 10
-11.6952
 20
60.5527
 30
0.0
 10
-11.0572
 20
60.7202
 30
0.0
 10
-10.4052
 20
60.8802
 30
0.0
 10
-9.7543
 20
60.9922
 30
0.0
 10
-9.7543
 20
60.9922
 30
0.0
 10
-9.139
 20
61.098
 30
0.0
 10
-9.139
 20
61.098
 30
0.0
 10
-9.139
 20
61.098
 30
0.0
 10
-8.6029
 20
58.6347
 30
0.0
 10
-8.6029
 20
58.6347
 30
0.0
 10
-8.6029
 20
58.6347
 30
0.0
 10
-9.0222
 20
58.4089
 30
0.0
 10
-9.0222
 20
58.4089
 30
0.0
 10
-10.1317
 20
57.8111
 30
0.0
 10
-11.033
 20
56.9404
 30
0.0
 10
-11.7694
 20
55.9426
 30
0.0
 10
-12.634
 20
54.771
 30
0.0
 10
-13.3773
 20
53.5189
 30
0.0
 10
-14.0114
 20
52.2152
 30
0.0
 10
-14.6662
 20
50.8691
 30
0.0
 10
-15.2523
 20
49.4914
 30
0.0
 10
-15.7616
 20
48.0866
 30
0.0
 10
-16.2187
 20
46.8258
 30
0.0
 10
-16.6893
 20
45.5674
 30
0.0
 10
-17.195
 20
44.3243
 30
0.0
 10
-17.4563
 20
43.6819
 30
0.0
 10
-17.7215
 20
43.0409
 30
0.0
 10
-17.9848
 20
42.3992
 30
0.0
 10
-18.2095
 20
41.8517
 30
0.0
 10
-18.4297
 20
41.3026
 30
0.0
 10
-18.6466
 20
40.7522
 30
0.0
 10
-17.8976
 20
40.5698
 30
0.0
 10
-17.1323
 20
40.4345
 30
0.0
 10
-16.3657
 20
40.377
 30
0.0
 10
-15.7893
 20
40.3338
 30
0.0
 10
-15.1804
 20
40.3792
 30
0.0
 10
-14.6579
 20
40.6347
 30
0.0
 10
-14.4222
 20
41.0733
 30
0.0
 10
-14.1815
 20
41.5095
 30
0.0
 10
-13.931
 20
41.9401
 30
0.0
 10
-13.4609
 20
42.7481
 30
0.0
 10
-12.9751
 20
43.5475
 30
0.0
 10
-12.4701
 20
44.3353
 30
0.0
 10
-12.0753
 20
44.9512
 30
0.0
 10
-11.6856
 20
45.572
 30
0.0
 10
-11.2809
 20
46.1817
 30
0.0
 10
-11.2809
 20
46.1817
 30
0.0
 10
-11.0898
 20
46.4696
 30
0.0
 10
-11.0898
 20
46.4696
 30
0.0
 10
-11.0898
 20
46.4696
 30
0.0
 10
-6.0119
 20
46.4696
 30
0.0
 10
-6.0119
 20
46.4696
 30
0.0
 10
-6.0119
 20
46.4696
 30
0.0
 10
-6.6406
 20
45.5017
 30
0.0
 10
-6.6406
 20
45.5017
 30
0.0
 10
-7.1939
 20
44.6497
 30
0.0
 10
-7.7303
 20
43.7872
 30
0.0
 10
-8.2498
 20
42.9152
 30
0.0
 10
-8.2498
 20
42.9152
 30
0.0
 10
-8.2583
 20
42.9014
 30
0.0
 10
-8.2583
 20
42.9014
 30
0.0
 10
-8.7594
 20
42.1073
 30
0.0
 10
-9.2325
 20
41.2953
 30
0.0
 10
-9.6867
 20
40.4747
 30
0.0
 10
-10.1477
 20
39.6417
 30
0.0
 10
-10.5835
 20
38.7942
 30
0.0
 10
-10.9808
 20
37.9304
 30
0.0
 10
-10.9808
 20
37.9304
 30
0.0
 10
-10.9864
 20
37.9186
 30
0.0
 10
-10.9864
 20
37.9186
 30
0.0
 10
-11.2006
 20
37.4772
 30
0.0
 10
-12.0544
 20
35.686
 30
0.0
 10
-12.4015
 20
34.5765
 30
0.0
 10
-11.9011
 20
35.118
 30
0.0
 10
-11.4376
 20
35.7074
 30
0.0
 10
-10.9972
 20
36.295
 30
0.0
 10
-10.391
 20
37.1038
 30
0.0
 10
-9.8185
 20
37.9382
 30
0.0
 10
-9.267
 20
38.7832
 30
0.0
 10
-8.6684
 20
39.7003
 30
0.0
 10
-8.0784
 20
40.6228
 30
0.0
 10
-7.4982
 20
41.551
 30
0.0
 10
-6.9664
 20
42.402
 30
0.0
 10
-6.4496
 20
43.2623
 30
0.0
 10
-5.9558
 20
44.1348
 30
0.0
 10
-5.5848
 20
44.7904
 30
0.0
 10
-5.2155
 20
45.4514
 30
0.0
 10
-4.872
 20
46.1211
 30
0.0
 10
-4.872
 20
46.1211
 30
0.0
 10
-4.6933
 20
46.4696
 30
0.0
 10
-4.6933
 20
46.4696
 30
0.0
 10
-4.6933
 20
46.4696
 30
0.0
 10
0.213
 20
46.4696
 30
0.0
 10
0.213
 20
46.4696
 30
0.0
 10
0.213
 20
46.4696
 30
0.0
 10
-0.1963
 20
45.5809
 30
0.0
 10
-0.1963
 20
45.5809
 30
0.0
 10
-0.8603
 20
44.1392
 30
0.0
 10
-1.5585
 20
42.7124
 30
0.0
 10
-2.2648
 20
41.2901
 30
0.0
 10
-2.9495
 20
39.9112
 30
0.0
 10
-3.6213
 20
38.5261
 30
0.0
 10
-4.3026
 20
37.1456
 30
0.0
 10
-4.6685
 20
36.4041
 30
0.0
 10
-5.0329
 20
35.6619
 30
0.0
 10
-5.3956
 20
34.9189
 30
0.0
 10
-5.0495
 20
35.196
 30
0.0
 10
-4.7127
 20
35.4846
 30
0.0
 10
-4.3856
 20
35.7841
 30
0.0
 10
-3.6836
 20
36.427
 30
0.0
 10
-3.0935
 20
37.1653
 30
0.0
 10
-2.6017
 20
37.9683
 30
0.0
 10
-2.6017
 20
37.9683
 30
0.0
 10
-2.6146
 20
37.9815
 30
0.0
 10
-2.6146
 20
37.9815
 30
0.0
 10
-2.6146
 20
37.9815
 30
0.0
 10
0.269
 20
43.8718
 30
0.0
 10
0.269
 20
43.8718
 30
0.0
 10
0.2331
 20
44.7776
 30
0.0
 10
0.4076
 20
45.6674
 30
0.0
 10
0.7642
 20
46.5076
 30
0.0
 10
1.1753
 20
47.4762
 30
0.0
 10
1.813
 20
48.3247
 30
0.0
 10
2.5704
 20
49.0631
 30
0.0
 10
2.5704
 20
49.0631
 30
0.0
 10
2.5822
 20
49.0744
 30
0.0
 10
2.5822
 20
49.0744
 30
0.0
 10
3.146
 20
49.5965
 30
0.0
 10
3.8442
 20
50.0572
 30
0.0
 10
4.6399
 20
50.1219
 30
0.0
 10
5.3226
 20
50.1773
 30
0.0
 10
5.9659
 20
49.9896
 30
0.0
 10
6.3532
 20
49.4106
 30
0.0
 10
6.7423
 20
48.8289
 30
0.0
 10
6.6708
 20
48.1066
 30
0.0
 10
6.4744
 20
47.4731
 30
0.0
 10
6.2019
 20
46.594
 30
0.0
 10
5.4992
 20
45.7756
 30
0.0
 10
4.844
 20
45.1368
 30
0.0
 10
4.844
 20
45.1368
 30
0.0
 10
4.836
 20
45.129
 30
0.0
 10
4.836
 20
45.129
 30
0.0
 10
4.5238
 20
44.8352
 30
0.0
 10
3.6697
 20
44.0132
 30
0.0
 10
3.5316
 20
43.6094
 30
0.0
 10
3.4659
 20
43.4174
 30
0.0
 10
3.4836
 20
43.2669
 30
0.0
 10
3.6024
 20
43.1003
 30
0.0
 10
3.857
 20
42.7435
 30
0.0
 10
4.2055
 20
42.4088
 30
0.0
 10
4.5353
 20
42.1183
 30
0.0
 10
5.1431
 20
41.583
 30
0.0
 10
5.5757
 20
40.8321
 30
0.0
 10
5.9001
 20
40.1074
 30
0.0
 10
6.2969
 20
39.2206
 30
0.0
 10
6.4128
 20
38.2958
 30
0.0
 10
6.2277
 20
37.3441
 30
0.0
 10
6.1185
 20
36.7828
 30
0.0
 10
5.9483
 20
36.2411
 30
0.0
 10
5.7155
 20
35.7237
 30
0.0
 10
6.092
 20
36.0804
 30
0.0
 10
6.4467
 20
36.4589
 30
0.0
 10
6.7792
 20
36.856
 30
0.0
 10
7.2172
 20
37.3791
 30
0.0
 10
7.6133
 20
37.9386
 30
0.0
 10
7.9387
 20
38.5353
 30
0.0
 10
8.0184
 20
38.7131
 30
0.0
 10
8.1022
 20
38.8893
 30
0.0
 10
8.1896
 20
39.0636
 30
0.0
 10
8.9512
 20
40.5823
 30
0.0
 10
9.8758
 20
42.0781
 30
0.0
 10
11.0255
 20
43.3495
 30
0.0
 10
11.9036
 20
44.3207
 30
0.0
 10
12.9092
 20
45.2577
 30
0.0
 10
14.0394
 20
45.9464
 30
0.0
 10
14.9134
 20
46.4789
 30
0.0
 10
15.8932
 20
46.9185
 30
0.0
 10
16.9211
 20
47.0617
 30
0.0
 10
17.7254
 20
47.1737
 30
0.0
 10
18.5788
 20
47.1483
 30
0.0
 10
19.3183
 20
46.7877
 30
0.0
 10
19.3183
 20
46.7877
 30
0.0
 10
19.3334
 20
46.7801
 30
0.0
 10
19.3334
 20
46.7801
 30
0.0
 10
19.8912
 20
46.4901
 30
0.0
 10
20.3226
 20
46.0628
 30
0.0
 10
20.6264
 20
45.5226
 30
0.0
 10
20.9377
 20
44.9692
 30
0.0
 10
21.0897
 20
44.3613
 30
0.0
 10
21.1218
 20
43.7334
 30
0.0
 10
21.1574
 20
43.0393
 30
0.0
 10
21.0475
 20
42.3424
 30
0.0
 10
20.8581
 20
41.6746
 30
0.0
 10
20.6357
 20
40.891
 30
0.0
 10
20.2532
 20
40.1638
 30
0.0
 10
19.7805
 20
39.4968
 30
0.0
 10
19.15
 20
38.6072
 30
0.0
 10
18.4015
 20
37.789
 30
0.0
 10
17.5054
 20
37.1462
 30
0.0
 10
16.7602
 20
36.6116
 30
0.0
 10
15.9272
 20
36.1606
 30
0.0
 10
15.0272
 20
35.9324
 30
0.0
 10
14.2795
 20
35.7429
 30
0.0
 10
13.4888
 20
35.6867
 30
0.0
 10
12.738
 20
35.8931
 30
0.0
 10
12.4868
 20
35.9622
 30
0.0
 10
12.2562
 20
36.0595
 30
0.0
 10
12.0474
 20
36.184
 30
0.0
 10
11.9998
 20
35.8096
 30
0.0
 10
11.9858
 20
35.4321
 30
0.0
 10
12.0227
 20
35.0655
 30
0.0
 10
12.0659
 20
34.6361
 30
0.0
 10
12.2128
 20
34.2879
 30
0.0
 10
12.6309
 20
34.1045
 30
0.0
 10
12.6309
 20
34.1045
 30
0.0
 10
12.6429
 20
34.0992
 30
0.0
 10
12.6429
 20
34.0992
 30
0.0
 10
12.6429
 20
34.0992
 30
0.0
 10
12.6547
 20
34.0935
 30
0.0
 10
12.6547
 20
34.0935
 30
0.0
 10
13.0681
 20
33.8919
 30
0.0
 10
13.638
 20
33.9497
 30
0.0
 10
14.0729
 20
34.0394
 30
0.0
 10
14.8257
 20
34.1947
 30
0.0
 10
15.5389
 20
34.5111
 30
0.0
 10
16.1931
 20
34.9008
 30
0.0
 10
16.9898
 20
35.3755
 30
0.0
 10
17.7152
 20
35.9611
 30
0.0
 10
18.3746
 20
36.6039
 30
0.0
 10
19.0673
 20
37.2792
 30
0.0
 10
19.657
 20
38.0388
 30
0.0
 10
20.128
 20
38.8762
 30
0.0
 10
20.128
 20
38.8762
 30
0.0
 10
20.552
 20
39.6298
 30
0.0
 10
20.552
 20
39.6298
 30
0.0
 10
20.552
 20
39.6298
 30
0.0
 10
22.5055
 20
37.6425
 30
0.0
 10
22.5055
 20
37.6425
 30
0.0
 10
22.5055
 20
37.6425
 30
0.0
 10
22.2642
 20
37.2331
 30
0.0
 10
22.2642
 20
37.2331
 30
0.0
 10
21.4713
 20
35.8874
 30
0.0
 10
20.5203
 20
34.6411
 30
0.0
 10
19.4019
 20
33.5355
 30
0.0
 10
18.3807
 20
32.5259
 30
0.0
 10
17.2401
 20
31.6265
 30
0.0
 10
15.9713
 20
30.9286
 30
0.0
 10
14.8504
 20
30.3121
 30
0.0
 10
13.637
 20
29.8671
 30
0.0
 10
12.354
 20
29.719
 30
0.0
 10
11.1393
 20
29.5787
 30
0.0
 10
9.9886
 20
29.7943
 30
0.0
 10
8.9519
 20
30.4315
 30
0.0
 10
8.3722
 20
30.7878
 30
0.0
 10
7.9265
 20
31.277
 30
0.0
 10
7.6069
 20
31.8674
 30
0.0
 10
7.3728
 20
32.2996
 30
0.0
 10
7.2185
 20
32.7637
 30
0.0
 10
7.1247
 20
33.2408
 30
0.0
 10
6.8109
 20
32.9737
 30
0.0
 10
6.4842
 20
32.7209
 30
0.0
 10
6.1454
 20
32.4833
 30
0.0
 10
5.2925
 20
31.8851
 30
0.0
 10
4.381
 20
31.3729
 30
0.0
 10
3.4174
 20
30.9638
 30
0.0
 10
2.571
 20
30.6044
 30
0.0
 10
1.6872
 20
30.3419
 30
0.0
 10
0.7756
 20
30.2036
 30
0.0
 10
0.7756
 20
30.2036
 30
0.0
 10
0.3505
 20
29.7147
 30
0.0
 10
0.3505
 20
29.7147
 30
0.0
 10
0.3558
 20
29.7144
 30
0.0
 10
0.3611
 20
29.7141
 30
0.0
 10
0.3664
 20
29.7139
 30
0.0
 10
0.9713
 20
29.682
 30
0.0
 10
1.5559
 20
29.5314
 30
0.0
 10
2.0665
 20
29.206
 30
0.0
 10
2.602
 20
28.8646
 30
0.0
 10
2.9361
 20
28.3623
 30
0.0
 10
3.0863
 20
27.7583
 30
0.0
 10
3.2628
 20
27.0485
 30
0.0
 10
3.0562
 20
26.3194
 30
0.0
 10
2.7294
 20
25.6821
 30
0.0
 10
2.4771
 20
25.1902
 30
0.0
 10
2.1293
 20
24.7521
 30
0.0
 10
1.7314
 20
24.3642
 30
0.0
 10
1.3
 20
23.9436
 30
0.0
 10
0.8123
 20
23.585
 30
0.0
 10
0.2868
 20
23.2836
 30
0.0
 10
-0.2821
 20
22.9573
 30
0.0
 10
-0.8954
 20
22.7135
 30
0.0
 10
-1.5293
 20
22.5369
 30
0.0
 10
-2.2368
 20
22.3398
 30
0.0
 10
-2.9762
 20
22.2656
 30
0.0
 10
-3.7105
 20
22.2996
 30
0.0
 10
-4.2653
 20
22.3254
 30
0.0
 10
-4.8139
 20
22.4254
 30
0.0
 10
-5.3339
 20
22.6178
 30
0.0
 10
-5.7898
 20
22.7864
 30
0.0
 10
-6.2233
 20
23.0176
 30
0.0
 10
-6.588
 20
23.3357
 30
0.0
 10
-6.9076
 20
23.6145
 30
0.0
 10
-7.1786
 20
23.9395
 30
0.0
 10
-7.3708
 20
24.3144
 30
0.0
 10
-7.5459
 20
24.6558
 30
0.0
 10
-7.6583
 20
25.0245
 30
0.0
 10
-7.6583
 20
25.4085
 30
0.0
 10
-7.6583
 20
25.4085
 30
0.0
 10
-7.6583
 20
25.8145
 30
0.0
 10
-7.6583
 20
25.8145
 30
0.0
 10
-7.6583
 20
25.8145
 30
0.0
 10
-5.1257
 20
26.9368
 30
0.0
 10
-5.1257
 20
26.9368
 30
0.0
 10
-5.1257
 20
26.9368
 30
0.0
 10
-4.9374
 20
26.2025
 30
0.0
 10
-4.9374
 20
26.2025
 30
0.0
 10
-4.8454
 20
25.8433
 30
0.0
 10
-4.6679
 20
25.5637
 30
0.0
 10
-4.3261
 20
25.392
 30
0.0
 10
-4.023
 20
25.2398
 30
0.0
 10
-3.7191
 20
25.1836
 30
0.0
 10
-3.3904
 20
25.2837
 30
0.0
 10
-3.3904
 20
25.2837
 30
0.0
 10
-3.3682
 20
25.2905
 30
0.0
 10
-3.3682
 20
25.2905
 30
0.0
 10
-3.3682
 20
25.2905
 30
0.0
 10
-3.3456
 20
25.2957
 30
0.0
 10
-3.3456
 20
25.2957
 30
0.0
 10
-2.9903
 20
25.3772
 30
0.0
 10
-2.6996
 20
25.5439
 30
0.0
 10
-2.4637
 20
25.8158
 30
0.0
 10
-2.2426
 20
26.0705
 30
0.0
 10
-2.0336
 20
26.3703
 30
0.0
 10
-1.9284
 20
26.6906
 30
0.0
 10
-1.8836
 20
26.827
 30
0.0
 10
-1.856
 20
26.9807
 30
0.0
 10
-1.9148
 20
27.1165
 30
0.0
 10
-1.9529
 20
27.1193
 30
0.0
 10
-2.0062
 20
27.1139
 30
0.0
 10
-2.0497
 20
27.1076
 30
0.0
 10
-2.0497
 20
27.1076
 30
0.0
 10
-4.1246
 20
26.2558
 30
0.0
 10
-4.1246
 20
26.2558
 30
0.0
 10
-4.1246
 20
26.2558
 30
0.0
 10
-5.3988
 20
27.9951
 30
0.0
 10
-5.3988
 20
27.9951
 30
0.0
 10
-5.3988
 20
27.9951
 30
0.0
 10
-2.979
 20
30.3906
 30
0.0
 10
-2.979
 20
30.3906
 30
0.0
 10
-3.2423
 20
30.4756
 30
0.0
 10
-3.4998
 20
30.5782
 30
0.0
 10
-3.7497
 20
30.7001
 30
0.0
 10
-3.7497
 20
30.7001
 30
0.0
 10
-4.2993
 20
30.9679
 30
0.0
 10
-4.2993
 20
30.9679
 30
0.0
 10
-4.2993
 20
30.9679
 30
0.0
 10
-3.333
 20
33.1217
 30
0.0
 10
-3.333
 20
33.1217
 30
0.0
 10
-4.6708
 20
32.0941
 30
0.0
 10
-6.0991
 20
31.1852
 30
0.0
 10
-7.5941
 20
30.3905
 30
0.0
 10
-7.5941
 20
30.3905
 30
0.0
 10
-7.6021
 20
30.3711
 30
0.0
 10
-7.6021
 20
30.3711
 30
0.0
 10
-7.6021
 20
30.3711
 30
0.0
 10
-7.6103
 20
30.354
 30
0.0
 10
-7.6103
 20
30.354
 30
0.0
 10
-8.3183
 20
28.8909
 30
0.0
 10
-9.1317
 20
27.4727
 30
0.0
 10
-10.0741
 20
26.1405
 30
0.0
 10
-10.8829
 20
24.9971
 30
0.0
 10
-11.8061
 20
23.8957
 30
0.0
 10
-12.873
 20
22.9711
 30
0.0
 10
-13.7314
 20
22.2272
 30
0.0
 10
-14.7271
 20
21.5757
 30
0.0
 10
-15.8376
 20
21.2562
 30
0.0
 10
-16.8843
 20
20.9551
 30
0.0
 10
-17.9172
 20
21.0767
 30
0.0
 10
-18.8207
 20
21.6835
 30
0.0
 10
-19.4922
 20
22.1346
 30
0.0
 10
-19.9838
 20
22.7418
 30
0.0
 10
-20.1963
 20
23.514
 30
0.0
 10
-20.4208
 20
24.3297
 30
0.0
 10
-20.2374
 20
25.1484
 30
0.0
 10
-19.8732
 20
25.888
 30
0.0
 10
-19.8389
 20
25.9623
 30
0.0
 10
-19.8028
 20
26.0354
 30
0.0
 10
-19.7649
 20
26.1077
 30
0.0
 10
-19.9676
 20
25.9843
 30
0.0
 10
-20.1951
 20
25.9005
 30
0.0
 10
-20.4423
 20
25.8566
 30
0.0
 10
-20.8841
 20
25.7784
 30
0.0
 10
-21.3361
 20
25.8097
 30
0.0
 10
-21.7724
 20
25.9043
 30
0.0
 10
-22.2648
 20
26.0109
 30
0.0
 10
-22.7105
 20
26.2246
 30
0.0
 10
-23.1022
 20
26.5338
 30
0.0
 10
-24.1017
 20
27.2528
 30
0.0
 10
-24.7751
 20
28.2129
 30
0.0
 10
-25.1431
 20
29.3673
 30
0.0
 10
-25.5074
 20
30.5099
 30
0.0
 10
-25.6764
 20
31.6926
 30
0.0
 10
-25.6764
 20
32.8883
 30
0.0
 10
-25.6764
 20
34.0993
 30
0.0
 10
-25.5541
 20
35.3057
 30
0.0
 10
-25.3134
 20
36.494
 30
0.0
 10
-25.1503
 20
37.2994
 30
0.0
 10
-24.966
 20
38.109
 30
0.0
 10
-24.7398
 20
38.9031
 30
0.0
 10
-24.7398
 20
38.9031
 30
0.0
 10
-25.0887
 20
38.9959
 30
0.0
 10
-25.0887
 20
38.9959
 30
0.0
 10
-25.8318
 20
37.8569
 30
0.0
 10
-26.6152
 20
36.7412
 30
0.0
 10
-27.4184
 20
35.6425
 30
0.0
 10
-28.4177
 20
34.2756
 30
0.0
 10
-29.5044
 20
32.9712
 30
0.0
 10
-30.669
 20
31.7351
 30
0.0
 10
-31.8092
 20
30.5251
 30
0.0
 10
-33.0387
 20
29.3952
 30
0.0
 10
-34.361
 20
28.3759
 30
0.0
 10
-35.5594
 20
27.4521
 30
0.0
 10
-36.8991
 20
26.6859
 30
0.0
 10
-38.3691
 20
26.2576
 30
0.0
 10
-39.7402
 20
25.8581
 30
0.0
 10
-41.1191
 20
25.8517
 30
0.0
 10
-42.4805
 20
26.2835
 30
0.0
 10
-44.0419
 20
26.7785
 30
0.0
 10
-45.2639
 20
27.957
 30
0.0
 10
-46.2031
 20
29.2288
 30
0.0
 10
-46.2031
 20
29.2288
 30
0.0
 10
-46.2099
 20
29.2383
 30
0.0
 10
-46.2099
 20
29.2383
 30
0.0
 10
-46.7872
 20
30.0513
 30
0.0
 10
-47.1681
 20
30.9498
 30
0.0
 10
-47.3452
 20
31.9233
 30
0.0
 10
-47.5133
 20
32.8467
 30
0.0
 10
-47.5427
 20
33.7822
 30
0.0
 10
-47.4168
 20
34.7123
 30
0.0
 10
-47.2271
 20
36.6321
 30
0.0
 10
-46.5172
 20
38.3637
 30
0.0
 10
-45.315
 20
39.8963
 30
0.0
 10
-45.315
 20
39.8963
 30
0.0
 10
-45.3064
 20
39.9071
 30
0.0
 10
-45.3064
 20
39.9071
 30
0.0
 10
-44.6646
 20
40.6894
 30
0.0
 10
-43.9082
 20
41.3681
 30
0.0
 10
-43.073
 20
41.9497
 30
0.0
 10
-42.1308
 20
42.6059
 30
0.0
 10
-41.0564
 20
43.0031
 30
0.0
 10
-39.9228
 20
43.2104
 30
0.0
 10
-39.0673
 20
43.3668
 30
0.0
 10
-38.2162
 20
43.3318
 30
0.0
 10
-37.382
 20
43.0878
 30
0.0
 10
-36.859
 20
42.9348
 30
0.0
 10
-36.3763
 20
42.7101
 30
0.0
 10
-35.9425
 20
42.4094
 30
0.0
 10
-35.6701
 20
42.8592
 30
0.0
 10
-35.3218
 20
43.2593
 30
0.0
 10
-34.8777
 20
43.5721
 30
0.0
 10
-34.2442
 20
44.018
 30
0.0
 10
-33.5225
 20
44.2803
 30
0.0
 10
-32.7511
 20
44.39
 30
0.0
 10
-31.9193
 20
44.5083
 30
0.0
 10
-31.0702
 20
44.4642
 30
0.0
 10
-30.2445
 20
44.323
 30
0.0
 10
-29.495
 20
44.1948
 30
0.0
 10
-28.7523
 20
44.0283
 30
0.0
 10
-28.0181
 20
43.8329
 30
0.0
 10
-27.0754
 20
45.1651
 30
0.0
 10
-26.1143
 20
46.4851
 30
0.0
 10
-25.1355
 20
47.7922
 30
0.0
 10
-24.0569
 20
49.2329
 30
0.0
 10
-22.9528
 20
50.6556
 30
0.0
 10
-21.8076
 20
52.0466
 30
0.0
 10
-21.0649
 20
52.9489
 30
0.0
 10
-20.3014
 20
53.8364
 30
0.0
 10
-19.5429
 20
54.7262
 30
0.0
 10
-19.3617
 20
54.939
 30
0.0
 10
-19.1784
 20
55.1503
 30
0.0
 10
-18.9932
 20
55.3601
 30
0.0
 10
-18.9932
 20
55.3601
 30
0.0
 10
-22.1293
 20
54.0675
 30
0.0
 10
-22.1293
 20
54.0675
 30
0.0
 10
-22.1293
 20
54.0675
 30
0.0
 10
-22.4216
 20
54.5234
 30
0.0
 10
-22.4216
 20
54.5234
 30
0.0
 10
-23.0935
 20
55.5714
 30
0.0
 10
-24.02
 20
56.3217
 30
0.0
 10
-25.1908
 20
56.7973
 30
0.0
 10
-25.8749
 20
57.0752
 30
0.0
 10
-26.6011
 20
57.2106
 30
0.0
 10
-27.3416
 20
57.1977
 30
0.0
 10
-28.0729
 20
57.185
 30
0.0
 10
-28.7874
 20
57.0588
 30
0.0
 10
-29.4729
 20
56.8098
 30
0.0
 10
-30.1425
 20
56.5666
 30
0.0
 10
-30.752
 20
56.2194
 30
0.0
 10
-31.2954
 20
55.7671
 30
0.0
 10
-31.8191
 20
55.3313
 30
0.0
 10
-32.2475
 20
54.8168
 30
0.0
 10
-32.5674
 20
54.2226
 30
0.0
 10
-32.8335
 20
53.7283
 30
0.0
 10
-33.0158
 20
53.1831
 30
0.0
 10
-33.1459
 20
52.6409
 30
0.0
 10
-33.2862
 20
52.0566
 30
0.0
 10
-33.3467
 20
51.4597
 30
0.0
 10
-33.3057
 20
50.8603
 30
0.0
 10
-33.2698
 20
50.3341
 30
0.0
 10
-33.1357
 20
49.8308
 30
0.0
 10
-32.878
 20
49.366
 30
0.0
 10
-32.6431
 20
48.9423
 30
0.0
 10
-32.2852
 20
48.6592
 30
0.0
 10
-31.8332
 20
48.4702
 30
0.0
 10
-31.3821
 20
48.2818
 30
0.0
 10
-30.9333
 20
48.2398
 30
0.0
 10
-30.4641
 20
48.3848
 30
0.0
 10
-30.0198
 20
48.5222
 30
0.0
 10
-29.643
 20
48.7529
 30
0.0
 10
-29.3634
 20
49.1208
 30
0.0
 10
-29.1735
 20
49.3708
 30
0.0
 10
-29.0591
 20
49.66
 30
0.0
 10
-28.9948
 20
49.9631
 30
0.0
 10
-28.9219
 20
50.3064
 30
0.0
 10
-28.8933
 20
50.6587
 30
0.0
 10
-28.9189
 20
51.0087
 30
0.0
 10
-28.9189
 20
51.0087
 30
0.0
 10
-28.9547
 20
51.497
 30
0.0
 10
-28.9547
 20
51.497
 30
0.0
 10
-28.9547
 20
51.497
 30
0.0
 10
-28.4783
 20
51.6517
 30
0.0
 10
-28.4783
 20
51.6517
 30
0.0
 10
-27.6756
 20
51.9127
 30
0.0
 10
-26.8505
 20
51.9124
 30
0.0
 10
-26.125
 20
51.4547
 30
0.0
 10
-25.3697
 20
50.9782
 30
0.0
 10
-25.0844
 20
50.1954
 30
0.0
 10
-25.0844
 20
49.3438
 30
0.0
 10
-25.0844
 20
48.3716
 30
0.0
 10
-25.3522
 20
47.4656
 30
0.0
 10
-25.9647
 20
46.693
 30
0.0
 10
-26.5275
 20
45.9828
 30
0.0
 10
-27.2381
 20
45.4446
 30
0.0
 10
-28.0834
 20
45.0891
 30
0.0
 10
-28.9252
 20
44.7351
 30
0.0
 10
-29.8131
 20
44.5792
 30
0.0
 10
-30.7296
 20
44.6105
 30
0.0
 10
-31.6631
 20
44.6424
 30
0.0
 10
-32.5304
 20
44.9016
 30
0.0
 10
-33.315
 20
45.3945
 30
0.0
 10
-34.0166
 20
45.8354
 30
0.0
 10
-34.6051
 20
46.3974
 30
0.0
 10
-35.0328
 20
47.0979
 30
0.0
 10
-35.4413
 20
47.7669
 30
0.0
 10
-35.7264
 20
48.4913
 30
0.0
 10
-35.8978
 20
49.2511
 30
0.0
 10
-36.0694
 20
50.0114
 30
0.0
 10
-36.1411
 20
50.7919
 30
0.0
 10
-36.1098
 20
51.5698
 30
0.0
 10
-36.0802
 20
52.3032
 30
0.0
 10
-35.9925
 20
53.0345
 30
0.0
 10
-35.8325
 20
53.752
 30
0.0
 10
-35.8325
 20
53.752
 30
0.0
 10
-35.8296
 20
53.764
 30
0.0
 10
-35.8296
 20
53.764
 30
0.0
 10
-35.5245
 20
55.0136
 30
0.0
 10
-34.9824
 20
56.1682
 30
0.0
 10
-34.1787
 20
57.1868
 30
0.0
 10
-33.4073
 20
58.1646
 30
0.0
 10
-32.4755
 20
58.9798
 30
0.0
 10
-31.388
 20
59.6097
 30
0.0
 10
-30.2961
 20
60.2423
 30
0.0
 10
-29.1086
 20
60.6562
 30
0.0
 10
-27.8566
 20
60.8646
 30
0.0
 10
-26.5619
 20
61.0802
 30
0.0
 10
-25.2578
 20
61.0424
 30
0.0
 10
-23.9735
 20
60.7741
 30
0.0
 10
-23.9735
 20
60.7741
 30
0.0
 10
-23.9609
 20
60.7713
 30
0.0
 10
-23.9609
 20
60.7713
 30
0.0
 10
-22.9616
 20
60.5421
 30
0.0
 10
-21.9914
 20
60.2034
 30
0.0
 10
-21.0857
 20
59.7303
 30
0.0
 10
-20.3051
 20
59.3226
 30
0.0
 10
-19.5759
 20
58.8303
 30
0.0
 10
-18.8978
 20
58.2766
 30
0.0
  0
SPLINE
  5
61
330
1F
100
AcDbEntity
  8
Katman 1
 62
   250
370
     9
100
AcDbSpline
210
0.0
220
0.0
230
1.0
 70
    11
 71
     3
 72
    32
 73
    28
 74
     0
 42
0.0000000001
 43
0.0000000001
 40
0.0
 40
0.0
 40
0.0
 40
0.0
 40
0.1111111111111111
 40
0.1111111111111111
 40
0.1111111111111111
 40
0.2222222222222222
 40
0.2222222222222222
 40
0.2222222222222222
 40
0.3333333333333333
 40
0.3333333333333333
 40
0.3333333333333333
 40
0.4444444444444444
 40
0.4444444444444444
 40
0.4444444444444444
 40
0.5555555555555556
 40
0.5555555555555556
 40
0.5555555555555556
 40
0.6666666666666666
 40
0.6666666666666666
 40
0.6666666666666666
 40
0.7777777777777777
 40
0.7777777777777777
 40
0.7777777777777777
 40
0.8888888888888888
 40
0.8888888888888888
 40
0.8888888888888888
 40
1.0
 40
1.0
 40
1.0
 40
1.0
 10
-3.088
 20
33.3123
 30
0.0
 10
-3.088
 20
33.3123
 30
0.0
 10
-2.7369
 20
33.2532
 30
0.0
 10
-2.7369
 20
33.2532
 30
0.0
 10
-2.0191
 20
33.1325
 30
0.0
 10
-1.4011
 20
33.3551
 30
0.0
 10
-0.8361
 20
33.7894
 30
0.0
 10
-0.1142
 20
34.3443
 30
0.0
 10
0.4362
 20
35.0486
 30
0.0
 10
0.8509
 20
35.845
 30
0.0
 10
1.2957
 20
36.6993
 30
0.0
 10
1.5749
 20
37.605
 30
0.0
 10
1.6835
 20
38.5571
 30
0.0
 10
1.7532
 20
39.1693
 30
0.0
 10
1.7205
 20
39.7841
 30
0.0
 10
1.5074
 20
40.3543
 30
0.0
 10
1.5074
 20
40.3543
 30
0.0
 10
0.2044
 20
37.7179
 30
0.0
 10
0.2044
 20
37.7179
 30
0.0
 10
0.2044
 20
37.7179
 30
0.0
 10
0.2403
 20
37.6813
 30
0.0
 10
0.2403
 20
37.6813
 30
0.0
 10
0.2403
 20
37.6813
 30
0.0
 10
0.0704
 20
37.2975
 30
0.0
 10
0.0704
 20
37.2975
 30
0.0
 10
-0.6299
 20
35.7142
 30
0.0
 10
-1.7212
 20
34.3954
 30
0.0
 10
-3.088
 20
33.3123
 30
0.0
  0
SPLINE
  5
62
330
1F
100
AcDbEntity
  8
Katman 1
 62
   250
370
     9
100
AcDbSpline
210
0.0
220
0.0
230
1.0
 70
    11
 71
     3
 72
    56
 73
    52
 74
     0
 42
0.0000000001
 43
0.0000000001
 40
0.0
 40
0.0
 40
0.0
 40
0.0
 40
0.0588235294117647
 40
0.0588235294117647
 40
0.0588235294117647
 40
0.1176470588235294
 40
0.1176470588235294
 40
0.1176470588235294
 40
0.1764705882352941
 40
0.1764705882352941
 40
0.1764705882352941
 40
0.2352941176470588
 40
0.2352941176470588
 40
0.2352941176470588
 40
0.2941176470588235
 40
0.2941176470588235
 40
0.2941176470588235
 40
0.3529411764705882
 40
0.3529411764705882
 40
0.3529411764705882
 40
0.4117647058823529
 40
0.4117647058823529
 40
0.4117647058823529
 40
0.4705882352941176
 40
0.4705882352941176
 40
0.4705882352941176
 40
0.5294117647058824
 40
0.5294117647058824
 40
0.5294117647058824
 40
0.5882352941176471
 40
0.5882352941176471
 40
0.5882352941176471
 40
0.6470588235294118
 40
0.6470588235294118
 40
0.6470588235294118
 40
0.7058823529411764
 40
0.7058823529411764
 40
0.7058823529411764
 40
0.7647058823529411
 40
0.7647058823529411
 40
0.7647058823529411
 40
0.8235294117647058
 40
0.8235294117647058
 40
0.8235294117647058
 40
0.8823529411764706
 40
0.8823529411764706
 40
0.8823529411764706
 40
0.9411764705882353
 40
0.9411764705882353
 40
0.9411764705882353
 40
1.0
 40
1.0
 40
1.0
 40
1.0
 10
-18.9764
 20
27.2187
 30
0.0
 10
-18.8458
 20
27.3604
 30
0.0
 10
-18.7072
 20
27.4963
 30
0.0
 10
-18.5614
 20
27.6262
 30
0.0
 10
-17.9862
 20
28.139
 30
0.0
 10
-17.351
 20
28.5869
 30
0.0
 10
-16.6858
 20
28.9817
 30
0.0
 10
-16.0647
 20
29.3503
 30
0.0
 10
-15.4224
 20
29.6854
 30
0.0
 10
-14.767
 20
29.9926
 30
0.0
 10
-15.4302
 20
29.9983
 30
0.0
 10
-16.0784
 20
30.1502
 30
0.0
 10
-16.6122
 20
30.5506
 30
0.0
 10
-17.1932
 20
30.9863
 30
0.0
 10
-17.4636
 20
31.6424
 30
0.0
 10
-17.5601
 20
32.333
 30
0.0
 10
-17.679
 20
33.1832
 30
0.0
 10
-17.5097
 20
34.1145
 30
0.0
 10
-17.2803
 20
34.9348
 30
0.0
 10
-17.0356
 20
35.8095
 30
0.0
 10
-16.6592
 20
36.6945
 30
0.0
 10
-16.2523
 20
37.5401
 30
0.0
 10
-16.4102
 20
37.5275
 30
0.0
 10
-16.5686
 20
37.5191
 30
0.0
 10
-16.7273
 20
37.5152
 30
0.0
 10
-17.7514
 20
37.4896
 30
0.0
 10
-18.773
 20
37.5643
 30
0.0
 10
-19.782
 20
37.7278
 30
0.0
 10
-20.0216
 20
37.0477
 30
0.0
 10
-20.2319
 20
36.3579
 30
0.0
 10
-20.4135
 20
35.6609
 30
0.0
 10
-20.6311
 20
34.8255
 30
0.0
 10
-20.8067
 20
33.9785
 30
0.0
 10
-20.9255
 20
33.1242
 30
0.0
 10
-21.029
 20
32.3796
 30
0.0
 10
-21.0607
 20
31.6233
 30
0.0
 10
-20.9883
 20
30.8745
 30
0.0
 10
-20.9278
 20
30.2498
 30
0.0
 10
-20.7711
 20
29.6369
 30
0.0
 10
-20.4687
 20
29.0801
 30
0.0
 10
-20.3125
 20
28.7923
 30
0.0
 10
-19.7335
 20
28.5795
 30
0.0
 10
-19.4403
 20
28.488
 30
0.0
 10
-19.4403
 20
28.488
 30
0.0
 10
-19.0835
 20
28.3767
 30
0.0
 10
-19.0835
 20
28.3767
 30
0.0
 10
-19.0835
 20
28.3767
 30
0.0
 10
-19.005
 20
28.0196
 30
0.0
 10
-19.005
 20
28.0196
 30
0.0
 10
-18.9458
 20
27.7501
 30
0.0
 10
-18.9301
 20
27.4782
 30
0.0
 10
-18.9764
 20
27.2187
 30
0.0
  0
SPLINE
  5
63
330
1F
100
AcDbEntity
  8
Katman 1
 62
   250
370
     9
100
AcDbSpline
210
0.0
220
0.0
230
1.0
 70
    11
 71
     3
 72
    83
 73
    79
 74
     0
 42
0.0000000001
 43
0.0000000001
 40
0.0
 40
0.0
 40
0.0
 40
0.0
 40
0.0384615384615385
 40
0.0384615384615385
 40
0.0384615384615385
 40
0.0769230769230769
 40
0.0769230769230769
 40
0.0769230769230769
 40
0.1153846153846154
 40
0.1153846153846154
 40
0.1153846153846154
 40
0.1538461538461539
 40
0.1538461538461539
 40
0.1538461538461539
 40
0.1923076923076923
 40
0.1923076923076923
 40
0.1923076923076923
 40
0.2307692307692308
 40
0.2307692307692308
 40
0.2307692307692308
 40
0.2692307692307693
 40
0.2692307692307693
 40
0.2692307692307693
 40
0.3076923076923077
 40
0.3076923076923077
 40
0.3076923076923077
 40
0.3461538461538461
 40
0.3461538461538461
 40
0.3461538461538461
 40
0.3846153846153846
 40
0.3846153846153846
 40
0.3846153846153846
 40
0.4230769230769231
 40
0.4230769230769231
 40
0.4230769230769231
 40
0.4615384615384616
 40
0.4615384615384616
 40
0.4615384615384616
 40
0.5
 40
0.5
 40
0.5
 40
0.5384615384615385
 40
0.5384615384615385
 40
0.5384615384615385
 40
0.576923076923077
 40
0.576923076923077
 40
0.576923076923077
 40
0.6153846153846154
 40
0.6153846153846154
 40
0.6153846153846154
 40
0.6538461538461539
 40
0.6538461538461539
 40
0.6538461538461539
 40
0.6923076923076923
 40
0.6923076923076923
 40
0.6923076923076923
 40
0.7307692307692308
 40
0.7307692307692308
 40
0.7307692307692308
 40
0.7692307692307693
 40
0.7692307692307693
 40
0.7692307692307693
 40
0.8076923076923077
 40
0.8076923076923077
 40
0.8076923076923077
 40
0.8461538461538463
 40
0.8461538461538463
 40
0.8461538461538463
 40
0.8846153846153847
 40
0.8846153846153847
 40
0.8846153846153847
 40
0.9230769230769231
 40
0.9230769230769231
 40
0.9230769230769231
 40
0.9615384615384616
 40
0.9615384615384616
 40
0.9615384615384616
 40
1.0
 40
1.0
 40
1.0
 40
1.0
 10
-30.5825
 20
39.8403
 30
0.0
 10
-30.73
 20
39.8368
 30
0.0
 10
-30.8774
 20
39.8312
 30
0.0
 10
-31.0245
 20
39.8239
 30
0.0
 10
-31.5471
 20
39.7977
 30
0.0
 10
-32.0629
 20
39.712
 30
0.0
 10
-32.5657
 20
39.5701
 30
0.0
 10
-33.0662
 20
39.4288
 30
0.0
 10
-33.5404
 20
39.2225
 30
0.0
 10
-33.9838
 20
38.9554
 30
0.0
 10
-34.4017
 20
38.7038
 30
0.0
 10
-34.7413
 20
38.3761
 30
0.0
 10
-35.0082
 20
37.974
 30
0.0
 10
-35.0082
 20
37.974
 30
0.0
 10
-35.3914
 20
37.3966
 30
0.0
 10
-35.3914
 20
37.3966
 30
0.0
 10
-35.3914
 20
37.3966
 30
0.0
 10
-35.9483
 20
37.8188
 30
0.0
 10
-35.9483
 20
37.8188
 30
0.0
 10
-36.3862
 20
38.1509
 30
0.0
 10
-36.8702
 20
38.4116
 30
0.0
 10
-37.403
 20
38.5674
 30
0.0
 10
-37.9151
 20
38.7172
 30
0.0
 10
-38.4454
 20
38.708
 30
0.0
 10
-38.9648
 20
38.5979
 30
0.0
 10
-38.9648
 20
38.5979
 30
0.0
 10
-38.9865
 20
38.5937
 30
0.0
 10
-38.9865
 20
38.5937
 30
0.0
 10
-39.5566
 20
38.4926
 30
0.0
 10
-40.089
 20
38.2895
 30
0.0
 10
-40.5826
 20
37.9932
 30
0.0
 10
-41.1081
 20
37.678
 30
0.0
 10
-41.5841
 20
37.2966
 30
0.0
 10
-42.0069
 20
36.8585
 30
0.0
 10
-42.4417
 20
36.4081
 30
0.0
 10
-42.8244
 20
35.9152
 30
0.0
 10
-43.1508
 20
35.3849
 30
0.0
 10
-43.46
 20
34.8824
 30
0.0
 10
-43.7075
 20
34.3475
 30
0.0
 10
-43.8726
 20
33.7837
 30
0.0
 10
-43.8726
 20
33.7837
 30
0.0
 10
-43.8782
 20
33.7658
 30
0.0
 10
-43.8782
 20
33.7658
 30
0.0
 10
-44.0541
 20
33.2264
 30
0.0
 10
-44.1379
 20
32.6706
 30
0.0
 10
-44.1115
 20
32.1048
 30
0.0
 10
-44.0879
 20
31.5986
 30
0.0
 10
-43.9506
 20
31.1279
 30
0.0
 10
-43.6796
 20
30.6954
 30
0.0
 10
-43.4122
 20
30.2689
 30
0.0
 10
-43.0522
 20
29.942
 30
0.0
 10
-42.6034
 20
29.7002
 30
0.0
 10
-42.1481
 20
29.455
 30
0.0
 10
-41.661
 20
29.2921
 30
0.0
 10
-41.1422
 20
29.2416
 30
0.0
 10
-41.1422
 20
29.2416
 30
0.0
 10
-41.1302
 20
29.2404
 30
0.0
 10
-41.1302
 20
29.2404
 30
0.0
 10
-41.1302
 20
29.2404
 30
0.0
 10
-41.1181
 20
29.2388
 30
0.0
 10
-41.1181
 20
29.2388
 30
0.0
 10
-40.3973
 20
29.1419
 30
0.0
 10
-39.7075
 20
29.245
 30
0.0
 10
-39.0493
 20
29.5477
 30
0.0
 10
-38.2795
 20
29.9018
 30
0.0
 10
-37.5797
 20
30.388
 30
0.0
 10
-36.9482
 20
30.942
 30
0.0
 10
-36.212
 20
31.5882
 30
0.0
 10
-35.548
 20
32.3109
 30
0.0
 10
-34.9475
 20
33.0784
 30
0.0
 10
-34.2969
 20
33.91
 30
0.0
 10
-33.6871
 20
34.7717
 30
0.0
 10
-33.1186
 20
35.6588
 30
0.0
 10
-32.5499
 20
36.5459
 30
0.0
 10
-31.9981
 20
37.4433
 30
0.0
 10
-31.4657
 20
38.3516
 30
0.0
 10
-31.1741
 20
38.8493
 30
0.0
 10
-30.8801
 20
39.3458
 30
0.0
 10
-30.5825
 20
39.8403
 30
0.0
  0
SPLINE
  5
64
330
1F
100
AcDbEntity
  8
Katman 1
 62
   250
370
     9
100
AcDbSpline
210
0.0
220
0.0
230
1.0
 70
    11
 71
     3
 72
    26
 73
    22
 74
     0
 42
0.0000000001
 43
0.0000000001
 40
0.0
 40
0.0
 40
0.0
 40
0.0
 40
0.1428571428571428
 40
0.1428571428571428
 40
0.1428571428571428
 40
0.2857142857142857
 40
0.2857142857142857
 40
0.2857142857142857
 40
0.4285714285714285
 40
0.4285714285714285
 40
0.4285714285714285
 40
0.5714285714285714
 40
0.5714285714285714
 40
0.5714285714285714
 40
0.7142857142857142
 40
0.7142857142857142
 40
0.7142857142857142
 40
0.8571428571428571
 40
0.8571428571428571
 40
0.8571428571428571
 40
1.0
 40
1.0
 40
1.0
 40
1.0
 10
-17.1767
 20
24.6693
 30
0.0
 10
-17.1973
 20
24.587
 30
0.0
 10
-17.2318
 20
24.4211
 30
0.0
 10
-17.222
 20
24.3287
 30
0.0
 10
-17.1146
 20
24.3144
 30
0.0
 10
-16.9935
 20
24.3725
 30
0.0
 10
-16.9066
 20
24.4199
 30
0.0
 10
-16.5434
 20
24.6183
 30
0.0
 10
-16.2083
 20
24.9321
 30
0.0
 10
-15.9316
 20
25.2318
 30
0.0
 10
-15.5015
 20
25.6977
 30
0.0
 10
-15.1167
 20
26.2158
 30
0.0
 10
-14.7633
 20
26.7385
 30
0.0
 10
-14.7543
 20
26.7517
 30
0.0
 10
-14.7454
 20
26.7649
 30
0.0
 10
-14.7365
 20
26.7782
 30
0.0
 10
-15.0811
 20
26.5808
 30
0.0
 10
-15.4208
 20
26.3762
 30
0.0
 10
-15.7538
 20
26.1634
 30
0.0
 10
-16.3086
 20
25.8086
 30
0.0
 10
-16.9412
 20
25.2986
 30
0.0
 10
-17.1767
 20
24.6693
 30
0.0
  0
SPLINE
  5
65
330
1F
100
AcDbEntity
  8
Katman 1
 62
   250
370
     9
100
AcDbSpline
210
0.0
220
0.0
230
1.0
 70
    11
 71
     3
 72
    32
 73
    28
 74
     0
 42
0.0000000001
 43
0.0000000001
 40
0.0
 40
0.0
 40
0.0
 40
0.0
 40
0.1111111111111111
 40
0.1111111111111111
 40
0.1111111111111111
 40
0.2222222222222222
 40
0.2222222222222222
 40
0.2222222222222222
 40
0.3333333333333333
 40
0.3333333333333333
 40
0.3333333333333333
 40
0.4444444444444444
 40
0.4444444444444444
 40
0.4444444444444444
 40
0.5555555555555556
 40
0.5555555555555556
 40
0.5555555555555556
 40
0.6666666666666666
 40
0.6666666666666666
 40
0.6666666666666666
 40
0.7777777777777777
 40
0.7777777777777777
 40
0.7777777777777777
 40
0.8888888888888888
 40
0.8888888888888888
 40
0.8888888888888888
 40
1.0
 40
1.0
 40
1.0
 40
1.0
 10
17.9
 20
44.2098
 30
0.0
 10
17.7114
 20
44.2593
 30
0.0
 10
17.4849
 20
44.1807
 30
0.0
 10
17.319
 20
44.1088
 30
0.0
 10
16.7878
 20
43.8786
 30
0.0
 10
16.2987
 20
43.5036
 30
0.0
 10
15.8791
 20
43.1159
 30
0.0
 10
15.3071
 20
42.5875
 30
0.0
 10
14.797
 20
41.9904
 30
0.0
 10
14.3371
 20
41.3674
 30
0.0
 10
13.8803
 20
40.7488
 30
0.0
 10
13.4746
 20
40.0944
 30
0.0
 10
13.139
 20
39.4057
 30
0.0
 10
13.2499
 20
39.4308
 30
0.0
 10
13.3624
 20
39.467
 30
0.0
 10
13.4142
 20
39.4856
 30
0.0
 10
13.8898
 20
39.6555
 30
0.0
 10
14.3664
 20
39.944
 30
0.0
 10
14.7812
 20
40.224
 30
0.0
 10
15.3741
 20
40.6242
 30
0.0
 10
15.9164
 20
41.0996
 30
0.0
 10
16.4095
 20
41.6117
 30
0.0
 10
16.9504
 20
42.1735
 30
0.0
 10
17.5084
 20
42.8784
 30
0.0
 10
17.7567
 20
43.6199
 30
0.0
 10
17.7941
 20
43.7314
 30
0.0
 10
17.8856
 20
44.0286
 30
0.0
 10
17.9
 20
44.2098
 30
0.0
  0
SPLINE
  5
66
330
1F
100
AcDbEntity
  8
Katman 1
 62
   250
370
     9
100
AcDbSpline
210
0.0
220
0.0
230
1.0
 70
    11
 71
     3
 72
    32
 73
    28
 74
     0
 42
0.0000000001
 43
0.0000000001
 40
0.0
 40
0.0
 40
0.0
 40
0.0
 40
0.1111111111111111
 40
0.1111111111111111
 40
0.1111111111111111
 40
0.2222222222222222
 40
0.2222222222222222
 40
0.2222222222222222
 40
0.3333333333333333
 40
0.3333333333333333
 40
0.3333333333333333
 40
0.4444444444444444
 40
0.4444444444444444
 40
0.4444444444444444
 40
0.5555555555555556
 40
0.5555555555555556
 40
0.5555555555555556
 40
0.6666666666666666
 40
0.6666666666666666
 40
0.6666666666666666
 40
0.7777777777777777
 40
0.7777777777777777
 40
0.7777777777777777
 40
0.8888888888888888
 40
0.8888888888888888
 40
0.8888888888888888
 40
1.0
 40
1.0
 40
1.0
 40
1.0
 10
-20.6678
 20
46.7448
 30
0.0
 10
-19.7326
 20
48.5115
 30
0.0
 10
-18.6511
 20
50.3707
 30
0.0
 10
-17.4236
 20
52.3226
 30
0.0
 10
-16.1961
 20
54.2746
 30
0.0
 10
-14.7933
 20
56.0056
 30
0.0
 10
-13.2151
 20
57.5157
 30
0.0
 10
-14.5595
 20
56.7464
 30
0.0
 10
-15.7724
 20
55.6921
 30
0.0
 10
-16.8537
 20
54.3529
 30
0.0
 10
-17.9352
 20
53.0137
 30
0.0
 10
-18.9288
 20
51.5747
 30
0.0
 10
-19.8349
 20
50.036
 30
0.0
 10
-20.7409
 20
48.4973
 30
0.0
 10
-21.5592
 20
46.9657
 30
0.0
 10
-22.2899
 20
45.4413
 30
0.0
 10
-23.0205
 20
43.9168
 30
0.0
 10
-23.7073
 20
42.5704
 30
0.0
 10
-24.3503
 20
41.4021
 30
0.0
 10
-24.0581
 20
41.3167
 30
0.0
 10
-23.7366
 20
41.2027
 30
0.0
 10
-23.3859
 20
41.0602
 30
0.0
 10
-22.9767
 20
42.086
 30
0.0
 10
-22.5383
 20
43.0762
 30
0.0
 10
-22.0707
 20
44.0307
 30
0.0
 10
-21.6031
 20
44.9853
 30
0.0
 10
-21.1354
 20
45.89
 30
0.0
 10
-20.6678
 20
46.7448
 30
0.0
  0
ENDSEC
  0
SECTION
  2
OBJECTS
  0
DICTIONARY
  5
C
330
0
100
AcDbDictionary
281
     1
  3
ACAD_DETAILVIEWSTYLE
350
6E
  3
ACAD_GROUP
350
D
  3
ACAD_LAYOUT
350
1A
  3
ACAD_MATERIAL
350
43
  3
ACAD_MLEADERSTYLE
350
5B
  3
ACAD_MLINESTYLE
350
17
  3
ACAD_PLOTSETTINGS
350
19
  3
ACAD_PLOTSTYLENAME
350
E
  3
ACAD_SCALELIST
350
47
  3
ACAD_SECTIONVIEWSTYLE
350
6F
  3
ACAD_TABLESTYLE
350
59
  3
ACAD_VISUALSTYLE
350
2A
  3
ACDB_RECOMPOSE_DATA
350
6B
  3
AcDbVariableDictionary
350
67
  0
SUN
  5
5D
330
29
100
AcDbSun
 90
        1
290
     0
 63
     7
421
 16777215
 40
1.0
291
     1
 91
  2455826
 92
 54000000
292
     0
 70
     2
 71
   256
280
     1
  0
DICTIONARY
  5
6E
102
{ACAD_REACTORS
330
C
102
}
330
C
100
AcDbDictionary
281
     1
  0
DICTIONARY
  5
D
102
{ACAD_REACTORS
330
C
102
}
330
C
100
AcDbDictionary
281
     1
  0
DICTIONARY
  5
1A
102
{ACAD_REACTORS
330
C
102
}
330
C
100
AcDbDictionary
281
     1
  3
Layout1
350
1E
  3
Layout2
350
26
  3
Model
350
22
  0
DICTIONARY
  5
43
102
{ACAD_REACTORS
330
C
102
}
330
C
100
AcDbDictionary
281
     1
  3
ByBlock
350
45
  3
ByLayer
350
44
  3
Global
350
46
  0
DICTIONARY
  5
5B
102
{ACAD_REACTORS
330
C
102
}
330
C
100
AcDbDictionary
281
     1
  3
Standard
350
5C
  0
DICTIONARY
  5
17
102
{ACAD_REACTORS
330
C
102
}
330
C
100
AcDbDictionary
281
     1
  3
Standard
350
18
  0
DICTIONARY
  5
19
102
{ACAD_REACTORS
330
C
102
}
330
C
100
AcDbDictionary
281
     1
  0
ACDBDICTIONARYWDFLT
  5
E
102
{ACAD_REACTORS
330
C
102
}
330
C
100
AcDbDictionary
281
     1
  3
Normal
350
F
100
AcDbDictionaryWithDefault
340
F
  0
DICTIONARY
  5
47
102
{ACAD_REACTORS
330
C
102
}
330
C
100
AcDbDictionary
281
     1
  3
A0
350
48
  3
A1
350
49
  3
A2
350
4A
  3
A3
350
4B
  3
A4
350
4C
  3
A5
350
4D
  3
A6
350
4E
  3
A7
350
4F
  3
A8
350
50
  3
A9
350
51
  3
B1
350
52
  3
B2
350
53
  3
B3
350
54
  3
B4
350
55
  3
B5
350
56
  3
B6
350
57
  3
B7
350
58
  0
DICTIONARY
  5
6F
102
{ACAD_REACTORS
330
C
102
}
330
C
100
AcDbDictionary
281
     1
  0
DICTIONARY
  5
59
102
{ACAD_REACTORS
330
C
102
}
330
C
100
AcDbDictionary
281
     1
  3
Standard
350
5A
  0
DICTIONARY
  5
2A
102
{ACAD_REACTORS
330
C
102
}
330
C
100
AcDbDictionary
281
     1
  3
2dWireframe
350
2F
  3
Basic
350
32
  3
Brighten
350
36
  3
ColorChange
350
3A
  3
Conceptual
350
34
  3
Dim
350
35
  3
EdgeColorOff
350
3D
  3
Facepattern
350
39
  3
Flat
350
2B
  3
FlatWithEdges
350
2C
  3
Gouraud
350
2D
  3
GouraudWithEdges
350
2E
  3
Hidden
350
31
  3
JitterOff
350
3B
  3
Linepattern
350
38
  3
OverhangOff
350
3C
  3
Realistic
350
33
  3
Shaded
350
42
  3
Shaded with edges
350
41
  3
Shades of Gray
350
3E
  3
Sketchy
350
3F
  3
Thicken
350
37
  3
Wireframe
350
30
  3
X-Ray
350
40
  0
XRECORD
  5
6B
102
{ACAD_REACTORS
330
C
102
}
330
C
100
AcDbXrecord
280
     1
 90
        1
330
5A
  0
DICTIONARY
  5
67
102
{ACAD_REACTORS
330
C
102
}
330
C
100
AcDbDictionary
281
     1
  3
CANNOSCALE
350
68
  3
CMLEADERSTYLE
350
6D
  3
CTABLESTYLE
350
6C
  0
LAYOUT
  5
1E
102
{ACAD_REACTORS
330
1A
102
}
330
1A
100
AcDbPlotSettings
  1

  2
none_device
  4

  6

 40
0.0
 41
0.0
 42
0.0
 43
0.0
 44
0.0
 45
0.0
 46
0.0
 47
0.0
 48
0.0
 49
0.0
140
0.0
141
0.0
142
1.0
143
1.0
 70
   688
 72
     0
 73
     0
 74
     5
  7

 75
    16
 76
     0
 77
     2
 78
   300
147
1.0
148
0.0
149
0.0
100
AcDbLayout
  1
Layout1
 70
     1
 71
     1
 10
0.0
 20
0.0
 11
12.0
 21
9.0
 12
0.0
 22
0.0
 32
0.0
 14
1.000000000000000E+20
 24
1.000000000000000E+20
 34
1.000000000000000E+20
 15
-1.000000000000000E+20
 25
-1.000000000000000E+20
 35
-1.000000000000000E+20
146
0.0
 13
0.0
 23
0.0
 33
0.0
 16
1.0
 26
0.0
 36
0.0
 17
0.0
 27
1.0
 37
0.0
 76
     0
330
1B
  0
LAYOUT
  5
26
102
{ACAD_REACTORS
330
1A
102
}
330
1A
100
AcDbPlotSettings
  1

  2
none_device
  4

  6

 40
0.0
 41
0.0
 42
0.0
 43
0.0
 44
0.0
 45
0.0
 46
0.0
 47
0.0
 48
0.0
 49
0.0
140
0.0
141
0.0
142
1.0
143
1.0
 70
   688
 72
     0
 73
     0
 74
     5
  7

 75
    16
 76
     0
 77
     2
 78
   300
147
1.0
148
0.0
149
0.0
100
AcDbLayout
  1
Layout2
 70
     1
 71
     2
 10
0.0
 20
0.0
 11
0.0
 21
0.0
 12
0.0
 22
0.0
 32
0.0
 14
0.0
 24
0.0
 34
0.0
 15
0.0
 25
0.0
 35
0.0
146
0.0
 13
0.0
 23
0.0
 33
0.0
 16
1.0
 26
0.0
 36
0.0
 17
0.0
 27
1.0
 37
0.0
 76
     0
330
23
  0
LAYOUT
  5
22
102
{ACAD_REACTORS
330
1A
102
}
330
1A
100
AcDbPlotSettings
  1

  2
none_device
  4
Letter_(8.50_x_11.00_Inches)
  6

 40
6.35
 41
6.35
 42
6.35000508
 43
6.35000508
 44
215.9
 45
279.4
 46
0.0
 47
0.0
 48
0.0
 49
0.0
140
0.0
141
0.0
142
1.0
143
1.0
 70
  1712
 72
     0
 73
     0
 74
     0
  7

 75
     0
 76
     0
 77
     2
 78
   300
147
1.0
148
0.0
149
0.0
100
AcDbLayout
  1
Model
 70
     1
 71
     0
 10
0.0
 20
0.0
 11
12.0
 21
9.0
 12
0.0
 22
0.0
 32
0.0
 14
-47.5326
 24
21.06
 34
0.0
 15
22.5532
 25
61.1417
 35
0.0
146
0.0
 13
0.0
 23
0.0
 33
0.0
 16
1.0
 26
0.0
 36
0.0
 17
0.0
 27
1.0
 37
0.0
 76
     0
330
1F
331
29
  0
MATERIAL
  5
45
102
{ACAD_REACTORS
330
43
102
}
330
43
100
AcDbMaterial
  1
ByBlock
 72
     1
 94
      127
  0
MATERIAL
  5
44
102
{ACAD_REACTORS
330
43
102
}
330
43
100
AcDbMaterial
  1
ByLayer
 72
     1
 94
      127
  0
MATERIAL
  5
46
102
{ACAD_REACTORS
330
43
102
}
330
43
100
AcDbMaterial
  1
Global
 72
     1
 94
      127
  0
MLEADERSTYLE
  5
5C
102
{ACAD_REACTORS
330
5B
102
}
330
5B
100
AcDbMLeaderStyle
179
     2
170
     2
171
     1
172
     0
 90
        2
 40
0.0
 41
0.0
173
     1
 91
-1056964608
340
14
 92
       -2
290
     1
 42
0.09
291
     1
 43
0.36
  3
Standard
341
0
 44
0.18
300

342
11
174
     1
178
     6
175
     1
176
     0
 93
-1056964608
 45
0.18
292
     0
297
     0
 46
0.18
343
0
 94
-1056964608
 47
1.0
 49
1.0
140
1.0
293
     1
141
0.0
294
     1
177
     0
142
1.0
295
     0
296
     0
143
0.125
271
     0
272
     9
273
     9
298
     0
  0
MLINESTYLE
  5
18
102
{ACAD_REACTORS
330
17
102
}
330
17
100
AcDbMlineStyle
  2
Standard
 70
     0
  3

 62
   256
 51
90.0
 52
90.0
 71
     2
 49
0.5
 62
   256
  6
BYLAYER
 49
-0.5
 62
   256
  6
BYLAYER
  0
ACDBPLACEHOLDER
  5
F
102
{ACAD_REACTORS
330
E
102
}
330
E
  0
SCALE
  5
48
102
{ACAD_REACTORS
330
47
102
}
330
47
100
AcDbScale
 70
     0
300
1:1
140
1.0
141
1.0
290
     1
  0
SCALE
  5
49
102
{ACAD_REACTORS
330
47
102
}
330
47
100
AcDbScale
 70
     0
300
1/128" = 1'-0"
140
0.0078125
141
12.0
290
     0
  0
SCALE
  5
4A
102
{ACAD_REACTORS
330
47
102
}
330
47
100
AcDbScale
 70
     0
300
1/64" = 1'-0"
140
0.015625
141
12.0
290
     0
  0
SCALE
  5
4B
102
{ACAD_REACTORS
330
47
102
}
330
47
100
AcDbScale
 70
     0
300
1/32" = 1'-0"
140
0.03125
141
12.0
290
     0
  0
SCALE
  5
4C
102
{ACAD_REACTORS
330
47
102
}
330
47
100
AcDbScale
 70
     0
300
1/16" = 1'-0"
140
0.0625
141
12.0
290
     0
  0
SCALE
  5
4D
102
{ACAD_REACTORS
330
47
102
}
330
47
100
AcDbScale
 70
     0
300
3/32" = 1'-0"
140
0.09375
141
12.0
290
     0
  0
SCALE
  5
4E
102
{ACAD_REACTORS
330
47
102
}
330
47
100
AcDbScale
 70
     0
300
1/8" = 1'-0"
140
0.125
141
12.0
290
     0
  0
SCALE
  5
4F
102
{ACAD_REACTORS
330
47
102
}
330
47
100
AcDbScale
 70
     0
300
3/16" = 1'-0"
140
0.1875
141
12.0
290
     0
  0
SCALE
  5
50
102
{ACAD_REACTORS
330
47
102
}
330
47
100
AcDbScale
 70
     0
300
1/4" = 1'-0"
140
0.25
141
12.0
290
     0
  0
SCALE
  5
51
102
{ACAD_REACTORS
330
47
102
}
330
47
100
AcDbScale
 70
     0
300
3/8" = 1'-0"
140
0.375
141
12.0
290
     0
  0
SCALE
  5
52
102
{ACAD_REACTORS
330
47
102
}
330
47
100
AcDbScale
 70
     0
300
1/2" = 1'-0"
140
0.5
141
12.0
290
     0
  0
SCALE
  5
53
102
{ACAD_REACTORS
330
47
102
}
330
47
100
AcDbScale
 70
     0
300
3/4" = 1'-0"
140
0.75
141
12.0
290
     0
  0
SCALE
  5
54
102
{ACAD_REACTORS
330
47
102
}
330
47
100
AcDbScale
 70
     0
300
1" = 1'-0"
140
1.0
141
12.0
290
     0
  0
SCALE
  5
55
102
{ACAD_REACTORS
330
47
102
}
330
47
100
AcDbScale
 70
     0
300
1-1/2" = 1'-0"
140
1.5
141
12.0
290
     0
  0
SCALE
  5
56
102
{ACAD_REACTORS
330
47
102
}
330
47
100
AcDbScale
 70
     0
300
3" = 1'-0"
140
3.0
141
12.0
290
     0
  0
SCALE
  5
57
102
{ACAD_REACTORS
330
47
102
}
330
47
100
AcDbScale
 70
     0
300
6" = 1'-0"
140
6.0
141
12.0
290
     0
  0
SCALE
  5
58
102
{ACAD_REACTORS
330
47
102
}
330
47
100
AcDbScale
 70
     0
300
1'-0" = 1'-0"
140
12.0
141
12.0
290
     0
  0
TABLESTYLE
  5
5A
102
{ACAD_REACTORS
330
59
102
}
102
{ACAD_XDICTIONARY
360
69
102
}
330
59
100
AcDbTableStyle
  3
Standard
 70
     0
 71
     0
 40
0.06
 41
0.06
280
     0
281
     0
  7
Standard
140
0.18
170
     2
 62
     0
 63
   257
283
     0
 90
        4
 91
        0
  1

274
    -2
284
     1
 64
     0
275
    -2
285
     1
 65
     0
276
    -2
286
     1
 66
     0
277
    -2
287
     1
 67
     0
278
    -2
288
     1
 68
     0
279
    -2
289
     1
 69
     0
  7
Standard
140
0.25
170
     5
 62
     0
 63
   257
283
     0
 90
        4
 91
        0
  1

274
    -2
284
     1
 64
     0
275
    -2
285
     1
 65
     0
276
    -2
286
     1
 66
     0
277
    -2
287
     1
 67
     0
278
    -2
288
     1
 68
     0
279
    -2
289
     1
 69
     0
  7
Standard
140
0.18
170
     5
 62
     0
 63
   257
283
     0
 90
        4
 91
        0
  1

274
    -2
284
     1
 64
     0
275
    -2
285
     1
 65
     0
276
    -2
286
     1
 66
     0
277
    -2
287
     1
 67
     0
278
    -2
288
     1
 68
     0
279
    -2
289
     1
 69
     0
  0
VISUALSTYLE
  5
2F
102
{ACAD_REACTORS
330
2A
102
}
330
2A
100
AcDbVisualStyle
  2
2dWireframe
 70
     4
177
     3
291
     0
 70
    58
 90
        0
176
     1
 90
        2
176
     1
 90
        0
176
     1
 90
        0
176
     1
 40
0.6
176
     1
 40
30.0
176
     1
 62
     7
420
 16777215
176
     1
 90
        1
176
     1
 90
        4
176
     1
 62
     7
176
     1
 62
   257
176
     1
 90
        1
176
     1
 90
        1
176
     1
 40
1.0
176
     1
 90
        0
176
     1
 62
   257
176
     1
 40
1.0
176
     1
 90
        1
176
     1
 90
        6
176
     1
 90
        2
176
     1
 62
     7
176
     1
 90
        5
176
     1
 90
        0
176
     1
 90
        0
176
     1
290
     0
176
     1
 90
        1
176
     1
 40
0.0
176
     1
 90
        0
176
     1
290
     1
176
     1
290
     1
176
     1
290
     0
176
     1
290
     0
176
     1
290
     0
176
     1
290
     0
176
     1
290
     0
176
     1
290
     0
176
     1
290
     0
176
     1
 90
       50
176
     1
 40
0.0
176
     1
 40
1.0
176
     1
 90
        0
176
     1
 62
    18
420
        0
176
     1
 90
       50
176
     1
 90
        3
176
     1
 62
     5
420
      255
176
     1
290
     0
176
     1
 90
       50
176
     1
 90
       50
176
     1
 90
       50
176
     1
290
     0
176
     1
 90
       50
176
     1
 62
   256
176
     0
 40
1.0
176
     0
 90
        2
176
     1
  1
strokes_ogs.tif
176
     1
290
     0
176
     1
 40
1.0
176
     1
 40
1.0
176
     1
  0
VISUALSTYLE
  5
32
102
{ACAD_REACTORS
330
2A
102
}
330
2A
100
AcDbVisualStyle
  2
Basic
 70
     7
177
     3
291
     1
 70
    58
 90
        1
176
     1
 90
        0
176
     1
 90
        1
176
     1
 90
        0
176
     1
 40
0.6
176
     1
 40
30.0
176
     1
 62
     7
420
 16777215
176
     1
 90
        0
176
     1
 90
        4
176
     1
 62
     7
176
     1
 62
   257
176
     1
 90
        1
176
     1
 90
        1
176
     1
 40
1.0
176
     1
 90
        8
176
     1
 62
     7
176
     1
 40
1.0
176
     1
 90
        1
176
     1
 90
        6
176
     1
 90
        2
176
     1
 62
     7
176
     1
 90
        5
176
     1
 90
        0
176
     1
 90
        0
176
     1
290
     0
176
     1
 90
        1
176
     1
 40
0.0
176
     1
 90
        0
176
     1
290
     0
176
     1
290
     1
176
     1
290
     1
176
     1
290
     0
176
     1
290
     0
176
     1
290
     0
176
     1
290
     0
176
     1
290
     0
176
     1
290
     0
176
     1
 90
       50
176
     1
 40
0.0
176
     1
 40
1.0
176
     1
 90
        0
176
     1
 62
    18
420
        0
176
     1
 90
       50
176
     1
 90
        3
176
     1
 62
     5
420
      255
176
     1
290
     0
176
     1
 90
       50
176
     1
 90
       50
176
     1
 90
       50
176
     1
290
     0
176
     1
 90
       50
176
     1
 62
   256
176
     0
 40
1.0
176
     0
 90
        2
176
     1
  1
strokes_ogs.tif
176
     1
290
     0
176
     1
 40
1.0
176
     1
 40
1.0
176
     1
  0
VISUALSTYLE
  5
36
102
{ACAD_REACTORS
330
2A
102
}
330
2A
100
AcDbVisualStyle
  2
Brighten
 70
    12
177
     3
291
     1
 70
    58
 90
        2
176
     1
 90
        2
176
     1
 90
        0
176
     1
 90
        0
176
     1
 40
0.6
176
     1
 40
30.0
176
     1
 62
     7
420
 16777215
176
     1
 90
        1
176
     1
 90
        4
176
     1
 62
     7
176
     1
 62
   257
176
     1
 90
        1
176
     1
 90
        1
176
     1
 40
1.0
176
     1
 90
        8
176
     1
 62
     7
176
     1
 40
1.0
176
     1
 90
        1
176
     1
 90
        6
176
     1
 90
        2
176
     1
 62
     7
176
     1
 90
        5
176
     1
 90
        0
176
     1
 90
        0
176
     1
290
     0
176
     1
 90
        1
176
     1
 40
50.0
176
     1
 90
        0
176
     1
290
     0
176
     1
290
     1
176
     1
290
     1
176
     1
290
     0
176
     1
290
     0
176
     1
290
     0
176
     1
290
     0
176
     1
290
     0
176
     1
290
     0
176
     1
 90
       50
176
     1
 40
0.0
176
     1
 40
1.0
176
     1
 90
        0
176
     1
 62
    18
420
        0
176
     1
 90
       50
176
     1
 90
        3
176
     1
 62
     5
420
      255
176
     1
290
     0
176
     1
 90
       50
176
     1
 90
       50
176
     1
 90
       50
176
     1
290
     0
176
     1
 90
       50
176
     1
 62
   256
176
     0
 40
1.0
176
     0
 90
        2
176
     1
  1
strokes_ogs.tif
176
     1
290
     0
176
     1
 40
1.0
176
     1
 40
1.0
176
     1
  0
VISUALSTYLE
  5
3A
102
{ACAD_REACTORS
330
2A
102
}
330
2A
100
AcDbVisualStyle
  2
ColorChange
 70
    16
177
     3
291
     1
 70
    58
 90
        2
176
     1
 90
        2
176
     1
 90
        3
176
     1
 90
        0
176
     1
 40
0.6
176
     1
 40
30.0
176
     1
 62
     8
420
  8421504
176
     1
 90
        1
176
     1
 90
        4
176
     1
 62
     7
176
     1
 62
   257
176
     1
 90
        1
176
     1
 90
        1
176
     1
 40
1.0
176
     1
 90
        8
176
     1
 62
     8
420
  8421504
176
     1
 40
1.0
176
     1
 90
        1
176
     1
 90
        6
176
     1
 90
        2
176
     1
 62
     7
176
     1
 90
        5
176
     1
 90
        0
176
     1
 90
        0
176
     1
290
     0
176
     1
 90
        1
176
     1
 40
0.0
176
     1
 90
        0
176
     1
290
     0
176
     1
290
     1
176
     1
290
     1
176
     1
290
     0
176
     1
290
     0
176
     1
290
     0
176
     1
290
     0
176
     1
290
     0
176
     1
290
     0
176
     1
 90
       50
176
     1
 40
0.0
176
     1
 40
1.0
176
     1
 90
        0
176
     1
 62
    18
420
        0
176
     1
 90
       50
176
     1
 90
        3
176
     1
 62
     5
420
      255
176
     1
290
     0
176
     1
 90
       50
176
     1
 90
       50
176
     1
 90
       50
176
     1
290
     0
176
     1
 90
       50
176
     1
 62
   256
176
     0
 40
1.0
176
     0
 90
        2
176
     1
  1
strokes_ogs.tif
176
     1
290
     0
176
     1
 40
1.0
176
     1
 40
1.0
176
     1
  0
VISUALSTYLE
  5
34
102
{ACAD_REACTORS
330
2A
102
}
330
2A
100
AcDbVisualStyle
  2
Conceptual
 70
     9
177
     3
291
     0
 70
    58
 90
        3
176
     1
 90
        2
176
     1
 90
        0
176
     1
 90
        0
176
     1
 40
0.6
176
     1
 40
30.0
176
     1
 62
     7
420
 16777215
176
     1
 90
        2
176
     1
 90
        2
176
     1
 62
     7
176
     1
 62
   257
176
     1
 90
        1
176
     1
 90
        1
176
     1
 40
179.0
176
     1
 90
        8
176
     1
 62
     7
176
     1
 40
1.0
176
     1
 90
        1
176
     1
 90
        6
176
     1
 90
        2
176
     1
 62
     7
176
     1
 90
        3
176
     1
 90
        0
176
     1
 90
        0
176
     1
290
     0
176
     1
 90
        1
176
     1
 40
0.0
176
     1
 90
        0
176
     1
290
     0
176
     1
290
     1
176
     1
290
     1
176
     1
290
     0
176
     1
290
     0
176
     1
290
     0
176
     1
290
     0
176
     1
290
     0
176
     1
290
     0
176
     1
 90
       50
176
     1
 40
0.0
176
     1
 40
1.0
176
     1
 90
        0
176
     1
 62
    18
420
        0
176
     1
 90
       50
176
     1
 90
        3
176
     1
 62
     5
420
      255
176
     1
290
     0
176
     1
 90
       50
176
     1
 90
       50
176
     1
 90
       50
176
     1
290
     0
176
     1
 90
       50
176
     1
 62
   256
176
     0
 40
1.0
176
     0
 90
        2
176
     1
  1
strokes_ogs.tif
176
     1
290
     0
176
     1
 40
1.0
176
     1
 40
1.0
176
     1
  0
VISUALSTYLE
  5
35
102
{ACAD_REACTORS
330
2A
102
}
330
2A
100
AcDbVisualStyle
  2
Dim
 70
    11
177
     3
291
     1
 70
    58
 90
        2
176
     1
 90
        2
176
     1
 90
        0
176
     1
 90
        0
176
     1
 40
0.6
176
     1
 40
30.0
176
     1
 62
     7
420
 16777215
176
     1
 90
        1
176
     1
 90
        4
176
     1
 62
     7
176
     1
 62
   257
176
     1
 90
        1
176
     1
 90
        1
176
     1
 40
1.0
176
     1
 90
        8
176
     1
 62
     7
176
     1
 40
1.0
176
     1
 90
        1
176
     1
 90
        6
176
     1
 90
        2
176
     1
 62
     7
176
     1
 90
        5
176
     1
 90
        0
176
     1
 90
        0
176
     1
290
     0
176
     1
 90
        1
176
     1
 40
-50.0
176
     1
 90
        0
176
     1
290
     0
176
     1
290
     1
176
     1
290
     1
176
     1
290
     0
176
     1
290
     0
176
     1
290
     0
176
     1
290
     0
176
     1
290
     0
176
     1
290
     0
176
     1
 90
       50
176
     1
 40
0.0
176
     1
 40
1.0
176
     1
 90
        0
176
     1
 62
    18
420
        0
176
     1
 90
       50
176
     1
 90
        3
176
     1
 62
     5
420
      255
176
     1
290
     0
176
     1
 90
       50
176
     1
 90
       50
176
     1
 90
       50
176
     1
290
     0
176
     1
 90
       50
176
     1
 62
   256
176
     0
 40
1.0
176
     0
 90
        2
176
     1
  1
strokes_ogs.tif
176
     1
290
     0
176
     1
 40
1.0
176
     1
 40
1.0
176
     1
  0
VISUALSTYLE
  5
3D
102
{ACAD_REACTORS
330
2A
102
}
330
2A
100
AcDbVisualStyle
  2
EdgeColorOff
 70
    22
177
     3
291
     1
 70
    58
 90
        2
176
     0
 90
        2
176
     0
 90
        0
176
     0
 90
        0
176
     0
 40
0.6
176
     0
 40
30.0
176
     0
 62
     7
420
 16777215
176
     0
 90
        1
176
     0
 90
        4
176
     0
 62
     7
176
     0
 62
   257
176
     0
 90
        1
176
     0
 90
        1
176
     0
 40
1.0
176
     0
 90
        8
176
     2
 62
     7
176
     0
 40
1.0
176
     0
 90
        1
176
     0
 90
        6
176
     0
 90
        2
176
     0
 62
     7
176
     0
 90
        5
176
     0
 90
        0
176
     0
 90
        0
176
     0
290
     0
176
     0
 90
        1
176
     0
 40
0.0
176
     0
 90
        0
176
     0
290
     0
176
     0
290
     1
176
     0
290
     1
176
     0
290
     0
176
     0
290
     0
176
     0
290
     0
176
     0
290
     0
176
     0
290
     0
176
     0
290
     0
176
     0
 90
       50
176
     0
 40
0.0
176
     0
 40
1.0
176
     0
 90
        0
176
     0
 62
    18
420
        0
176
     0
 90
       50
176
     0
 90
        3
176
     0
 62
     5
420
      255
176
     0
290
     0
176
     0
 90
       50
176
     0
 90
       50
176
     0
 90
       50
176
     0
290
     0
176
     0
 90
       50
176
     0
 62
   256
176
     0
 40
1.0
176
     0
 90
        2
176
     0
  1
strokes_ogs.tif
176
     0
290
     0
176
     0
 40
1.0
176
     0
 40
1.0
176
     0
  0
VISUALSTYLE
  5
39
102
{ACAD_REACTORS
330
2A
102
}
330
2A
100
AcDbVisualStyle
  2
Facepattern
 70
    15
177
     3
291
     1
 70
    58
 90
        2
176
     1
 90
        2
176
     1
 90
        0
176
     1
 90
        0
176
     1
 40
0.6
176
     1
 40
30.0
176
     1
 62
     7
420
 16777215
176
     1
 90
        1
176
     1
 90
        4
176
     1
 62
     7
176
     1
 62
   257
176
     1
 90
        1
176
     1
 90
        1
176
     1
 40
1.0
176
     1
 90
        8
176
     1
 62
     7
176
     1
 40
1.0
176
     1
 90
        1
176
     1
 90
        6
176
     1
 90
        2
176
     1
 62
     7
176
     1
 90
        5
176
     1
 90
        0
176
     1
 90
        0
176
     1
290
     0
176
     1
 90
        1
176
     1
 40
0.0
176
     1
 90
        0
176
     1
290
     0
176
     1
290
     1
176
     1
290
     1
176
     1
290
     0
176
     1
290
     0
176
     1
290
     0
176
     1
290
     0
176
     1
290
     0
176
     1
290
     0
176
     1
 90
       50
176
     1
 40
0.0
176
     1
 40
1.0
176
     1
 90
        0
176
     1
 62
    18
420
        0
176
     1
 90
       50
176
     1
 90
        3
176
     1
 62
     5
420
      255
176
     1
290
     0
176
     1
 90
       50
176
     1
 90
       50
176
     1
 90
       50
176
     1
290
     0
176
     1
 90
       50
176
     1
 62
   256
176
     0
 40
1.0
176
     0
 90
        2
176
     1
  1
strokes_ogs.tif
176
     1
290
     0
176
     1
 40
1.0
176
     1
 40
1.0
176
     1
  0
VISUALSTYLE
  5
2B
102
{ACAD_REACTORS
330
2A
102
}
330
2A
100
AcDbVisualStyle
  2
Flat
 70
     0
177
     3
291
     1
 70
    58
 90
        2
176
     1
 90
        1
176
     1
 90
        1
176
     1
 90
        2
176
     1
 40
0.6
176
     1
 40
30.0
176
     1
 62
     7
420
 16777215
176
     1
 90
        0
176
     1
 90
        0
176
     1
 62
     7
176
     1
 62
   257
176
     1
 90
        1
176
     1
 90
        1
176
     1
 40
1.0
176
     1
 90
        8
176
     1
 62
     7
176
     1
 40
1.0
176
     1
 90
        1
176
     1
 90
        6
176
     1
 90
        2
176
     1
 62
     7
176
     1
 90
        5
176
     1
 90
        0
176
     1
 90
        0
176
     1
290
     0
176
     1
 90
       13
176
     1
 40
0.0
176
     1
 90
        0
176
     1
290
     0
176
     1
290
     1
176
     1
290
     1
176
     1
290
     0
176
     1
290
     0
176
     1
290
     0
176
     1
290
     0
176
     1
290
     0
176
     1
290
     0
176
     1
 90
       50
176
     1
 40
0.0
176
     1
 40
1.0
176
     1
 90
        0
176
     1
 62
    18
420
        0
176
     1
 90
       50
176
     1
 90
        3
176
     1
 62
     5
420
      255
176
     1
290
     0
176
     1
 90
       50
176
     1
 90
       50
176
     1
 90
       50
176
     1
290
     0
176
     1
 90
       50
176
     1
 62
   256
176
     0
 40
1.0
176
     0
 90
        2
176
     1
  1
strokes_ogs.tif
176
     1
290
     0
176
     1
 40
1.0
176
     1
 40
1.0
176
     1
  0
VISUALSTYLE
  5
2C
102
{ACAD_REACTORS
330
2A
102
}
330
2A
100
AcDbVisualStyle
  2
FlatWithEdges
 70
     1
177
     3
291
     1
 70
    58
 90
        2
176
     1
 90
        1
176
     1
 90
        1
176
     1
 90
        2
176
     1
 40
0.6
176
     1
 40
30.0
176
     1
 62
     7
420
 16777215
176
     1
 90
        1
176
     1
 90
        0
176
     1
 62
     7
176
     1
 62
   257
176
     1
 90
        1
176
     1
 90
        1
176
     1
 40
1.0
176
     1
 90
        0
176
     1
 62
   257
176
     1
 40
1.0
176
     1
 90
        1
176
     1
 90
        6
176
     1
 90
        2
176
     1
 62
     7
176
     1
 90
        5
176
     1
 90
        0
176
     1
 90
        0
176
     1
290
     0
176
     1
 90
       13
176
     1
 40
0.0
176
     1
 90
        0
176
     1
290
     0
176
     1
290
     1
176
     1
290
     1
176
     1
290
     0
176
     1
290
     0
176
     1
290
     0
176
     1
290
     0
176
     1
290
     0
176
     1
290
     0
176
     1
 90
       50
176
     1
 40
0.0
176
     1
 40
1.0
176
     1
 90
        0
176
     1
 62
    18
420
        0
176
     1
 90
       50
176
     1
 90
        3
176
     1
 62
     5
420
      255
176
     1
290
     0
176
     1
 90
       50
176
     1
 90
       50
176
     1
 90
       50
176
     1
290
     0
176
     1
 90
       50
176
     1
 62
   256
176
     0
 40
1.0
176
     0
 90
        2
176
     1
  1
strokes_ogs.tif
176
     1
290
     0
176
     1
 40
1.0
176
     1
 40
1.0
176
     1
  0
VISUALSTYLE
  5
2D
102
{ACAD_REACTORS
330
2A
102
}
330
2A
100
AcDbVisualStyle
  2
Gouraud
 70
     2
177
     3
291
     1
 70
    58
 90
        2
176
     1
 90
        2
176
     1
 90
        1
176
     1
 90
        2
176
     1
 40
0.6
176
     1
 40
30.0
176
     1
 62
     7
420
 16777215
176
     1
 90
        0
176
     1
 90
        0
176
     1
 62
     7
176
     1
 62
   257
176
     1
 90
        1
176
     1
 90
        1
176
     1
 40
1.0
176
     1
 90
        0
176
     1
 62
     7
176
     1
 40
1.0
176
     1
 90
        1
176
     1
 90
        6
176
     1
 90
        2
176
     1
 62
     7
176
     1
 90
        5
176
     1
 90
        0
176
     1
 90
        0
176
     1
290
     0
176
     1
 90
       13
176
     1
 40
0.0
176
     1
 90
        0
176
     1
290
     0
176
     1
290
     1
176
     1
290
     1
176
     1
290
     0
176
     1
290
     0
176
     1
290
     0
176
     1
290
     0
176
     1
290
     0
176
     1
290
     0
176
     1
 90
       50
176
     1
 40
0.0
176
     1
 40
1.0
176
     1
 90
        0
176
     1
 62
    18
420
        0
176
     1
 90
       50
176
     1
 90
        3
176
     1
 62
     5
420
      255
176
     1
290
     0
176
     1
 90
       50
176
     1
 90
       50
176
     1
 90
       50
176
     1
290
     0
176
     1
 90
       50
176
     1
 62
   256
176
     0
 40
1.0
176
     0
 90
        2
176
     1
  1
strokes_ogs.tif
176
     1
290
     0
176
     1
 40
1.0
176
     1
 40
1.0
176
     1
  0
VISUALSTYLE
  5
2E
102
{ACAD_REACTORS
330
2A
102
}
330
2A
100
AcDbVisualStyle
  2
GouraudWithEdges
 70
     3
177
     3
291
     1
 70
    58
 90
        2
176
     1
 90
        2
176
     1
 90
        1
176
     1
 90
        2
176
     1
 40
0.6
176
     1
 40
30.0
176
     1
 62
     7
420
 16777215
176
     1
 90
        1
176
     1
 90
        0
176
     1
 62
     7
176
     1
 62
   257
176
     1
 90
        1
176
     1
 90
        1
176
     1
 40
1.0
176
     1
 90
        0
176
     1
 62
   257
176
     1
 40
1.0
176
     1
 90
        1
176
     1
 90
        6
176
     1
 90
        2
176
     1
 62
     7
176
     1
 90
        5
176
     1
 90
        0
176
     1
 90
        0
176
     1
290
     0
176
     1
 90
       13
176
     1
 40
0.0
176
     1
 90
        0
176
     1
290
     0
176
     1
290
     1
176
     1
290
     1
176
     1
290
     0
176
     1
290
     0
176
     1
290
     0
176
     1
290
     0
176
     1
290
     0
176
     1
290
     0
176
     1
 90
       50
176
     1
 40
0.0
176
     1
 40
1.0
176
     1
 90
        0
176
     1
 62
    18
420
        0
176
     1
 90
       50
176
     1
 90
        3
176
     1
 62
     5
420
      255
176
     1
290
     0
176
     1
 90
       50
176
     1
 90
       50
176
     1
 90
       50
176
     1
290
     0
176
     1
 90
       50
176
     1
 62
   256
176
     0
 40
1.0
176
     0
 90
        2
176
     1
  1
strokes_ogs.tif
176
     1
290
     0
176
     1
 40
1.0
176
     1
 40
1.0
176
     1
  0
VISUALSTYLE
  5
31
102
{ACAD_REACTORS
330
2A
102
}
330
2A
100
AcDbVisualStyle
  2
Hidden
 70
     6
177
     3
291
     0
 70
    58
 90
        1
176
     1
 90
        2
176
     1
 90
        2
176
     1
 90
        0
176
     1
 40
0.6
176
     1
 40
30.0
176
     1
 62
     7
420
 16777215
176
     1
 90
        2
176
     1
 90
        2
176
     1
 62
     7
176
     1
 62
   257
176
     1
 90
        2
176
     1
 90
        1
176
     1
 40
40.0
176
     1
 90
        0
176
     1
 62
   257
176
     1
 40
1.0
176
     1
 90
        1
176
     1
 90
        6
176
     1
 90
        2
176
     1
 62
     7
176
     1
 90
        3
176
     1
 90
        0
176
     1
 90
        0
176
     1
290
     0
176
     1
 90
        1
176
     1
 40
0.0
176
     1
 90
        0
176
     1
290
     0
176
     1
290
     1
176
     1
290
     1
176
     1
290
     0
176
     1
290
     0
176
     1
290
     0
176
     1
290
     0
176
     1
290
     0
176
     1
290
     0
176
     1
 90
       50
176
     1
 40
0.0
176
     1
 40
1.0
176
     1
 90
        0
176
     1
 62
    18
420
        0
176
     1
 90
       50
176
     1
 90
        3
176
     1
 62
     5
420
      255
176
     1
290
     0
176
     1
 90
       50
176
     1
 90
       50
176
     1
 90
       50
176
     1
290
     0
176
     1
 90
       50
176
     1
 62
   256
176
     0
 40
1.0
176
     0
 90
        2
176
     1
  1
strokes_ogs.tif
176
     1
290
     0
176
     1
 40
1.0
176
     1
 40
1.0
176
     1
  0
VISUALSTYLE
  5
3B
102
{ACAD_REACTORS
330
2A
102
}
330
2A
100
AcDbVisualStyle
  2
JitterOff
 70
    20
177
     3
291
     1
 70
    58
 90
        2
176
     0
 90
        2
176
     0
 90
        0
176
     0
 90
        0
176
     0
 40
0.6
176
     0
 40
30.0
176
     0
 62
     7
420
 16777215
176
     0
 90
        1
176
     0
 90
        4
176
     0
 62
     7
176
     0
 62
   257
176
     0
 90
        1
176
     0
 90
        1
176
     0
 40
1.0
176
     0
 90
       10
176
     2
 62
     7
176
     0
 40
1.0
176
     0
 90
        1
176
     0
 90
        6
176
     0
 90
        2
176
     0
 62
     7
176
     0
 90
        5
176
     0
 90
        0
176
     0
 90
        0
176
     0
290
     0
176
     0
 90
        1
176
     0
 40
0.0
176
     0
 90
        0
176
     0
290
     0
176
     0
290
     1
176
     0
290
     1
176
     0
290
     0
176
     0
290
     0
176
     0
290
     0
176
     0
290
     0
176
     0
290
     0
176
     0
290
     0
176
     0
 90
       50
176
     0
 40
0.0
176
     0
 40
1.0
176
     0
 90
        0
176
     0
 62
    18
420
        0
176
     0
 90
       50
176
     0
 90
        3
176
     0
 62
     5
420
      255
176
     0
290
     0
176
     0
 90
       50
176
     0
 90
       50
176
     0
 90
       50
176
     0
290
     0
176
     0
 90
       50
176
     0
 62
   256
176
     0
 40
1.0
176
     0
 90
        2
176
     0
  1
strokes_ogs.tif
176
     0
290
     0
176
     0
 40
1.0
176
     0
 40
1.0
176
     0
  0
VISUALSTYLE
  5
38
102
{ACAD_REACTORS
330
2A
102
}
330
2A
100
AcDbVisualStyle
  2
Linepattern
 70
    14
177
     3
291
     1
 70
    58
 90
        2
176
     1
 90
        2
176
     1
 90
        0
176
     1
 90
        0
176
     1
 40
0.6
176
     1
 40
30.0
176
     1
 62
     7
420
 16777215
176
     1
 90
        1
176
     1
 90
        4
176
     1
 62
     7
176
     1
 62
   257
176
     1
 90
        7
176
     1
 90
        7
176
     1
 40
1.0
176
     1
 90
        8
176
     1
 62
     7
176
     1
 40
1.0
176
     1
 90
        1
176
     1
 90
        6
176
     1
 90
        2
176
     1
 62
     7
176
     1
 90
        5
176
     1
 90
        0
176
     1
 90
        0
176
     1
290
     0
176
     1
 90
        1
176
     1
 40
0.0
176
     1
 90
        0
176
     1
290
     0
176
     1
290
     1
176
     1
290
     1
176
     1
290
     0
176
     1
290
     0
176
     1
290
     0
176
     1
290
     0
176
     1
290
     0
176
     1
290
     0
176
     1
 90
       50
176
     1
 40
0.0
176
     1
 40
1.0
176
     1
 90
        0
176
     1
 62
    18
420
        0
176
     1
 90
       50
176
     1
 90
        3
176
     1
 62
     5
420
      255
176
     1
290
     0
176
     1
 90
       50
176
     1
 90
       50
176
     1
 90
       50
176
     1
290
     0
176
     1
 90
       50
176
     1
 62
   256
176
     0
 40
1.0
176
     0
 90
        2
176
     1
  1
strokes_ogs.tif
176
     1
290
     0
176
     1
 40
1.0
176
     1
 40
1.0
176
     1
  0
VISUALSTYLE
  5
3C
102
{ACAD_REACTORS
330
2A
102
}
330
2A
100
AcDbVisualStyle
  2
OverhangOff
 70
    21
177
     3
291
     1
 70
    58
 90
        2
176
     0
 90
        2
176
     0
 90
        0
176
     0
 90
        0
176
     0
 40
0.6
176
     0
 40
30.0
176
     0
 62
     7
420
 16777215
176
     0
 90
        1
176
     0
 90
        4
176
     0
 62
     7
176
     0
 62
   257
176
     0
 90
        1
176
     0
 90
        1
176
     0
 40
1.0
176
     0
 90
        9
176
     2
 62
     7
176
     0
 40
1.0
176
     0
 90
        1
176
     0
 90
        6
176
     0
 90
        2
176
     0
 62
     7
176
     0
 90
        5
176
     0
 90
        0
176
     0
 90
        0
176
     0
290
     0
176
     0
 90
        1
176
     0
 40
0.0
176
     0
 90
        0
176
     0
290
     0
176
     0
290
     1
176
     0
290
     1
176
     0
290
     0
176
     0
290
     0
176
     0
290
     0
176
     0
290
     0
176
     0
290
     0
176
     0
290
     0
176
     0
 90
       50
176
     0
 40
0.0
176
     0
 40
1.0
176
     0
 90
        0
176
     0
 62
    18
420
        0
176
     0
 90
       50
176
     0
 90
        3
176
     0
 62
     5
420
      255
176
     0
290
     0
176
     0
 90
       50
176
     0
 90
       50
176
     0
 90
       50
176
     0
290
     0
176
     0
 90
       50
176
     0
 62
   256
176
     0
 40
1.0
176
     0
 90
        2
176
     0
  1
strokes_ogs.tif
176
     0
290
     0
176
     0
 40
1.0
176
     0
 40
1.0
176
     0
  0
VISUALSTYLE
  5
33
102
{ACAD_REACTORS
330
2A
102
}
330
2A
100
AcDbVisualStyle
  2
Realistic
 70
     8
177
     3
291
     0
 70
    58
 90
        2
176
     1
 90
        3
176
     1
 90
        0
176
     1
 90
        2
176
     1
 40
0.6
176
     1
 40
30.0
176
     1
 62
     7
420
 16777215
176
     1
 90
        0
176
     1
 90
        0
176
     1
 62
     7
176
     1
 62
   257
176
     1
 90
        1
176
     1
 90
        1
176
     1
 40
1.0
176
     1
 90
        8
176
     1
 62
   257
176
     1
 40
1.0
176
     1
 90
        1
176
     1
 90
        6
176
     1
 90
        2
176
     1
 62
     7
176
     1
 90
        3
176
     1
 90
        0
176
     1
 90
        0
176
     1
290
     0
176
     1
 90
       13
176
     1
 40
0.0
176
     1
 90
        0
176
     1
290
     0
176
     1
290
     1
176
     1
290
     1
176
     1
290
     0
176
     1
290
     0
176
     1
290
     0
176
     1
290
     0
176
     1
290
     0
176
     1
290
     0
176
     1
 90
       50
176
     1
 40
0.0
176
     1
 40
1.0
176
     1
 90
        0
176
     1
 62
    18
420
        0
176
     1
 90
       50
176
     1
 90
        3
176
     1
 62
     5
420
      255
176
     1
290
     0
176
     1
 90
       50
176
     1
 90
       50
176
     1
 90
       50
176
     1
290
     0
176
     1
 90
       50
176
     1
 62
   256
176
     0
 40
1.0
176
     0
 90
        2
176
     1
  1
strokes_ogs.tif
176
     1
290
     0
176
     1
 40
1.0
176
     1
 40
1.0
176
     1
  0
VISUALSTYLE
  5
42
102
{ACAD_REACTORS
330
2A
102
}
330
2A
100
AcDbVisualStyle
  2
Shaded
 70
    27
177
     3
291
     0
 70
    58
 90
        2
176
     1
 90
        2
176
     1
 90
        1
176
     1
 90
        2
176
     1
 40
0.6
176
     1
 40
30.0
176
     1
 62
     7
420
 16777215
176
     1
 90
        0
176
     1
 90
        4
176
     1
 62
     7
176
     1
 62
   257
176
     1
 90
        1
176
     1
 90
        1
176
     1
 40
1.0
176
     1
 90
        8
176
     1
 62
   257
176
     1
 40
1.0
176
     1
 90
        1
176
     1
 90
        6
176
     1
 90
        2
176
     1
 62
     8
420
  7895160
176
     1
 90
        3
176
     1
 90
        0
176
     1
 90
        0
176
     1
290
     0
176
     1
 90
        5
176
     1
 40
0.0
176
     1
 90
        0
176
     1
290
     0
176
     1
290
     1
176
     1
290
     1
176
     1
290
     0
176
     1
290
     0
176
     1
290
     0
176
     1
290
     0
176
     1
290
     0
176
     1
290
     0
176
     1
 90
       50
176
     1
 40
0.0
176
     1
 40
1.0
176
     1
 90
        0
176
     1
 62
    18
420
        0
176
     1
 90
       50
176
     1
 90
        3
176
     1
 62
     5
420
      255
176
     1
290
     0
176
     1
 90
       50
176
     1
 90
       50
176
     1
 90
       50
176
     1
290
     0
176
     1
 90
       50
176
     1
 62
   256
176
     0
 40
1.0
176
     0
 90
        2
176
     1
  1
strokes_ogs.tif
176
     1
290
     0
176
     1
 40
1.0
176
     1
 40
1.0
176
     1
  0
VISUALSTYLE
  5
41
102
{ACAD_REACTORS
330
2A
102
}
330
2A
100
AcDbVisualStyle
  2
Shaded with edges
 70
    26
177
     3
291
     0
 70
    58
 90
        2
176
     1
 90
        2
176
     1
 90
        1
176
     1
 90
        2
176
     1
 40
0.6
176
     1
 40
30.0
176
     1
 62
     7
420
 16777215
176
     1
 90
        1
176
     1
 90
       10
176
     1
 62
     7
176
     1
 62
   257
176
     1
 90
        2
176
     1
 90
        1
176
     1
 40
1.0
176
     1
 90
        8
176
     1
 62
   257
176
     1
 40
1.0
176
     1
 90
        1
176
     1
 90
        6
176
     1
 90
        2
176
     1
 62
     7
176
     1
 90
        3
176
     1
 90
        0
176
     1
 90
        0
176
     1
290
     0
176
     1
 90
        5
176
     1
 40
0.0
176
     1
 90
        0
176
     1
290
     0
176
     1
290
     1
176
     1
290
     1
176
     1
290
     0
176
     1
290
     0
176
     1
290
     0
176
     1
290
     0
176
     1
290
     0
176
     1
290
     0
176
     1
 90
       50
176
     1
 40
0.0
176
     1
 40
1.0
176
     1
 90
        0
176
     1
 62
    18
420
        0
176
     1
 90
       50
176
     1
 90
        3
176
     1
 62
     5
420
      255
176
     1
290
     0
176
     1
 90
       50
176
     1
 90
       50
176
     1
 90
       50
176
     1
290
     0
176
     1
 90
       50
176
     1
 62
   256
176
     0
 40
1.0
176
     0
 90
        2
176
     1
  1
strokes_ogs.tif
176
     1
290
     0
176
     1
 40
1.0
176
     1
 40
1.0
176
     1
  0
VISUALSTYLE
  5
3E
102
{ACAD_REACTORS
330
2A
102
}
330
2A
100
AcDbVisualStyle
  2
Shades of Gray
 70
    23
177
     3
291
     0
 70
    58
 90
        2
176
     1
 90
        2
176
     1
 90
        3
176
     1
 90
        0
176
     1
 40
0.6
176
     1
 40
30.0
176
     1
 62
     7
420
 16777215
176
     1
 90
        2
176
     1
 90
        2
176
     1
 62
     7
176
     1
 62
     7
176
     1
 90
        1
176
     1
 90
        1
176
     1
 40
40.0
176
     1
 90
        8
176
     1
 62
     7
176
     1
 40
1.0
176
     1
 90
        1
176
     1
 90
        6
176
     1
 90
        2
176
     1
 62
     7
176
     1
 90
        3
176
     1
 90
        0
176
     1
 90
        0
176
     1
290
     0
176
     1
 90
        1
176
     1
 40
0.0
176
     1
 90
        0
176
     1
290
     0
176
     1
290
     1
176
     1
290
     1
176
     1
290
     0
176
     1
290
     0
176
     1
290
     0
176
     1
290
     0
176
     1
290
     0
176
     1
290
     0
176
     1
 90
       50
176
     1
 40
0.0
176
     1
 40
1.0
176
     1
 90
        0
176
     1
 62
    18
420
        0
176
     1
 90
       50
176
     1
 90
        3
176
     1
 62
     5
420
      255
176
     1
290
     0
176
     1
 90
       50
176
     1
 90
       50
176
     1
 90
       50
176
     1
290
     0
176
     1
 90
       50
176
     1
 62
   256
176
     0
 40
1.0
176
     0
 90
        2
176
     1
  1
strokes_ogs.tif
176
     1
290
     0
176
     1
 40
1.0
176
     1
 40
1.0
176
     1
  0
VISUALSTYLE
  5
3F
102
{ACAD_REACTORS
330
2A
102
}
330
2A
100
AcDbVisualStyle
  2
Sketchy
 70
    24
177
     3
291
     0
 70
    58
 90
        1
176
     1
 90
        2
176
     1
 90
        2
176
     1
 90
        0
176
     1
 40
0.6
176
     1
 40
30.0
176
     1
 62
     7
420
 16777215
176
     1
 90
        2
176
     1
 90
        2
176
     1
 62
     7
176
     1
 62
     7
176
     1
 90
        1
176
     1
 90
        1
176
     1
 40
40.0
176
     1
 90
       11
176
     1
 62
     7
176
     1
 40
1.0
176
     1
 90
        1
176
     1
 90
        6
176
     1
 90
        2
176
     1
 62
     7
176
     1
 90
        6
176
     1
 90
        0
176
     1
 90
        0
176
     1
290
     0
176
     1
 90
        1
176
     1
 40
0.0
176
     1
 90
        0
176
     1
290
     0
176
     1
290
     1
176
     1
290
     1
176
     1
290
     0
176
     1
290
     0
176
     1
290
     0
176
     1
290
     0
176
     1
290
     0
176
     1
290
     0
176
     1
 90
       50
176
     1
 40
0.0
176
     1
 40
1.0
176
     1
 90
        0
176
     1
 62
    18
420
        0
176
     1
 90
       50
176
     1
 90
        3
176
     1
 62
     5
420
      255
176
     1
290
     0
176
     1
 90
       50
176
     1
 90
       50
176
     1
 90
       50
176
     1
290
     0
176
     1
 90
       50
176
     1
 62
   256
176
     0
 40
1.0
176
     0
 90
        2
176
     1
  1
strokes_ogs.tif
176
     1
290
     0
176
     1
 40
1.0
176
     1
 40
1.0
176
     1
  0
VISUALSTYLE
  5
37
102
{ACAD_REACTORS
330
2A
102
}
330
2A
100
AcDbVisualStyle
  2
Thicken
 70
    13
177
     3
291
     1
 70
    58
 90
        2
176
     1
 90
        2
176
     1
 90
        0
176
     1
 90
        0
176
     1
 40
0.6
176
     1
 40
30.0
176
     1
 62
     7
420
 16777215
176
     1
 90
        1
176
     1
 90
        4
176
     1
 62
     7
176
     1
 62
   257
176
     1
 90
        1
176
     1
 90
        1
176
     1
 40
1.0
176
     1
 90
       12
176
     1
 62
     7
176
     1
 40
1.0
176
     1
 90
        1
176
     1
 90
        6
176
     1
 90
        2
176
     1
 62
     7
176
     1
 90
        5
176
     1
 90
        0
176
     1
 90
        0
176
     1
290
     0
176
     1
 90
        1
176
     1
 40
0.0
176
     1
 90
        0
176
     1
290
     0
176
     1
290
     1
176
     1
290
     1
176
     1
290
     0
176
     1
290
     0
176
     1
290
     0
176
     1
290
     0
176
     1
290
     0
176
     1
290
     0
176
     1
 90
       50
176
     1
 40
0.0
176
     1
 40
1.0
176
     1
 90
        0
176
     1
 62
    18
420
        0
176
     1
 90
       50
176
     1
 90
        3
176
     1
 62
     5
420
      255
176
     1
290
     0
176
     1
 90
       50
176
     1
 90
       50
176
     1
 90
       50
176
     1
290
     0
176
     1
 90
       50
176
     1
 62
   256
176
     0
 40
1.0
176
     0
 90
        2
176
     1
  1
strokes_ogs.tif
176
     1
290
     0
176
     1
 40
1.0
176
     1
 40
1.0
176
     1
  0
VISUALSTYLE
  5
30
102
{ACAD_REACTORS
330
2A
102
}
330
2A
100
AcDbVisualStyle
  2
Wireframe
 70
     5
177
     3
291
     0
 70
    58
 90
        0
176
     1
 90
        2
176
     1
 90
        0
176
     1
 90
        0
176
     1
 40
0.6
176
     1
 40
30.0
176
     1
 62
     7
420
 16777215
176
     1
 90
        1
176
     1
 90
        4
176
     1
 62
     7
176
     1
 62
   257
176
     1
 90
        1
176
     1
 90
        1
176
     1
 40
1.0
176
     1
 90
        0
176
     1
 62
   257
176
     1
 40
1.0
176
     1
 90
        1
176
     1
 90
        6
176
     1
 90
        2
176
     1
 62
     7
176
     1
 90
        3
176
     1
 90
        0
176
     1
 90
        0
176
     1
290
     0
176
     1
 90
        1
176
     1
 40
0.0
176
     1
 90
        0
176
     1
290
     0
176
     1
290
     1
176
     1
290
     1
176
     1
290
     0
176
     1
290
     0
176
     1
290
     0
176
     1
290
     0
176
     1
290
     0
176
     1
290
     0
176
     1
 90
       50
176
     1
 40
0.0
176
     1
 40
1.0
176
     1
 90
        0
176
     1
 62
    18
420
        0
176
     1
 90
       50
176
     1
 90
        3
176
     1
 62
     5
420
      255
176
     1
290
     0
176
     1
 90
       50
176
     1
 90
       50
176
     1
 90
       50
176
     1
290
     0
176
     1
 90
       50
176
     1
 62
   256
176
     0
 40
1.0
176
     0
 90
        2
176
     1
  1
strokes_ogs.tif
176
     1
290
     0
176
     1
 40
1.0
176
     1
 40
1.0
176
     1
  0
VISUALSTYLE
  5
40
102
{ACAD_REACTORS
330
2A
102
}
330
2A
100
AcDbVisualStyle
  2
X-Ray
 70
    25
177
     3
291
     0
 70
    58
 90
        2
176
     1
 90
        2
176
     1
 90
        1
176
     1
 90
        1
176
     1
 40
0.5
176
     1
 40
30.0
176
     1
 62
     7
420
 16777215
176
     1
 90
        1
176
     1
 90
        0
176
     1
 62
     7
176
     1
 62
   257
176
     1
 90
        1
176
     1
 90
        1
176
     1
 40
1.0
176
     1
 90
        8
176
     1
 62
     7
176
     1
 40
1.0
176
     1
 90
        1
176
     1
 90
        6
176
     1
 90
        2
176
     1
 62
     7
176
     1
 90
        3
176
     1
 90
        0
176
     1
 90
        0
176
     1
290
     0
176
     1
 90
       13
176
     1
 40
0.0
176
     1
 90
        0
176
     1
290
     0
176
     1
290
     1
176
     1
290
     1
176
     1
290
     0
176
     1
290
     0
176
     1
290
     0
176
     1
290
     0
176
     1
290
     0
176
     1
290
     0
176
     1
 90
       50
176
     1
 40
0.0
176
     1
 40
1.0
176
     1
 90
        0
176
     1
 62
    18
420
        0
176
     1
 90
       50
176
     1
 90
        3
176
     1
 62
     5
420
      255
176
     1
290
     0
176
     1
 90
       50
176
     1
 90
       50
176
     1
 90
       50
176
     1
290
     0
176
     1
 90
       50
176
     1
 62
   256
176
     0
 40
1.0
176
     0
 90
        2
176
     1
  1
strokes_ogs.tif
176
     1
290
     0
176
     1
 40
1.0
176
     1
 40
1.0
176
     1
  0
DICTIONARYVAR
  5
68
102
{ACAD_REACTORS
330
67
102
}
330
67
100
DictionaryVariables
280
     0
  1
1:1
  0
DICTIONARYVAR
  5
6D
102
{ACAD_REACTORS
330
67
102
}
330
67
100
DictionaryVariables
280
     0
  1
Standard
  0
DICTIONARYVAR
  5
6C
102
{ACAD_REACTORS
330
67
102
}
330
67
100
DictionaryVariables
280
     0
  1
Standard
  0
DICTIONARY
  5
69
330
5A
100
AcDbDictionary
280
     1
281
     1
  3
ACAD_ROUNDTRIP_2008_TABLESTYLE_CELLSTYLEMAP
360
6A
  0
CELLSTYLEMAP
  5
6A
102
{ACAD_REACTORS
330
69
102
}
330
69
100
AcDbCellStyleMap
 90
        3
300
CELLSTYLE
  1
TABLEFORMAT_BEGIN
 90
        5
170
     1
 91
        0
 92
    32768
 62
   257
 93
        1
300
CONTENTFORMAT
  1
CONTENTFORMAT_BEGIN
 90
        0
 91
        0
 92
        4
 93
        0
300

 40
0.0
140
1.0
 94
        5
 62
     0
340
11
144
0.25
309
CONTENTFORMAT_END
171
     1
301
MARGIN
  1
CELLMARGIN_BEGIN
 40
0.06
 40
0.06
 40
0.06
 40
0.06
 40
0.06
 40
0.06
309
CELLMARGIN_END
 94
        6
 95
        1
302
GRIDFORMAT
  1
GRIDFORMAT_BEGIN
 90
        0
 91
        1
 62
     0
 92
       -2
340
14
 93
        0
 40
0.045
309
GRIDFORMAT_END
 95
        2
302
GRIDFORMAT
  1
GRIDFORMAT_BEGIN
 90
        0
 91
        1
 62
     0
 92
       -2
340
14
 93
        0
 40
0.045
309
GRIDFORMAT_END
 95
        4
302
GRIDFORMAT
  1
GRIDFORMAT_BEGIN
 90
        0
 91
        1
 62
     0
 92
       -2
340
14
 93
        0
 40
0.045
309
GRIDFORMAT_END
 95
        8
302
GRIDFORMAT
  1
GRIDFORMAT_BEGIN
 90
        0
 91
        1
 62
     0
 92
       -2
340
14
 93
        0
 40
0.045
309
GRIDFORMAT_END
 95
       16
302
GRIDFORMAT
  1
GRIDFORMAT_BEGIN
 90
        0
 91
        1
 62
     0
 92
       -2
340
14
 93
        0
 40
0.045
309
GRIDFORMAT_END
 95
       32
302
GRIDFORMAT
  1
GRIDFORMAT_BEGIN
 90
        0
 91
        1
 62
     0
 92
       -2
340
14
 93
        0
 40
0.045
309
GRIDFORMAT_END
309
TABLEFORMAT_END
  1
CELLSTYLE_BEGIN
 90
        1
 91
        1
300
_TITLE
309
CELLSTYLE_END
300
CELLSTYLE
  1
TABLEFORMAT_BEGIN
 90
        5
170
     1
 91
        0
 92
        0
 62
   257
 93
        1
300
CONTENTFORMAT
  1
CONTENTFORMAT_BEGIN
 90
        0
 91
        0
 92
        4
 93
        0
300

 40
0.0
140
1.0
 94
        5
 62
     0
340
11
144
0.18
309
CONTENTFORMAT_END
171
     1
301
MARGIN
  1
CELLMARGIN_BEGIN
 40
0.06
 40
0.06
 40
0.06
 40
0.06
 40
0.06
 40
0.06
309
CELLMARGIN_END
 94
        6
 95
        1
302
GRIDFORMAT
  1
GRIDFORMAT_BEGIN
 90
        0
 91
        1
 62
     0
 92
       -2
340
14
 93
        0
 40
0.045
309
GRIDFORMAT_END
 95
        2
302
GRIDFORMAT
  1
GRIDFORMAT_BEGIN
 90
        0
 91
        1
 62
     0
 92
       -2
340
14
 93
        0
 40
0.045
309
GRIDFORMAT_END
 95
        4
302
GRIDFORMAT
  1
GRIDFORMAT_BEGIN
 90
        0
 91
        1
 62
     0
 92
       -2
340
14
 93
        0
 40
0.045
309
GRIDFORMAT_END
 95
        8
302
GRIDFORMAT
  1
GRIDFORMAT_BEGIN
 90
        0
 91
        1
 62
     0
 92
       -2
340
14
 93
        0
 40
0.045
309
GRIDFORMAT_END
 95
       16
302
GRIDFORMAT
  1
GRIDFORMAT_BEGIN
 90
        0
 91
        1
 62
     0
 92
       -2
340
14
 93
        0
 40
0.045
309
GRIDFORMAT_END
 95
       32
302
GRIDFORMAT
  1
GRIDFORMAT_BEGIN
 90
        0
 91
        1
 62
     0
 92
       -2
340
14
 93
        0
 40
0.045
309
GRIDFORMAT_END
309
TABLEFORMAT_END
  1
CELLSTYLE_BEGIN
 90
        2
 91
        1
300
_HEADER
309
CELLSTYLE_END
300
CELLSTYLE
  1
TABLEFORMAT_BEGIN
 90
        5
170
     1
 91
        0
 92
        0
 62
   257
 93
        1
300
CONTENTFORMAT
  1
CONTENTFORMAT_BEGIN
 90
        0
 91
        0
 92
        4
 93
        0
300

 40
0.0
140
1.0
 94
        2
 62
     0
340
11
144
0.18
309
CONTENTFORMAT_END
171
     1
301
MARGIN
  1
CELLMARGIN_BEGIN
 40
0.06
 40
0.06
 40
0.06
 40
0.06
 40
0.06
 40
0.06
309
CELLMARGIN_END
 94
        6
 95
        1
302
GRIDFORMAT
  1
GRIDFORMAT_BEGIN
 90
        0
 91
        1
 62
     0
 92
       -2
340
14
 93
        0
 40
0.045
309
GRIDFORMAT_END
 95
        2
302
GRIDFORMAT
  1
GRIDFORMAT_BEGIN
 90
        0
 91
        1
 62
     0
 92
       -2
340
14
 93
        0
 40
0.045
309
GRIDFORMAT_END
 95
        4
302
GRIDFORMAT
  1
GRIDFORMAT_BEGIN
 90
        0
 91
        1
 62
     0
 92
       -2
340
14
 93
        0
 40
0.045
309
GRIDFORMAT_END
 95
        8
302
GRIDFORMAT
  1
GRIDFORMAT_BEGIN
 90
        0
 91
        1
 62
     0
 92
       -2
340
14
 93
        0
 40
0.045
309
GRIDFORMAT_END
 95
       16
302
GRIDFORMAT
  1
GRIDFORMAT_BEGIN
 90
        0
 91
        1
 62
     0
 92
       -2
340
14
 93
        0
 40
0.045
309
GRIDFORMAT_END
 95
       32
302
GRIDFORMAT
  1
GRIDFORMAT_BEGIN
 90
        0
 91
        1
 62
     0
 92
       -2
340
14
 93
        0
 40
0.045
309
GRIDFORMAT_END
309
TABLEFORMAT_END
  1
CELLSTYLE_BEGIN
 90
        3
 91
        2
300
_DATA
309
CELLSTYLE_END
  0
ENDSEC
  0
EOF
